%TF.GenerationSoftware,KiCad,Pcbnew,10.0.5*%
%TF.CreationDate,2026-07-27T20:12:19-04:00*%
%TF.ProjectId,exopet-hat,65786f70-6574-42d6-9861-742e6b696361,rev?*%
%TF.SameCoordinates,Original*%
%TF.FileFunction,Copper,L1,Top*%
%TF.FilePolarity,Positive*%
%FSLAX46Y46*%
G04 Gerber Fmt 4.6, Leading zero omitted, Abs format (unit mm)*
G04 Created by KiCad (PCBNEW 10.0.5) date 2026-07-27 20:12:19*
%MOMM*%
%LPD*%
G01*
G04 APERTURE LIST*
G04 Aperture macros list*
%AMRoundRect*
0 Rectangle with rounded corners*
0 $1 Rounding radius*
0 $2 $3 $4 $5 $6 $7 $8 $9 X,Y pos of 4 corners*
0 Add a 4 corners polygon primitive as box body*
4,1,4,$2,$3,$4,$5,$6,$7,$8,$9,$2,$3,0*
0 Add four circle primitives for the rounded corners*
1,1,$1+$1,$2,$3*
1,1,$1+$1,$4,$5*
1,1,$1+$1,$6,$7*
1,1,$1+$1,$8,$9*
0 Add four rect primitives between the rounded corners*
20,1,$1+$1,$2,$3,$4,$5,0*
20,1,$1+$1,$4,$5,$6,$7,0*
20,1,$1+$1,$6,$7,$8,$9,0*
20,1,$1+$1,$8,$9,$2,$3,0*%
G04 Aperture macros list end*
%TA.AperFunction,ComponentPad*%
%ADD10R,1.700000X1.700000*%
%TD*%
%TA.AperFunction,ComponentPad*%
%ADD11C,1.700000*%
%TD*%
%TA.AperFunction,ComponentPad*%
%ADD12C,1.710000*%
%TD*%
%TA.AperFunction,ComponentPad*%
%ADD13R,2.500000X2.500000*%
%TD*%
%TA.AperFunction,ComponentPad*%
%ADD14O,2.500000X2.500000*%
%TD*%
%TA.AperFunction,ComponentPad*%
%ADD15C,2.010000*%
%TD*%
%TA.AperFunction,ComponentPad*%
%ADD16C,4.700000*%
%TD*%
%TA.AperFunction,ComponentPad*%
%ADD17RoundRect,0.250001X0.949999X-0.949999X0.949999X0.949999X-0.949999X0.949999X-0.949999X-0.949999X0*%
%TD*%
%TA.AperFunction,ComponentPad*%
%ADD18C,2.400000*%
%TD*%
%TA.AperFunction,ComponentPad*%
%ADD19R,2.600000X2.600000*%
%TD*%
%TA.AperFunction,ComponentPad*%
%ADD20C,2.600000*%
%TD*%
%TA.AperFunction,ComponentPad*%
%ADD21RoundRect,0.250001X-0.949999X-0.949999X0.949999X-0.949999X0.949999X0.949999X-0.949999X0.949999X0*%
%TD*%
%TA.AperFunction,ViaPad*%
%ADD22C,0.800000*%
%TD*%
%TA.AperFunction,Conductor*%
%ADD23C,0.250000*%
%TD*%
G04 APERTURE END LIST*
D10*
%TO.P,PSU1,1*%
%TO.N,unconnected-(PSU1-Pin_1-Pad1)*%
X26000000Y-43800000D03*
D11*
%TO.P,PSU1,2*%
%TO.N,+12V*%
X23460000Y-43800000D03*
%TO.P,PSU1,3*%
%TO.N,GND*%
X20920000Y-43800000D03*
%TO.P,PSU1,4*%
X18380000Y-43800000D03*
%TO.P,PSU1,5*%
%TO.N,+5V_BUCK*%
X15840000Y-43800000D03*
%TD*%
D12*
%TO.P,F3,1*%
%TO.N,+12V*%
X42000000Y-43400000D03*
%TO.P,F3,2*%
%TO.N,CH2_FUSED*%
X47100000Y-44600000D03*
%TD*%
D13*
%TO.P,K1,1*%
%TO.N,CH1_FUSED*%
X37200000Y-16200000D03*
D14*
%TO.P,K1,2*%
%TO.N,+12V*%
X35200000Y-10200000D03*
%TO.P,K1,3*%
%TO.N,CH1_OUT*%
X23000000Y-10200000D03*
%TO.P,K1,4*%
%TO.N,unconnected-(K1-Pad4)*%
X23000000Y-22200000D03*
%TO.P,K1,5*%
%TO.N,RLY1_DRV*%
X35200000Y-22200000D03*
%TD*%
D15*
%TO.P,F1,1*%
%TO.N,+12V_IN*%
X14500000Y-29500000D03*
%TO.P,F1,2*%
%TO.N,+12V_F*%
X13300000Y-34600000D03*
%TD*%
D13*
%TO.P,K2,1*%
%TO.N,CH2_FUSED*%
X60400000Y-16200000D03*
D14*
%TO.P,K2,2*%
%TO.N,+12V*%
X58400000Y-10200000D03*
%TO.P,K2,3*%
%TO.N,CH2_OUT*%
X46200000Y-10200000D03*
%TO.P,K2,4*%
%TO.N,unconnected-(K2-Pad4)*%
X46200000Y-22200000D03*
%TO.P,K2,5*%
%TO.N,RLY2_DRV*%
X58400000Y-22200000D03*
%TD*%
D16*
%TO.P,H4,1*%
%TO.N,N/C*%
X61500000Y-52500000D03*
%TD*%
D17*
%TO.P,J13,1*%
%TO.N,FLOAT1_SW*%
X4000000Y-26300000D03*
D18*
%TO.P,J13,2*%
%TO.N,GND*%
X4000000Y-22800000D03*
%TD*%
D16*
%TO.P,H2,1*%
%TO.N,N/C*%
X61500000Y-3500000D03*
%TD*%
%TO.P,H1,1*%
%TO.N,N/C*%
X3500000Y-3500000D03*
%TD*%
D19*
%TO.P,J1,1*%
%TO.N,+12V_IN*%
X14600000Y-14000000D03*
D20*
%TO.P,J1,2*%
%TO.N,GND*%
X8600000Y-14000000D03*
%TO.P,J1,3*%
%TO.N,unconnected-(J1-Pad3)*%
X11600000Y-18700000D03*
%TD*%
D12*
%TO.P,F4,1*%
%TO.N,+12V*%
X52500000Y-43400000D03*
%TO.P,F4,2*%
%TO.N,CH3_FUSED*%
X57600000Y-44600000D03*
%TD*%
D17*
%TO.P,J14,1*%
%TO.N,FLOAT2_SW*%
X4000000Y-34600000D03*
D18*
%TO.P,J14,2*%
%TO.N,GND*%
X4000000Y-31100000D03*
%TD*%
D10*
%TO.P,J3,1*%
%TO.N,+3V3*%
X8000000Y-3200000D03*
D11*
%TO.P,J3,2*%
%TO.N,+5V*%
X8000000Y-5740000D03*
%TO.P,J3,3*%
%TO.N,unconnected-(J3-SDA/GPIO2-Pad3)*%
X10540000Y-3200000D03*
%TO.P,J3,4*%
%TO.N,+5V*%
X10540000Y-5740000D03*
%TO.P,J3,5*%
%TO.N,unconnected-(J3-SCL/GPIO3-Pad5)*%
X13080000Y-3200000D03*
%TO.P,J3,6*%
%TO.N,GND*%
X13080000Y-5740000D03*
%TO.P,J3,7*%
%TO.N,1WIRE_DATA*%
X15620000Y-3200000D03*
%TO.P,J3,8*%
%TO.N,unconnected-(J3-GPIO14/TXD-Pad8)*%
X15620000Y-5740000D03*
%TO.P,J3,9*%
%TO.N,GND*%
X18160000Y-3200000D03*
%TO.P,J3,10*%
%TO.N,unconnected-(J3-GPIO15/RXD-Pad10)*%
X18160000Y-5740000D03*
%TO.P,J3,11*%
%TO.N,GPIO17*%
X20700000Y-3200000D03*
%TO.P,J3,12*%
%TO.N,unconnected-(J3-GPIO18/PWM0-Pad12)*%
X20700000Y-5740000D03*
%TO.P,J3,13*%
%TO.N,GPIO27*%
X23240000Y-3200000D03*
%TO.P,J3,14*%
%TO.N,GND*%
X23240000Y-5740000D03*
%TO.P,J3,15*%
%TO.N,GPIO22*%
X25780000Y-3200000D03*
%TO.P,J3,16*%
%TO.N,GPIO23*%
X25780000Y-5740000D03*
%TO.P,J3,17*%
%TO.N,+3V3*%
X28320000Y-3200000D03*
%TO.P,J3,18*%
%TO.N,unconnected-(J3-GPIO24-Pad18)*%
X28320000Y-5740000D03*
%TO.P,J3,19*%
%TO.N,unconnected-(J3-MOSI0/GPIO10-Pad19)*%
X30860000Y-3200000D03*
%TO.P,J3,20*%
%TO.N,GND*%
X30860000Y-5740000D03*
%TO.P,J3,21*%
%TO.N,unconnected-(J3-MISO0/GPIO9-Pad21)*%
X33400000Y-3200000D03*
%TO.P,J3,22*%
%TO.N,unconnected-(J3-GPIO25-Pad22)*%
X33400000Y-5740000D03*
%TO.P,J3,23*%
%TO.N,unconnected-(J3-SCLK0/GPIO11-Pad23)*%
X35940000Y-3200000D03*
%TO.P,J3,24*%
%TO.N,unconnected-(J3-~{CE0}/GPIO8-Pad24)*%
X35940000Y-5740000D03*
%TO.P,J3,25*%
%TO.N,GND*%
X38480000Y-3200000D03*
%TO.P,J3,26*%
%TO.N,unconnected-(J3-~{CE1}/GPIO7-Pad26)*%
X38480000Y-5740000D03*
%TO.P,J3,27*%
%TO.N,EEPROM_SDA*%
X41020000Y-3200000D03*
%TO.P,J3,28*%
%TO.N,EEPROM_SCL*%
X41020000Y-5740000D03*
%TO.P,J3,29*%
%TO.N,unconnected-(J3-GCLK1/GPIO5-Pad29)*%
X43560000Y-3200000D03*
%TO.P,J3,30*%
%TO.N,GND*%
X43560000Y-5740000D03*
%TO.P,J3,31*%
%TO.N,unconnected-(J3-GCLK2/GPIO6-Pad31)*%
X46100000Y-3200000D03*
%TO.P,J3,32*%
%TO.N,FLOAT2_GPIO*%
X46100000Y-5740000D03*
%TO.P,J3,33*%
%TO.N,unconnected-(J3-PWM1/GPIO13-Pad33)*%
X48640000Y-3200000D03*
%TO.P,J3,34*%
%TO.N,GND*%
X48640000Y-5740000D03*
%TO.P,J3,35*%
%TO.N,unconnected-(J3-GPIO19/MISO1-Pad35)*%
X51180000Y-3200000D03*
%TO.P,J3,36*%
%TO.N,FLOAT1_GPIO*%
X51180000Y-5740000D03*
%TO.P,J3,37*%
%TO.N,unconnected-(J3-GPIO26-Pad37)*%
X53720000Y-3200000D03*
%TO.P,J3,38*%
%TO.N,unconnected-(J3-GPIO20/MOSI1-Pad38)*%
X53720000Y-5740000D03*
%TO.P,J3,39*%
%TO.N,GND*%
X56260000Y-3200000D03*
%TO.P,J3,40*%
%TO.N,unconnected-(J3-GPIO21/SCLK1-Pad40)*%
X56260000Y-5740000D03*
%TD*%
D13*
%TO.P,K3,1*%
%TO.N,CH3_FUSED*%
X37200000Y-33300000D03*
D14*
%TO.P,K3,2*%
%TO.N,+12V*%
X35200000Y-27300000D03*
%TO.P,K3,3*%
%TO.N,CH3_OUT*%
X23000000Y-27300000D03*
%TO.P,K3,4*%
%TO.N,unconnected-(K3-Pad4)*%
X23000000Y-39300000D03*
%TO.P,K3,5*%
%TO.N,RLY3_DRV*%
X35200000Y-39300000D03*
%TD*%
D21*
%TO.P,J9,1*%
%TO.N,CH2_OUT*%
X24500000Y-52000000D03*
D18*
%TO.P,J9,2*%
%TO.N,GND*%
X28000000Y-52000000D03*
%TD*%
D12*
%TO.P,F2,1*%
%TO.N,+12V*%
X31500000Y-43400000D03*
%TO.P,F2,2*%
%TO.N,CH1_FUSED*%
X36600000Y-44600000D03*
%TD*%
D16*
%TO.P,H3,1*%
%TO.N,N/C*%
X3500000Y-52500000D03*
%TD*%
D13*
%TO.P,K4,1*%
%TO.N,CH4_COM*%
X60400000Y-33300000D03*
D14*
%TO.P,K4,2*%
%TO.N,+12V*%
X58400000Y-27300000D03*
%TO.P,K4,3*%
%TO.N,CH4_NO*%
X46200000Y-27300000D03*
%TO.P,K4,4*%
%TO.N,CH4_NC*%
X46200000Y-39300000D03*
%TO.P,K4,5*%
%TO.N,RLY4_DRV*%
X58400000Y-39300000D03*
%TD*%
D21*
%TO.P,J8,1*%
%TO.N,CH1_OUT*%
X12500000Y-52000000D03*
D18*
%TO.P,J8,2*%
%TO.N,GND*%
X16000000Y-52000000D03*
%TD*%
D21*
%TO.P,J11,1*%
%TO.N,CH4_COM*%
X49500000Y-52000000D03*
D18*
%TO.P,J11,2*%
%TO.N,CH4_NO*%
X53000000Y-52000000D03*
%TO.P,J11,3*%
%TO.N,CH4_NC*%
X56500000Y-52000000D03*
%TD*%
D21*
%TO.P,J10,1*%
%TO.N,CH3_OUT*%
X36500000Y-52000000D03*
D18*
%TO.P,J10,2*%
%TO.N,GND*%
X40000000Y-52000000D03*
%TD*%
D17*
%TO.P,J4,1*%
%TO.N,+3V3*%
X4000000Y-46500000D03*
D18*
%TO.P,J4,2*%
%TO.N,1WIRE_DATA*%
X4000000Y-43000000D03*
%TO.P,J4,3*%
%TO.N,GND*%
X4000000Y-39500000D03*
%TD*%
D22*
%TO.N,+12V*%
X48587500Y-8446000D03*
%TO.N,CH1_OUT*%
X49500000Y-13189400D03*
X22590000Y-14564500D03*
%TO.N,RLY1_DRV*%
X50870300Y-13692200D03*
%TO.N,CH2_OUT*%
X45938600Y-34481600D03*
X38326100Y-35858600D03*
%TO.N,RLY2_DRV*%
X52562500Y-13695400D03*
X13895300Y-37812900D03*
%TO.N,FLOAT1_SW*%
X50669300Y-42638000D03*
X40821700Y-13973200D03*
%TO.N,FLOAT2_SW*%
X51949800Y-40407100D03*
X41639200Y-15892000D03*
%TO.N,+5V*%
X18804500Y-18878300D03*
%TO.N,GPIO27*%
X4394800Y-19875000D03*
%TO.N,EEPROM_SDA*%
X44314700Y-24674000D03*
X41589500Y-28444800D03*
%TO.N,EEPROM_SCL*%
X33623300Y-11284800D03*
X43000000Y-30553100D03*
X35293100Y-29179000D03*
%TO.N,CH3_OUT*%
X37609500Y-30602800D03*
%TO.N,RLY3_DRV*%
X50520200Y-19442500D03*
X38873700Y-23109200D03*
%TO.N,RLY4_DRV*%
X27922900Y-31329500D03*
X51500100Y-34686800D03*
%TD*%
%TO.N,+12V*%
D23*
X56823300Y-27300000D02*
X54794900Y-25271600D01*
X48587500Y-8623300D02*
X48587500Y-8446000D01*
X58400000Y-27300000D02*
X56823300Y-27300000D01*
X35200000Y-27300000D02*
X36776700Y-27300000D01*
X58400000Y-10200000D02*
X56823300Y-10200000D01*
X52500000Y-43400000D02*
X42000000Y-43400000D01*
X55246600Y-8623300D02*
X56823300Y-10200000D01*
X30723300Y-42623300D02*
X24636700Y-42623300D01*
X54794900Y-25271600D02*
X45284200Y-25271600D01*
X31500000Y-43400000D02*
X42000000Y-43400000D01*
X35200000Y-10200000D02*
X36776700Y-10200000D01*
X43255800Y-27300000D02*
X36776700Y-27300000D01*
X38353400Y-8623300D02*
X48587500Y-8623300D01*
X24636700Y-42623300D02*
X23460000Y-43800000D01*
X31500000Y-43400000D02*
X30723300Y-42623300D01*
X45284200Y-25271600D02*
X43255800Y-27300000D01*
X48587500Y-8623300D02*
X55246600Y-8623300D01*
X36776700Y-10200000D02*
X38353400Y-8623300D01*
%TO.N,GND*%
X18380000Y-43800000D02*
X20920000Y-43800000D01*
X48640000Y-5740000D02*
X47449400Y-4549400D01*
X8600000Y-18200000D02*
X8600000Y-14000000D01*
X4000000Y-22800000D02*
X8600000Y-18200000D01*
X22005000Y-6975000D02*
X23240000Y-5740000D01*
X29557900Y-53557900D02*
X28000000Y-52000000D01*
X37116700Y-4563300D02*
X38480000Y-3200000D01*
X7123300Y-42623300D02*
X17203300Y-42623300D01*
X56260000Y-3200000D02*
X54990000Y-4470000D01*
X17203300Y-42623300D02*
X18380000Y-43800000D01*
X23240000Y-5740000D02*
X24490700Y-6990700D01*
X49910000Y-4470000D02*
X48640000Y-5740000D01*
X4000000Y-39500000D02*
X7123300Y-42623300D01*
X14315000Y-6975000D02*
X22005000Y-6975000D01*
X54990000Y-4470000D02*
X49910000Y-4470000D01*
X42290000Y-4470000D02*
X39750000Y-4470000D01*
X30860000Y-5740000D02*
X32036700Y-4563300D01*
X44750600Y-4549400D02*
X43560000Y-5740000D01*
X40000000Y-52000000D02*
X38442100Y-53557900D01*
X47449400Y-4549400D02*
X44750600Y-4549400D01*
X29609300Y-6990700D02*
X30860000Y-5740000D01*
X39750000Y-4470000D02*
X38480000Y-3200000D01*
X43560000Y-5740000D02*
X42290000Y-4470000D01*
X13080000Y-5740000D02*
X14315000Y-6975000D01*
X32036700Y-4563300D02*
X37116700Y-4563300D01*
X24490700Y-6990700D02*
X29609300Y-6990700D01*
X38442100Y-53557900D02*
X29557900Y-53557900D01*
%TO.N,CH1_OUT*%
X23965100Y-13189400D02*
X22590000Y-14564500D01*
X23000000Y-10200000D02*
X24576700Y-10200000D01*
X24576700Y-13189400D02*
X23965100Y-13189400D01*
X24576700Y-10200000D02*
X24576700Y-13189400D01*
X49500000Y-13189400D02*
X24576700Y-13189400D01*
%TO.N,RLY1_DRV*%
X42362500Y-22200000D02*
X35200000Y-22200000D01*
X50870300Y-13692200D02*
X42362500Y-22200000D01*
%TO.N,CH2_OUT*%
X38326100Y-35858600D02*
X39703100Y-34481600D01*
X39703100Y-34481600D02*
X45938600Y-34481600D01*
%TO.N,RLY2_DRV*%
X58400000Y-20623300D02*
X52562500Y-14785800D01*
X58400000Y-22200000D02*
X56823300Y-22200000D01*
X19636400Y-28389000D02*
X19636400Y-32071800D01*
X19636400Y-32071800D02*
X13895300Y-37812900D01*
X58400000Y-22200000D02*
X58400000Y-20623300D01*
X55076000Y-23947300D02*
X24078100Y-23947300D01*
X52562500Y-14785800D02*
X52562500Y-13695400D01*
X24078100Y-23947300D02*
X19636400Y-28389000D01*
X56823300Y-22200000D02*
X55076000Y-23947300D01*
%TO.N,FLOAT1_SW*%
X50669300Y-42638000D02*
X49953700Y-41922400D01*
X24737200Y-13973200D02*
X40821700Y-13973200D01*
X49953700Y-41922400D02*
X8607600Y-41922400D01*
X9235800Y-26300000D02*
X15930800Y-19605000D01*
X4000000Y-26300000D02*
X9235800Y-26300000D01*
X19105500Y-19605000D02*
X24737200Y-13973300D01*
X15930800Y-19605000D02*
X19105500Y-19605000D01*
X2457300Y-27842700D02*
X4000000Y-26300000D01*
X8607600Y-41922400D02*
X4014200Y-37329000D01*
X2457300Y-35851800D02*
X2457300Y-27842700D01*
X3934500Y-37329000D02*
X2457300Y-35851800D01*
%TO.N,CH3_FUSED*%
X37200000Y-33300000D02*
X46575000Y-33300000D01*
X57600000Y-44325000D02*
X57600000Y-44600000D01*
X46575000Y-33300000D02*
X57600000Y-44325000D01*
%TO.N,FLOAT2_SW*%
X4000000Y-34600000D02*
X10303000Y-40903000D01*
X4000000Y-34600000D02*
X4749300Y-34600000D01*
X51453900Y-40903000D02*
X51949800Y-40407100D01*
X10303000Y-40903000D02*
X51453900Y-40903000D01*
X19545200Y-19804100D02*
X37727100Y-19804100D01*
X4749300Y-34600000D02*
X19545200Y-19804100D01*
X37727100Y-19804100D02*
X41639200Y-15892000D01*
%TO.N,+3V3*%
X8000000Y-3200000D02*
X8989600Y-3200000D01*
X27143200Y-4376800D02*
X28320000Y-3200000D01*
X8989600Y-3200000D02*
X8989600Y-3335600D01*
X8989600Y-3335600D02*
X10030800Y-4376800D01*
X10030800Y-4376800D02*
X27143200Y-4376800D01*
%TO.N,+5V*%
X18804500Y-14004500D02*
X10540000Y-5740000D01*
X10540000Y-5740000D02*
X8000000Y-5740000D01*
X18804500Y-18878300D02*
X18804500Y-14004500D01*
%TO.N,GPIO27*%
X6927300Y-2023300D02*
X6659300Y-2291300D01*
X22063300Y-2023300D02*
X6927300Y-2023300D01*
X6659300Y-17610500D02*
X4394800Y-19875000D01*
X6659300Y-2291300D02*
X6659300Y-17610500D01*
X23240000Y-3200000D02*
X22063300Y-2023300D01*
%TO.N,EEPROM_SDA*%
X59050100Y-28904800D02*
X50932400Y-28904800D01*
X44314700Y-24674000D02*
X58010300Y-24674000D01*
X50932400Y-28904800D02*
X47750900Y-25723300D01*
X60001200Y-26664900D02*
X60001200Y-27953700D01*
X60001200Y-27953700D02*
X59050100Y-28904800D01*
X58010300Y-24674000D02*
X60001200Y-26664900D01*
X42825300Y-28444800D02*
X41589500Y-28444800D01*
X47750900Y-25723300D02*
X45546800Y-25723300D01*
X45546800Y-25723300D02*
X42825300Y-28444800D01*
%TO.N,EEPROM_SCL*%
X35694300Y-7440900D02*
X33623300Y-9511900D01*
X35293100Y-29179000D02*
X41625900Y-29179000D01*
X33623300Y-9511900D02*
X33623300Y-11284800D01*
X41625900Y-29179000D02*
X43000000Y-30553100D01*
X41020000Y-5740000D02*
X39319100Y-7440900D01*
X39319100Y-7440900D02*
X35694300Y-7440900D01*
%TO.N,CH3_OUT*%
X23000000Y-27300000D02*
X24576700Y-27300000D01*
X27879500Y-30602800D02*
X37609500Y-30602800D01*
X24576700Y-27300000D02*
X27879500Y-30602800D01*
%TO.N,RLY3_DRV*%
X42351400Y-23109200D02*
X46018100Y-19442500D01*
X38873700Y-23109200D02*
X42351400Y-23109200D01*
X46018100Y-19442500D02*
X50520200Y-19442500D01*
%TO.N,CH4_NO*%
X53000000Y-52000000D02*
X54530000Y-53530000D01*
X60003800Y-38667900D02*
X48635900Y-27300000D01*
X58537800Y-47266500D02*
X60003800Y-45800500D01*
X58537800Y-52184700D02*
X58537800Y-47266500D01*
X54530000Y-53530000D02*
X57192500Y-53530000D01*
X48635900Y-27300000D02*
X46200000Y-27300000D01*
X60003800Y-45800500D02*
X60003800Y-38667900D01*
X57192500Y-53530000D02*
X58537800Y-52184700D01*
%TO.N,CH4_NC*%
X51926500Y-39300000D02*
X54525200Y-41898700D01*
X54525200Y-50025200D02*
X56500000Y-52000000D01*
X46200000Y-39300000D02*
X51926500Y-39300000D01*
X54525200Y-41898700D02*
X54525200Y-50025200D01*
%TO.N,RLY4_DRV*%
X48142800Y-31329500D02*
X51500100Y-34686800D01*
X56823300Y-39300000D02*
X52210100Y-34686800D01*
X27922900Y-31329500D02*
X48142800Y-31329500D01*
X58400000Y-39300000D02*
X56823300Y-39300000D01*
X52210100Y-34686800D02*
X51500100Y-34686800D01*
%TD*%
%TA.AperFunction,Conductor*%
%TO.N,GND*%
G36*
X20346818Y-42367585D02*
G01*
X20392573Y-42420389D01*
X20402517Y-42489547D01*
X20373492Y-42553103D01*
X20336074Y-42582385D01*
X20212448Y-42645375D01*
X20199237Y-42654972D01*
X20199237Y-42654973D01*
X20846358Y-43302094D01*
X20727007Y-43334075D01*
X20612993Y-43399901D01*
X20519901Y-43492993D01*
X20454075Y-43607007D01*
X20422094Y-43726358D01*
X19774973Y-43079237D01*
X19774972Y-43079237D01*
X19765372Y-43092452D01*
X19760480Y-43102053D01*
X19712502Y-43152846D01*
X19644680Y-43169637D01*
X19578547Y-43147095D01*
X19539513Y-43102044D01*
X19534626Y-43092452D01*
X19534618Y-43092440D01*
X19525025Y-43079237D01*
X19525025Y-43079236D01*
X18877905Y-43726357D01*
X18845925Y-43607007D01*
X18780099Y-43492993D01*
X18687007Y-43399901D01*
X18572993Y-43334075D01*
X18453642Y-43302094D01*
X19100761Y-42654973D01*
X19087550Y-42645375D01*
X18963926Y-42582385D01*
X18913130Y-42534410D01*
X18896335Y-42466589D01*
X18918873Y-42400454D01*
X18973588Y-42357003D01*
X19020221Y-42347900D01*
X20279779Y-42347900D01*
X20346818Y-42367585D01*
G37*
%TD.AperFunction*%
%TA.AperFunction,Conductor*%
G36*
X24078028Y-42367585D02*
G01*
X24123783Y-42420389D01*
X24133727Y-42489547D01*
X24104702Y-42553103D01*
X24098677Y-42559574D01*
X24022066Y-42636185D01*
X23972595Y-42685656D01*
X23911272Y-42719140D01*
X23846596Y-42715905D01*
X23819168Y-42706993D01*
X23729409Y-42677828D01*
X23550551Y-42649500D01*
X23550546Y-42649500D01*
X23369454Y-42649500D01*
X23369449Y-42649500D01*
X23190589Y-42677829D01*
X23018363Y-42733787D01*
X23018360Y-42733788D01*
X22857002Y-42816006D01*
X22710505Y-42922441D01*
X22710500Y-42922445D01*
X22582445Y-43050500D01*
X22582441Y-43050505D01*
X22476004Y-43197004D01*
X22408908Y-43328685D01*
X22360933Y-43379480D01*
X22293112Y-43396275D01*
X22226977Y-43373737D01*
X22183527Y-43319021D01*
X22180492Y-43310705D01*
X22171094Y-43281780D01*
X22074626Y-43092453D01*
X22074618Y-43092440D01*
X22065025Y-43079237D01*
X22065025Y-43079236D01*
X21417905Y-43726357D01*
X21385925Y-43607007D01*
X21320099Y-43492993D01*
X21227007Y-43399901D01*
X21112993Y-43334075D01*
X20993642Y-43302094D01*
X21640761Y-42654973D01*
X21627550Y-42645375D01*
X21503926Y-42582385D01*
X21453130Y-42534410D01*
X21436335Y-42466589D01*
X21458873Y-42400454D01*
X21513588Y-42357003D01*
X21560221Y-42347900D01*
X24010989Y-42347900D01*
X24078028Y-42367585D01*
G37*
%TD.AperFunction*%
%TA.AperFunction,Conductor*%
G36*
X18484729Y-20050185D02*
G01*
X18530484Y-20102989D01*
X18540428Y-20172147D01*
X18511403Y-20235703D01*
X18505371Y-20242181D01*
X5503292Y-33244258D01*
X5441969Y-33277743D01*
X5372277Y-33272759D01*
X5340686Y-33255381D01*
X5222344Y-33165640D01*
X5222342Y-33165639D01*
X5081564Y-33110124D01*
X5081561Y-33110123D01*
X4993099Y-33099500D01*
X3006800Y-33099500D01*
X2939761Y-33079815D01*
X2894006Y-33027011D01*
X2882800Y-32975500D01*
X2882800Y-32632750D01*
X2902485Y-32565711D01*
X2955289Y-32519956D01*
X3024447Y-32510012D01*
X3068800Y-32525363D01*
X3246485Y-32627949D01*
X3246497Y-32627954D01*
X3452381Y-32713236D01*
X3667632Y-32770911D01*
X3667645Y-32770914D01*
X3888575Y-32800000D01*
X4111425Y-32800000D01*
X4332354Y-32770914D01*
X4332367Y-32770911D01*
X4547618Y-32713236D01*
X4753502Y-32627954D01*
X4753514Y-32627949D01*
X4946496Y-32516531D01*
X4946500Y-32516529D01*
X4972393Y-32496658D01*
X4972393Y-32496656D01*
X4155292Y-31679555D01*
X4231591Y-31659111D01*
X4368408Y-31580119D01*
X4480119Y-31468408D01*
X4559111Y-31331591D01*
X4579555Y-31255291D01*
X5396656Y-32072393D01*
X5396658Y-32072393D01*
X5416529Y-32046500D01*
X5416531Y-32046496D01*
X5527949Y-31853514D01*
X5527954Y-31853502D01*
X5613236Y-31647618D01*
X5670911Y-31432367D01*
X5670914Y-31432354D01*
X5700000Y-31211424D01*
X5700000Y-30988575D01*
X5670914Y-30767645D01*
X5670911Y-30767632D01*
X5613236Y-30552381D01*
X5527954Y-30346497D01*
X5527949Y-30346485D01*
X5416530Y-30153502D01*
X5396658Y-30127605D01*
X5396657Y-30127605D01*
X4579555Y-30944707D01*
X4559111Y-30868409D01*
X4480119Y-30731592D01*
X4368408Y-30619881D01*
X4231591Y-30540889D01*
X4155291Y-30520444D01*
X4972394Y-29703341D01*
X4972393Y-29703340D01*
X4946497Y-29683468D01*
X4753514Y-29572050D01*
X4753502Y-29572045D01*
X4547618Y-29486763D01*
X4332367Y-29429088D01*
X4332354Y-29429085D01*
X4111425Y-29400000D01*
X3888575Y-29400000D01*
X3667645Y-29429085D01*
X3667632Y-29429088D01*
X3452381Y-29486763D01*
X3246497Y-29572045D01*
X3246490Y-29572048D01*
X3068799Y-29674637D01*
X3000899Y-29691109D01*
X2934872Y-29668256D01*
X2891682Y-29613334D01*
X2882800Y-29567249D01*
X2882800Y-28070308D01*
X2902485Y-28003269D01*
X2919115Y-27982631D01*
X3064928Y-27836817D01*
X3126251Y-27803333D01*
X3152609Y-27800499D01*
X4993092Y-27800499D01*
X4993098Y-27800499D01*
X5081564Y-27789876D01*
X5222342Y-27734361D01*
X5342922Y-27642922D01*
X5434361Y-27522342D01*
X5489876Y-27381564D01*
X5500500Y-27293099D01*
X5500500Y-26849500D01*
X5520185Y-26782461D01*
X5572989Y-26736706D01*
X5624500Y-26725500D01*
X9291816Y-26725500D01*
X9291818Y-26725500D01*
X9400037Y-26696503D01*
X9497063Y-26640485D01*
X16070729Y-20066819D01*
X16132052Y-20033334D01*
X16158410Y-20030500D01*
X18417690Y-20030500D01*
X18484729Y-20050185D01*
G37*
%TD.AperFunction*%
%TA.AperFunction,Conductor*%
G36*
X34706630Y-3210253D02*
G01*
X34764863Y-3248863D01*
X34792473Y-3309321D01*
X34817829Y-3469410D01*
X34873787Y-3641636D01*
X34873788Y-3641639D01*
X34956006Y-3802997D01*
X35062441Y-3949494D01*
X35062445Y-3949499D01*
X35190500Y-4077554D01*
X35190505Y-4077558D01*
X35248910Y-4119991D01*
X35337006Y-4183996D01*
X35436928Y-4234909D01*
X35498360Y-4266211D01*
X35498363Y-4266212D01*
X35553400Y-4284094D01*
X35670591Y-4322171D01*
X35733085Y-4332069D01*
X35830678Y-4347527D01*
X35893813Y-4377456D01*
X35930744Y-4436768D01*
X35929746Y-4506631D01*
X35891136Y-4564863D01*
X35830678Y-4592473D01*
X35670589Y-4617829D01*
X35498363Y-4673787D01*
X35498360Y-4673788D01*
X35337002Y-4756006D01*
X35190505Y-4862441D01*
X35190500Y-4862445D01*
X35062445Y-4990500D01*
X35062441Y-4990505D01*
X34956006Y-5137002D01*
X34873788Y-5298360D01*
X34873787Y-5298363D01*
X34817829Y-5470589D01*
X34792473Y-5630678D01*
X34762544Y-5693813D01*
X34703232Y-5730744D01*
X34633369Y-5729746D01*
X34575137Y-5691136D01*
X34547527Y-5630678D01*
X34523572Y-5479438D01*
X34522171Y-5470591D01*
X34478530Y-5336275D01*
X34466212Y-5298363D01*
X34466211Y-5298360D01*
X34427191Y-5221780D01*
X34383996Y-5137006D01*
X34370396Y-5118287D01*
X34277558Y-4990505D01*
X34277554Y-4990500D01*
X34149499Y-4862445D01*
X34149494Y-4862441D01*
X34002997Y-4756006D01*
X34002996Y-4756005D01*
X34002994Y-4756004D01*
X33933730Y-4720712D01*
X33841639Y-4673788D01*
X33841636Y-4673787D01*
X33669410Y-4617829D01*
X33509321Y-4592473D01*
X33446186Y-4562544D01*
X33409255Y-4503232D01*
X33410253Y-4433370D01*
X33448863Y-4375137D01*
X33509321Y-4347527D01*
X33579425Y-4336422D01*
X33669409Y-4322171D01*
X33841639Y-4266211D01*
X34002994Y-4183996D01*
X34149501Y-4077553D01*
X34277553Y-3949501D01*
X34383996Y-3802994D01*
X34466211Y-3641639D01*
X34522171Y-3469409D01*
X34540902Y-3351146D01*
X34547527Y-3309321D01*
X34577456Y-3246186D01*
X34636768Y-3209255D01*
X34706630Y-3210253D01*
G37*
%TD.AperFunction*%
%TA.AperFunction,Conductor*%
G36*
X38014075Y-3392993D02*
G01*
X38079901Y-3507007D01*
X38172993Y-3600099D01*
X38287007Y-3665925D01*
X38406358Y-3697905D01*
X37759236Y-4345025D01*
X37772440Y-4354618D01*
X37772453Y-4354626D01*
X37961780Y-4451094D01*
X37990705Y-4460492D01*
X38048381Y-4499929D01*
X38075580Y-4564287D01*
X38063667Y-4633134D01*
X38016424Y-4684610D01*
X38008685Y-4688908D01*
X37877004Y-4756004D01*
X37730505Y-4862441D01*
X37730500Y-4862445D01*
X37602445Y-4990500D01*
X37602441Y-4990505D01*
X37496006Y-5137002D01*
X37413788Y-5298360D01*
X37413787Y-5298363D01*
X37357829Y-5470589D01*
X37332473Y-5630678D01*
X37302544Y-5693813D01*
X37243232Y-5730744D01*
X37173369Y-5729746D01*
X37115137Y-5691136D01*
X37087527Y-5630678D01*
X37063572Y-5479438D01*
X37062171Y-5470591D01*
X37018530Y-5336275D01*
X37006212Y-5298363D01*
X37006211Y-5298360D01*
X36967191Y-5221780D01*
X36923996Y-5137006D01*
X36910396Y-5118287D01*
X36817558Y-4990505D01*
X36817554Y-4990500D01*
X36689499Y-4862445D01*
X36689494Y-4862441D01*
X36542997Y-4756006D01*
X36542996Y-4756005D01*
X36542994Y-4756004D01*
X36473730Y-4720712D01*
X36381639Y-4673788D01*
X36381636Y-4673787D01*
X36209410Y-4617829D01*
X36049321Y-4592473D01*
X35986186Y-4562544D01*
X35949255Y-4503232D01*
X35950253Y-4433370D01*
X35988863Y-4375137D01*
X36049321Y-4347527D01*
X36119425Y-4336422D01*
X36209409Y-4322171D01*
X36381639Y-4266211D01*
X36542994Y-4183996D01*
X36689501Y-4077553D01*
X36817553Y-3949501D01*
X36923996Y-3802994D01*
X36991090Y-3671314D01*
X37039065Y-3620519D01*
X37106886Y-3603724D01*
X37173021Y-3626262D01*
X37216472Y-3680977D01*
X37219506Y-3689292D01*
X37228904Y-3718217D01*
X37325375Y-3907550D01*
X37334973Y-3920761D01*
X37982094Y-3273641D01*
X38014075Y-3392993D01*
G37*
%TD.AperFunction*%
%TA.AperFunction,Conductor*%
G36*
X39625025Y-3920762D02*
G01*
X39625026Y-3920761D01*
X39634617Y-3907563D01*
X39634620Y-3907556D01*
X39731095Y-3718217D01*
X39740492Y-3689295D01*
X39779928Y-3631618D01*
X39844286Y-3604419D01*
X39913133Y-3616331D01*
X39964610Y-3663574D01*
X39968908Y-3671314D01*
X40036004Y-3802995D01*
X40142441Y-3949494D01*
X40142445Y-3949499D01*
X40270500Y-4077554D01*
X40270505Y-4077558D01*
X40328910Y-4119991D01*
X40417006Y-4183996D01*
X40516928Y-4234909D01*
X40578360Y-4266211D01*
X40578363Y-4266212D01*
X40633400Y-4284094D01*
X40750591Y-4322171D01*
X40813085Y-4332069D01*
X40910678Y-4347527D01*
X40973813Y-4377456D01*
X41010744Y-4436768D01*
X41009746Y-4506631D01*
X40971136Y-4564863D01*
X40910678Y-4592473D01*
X40750589Y-4617829D01*
X40578363Y-4673787D01*
X40578360Y-4673788D01*
X40417002Y-4756006D01*
X40270505Y-4862441D01*
X40270500Y-4862445D01*
X40142445Y-4990500D01*
X40142441Y-4990505D01*
X40036006Y-5137002D01*
X39953788Y-5298360D01*
X39953787Y-5298363D01*
X39897829Y-5470589D01*
X39872473Y-5630678D01*
X39842544Y-5693813D01*
X39783232Y-5730744D01*
X39713369Y-5729746D01*
X39655137Y-5691136D01*
X39627527Y-5630678D01*
X39603572Y-5479438D01*
X39602171Y-5470591D01*
X39558530Y-5336275D01*
X39546212Y-5298363D01*
X39546211Y-5298360D01*
X39507191Y-5221780D01*
X39463996Y-5137006D01*
X39450396Y-5118287D01*
X39357558Y-4990505D01*
X39357554Y-4990500D01*
X39229499Y-4862445D01*
X39229494Y-4862441D01*
X39082995Y-4756004D01*
X38951314Y-4688908D01*
X38900519Y-4640934D01*
X38883724Y-4573113D01*
X38906262Y-4506978D01*
X38960977Y-4463527D01*
X38969295Y-4460492D01*
X38998217Y-4451095D01*
X39187556Y-4354620D01*
X39187563Y-4354617D01*
X39200761Y-4345026D01*
X39200762Y-4345025D01*
X38553641Y-3697905D01*
X38672993Y-3665925D01*
X38787007Y-3600099D01*
X38880099Y-3507007D01*
X38945925Y-3392993D01*
X38977905Y-3273641D01*
X39625025Y-3920762D01*
G37*
%TD.AperFunction*%
%TA.AperFunction,Conductor*%
G36*
X52486630Y-3210253D02*
G01*
X52544863Y-3248863D01*
X52572473Y-3309321D01*
X52597829Y-3469410D01*
X52653787Y-3641636D01*
X52653788Y-3641639D01*
X52736006Y-3802997D01*
X52842441Y-3949494D01*
X52842445Y-3949499D01*
X52970500Y-4077554D01*
X52970505Y-4077558D01*
X53028910Y-4119991D01*
X53117006Y-4183996D01*
X53216928Y-4234909D01*
X53278360Y-4266211D01*
X53278363Y-4266212D01*
X53333400Y-4284094D01*
X53450591Y-4322171D01*
X53513085Y-4332069D01*
X53610678Y-4347527D01*
X53673813Y-4377456D01*
X53710744Y-4436768D01*
X53709746Y-4506631D01*
X53671136Y-4564863D01*
X53610678Y-4592473D01*
X53450589Y-4617829D01*
X53278363Y-4673787D01*
X53278360Y-4673788D01*
X53117002Y-4756006D01*
X52970505Y-4862441D01*
X52970500Y-4862445D01*
X52842445Y-4990500D01*
X52842441Y-4990505D01*
X52736006Y-5137002D01*
X52653788Y-5298360D01*
X52653787Y-5298363D01*
X52597829Y-5470589D01*
X52572473Y-5630678D01*
X52542544Y-5693813D01*
X52483232Y-5730744D01*
X52413369Y-5729746D01*
X52355137Y-5691136D01*
X52327527Y-5630678D01*
X52303572Y-5479438D01*
X52302171Y-5470591D01*
X52258530Y-5336275D01*
X52246212Y-5298363D01*
X52246211Y-5298360D01*
X52207191Y-5221780D01*
X52163996Y-5137006D01*
X52150396Y-5118287D01*
X52057558Y-4990505D01*
X52057554Y-4990500D01*
X51929499Y-4862445D01*
X51929494Y-4862441D01*
X51782997Y-4756006D01*
X51782996Y-4756005D01*
X51782994Y-4756004D01*
X51713730Y-4720712D01*
X51621639Y-4673788D01*
X51621636Y-4673787D01*
X51449410Y-4617829D01*
X51289321Y-4592473D01*
X51226186Y-4562544D01*
X51189255Y-4503232D01*
X51190253Y-4433370D01*
X51228863Y-4375137D01*
X51289321Y-4347527D01*
X51359425Y-4336422D01*
X51449409Y-4322171D01*
X51621639Y-4266211D01*
X51782994Y-4183996D01*
X51929501Y-4077553D01*
X52057553Y-3949501D01*
X52163996Y-3802994D01*
X52246211Y-3641639D01*
X52302171Y-3469409D01*
X52320902Y-3351146D01*
X52327527Y-3309321D01*
X52357456Y-3246186D01*
X52416768Y-3209255D01*
X52486630Y-3210253D01*
G37*
%TD.AperFunction*%
%TA.AperFunction,Conductor*%
G36*
X55794075Y-3392993D02*
G01*
X55859901Y-3507007D01*
X55952993Y-3600099D01*
X56067007Y-3665925D01*
X56186358Y-3697905D01*
X55539236Y-4345025D01*
X55552440Y-4354618D01*
X55552453Y-4354626D01*
X55741780Y-4451094D01*
X55770705Y-4460492D01*
X55828381Y-4499929D01*
X55855580Y-4564287D01*
X55843667Y-4633134D01*
X55796424Y-4684610D01*
X55788685Y-4688908D01*
X55657004Y-4756004D01*
X55510505Y-4862441D01*
X55510500Y-4862445D01*
X55382445Y-4990500D01*
X55382441Y-4990505D01*
X55276006Y-5137002D01*
X55193788Y-5298360D01*
X55193787Y-5298363D01*
X55137829Y-5470589D01*
X55112473Y-5630678D01*
X55082544Y-5693813D01*
X55023232Y-5730744D01*
X54953369Y-5729746D01*
X54895137Y-5691136D01*
X54867527Y-5630678D01*
X54843572Y-5479438D01*
X54842171Y-5470591D01*
X54798530Y-5336275D01*
X54786212Y-5298363D01*
X54786211Y-5298360D01*
X54747191Y-5221780D01*
X54703996Y-5137006D01*
X54690396Y-5118287D01*
X54597558Y-4990505D01*
X54597554Y-4990500D01*
X54469499Y-4862445D01*
X54469494Y-4862441D01*
X54322997Y-4756006D01*
X54322996Y-4756005D01*
X54322994Y-4756004D01*
X54253730Y-4720712D01*
X54161639Y-4673788D01*
X54161636Y-4673787D01*
X53989410Y-4617829D01*
X53829321Y-4592473D01*
X53766186Y-4562544D01*
X53729255Y-4503232D01*
X53730253Y-4433370D01*
X53768863Y-4375137D01*
X53829321Y-4347527D01*
X53899425Y-4336422D01*
X53989409Y-4322171D01*
X54161639Y-4266211D01*
X54322994Y-4183996D01*
X54469501Y-4077553D01*
X54597553Y-3949501D01*
X54703996Y-3802994D01*
X54771090Y-3671314D01*
X54819065Y-3620519D01*
X54886886Y-3603724D01*
X54953021Y-3626262D01*
X54996472Y-3680977D01*
X54999506Y-3689292D01*
X55008904Y-3718217D01*
X55105375Y-3907550D01*
X55114973Y-3920761D01*
X55762094Y-3273641D01*
X55794075Y-3392993D01*
G37*
%TD.AperFunction*%
%TA.AperFunction,Conductor*%
G36*
X29626630Y-3210253D02*
G01*
X29684863Y-3248863D01*
X29712473Y-3309321D01*
X29737829Y-3469410D01*
X29793787Y-3641636D01*
X29793788Y-3641639D01*
X29876006Y-3802997D01*
X29982441Y-3949494D01*
X29982445Y-3949499D01*
X30110500Y-4077554D01*
X30110505Y-4077558D01*
X30168910Y-4119991D01*
X30257006Y-4183996D01*
X30356928Y-4234909D01*
X30388684Y-4251090D01*
X30439480Y-4299065D01*
X30456275Y-4366886D01*
X30433737Y-4433021D01*
X30379022Y-4476472D01*
X30370708Y-4479506D01*
X30341781Y-4488905D01*
X30152448Y-4585375D01*
X30139237Y-4594972D01*
X30139237Y-4594973D01*
X30786358Y-5242094D01*
X30667007Y-5274075D01*
X30552993Y-5339901D01*
X30459901Y-5432993D01*
X30394075Y-5547007D01*
X30362094Y-5666358D01*
X29714973Y-5019237D01*
X29714972Y-5019237D01*
X29705375Y-5032448D01*
X29608905Y-5221781D01*
X29599506Y-5250708D01*
X29560068Y-5308383D01*
X29495709Y-5335581D01*
X29426862Y-5323666D01*
X29375387Y-5276421D01*
X29371090Y-5268684D01*
X29347191Y-5221780D01*
X29303996Y-5137006D01*
X29290396Y-5118287D01*
X29197558Y-4990505D01*
X29197554Y-4990500D01*
X29069499Y-4862445D01*
X29069494Y-4862441D01*
X28922997Y-4756006D01*
X28922996Y-4756005D01*
X28922994Y-4756004D01*
X28853730Y-4720712D01*
X28761639Y-4673788D01*
X28761636Y-4673787D01*
X28589410Y-4617829D01*
X28429321Y-4592473D01*
X28366186Y-4562544D01*
X28329255Y-4503232D01*
X28330253Y-4433370D01*
X28368863Y-4375137D01*
X28429321Y-4347527D01*
X28499425Y-4336422D01*
X28589409Y-4322171D01*
X28761639Y-4266211D01*
X28922994Y-4183996D01*
X29069501Y-4077553D01*
X29197553Y-3949501D01*
X29303996Y-3802994D01*
X29386211Y-3641639D01*
X29442171Y-3469409D01*
X29460902Y-3351146D01*
X29467527Y-3309321D01*
X29497456Y-3246186D01*
X29556768Y-3209255D01*
X29626630Y-3210253D01*
G37*
%TD.AperFunction*%
%TA.AperFunction,Conductor*%
G36*
X42326630Y-3210253D02*
G01*
X42384863Y-3248863D01*
X42412473Y-3309321D01*
X42437829Y-3469410D01*
X42493787Y-3641636D01*
X42493788Y-3641639D01*
X42576006Y-3802997D01*
X42682441Y-3949494D01*
X42682445Y-3949499D01*
X42810500Y-4077554D01*
X42810505Y-4077558D01*
X42868910Y-4119991D01*
X42957006Y-4183996D01*
X43056928Y-4234909D01*
X43088684Y-4251090D01*
X43139480Y-4299065D01*
X43156275Y-4366886D01*
X43133737Y-4433021D01*
X43079022Y-4476472D01*
X43070708Y-4479506D01*
X43041781Y-4488905D01*
X42852448Y-4585375D01*
X42839237Y-4594972D01*
X42839237Y-4594973D01*
X43486358Y-5242094D01*
X43367007Y-5274075D01*
X43252993Y-5339901D01*
X43159901Y-5432993D01*
X43094075Y-5547007D01*
X43062094Y-5666358D01*
X42414973Y-5019237D01*
X42414972Y-5019237D01*
X42405375Y-5032448D01*
X42308905Y-5221781D01*
X42299506Y-5250708D01*
X42260068Y-5308383D01*
X42195709Y-5335581D01*
X42126862Y-5323666D01*
X42075387Y-5276421D01*
X42071090Y-5268684D01*
X42047191Y-5221780D01*
X42003996Y-5137006D01*
X41990396Y-5118287D01*
X41897558Y-4990505D01*
X41897554Y-4990500D01*
X41769499Y-4862445D01*
X41769494Y-4862441D01*
X41622997Y-4756006D01*
X41622996Y-4756005D01*
X41622994Y-4756004D01*
X41553730Y-4720712D01*
X41461639Y-4673788D01*
X41461636Y-4673787D01*
X41289410Y-4617829D01*
X41129321Y-4592473D01*
X41066186Y-4562544D01*
X41029255Y-4503232D01*
X41030253Y-4433370D01*
X41068863Y-4375137D01*
X41129321Y-4347527D01*
X41199425Y-4336422D01*
X41289409Y-4322171D01*
X41461639Y-4266211D01*
X41622994Y-4183996D01*
X41769501Y-4077553D01*
X41897553Y-3949501D01*
X42003996Y-3802994D01*
X42086211Y-3641639D01*
X42142171Y-3469409D01*
X42160902Y-3351146D01*
X42167527Y-3309321D01*
X42197456Y-3246186D01*
X42256768Y-3209255D01*
X42326630Y-3210253D01*
G37*
%TD.AperFunction*%
%TA.AperFunction,Conductor*%
G36*
X47406630Y-3210253D02*
G01*
X47464863Y-3248863D01*
X47492473Y-3309321D01*
X47517829Y-3469410D01*
X47573787Y-3641636D01*
X47573788Y-3641639D01*
X47656006Y-3802997D01*
X47762441Y-3949494D01*
X47762445Y-3949499D01*
X47890500Y-4077554D01*
X47890505Y-4077558D01*
X47948910Y-4119991D01*
X48037006Y-4183996D01*
X48136928Y-4234909D01*
X48168684Y-4251090D01*
X48219480Y-4299065D01*
X48236275Y-4366886D01*
X48213737Y-4433021D01*
X48159022Y-4476472D01*
X48150708Y-4479506D01*
X48121781Y-4488905D01*
X47932448Y-4585375D01*
X47919237Y-4594972D01*
X47919237Y-4594973D01*
X48566358Y-5242094D01*
X48447007Y-5274075D01*
X48332993Y-5339901D01*
X48239901Y-5432993D01*
X48174075Y-5547007D01*
X48142094Y-5666358D01*
X47494973Y-5019237D01*
X47494972Y-5019237D01*
X47485375Y-5032448D01*
X47388905Y-5221781D01*
X47379506Y-5250708D01*
X47340068Y-5308383D01*
X47275709Y-5335581D01*
X47206862Y-5323666D01*
X47155387Y-5276421D01*
X47151090Y-5268684D01*
X47127191Y-5221780D01*
X47083996Y-5137006D01*
X47070396Y-5118287D01*
X46977558Y-4990505D01*
X46977554Y-4990500D01*
X46849499Y-4862445D01*
X46849494Y-4862441D01*
X46702997Y-4756006D01*
X46702996Y-4756005D01*
X46702994Y-4756004D01*
X46633730Y-4720712D01*
X46541639Y-4673788D01*
X46541636Y-4673787D01*
X46369410Y-4617829D01*
X46209321Y-4592473D01*
X46146186Y-4562544D01*
X46109255Y-4503232D01*
X46110253Y-4433370D01*
X46148863Y-4375137D01*
X46209321Y-4347527D01*
X46279425Y-4336422D01*
X46369409Y-4322171D01*
X46541639Y-4266211D01*
X46702994Y-4183996D01*
X46849501Y-4077553D01*
X46977553Y-3949501D01*
X47083996Y-3802994D01*
X47166211Y-3641639D01*
X47222171Y-3469409D01*
X47240902Y-3351146D01*
X47247527Y-3309321D01*
X47277456Y-3246186D01*
X47336768Y-3209255D01*
X47406630Y-3210253D01*
G37*
%TD.AperFunction*%
%TA.AperFunction,Conductor*%
G36*
X32166630Y-3210253D02*
G01*
X32224863Y-3248863D01*
X32252473Y-3309321D01*
X32277829Y-3469410D01*
X32333787Y-3641636D01*
X32333788Y-3641639D01*
X32416006Y-3802997D01*
X32522441Y-3949494D01*
X32522445Y-3949499D01*
X32650500Y-4077554D01*
X32650505Y-4077558D01*
X32708910Y-4119991D01*
X32797006Y-4183996D01*
X32896928Y-4234909D01*
X32958360Y-4266211D01*
X32958363Y-4266212D01*
X33013400Y-4284094D01*
X33130591Y-4322171D01*
X33193085Y-4332069D01*
X33290678Y-4347527D01*
X33353813Y-4377456D01*
X33390744Y-4436768D01*
X33389746Y-4506631D01*
X33351136Y-4564863D01*
X33290678Y-4592473D01*
X33130589Y-4617829D01*
X32958363Y-4673787D01*
X32958360Y-4673788D01*
X32797002Y-4756006D01*
X32650505Y-4862441D01*
X32650500Y-4862445D01*
X32522445Y-4990500D01*
X32522441Y-4990505D01*
X32416004Y-5137004D01*
X32348908Y-5268685D01*
X32300933Y-5319480D01*
X32233112Y-5336275D01*
X32166977Y-5313737D01*
X32123527Y-5259021D01*
X32120492Y-5250705D01*
X32111094Y-5221780D01*
X32014626Y-5032453D01*
X32014618Y-5032440D01*
X32005025Y-5019237D01*
X32005025Y-5019236D01*
X31357905Y-5666357D01*
X31325925Y-5547007D01*
X31260099Y-5432993D01*
X31167007Y-5339901D01*
X31052993Y-5274075D01*
X30933642Y-5242094D01*
X31580761Y-4594973D01*
X31567550Y-4585375D01*
X31378217Y-4488904D01*
X31349292Y-4479506D01*
X31291616Y-4440068D01*
X31264418Y-4375710D01*
X31276333Y-4306863D01*
X31323577Y-4255388D01*
X31331315Y-4251090D01*
X31462994Y-4183996D01*
X31609501Y-4077553D01*
X31737553Y-3949501D01*
X31843996Y-3802994D01*
X31926211Y-3641639D01*
X31982171Y-3469409D01*
X32000902Y-3351146D01*
X32007527Y-3309321D01*
X32037456Y-3246186D01*
X32096768Y-3209255D01*
X32166630Y-3210253D01*
G37*
%TD.AperFunction*%
%TA.AperFunction,Conductor*%
G36*
X44866630Y-3210253D02*
G01*
X44924863Y-3248863D01*
X44952473Y-3309321D01*
X44977829Y-3469410D01*
X45033787Y-3641636D01*
X45033788Y-3641639D01*
X45116006Y-3802997D01*
X45222441Y-3949494D01*
X45222445Y-3949499D01*
X45350500Y-4077554D01*
X45350505Y-4077558D01*
X45408910Y-4119991D01*
X45497006Y-4183996D01*
X45596928Y-4234909D01*
X45658360Y-4266211D01*
X45658363Y-4266212D01*
X45713400Y-4284094D01*
X45830591Y-4322171D01*
X45893085Y-4332069D01*
X45990678Y-4347527D01*
X46053813Y-4377456D01*
X46090744Y-4436768D01*
X46089746Y-4506631D01*
X46051136Y-4564863D01*
X45990678Y-4592473D01*
X45830589Y-4617829D01*
X45658363Y-4673787D01*
X45658360Y-4673788D01*
X45497002Y-4756006D01*
X45350505Y-4862441D01*
X45350500Y-4862445D01*
X45222445Y-4990500D01*
X45222441Y-4990505D01*
X45116004Y-5137004D01*
X45048908Y-5268685D01*
X45000933Y-5319480D01*
X44933112Y-5336275D01*
X44866977Y-5313737D01*
X44823527Y-5259021D01*
X44820492Y-5250705D01*
X44811094Y-5221780D01*
X44714626Y-5032453D01*
X44714618Y-5032440D01*
X44705025Y-5019237D01*
X44705025Y-5019236D01*
X44057905Y-5666357D01*
X44025925Y-5547007D01*
X43960099Y-5432993D01*
X43867007Y-5339901D01*
X43752993Y-5274075D01*
X43633642Y-5242094D01*
X44280761Y-4594973D01*
X44267550Y-4585375D01*
X44078217Y-4488904D01*
X44049292Y-4479506D01*
X43991616Y-4440068D01*
X43964418Y-4375710D01*
X43976333Y-4306863D01*
X44023577Y-4255388D01*
X44031315Y-4251090D01*
X44162994Y-4183996D01*
X44309501Y-4077553D01*
X44437553Y-3949501D01*
X44543996Y-3802994D01*
X44626211Y-3641639D01*
X44682171Y-3469409D01*
X44700902Y-3351146D01*
X44707527Y-3309321D01*
X44737456Y-3246186D01*
X44796768Y-3209255D01*
X44866630Y-3210253D01*
G37*
%TD.AperFunction*%
%TA.AperFunction,Conductor*%
G36*
X49946630Y-3210253D02*
G01*
X50004863Y-3248863D01*
X50032473Y-3309321D01*
X50057829Y-3469410D01*
X50113787Y-3641636D01*
X50113788Y-3641639D01*
X50196006Y-3802997D01*
X50302441Y-3949494D01*
X50302445Y-3949499D01*
X50430500Y-4077554D01*
X50430505Y-4077558D01*
X50488910Y-4119991D01*
X50577006Y-4183996D01*
X50676928Y-4234909D01*
X50738360Y-4266211D01*
X50738363Y-4266212D01*
X50793400Y-4284094D01*
X50910591Y-4322171D01*
X50973085Y-4332069D01*
X51070678Y-4347527D01*
X51133813Y-4377456D01*
X51170744Y-4436768D01*
X51169746Y-4506631D01*
X51131136Y-4564863D01*
X51070678Y-4592473D01*
X50910589Y-4617829D01*
X50738363Y-4673787D01*
X50738360Y-4673788D01*
X50577002Y-4756006D01*
X50430505Y-4862441D01*
X50430500Y-4862445D01*
X50302445Y-4990500D01*
X50302441Y-4990505D01*
X50196004Y-5137004D01*
X50128908Y-5268685D01*
X50080933Y-5319480D01*
X50013112Y-5336275D01*
X49946977Y-5313737D01*
X49903527Y-5259021D01*
X49900492Y-5250705D01*
X49891094Y-5221780D01*
X49794626Y-5032453D01*
X49794618Y-5032440D01*
X49785025Y-5019237D01*
X49785025Y-5019236D01*
X49137905Y-5666357D01*
X49105925Y-5547007D01*
X49040099Y-5432993D01*
X48947007Y-5339901D01*
X48832993Y-5274075D01*
X48713642Y-5242094D01*
X49360761Y-4594973D01*
X49347550Y-4585375D01*
X49158217Y-4488904D01*
X49129292Y-4479506D01*
X49071616Y-4440068D01*
X49044418Y-4375710D01*
X49056333Y-4306863D01*
X49103577Y-4255388D01*
X49111315Y-4251090D01*
X49242994Y-4183996D01*
X49389501Y-4077553D01*
X49517553Y-3949501D01*
X49623996Y-3802994D01*
X49706211Y-3641639D01*
X49762171Y-3469409D01*
X49780902Y-3351146D01*
X49787527Y-3309321D01*
X49817456Y-3246186D01*
X49876768Y-3209255D01*
X49946630Y-3210253D01*
G37*
%TD.AperFunction*%
%TA.AperFunction,Conductor*%
G36*
X64542539Y-420185D02*
G01*
X64588294Y-472989D01*
X64599500Y-524500D01*
X64599500Y-55475500D01*
X64579815Y-55542539D01*
X64527011Y-55588294D01*
X64475500Y-55599500D01*
X524500Y-55599500D01*
X457461Y-55579815D01*
X411706Y-55527011D01*
X400500Y-55475500D01*
X400500Y-52351146D01*
X849500Y-52351146D01*
X849500Y-52648853D01*
X882830Y-52944662D01*
X882831Y-52944671D01*
X882832Y-52944675D01*
X899393Y-53017233D01*
X949076Y-53234912D01*
X949079Y-53234920D01*
X1047400Y-53515904D01*
X1176563Y-53784114D01*
X1176565Y-53784117D01*
X1334950Y-54036185D01*
X1520562Y-54268934D01*
X1731066Y-54479438D01*
X1963815Y-54665050D01*
X2215883Y-54823435D01*
X2484099Y-54952601D01*
X2695135Y-55026445D01*
X2765079Y-55050920D01*
X2765087Y-55050923D01*
X2765090Y-55050923D01*
X2765091Y-55050924D01*
X3055325Y-55117168D01*
X3351147Y-55150499D01*
X3351148Y-55150500D01*
X3351151Y-55150500D01*
X3648852Y-55150500D01*
X3648852Y-55150499D01*
X3944675Y-55117168D01*
X4234909Y-55050924D01*
X4515901Y-54952601D01*
X4784117Y-54823435D01*
X5036185Y-54665050D01*
X5268934Y-54479438D01*
X5479438Y-54268934D01*
X5665050Y-54036185D01*
X5823435Y-53784117D01*
X5952601Y-53515901D01*
X6050924Y-53234909D01*
X6117168Y-52944675D01*
X6150500Y-52648849D01*
X6150500Y-52351151D01*
X6117168Y-52055325D01*
X6050924Y-51765091D01*
X5952601Y-51484099D01*
X5823435Y-51215883D01*
X5692122Y-51006900D01*
X10999500Y-51006900D01*
X10999500Y-52993091D01*
X11010123Y-53081562D01*
X11065639Y-53222342D01*
X11065640Y-53222344D01*
X11157077Y-53342922D01*
X11277655Y-53434359D01*
X11277658Y-53434361D01*
X11418436Y-53489876D01*
X11506901Y-53500500D01*
X13493098Y-53500499D01*
X13581564Y-53489876D01*
X13722342Y-53434361D01*
X13842922Y-53342922D01*
X13934361Y-53222342D01*
X13989876Y-53081564D01*
X14000500Y-52993099D01*
X14000499Y-51888575D01*
X14300000Y-51888575D01*
X14300000Y-52111424D01*
X14329085Y-52332354D01*
X14329088Y-52332367D01*
X14386763Y-52547618D01*
X14472045Y-52753502D01*
X14472050Y-52753514D01*
X14583468Y-52946497D01*
X14603340Y-52972393D01*
X14603341Y-52972394D01*
X15420444Y-52155291D01*
X15440889Y-52231591D01*
X15519881Y-52368408D01*
X15631592Y-52480119D01*
X15768409Y-52559111D01*
X15844708Y-52579555D01*
X15027605Y-53396657D01*
X15027605Y-53396658D01*
X15053502Y-53416530D01*
X15246485Y-53527949D01*
X15246497Y-53527954D01*
X15452381Y-53613236D01*
X15667632Y-53670911D01*
X15667645Y-53670914D01*
X15888575Y-53700000D01*
X16111425Y-53700000D01*
X16332354Y-53670914D01*
X16332367Y-53670911D01*
X16547618Y-53613236D01*
X16753502Y-53527954D01*
X16753514Y-53527949D01*
X16946496Y-53416531D01*
X16946500Y-53416529D01*
X16972393Y-53396658D01*
X16972393Y-53396656D01*
X16155291Y-52579555D01*
X16231591Y-52559111D01*
X16368408Y-52480119D01*
X16480119Y-52368408D01*
X16559111Y-52231591D01*
X16579555Y-52155291D01*
X17396656Y-52972393D01*
X17396658Y-52972393D01*
X17416529Y-52946500D01*
X17416531Y-52946496D01*
X17527949Y-52753514D01*
X17527954Y-52753502D01*
X17613236Y-52547618D01*
X17670911Y-52332367D01*
X17670914Y-52332354D01*
X17700000Y-52111424D01*
X17700000Y-51888575D01*
X17670914Y-51667645D01*
X17670911Y-51667632D01*
X17613236Y-51452381D01*
X17527954Y-51246497D01*
X17527949Y-51246485D01*
X17423282Y-51065195D01*
X17423281Y-51065193D01*
X17416534Y-51053506D01*
X17416531Y-51053502D01*
X17396658Y-51027605D01*
X17396657Y-51027605D01*
X16579555Y-51844707D01*
X16559111Y-51768409D01*
X16480119Y-51631592D01*
X16368408Y-51519881D01*
X16231591Y-51440889D01*
X16155291Y-51420444D01*
X16568835Y-51006900D01*
X22999500Y-51006900D01*
X22999500Y-52993091D01*
X23010123Y-53081562D01*
X23065639Y-53222342D01*
X23065640Y-53222344D01*
X23157077Y-53342922D01*
X23277655Y-53434359D01*
X23277658Y-53434361D01*
X23418436Y-53489876D01*
X23506901Y-53500500D01*
X25493098Y-53500499D01*
X25581564Y-53489876D01*
X25722342Y-53434361D01*
X25842922Y-53342922D01*
X25934361Y-53222342D01*
X25989876Y-53081564D01*
X26000500Y-52993099D01*
X26000499Y-51888575D01*
X26300000Y-51888575D01*
X26300000Y-52111424D01*
X26329085Y-52332354D01*
X26329088Y-52332367D01*
X26386763Y-52547618D01*
X26472045Y-52753502D01*
X26472050Y-52753514D01*
X26583468Y-52946497D01*
X26603340Y-52972393D01*
X26603341Y-52972394D01*
X27420444Y-52155291D01*
X27440889Y-52231591D01*
X27519881Y-52368408D01*
X27631592Y-52480119D01*
X27768409Y-52559111D01*
X27844708Y-52579555D01*
X27027605Y-53396657D01*
X27027605Y-53396658D01*
X27053502Y-53416530D01*
X27246485Y-53527949D01*
X27246497Y-53527954D01*
X27452381Y-53613236D01*
X27667632Y-53670911D01*
X27667645Y-53670914D01*
X27888575Y-53700000D01*
X28111425Y-53700000D01*
X28332354Y-53670914D01*
X28332367Y-53670911D01*
X28547618Y-53613236D01*
X28753502Y-53527954D01*
X28753514Y-53527949D01*
X28946496Y-53416531D01*
X28946500Y-53416529D01*
X28972393Y-53396658D01*
X28972393Y-53396656D01*
X28155291Y-52579555D01*
X28231591Y-52559111D01*
X28368408Y-52480119D01*
X28480119Y-52368408D01*
X28559111Y-52231591D01*
X28579555Y-52155291D01*
X29396656Y-52972393D01*
X29396658Y-52972393D01*
X29416529Y-52946500D01*
X29416531Y-52946496D01*
X29527949Y-52753514D01*
X29527954Y-52753502D01*
X29613236Y-52547618D01*
X29670911Y-52332367D01*
X29670914Y-52332354D01*
X29700000Y-52111424D01*
X29700000Y-51888575D01*
X29670914Y-51667645D01*
X29670911Y-51667632D01*
X29613236Y-51452381D01*
X29527954Y-51246497D01*
X29527949Y-51246485D01*
X29423282Y-51065195D01*
X29423281Y-51065193D01*
X29416534Y-51053506D01*
X29416531Y-51053502D01*
X29396658Y-51027605D01*
X29396657Y-51027605D01*
X28579555Y-51844707D01*
X28559111Y-51768409D01*
X28480119Y-51631592D01*
X28368408Y-51519881D01*
X28231591Y-51440889D01*
X28155291Y-51420444D01*
X28568835Y-51006900D01*
X34999500Y-51006900D01*
X34999500Y-52993091D01*
X35010123Y-53081562D01*
X35065639Y-53222342D01*
X35065640Y-53222344D01*
X35157077Y-53342922D01*
X35277655Y-53434359D01*
X35277658Y-53434361D01*
X35418436Y-53489876D01*
X35506901Y-53500500D01*
X37493098Y-53500499D01*
X37581564Y-53489876D01*
X37722342Y-53434361D01*
X37842922Y-53342922D01*
X37934361Y-53222342D01*
X37989876Y-53081564D01*
X38000500Y-52993099D01*
X38000499Y-51888575D01*
X38300000Y-51888575D01*
X38300000Y-52111424D01*
X38329085Y-52332354D01*
X38329088Y-52332367D01*
X38386763Y-52547618D01*
X38472045Y-52753502D01*
X38472050Y-52753514D01*
X38583468Y-52946497D01*
X38603340Y-52972393D01*
X38603341Y-52972394D01*
X39420444Y-52155291D01*
X39440889Y-52231591D01*
X39519881Y-52368408D01*
X39631592Y-52480119D01*
X39768409Y-52559111D01*
X39844708Y-52579555D01*
X39027605Y-53396657D01*
X39027605Y-53396658D01*
X39053502Y-53416530D01*
X39246485Y-53527949D01*
X39246497Y-53527954D01*
X39452381Y-53613236D01*
X39667632Y-53670911D01*
X39667645Y-53670914D01*
X39888575Y-53700000D01*
X40111425Y-53700000D01*
X40332354Y-53670914D01*
X40332367Y-53670911D01*
X40547618Y-53613236D01*
X40753502Y-53527954D01*
X40753514Y-53527949D01*
X40946496Y-53416531D01*
X40946500Y-53416529D01*
X40972393Y-53396658D01*
X40972393Y-53396656D01*
X40155291Y-52579555D01*
X40231591Y-52559111D01*
X40368408Y-52480119D01*
X40480119Y-52368408D01*
X40559111Y-52231591D01*
X40579555Y-52155291D01*
X41396656Y-52972393D01*
X41396658Y-52972393D01*
X41416529Y-52946500D01*
X41416531Y-52946496D01*
X41527949Y-52753514D01*
X41527954Y-52753502D01*
X41613236Y-52547618D01*
X41670911Y-52332367D01*
X41670914Y-52332354D01*
X41700000Y-52111424D01*
X41700000Y-51888575D01*
X41670914Y-51667645D01*
X41670911Y-51667632D01*
X41613236Y-51452381D01*
X41527954Y-51246497D01*
X41527949Y-51246485D01*
X41423282Y-51065195D01*
X41423281Y-51065193D01*
X41416534Y-51053506D01*
X41416531Y-51053502D01*
X41396658Y-51027605D01*
X41396657Y-51027605D01*
X40579555Y-51844707D01*
X40559111Y-51768409D01*
X40480119Y-51631592D01*
X40368408Y-51519881D01*
X40231591Y-51440889D01*
X40155291Y-51420444D01*
X40568835Y-51006900D01*
X47999500Y-51006900D01*
X47999500Y-52993091D01*
X48010123Y-53081562D01*
X48065639Y-53222342D01*
X48065640Y-53222344D01*
X48157077Y-53342922D01*
X48277655Y-53434359D01*
X48277658Y-53434361D01*
X48418436Y-53489876D01*
X48506901Y-53500500D01*
X50493098Y-53500499D01*
X50581564Y-53489876D01*
X50722342Y-53434361D01*
X50842922Y-53342922D01*
X50934361Y-53222342D01*
X50989876Y-53081564D01*
X51000500Y-52993099D01*
X51000499Y-51006902D01*
X50989876Y-50918436D01*
X50934361Y-50777658D01*
X50934359Y-50777655D01*
X50842922Y-50657077D01*
X50722344Y-50565640D01*
X50722342Y-50565639D01*
X50581564Y-50510124D01*
X50581561Y-50510123D01*
X50493099Y-50499500D01*
X48506908Y-50499500D01*
X48418437Y-50510123D01*
X48277657Y-50565639D01*
X48277655Y-50565640D01*
X48157077Y-50657077D01*
X48065640Y-50777655D01*
X48065639Y-50777658D01*
X48034949Y-50855485D01*
X48010124Y-50918437D01*
X48010123Y-50918438D01*
X47999500Y-51006900D01*
X40568835Y-51006900D01*
X40972394Y-50603341D01*
X40972393Y-50603340D01*
X40946497Y-50583468D01*
X40753514Y-50472050D01*
X40753502Y-50472045D01*
X40547618Y-50386763D01*
X40332367Y-50329088D01*
X40332354Y-50329085D01*
X40111425Y-50300000D01*
X39888575Y-50300000D01*
X39667645Y-50329085D01*
X39667632Y-50329088D01*
X39452381Y-50386763D01*
X39246497Y-50472045D01*
X39246479Y-50472054D01*
X39053511Y-50583462D01*
X39027605Y-50603341D01*
X39844708Y-51420444D01*
X39768409Y-51440889D01*
X39631592Y-51519881D01*
X39519881Y-51631592D01*
X39440889Y-51768409D01*
X39420444Y-51844708D01*
X38603341Y-51027605D01*
X38583462Y-51053511D01*
X38472054Y-51246479D01*
X38472045Y-51246497D01*
X38386763Y-51452381D01*
X38329088Y-51667632D01*
X38329085Y-51667645D01*
X38300000Y-51888575D01*
X38000499Y-51888575D01*
X38000499Y-51006902D01*
X37989876Y-50918436D01*
X37934361Y-50777658D01*
X37934359Y-50777655D01*
X37895354Y-50726219D01*
X37842922Y-50657077D01*
X37722344Y-50565640D01*
X37722342Y-50565639D01*
X37581564Y-50510124D01*
X37581561Y-50510123D01*
X37493099Y-50499500D01*
X35506908Y-50499500D01*
X35418437Y-50510123D01*
X35277657Y-50565639D01*
X35277655Y-50565640D01*
X35157077Y-50657077D01*
X35065640Y-50777655D01*
X35065639Y-50777658D01*
X35034949Y-50855485D01*
X35010124Y-50918437D01*
X35010123Y-50918438D01*
X34999500Y-51006900D01*
X28568835Y-51006900D01*
X28972394Y-50603341D01*
X28972393Y-50603340D01*
X28946497Y-50583468D01*
X28753514Y-50472050D01*
X28753502Y-50472045D01*
X28547618Y-50386763D01*
X28332367Y-50329088D01*
X28332354Y-50329085D01*
X28111425Y-50300000D01*
X27888575Y-50300000D01*
X27667645Y-50329085D01*
X27667632Y-50329088D01*
X27452381Y-50386763D01*
X27246497Y-50472045D01*
X27246479Y-50472054D01*
X27053511Y-50583462D01*
X27027605Y-50603341D01*
X27844708Y-51420444D01*
X27768409Y-51440889D01*
X27631592Y-51519881D01*
X27519881Y-51631592D01*
X27440889Y-51768409D01*
X27420444Y-51844708D01*
X26603341Y-51027605D01*
X26583462Y-51053511D01*
X26472054Y-51246479D01*
X26472045Y-51246497D01*
X26386763Y-51452381D01*
X26329088Y-51667632D01*
X26329085Y-51667645D01*
X26300000Y-51888575D01*
X26000499Y-51888575D01*
X26000499Y-51006902D01*
X25989876Y-50918436D01*
X25934361Y-50777658D01*
X25934359Y-50777655D01*
X25895354Y-50726219D01*
X25842922Y-50657077D01*
X25722344Y-50565640D01*
X25722342Y-50565639D01*
X25581564Y-50510124D01*
X25581561Y-50510123D01*
X25493099Y-50499500D01*
X23506908Y-50499500D01*
X23418437Y-50510123D01*
X23277657Y-50565639D01*
X23277655Y-50565640D01*
X23157077Y-50657077D01*
X23065640Y-50777655D01*
X23065639Y-50777658D01*
X23034949Y-50855485D01*
X23010124Y-50918437D01*
X23010123Y-50918438D01*
X22999500Y-51006900D01*
X16568835Y-51006900D01*
X16972394Y-50603341D01*
X16972393Y-50603340D01*
X16946497Y-50583468D01*
X16753514Y-50472050D01*
X16753502Y-50472045D01*
X16547618Y-50386763D01*
X16332367Y-50329088D01*
X16332354Y-50329085D01*
X16111425Y-50300000D01*
X15888575Y-50300000D01*
X15667645Y-50329085D01*
X15667632Y-50329088D01*
X15452381Y-50386763D01*
X15246497Y-50472045D01*
X15246479Y-50472054D01*
X15053511Y-50583462D01*
X15027605Y-50603341D01*
X15844708Y-51420444D01*
X15768409Y-51440889D01*
X15631592Y-51519881D01*
X15519881Y-51631592D01*
X15440889Y-51768409D01*
X15420444Y-51844708D01*
X14603341Y-51027605D01*
X14583462Y-51053511D01*
X14472054Y-51246479D01*
X14472045Y-51246497D01*
X14386763Y-51452381D01*
X14329088Y-51667632D01*
X14329085Y-51667645D01*
X14300000Y-51888575D01*
X14000499Y-51888575D01*
X14000499Y-51006902D01*
X13989876Y-50918436D01*
X13934361Y-50777658D01*
X13934359Y-50777655D01*
X13895354Y-50726219D01*
X13842922Y-50657077D01*
X13722344Y-50565640D01*
X13722342Y-50565639D01*
X13581564Y-50510124D01*
X13581561Y-50510123D01*
X13493099Y-50499500D01*
X11506908Y-50499500D01*
X11418437Y-50510123D01*
X11277657Y-50565639D01*
X11277655Y-50565640D01*
X11157077Y-50657077D01*
X11065640Y-50777655D01*
X11065639Y-50777658D01*
X11034949Y-50855485D01*
X11010124Y-50918437D01*
X11010123Y-50918438D01*
X10999500Y-51006900D01*
X5692122Y-51006900D01*
X5665050Y-50963815D01*
X5479438Y-50731066D01*
X5268934Y-50520562D01*
X5242524Y-50499501D01*
X5101156Y-50386763D01*
X5036185Y-50334950D01*
X4784117Y-50176565D01*
X4784114Y-50176563D01*
X4515904Y-50047400D01*
X4234920Y-49949079D01*
X4234912Y-49949076D01*
X4017233Y-49899393D01*
X3944675Y-49882832D01*
X3944671Y-49882831D01*
X3944662Y-49882830D01*
X3648853Y-49849500D01*
X3648849Y-49849500D01*
X3351151Y-49849500D01*
X3351146Y-49849500D01*
X3055337Y-49882830D01*
X3055325Y-49882832D01*
X2765087Y-49949076D01*
X2765079Y-49949079D01*
X2484095Y-50047400D01*
X2215885Y-50176563D01*
X1963816Y-50334949D01*
X1731066Y-50520561D01*
X1520561Y-50731066D01*
X1334949Y-50963816D01*
X1176563Y-51215885D01*
X1047400Y-51484095D01*
X949079Y-51765079D01*
X949076Y-51765087D01*
X882832Y-52055325D01*
X882830Y-52055337D01*
X849500Y-52351146D01*
X400500Y-52351146D01*
X400500Y-45506900D01*
X2499500Y-45506900D01*
X2499500Y-47493091D01*
X2510123Y-47581562D01*
X2565639Y-47722342D01*
X2565640Y-47722344D01*
X2657077Y-47842922D01*
X2777655Y-47934359D01*
X2777658Y-47934361D01*
X2918436Y-47989876D01*
X3006901Y-48000500D01*
X4993098Y-48000499D01*
X5081564Y-47989876D01*
X5222342Y-47934361D01*
X5342922Y-47842922D01*
X5434361Y-47722342D01*
X5489876Y-47581564D01*
X5500500Y-47493099D01*
X5500499Y-45506902D01*
X5489876Y-45418436D01*
X5434361Y-45277658D01*
X5434359Y-45277655D01*
X5342922Y-45157077D01*
X5222344Y-45065640D01*
X5222342Y-45065639D01*
X5081564Y-45010124D01*
X5081561Y-45010123D01*
X4993099Y-44999500D01*
X3006908Y-44999500D01*
X2918437Y-45010123D01*
X2777657Y-45065639D01*
X2777655Y-45065640D01*
X2657077Y-45157077D01*
X2565640Y-45277655D01*
X2510124Y-45418437D01*
X2510123Y-45418438D01*
X2499500Y-45506900D01*
X400500Y-45506900D01*
X400500Y-42881902D01*
X2499500Y-42881902D01*
X2499500Y-43118097D01*
X2536446Y-43351368D01*
X2609433Y-43575996D01*
X2700980Y-43755665D01*
X2716657Y-43786433D01*
X2855483Y-43977510D01*
X3022490Y-44144517D01*
X3213567Y-44283343D01*
X3282011Y-44318217D01*
X3424003Y-44390566D01*
X3424005Y-44390566D01*
X3424008Y-44390568D01*
X3544412Y-44429689D01*
X3648631Y-44463553D01*
X3881903Y-44500500D01*
X3881908Y-44500500D01*
X4118097Y-44500500D01*
X4351368Y-44463553D01*
X4401823Y-44447159D01*
X4575992Y-44390568D01*
X4786433Y-44283343D01*
X4977510Y-44144517D01*
X5144517Y-43977510D01*
X5283343Y-43786433D01*
X5356492Y-43642871D01*
X5390566Y-43575996D01*
X5390566Y-43575995D01*
X5390568Y-43575992D01*
X5463553Y-43351368D01*
X5471689Y-43300000D01*
X5500500Y-43118097D01*
X5500500Y-42881902D01*
X5463553Y-42648631D01*
X5400336Y-42454072D01*
X5390568Y-42424008D01*
X5390566Y-42424005D01*
X5390566Y-42424003D01*
X5313601Y-42272952D01*
X5283343Y-42213567D01*
X5144517Y-42022490D01*
X4977510Y-41855483D01*
X4786433Y-41716657D01*
X4575996Y-41609433D01*
X4351368Y-41536446D01*
X4118097Y-41499500D01*
X4118092Y-41499500D01*
X3881908Y-41499500D01*
X3881903Y-41499500D01*
X3648631Y-41536446D01*
X3424003Y-41609433D01*
X3213566Y-41716657D01*
X3104550Y-41795862D01*
X3022490Y-41855483D01*
X3022488Y-41855485D01*
X3022487Y-41855485D01*
X2855485Y-42022487D01*
X2855485Y-42022488D01*
X2855483Y-42022490D01*
X2817370Y-42074948D01*
X2716657Y-42213566D01*
X2609433Y-42424003D01*
X2536446Y-42648631D01*
X2499500Y-42881902D01*
X400500Y-42881902D01*
X400500Y-22688575D01*
X2300000Y-22688575D01*
X2300000Y-22911424D01*
X2329085Y-23132354D01*
X2329088Y-23132367D01*
X2386763Y-23347618D01*
X2472045Y-23553502D01*
X2472050Y-23553514D01*
X2583468Y-23746497D01*
X2603340Y-23772393D01*
X2603341Y-23772394D01*
X3420444Y-22955291D01*
X3440889Y-23031591D01*
X3519881Y-23168408D01*
X3631592Y-23280119D01*
X3768409Y-23359111D01*
X3844708Y-23379555D01*
X3027605Y-24196657D01*
X3027605Y-24196658D01*
X3053502Y-24216530D01*
X3246485Y-24327949D01*
X3246497Y-24327954D01*
X3452381Y-24413236D01*
X3667632Y-24470911D01*
X3667645Y-24470914D01*
X3888575Y-24500000D01*
X4111425Y-24500000D01*
X4332354Y-24470914D01*
X4332367Y-24470911D01*
X4547618Y-24413236D01*
X4753502Y-24327954D01*
X4753514Y-24327949D01*
X4946496Y-24216531D01*
X4946500Y-24216529D01*
X4972393Y-24196658D01*
X4972393Y-24196656D01*
X4155291Y-23379555D01*
X4231591Y-23359111D01*
X4368408Y-23280119D01*
X4480119Y-23168408D01*
X4559111Y-23031591D01*
X4579555Y-22955291D01*
X5396656Y-23772393D01*
X5396658Y-23772393D01*
X5416529Y-23746500D01*
X5416531Y-23746496D01*
X5527949Y-23553514D01*
X5527954Y-23553502D01*
X5613236Y-23347618D01*
X5670911Y-23132367D01*
X5670914Y-23132354D01*
X5700000Y-22911424D01*
X5700000Y-22688575D01*
X5670914Y-22467645D01*
X5670911Y-22467632D01*
X5613236Y-22252381D01*
X5527954Y-22046497D01*
X5527949Y-22046485D01*
X5416530Y-21853502D01*
X5396658Y-21827605D01*
X5396657Y-21827605D01*
X4579555Y-22644707D01*
X4559111Y-22568409D01*
X4480119Y-22431592D01*
X4368408Y-22319881D01*
X4231591Y-22240889D01*
X4155291Y-22220444D01*
X4972394Y-21403341D01*
X4972393Y-21403340D01*
X4946497Y-21383468D01*
X4753514Y-21272050D01*
X4753502Y-21272045D01*
X4547618Y-21186763D01*
X4332367Y-21129088D01*
X4332354Y-21129085D01*
X4111425Y-21100000D01*
X3888575Y-21100000D01*
X3667645Y-21129085D01*
X3667632Y-21129088D01*
X3452381Y-21186763D01*
X3246497Y-21272045D01*
X3246479Y-21272054D01*
X3053511Y-21383462D01*
X3027605Y-21403341D01*
X3844708Y-22220444D01*
X3768409Y-22240889D01*
X3631592Y-22319881D01*
X3519881Y-22431592D01*
X3440889Y-22568409D01*
X3420444Y-22644708D01*
X2603341Y-21827605D01*
X2583462Y-21853511D01*
X2472054Y-22046479D01*
X2472045Y-22046497D01*
X2386763Y-22252381D01*
X2329088Y-22467632D01*
X2329085Y-22467645D01*
X2300000Y-22688575D01*
X400500Y-22688575D01*
X400500Y-3351146D01*
X849500Y-3351146D01*
X849500Y-3648853D01*
X882830Y-3944662D01*
X882831Y-3944668D01*
X882832Y-3944675D01*
X913161Y-4077553D01*
X949076Y-4234912D01*
X949079Y-4234920D01*
X1047400Y-4515904D01*
X1176563Y-4784114D01*
X1187990Y-4802300D01*
X1334950Y-5036185D01*
X1473424Y-5209825D01*
X1520362Y-5268684D01*
X1520562Y-5268934D01*
X1731066Y-5479438D01*
X1963815Y-5665050D01*
X2215883Y-5823435D01*
X2215885Y-5823436D01*
X2269636Y-5849321D01*
X2484099Y-5952601D01*
X2695135Y-6026445D01*
X2765079Y-6050920D01*
X2765087Y-6050923D01*
X2765090Y-6050923D01*
X2765091Y-6050924D01*
X3055325Y-6117168D01*
X3351147Y-6150499D01*
X3351148Y-6150500D01*
X3351151Y-6150500D01*
X3648852Y-6150500D01*
X3648852Y-6150499D01*
X3944675Y-6117168D01*
X4234909Y-6050924D01*
X4515901Y-5952601D01*
X4784117Y-5823435D01*
X5036185Y-5665050D01*
X5268934Y-5479438D01*
X5479438Y-5268934D01*
X5665050Y-5036185D01*
X5823435Y-4784117D01*
X5952601Y-4515901D01*
X5992759Y-4401136D01*
X6033480Y-4344360D01*
X6098433Y-4318613D01*
X6166995Y-4332069D01*
X6217397Y-4380457D01*
X6233800Y-4442091D01*
X6233800Y-17382889D01*
X6214115Y-17449928D01*
X6197481Y-17470570D01*
X4529870Y-19138181D01*
X4468547Y-19171666D01*
X4442189Y-19174500D01*
X4325805Y-19174500D01*
X4190477Y-19201418D01*
X4190467Y-19201421D01*
X4062995Y-19254221D01*
X4062982Y-19254228D01*
X3948258Y-19330885D01*
X3948254Y-19330888D01*
X3850688Y-19428454D01*
X3850685Y-19428458D01*
X3774028Y-19543182D01*
X3774021Y-19543195D01*
X3721221Y-19670667D01*
X3721218Y-19670677D01*
X3694300Y-19806004D01*
X3694300Y-19806007D01*
X3694300Y-19943993D01*
X3694300Y-19943995D01*
X3694299Y-19943995D01*
X3721218Y-20079322D01*
X3721221Y-20079332D01*
X3774021Y-20206804D01*
X3774028Y-20206817D01*
X3850685Y-20321541D01*
X3850688Y-20321545D01*
X3948254Y-20419111D01*
X3948258Y-20419114D01*
X4062982Y-20495771D01*
X4062995Y-20495778D01*
X4181701Y-20544947D01*
X4190472Y-20548580D01*
X4190476Y-20548580D01*
X4190477Y-20548581D01*
X4325804Y-20575500D01*
X4325807Y-20575500D01*
X4463795Y-20575500D01*
X4554841Y-20557389D01*
X4599128Y-20548580D01*
X4726611Y-20495775D01*
X4841342Y-20419114D01*
X4938914Y-20321542D01*
X5015575Y-20206811D01*
X5018147Y-20200603D01*
X5053157Y-20116080D01*
X5068380Y-20079328D01*
X5095300Y-19943993D01*
X5095300Y-19827609D01*
X5114985Y-19760570D01*
X5131619Y-19739928D01*
X6297510Y-18574038D01*
X9999500Y-18574038D01*
X9999500Y-18825962D01*
X10018717Y-18947293D01*
X10038910Y-19074785D01*
X10116760Y-19314383D01*
X10146886Y-19373507D01*
X10217194Y-19511495D01*
X10231132Y-19538848D01*
X10379201Y-19742649D01*
X10379205Y-19742654D01*
X10557345Y-19920794D01*
X10557350Y-19920798D01*
X10647939Y-19986614D01*
X10761155Y-20068870D01*
X10904184Y-20141747D01*
X10985616Y-20183239D01*
X10985618Y-20183239D01*
X10985621Y-20183241D01*
X11225215Y-20261090D01*
X11474038Y-20300500D01*
X11474039Y-20300500D01*
X11725961Y-20300500D01*
X11725962Y-20300500D01*
X11974785Y-20261090D01*
X12214379Y-20183241D01*
X12438845Y-20068870D01*
X12642656Y-19920793D01*
X12820793Y-19742656D01*
X12968870Y-19538845D01*
X13083241Y-19314379D01*
X13161090Y-19074785D01*
X13200500Y-18825962D01*
X13200500Y-18574038D01*
X13161090Y-18325215D01*
X13083241Y-18085621D01*
X13083239Y-18085618D01*
X13083239Y-18085616D01*
X13041747Y-18004184D01*
X12968870Y-17861155D01*
X12888474Y-17750499D01*
X12820798Y-17657350D01*
X12820794Y-17657345D01*
X12642654Y-17479205D01*
X12642649Y-17479201D01*
X12438848Y-17331132D01*
X12438847Y-17331131D01*
X12438845Y-17331130D01*
X12368747Y-17295413D01*
X12214383Y-17216760D01*
X11974785Y-17138910D01*
X11725962Y-17099500D01*
X11474038Y-17099500D01*
X11349626Y-17119205D01*
X11225214Y-17138910D01*
X10985616Y-17216760D01*
X10761151Y-17331132D01*
X10557350Y-17479201D01*
X10557345Y-17479205D01*
X10379205Y-17657345D01*
X10379201Y-17657350D01*
X10231132Y-17861151D01*
X10116760Y-18085616D01*
X10038910Y-18325214D01*
X10022036Y-18431754D01*
X9999500Y-18574038D01*
X6297510Y-18574038D01*
X6390063Y-18481485D01*
X6609767Y-18261781D01*
X6999785Y-17871763D01*
X7055803Y-17774737D01*
X7084800Y-17666518D01*
X7084800Y-17554481D01*
X7084800Y-15142298D01*
X7104485Y-15075259D01*
X7121119Y-15054617D01*
X7863442Y-14312293D01*
X7891049Y-14378942D01*
X7978599Y-14509970D01*
X8090030Y-14621401D01*
X8221058Y-14708951D01*
X8287706Y-14736557D01*
X7556284Y-15467979D01*
X7597822Y-15499851D01*
X7597836Y-15499861D01*
X7802164Y-15617831D01*
X7802180Y-15617839D01*
X8020163Y-15708129D01*
X8020161Y-15708129D01*
X8248085Y-15769200D01*
X8482014Y-15799999D01*
X8482029Y-15800000D01*
X8717971Y-15800000D01*
X8717985Y-15799999D01*
X8951914Y-15769200D01*
X9179837Y-15708129D01*
X9397819Y-15617839D01*
X9397828Y-15617834D01*
X9602171Y-15499855D01*
X9602172Y-15499854D01*
X9643714Y-15467978D01*
X8912293Y-14736557D01*
X8978942Y-14708951D01*
X9109970Y-14621401D01*
X9221401Y-14509970D01*
X9308951Y-14378942D01*
X9336557Y-14312293D01*
X10067978Y-15043714D01*
X10099854Y-15002172D01*
X10099855Y-15002171D01*
X10217834Y-14797828D01*
X10217839Y-14797819D01*
X10308129Y-14579837D01*
X10369200Y-14351914D01*
X10399999Y-14117985D01*
X10400000Y-14117971D01*
X10400000Y-13882028D01*
X10399999Y-13882014D01*
X10369200Y-13648085D01*
X10308129Y-13420162D01*
X10217839Y-13202180D01*
X10217831Y-13202164D01*
X10099861Y-12997836D01*
X10099851Y-12997822D01*
X10067979Y-12956284D01*
X9336557Y-13687705D01*
X9308951Y-13621058D01*
X9221401Y-13490030D01*
X9109970Y-13378599D01*
X8978942Y-13291049D01*
X8912294Y-13263442D01*
X9520605Y-12655131D01*
X12999500Y-12655131D01*
X12999500Y-15344856D01*
X12999502Y-15344882D01*
X13002413Y-15369987D01*
X13002415Y-15369991D01*
X13047793Y-15472764D01*
X13047794Y-15472765D01*
X13127235Y-15552206D01*
X13230009Y-15597585D01*
X13255135Y-15600500D01*
X15944864Y-15600499D01*
X15944879Y-15600497D01*
X15944882Y-15600497D01*
X15969987Y-15597586D01*
X15969988Y-15597585D01*
X15969991Y-15597585D01*
X16072765Y-15552206D01*
X16152206Y-15472765D01*
X16197585Y-15369991D01*
X16200500Y-15344865D01*
X16200499Y-12655136D01*
X16199357Y-12645285D01*
X16197586Y-12630012D01*
X16197585Y-12630010D01*
X16197585Y-12630009D01*
X16152206Y-12527235D01*
X16072765Y-12447794D01*
X16072763Y-12447793D01*
X15969992Y-12402415D01*
X15944865Y-12399500D01*
X13255143Y-12399500D01*
X13255117Y-12399502D01*
X13230012Y-12402413D01*
X13230008Y-12402415D01*
X13127235Y-12447793D01*
X13047794Y-12527234D01*
X13002415Y-12630006D01*
X13002415Y-12630008D01*
X12999500Y-12655131D01*
X9520605Y-12655131D01*
X9611863Y-12563873D01*
X9643715Y-12532020D01*
X9602178Y-12500148D01*
X9602163Y-12500138D01*
X9397835Y-12382168D01*
X9397819Y-12382160D01*
X9179836Y-12291870D01*
X9179838Y-12291870D01*
X8951914Y-12230799D01*
X8717985Y-12200000D01*
X8482014Y-12200000D01*
X8248085Y-12230799D01*
X8020162Y-12291870D01*
X7802180Y-12382160D01*
X7802164Y-12382168D01*
X7597836Y-12500138D01*
X7597823Y-12500147D01*
X7556283Y-12532020D01*
X8287706Y-13263442D01*
X8221058Y-13291049D01*
X8090030Y-13378599D01*
X7978599Y-13490030D01*
X7891049Y-13621058D01*
X7863442Y-13687705D01*
X7121119Y-12945382D01*
X7087634Y-12884059D01*
X7084800Y-12857701D01*
X7084800Y-6740529D01*
X7104485Y-6673490D01*
X7157289Y-6627735D01*
X7226447Y-6617791D01*
X7281685Y-6640211D01*
X7397006Y-6723996D01*
X7502484Y-6777740D01*
X7558360Y-6806211D01*
X7558363Y-6806212D01*
X7607260Y-6822099D01*
X7730591Y-6862171D01*
X7813429Y-6875291D01*
X7909449Y-6890500D01*
X7909454Y-6890500D01*
X8090551Y-6890500D01*
X8177259Y-6876765D01*
X8269409Y-6862171D01*
X8441639Y-6806211D01*
X8602994Y-6723996D01*
X8749501Y-6617553D01*
X8877553Y-6489501D01*
X8983996Y-6342994D01*
X9039937Y-6233203D01*
X9087910Y-6182409D01*
X9150421Y-6165500D01*
X9389579Y-6165500D01*
X9456618Y-6185185D01*
X9500062Y-6233203D01*
X9512808Y-6258217D01*
X9556006Y-6342998D01*
X9662441Y-6489494D01*
X9662445Y-6489499D01*
X9790500Y-6617554D01*
X9790505Y-6617558D01*
X9804513Y-6627735D01*
X9937006Y-6723996D01*
X10042484Y-6777740D01*
X10098360Y-6806211D01*
X10098363Y-6806212D01*
X10147260Y-6822099D01*
X10270591Y-6862171D01*
X10353429Y-6875291D01*
X10449449Y-6890500D01*
X10449454Y-6890500D01*
X10630551Y-6890500D01*
X10758305Y-6870265D01*
X10809409Y-6862171D01*
X10926600Y-6824093D01*
X10996438Y-6822099D01*
X11052596Y-6854344D01*
X18342681Y-14144429D01*
X18376166Y-14205752D01*
X18379000Y-14232110D01*
X18379000Y-18261781D01*
X18359315Y-18328820D01*
X18342681Y-18349462D01*
X18260388Y-18431754D01*
X18260385Y-18431758D01*
X18183728Y-18546482D01*
X18183721Y-18546495D01*
X18130921Y-18673967D01*
X18130918Y-18673977D01*
X18104000Y-18809304D01*
X18104000Y-18947297D01*
X18120711Y-19031309D01*
X18114484Y-19100901D01*
X18071621Y-19156078D01*
X18005731Y-19179322D01*
X17999094Y-19179500D01*
X15874782Y-19179500D01*
X15766563Y-19208497D01*
X15766560Y-19208498D01*
X15669540Y-19264513D01*
X15669534Y-19264517D01*
X9095871Y-25838181D01*
X9034548Y-25871666D01*
X9008190Y-25874500D01*
X5624499Y-25874500D01*
X5557460Y-25854815D01*
X5511705Y-25802011D01*
X5500499Y-25750500D01*
X5500499Y-25306908D01*
X5500499Y-25306902D01*
X5489876Y-25218436D01*
X5434361Y-25077658D01*
X5434359Y-25077655D01*
X5342922Y-24957077D01*
X5222344Y-24865640D01*
X5222342Y-24865639D01*
X5081564Y-24810124D01*
X5081561Y-24810123D01*
X4993099Y-24799500D01*
X3006908Y-24799500D01*
X2918437Y-24810123D01*
X2777657Y-24865639D01*
X2777655Y-24865640D01*
X2657077Y-24957077D01*
X2565640Y-25077655D01*
X2565639Y-25077658D01*
X2510253Y-25218111D01*
X2510124Y-25218437D01*
X2510123Y-25218438D01*
X2499500Y-25306900D01*
X2499500Y-27147389D01*
X2479815Y-27214428D01*
X2463181Y-27235070D01*
X2178595Y-27519655D01*
X2178596Y-27519656D01*
X2116814Y-27581438D01*
X2116813Y-27581440D01*
X2060798Y-27678460D01*
X2060797Y-27678463D01*
X2031800Y-27786682D01*
X2031800Y-35795782D01*
X2031800Y-35907818D01*
X2060797Y-36016037D01*
X2116815Y-36113063D01*
X2116816Y-36113064D01*
X2116817Y-36113065D01*
X3646060Y-37642307D01*
X3679545Y-37703630D01*
X3674561Y-37773322D01*
X3632689Y-37829255D01*
X3590472Y-37849763D01*
X3452381Y-37886763D01*
X3246497Y-37972045D01*
X3246479Y-37972054D01*
X3053511Y-38083462D01*
X3027605Y-38103341D01*
X3844708Y-38920444D01*
X3768409Y-38940889D01*
X3631592Y-39019881D01*
X3519881Y-39131592D01*
X3440889Y-39268409D01*
X3420444Y-39344708D01*
X2603341Y-38527605D01*
X2583462Y-38553511D01*
X2472054Y-38746479D01*
X2472045Y-38746497D01*
X2386763Y-38952381D01*
X2329088Y-39167632D01*
X2329085Y-39167645D01*
X2300000Y-39388575D01*
X2300000Y-39611424D01*
X2329085Y-39832354D01*
X2329088Y-39832367D01*
X2386763Y-40047618D01*
X2472045Y-40253502D01*
X2472050Y-40253514D01*
X2583468Y-40446497D01*
X2603340Y-40472393D01*
X2603341Y-40472394D01*
X3420444Y-39655291D01*
X3440889Y-39731591D01*
X3519881Y-39868408D01*
X3631592Y-39980119D01*
X3768409Y-40059111D01*
X3844708Y-40079555D01*
X3027605Y-40896657D01*
X3027605Y-40896658D01*
X3053502Y-40916530D01*
X3246485Y-41027949D01*
X3246497Y-41027954D01*
X3452381Y-41113236D01*
X3667632Y-41170911D01*
X3667645Y-41170914D01*
X3888575Y-41200000D01*
X4111425Y-41200000D01*
X4332354Y-41170914D01*
X4332367Y-41170911D01*
X4547618Y-41113236D01*
X4753502Y-41027954D01*
X4753514Y-41027949D01*
X4946496Y-40916531D01*
X4946500Y-40916529D01*
X4972393Y-40896658D01*
X4972393Y-40896656D01*
X4155291Y-40079555D01*
X4231591Y-40059111D01*
X4368408Y-39980119D01*
X4480119Y-39868408D01*
X4559111Y-39731591D01*
X4579555Y-39655291D01*
X5396656Y-40472393D01*
X5396658Y-40472393D01*
X5416529Y-40446500D01*
X5416531Y-40446496D01*
X5527949Y-40253514D01*
X5527954Y-40253502D01*
X5613236Y-40047618D01*
X5667079Y-39846671D01*
X5703444Y-39787010D01*
X5766291Y-39756481D01*
X5835666Y-39764775D01*
X5874535Y-39791083D01*
X8267115Y-42183663D01*
X8346337Y-42262885D01*
X8443363Y-42318903D01*
X8551582Y-42347900D01*
X17739779Y-42347900D01*
X17806818Y-42367585D01*
X17852573Y-42420389D01*
X17862517Y-42489547D01*
X17833492Y-42553103D01*
X17796074Y-42582385D01*
X17672448Y-42645375D01*
X17659237Y-42654972D01*
X17659237Y-42654973D01*
X18306358Y-43302094D01*
X18187007Y-43334075D01*
X18072993Y-43399901D01*
X17979901Y-43492993D01*
X17914075Y-43607007D01*
X17882094Y-43726358D01*
X17234973Y-43079237D01*
X17234972Y-43079237D01*
X17225375Y-43092448D01*
X17128905Y-43281781D01*
X17119506Y-43310708D01*
X17080068Y-43368383D01*
X17015709Y-43395581D01*
X16946862Y-43383666D01*
X16895387Y-43336421D01*
X16891090Y-43328684D01*
X16844526Y-43237299D01*
X16823996Y-43197006D01*
X16774892Y-43129420D01*
X16717558Y-43050505D01*
X16717554Y-43050500D01*
X16589499Y-42922445D01*
X16589494Y-42922441D01*
X16442997Y-42816006D01*
X16442996Y-42816005D01*
X16442994Y-42816004D01*
X16391300Y-42789664D01*
X16281639Y-42733788D01*
X16281636Y-42733787D01*
X16109410Y-42677829D01*
X15930551Y-42649500D01*
X15930546Y-42649500D01*
X15749454Y-42649500D01*
X15749449Y-42649500D01*
X15570589Y-42677829D01*
X15398363Y-42733787D01*
X15398360Y-42733788D01*
X15237002Y-42816006D01*
X15090505Y-42922441D01*
X15090500Y-42922445D01*
X14962445Y-43050500D01*
X14962441Y-43050505D01*
X14856006Y-43197002D01*
X14773788Y-43358360D01*
X14773787Y-43358363D01*
X14717829Y-43530589D01*
X14689500Y-43709448D01*
X14689500Y-43890551D01*
X14717829Y-44069410D01*
X14773787Y-44241636D01*
X14773788Y-44241639D01*
X14818515Y-44329419D01*
X14848501Y-44388269D01*
X14856006Y-44402997D01*
X14962441Y-44549494D01*
X14962445Y-44549499D01*
X15090500Y-44677554D01*
X15090505Y-44677558D01*
X15218287Y-44770396D01*
X15237006Y-44783996D01*
X15313094Y-44822765D01*
X15398360Y-44866211D01*
X15398363Y-44866212D01*
X15484476Y-44894191D01*
X15570591Y-44922171D01*
X15653429Y-44935291D01*
X15749449Y-44950500D01*
X15749454Y-44950500D01*
X15930551Y-44950500D01*
X16017259Y-44936765D01*
X16109409Y-44922171D01*
X16281639Y-44866211D01*
X16442994Y-44783996D01*
X16589501Y-44677553D01*
X16717553Y-44549501D01*
X16823996Y-44402994D01*
X16891090Y-44271314D01*
X16939065Y-44220519D01*
X17006886Y-44203724D01*
X17073021Y-44226262D01*
X17116472Y-44280977D01*
X17119506Y-44289292D01*
X17128904Y-44318217D01*
X17225375Y-44507550D01*
X17234973Y-44520761D01*
X17882094Y-43873641D01*
X17914075Y-43992993D01*
X17979901Y-44107007D01*
X18072993Y-44200099D01*
X18187007Y-44265925D01*
X18306358Y-44297905D01*
X17659236Y-44945025D01*
X17672440Y-44954618D01*
X17672453Y-44954626D01*
X17861782Y-45051095D01*
X18063870Y-45116757D01*
X18273754Y-45150000D01*
X18486246Y-45150000D01*
X18696127Y-45116757D01*
X18696130Y-45116757D01*
X18898217Y-45051095D01*
X19087556Y-44954620D01*
X19087563Y-44954617D01*
X19100761Y-44945026D01*
X19100762Y-44945025D01*
X18453641Y-44297905D01*
X18572993Y-44265925D01*
X18687007Y-44200099D01*
X18780099Y-44107007D01*
X18845925Y-43992993D01*
X18877905Y-43873641D01*
X19525025Y-44520762D01*
X19525026Y-44520761D01*
X19534617Y-44507563D01*
X19534622Y-44507554D01*
X19539512Y-44497957D01*
X19587484Y-44447159D01*
X19655304Y-44430361D01*
X19721440Y-44452895D01*
X19760482Y-44497948D01*
X19765374Y-44507549D01*
X19774973Y-44520761D01*
X20422094Y-43873641D01*
X20454075Y-43992993D01*
X20519901Y-44107007D01*
X20612993Y-44200099D01*
X20727007Y-44265925D01*
X20846358Y-44297905D01*
X20199236Y-44945025D01*
X20212440Y-44954618D01*
X20212453Y-44954626D01*
X20401782Y-45051095D01*
X20603870Y-45116757D01*
X20813754Y-45150000D01*
X21026246Y-45150000D01*
X21236127Y-45116757D01*
X21236130Y-45116757D01*
X21438217Y-45051095D01*
X21627556Y-44954620D01*
X21627563Y-44954617D01*
X21640761Y-44945026D01*
X21640762Y-44945025D01*
X20993641Y-44297905D01*
X21112993Y-44265925D01*
X21227007Y-44200099D01*
X21320099Y-44107007D01*
X21385925Y-43992993D01*
X21417905Y-43873642D01*
X22065025Y-44520762D01*
X22065026Y-44520761D01*
X22074617Y-44507563D01*
X22074620Y-44507556D01*
X22171095Y-44318217D01*
X22180492Y-44289295D01*
X22219928Y-44231618D01*
X22284286Y-44204419D01*
X22353133Y-44216331D01*
X22404610Y-44263574D01*
X22408908Y-44271314D01*
X22476004Y-44402995D01*
X22582441Y-44549494D01*
X22582445Y-44549499D01*
X22710500Y-44677554D01*
X22710505Y-44677558D01*
X22838287Y-44770396D01*
X22857006Y-44783996D01*
X22933094Y-44822765D01*
X23018360Y-44866211D01*
X23018363Y-44866212D01*
X23104476Y-44894191D01*
X23190591Y-44922171D01*
X23273429Y-44935291D01*
X23369449Y-44950500D01*
X23369454Y-44950500D01*
X23550551Y-44950500D01*
X23637259Y-44936765D01*
X23729409Y-44922171D01*
X23901639Y-44866211D01*
X24062994Y-44783996D01*
X24209501Y-44677553D01*
X24337553Y-44549501D01*
X24443996Y-44402994D01*
X24526211Y-44241639D01*
X24582171Y-44069409D01*
X24603027Y-43937729D01*
X24632956Y-43874595D01*
X24692267Y-43837663D01*
X24762130Y-43838661D01*
X24820363Y-43877271D01*
X24848477Y-43941234D01*
X24849500Y-43957127D01*
X24849500Y-44694856D01*
X24849502Y-44694882D01*
X24852413Y-44719987D01*
X24852415Y-44719991D01*
X24897793Y-44822764D01*
X24897794Y-44822765D01*
X24977235Y-44902206D01*
X25080009Y-44947585D01*
X25105135Y-44950500D01*
X26894864Y-44950499D01*
X26894879Y-44950497D01*
X26894882Y-44950497D01*
X26919987Y-44947586D01*
X26919988Y-44947585D01*
X26919991Y-44947585D01*
X27022765Y-44902206D01*
X27102206Y-44822765D01*
X27147585Y-44719991D01*
X27150500Y-44694865D01*
X27150499Y-43172799D01*
X27170184Y-43105761D01*
X27222987Y-43060006D01*
X27274499Y-43048800D01*
X30240536Y-43048800D01*
X30307575Y-43068485D01*
X30353330Y-43121289D01*
X30363274Y-43190447D01*
X30363012Y-43192177D01*
X30360002Y-43211179D01*
X30344500Y-43309055D01*
X30344500Y-43490945D01*
X30372951Y-43670580D01*
X30429157Y-43843562D01*
X30485921Y-43954966D01*
X30505297Y-43992993D01*
X30511730Y-44005617D01*
X30618628Y-44152751D01*
X30618632Y-44152756D01*
X30747243Y-44281367D01*
X30747248Y-44281371D01*
X30875586Y-44374613D01*
X30894386Y-44388272D01*
X30976990Y-44430361D01*
X31056437Y-44470842D01*
X31056439Y-44470842D01*
X31056442Y-44470844D01*
X31139887Y-44497957D01*
X31229419Y-44527048D01*
X31409055Y-44555500D01*
X31409060Y-44555500D01*
X31590945Y-44555500D01*
X31770580Y-44527048D01*
X31825941Y-44509060D01*
X31943558Y-44470844D01*
X32105614Y-44388272D01*
X32252758Y-44281366D01*
X32381366Y-44152758D01*
X32488272Y-44005614D01*
X32545548Y-43893203D01*
X32593521Y-43842409D01*
X32656032Y-43825500D01*
X35495430Y-43825500D01*
X35562469Y-43845185D01*
X35608224Y-43897989D01*
X35618168Y-43967147D01*
X35605915Y-44005795D01*
X35529157Y-44156437D01*
X35472951Y-44329419D01*
X35444500Y-44509054D01*
X35444500Y-44690945D01*
X35472951Y-44870580D01*
X35529157Y-45043562D01*
X35611730Y-45205617D01*
X35718628Y-45352751D01*
X35718632Y-45352756D01*
X35847243Y-45481367D01*
X35847248Y-45481371D01*
X35973214Y-45572890D01*
X35994386Y-45588272D01*
X36095768Y-45639929D01*
X36156437Y-45670842D01*
X36156439Y-45670842D01*
X36156442Y-45670844D01*
X36249162Y-45700970D01*
X36329419Y-45727048D01*
X36509055Y-45755500D01*
X36509060Y-45755500D01*
X36690945Y-45755500D01*
X36870580Y-45727048D01*
X37043558Y-45670844D01*
X37205614Y-45588272D01*
X37352758Y-45481366D01*
X37481366Y-45352758D01*
X37588272Y-45205614D01*
X37670844Y-45043558D01*
X37727048Y-44870580D01*
X37734621Y-44822764D01*
X37755500Y-44690945D01*
X37755500Y-44509054D01*
X37727048Y-44329419D01*
X37670842Y-44156437D01*
X37594085Y-44005795D01*
X37581189Y-43937126D01*
X37607465Y-43872386D01*
X37664571Y-43832128D01*
X37704570Y-43825500D01*
X40843968Y-43825500D01*
X40911007Y-43845185D01*
X40954451Y-43893203D01*
X41006005Y-43994382D01*
X41011730Y-44005617D01*
X41118628Y-44152751D01*
X41118632Y-44152756D01*
X41247243Y-44281367D01*
X41247248Y-44281371D01*
X41375586Y-44374613D01*
X41394386Y-44388272D01*
X41476990Y-44430361D01*
X41556437Y-44470842D01*
X41556439Y-44470842D01*
X41556442Y-44470844D01*
X41639887Y-44497957D01*
X41729419Y-44527048D01*
X41909055Y-44555500D01*
X41909060Y-44555500D01*
X42090945Y-44555500D01*
X42270580Y-44527048D01*
X42325941Y-44509060D01*
X42443558Y-44470844D01*
X42605614Y-44388272D01*
X42752758Y-44281366D01*
X42881366Y-44152758D01*
X42988272Y-44005614D01*
X43045548Y-43893203D01*
X43093521Y-43842409D01*
X43156032Y-43825500D01*
X45995430Y-43825500D01*
X46062469Y-43845185D01*
X46108224Y-43897989D01*
X46118168Y-43967147D01*
X46105915Y-44005795D01*
X46029157Y-44156437D01*
X45972951Y-44329419D01*
X45944500Y-44509054D01*
X45944500Y-44690945D01*
X45972951Y-44870580D01*
X46029157Y-45043562D01*
X46111730Y-45205617D01*
X46218628Y-45352751D01*
X46218632Y-45352756D01*
X46347243Y-45481367D01*
X46347248Y-45481371D01*
X46473214Y-45572890D01*
X46494386Y-45588272D01*
X46595768Y-45639929D01*
X46656437Y-45670842D01*
X46656439Y-45670842D01*
X46656442Y-45670844D01*
X46749162Y-45700970D01*
X46829419Y-45727048D01*
X47009055Y-45755500D01*
X47009060Y-45755500D01*
X47190945Y-45755500D01*
X47370580Y-45727048D01*
X47543558Y-45670844D01*
X47705614Y-45588272D01*
X47852758Y-45481366D01*
X47981366Y-45352758D01*
X48088272Y-45205614D01*
X48170844Y-45043558D01*
X48227048Y-44870580D01*
X48234621Y-44822764D01*
X48255500Y-44690945D01*
X48255500Y-44509054D01*
X48227048Y-44329419D01*
X48170842Y-44156437D01*
X48094085Y-44005795D01*
X48081189Y-43937126D01*
X48107465Y-43872386D01*
X48164571Y-43832128D01*
X48204570Y-43825500D01*
X51343968Y-43825500D01*
X51411007Y-43845185D01*
X51454451Y-43893203D01*
X51506005Y-43994382D01*
X51511730Y-44005617D01*
X51618628Y-44152751D01*
X51618632Y-44152756D01*
X51747243Y-44281367D01*
X51747248Y-44281371D01*
X51875586Y-44374613D01*
X51894386Y-44388272D01*
X51976990Y-44430361D01*
X52056437Y-44470842D01*
X52056439Y-44470842D01*
X52056442Y-44470844D01*
X52139887Y-44497957D01*
X52229419Y-44527048D01*
X52409055Y-44555500D01*
X52409060Y-44555500D01*
X52590945Y-44555500D01*
X52770580Y-44527048D01*
X52825941Y-44509060D01*
X52943558Y-44470844D01*
X53105614Y-44388272D01*
X53252758Y-44281366D01*
X53381366Y-44152758D01*
X53488272Y-44005614D01*
X53570844Y-43843558D01*
X53627048Y-43670580D01*
X53642029Y-43575996D01*
X53655500Y-43490945D01*
X53655500Y-43309054D01*
X53627048Y-43129419D01*
X53576711Y-42974500D01*
X53570844Y-42956442D01*
X53570842Y-42956439D01*
X53570842Y-42956437D01*
X53532864Y-42881902D01*
X53488272Y-42794386D01*
X53444245Y-42733788D01*
X53381371Y-42647248D01*
X53381367Y-42647243D01*
X53252756Y-42518632D01*
X53252751Y-42518628D01*
X53105617Y-42411730D01*
X53105616Y-42411729D01*
X53105614Y-42411728D01*
X53051623Y-42384218D01*
X52943562Y-42329157D01*
X52770580Y-42272951D01*
X52590945Y-42244500D01*
X52590940Y-42244500D01*
X52409060Y-42244500D01*
X52409055Y-42244500D01*
X52229419Y-42272951D01*
X52056437Y-42329157D01*
X51894382Y-42411730D01*
X51747248Y-42518628D01*
X51747243Y-42518632D01*
X51618632Y-42647243D01*
X51618628Y-42647248D01*
X51594118Y-42680984D01*
X51538788Y-42723650D01*
X51469175Y-42729629D01*
X51407380Y-42697023D01*
X51373023Y-42636185D01*
X51369800Y-42608099D01*
X51369800Y-42569004D01*
X51342881Y-42433677D01*
X51342880Y-42433676D01*
X51342880Y-42433672D01*
X51337378Y-42420389D01*
X51290078Y-42306195D01*
X51290071Y-42306182D01*
X51213414Y-42191458D01*
X51213411Y-42191454D01*
X51115845Y-42093888D01*
X51115841Y-42093885D01*
X51001117Y-42017228D01*
X51001104Y-42017221D01*
X50873632Y-41964421D01*
X50873622Y-41964418D01*
X50738295Y-41937500D01*
X50738293Y-41937500D01*
X50621909Y-41937500D01*
X50554870Y-41917815D01*
X50534228Y-41901181D01*
X50214965Y-41581917D01*
X50214964Y-41581916D01*
X50214963Y-41581915D01*
X50176808Y-41559886D01*
X50128594Y-41509320D01*
X50115370Y-41440713D01*
X50141338Y-41375849D01*
X50198252Y-41335320D01*
X50238809Y-41328500D01*
X51509916Y-41328500D01*
X51509918Y-41328500D01*
X51618137Y-41299503D01*
X51715163Y-41243485D01*
X51814728Y-41143918D01*
X51876051Y-41110434D01*
X51902410Y-41107600D01*
X52018795Y-41107600D01*
X52109841Y-41089489D01*
X52154128Y-41080680D01*
X52252724Y-41039840D01*
X52281604Y-41027878D01*
X52281604Y-41027877D01*
X52281611Y-41027875D01*
X52396342Y-40951214D01*
X52493914Y-40853642D01*
X52563972Y-40748792D01*
X52617584Y-40703988D01*
X52686909Y-40695281D01*
X52749936Y-40725435D01*
X52754755Y-40730003D01*
X54063381Y-42038629D01*
X54096866Y-42099952D01*
X54099700Y-42126310D01*
X54099700Y-49969182D01*
X54099700Y-50081218D01*
X54128697Y-50189437D01*
X54184715Y-50286463D01*
X54184717Y-50286465D01*
X55117565Y-51219313D01*
X55151050Y-51280636D01*
X55146066Y-51350328D01*
X55140370Y-51363287D01*
X55109430Y-51424011D01*
X55036447Y-51648627D01*
X55036447Y-51648630D01*
X54999500Y-51881902D01*
X54999500Y-52118097D01*
X55036446Y-52351368D01*
X55109433Y-52575996D01*
X55146973Y-52649671D01*
X55216657Y-52786433D01*
X55304701Y-52907615D01*
X55328181Y-52973420D01*
X55312356Y-53041474D01*
X55262250Y-53090169D01*
X55204383Y-53104500D01*
X54757610Y-53104500D01*
X54690571Y-53084815D01*
X54669929Y-53068181D01*
X54382434Y-52780686D01*
X54348949Y-52719363D01*
X54353933Y-52649671D01*
X54359631Y-52636709D01*
X54390565Y-52575998D01*
X54390566Y-52575996D01*
X54390568Y-52575992D01*
X54463553Y-52351368D01*
X54463588Y-52351146D01*
X54500500Y-52118097D01*
X54500500Y-51881902D01*
X54463553Y-51648631D01*
X54410093Y-51484099D01*
X54390568Y-51424008D01*
X54390566Y-51424005D01*
X54390566Y-51424003D01*
X54334002Y-51312991D01*
X54283343Y-51213567D01*
X54144517Y-51022490D01*
X53977510Y-50855483D01*
X53786433Y-50716657D01*
X53575996Y-50609433D01*
X53351368Y-50536446D01*
X53118097Y-50499500D01*
X53118092Y-50499500D01*
X52881908Y-50499500D01*
X52881903Y-50499500D01*
X52648631Y-50536446D01*
X52424003Y-50609433D01*
X52213566Y-50716657D01*
X52104550Y-50795862D01*
X52022490Y-50855483D01*
X52022488Y-50855485D01*
X52022487Y-50855485D01*
X51855485Y-51022487D01*
X51855485Y-51022488D01*
X51855483Y-51022490D01*
X51824456Y-51065195D01*
X51716657Y-51213566D01*
X51609433Y-51424003D01*
X51536446Y-51648631D01*
X51499500Y-51881902D01*
X51499500Y-52118097D01*
X51536446Y-52351368D01*
X51609433Y-52575996D01*
X51646973Y-52649671D01*
X51716657Y-52786433D01*
X51855483Y-52977510D01*
X52022490Y-53144517D01*
X52213567Y-53283343D01*
X52283018Y-53318730D01*
X52424003Y-53390566D01*
X52424005Y-53390566D01*
X52424008Y-53390568D01*
X52503911Y-53416530D01*
X52648631Y-53463553D01*
X52881903Y-53500500D01*
X52881908Y-53500500D01*
X53118097Y-53500500D01*
X53351368Y-53463553D01*
X53575992Y-53390568D01*
X53636709Y-53359630D01*
X53705378Y-53346734D01*
X53770119Y-53373010D01*
X53780686Y-53382434D01*
X54268737Y-53870485D01*
X54365763Y-53926503D01*
X54473982Y-53955500D01*
X54473984Y-53955500D01*
X57248516Y-53955500D01*
X57248518Y-53955500D01*
X57356737Y-53926503D01*
X57453763Y-53870485D01*
X58649800Y-52674447D01*
X58711121Y-52640964D01*
X58780813Y-52645948D01*
X58836746Y-52687820D01*
X58860699Y-52748246D01*
X58882830Y-52944662D01*
X58882831Y-52944671D01*
X58882832Y-52944675D01*
X58899393Y-53017233D01*
X58949076Y-53234912D01*
X58949079Y-53234920D01*
X59047400Y-53515904D01*
X59176563Y-53784114D01*
X59176565Y-53784117D01*
X59334950Y-54036185D01*
X59520562Y-54268934D01*
X59731066Y-54479438D01*
X59963815Y-54665050D01*
X60215883Y-54823435D01*
X60484099Y-54952601D01*
X60695135Y-55026445D01*
X60765079Y-55050920D01*
X60765087Y-55050923D01*
X60765090Y-55050923D01*
X60765091Y-55050924D01*
X61055325Y-55117168D01*
X61351147Y-55150499D01*
X61351148Y-55150500D01*
X61351151Y-55150500D01*
X61648852Y-55150500D01*
X61648852Y-55150499D01*
X61944675Y-55117168D01*
X62234909Y-55050924D01*
X62515901Y-54952601D01*
X62784117Y-54823435D01*
X63036185Y-54665050D01*
X63268934Y-54479438D01*
X63479438Y-54268934D01*
X63665050Y-54036185D01*
X63823435Y-53784117D01*
X63952601Y-53515901D01*
X64050924Y-53234909D01*
X64117168Y-52944675D01*
X64150500Y-52648849D01*
X64150500Y-52351151D01*
X64117168Y-52055325D01*
X64050924Y-51765091D01*
X63952601Y-51484099D01*
X63823435Y-51215883D01*
X63665050Y-50963815D01*
X63479438Y-50731066D01*
X63268934Y-50520562D01*
X63242524Y-50499501D01*
X63101156Y-50386763D01*
X63036185Y-50334950D01*
X62784117Y-50176565D01*
X62784114Y-50176563D01*
X62515904Y-50047400D01*
X62234920Y-49949079D01*
X62234912Y-49949076D01*
X62017233Y-49899393D01*
X61944675Y-49882832D01*
X61944671Y-49882831D01*
X61944662Y-49882830D01*
X61648853Y-49849500D01*
X61648849Y-49849500D01*
X61351151Y-49849500D01*
X61351146Y-49849500D01*
X61055337Y-49882830D01*
X61055325Y-49882832D01*
X60765087Y-49949076D01*
X60765079Y-49949079D01*
X60484095Y-50047400D01*
X60215885Y-50176563D01*
X59963816Y-50334949D01*
X59731066Y-50520561D01*
X59520561Y-50731066D01*
X59334949Y-50963816D01*
X59192294Y-51190850D01*
X59139959Y-51237141D01*
X59070906Y-51247789D01*
X59007057Y-51219414D01*
X58968685Y-51161024D01*
X58963300Y-51124878D01*
X58963300Y-47494110D01*
X58982985Y-47427071D01*
X58999619Y-47406429D01*
X59480033Y-46926015D01*
X60344285Y-46061763D01*
X60400303Y-45964737D01*
X60429300Y-45856518D01*
X60429300Y-45744482D01*
X60429300Y-38611882D01*
X60400303Y-38503663D01*
X60344285Y-38406637D01*
X60265063Y-38327415D01*
X60265062Y-38327414D01*
X60260732Y-38323084D01*
X60260721Y-38323074D01*
X54026883Y-32089235D01*
X53942779Y-32005131D01*
X58849500Y-32005131D01*
X58849500Y-34594856D01*
X58849502Y-34594882D01*
X58852413Y-34619987D01*
X58852415Y-34619991D01*
X58897793Y-34722764D01*
X58897794Y-34722765D01*
X58977235Y-34802206D01*
X59080009Y-34847585D01*
X59105135Y-34850500D01*
X61694864Y-34850499D01*
X61694879Y-34850497D01*
X61694882Y-34850497D01*
X61719987Y-34847586D01*
X61719988Y-34847585D01*
X61719991Y-34847585D01*
X61822765Y-34802206D01*
X61902206Y-34722765D01*
X61947585Y-34619991D01*
X61950500Y-34594865D01*
X61950499Y-32005136D01*
X61950261Y-32003080D01*
X61947586Y-31980012D01*
X61947585Y-31980010D01*
X61947585Y-31980009D01*
X61902206Y-31877235D01*
X61822765Y-31797794D01*
X61820111Y-31796622D01*
X61719992Y-31752415D01*
X61694865Y-31749500D01*
X59105143Y-31749500D01*
X59105117Y-31749502D01*
X59080012Y-31752413D01*
X59080008Y-31752415D01*
X58977235Y-31797793D01*
X58897794Y-31877234D01*
X58852415Y-31980006D01*
X58852415Y-31980008D01*
X58849500Y-32005131D01*
X53942779Y-32005131D01*
X51479629Y-29541981D01*
X51446144Y-29480658D01*
X51451128Y-29410966D01*
X51493000Y-29355033D01*
X51558464Y-29330616D01*
X51567310Y-29330300D01*
X59106116Y-29330300D01*
X59106118Y-29330300D01*
X59214337Y-29301303D01*
X59311363Y-29245285D01*
X60341685Y-28214963D01*
X60397703Y-28117937D01*
X60426700Y-28009718D01*
X60426700Y-27897681D01*
X60426700Y-26608882D01*
X60397703Y-26500663D01*
X60341685Y-26403637D01*
X60262463Y-26324415D01*
X58271563Y-24333515D01*
X58174537Y-24277497D01*
X58066318Y-24248500D01*
X58066317Y-24248500D01*
X55675910Y-24248500D01*
X55608871Y-24228815D01*
X55563116Y-24176011D01*
X55553172Y-24106853D01*
X55582197Y-24043297D01*
X55588229Y-24036819D01*
X55886656Y-23738392D01*
X56797443Y-22827603D01*
X56858764Y-22794120D01*
X56928455Y-22799104D01*
X56984389Y-22840975D01*
X56995607Y-22858991D01*
X57073896Y-23012643D01*
X57217339Y-23210076D01*
X57217343Y-23210081D01*
X57389918Y-23382656D01*
X57389923Y-23382660D01*
X57531445Y-23485481D01*
X57587361Y-23526106D01*
X57804815Y-23636904D01*
X58036924Y-23712321D01*
X58277973Y-23750500D01*
X58277974Y-23750500D01*
X58522026Y-23750500D01*
X58522027Y-23750500D01*
X58763076Y-23712321D01*
X58995185Y-23636904D01*
X59212639Y-23526106D01*
X59410083Y-23382655D01*
X59582655Y-23210083D01*
X59726106Y-23012639D01*
X59836904Y-22795185D01*
X59912321Y-22563076D01*
X59950500Y-22322027D01*
X59950500Y-22077973D01*
X59912321Y-21836924D01*
X59836904Y-21604815D01*
X59726106Y-21387361D01*
X59642328Y-21272050D01*
X59582660Y-21189923D01*
X59582656Y-21189918D01*
X59410081Y-21017343D01*
X59410076Y-21017339D01*
X59212642Y-20873896D01*
X59212641Y-20873895D01*
X59212639Y-20873894D01*
X59144730Y-20839293D01*
X58995189Y-20763097D01*
X58911181Y-20735801D01*
X58853506Y-20696362D01*
X58826308Y-20632004D01*
X58825500Y-20617870D01*
X58825500Y-20567284D01*
X58825500Y-20567282D01*
X58796503Y-20459063D01*
X58740485Y-20362037D01*
X58661263Y-20282815D01*
X53283579Y-14905131D01*
X58849500Y-14905131D01*
X58849500Y-17494856D01*
X58849502Y-17494882D01*
X58852413Y-17519987D01*
X58852415Y-17519991D01*
X58897793Y-17622764D01*
X58897794Y-17622765D01*
X58977235Y-17702206D01*
X59080009Y-17747585D01*
X59105135Y-17750500D01*
X61694864Y-17750499D01*
X61694879Y-17750497D01*
X61694882Y-17750497D01*
X61719987Y-17747586D01*
X61719988Y-17747585D01*
X61719991Y-17747585D01*
X61822765Y-17702206D01*
X61902206Y-17622765D01*
X61947585Y-17519991D01*
X61950500Y-17494865D01*
X61950499Y-14905136D01*
X61950058Y-14901331D01*
X61947586Y-14880012D01*
X61947585Y-14880010D01*
X61947585Y-14880009D01*
X61902206Y-14777235D01*
X61822765Y-14697794D01*
X61822763Y-14697793D01*
X61719992Y-14652415D01*
X61694865Y-14649500D01*
X59105143Y-14649500D01*
X59105117Y-14649502D01*
X59080012Y-14652413D01*
X59080008Y-14652415D01*
X58977235Y-14697793D01*
X58897794Y-14777234D01*
X58852415Y-14880006D01*
X58852415Y-14880008D01*
X58849500Y-14905131D01*
X53283579Y-14905131D01*
X53024319Y-14645871D01*
X52990834Y-14584548D01*
X52988000Y-14558190D01*
X52988000Y-14311918D01*
X53007685Y-14244879D01*
X53024314Y-14224241D01*
X53106614Y-14141942D01*
X53183275Y-14027211D01*
X53184601Y-14024011D01*
X53215885Y-13948484D01*
X53236080Y-13899728D01*
X53253893Y-13810178D01*
X53263000Y-13764395D01*
X53263000Y-13626404D01*
X53236081Y-13491077D01*
X53236080Y-13491076D01*
X53236080Y-13491072D01*
X53234755Y-13487872D01*
X53183278Y-13363595D01*
X53183271Y-13363582D01*
X53106614Y-13248858D01*
X53106611Y-13248854D01*
X53009045Y-13151288D01*
X53009041Y-13151285D01*
X52894317Y-13074628D01*
X52894304Y-13074621D01*
X52766832Y-13021821D01*
X52766822Y-13021818D01*
X52631495Y-12994900D01*
X52631493Y-12994900D01*
X52493507Y-12994900D01*
X52493505Y-12994900D01*
X52358177Y-13021818D01*
X52358167Y-13021821D01*
X52230695Y-13074621D01*
X52230682Y-13074628D01*
X52115958Y-13151285D01*
X52115954Y-13151288D01*
X52018388Y-13248854D01*
X52018385Y-13248858D01*
X51941728Y-13363582D01*
X51941721Y-13363595D01*
X51888921Y-13491067D01*
X51888918Y-13491077D01*
X51862000Y-13626404D01*
X51862000Y-13626407D01*
X51862000Y-13764393D01*
X51862000Y-13764395D01*
X51861999Y-13764395D01*
X51888918Y-13899722D01*
X51888921Y-13899732D01*
X51941721Y-14027204D01*
X51941728Y-14027217D01*
X52018384Y-14141940D01*
X52018385Y-14141941D01*
X52018386Y-14141942D01*
X52100682Y-14224238D01*
X52134166Y-14285559D01*
X52137000Y-14311918D01*
X52137000Y-14729782D01*
X52137000Y-14841818D01*
X52165997Y-14950037D01*
X52222015Y-15047063D01*
X52222017Y-15047065D01*
X57772393Y-20597441D01*
X57805878Y-20658764D01*
X57800894Y-20728456D01*
X57759022Y-20784389D01*
X57741007Y-20795607D01*
X57587357Y-20873896D01*
X57389923Y-21017339D01*
X57389918Y-21017343D01*
X57217343Y-21189918D01*
X57217339Y-21189923D01*
X57073896Y-21387357D01*
X56963097Y-21604812D01*
X56935802Y-21688818D01*
X56896364Y-21746494D01*
X56832006Y-21773692D01*
X56817871Y-21774500D01*
X56767281Y-21774500D01*
X56659063Y-21803497D01*
X56659061Y-21803498D01*
X56659060Y-21803498D01*
X56562040Y-21859513D01*
X56562034Y-21859517D01*
X54936071Y-23485481D01*
X54874748Y-23518966D01*
X54848390Y-23521800D01*
X47370300Y-23521800D01*
X47303261Y-23502115D01*
X47257506Y-23449311D01*
X47247562Y-23380153D01*
X47276587Y-23316597D01*
X47282619Y-23310119D01*
X47312619Y-23280119D01*
X47382655Y-23210083D01*
X47526106Y-23012639D01*
X47636904Y-22795185D01*
X47712321Y-22563076D01*
X47750500Y-22322027D01*
X47750500Y-22077973D01*
X47712321Y-21836924D01*
X47636904Y-21604815D01*
X47526106Y-21387361D01*
X47442328Y-21272050D01*
X47382660Y-21189923D01*
X47382656Y-21189918D01*
X47210081Y-21017343D01*
X47210076Y-21017339D01*
X47012642Y-20873896D01*
X47012641Y-20873895D01*
X47012639Y-20873894D01*
X46795185Y-20763096D01*
X46563076Y-20687679D01*
X46563074Y-20687678D01*
X46563072Y-20687678D01*
X46394769Y-20661021D01*
X46322027Y-20649500D01*
X46077973Y-20649500D01*
X46050995Y-20653773D01*
X45836927Y-20687678D01*
X45836926Y-20687678D01*
X45643399Y-20750559D01*
X45573558Y-20752554D01*
X45513725Y-20716474D01*
X45482897Y-20653773D01*
X45490862Y-20584358D01*
X45517397Y-20544950D01*
X46158029Y-19904319D01*
X46219352Y-19870834D01*
X46245710Y-19868000D01*
X49903681Y-19868000D01*
X49970720Y-19887685D01*
X49991362Y-19904319D01*
X50073654Y-19986611D01*
X50073658Y-19986614D01*
X50188382Y-20063271D01*
X50188395Y-20063278D01*
X50284267Y-20102989D01*
X50315872Y-20116080D01*
X50315876Y-20116080D01*
X50315877Y-20116081D01*
X50451204Y-20143000D01*
X50451207Y-20143000D01*
X50589195Y-20143000D01*
X50680241Y-20124889D01*
X50724528Y-20116080D01*
X50823124Y-20075240D01*
X50852004Y-20063278D01*
X50852004Y-20063277D01*
X50852011Y-20063275D01*
X50966742Y-19986614D01*
X51064314Y-19889042D01*
X51140975Y-19774311D01*
X51193780Y-19646828D01*
X51215259Y-19538848D01*
X51220700Y-19511495D01*
X51220700Y-19373504D01*
X51193781Y-19238177D01*
X51193780Y-19238176D01*
X51193780Y-19238172D01*
X51178556Y-19201418D01*
X51140978Y-19110695D01*
X51140971Y-19110682D01*
X51064314Y-18995958D01*
X51064311Y-18995954D01*
X50966745Y-18898388D01*
X50966741Y-18898385D01*
X50852017Y-18821728D01*
X50852004Y-18821721D01*
X50724532Y-18768921D01*
X50724522Y-18768918D01*
X50589195Y-18742000D01*
X50589193Y-18742000D01*
X50451207Y-18742000D01*
X50451205Y-18742000D01*
X50315877Y-18768918D01*
X50315867Y-18768921D01*
X50188395Y-18821721D01*
X50188382Y-18821728D01*
X50073658Y-18898385D01*
X50073654Y-18898388D01*
X49991362Y-18980681D01*
X49930039Y-19014166D01*
X49903681Y-19017000D01*
X46446610Y-19017000D01*
X46379571Y-18997315D01*
X46333816Y-18944511D01*
X46323872Y-18875353D01*
X46352897Y-18811797D01*
X46358929Y-18805319D01*
X50735228Y-14429019D01*
X50796551Y-14395534D01*
X50822909Y-14392700D01*
X50939295Y-14392700D01*
X51030341Y-14374589D01*
X51074628Y-14365780D01*
X51202111Y-14312975D01*
X51316842Y-14236314D01*
X51414414Y-14138742D01*
X51491075Y-14024011D01*
X51543880Y-13896528D01*
X51555072Y-13840263D01*
X51570800Y-13761195D01*
X51570800Y-13623204D01*
X51543881Y-13487877D01*
X51543880Y-13487876D01*
X51543880Y-13487872D01*
X51515834Y-13420162D01*
X51491078Y-13360395D01*
X51491071Y-13360382D01*
X51414414Y-13245658D01*
X51414411Y-13245654D01*
X51316845Y-13148088D01*
X51316841Y-13148085D01*
X51202117Y-13071428D01*
X51202104Y-13071421D01*
X51074632Y-13018621D01*
X51074622Y-13018618D01*
X50939295Y-12991700D01*
X50939293Y-12991700D01*
X50801307Y-12991700D01*
X50801305Y-12991700D01*
X50665977Y-13018618D01*
X50665967Y-13018621D01*
X50538495Y-13071421D01*
X50538482Y-13071428D01*
X50423758Y-13148085D01*
X50423753Y-13148089D01*
X50406171Y-13165671D01*
X50344847Y-13199155D01*
X50275156Y-13194169D01*
X50219223Y-13152296D01*
X50196875Y-13102180D01*
X50173581Y-12985077D01*
X50173580Y-12985076D01*
X50173580Y-12985072D01*
X50157140Y-12945382D01*
X50120778Y-12857595D01*
X50120771Y-12857582D01*
X50044114Y-12742858D01*
X50044111Y-12742854D01*
X49946545Y-12645288D01*
X49946541Y-12645285D01*
X49831817Y-12568628D01*
X49831804Y-12568621D01*
X49704332Y-12515821D01*
X49704322Y-12515818D01*
X49568995Y-12488900D01*
X49568993Y-12488900D01*
X49431007Y-12488900D01*
X49431005Y-12488900D01*
X49295677Y-12515818D01*
X49295667Y-12515821D01*
X49168195Y-12568621D01*
X49168182Y-12568628D01*
X49053458Y-12645285D01*
X49053454Y-12645288D01*
X48971162Y-12727581D01*
X48909839Y-12761066D01*
X48883481Y-12763900D01*
X25126200Y-12763900D01*
X25059161Y-12744215D01*
X25013406Y-12691411D01*
X25002200Y-12639900D01*
X25002200Y-10143984D01*
X25002200Y-10143982D01*
X24973203Y-10035763D01*
X24917185Y-9938737D01*
X24837963Y-9859515D01*
X24740937Y-9803497D01*
X24632718Y-9774500D01*
X24632717Y-9774500D01*
X24582129Y-9774500D01*
X24515090Y-9754815D01*
X24469335Y-9702011D01*
X24464198Y-9688818D01*
X24436904Y-9604815D01*
X24326106Y-9387361D01*
X24226773Y-9250640D01*
X24182660Y-9189923D01*
X24182656Y-9189918D01*
X24010081Y-9017343D01*
X24010076Y-9017339D01*
X23812642Y-8873896D01*
X23812641Y-8873895D01*
X23812639Y-8873894D01*
X23595185Y-8763096D01*
X23363076Y-8687679D01*
X23363074Y-8687678D01*
X23363072Y-8687678D01*
X23194769Y-8661021D01*
X23122027Y-8649500D01*
X22877973Y-8649500D01*
X22822093Y-8658350D01*
X22636927Y-8687678D01*
X22404812Y-8763097D01*
X22187357Y-8873896D01*
X21989923Y-9017339D01*
X21989918Y-9017343D01*
X21817343Y-9189918D01*
X21817339Y-9189923D01*
X21673896Y-9387357D01*
X21563097Y-9604812D01*
X21487678Y-9836927D01*
X21449500Y-10077973D01*
X21449500Y-10322027D01*
X21487679Y-10563076D01*
X21563096Y-10795185D01*
X21643497Y-10952982D01*
X21673896Y-11012642D01*
X21817339Y-11210076D01*
X21817343Y-11210081D01*
X21989918Y-11382656D01*
X21989923Y-11382660D01*
X22104114Y-11465624D01*
X22187361Y-11526106D01*
X22404815Y-11636904D01*
X22636924Y-11712321D01*
X22877973Y-11750500D01*
X22877974Y-11750500D01*
X23122026Y-11750500D01*
X23122027Y-11750500D01*
X23363076Y-11712321D01*
X23595185Y-11636904D01*
X23812639Y-11526106D01*
X23954315Y-11423173D01*
X24020121Y-11399693D01*
X24088175Y-11415518D01*
X24136870Y-11465624D01*
X24151200Y-11523491D01*
X24151200Y-12639900D01*
X24131515Y-12706939D01*
X24078711Y-12752694D01*
X24027200Y-12763900D01*
X23909082Y-12763900D01*
X23800863Y-12792897D01*
X23800860Y-12792898D01*
X23703840Y-12848913D01*
X23703834Y-12848917D01*
X22725070Y-13827681D01*
X22663747Y-13861166D01*
X22637389Y-13864000D01*
X22521005Y-13864000D01*
X22385677Y-13890918D01*
X22385667Y-13890921D01*
X22258195Y-13943721D01*
X22258182Y-13943728D01*
X22143458Y-14020385D01*
X22143454Y-14020388D01*
X22045888Y-14117954D01*
X22045885Y-14117958D01*
X21969228Y-14232682D01*
X21969221Y-14232695D01*
X21916421Y-14360167D01*
X21916418Y-14360177D01*
X21889500Y-14495504D01*
X21889500Y-14495507D01*
X21889500Y-14633493D01*
X21889500Y-14633495D01*
X21889499Y-14633495D01*
X21916418Y-14768822D01*
X21916421Y-14768832D01*
X21969221Y-14896304D01*
X21969228Y-14896317D01*
X22045885Y-15011041D01*
X22045888Y-15011045D01*
X22143454Y-15108611D01*
X22143458Y-15108614D01*
X22258182Y-15185271D01*
X22258195Y-15185278D01*
X22385667Y-15238078D01*
X22385672Y-15238080D01*
X22385676Y-15238080D01*
X22385677Y-15238081D01*
X22521004Y-15265000D01*
X22544389Y-15265000D01*
X22611428Y-15284685D01*
X22657183Y-15337489D01*
X22667127Y-15406647D01*
X22638102Y-15470203D01*
X22632070Y-15476681D01*
X19586984Y-18521766D01*
X19525661Y-18555251D01*
X19455969Y-18550267D01*
X19400036Y-18508395D01*
X19396201Y-18502976D01*
X19348614Y-18431758D01*
X19348611Y-18431754D01*
X19266319Y-18349462D01*
X19232834Y-18288139D01*
X19230000Y-18261781D01*
X19230000Y-13948484D01*
X19230000Y-13948482D01*
X19201003Y-13840263D01*
X19144985Y-13743237D01*
X19065763Y-13664015D01*
X12670893Y-7269145D01*
X12637408Y-7207822D01*
X12642392Y-7138130D01*
X12684264Y-7082197D01*
X12749728Y-7057780D01*
X12777972Y-7058991D01*
X12973754Y-7090000D01*
X13186246Y-7090000D01*
X13396127Y-7056757D01*
X13396130Y-7056757D01*
X13598217Y-6991095D01*
X13787556Y-6894620D01*
X13787563Y-6894617D01*
X13800761Y-6885026D01*
X13800762Y-6885025D01*
X13153642Y-6237905D01*
X13272993Y-6205925D01*
X13387007Y-6140099D01*
X13480099Y-6047007D01*
X13545925Y-5932993D01*
X13577905Y-5813642D01*
X14225025Y-6460762D01*
X14225026Y-6460761D01*
X14234617Y-6447563D01*
X14234620Y-6447556D01*
X14331095Y-6258217D01*
X14340492Y-6229295D01*
X14379928Y-6171618D01*
X14444286Y-6144419D01*
X14513133Y-6156331D01*
X14564610Y-6203574D01*
X14568908Y-6211314D01*
X14636004Y-6342995D01*
X14742441Y-6489494D01*
X14742445Y-6489499D01*
X14870500Y-6617554D01*
X14870505Y-6617558D01*
X14884513Y-6627735D01*
X15017006Y-6723996D01*
X15122484Y-6777740D01*
X15178360Y-6806211D01*
X15178363Y-6806212D01*
X15227260Y-6822099D01*
X15350591Y-6862171D01*
X15433429Y-6875291D01*
X15529449Y-6890500D01*
X15529454Y-6890500D01*
X15710551Y-6890500D01*
X15797259Y-6876765D01*
X15889409Y-6862171D01*
X16061639Y-6806211D01*
X16222994Y-6723996D01*
X16369501Y-6617553D01*
X16497553Y-6489501D01*
X16603996Y-6342994D01*
X16686211Y-6181639D01*
X16742171Y-6009409D01*
X16758106Y-5908797D01*
X16767527Y-5849321D01*
X16797456Y-5786186D01*
X16856768Y-5749255D01*
X16926630Y-5750253D01*
X16984863Y-5788863D01*
X17012473Y-5849321D01*
X17037829Y-6009410D01*
X17093787Y-6181636D01*
X17093788Y-6181639D01*
X17176006Y-6342997D01*
X17282441Y-6489494D01*
X17282445Y-6489499D01*
X17410500Y-6617554D01*
X17410505Y-6617558D01*
X17424513Y-6627735D01*
X17557006Y-6723996D01*
X17662484Y-6777740D01*
X17718360Y-6806211D01*
X17718363Y-6806212D01*
X17767260Y-6822099D01*
X17890591Y-6862171D01*
X17973429Y-6875291D01*
X18069449Y-6890500D01*
X18069454Y-6890500D01*
X18250551Y-6890500D01*
X18337259Y-6876765D01*
X18429409Y-6862171D01*
X18601639Y-6806211D01*
X18762994Y-6723996D01*
X18909501Y-6617553D01*
X19037553Y-6489501D01*
X19143996Y-6342994D01*
X19226211Y-6181639D01*
X19282171Y-6009409D01*
X19298106Y-5908797D01*
X19307527Y-5849321D01*
X19337456Y-5786186D01*
X19396768Y-5749255D01*
X19466630Y-5750253D01*
X19524863Y-5788863D01*
X19552473Y-5849321D01*
X19577829Y-6009410D01*
X19633787Y-6181636D01*
X19633788Y-6181639D01*
X19716006Y-6342997D01*
X19822441Y-6489494D01*
X19822445Y-6489499D01*
X19950500Y-6617554D01*
X19950505Y-6617558D01*
X19964513Y-6627735D01*
X20097006Y-6723996D01*
X20202484Y-6777740D01*
X20258360Y-6806211D01*
X20258363Y-6806212D01*
X20307260Y-6822099D01*
X20430591Y-6862171D01*
X20513429Y-6875291D01*
X20609449Y-6890500D01*
X20609454Y-6890500D01*
X20790551Y-6890500D01*
X20877259Y-6876765D01*
X20969409Y-6862171D01*
X21141639Y-6806211D01*
X21302994Y-6723996D01*
X21449501Y-6617553D01*
X21577553Y-6489501D01*
X21683996Y-6342994D01*
X21751090Y-6211314D01*
X21799065Y-6160519D01*
X21866886Y-6143724D01*
X21933021Y-6166262D01*
X21976472Y-6220977D01*
X21979506Y-6229292D01*
X21988904Y-6258217D01*
X22085375Y-6447550D01*
X22094973Y-6460761D01*
X22742093Y-5813640D01*
X22774075Y-5932993D01*
X22839901Y-6047007D01*
X22932993Y-6140099D01*
X23047007Y-6205925D01*
X23166358Y-6237905D01*
X22519236Y-6885025D01*
X22532440Y-6894618D01*
X22532453Y-6894626D01*
X22721782Y-6991095D01*
X22923870Y-7056757D01*
X23133754Y-7090000D01*
X23346246Y-7090000D01*
X23556127Y-7056757D01*
X23556130Y-7056757D01*
X23758217Y-6991095D01*
X23947556Y-6894620D01*
X23947563Y-6894617D01*
X23960761Y-6885026D01*
X23960762Y-6885025D01*
X23313641Y-6237905D01*
X23432993Y-6205925D01*
X23547007Y-6140099D01*
X23640099Y-6047007D01*
X23705925Y-5932993D01*
X23737905Y-5813642D01*
X24385025Y-6460762D01*
X24385026Y-6460761D01*
X24394617Y-6447563D01*
X24394620Y-6447556D01*
X24491095Y-6258217D01*
X24500492Y-6229295D01*
X24539928Y-6171618D01*
X24604286Y-6144419D01*
X24673133Y-6156331D01*
X24724610Y-6203574D01*
X24728908Y-6211314D01*
X24796004Y-6342995D01*
X24902441Y-6489494D01*
X24902445Y-6489499D01*
X25030500Y-6617554D01*
X25030505Y-6617558D01*
X25044513Y-6627735D01*
X25177006Y-6723996D01*
X25282484Y-6777740D01*
X25338360Y-6806211D01*
X25338363Y-6806212D01*
X25387260Y-6822099D01*
X25510591Y-6862171D01*
X25593429Y-6875291D01*
X25689449Y-6890500D01*
X25689454Y-6890500D01*
X25870551Y-6890500D01*
X25957259Y-6876765D01*
X26049409Y-6862171D01*
X26221639Y-6806211D01*
X26382994Y-6723996D01*
X26529501Y-6617553D01*
X26657553Y-6489501D01*
X26763996Y-6342994D01*
X26846211Y-6181639D01*
X26902171Y-6009409D01*
X26918106Y-5908797D01*
X26927527Y-5849321D01*
X26957456Y-5786186D01*
X27016768Y-5749255D01*
X27086630Y-5750253D01*
X27144863Y-5788863D01*
X27172473Y-5849321D01*
X27197829Y-6009410D01*
X27253787Y-6181636D01*
X27253788Y-6181639D01*
X27336006Y-6342997D01*
X27442441Y-6489494D01*
X27442445Y-6489499D01*
X27570500Y-6617554D01*
X27570505Y-6617558D01*
X27584513Y-6627735D01*
X27717006Y-6723996D01*
X27822484Y-6777740D01*
X27878360Y-6806211D01*
X27878363Y-6806212D01*
X27927260Y-6822099D01*
X28050591Y-6862171D01*
X28133429Y-6875291D01*
X28229449Y-6890500D01*
X28229454Y-6890500D01*
X28410551Y-6890500D01*
X28497259Y-6876765D01*
X28589409Y-6862171D01*
X28761639Y-6806211D01*
X28922994Y-6723996D01*
X29069501Y-6617553D01*
X29197553Y-6489501D01*
X29303996Y-6342994D01*
X29371090Y-6211314D01*
X29419065Y-6160519D01*
X29486886Y-6143724D01*
X29553021Y-6166262D01*
X29596472Y-6220977D01*
X29599506Y-6229292D01*
X29608904Y-6258217D01*
X29705375Y-6447550D01*
X29714973Y-6460761D01*
X30362094Y-5813641D01*
X30394075Y-5932993D01*
X30459901Y-6047007D01*
X30552993Y-6140099D01*
X30667007Y-6205925D01*
X30786358Y-6237905D01*
X30139236Y-6885025D01*
X30152440Y-6894618D01*
X30152453Y-6894626D01*
X30341782Y-6991095D01*
X30543870Y-7056757D01*
X30753754Y-7090000D01*
X30966246Y-7090000D01*
X31176127Y-7056757D01*
X31176130Y-7056757D01*
X31378217Y-6991095D01*
X31567556Y-6894620D01*
X31567563Y-6894617D01*
X31580761Y-6885026D01*
X31580762Y-6885025D01*
X30933641Y-6237905D01*
X31052993Y-6205925D01*
X31167007Y-6140099D01*
X31260099Y-6047007D01*
X31325925Y-5932993D01*
X31357905Y-5813641D01*
X32005025Y-6460762D01*
X32005026Y-6460761D01*
X32014617Y-6447563D01*
X32014620Y-6447556D01*
X32111095Y-6258217D01*
X32120492Y-6229295D01*
X32159928Y-6171618D01*
X32224286Y-6144419D01*
X32293133Y-6156331D01*
X32344610Y-6203574D01*
X32348908Y-6211314D01*
X32416004Y-6342995D01*
X32522441Y-6489494D01*
X32522445Y-6489499D01*
X32650500Y-6617554D01*
X32650505Y-6617558D01*
X32664513Y-6627735D01*
X32797006Y-6723996D01*
X32902484Y-6777740D01*
X32958360Y-6806211D01*
X32958363Y-6806212D01*
X33007260Y-6822099D01*
X33130591Y-6862171D01*
X33213429Y-6875291D01*
X33309449Y-6890500D01*
X33309454Y-6890500D01*
X33490551Y-6890500D01*
X33577259Y-6876765D01*
X33669409Y-6862171D01*
X33841639Y-6806211D01*
X34002994Y-6723996D01*
X34149501Y-6617553D01*
X34277553Y-6489501D01*
X34383996Y-6342994D01*
X34466211Y-6181639D01*
X34522171Y-6009409D01*
X34538106Y-5908797D01*
X34547527Y-5849321D01*
X34577456Y-5786186D01*
X34636768Y-5749255D01*
X34706630Y-5750253D01*
X34764863Y-5788863D01*
X34792473Y-5849321D01*
X34817829Y-6009410D01*
X34873787Y-6181636D01*
X34873788Y-6181639D01*
X34956006Y-6342997D01*
X35062441Y-6489494D01*
X35062445Y-6489499D01*
X35190500Y-6617554D01*
X35190505Y-6617558D01*
X35204513Y-6627735D01*
X35337006Y-6723996D01*
X35498361Y-6806211D01*
X35518709Y-6812822D01*
X35576385Y-6852259D01*
X35603584Y-6916617D01*
X35591671Y-6985464D01*
X35544428Y-7036940D01*
X35532848Y-7042788D01*
X35433040Y-7100413D01*
X35433034Y-7100417D01*
X35353815Y-7179637D01*
X35353813Y-7179639D01*
X34355337Y-8178115D01*
X33344596Y-9188855D01*
X33344595Y-9188855D01*
X33344596Y-9188856D01*
X33282814Y-9250638D01*
X33282813Y-9250640D01*
X33226798Y-9347660D01*
X33226797Y-9347663D01*
X33197800Y-9455882D01*
X33197800Y-10668281D01*
X33178115Y-10735320D01*
X33161481Y-10755962D01*
X33079188Y-10838254D01*
X33079185Y-10838258D01*
X33002528Y-10952982D01*
X33002521Y-10952995D01*
X32949721Y-11080467D01*
X32949718Y-11080477D01*
X32922800Y-11215804D01*
X32922800Y-11215807D01*
X32922800Y-11353793D01*
X32922800Y-11353795D01*
X32922799Y-11353795D01*
X32949718Y-11489122D01*
X32949721Y-11489132D01*
X33002521Y-11616604D01*
X33002528Y-11616617D01*
X33079185Y-11731341D01*
X33079188Y-11731345D01*
X33176754Y-11828911D01*
X33176758Y-11828914D01*
X33291482Y-11905571D01*
X33291495Y-11905578D01*
X33418967Y-11958378D01*
X33418972Y-11958380D01*
X33418976Y-11958380D01*
X33418977Y-11958381D01*
X33554304Y-11985300D01*
X33554307Y-11985300D01*
X33692295Y-11985300D01*
X33783341Y-11967189D01*
X33827628Y-11958380D01*
X33955111Y-11905575D01*
X34069842Y-11828914D01*
X34167414Y-11731342D01*
X34244075Y-11616611D01*
X34244076Y-11616608D01*
X34244078Y-11616605D01*
X34248667Y-11605526D01*
X34292507Y-11551122D01*
X34358801Y-11529057D01*
X34419521Y-11542492D01*
X34604815Y-11636904D01*
X34836924Y-11712321D01*
X35077973Y-11750500D01*
X35077974Y-11750500D01*
X35322026Y-11750500D01*
X35322027Y-11750500D01*
X35563076Y-11712321D01*
X35795185Y-11636904D01*
X36012639Y-11526106D01*
X36210083Y-11382655D01*
X36382655Y-11210083D01*
X36526106Y-11012639D01*
X36636904Y-10795185D01*
X36664198Y-10711181D01*
X36703636Y-10653506D01*
X36767994Y-10626308D01*
X36782129Y-10625500D01*
X36832716Y-10625500D01*
X36832718Y-10625500D01*
X36940937Y-10596503D01*
X37037963Y-10540485D01*
X38493329Y-9085119D01*
X38554652Y-9051634D01*
X38581010Y-9048800D01*
X44876508Y-9048800D01*
X44943547Y-9068485D01*
X44989302Y-9121289D01*
X44999246Y-9190447D01*
X44976826Y-9245685D01*
X44873896Y-9387356D01*
X44763097Y-9604812D01*
X44687678Y-9836927D01*
X44649500Y-10077973D01*
X44649500Y-10322027D01*
X44687679Y-10563076D01*
X44763096Y-10795185D01*
X44843497Y-10952982D01*
X44873896Y-11012642D01*
X45017339Y-11210076D01*
X45017343Y-11210081D01*
X45189918Y-11382656D01*
X45189923Y-11382660D01*
X45304114Y-11465624D01*
X45387361Y-11526106D01*
X45604815Y-11636904D01*
X45836924Y-11712321D01*
X46077973Y-11750500D01*
X46077974Y-11750500D01*
X46322026Y-11750500D01*
X46322027Y-11750500D01*
X46563076Y-11712321D01*
X46795185Y-11636904D01*
X47012639Y-11526106D01*
X47210083Y-11382655D01*
X47382655Y-11210083D01*
X47526106Y-11012639D01*
X47636904Y-10795185D01*
X47712321Y-10563076D01*
X47750500Y-10322027D01*
X47750500Y-10077973D01*
X47712321Y-9836924D01*
X47636904Y-9604815D01*
X47526106Y-9387361D01*
X47526104Y-9387358D01*
X47526103Y-9387356D01*
X47423174Y-9245685D01*
X47399694Y-9179878D01*
X47415520Y-9111825D01*
X47465626Y-9063130D01*
X47523492Y-9048800D01*
X48191173Y-9048800D01*
X48249276Y-9065861D01*
X48250322Y-9063906D01*
X48255693Y-9066777D01*
X48383167Y-9119578D01*
X48383172Y-9119580D01*
X48383176Y-9119580D01*
X48383177Y-9119581D01*
X48518504Y-9146500D01*
X48518507Y-9146500D01*
X48656495Y-9146500D01*
X48783236Y-9121289D01*
X48791828Y-9119580D01*
X48919311Y-9066775D01*
X48919316Y-9066771D01*
X48924678Y-9063906D01*
X48925933Y-9066253D01*
X48981619Y-9048820D01*
X48983827Y-9048800D01*
X55018990Y-9048800D01*
X55086029Y-9068485D01*
X55106671Y-9085119D01*
X56562037Y-10540485D01*
X56659063Y-10596503D01*
X56767282Y-10625500D01*
X56817871Y-10625500D01*
X56884910Y-10645185D01*
X56930665Y-10697989D01*
X56935800Y-10711178D01*
X56963096Y-10795185D01*
X57043497Y-10952982D01*
X57073896Y-11012642D01*
X57217339Y-11210076D01*
X57217343Y-11210081D01*
X57389918Y-11382656D01*
X57389923Y-11382660D01*
X57504114Y-11465624D01*
X57587361Y-11526106D01*
X57804815Y-11636904D01*
X58036924Y-11712321D01*
X58277973Y-11750500D01*
X58277974Y-11750500D01*
X58522026Y-11750500D01*
X58522027Y-11750500D01*
X58763076Y-11712321D01*
X58995185Y-11636904D01*
X59212639Y-11526106D01*
X59410083Y-11382655D01*
X59582655Y-11210083D01*
X59726106Y-11012639D01*
X59836904Y-10795185D01*
X59912321Y-10563076D01*
X59950500Y-10322027D01*
X59950500Y-10077973D01*
X59912321Y-9836924D01*
X59836904Y-9604815D01*
X59726106Y-9387361D01*
X59626773Y-9250640D01*
X59582660Y-9189923D01*
X59582656Y-9189918D01*
X59410081Y-9017343D01*
X59410076Y-9017339D01*
X59212642Y-8873896D01*
X59212641Y-8873895D01*
X59212639Y-8873894D01*
X58995185Y-8763096D01*
X58763076Y-8687679D01*
X58763074Y-8687678D01*
X58763072Y-8687678D01*
X58594769Y-8661021D01*
X58522027Y-8649500D01*
X58277973Y-8649500D01*
X58222093Y-8658350D01*
X58036927Y-8687678D01*
X57804812Y-8763097D01*
X57587357Y-8873896D01*
X57389923Y-9017339D01*
X57389918Y-9017343D01*
X57217343Y-9189918D01*
X57217339Y-9189923D01*
X57073896Y-9387357D01*
X56995607Y-9541007D01*
X56947632Y-9591803D01*
X56879811Y-9608598D01*
X56813676Y-9586060D01*
X56797441Y-9572393D01*
X55507865Y-8282817D01*
X55507863Y-8282815D01*
X55410837Y-8226797D01*
X55302618Y-8197800D01*
X55302617Y-8197800D01*
X49325762Y-8197800D01*
X49258723Y-8178115D01*
X49212968Y-8125311D01*
X49211200Y-8121251D01*
X49208275Y-8114189D01*
X49208271Y-8114182D01*
X49131614Y-7999458D01*
X49131611Y-7999454D01*
X49034045Y-7901888D01*
X49034041Y-7901885D01*
X48919317Y-7825228D01*
X48919304Y-7825221D01*
X48791832Y-7772421D01*
X48791822Y-7772418D01*
X48656495Y-7745500D01*
X48656493Y-7745500D01*
X48518507Y-7745500D01*
X48518505Y-7745500D01*
X48383177Y-7772418D01*
X48383167Y-7772421D01*
X48255695Y-7825221D01*
X48255682Y-7825228D01*
X48140958Y-7901885D01*
X48140954Y-7901888D01*
X48043388Y-7999454D01*
X48043385Y-7999458D01*
X47966728Y-8114182D01*
X47966724Y-8114189D01*
X47963800Y-8121251D01*
X47919959Y-8175655D01*
X47853666Y-8197721D01*
X47849238Y-8197800D01*
X38297382Y-8197800D01*
X38189163Y-8226797D01*
X38189160Y-8226798D01*
X38092140Y-8282813D01*
X38092134Y-8282817D01*
X36802558Y-9572392D01*
X36741235Y-9605877D01*
X36671543Y-9600893D01*
X36615610Y-9559021D01*
X36604392Y-9541006D01*
X36561019Y-9455882D01*
X36526106Y-9387361D01*
X36426773Y-9250640D01*
X36382660Y-9189923D01*
X36382656Y-9189918D01*
X36210081Y-9017343D01*
X36210076Y-9017339D01*
X36012642Y-8873896D01*
X36012641Y-8873895D01*
X36012639Y-8873894D01*
X35795185Y-8763096D01*
X35563076Y-8687679D01*
X35563074Y-8687678D01*
X35563072Y-8687678D01*
X35359887Y-8655496D01*
X35296752Y-8625567D01*
X35259821Y-8566255D01*
X35260819Y-8496392D01*
X35291602Y-8445344D01*
X35834228Y-7902719D01*
X35895551Y-7869234D01*
X35921909Y-7866400D01*
X39375116Y-7866400D01*
X39375118Y-7866400D01*
X39483337Y-7837403D01*
X39580363Y-7781385D01*
X40507404Y-6854342D01*
X40568725Y-6820859D01*
X40633399Y-6824093D01*
X40688294Y-6841929D01*
X40750590Y-6862171D01*
X40929449Y-6890500D01*
X40929454Y-6890500D01*
X41110551Y-6890500D01*
X41197259Y-6876765D01*
X41289409Y-6862171D01*
X41461639Y-6806211D01*
X41622994Y-6723996D01*
X41769501Y-6617553D01*
X41897553Y-6489501D01*
X42003996Y-6342994D01*
X42071090Y-6211314D01*
X42119065Y-6160519D01*
X42186886Y-6143724D01*
X42253021Y-6166262D01*
X42296472Y-6220977D01*
X42299506Y-6229292D01*
X42308904Y-6258217D01*
X42405375Y-6447550D01*
X42414973Y-6460761D01*
X43062094Y-5813641D01*
X43094075Y-5932993D01*
X43159901Y-6047007D01*
X43252993Y-6140099D01*
X43367007Y-6205925D01*
X43486358Y-6237905D01*
X42839236Y-6885025D01*
X42852440Y-6894618D01*
X42852453Y-6894626D01*
X43041782Y-6991095D01*
X43243870Y-7056757D01*
X43453754Y-7090000D01*
X43666246Y-7090000D01*
X43876127Y-7056757D01*
X43876130Y-7056757D01*
X44078217Y-6991095D01*
X44267556Y-6894620D01*
X44267563Y-6894617D01*
X44280761Y-6885026D01*
X44280762Y-6885025D01*
X43633641Y-6237905D01*
X43752993Y-6205925D01*
X43867007Y-6140099D01*
X43960099Y-6047007D01*
X44025925Y-5932993D01*
X44057905Y-5813641D01*
X44705025Y-6460762D01*
X44705026Y-6460761D01*
X44714617Y-6447563D01*
X44714620Y-6447556D01*
X44811095Y-6258217D01*
X44820492Y-6229295D01*
X44859928Y-6171618D01*
X44924286Y-6144419D01*
X44993133Y-6156331D01*
X45044610Y-6203574D01*
X45048908Y-6211314D01*
X45116004Y-6342995D01*
X45222441Y-6489494D01*
X45222445Y-6489499D01*
X45350500Y-6617554D01*
X45350505Y-6617558D01*
X45364513Y-6627735D01*
X45497006Y-6723996D01*
X45602484Y-6777740D01*
X45658360Y-6806211D01*
X45658363Y-6806212D01*
X45707260Y-6822099D01*
X45830591Y-6862171D01*
X45913429Y-6875291D01*
X46009449Y-6890500D01*
X46009454Y-6890500D01*
X46190551Y-6890500D01*
X46277259Y-6876765D01*
X46369409Y-6862171D01*
X46541639Y-6806211D01*
X46702994Y-6723996D01*
X46849501Y-6617553D01*
X46977553Y-6489501D01*
X47083996Y-6342994D01*
X47151090Y-6211314D01*
X47199065Y-6160519D01*
X47266886Y-6143724D01*
X47333021Y-6166262D01*
X47376472Y-6220977D01*
X47379506Y-6229292D01*
X47388904Y-6258217D01*
X47485375Y-6447550D01*
X47494973Y-6460761D01*
X48142094Y-5813641D01*
X48174075Y-5932993D01*
X48239901Y-6047007D01*
X48332993Y-6140099D01*
X48447007Y-6205925D01*
X48566358Y-6237905D01*
X47919236Y-6885025D01*
X47932440Y-6894618D01*
X47932453Y-6894626D01*
X48121782Y-6991095D01*
X48323870Y-7056757D01*
X48533754Y-7090000D01*
X48746246Y-7090000D01*
X48956127Y-7056757D01*
X48956130Y-7056757D01*
X49158217Y-6991095D01*
X49347556Y-6894620D01*
X49347563Y-6894617D01*
X49360761Y-6885026D01*
X49360762Y-6885025D01*
X48713641Y-6237905D01*
X48832993Y-6205925D01*
X48947007Y-6140099D01*
X49040099Y-6047007D01*
X49105925Y-5932993D01*
X49137905Y-5813641D01*
X49785025Y-6460762D01*
X49785026Y-6460761D01*
X49794617Y-6447563D01*
X49794620Y-6447556D01*
X49891095Y-6258217D01*
X49900492Y-6229295D01*
X49939928Y-6171618D01*
X50004286Y-6144419D01*
X50073133Y-6156331D01*
X50124610Y-6203574D01*
X50128908Y-6211314D01*
X50196004Y-6342995D01*
X50302441Y-6489494D01*
X50302445Y-6489499D01*
X50430500Y-6617554D01*
X50430505Y-6617558D01*
X50444513Y-6627735D01*
X50577006Y-6723996D01*
X50682484Y-6777740D01*
X50738360Y-6806211D01*
X50738363Y-6806212D01*
X50787260Y-6822099D01*
X50910591Y-6862171D01*
X50993429Y-6875291D01*
X51089449Y-6890500D01*
X51089454Y-6890500D01*
X51270551Y-6890500D01*
X51357259Y-6876765D01*
X51449409Y-6862171D01*
X51621639Y-6806211D01*
X51782994Y-6723996D01*
X51929501Y-6617553D01*
X52057553Y-6489501D01*
X52163996Y-6342994D01*
X52246211Y-6181639D01*
X52302171Y-6009409D01*
X52318106Y-5908797D01*
X52327527Y-5849321D01*
X52357456Y-5786186D01*
X52416768Y-5749255D01*
X52486630Y-5750253D01*
X52544863Y-5788863D01*
X52572473Y-5849321D01*
X52597829Y-6009410D01*
X52653787Y-6181636D01*
X52653788Y-6181639D01*
X52736006Y-6342997D01*
X52842441Y-6489494D01*
X52842445Y-6489499D01*
X52970500Y-6617554D01*
X52970505Y-6617558D01*
X52984513Y-6627735D01*
X53117006Y-6723996D01*
X53222484Y-6777740D01*
X53278360Y-6806211D01*
X53278363Y-6806212D01*
X53327260Y-6822099D01*
X53450591Y-6862171D01*
X53533429Y-6875291D01*
X53629449Y-6890500D01*
X53629454Y-6890500D01*
X53810551Y-6890500D01*
X53897259Y-6876765D01*
X53989409Y-6862171D01*
X54161639Y-6806211D01*
X54322994Y-6723996D01*
X54469501Y-6617553D01*
X54597553Y-6489501D01*
X54703996Y-6342994D01*
X54786211Y-6181639D01*
X54842171Y-6009409D01*
X54858106Y-5908797D01*
X54867527Y-5849321D01*
X54897456Y-5786186D01*
X54956768Y-5749255D01*
X55026630Y-5750253D01*
X55084863Y-5788863D01*
X55112473Y-5849321D01*
X55137829Y-6009410D01*
X55193787Y-6181636D01*
X55193788Y-6181639D01*
X55276006Y-6342997D01*
X55382441Y-6489494D01*
X55382445Y-6489499D01*
X55510500Y-6617554D01*
X55510505Y-6617558D01*
X55524513Y-6627735D01*
X55657006Y-6723996D01*
X55762484Y-6777740D01*
X55818360Y-6806211D01*
X55818363Y-6806212D01*
X55867260Y-6822099D01*
X55990591Y-6862171D01*
X56073429Y-6875291D01*
X56169449Y-6890500D01*
X56169454Y-6890500D01*
X56350551Y-6890500D01*
X56437259Y-6876765D01*
X56529409Y-6862171D01*
X56701639Y-6806211D01*
X56862994Y-6723996D01*
X57009501Y-6617553D01*
X57137553Y-6489501D01*
X57243996Y-6342994D01*
X57326211Y-6181639D01*
X57382171Y-6009409D01*
X57398106Y-5908797D01*
X57410500Y-5830551D01*
X57410500Y-5649448D01*
X57383572Y-5479438D01*
X57382171Y-5470591D01*
X57338530Y-5336275D01*
X57326212Y-5298363D01*
X57326211Y-5298360D01*
X57287191Y-5221780D01*
X57243996Y-5137006D01*
X57230396Y-5118287D01*
X57137558Y-4990505D01*
X57137554Y-4990500D01*
X57009499Y-4862445D01*
X57009494Y-4862441D01*
X56862995Y-4756004D01*
X56731314Y-4688908D01*
X56680519Y-4640934D01*
X56663724Y-4573113D01*
X56686262Y-4506978D01*
X56740977Y-4463527D01*
X56749295Y-4460492D01*
X56778217Y-4451095D01*
X56967556Y-4354620D01*
X56967563Y-4354617D01*
X56980761Y-4345026D01*
X56980762Y-4345025D01*
X56333641Y-3697905D01*
X56452993Y-3665925D01*
X56567007Y-3600099D01*
X56660099Y-3507007D01*
X56725925Y-3392993D01*
X56757905Y-3273641D01*
X57405025Y-3920762D01*
X57405026Y-3920761D01*
X57414617Y-3907563D01*
X57414620Y-3907556D01*
X57511095Y-3718217D01*
X57576757Y-3516130D01*
X57576757Y-3516127D01*
X57602888Y-3351146D01*
X58849500Y-3351146D01*
X58849500Y-3648853D01*
X58882830Y-3944662D01*
X58882831Y-3944668D01*
X58882832Y-3944675D01*
X58913161Y-4077553D01*
X58949076Y-4234912D01*
X58949079Y-4234920D01*
X59047400Y-4515904D01*
X59176563Y-4784114D01*
X59187990Y-4802300D01*
X59334950Y-5036185D01*
X59473424Y-5209825D01*
X59520362Y-5268684D01*
X59520562Y-5268934D01*
X59731066Y-5479438D01*
X59963815Y-5665050D01*
X60215883Y-5823435D01*
X60215885Y-5823436D01*
X60269636Y-5849321D01*
X60484099Y-5952601D01*
X60695135Y-6026445D01*
X60765079Y-6050920D01*
X60765087Y-6050923D01*
X60765090Y-6050923D01*
X60765091Y-6050924D01*
X61055325Y-6117168D01*
X61351147Y-6150499D01*
X61351148Y-6150500D01*
X61351151Y-6150500D01*
X61648852Y-6150500D01*
X61648852Y-6150499D01*
X61944675Y-6117168D01*
X62234909Y-6050924D01*
X62515901Y-5952601D01*
X62784117Y-5823435D01*
X63036185Y-5665050D01*
X63268934Y-5479438D01*
X63479438Y-5268934D01*
X63665050Y-5036185D01*
X63823435Y-4784117D01*
X63952601Y-4515901D01*
X64050924Y-4234909D01*
X64117168Y-3944675D01*
X64150500Y-3648849D01*
X64150500Y-3351151D01*
X64117168Y-3055325D01*
X64050924Y-2765091D01*
X64043278Y-2743241D01*
X64021772Y-2681780D01*
X63952601Y-2484099D01*
X63823435Y-2215883D01*
X63665050Y-1963815D01*
X63479438Y-1731066D01*
X63268934Y-1520562D01*
X63036185Y-1334950D01*
X62784117Y-1176565D01*
X62784114Y-1176563D01*
X62515904Y-1047400D01*
X62234920Y-949079D01*
X62234912Y-949076D01*
X62017233Y-899393D01*
X61944675Y-882832D01*
X61944671Y-882831D01*
X61944662Y-882830D01*
X61648853Y-849500D01*
X61648849Y-849500D01*
X61351151Y-849500D01*
X61351146Y-849500D01*
X61055337Y-882830D01*
X61055325Y-882832D01*
X60765087Y-949076D01*
X60765079Y-949079D01*
X60484095Y-1047400D01*
X60215885Y-1176563D01*
X59963816Y-1334949D01*
X59731066Y-1520561D01*
X59520561Y-1731066D01*
X59334949Y-1963816D01*
X59176563Y-2215885D01*
X59047400Y-2484095D01*
X58949079Y-2765079D01*
X58949076Y-2765087D01*
X58882832Y-3055325D01*
X58882830Y-3055337D01*
X58849500Y-3351146D01*
X57602888Y-3351146D01*
X57606511Y-3328274D01*
X57610000Y-3306245D01*
X57610000Y-3093753D01*
X57576757Y-2883872D01*
X57576757Y-2883869D01*
X57511095Y-2681782D01*
X57414626Y-2492453D01*
X57414618Y-2492440D01*
X57405025Y-2479237D01*
X57405025Y-2479236D01*
X56757905Y-3126357D01*
X56725925Y-3007007D01*
X56660099Y-2892993D01*
X56567007Y-2799901D01*
X56452993Y-2734075D01*
X56333642Y-2702094D01*
X56980761Y-2054973D01*
X56967550Y-2045375D01*
X56778217Y-1948904D01*
X56576129Y-1883242D01*
X56366246Y-1850000D01*
X56153754Y-1850000D01*
X55943872Y-1883242D01*
X55943869Y-1883242D01*
X55741782Y-1948904D01*
X55552448Y-2045375D01*
X55539237Y-2054972D01*
X55539237Y-2054973D01*
X56186358Y-2702094D01*
X56067007Y-2734075D01*
X55952993Y-2799901D01*
X55859901Y-2892993D01*
X55794075Y-3007007D01*
X55762094Y-3126358D01*
X55114973Y-2479237D01*
X55114972Y-2479237D01*
X55105375Y-2492448D01*
X55008905Y-2681781D01*
X54999506Y-2710708D01*
X54960068Y-2768383D01*
X54895709Y-2795581D01*
X54826862Y-2783666D01*
X54775387Y-2736421D01*
X54771090Y-2728684D01*
X54741546Y-2670702D01*
X54703996Y-2597006D01*
X54648985Y-2521289D01*
X54597558Y-2450505D01*
X54597554Y-2450500D01*
X54469499Y-2322445D01*
X54469494Y-2322441D01*
X54322995Y-2216004D01*
X54316542Y-2212716D01*
X54316541Y-2212716D01*
X54161639Y-2133788D01*
X54161636Y-2133787D01*
X53989410Y-2077829D01*
X53810551Y-2049500D01*
X53810546Y-2049500D01*
X53629454Y-2049500D01*
X53629449Y-2049500D01*
X53450589Y-2077829D01*
X53278363Y-2133787D01*
X53278360Y-2133788D01*
X53117002Y-2216006D01*
X52970505Y-2322441D01*
X52970500Y-2322445D01*
X52842445Y-2450500D01*
X52842441Y-2450505D01*
X52736006Y-2597002D01*
X52653788Y-2758360D01*
X52653787Y-2758363D01*
X52597829Y-2930589D01*
X52572473Y-3090678D01*
X52542544Y-3153813D01*
X52483232Y-3190744D01*
X52413369Y-3189746D01*
X52355137Y-3151136D01*
X52327527Y-3090678D01*
X52303461Y-2938737D01*
X52302171Y-2930591D01*
X52264095Y-2813402D01*
X52246212Y-2758363D01*
X52246211Y-2758360D01*
X52201546Y-2670702D01*
X52163996Y-2597006D01*
X52108985Y-2521289D01*
X52057558Y-2450505D01*
X52057554Y-2450500D01*
X51929499Y-2322445D01*
X51929494Y-2322441D01*
X51782997Y-2216006D01*
X51782996Y-2216005D01*
X51782994Y-2216004D01*
X51731300Y-2189664D01*
X51621639Y-2133788D01*
X51621636Y-2133787D01*
X51449410Y-2077829D01*
X51270551Y-2049500D01*
X51270546Y-2049500D01*
X51089454Y-2049500D01*
X51089449Y-2049500D01*
X50910589Y-2077829D01*
X50738363Y-2133787D01*
X50738360Y-2133788D01*
X50577002Y-2216006D01*
X50430505Y-2322441D01*
X50430500Y-2322445D01*
X50302445Y-2450500D01*
X50302441Y-2450505D01*
X50196006Y-2597002D01*
X50113788Y-2758360D01*
X50113787Y-2758363D01*
X50057829Y-2930589D01*
X50032473Y-3090678D01*
X50002544Y-3153813D01*
X49943232Y-3190744D01*
X49873369Y-3189746D01*
X49815137Y-3151136D01*
X49787527Y-3090678D01*
X49763461Y-2938737D01*
X49762171Y-2930591D01*
X49724095Y-2813402D01*
X49706212Y-2758363D01*
X49706211Y-2758360D01*
X49661546Y-2670702D01*
X49623996Y-2597006D01*
X49568985Y-2521289D01*
X49517558Y-2450505D01*
X49517554Y-2450500D01*
X49389499Y-2322445D01*
X49389494Y-2322441D01*
X49242997Y-2216006D01*
X49242996Y-2216005D01*
X49242994Y-2216004D01*
X49191300Y-2189664D01*
X49081639Y-2133788D01*
X49081636Y-2133787D01*
X48909410Y-2077829D01*
X48730551Y-2049500D01*
X48730546Y-2049500D01*
X48549454Y-2049500D01*
X48549449Y-2049500D01*
X48370589Y-2077829D01*
X48198363Y-2133787D01*
X48198360Y-2133788D01*
X48037002Y-2216006D01*
X47890505Y-2322441D01*
X47890500Y-2322445D01*
X47762445Y-2450500D01*
X47762441Y-2450505D01*
X47656006Y-2597002D01*
X47573788Y-2758360D01*
X47573787Y-2758363D01*
X47517829Y-2930589D01*
X47492473Y-3090678D01*
X47462544Y-3153813D01*
X47403232Y-3190744D01*
X47333369Y-3189746D01*
X47275137Y-3151136D01*
X47247527Y-3090678D01*
X47223461Y-2938737D01*
X47222171Y-2930591D01*
X47184095Y-2813402D01*
X47166212Y-2758363D01*
X47166211Y-2758360D01*
X47121546Y-2670702D01*
X47083996Y-2597006D01*
X47028985Y-2521289D01*
X46977558Y-2450505D01*
X46977554Y-2450500D01*
X46849499Y-2322445D01*
X46849494Y-2322441D01*
X46702997Y-2216006D01*
X46702996Y-2216005D01*
X46702994Y-2216004D01*
X46651300Y-2189664D01*
X46541639Y-2133788D01*
X46541636Y-2133787D01*
X46369410Y-2077829D01*
X46190551Y-2049500D01*
X46190546Y-2049500D01*
X46009454Y-2049500D01*
X46009449Y-2049500D01*
X45830589Y-2077829D01*
X45658363Y-2133787D01*
X45658360Y-2133788D01*
X45497002Y-2216006D01*
X45350505Y-2322441D01*
X45350500Y-2322445D01*
X45222445Y-2450500D01*
X45222441Y-2450505D01*
X45116006Y-2597002D01*
X45033788Y-2758360D01*
X45033787Y-2758363D01*
X44977829Y-2930589D01*
X44952473Y-3090678D01*
X44922544Y-3153813D01*
X44863232Y-3190744D01*
X44793369Y-3189746D01*
X44735137Y-3151136D01*
X44707527Y-3090678D01*
X44683461Y-2938737D01*
X44682171Y-2930591D01*
X44644095Y-2813402D01*
X44626212Y-2758363D01*
X44626211Y-2758360D01*
X44581546Y-2670702D01*
X44543996Y-2597006D01*
X44488985Y-2521289D01*
X44437558Y-2450505D01*
X44437554Y-2450500D01*
X44309499Y-2322445D01*
X44309494Y-2322441D01*
X44162997Y-2216006D01*
X44162996Y-2216005D01*
X44162994Y-2216004D01*
X44111300Y-2189664D01*
X44001639Y-2133788D01*
X44001636Y-2133787D01*
X43829410Y-2077829D01*
X43650551Y-2049500D01*
X43650546Y-2049500D01*
X43469454Y-2049500D01*
X43469449Y-2049500D01*
X43290589Y-2077829D01*
X43118363Y-2133787D01*
X43118360Y-2133788D01*
X42957002Y-2216006D01*
X42810505Y-2322441D01*
X42810500Y-2322445D01*
X42682445Y-2450500D01*
X42682441Y-2450505D01*
X42576006Y-2597002D01*
X42493788Y-2758360D01*
X42493787Y-2758363D01*
X42437829Y-2930589D01*
X42412473Y-3090678D01*
X42382544Y-3153813D01*
X42323232Y-3190744D01*
X42253369Y-3189746D01*
X42195137Y-3151136D01*
X42167527Y-3090678D01*
X42143461Y-2938737D01*
X42142171Y-2930591D01*
X42104095Y-2813402D01*
X42086212Y-2758363D01*
X42086211Y-2758360D01*
X42041546Y-2670702D01*
X42003996Y-2597006D01*
X41948985Y-2521289D01*
X41897558Y-2450505D01*
X41897554Y-2450500D01*
X41769499Y-2322445D01*
X41769494Y-2322441D01*
X41622997Y-2216006D01*
X41622996Y-2216005D01*
X41622994Y-2216004D01*
X41571300Y-2189664D01*
X41461639Y-2133788D01*
X41461636Y-2133787D01*
X41289410Y-2077829D01*
X41110551Y-2049500D01*
X41110546Y-2049500D01*
X40929454Y-2049500D01*
X40929449Y-2049500D01*
X40750589Y-2077829D01*
X40578363Y-2133787D01*
X40578360Y-2133788D01*
X40417002Y-2216006D01*
X40270505Y-2322441D01*
X40270500Y-2322445D01*
X40142445Y-2450500D01*
X40142441Y-2450505D01*
X40036004Y-2597004D01*
X39968908Y-2728685D01*
X39920933Y-2779480D01*
X39853112Y-2796275D01*
X39786977Y-2773737D01*
X39743527Y-2719021D01*
X39740492Y-2710705D01*
X39731094Y-2681780D01*
X39634626Y-2492453D01*
X39634618Y-2492440D01*
X39625025Y-2479237D01*
X39625025Y-2479236D01*
X38977905Y-3126357D01*
X38945925Y-3007007D01*
X38880099Y-2892993D01*
X38787007Y-2799901D01*
X38672993Y-2734075D01*
X38553642Y-2702094D01*
X39200761Y-2054973D01*
X39187550Y-2045375D01*
X38998217Y-1948904D01*
X38796129Y-1883242D01*
X38586246Y-1850000D01*
X38373754Y-1850000D01*
X38163872Y-1883242D01*
X38163869Y-1883242D01*
X37961782Y-1948904D01*
X37772448Y-2045375D01*
X37759237Y-2054972D01*
X37759237Y-2054973D01*
X38406358Y-2702094D01*
X38287007Y-2734075D01*
X38172993Y-2799901D01*
X38079901Y-2892993D01*
X38014075Y-3007007D01*
X37982094Y-3126358D01*
X37334973Y-2479237D01*
X37334972Y-2479237D01*
X37325375Y-2492448D01*
X37228905Y-2681781D01*
X37219506Y-2710708D01*
X37180068Y-2768383D01*
X37115709Y-2795581D01*
X37046862Y-2783666D01*
X36995387Y-2736421D01*
X36991090Y-2728684D01*
X36961546Y-2670702D01*
X36923996Y-2597006D01*
X36868985Y-2521289D01*
X36817558Y-2450505D01*
X36817554Y-2450500D01*
X36689499Y-2322445D01*
X36689494Y-2322441D01*
X36542995Y-2216004D01*
X36536542Y-2212716D01*
X36536541Y-2212716D01*
X36381639Y-2133788D01*
X36381636Y-2133787D01*
X36209410Y-2077829D01*
X36030551Y-2049500D01*
X36030546Y-2049500D01*
X35849454Y-2049500D01*
X35849449Y-2049500D01*
X35670589Y-2077829D01*
X35498363Y-2133787D01*
X35498360Y-2133788D01*
X35337002Y-2216006D01*
X35190505Y-2322441D01*
X35190500Y-2322445D01*
X35062445Y-2450500D01*
X35062441Y-2450505D01*
X34956006Y-2597002D01*
X34873788Y-2758360D01*
X34873787Y-2758363D01*
X34817829Y-2930589D01*
X34792473Y-3090678D01*
X34762544Y-3153813D01*
X34703232Y-3190744D01*
X34633369Y-3189746D01*
X34575137Y-3151136D01*
X34547527Y-3090678D01*
X34523461Y-2938737D01*
X34522171Y-2930591D01*
X34484095Y-2813402D01*
X34466212Y-2758363D01*
X34466211Y-2758360D01*
X34421546Y-2670702D01*
X34383996Y-2597006D01*
X34328985Y-2521289D01*
X34277558Y-2450505D01*
X34277554Y-2450500D01*
X34149499Y-2322445D01*
X34149494Y-2322441D01*
X34002997Y-2216006D01*
X34002996Y-2216005D01*
X34002994Y-2216004D01*
X33951300Y-2189664D01*
X33841639Y-2133788D01*
X33841636Y-2133787D01*
X33669410Y-2077829D01*
X33490551Y-2049500D01*
X33490546Y-2049500D01*
X33309454Y-2049500D01*
X33309449Y-2049500D01*
X33130589Y-2077829D01*
X32958363Y-2133787D01*
X32958360Y-2133788D01*
X32797002Y-2216006D01*
X32650505Y-2322441D01*
X32650500Y-2322445D01*
X32522445Y-2450500D01*
X32522441Y-2450505D01*
X32416006Y-2597002D01*
X32333788Y-2758360D01*
X32333787Y-2758363D01*
X32277829Y-2930589D01*
X32252473Y-3090678D01*
X32222544Y-3153813D01*
X32163232Y-3190744D01*
X32093369Y-3189746D01*
X32035137Y-3151136D01*
X32007527Y-3090678D01*
X31983461Y-2938737D01*
X31982171Y-2930591D01*
X31944095Y-2813402D01*
X31926212Y-2758363D01*
X31926211Y-2758360D01*
X31881546Y-2670702D01*
X31843996Y-2597006D01*
X31788985Y-2521289D01*
X31737558Y-2450505D01*
X31737554Y-2450500D01*
X31609499Y-2322445D01*
X31609494Y-2322441D01*
X31462997Y-2216006D01*
X31462996Y-2216005D01*
X31462994Y-2216004D01*
X31411300Y-2189664D01*
X31301639Y-2133788D01*
X31301636Y-2133787D01*
X31129410Y-2077829D01*
X30950551Y-2049500D01*
X30950546Y-2049500D01*
X30769454Y-2049500D01*
X30769449Y-2049500D01*
X30590589Y-2077829D01*
X30418363Y-2133787D01*
X30418360Y-2133788D01*
X30257002Y-2216006D01*
X30110505Y-2322441D01*
X30110500Y-2322445D01*
X29982445Y-2450500D01*
X29982441Y-2450505D01*
X29876006Y-2597002D01*
X29793788Y-2758360D01*
X29793787Y-2758363D01*
X29737829Y-2930589D01*
X29712473Y-3090678D01*
X29682544Y-3153813D01*
X29623232Y-3190744D01*
X29553369Y-3189746D01*
X29495137Y-3151136D01*
X29467527Y-3090678D01*
X29443461Y-2938737D01*
X29442171Y-2930591D01*
X29404095Y-2813402D01*
X29386212Y-2758363D01*
X29386211Y-2758360D01*
X29341546Y-2670702D01*
X29303996Y-2597006D01*
X29248985Y-2521289D01*
X29197558Y-2450505D01*
X29197554Y-2450500D01*
X29069499Y-2322445D01*
X29069494Y-2322441D01*
X28922997Y-2216006D01*
X28922996Y-2216005D01*
X28922994Y-2216004D01*
X28871300Y-2189664D01*
X28761639Y-2133788D01*
X28761636Y-2133787D01*
X28589410Y-2077829D01*
X28410551Y-2049500D01*
X28410546Y-2049500D01*
X28229454Y-2049500D01*
X28229449Y-2049500D01*
X28050589Y-2077829D01*
X27878363Y-2133787D01*
X27878360Y-2133788D01*
X27717002Y-2216006D01*
X27570505Y-2322441D01*
X27570500Y-2322445D01*
X27442445Y-2450500D01*
X27442441Y-2450505D01*
X27336006Y-2597002D01*
X27253788Y-2758360D01*
X27253787Y-2758363D01*
X27197829Y-2930589D01*
X27172473Y-3090678D01*
X27142544Y-3153813D01*
X27083232Y-3190744D01*
X27013369Y-3189746D01*
X26955137Y-3151136D01*
X26927527Y-3090678D01*
X26903461Y-2938737D01*
X26902171Y-2930591D01*
X26864095Y-2813402D01*
X26846212Y-2758363D01*
X26846211Y-2758360D01*
X26801546Y-2670702D01*
X26763996Y-2597006D01*
X26708985Y-2521289D01*
X26657558Y-2450505D01*
X26657554Y-2450500D01*
X26529499Y-2322445D01*
X26529494Y-2322441D01*
X26382997Y-2216006D01*
X26382996Y-2216005D01*
X26382994Y-2216004D01*
X26331300Y-2189664D01*
X26221639Y-2133788D01*
X26221636Y-2133787D01*
X26049410Y-2077829D01*
X25870551Y-2049500D01*
X25870546Y-2049500D01*
X25689454Y-2049500D01*
X25689449Y-2049500D01*
X25510589Y-2077829D01*
X25338363Y-2133787D01*
X25338360Y-2133788D01*
X25177002Y-2216006D01*
X25030505Y-2322441D01*
X25030500Y-2322445D01*
X24902445Y-2450500D01*
X24902441Y-2450505D01*
X24796006Y-2597002D01*
X24713788Y-2758360D01*
X24713787Y-2758363D01*
X24657829Y-2930589D01*
X24632473Y-3090678D01*
X24602544Y-3153813D01*
X24543232Y-3190744D01*
X24473369Y-3189746D01*
X24415137Y-3151136D01*
X24387527Y-3090678D01*
X24363461Y-2938737D01*
X24362171Y-2930591D01*
X24324095Y-2813402D01*
X24306212Y-2758363D01*
X24306211Y-2758360D01*
X24261546Y-2670702D01*
X24223996Y-2597006D01*
X24168985Y-2521289D01*
X24117558Y-2450505D01*
X24117554Y-2450500D01*
X23989499Y-2322445D01*
X23989494Y-2322441D01*
X23842997Y-2216006D01*
X23842996Y-2216005D01*
X23842994Y-2216004D01*
X23791300Y-2189664D01*
X23681639Y-2133788D01*
X23681636Y-2133787D01*
X23509410Y-2077829D01*
X23330551Y-2049500D01*
X23330546Y-2049500D01*
X23149454Y-2049500D01*
X23149449Y-2049500D01*
X22970589Y-2077829D01*
X22853402Y-2115905D01*
X22783560Y-2117900D01*
X22727403Y-2085655D01*
X22324565Y-1682817D01*
X22324563Y-1682815D01*
X22227537Y-1626797D01*
X22119318Y-1597800D01*
X6983318Y-1597800D01*
X6871281Y-1597800D01*
X6763063Y-1626797D01*
X6763061Y-1626798D01*
X6763060Y-1626798D01*
X6666040Y-1682813D01*
X6666038Y-1682814D01*
X6593884Y-1754968D01*
X6593883Y-1754967D01*
X6380595Y-1968255D01*
X6380596Y-1968256D01*
X6318814Y-2030038D01*
X6318813Y-2030040D01*
X6262798Y-2127060D01*
X6262797Y-2127063D01*
X6233800Y-2235282D01*
X6233800Y-2557908D01*
X6214115Y-2624947D01*
X6161311Y-2670702D01*
X6092153Y-2680646D01*
X6028597Y-2651621D01*
X5992759Y-2598863D01*
X5955522Y-2492448D01*
X5952601Y-2484099D01*
X5823435Y-2215883D01*
X5665050Y-1963815D01*
X5479438Y-1731066D01*
X5268934Y-1520562D01*
X5036185Y-1334950D01*
X4784117Y-1176565D01*
X4784114Y-1176563D01*
X4515904Y-1047400D01*
X4234920Y-949079D01*
X4234912Y-949076D01*
X4017233Y-899393D01*
X3944675Y-882832D01*
X3944671Y-882831D01*
X3944662Y-882830D01*
X3648853Y-849500D01*
X3648849Y-849500D01*
X3351151Y-849500D01*
X3351146Y-849500D01*
X3055337Y-882830D01*
X3055325Y-882832D01*
X2765087Y-949076D01*
X2765079Y-949079D01*
X2484095Y-1047400D01*
X2215885Y-1176563D01*
X1963816Y-1334949D01*
X1731066Y-1520561D01*
X1520561Y-1731066D01*
X1334949Y-1963816D01*
X1176563Y-2215885D01*
X1047400Y-2484095D01*
X949079Y-2765079D01*
X949076Y-2765087D01*
X882832Y-3055325D01*
X882830Y-3055337D01*
X849500Y-3351146D01*
X400500Y-3351146D01*
X400500Y-524500D01*
X420185Y-457461D01*
X472989Y-411706D01*
X524500Y-400500D01*
X64475500Y-400500D01*
X64542539Y-420185D01*
G37*
%TD.AperFunction*%
%TD*%
M02*
