M48
; DRILL file KiCad 10.0.5 date 2026-07-27T20:12:20
; FORMAT={-:-/ absolute / metric / decimal}
; #@! TF.CreationDate,2026-07-27T20:12:20-04:00
; #@! TF.GenerationSoftware,Kicad,Pcbnew,10.0.5
; #@! TF.FileFunction,Plated,1,2,PTH
FMAT,2
METRIC
; #@! TA.AperFunction,Plated,PTH,ViaDrill
T1C0.400
; #@! TA.AperFunction,Plated,PTH,ComponentDrill
T2C0.710
; #@! TA.AperFunction,Plated,PTH,ComponentDrill
T3C1.000
; #@! TA.AperFunction,Plated,PTH,ComponentDrill
T4C1.010
; #@! TA.AperFunction,Plated,PTH,ComponentDrill
T5C1.200
; #@! TA.AperFunction,Plated,PTH,ComponentDrill
T6C1.300
; #@! TA.AperFunction,Plated,PTH,ComponentDrill
T7C1.600
; #@! TA.AperFunction,Plated,PTH,ComponentDrill
T8C2.700
%
G90
G05
T1
X4.395Y-19.875
X13.895Y-37.813
X18.805Y-18.878
X22.59Y-14.564
X27.923Y-31.329
X33.623Y-11.285
X35.293Y-29.179
X37.609Y-30.603
X38.326Y-35.859
X38.874Y-23.109
X40.822Y-13.973
X41.59Y-28.445
X41.639Y-15.892
X43.0Y-30.553
X44.315Y-24.674
X45.939Y-34.482
X48.587Y-8.446
X49.5Y-13.189
X50.52Y-19.442
X50.669Y-42.638
X50.87Y-13.692
X51.5Y-34.687
X51.95Y-40.407
X52.562Y-13.695
T2
X31.5Y-43.4
X36.6Y-44.6
X42.0Y-43.4
X47.1Y-44.6
X52.5Y-43.4
X57.6Y-44.6
T3
X8.0Y-3.2
X8.0Y-5.74
X10.54Y-3.2
X10.54Y-5.74
X13.08Y-3.2
X13.08Y-5.74
X15.62Y-3.2
X15.62Y-5.74
X15.84Y-43.8
X18.16Y-3.2
X18.16Y-5.74
X18.38Y-43.8
X20.7Y-3.2
X20.7Y-5.74
X20.92Y-43.8
X23.24Y-3.2
X23.24Y-5.74
X23.46Y-43.8
X25.78Y-3.2
X25.78Y-5.74
X26.0Y-43.8
X28.32Y-3.2
X28.32Y-5.74
X30.86Y-3.2
X30.86Y-5.74
X33.4Y-3.2
X33.4Y-5.74
X35.94Y-3.2
X35.94Y-5.74
X38.48Y-3.2
X38.48Y-5.74
X41.02Y-3.2
X41.02Y-5.74
X43.56Y-3.2
X43.56Y-5.74
X46.1Y-3.2
X46.1Y-5.74
X48.64Y-3.2
X48.64Y-5.74
X51.18Y-3.2
X51.18Y-5.74
X53.72Y-3.2
X53.72Y-5.74
X56.26Y-3.2
X56.26Y-5.74
T4
X13.3Y-34.6
X14.5Y-29.5
T5
X4.0Y-22.8
X4.0Y-26.3
X4.0Y-31.1
X4.0Y-34.6
X4.0Y-39.5
X4.0Y-43.0
X4.0Y-46.5
X12.5Y-52.0
X16.0Y-52.0
X24.5Y-52.0
X28.0Y-52.0
X36.5Y-52.0
X40.0Y-52.0
X49.5Y-52.0
X53.0Y-52.0
X56.5Y-52.0
T6
X23.0Y-10.2
X23.0Y-22.2
X23.0Y-27.3
X23.0Y-39.3
X35.2Y-10.2
X35.2Y-22.2
X35.2Y-27.3
X35.2Y-39.3
X37.2Y-16.2
X37.2Y-33.3
X46.2Y-10.2
X46.2Y-22.2
X46.2Y-27.3
X46.2Y-39.3
X58.4Y-10.2
X58.4Y-22.2
X58.4Y-27.3
X58.4Y-39.3
X60.4Y-16.2
X60.4Y-33.3
T7
X8.6Y-14.0
X11.6Y-18.7
X14.6Y-14.0
T8
X3.5Y-3.5
X3.5Y-52.5
X61.5Y-3.5
X61.5Y-52.5
M30
