%TF.GenerationSoftware,KiCad,Pcbnew,10.0.5*%
%TF.CreationDate,2026-07-28T01:16:20-04:00*%
%TF.ProjectId,exopet-hat,65786f70-6574-42d6-9861-742e6b696361,rev?*%
%TF.SameCoordinates,Original*%
%TF.FileFunction,Copper,L2,Bot*%
%TF.FilePolarity,Positive*%
%FSLAX46Y46*%
G04 Gerber Fmt 4.6, Leading zero omitted, Abs format (unit mm)*
G04 Created by KiCad (PCBNEW 10.0.5) date 2026-07-28 01:16:20*
%MOMM*%
%LPD*%
G01*
G04 APERTURE LIST*
G04 Aperture macros list*
%AMRoundRect*
0 Rectangle with rounded corners*
0 $1 Rounding radius*
0 $2 $3 $4 $5 $6 $7 $8 $9 X,Y pos of 4 corners*
0 Add a 4 corners polygon primitive as box body*
4,1,4,$2,$3,$4,$5,$6,$7,$8,$9,$2,$3,0*
0 Add four circle primitives for the rounded corners*
1,1,$1+$1,$2,$3*
1,1,$1+$1,$4,$5*
1,1,$1+$1,$6,$7*
1,1,$1+$1,$8,$9*
0 Add four rect primitives between the rounded corners*
20,1,$1+$1,$2,$3,$4,$5,0*
20,1,$1+$1,$4,$5,$6,$7,0*
20,1,$1+$1,$6,$7,$8,$9,0*
20,1,$1+$1,$8,$9,$2,$3,0*%
%AMFreePoly0*
4,1,23,0.500000,-0.750000,0.000000,-0.750000,0.000000,-0.745722,-0.065263,-0.745722,-0.191342,-0.711940,-0.304381,-0.646677,-0.396677,-0.554381,-0.461940,-0.441342,-0.495722,-0.315263,-0.495722,-0.250000,-0.500000,-0.250000,-0.500000,0.250000,-0.495722,0.250000,-0.495722,0.315263,-0.461940,0.441342,-0.396677,0.554381,-0.304381,0.646677,-0.191342,0.711940,-0.065263,0.745722,0.000000,0.745722,
0.000000,0.750000,0.500000,0.750000,0.500000,-0.750000,0.500000,-0.750000,$1*%
%AMFreePoly1*
4,1,23,0.000000,0.745722,0.065263,0.745722,0.191342,0.711940,0.304381,0.646677,0.396677,0.554381,0.461940,0.441342,0.495722,0.315263,0.495722,0.250000,0.500000,0.250000,0.500000,-0.250000,0.495722,-0.250000,0.495722,-0.315263,0.461940,-0.441342,0.396677,-0.554381,0.304381,-0.646677,0.191342,-0.711940,0.065263,-0.745722,0.000000,-0.745722,0.000000,-0.750000,-0.500000,-0.750000,
-0.500000,0.750000,0.000000,0.750000,0.000000,0.745722,0.000000,0.745722,$1*%
G04 Aperture macros list end*
%TA.AperFunction,ComponentPad*%
%ADD10R,2.600000X2.600000*%
%TD*%
%TA.AperFunction,ComponentPad*%
%ADD11C,2.600000*%
%TD*%
%TA.AperFunction,ComponentPad*%
%ADD12RoundRect,0.250001X-0.949999X-0.949999X0.949999X-0.949999X0.949999X0.949999X-0.949999X0.949999X0*%
%TD*%
%TA.AperFunction,ComponentPad*%
%ADD13C,2.400000*%
%TD*%
%TA.AperFunction,ComponentPad*%
%ADD14RoundRect,0.250001X0.949999X-0.949999X0.949999X0.949999X-0.949999X0.949999X-0.949999X-0.949999X0*%
%TD*%
%TA.AperFunction,ComponentPad*%
%ADD15C,4.700000*%
%TD*%
%TA.AperFunction,ComponentPad*%
%ADD16C,2.010000*%
%TD*%
%TA.AperFunction,ComponentPad*%
%ADD17R,2.500000X2.500000*%
%TD*%
%TA.AperFunction,ComponentPad*%
%ADD18O,2.500000X2.500000*%
%TD*%
%TA.AperFunction,ComponentPad*%
%ADD19C,1.710000*%
%TD*%
%TA.AperFunction,ComponentPad*%
%ADD20R,1.700000X1.700000*%
%TD*%
%TA.AperFunction,ComponentPad*%
%ADD21C,1.700000*%
%TD*%
%TA.AperFunction,SMDPad,CuDef*%
%ADD22RoundRect,0.250000X-0.450000X0.262500X-0.450000X-0.262500X0.450000X-0.262500X0.450000X0.262500X0*%
%TD*%
%TA.AperFunction,SMDPad,CuDef*%
%ADD23RoundRect,0.250000X-0.262500X-0.450000X0.262500X-0.450000X0.262500X0.450000X-0.262500X0.450000X0*%
%TD*%
%TA.AperFunction,SMDPad,CuDef*%
%ADD24RoundRect,0.150000X-0.150000X0.825000X-0.150000X-0.825000X0.150000X-0.825000X0.150000X0.825000X0*%
%TD*%
%TA.AperFunction,SMDPad,CuDef*%
%ADD25FreePoly0,270.000000*%
%TD*%
%TA.AperFunction,SMDPad,CuDef*%
%ADD26FreePoly1,270.000000*%
%TD*%
%TA.AperFunction,SMDPad,CuDef*%
%ADD27RoundRect,0.112500X-0.187500X-0.112500X0.187500X-0.112500X0.187500X0.112500X-0.187500X0.112500X0*%
%TD*%
%TA.AperFunction,SMDPad,CuDef*%
%ADD28RoundRect,0.243750X-0.243750X-0.456250X0.243750X-0.456250X0.243750X0.456250X-0.243750X0.456250X0*%
%TD*%
%TA.AperFunction,SMDPad,CuDef*%
%ADD29RoundRect,0.250000X-1.000000X-0.650000X1.000000X-0.650000X1.000000X0.650000X-1.000000X0.650000X0*%
%TD*%
%TA.AperFunction,SMDPad,CuDef*%
%ADD30RoundRect,0.250000X-0.900000X1.000000X-0.900000X-1.000000X0.900000X-1.000000X0.900000X1.000000X0*%
%TD*%
%TA.AperFunction,SMDPad,CuDef*%
%ADD31RoundRect,0.250000X-0.250000X-0.475000X0.250000X-0.475000X0.250000X0.475000X-0.250000X0.475000X0*%
%TD*%
%TA.AperFunction,SMDPad,CuDef*%
%ADD32RoundRect,0.150000X-0.825000X-0.150000X0.825000X-0.150000X0.825000X0.150000X-0.825000X0.150000X0*%
%TD*%
%TA.AperFunction,SMDPad,CuDef*%
%ADD33RoundRect,0.250000X-0.475000X0.250000X-0.475000X-0.250000X0.475000X-0.250000X0.475000X0.250000X0*%
%TD*%
%TA.AperFunction,SMDPad,CuDef*%
%ADD34RoundRect,0.250000X-0.550000X1.500000X-0.550000X-1.500000X0.550000X-1.500000X0.550000X1.500000X0*%
%TD*%
%TA.AperFunction,SMDPad,CuDef*%
%ADD35RoundRect,0.250000X-0.350000X0.850000X-0.350000X-0.850000X0.350000X-0.850000X0.350000X0.850000X0*%
%TD*%
%TA.AperFunction,SMDPad,CuDef*%
%ADD36RoundRect,0.249997X-2.650003X2.950003X-2.650003X-2.950003X2.650003X-2.950003X2.650003X2.950003X0*%
%TD*%
%TA.AperFunction,SMDPad,CuDef*%
%ADD37FreePoly0,0.000000*%
%TD*%
%TA.AperFunction,SMDPad,CuDef*%
%ADD38FreePoly1,0.000000*%
%TD*%
%TA.AperFunction,ViaPad*%
%ADD39C,0.800000*%
%TD*%
%TA.AperFunction,Conductor*%
%ADD40C,0.250000*%
%TD*%
G04 APERTURE END LIST*
D10*
%TO.P,J1,1*%
%TO.N,+12V_IN*%
X14600000Y-14000000D03*
D11*
%TO.P,J1,2*%
%TO.N,GND*%
X8600000Y-14000000D03*
%TO.P,J1,3*%
%TO.N,unconnected-(J1-Pad3)*%
X11600000Y-18700000D03*
%TD*%
D12*
%TO.P,J11,1*%
%TO.N,CH4_COM*%
X49500000Y-52000000D03*
D13*
%TO.P,J11,2*%
%TO.N,CH4_NO*%
X53000000Y-52000000D03*
%TO.P,J11,3*%
%TO.N,CH4_NC*%
X56500000Y-52000000D03*
%TD*%
D14*
%TO.P,J13,1*%
%TO.N,FLOAT1_SW*%
X4000000Y-26300000D03*
D13*
%TO.P,J13,2*%
%TO.N,GND*%
X4000000Y-22800000D03*
%TD*%
D15*
%TO.P,H4,1*%
%TO.N,N/C*%
X61500000Y-52500000D03*
%TD*%
D16*
%TO.P,F1,1*%
%TO.N,+12V_IN*%
X14500000Y-29500000D03*
%TO.P,F1,2*%
%TO.N,+12V_F*%
X13300000Y-34600000D03*
%TD*%
D17*
%TO.P,K4,1*%
%TO.N,CH4_COM*%
X60400000Y-33300000D03*
D18*
%TO.P,K4,2*%
%TO.N,+12V*%
X58400000Y-27300000D03*
%TO.P,K4,3*%
%TO.N,CH4_NO*%
X46200000Y-27300000D03*
%TO.P,K4,4*%
%TO.N,CH4_NC*%
X46200000Y-39300000D03*
%TO.P,K4,5*%
%TO.N,RLY4_DRV*%
X58400000Y-39300000D03*
%TD*%
D17*
%TO.P,K2,1*%
%TO.N,CH2_FUSED*%
X60400000Y-16200000D03*
D18*
%TO.P,K2,2*%
%TO.N,+12V*%
X58400000Y-10200000D03*
%TO.P,K2,3*%
%TO.N,CH2_OUT*%
X46200000Y-10200000D03*
%TO.P,K2,4*%
%TO.N,unconnected-(K2-Pad4)*%
X46200000Y-22200000D03*
%TO.P,K2,5*%
%TO.N,RLY2_DRV*%
X58400000Y-22200000D03*
%TD*%
D19*
%TO.P,F2,1*%
%TO.N,+12V*%
X31500000Y-43400000D03*
%TO.P,F2,2*%
%TO.N,CH1_FUSED*%
X36600000Y-44600000D03*
%TD*%
%TO.P,F3,1*%
%TO.N,+12V*%
X42000000Y-43400000D03*
%TO.P,F3,2*%
%TO.N,CH2_FUSED*%
X47100000Y-44600000D03*
%TD*%
D12*
%TO.P,J9,1*%
%TO.N,CH2_OUT*%
X24500000Y-52000000D03*
D13*
%TO.P,J9,2*%
%TO.N,GND*%
X28000000Y-52000000D03*
%TD*%
D12*
%TO.P,J8,1*%
%TO.N,CH1_OUT*%
X12500000Y-52000000D03*
D13*
%TO.P,J8,2*%
%TO.N,GND*%
X16000000Y-52000000D03*
%TD*%
D15*
%TO.P,H2,1*%
%TO.N,N/C*%
X61500000Y-3500000D03*
%TD*%
D14*
%TO.P,J4,1*%
%TO.N,+3V3*%
X4000000Y-46500000D03*
D13*
%TO.P,J4,2*%
%TO.N,1WIRE_DATA*%
X4000000Y-43000000D03*
%TO.P,J4,3*%
%TO.N,GND*%
X4000000Y-39500000D03*
%TD*%
D15*
%TO.P,H1,1*%
%TO.N,N/C*%
X3500000Y-3500000D03*
%TD*%
D17*
%TO.P,K3,1*%
%TO.N,CH3_FUSED*%
X37200000Y-33300000D03*
D18*
%TO.P,K3,2*%
%TO.N,+12V*%
X35200000Y-27300000D03*
%TO.P,K3,3*%
%TO.N,CH3_OUT*%
X23000000Y-27300000D03*
%TO.P,K3,4*%
%TO.N,unconnected-(K3-Pad4)*%
X23000000Y-39300000D03*
%TO.P,K3,5*%
%TO.N,RLY3_DRV*%
X35200000Y-39300000D03*
%TD*%
D17*
%TO.P,K1,1*%
%TO.N,CH1_FUSED*%
X37200000Y-16200000D03*
D18*
%TO.P,K1,2*%
%TO.N,+12V*%
X35200000Y-10200000D03*
%TO.P,K1,3*%
%TO.N,CH1_OUT*%
X23000000Y-10200000D03*
%TO.P,K1,4*%
%TO.N,unconnected-(K1-Pad4)*%
X23000000Y-22200000D03*
%TO.P,K1,5*%
%TO.N,RLY1_DRV*%
X35200000Y-22200000D03*
%TD*%
D20*
%TO.P,PSU1,1*%
%TO.N,unconnected-(PSU1-Pin_1-Pad1)*%
X26000000Y-43800000D03*
D21*
%TO.P,PSU1,2*%
%TO.N,+12V*%
X23460000Y-43800000D03*
%TO.P,PSU1,3*%
%TO.N,GND*%
X20920000Y-43800000D03*
%TO.P,PSU1,4*%
X18380000Y-43800000D03*
%TO.P,PSU1,5*%
%TO.N,+5V_BUCK*%
X15840000Y-43800000D03*
%TD*%
D12*
%TO.P,J10,1*%
%TO.N,CH3_OUT*%
X36500000Y-52000000D03*
D13*
%TO.P,J10,2*%
%TO.N,GND*%
X40000000Y-52000000D03*
%TD*%
D14*
%TO.P,J14,1*%
%TO.N,FLOAT2_SW*%
X4000000Y-34600000D03*
D13*
%TO.P,J14,2*%
%TO.N,GND*%
X4000000Y-31100000D03*
%TD*%
D15*
%TO.P,H3,1*%
%TO.N,N/C*%
X3500000Y-52500000D03*
%TD*%
D19*
%TO.P,F4,1*%
%TO.N,+12V*%
X52500000Y-43400000D03*
%TO.P,F4,2*%
%TO.N,CH3_FUSED*%
X57600000Y-44600000D03*
%TD*%
D22*
%TO.P,R4,1*%
%TO.N,+3V3*%
X43000000Y-27587500D03*
%TO.P,R4,2*%
%TO.N,EEPROM_SCL*%
X43000000Y-29412500D03*
%TD*%
D23*
%TO.P,R8,1*%
%TO.N,+12V*%
X48587500Y-21000000D03*
%TO.P,R8,2*%
%TO.N,LED4_A*%
X50412500Y-21000000D03*
%TD*%
D24*
%TO.P,U4,1*%
%TO.N,GND*%
X39795000Y-17525000D03*
%TO.P,U4,2*%
X41065000Y-17525000D03*
%TO.P,U4,3*%
X42335000Y-17525000D03*
%TO.P,U4,4*%
X43605000Y-17525000D03*
%TO.P,U4,5*%
%TO.N,EEPROM_SDA*%
X43605000Y-22475000D03*
%TO.P,U4,6*%
%TO.N,EEPROM_SCL*%
X42335000Y-22475000D03*
%TO.P,U4,7*%
%TO.N,EEPROM_WP*%
X41065000Y-22475000D03*
%TO.P,U4,8*%
%TO.N,+3V3*%
X39795000Y-22475000D03*
%TD*%
D25*
%TO.P,JP2,1*%
%TO.N,EEPROM_WP*%
X43000000Y-32350000D03*
D26*
%TO.P,JP2,2*%
%TO.N,+3V3*%
X43000000Y-33650000D03*
%TD*%
D23*
%TO.P,R10,1*%
%TO.N,+3V3*%
X49087500Y-39000000D03*
%TO.P,R10,2*%
%TO.N,FLOAT1_SW*%
X50912500Y-39000000D03*
%TD*%
D27*
%TO.P,U5,1*%
%TO.N,1WIRE_DATA*%
X6250000Y-23000000D03*
%TO.P,U5,2*%
%TO.N,GND*%
X8350000Y-23000000D03*
%TD*%
D28*
%TO.P,D5,1*%
%TO.N,RLY1_DRV*%
X52562500Y-12000000D03*
%TO.P,D5,2*%
%TO.N,LED1_A*%
X54437500Y-12000000D03*
%TD*%
D23*
%TO.P,R12,1*%
%TO.N,FLOAT1_SW*%
X53087500Y-39000000D03*
%TO.P,R12,2*%
%TO.N,FLOAT1_GPIO*%
X54912500Y-39000000D03*
%TD*%
D29*
%TO.P,D10,1*%
%TO.N,CH2_OUT*%
X49500000Y-30000000D03*
%TO.P,D10,2*%
%TO.N,GND*%
X53500000Y-30000000D03*
%TD*%
D30*
%TO.P,D1,1*%
%TO.N,GND*%
X29000000Y-19350000D03*
%TO.P,D1,2*%
%TO.N,+12V_F*%
X29000000Y-23650000D03*
%TD*%
D31*
%TO.P,C5,1*%
%TO.N,FLOAT1_SW*%
X40750000Y-10000000D03*
%TO.P,C5,2*%
%TO.N,GND*%
X42650000Y-10000000D03*
%TD*%
D28*
%TO.P,D7,1*%
%TO.N,RLY3_DRV*%
X52562500Y-18000000D03*
%TO.P,D7,2*%
%TO.N,LED3_A*%
X54437500Y-18000000D03*
%TD*%
%TO.P,D8,1*%
%TO.N,RLY4_DRV*%
X52562500Y-21000000D03*
%TO.P,D8,2*%
%TO.N,LED4_A*%
X54437500Y-21000000D03*
%TD*%
D32*
%TO.P,U2,1*%
%TO.N,GPIO17*%
X6525000Y-45945000D03*
%TO.P,U2,2*%
%TO.N,GPIO27*%
X6525000Y-44675000D03*
%TO.P,U2,3*%
%TO.N,GPIO22*%
X6525000Y-43405000D03*
%TO.P,U2,4*%
%TO.N,GPIO23*%
X6525000Y-42135000D03*
%TO.P,U2,5*%
%TO.N,GND*%
X6525000Y-40865000D03*
%TO.P,U2,6*%
X6525000Y-39595000D03*
%TO.P,U2,7*%
X6525000Y-38325000D03*
%TO.P,U2,8*%
X6525000Y-37055000D03*
%TO.P,U2,9*%
%TO.N,+12V*%
X11475000Y-37055000D03*
%TO.P,U2,10*%
%TO.N,unconnected-(U2-O7-Pad10)*%
X11475000Y-38325000D03*
%TO.P,U2,11*%
%TO.N,unconnected-(U2-O6-Pad11)*%
X11475000Y-39595000D03*
%TO.P,U2,12*%
%TO.N,unconnected-(U2-O5-Pad12)*%
X11475000Y-40865000D03*
%TO.P,U2,13*%
%TO.N,RLY4_DRV*%
X11475000Y-42135000D03*
%TO.P,U2,14*%
%TO.N,RLY3_DRV*%
X11475000Y-43405000D03*
%TO.P,U2,15*%
%TO.N,RLY2_DRV*%
X11475000Y-44675000D03*
%TO.P,U2,16*%
%TO.N,RLY1_DRV*%
X11475000Y-45945000D03*
%TD*%
D29*
%TO.P,D11,1*%
%TO.N,CH3_OUT*%
X49500000Y-35000000D03*
%TO.P,D11,2*%
%TO.N,GND*%
X53500000Y-35000000D03*
%TD*%
D23*
%TO.P,R13,1*%
%TO.N,FLOAT2_SW*%
X53087500Y-41300000D03*
%TO.P,R13,2*%
%TO.N,FLOAT2_GPIO*%
X54912500Y-41300000D03*
%TD*%
D31*
%TO.P,C6,1*%
%TO.N,FLOAT2_SW*%
X40750000Y-12500000D03*
%TO.P,C6,2*%
%TO.N,GND*%
X42650000Y-12500000D03*
%TD*%
D33*
%TO.P,C2,1*%
%TO.N,+12V*%
X29000000Y-39050000D03*
%TO.P,C2,2*%
%TO.N,GND*%
X29000000Y-40950000D03*
%TD*%
D20*
%TO.P,J3,1*%
%TO.N,+3V3*%
X8370000Y-4770000D03*
D21*
%TO.P,J3,2*%
%TO.N,+5V*%
X8370000Y-2230000D03*
%TO.P,J3,3*%
%TO.N,unconnected-(J3-SDA/GPIO2-Pad3)*%
X10910000Y-4770000D03*
%TO.P,J3,4*%
%TO.N,+5V*%
X10910000Y-2230000D03*
%TO.P,J3,5*%
%TO.N,unconnected-(J3-SCL/GPIO3-Pad5)*%
X13450000Y-4770000D03*
%TO.P,J3,6*%
%TO.N,GND*%
X13450000Y-2230000D03*
%TO.P,J3,7*%
%TO.N,1WIRE_DATA*%
X15990000Y-4770000D03*
%TO.P,J3,8*%
%TO.N,unconnected-(J3-GPIO14/TXD-Pad8)*%
X15990000Y-2230000D03*
%TO.P,J3,9*%
%TO.N,GND*%
X18530000Y-4770000D03*
%TO.P,J3,10*%
%TO.N,unconnected-(J3-GPIO15/RXD-Pad10)*%
X18530000Y-2230000D03*
%TO.P,J3,11*%
%TO.N,GPIO17*%
X21070000Y-4770000D03*
%TO.P,J3,12*%
%TO.N,unconnected-(J3-GPIO18/PWM0-Pad12)*%
X21070000Y-2230000D03*
%TO.P,J3,13*%
%TO.N,GPIO27*%
X23610000Y-4770000D03*
%TO.P,J3,14*%
%TO.N,GND*%
X23610000Y-2230000D03*
%TO.P,J3,15*%
%TO.N,GPIO22*%
X26150000Y-4770000D03*
%TO.P,J3,16*%
%TO.N,GPIO23*%
X26150000Y-2230000D03*
%TO.P,J3,17*%
%TO.N,+3V3*%
X28690000Y-4770000D03*
%TO.P,J3,18*%
%TO.N,unconnected-(J3-GPIO24-Pad18)*%
X28690000Y-2230000D03*
%TO.P,J3,19*%
%TO.N,unconnected-(J3-MOSI0/GPIO10-Pad19)*%
X31230000Y-4770000D03*
%TO.P,J3,20*%
%TO.N,GND*%
X31230000Y-2230000D03*
%TO.P,J3,21*%
%TO.N,unconnected-(J3-MISO0/GPIO9-Pad21)*%
X33770000Y-4770000D03*
%TO.P,J3,22*%
%TO.N,unconnected-(J3-GPIO25-Pad22)*%
X33770000Y-2230000D03*
%TO.P,J3,23*%
%TO.N,unconnected-(J3-SCLK0/GPIO11-Pad23)*%
X36310000Y-4770000D03*
%TO.P,J3,24*%
%TO.N,unconnected-(J3-~{CE0}/GPIO8-Pad24)*%
X36310000Y-2230000D03*
%TO.P,J3,25*%
%TO.N,GND*%
X38850000Y-4770000D03*
%TO.P,J3,26*%
%TO.N,unconnected-(J3-~{CE1}/GPIO7-Pad26)*%
X38850000Y-2230000D03*
%TO.P,J3,27*%
%TO.N,EEPROM_SDA*%
X41390000Y-4770000D03*
%TO.P,J3,28*%
%TO.N,EEPROM_SCL*%
X41390000Y-2230000D03*
%TO.P,J3,29*%
%TO.N,unconnected-(J3-GCLK1/GPIO5-Pad29)*%
X43930000Y-4770000D03*
%TO.P,J3,30*%
%TO.N,GND*%
X43930000Y-2230000D03*
%TO.P,J3,31*%
%TO.N,unconnected-(J3-GCLK2/GPIO6-Pad31)*%
X46470000Y-4770000D03*
%TO.P,J3,32*%
%TO.N,FLOAT2_GPIO*%
X46470000Y-2230000D03*
%TO.P,J3,33*%
%TO.N,unconnected-(J3-PWM1/GPIO13-Pad33)*%
X49010000Y-4770000D03*
%TO.P,J3,34*%
%TO.N,GND*%
X49010000Y-2230000D03*
%TO.P,J3,35*%
%TO.N,unconnected-(J3-GPIO19/MISO1-Pad35)*%
X51550000Y-4770000D03*
%TO.P,J3,36*%
%TO.N,FLOAT1_GPIO*%
X51550000Y-2230000D03*
%TO.P,J3,37*%
%TO.N,unconnected-(J3-GPIO26-Pad37)*%
X54090000Y-4770000D03*
%TO.P,J3,38*%
%TO.N,unconnected-(J3-GPIO20/MOSI1-Pad38)*%
X54090000Y-2230000D03*
%TO.P,J3,39*%
%TO.N,GND*%
X56630000Y-4770000D03*
%TO.P,J3,40*%
%TO.N,unconnected-(J3-GPIO21/SCLK1-Pad40)*%
X56630000Y-2230000D03*
%TD*%
D34*
%TO.P,C1,1*%
%TO.N,+12V*%
X29000000Y-29300000D03*
%TO.P,C1,2*%
%TO.N,GND*%
X29000000Y-34700000D03*
%TD*%
D33*
%TO.P,C3,1*%
%TO.N,+3V3*%
X10600000Y-21550000D03*
%TO.P,C3,2*%
%TO.N,GND*%
X10600000Y-23450000D03*
%TD*%
D22*
%TO.P,R3,1*%
%TO.N,+3V3*%
X40500000Y-27587500D03*
%TO.P,R3,2*%
%TO.N,EEPROM_SDA*%
X40500000Y-29412500D03*
%TD*%
D29*
%TO.P,D9,1*%
%TO.N,CH1_OUT*%
X49500000Y-25000000D03*
%TO.P,D9,2*%
%TO.N,GND*%
X53500000Y-25000000D03*
%TD*%
D31*
%TO.P,C4,1*%
%TO.N,+3V3*%
X40750000Y-25500000D03*
%TO.P,C4,2*%
%TO.N,GND*%
X42650000Y-25500000D03*
%TD*%
D35*
%TO.P,Q1,1*%
%TO.N,N/C*%
X26720000Y-7960000D03*
D36*
%TO.P,Q1,2*%
X29000000Y-14260000D03*
D35*
%TO.P,Q1,3*%
X31280000Y-7960000D03*
%TD*%
D22*
%TO.P,R2,1*%
%TO.N,+3V3*%
X6300000Y-18587500D03*
%TO.P,R2,2*%
%TO.N,1WIRE_DATA*%
X6300000Y-20412500D03*
%TD*%
D23*
%TO.P,R6,1*%
%TO.N,+12V*%
X48587500Y-15000000D03*
%TO.P,R6,2*%
%TO.N,LED2_A*%
X50412500Y-15000000D03*
%TD*%
%TO.P,R11,1*%
%TO.N,+3V3*%
X49087500Y-41300000D03*
%TO.P,R11,2*%
%TO.N,FLOAT2_SW*%
X50912500Y-41300000D03*
%TD*%
%TO.P,R7,1*%
%TO.N,+12V*%
X48587500Y-18000000D03*
%TO.P,R7,2*%
%TO.N,LED3_A*%
X50412500Y-18000000D03*
%TD*%
D37*
%TO.P,JP1,1*%
%TO.N,+5V_BUCK*%
X14150000Y-46000000D03*
D38*
%TO.P,JP1,2*%
%TO.N,+5V*%
X15450000Y-46000000D03*
%TD*%
D23*
%TO.P,R5,1*%
%TO.N,+12V*%
X48587500Y-12000000D03*
%TO.P,R5,2*%
%TO.N,LED1_A*%
X50412500Y-12000000D03*
%TD*%
D22*
%TO.P,R9,1*%
%TO.N,EEPROM_WP*%
X40500000Y-31587500D03*
%TO.P,R9,2*%
%TO.N,GND*%
X40500000Y-33412500D03*
%TD*%
D23*
%TO.P,R1,1*%
%TO.N,Q1_G*%
X25087500Y-41200000D03*
%TO.P,R1,2*%
%TO.N,GND*%
X26912500Y-41200000D03*
%TD*%
D28*
%TO.P,D6,1*%
%TO.N,RLY2_DRV*%
X52562500Y-15000000D03*
%TO.P,D6,2*%
%TO.N,LED2_A*%
X54437500Y-15000000D03*
%TD*%
D39*
%TO.N,FLOAT1_SW*%
X40750000Y-8163000D03*
X50912500Y-37247200D03*
%TO.N,+12V_F*%
X29013100Y-26931200D03*
%TO.N,+12V*%
X13741400Y-38748900D03*
X48587500Y-8447600D03*
%TO.N,RLY4_DRV*%
X13632700Y-40369100D03*
%TO.N,CH2_FUSED*%
X56824800Y-37819900D03*
%TO.N,RLY2_DRV*%
X16297200Y-34047400D03*
X51649000Y-14014100D03*
%TO.N,CH1_OUT*%
X49500000Y-23478100D03*
%TO.N,+3V3*%
X34859500Y-19868600D03*
X39795000Y-19899500D03*
%TO.N,RLY3_DRV*%
X15598800Y-37723300D03*
X54236000Y-37511000D03*
%TO.N,RLY1_DRV*%
X51487700Y-11152300D03*
%TO.N,FLOAT2_SW*%
X37718100Y-19089300D03*
X38483200Y-36291500D03*
X40931600Y-15901000D03*
X47898400Y-36383500D03*
%TO.N,EEPROM_SCL*%
X40620900Y-19117800D03*
X42681800Y-30544400D03*
X39111700Y-24956100D03*
%TO.N,GPIO17*%
X5570900Y-14703900D03*
%TD*%
%TO.N,GND*%
D40*
X8350000Y-23000000D02*
X7783800Y-23566200D01*
X40849800Y-3588700D02*
X39478800Y-4959700D01*
X41065000Y-17525000D02*
X39795000Y-17525000D01*
X17260000Y-3500000D02*
X14720000Y-3500000D01*
X24636700Y-43076700D02*
X24636700Y-44323500D01*
X39289100Y-4770000D02*
X38850000Y-4770000D01*
X24636700Y-44323500D02*
X23950500Y-45009700D01*
X42650000Y-10000000D02*
X42650000Y-12500000D01*
X53500000Y-25000000D02*
X53500000Y-26250000D01*
X10150000Y-23000000D02*
X10600000Y-23450000D01*
X42650000Y-17525000D02*
X42335000Y-17525000D01*
X25589200Y-40172300D02*
X24585800Y-40172300D01*
X6525000Y-37055000D02*
X6525000Y-38325000D01*
X47498400Y-26250000D02*
X53500000Y-26250000D01*
X12180000Y-10420000D02*
X12180000Y-3500000D01*
X44278000Y-23872000D02*
X45120400Y-23872000D01*
X44278000Y-18198000D02*
X44278000Y-23872000D01*
X22129700Y-45009700D02*
X20920000Y-43800000D01*
X39478800Y-4959700D02*
X39289100Y-4770000D01*
X6525000Y-39500000D02*
X4000000Y-39500000D01*
X40000000Y-52000000D02*
X40000000Y-33912500D01*
X42650000Y-3588700D02*
X40849800Y-3588700D01*
X5543300Y-23566200D02*
X4766200Y-23566200D01*
X18380000Y-49620000D02*
X18380000Y-43800000D01*
X29000000Y-34700000D02*
X27505800Y-34700000D01*
X19800000Y-3500000D02*
X18530000Y-4770000D01*
X7783800Y-23566200D02*
X5543300Y-23566200D01*
X24247300Y-42687300D02*
X24636700Y-43076700D01*
X26912500Y-41200000D02*
X26616800Y-41200000D01*
X29000000Y-40950000D02*
X27162500Y-40950000D01*
X42650000Y-3510000D02*
X43930000Y-2230000D01*
X18530000Y-4770000D02*
X17260000Y-3500000D01*
X6525000Y-33625000D02*
X4000000Y-31100000D01*
X39795000Y-5275900D02*
X39478800Y-4959700D01*
X27505800Y-34700000D02*
X27505800Y-20844200D01*
X27505800Y-20844200D02*
X29000000Y-19350000D01*
X42650000Y-10000000D02*
X42650000Y-3588700D01*
X26912500Y-35293300D02*
X27505800Y-34700000D01*
X45120400Y-23872000D02*
X47498400Y-26250000D01*
X22340000Y-3500000D02*
X19800000Y-3500000D01*
X5543300Y-23566200D02*
X5543300Y-29556700D01*
X6525000Y-37055000D02*
X6525000Y-33625000D01*
X4766200Y-23566200D02*
X4000000Y-22800000D01*
X44278000Y-23872000D02*
X42650000Y-25500000D01*
X16000000Y-52000000D02*
X18380000Y-49620000D01*
X42650000Y-17525000D02*
X42650000Y-12500000D01*
X6525000Y-38325000D02*
X6525000Y-39500000D01*
X14720000Y-3500000D02*
X13450000Y-2230000D01*
X23950500Y-45009700D02*
X22129700Y-45009700D01*
X40000000Y-33912500D02*
X40500000Y-33412500D01*
X26616800Y-41199900D02*
X25589200Y-40172300D01*
X23610000Y-2230000D02*
X22340000Y-3500000D01*
X39795000Y-17525000D02*
X39795000Y-5275900D01*
X26912500Y-41200000D02*
X26912500Y-35293300D01*
X6525000Y-39595000D02*
X6525000Y-40865000D01*
X24247300Y-40510800D02*
X24247300Y-42687300D01*
X8600000Y-14000000D02*
X12180000Y-10420000D01*
X53500000Y-30000000D02*
X53500000Y-35000000D01*
X53500000Y-26250000D02*
X53500000Y-30000000D01*
X27162500Y-40950000D02*
X26912500Y-41200000D01*
X8350000Y-23000000D02*
X10150000Y-23000000D01*
X12180000Y-3500000D02*
X13450000Y-2230000D01*
X43605000Y-17525000D02*
X42650000Y-17525000D01*
X43605000Y-17525000D02*
X44278000Y-18198000D01*
X24585800Y-40172300D02*
X24247300Y-40510800D01*
X5543300Y-29556700D02*
X4000000Y-31100000D01*
%TO.N,CH4_COM*%
X60513000Y-43984400D02*
X60513000Y-34989700D01*
X60400000Y-33300000D02*
X60400000Y-34876700D01*
X58717400Y-51958500D02*
X58717400Y-45780000D01*
X51081300Y-53581300D02*
X57094600Y-53581300D01*
X60513000Y-34989700D02*
X60400000Y-34876700D01*
X58717400Y-45780000D02*
X60513000Y-43984400D01*
X49500000Y-52000000D02*
X51081300Y-53581300D01*
X57094600Y-53581300D02*
X58717400Y-51958500D01*
%TO.N,CH4_NC*%
X46200000Y-40876700D02*
X56500000Y-51176700D01*
X46200000Y-39300000D02*
X46200000Y-40876700D01*
X56500000Y-51176700D02*
X56500000Y-52000000D01*
%TO.N,FLOAT1_SW*%
X50912500Y-39000000D02*
X50912500Y-37247200D01*
X40750000Y-10000000D02*
X40750000Y-8163000D01*
X50912500Y-39000000D02*
X53087500Y-39000000D01*
%TO.N,+12V_F*%
X29013100Y-23663100D02*
X29013100Y-26931200D01*
%TO.N,+12V*%
X58400000Y-10200000D02*
X58400000Y-11776700D01*
X30147700Y-29300000D02*
X30147700Y-37902300D01*
X48587500Y-12000000D02*
X48587500Y-15000000D01*
X36776700Y-24146600D02*
X36776700Y-20758100D01*
X29000000Y-29300000D02*
X30147700Y-29300000D01*
X30147700Y-37902300D02*
X29000000Y-39050000D01*
X35200000Y-19181400D02*
X35200000Y-10200000D01*
X29000000Y-39050000D02*
X31500000Y-41550000D01*
X36776700Y-20758100D02*
X35200000Y-19181400D01*
X31500000Y-41550000D02*
X31500000Y-43400000D01*
X58400000Y-11776700D02*
X56823300Y-13353400D01*
X30147700Y-29300000D02*
X31623300Y-29300000D01*
X35200000Y-27300000D02*
X35200000Y-25723300D01*
X31623300Y-29300000D02*
X33623300Y-27300000D01*
X35200000Y-27300000D02*
X33623300Y-27300000D01*
X35200000Y-25723300D02*
X36776700Y-24146600D01*
X12047500Y-37055000D02*
X13741400Y-38748900D01*
X11475000Y-37055000D02*
X12047500Y-37055000D01*
X56823300Y-24146600D02*
X58400000Y-25723300D01*
X48587500Y-21000000D02*
X48587500Y-18000000D01*
X48587500Y-18000000D02*
X48587500Y-15000000D01*
X48587500Y-12000000D02*
X48587500Y-8447600D01*
X56823300Y-13353400D02*
X56823300Y-24146600D01*
X58400000Y-27300000D02*
X58400000Y-25723300D01*
%TO.N,RLY4_DRV*%
X54000100Y-38306700D02*
X54000100Y-39688600D01*
X54603600Y-19645800D02*
X55262200Y-20304400D01*
X54346100Y-40034600D02*
X56088700Y-40034600D01*
X54635700Y-36394000D02*
X54286800Y-36394000D01*
X54286800Y-36394000D02*
X53497100Y-37183700D01*
X53916700Y-19645800D02*
X54603600Y-19645800D01*
X13632700Y-40369100D02*
X11866800Y-42135000D01*
X11866800Y-42135000D02*
X11475000Y-42135000D01*
X56088700Y-40034600D02*
X56823300Y-39300000D01*
X53497100Y-37803700D02*
X54000100Y-38306700D01*
X58400000Y-39300000D02*
X56823300Y-39300000D01*
X52562500Y-21000000D02*
X53916700Y-19645800D01*
X53497100Y-37183700D02*
X53497100Y-37803700D01*
X55262200Y-20304400D02*
X55262200Y-35767500D01*
X55262200Y-35767500D02*
X54635700Y-36394000D01*
X54000100Y-39688600D02*
X54346100Y-40034600D01*
%TO.N,CH2_FUSED*%
X56824800Y-32210800D02*
X56824800Y-37819900D01*
X60400000Y-16200000D02*
X60400000Y-28635600D01*
X60400000Y-28635600D02*
X56824800Y-32210800D01*
%TO.N,CH2_OUT*%
X38813000Y-19145200D02*
X38385000Y-19573200D01*
X46200000Y-10200000D02*
X46200000Y-8623300D01*
X45251600Y-1796600D02*
X44503400Y-1048400D01*
X41954900Y-46385200D02*
X41954900Y-52231900D01*
X39170000Y-3588900D02*
X38302000Y-3588900D01*
X39376300Y-53535400D02*
X38437400Y-52596500D01*
X38437400Y-52596500D02*
X38437400Y-51189400D01*
X39290000Y-31637600D02*
X39290000Y-48811400D01*
X38385000Y-19573200D02*
X38385000Y-30732600D01*
X37672500Y-7233500D02*
X38813000Y-8374000D01*
X46200000Y-8623300D02*
X45251600Y-7674900D01*
X39290000Y-48811400D02*
X37674700Y-50426700D01*
X49500000Y-30000000D02*
X43759900Y-35740100D01*
X37672500Y-4218400D02*
X37672500Y-7233500D01*
X43759900Y-35740100D02*
X43759900Y-44580200D01*
X26073300Y-50426700D02*
X24500000Y-52000000D01*
X43759900Y-44580200D02*
X41954900Y-46385200D01*
X38302000Y-3588900D02*
X37672500Y-4218400D01*
X45251600Y-7674900D02*
X45251600Y-1796600D01*
X38437400Y-51189400D02*
X37674700Y-50426700D01*
X44503400Y-1048400D02*
X40819400Y-1048400D01*
X40120000Y-2638900D02*
X39170000Y-3588900D01*
X38385000Y-30732600D02*
X39290000Y-31637600D01*
X40819400Y-1048400D02*
X40120000Y-1747800D01*
X38813000Y-8374000D02*
X38813000Y-19145200D01*
X40651400Y-53535400D02*
X39376300Y-53535400D01*
X41954900Y-52231900D02*
X40651400Y-53535400D01*
X37674700Y-50426700D02*
X26073300Y-50426700D01*
X40120000Y-1747800D02*
X40120000Y-2638900D01*
%TO.N,RLY2_DRV*%
X11927100Y-44675000D02*
X16325500Y-40276600D01*
X11475000Y-44675000D02*
X11927100Y-44675000D01*
X16325500Y-40276600D02*
X16325500Y-34075700D01*
X52562500Y-14927600D02*
X51649000Y-14014100D01*
%TO.N,CH1_FUSED*%
X37200000Y-16200000D02*
X37200000Y-17776700D01*
X37290700Y-19823200D02*
X37290700Y-27533000D01*
X36980800Y-19513300D02*
X37290700Y-19823200D01*
X33603000Y-41603000D02*
X36600000Y-44600000D01*
X36980800Y-17995900D02*
X36980800Y-19513300D01*
X37200000Y-17776700D02*
X36980800Y-17995900D01*
X33603000Y-31220700D02*
X33603000Y-41603000D01*
X37290700Y-27533000D02*
X33603000Y-31220700D01*
%TO.N,CH1_OUT*%
X12500000Y-52000000D02*
X17051500Y-47448500D01*
X17051500Y-17844500D02*
X23000000Y-11896000D01*
X17051500Y-47448500D02*
X17051500Y-17844500D01*
X49500000Y-25000000D02*
X49500000Y-23478100D01*
X23000000Y-11896000D02*
X23000000Y-11776700D01*
X23000000Y-10200000D02*
X23000000Y-11776700D01*
%TO.N,+3V3*%
X5331900Y-18587500D02*
X6300000Y-18587500D01*
X40872500Y-24406100D02*
X41700000Y-23578600D01*
X6300000Y-8016700D02*
X8370000Y-5946700D01*
X44087400Y-28674900D02*
X44087400Y-28918700D01*
X1971000Y-21948400D02*
X5331900Y-18587500D01*
X41164400Y-30277500D02*
X39819500Y-30277500D01*
X44087400Y-33106400D02*
X43543800Y-33650000D01*
X34075000Y-19084100D02*
X34859500Y-19868600D01*
X39795000Y-21088800D02*
X39795000Y-19899500D01*
X43000000Y-27587500D02*
X41918300Y-28669200D01*
X51097100Y-35923300D02*
X49087500Y-37932900D01*
X51097100Y-29098700D02*
X51097100Y-35923300D01*
X10600000Y-21550000D02*
X7637500Y-18587500D01*
X49087500Y-37932900D02*
X49087500Y-39000000D01*
X40500000Y-25750000D02*
X40500000Y-27587500D01*
X41918300Y-29523600D02*
X41164400Y-30277500D01*
X41700000Y-21438800D02*
X41350000Y-21088800D01*
X4000000Y-46500000D02*
X1971000Y-44471000D01*
X49087500Y-39000000D02*
X49087500Y-41300000D01*
X40872500Y-25377500D02*
X40872500Y-24406100D01*
X31323200Y-9493000D02*
X34075000Y-12244800D01*
X7637500Y-18587500D02*
X6300000Y-18587500D01*
X40750000Y-25500000D02*
X40500000Y-25750000D01*
X47002000Y-28918700D02*
X47192900Y-28727800D01*
X43000000Y-27587500D02*
X44087400Y-28674900D01*
X50726200Y-28727800D02*
X51097100Y-29098700D01*
X34075000Y-12244800D02*
X34075000Y-19084100D01*
X6300000Y-18587500D02*
X6300000Y-8016700D01*
X1971000Y-44471000D02*
X1971000Y-21948400D01*
X40750000Y-25500000D02*
X40872500Y-25377500D01*
X39459300Y-29917300D02*
X39459300Y-28628200D01*
X28690000Y-7417100D02*
X30765900Y-9493000D01*
X41918300Y-28669200D02*
X41918300Y-29523600D01*
X43543800Y-33650000D02*
X43000000Y-33650000D01*
X28690000Y-4770000D02*
X28690000Y-7417100D01*
X44087400Y-28918700D02*
X47002000Y-28918700D01*
X39459300Y-28628200D02*
X40500000Y-27587500D01*
X41350000Y-21088800D02*
X39795000Y-21088800D01*
X30765900Y-9493000D02*
X31323200Y-9493000D01*
X39819500Y-30277500D02*
X39459300Y-29917300D01*
X41700000Y-23578600D02*
X41700000Y-21438800D01*
X47192900Y-28727800D02*
X50726200Y-28727800D01*
X44087400Y-28918700D02*
X44087400Y-33106400D01*
X8370000Y-4770000D02*
X8370000Y-5946700D01*
X39795000Y-22475000D02*
X39795000Y-21088800D01*
%TO.N,1WIRE_DATA*%
X12973300Y-17408000D02*
X13228900Y-17663600D01*
X11257400Y-22449400D02*
X8733600Y-22449400D01*
X6300000Y-22351400D02*
X6300000Y-20412500D01*
X12973300Y-7786700D02*
X12973300Y-17408000D01*
X8733600Y-22449400D02*
X8635600Y-22351400D01*
X13228900Y-17663600D02*
X13228900Y-20477900D01*
X8635600Y-22351400D02*
X6300000Y-22351400D01*
X4000000Y-43000000D02*
X2448100Y-41448100D01*
X15990000Y-4770000D02*
X12973300Y-7786700D01*
X13228900Y-20477900D02*
X11257400Y-22449400D01*
X4177800Y-20412500D02*
X6300000Y-20412500D01*
X6300000Y-22950000D02*
X6300000Y-22351400D01*
X2448100Y-22142200D02*
X4177800Y-20412500D01*
X2448100Y-41448100D02*
X2448100Y-22142200D01*
%TO.N,CH3_OUT*%
X36500000Y-52000000D02*
X38487100Y-53987100D01*
X23291600Y-53549200D02*
X19710900Y-49968500D01*
X36500000Y-52000000D02*
X34950800Y-53549200D01*
X19710900Y-49968500D02*
X19710900Y-32165800D01*
X44471200Y-50354400D02*
X44471200Y-38768300D01*
X44471200Y-38768300D02*
X48239500Y-35000000D01*
X48239500Y-35000000D02*
X49500000Y-35000000D01*
X34950800Y-53549200D02*
X23291600Y-53549200D01*
X38487100Y-53987100D02*
X40838500Y-53987100D01*
X23000000Y-27300000D02*
X23000000Y-28876700D01*
X40838500Y-53987100D02*
X44471200Y-50354400D01*
X19710900Y-32165800D02*
X23000000Y-28876700D01*
%TO.N,RLY3_DRV*%
X55713900Y-36033100D02*
X54236000Y-37511000D01*
X11865900Y-43405000D02*
X15598800Y-39672100D01*
X15598800Y-39672100D02*
X15598800Y-37723300D01*
X11475000Y-43405000D02*
X11865900Y-43405000D01*
X53756600Y-19194100D02*
X54790700Y-19194100D01*
X55713900Y-20117300D02*
X55713900Y-36033100D01*
X52562500Y-18000000D02*
X53756600Y-19194100D01*
X54790700Y-19194100D02*
X55713900Y-20117300D01*
%TO.N,RLY1_DRV*%
X34586500Y-20623300D02*
X35200000Y-20623300D01*
X20950300Y-12986200D02*
X20950300Y-9941200D01*
X35200000Y-22200000D02*
X35200000Y-20623300D01*
X20950300Y-9941200D02*
X22313100Y-8578400D01*
X33623200Y-12431900D02*
X33623200Y-19660000D01*
X51714800Y-11152300D02*
X51487700Y-11152300D01*
X10171100Y-29009600D02*
X16599800Y-22580900D01*
X52562500Y-12000000D02*
X51714800Y-11152300D01*
X11025100Y-45945000D02*
X10171100Y-45091000D01*
X18023000Y-15913500D02*
X20950300Y-12986200D01*
X22313100Y-8578400D02*
X23767400Y-8578400D01*
X18023000Y-16234200D02*
X18023000Y-15913500D01*
X25239000Y-10050000D02*
X31241300Y-10050000D01*
X16599800Y-22580900D02*
X16599800Y-17657400D01*
X11475000Y-45945000D02*
X11025100Y-45945000D01*
X10171100Y-45091000D02*
X10171100Y-29009600D01*
X31241300Y-10050000D02*
X33623200Y-12431900D01*
X23767400Y-8578400D02*
X25239000Y-10050000D01*
X33623200Y-19660000D02*
X34586500Y-20623300D01*
X16599800Y-17657400D02*
X18023000Y-16234200D01*
%TO.N,+5V_BUCK*%
X14150000Y-46000000D02*
X14150000Y-45490000D01*
X14150000Y-45490000D02*
X15840000Y-43800000D01*
%TO.N,FLOAT2_SW*%
X37718100Y-19089300D02*
X37933300Y-19304500D01*
X40750000Y-12500000D02*
X40750000Y-15719400D01*
X47898400Y-41640300D02*
X47898400Y-36383500D01*
X40750000Y-15719400D02*
X40931600Y-15901000D01*
X48621900Y-42363800D02*
X47898400Y-41640300D01*
X38838300Y-35936400D02*
X38483200Y-36291500D01*
X38838300Y-31917700D02*
X38838300Y-35936400D01*
X37933300Y-19304500D02*
X37933300Y-31012700D01*
X50912500Y-41300000D02*
X49848700Y-42363800D01*
X37933300Y-31012700D02*
X38838300Y-31917700D01*
X49848700Y-42363800D02*
X48621900Y-42363800D01*
X53087500Y-41300000D02*
X50912500Y-41300000D01*
%TO.N,EEPROM_SCL*%
X39035100Y-19601900D02*
X39520900Y-19116100D01*
X40347100Y-19391600D02*
X40620900Y-19117800D01*
X39520900Y-19116100D02*
X40071500Y-19116100D01*
X42681800Y-29730700D02*
X42681800Y-30544400D01*
X39035100Y-24879500D02*
X39035100Y-19601900D01*
X40071500Y-19116100D02*
X40347100Y-19391600D01*
X39111700Y-24956100D02*
X39035100Y-24879500D01*
X40347100Y-19391600D02*
X42335000Y-21379600D01*
X43000000Y-29412500D02*
X42681800Y-29730700D01*
X42335000Y-21379600D02*
X42335000Y-22475000D01*
%TO.N,LED4_A*%
X51483100Y-22070600D02*
X50412500Y-21000000D01*
X54437500Y-21000000D02*
X53366900Y-22070600D01*
X53366900Y-22070600D02*
X51483100Y-22070600D01*
%TO.N,EEPROM_SDA*%
X41790400Y-24731300D02*
X41790400Y-28122100D01*
X43605000Y-20532000D02*
X41700100Y-18627100D01*
X43605000Y-22475000D02*
X43605000Y-20532000D01*
X41790400Y-28122100D02*
X40500000Y-29412500D01*
X43605000Y-22916700D02*
X41790400Y-24731300D01*
X41700100Y-18627100D02*
X41700100Y-5080100D01*
X43605000Y-22475000D02*
X43605000Y-22916700D01*
X41700100Y-5080100D02*
X41390000Y-4770000D01*
%TO.N,EEPROM_WP*%
X41065000Y-23574800D02*
X41065000Y-22475000D01*
X41262500Y-32350000D02*
X40500000Y-31587500D01*
X39838400Y-24801400D02*
X41065000Y-23574800D01*
X40418700Y-31587500D02*
X38963600Y-30132400D01*
X38963600Y-30132400D02*
X38963600Y-26131900D01*
X43000000Y-32350000D02*
X41262500Y-32350000D01*
X39838400Y-25257100D02*
X39838400Y-24801400D01*
X38963600Y-26131900D02*
X39838400Y-25257100D01*
%TO.N,LED1_A*%
X53355100Y-13082400D02*
X51494900Y-13082400D01*
X51494900Y-13082400D02*
X50412500Y-12000000D01*
X54437500Y-12000000D02*
X53355100Y-13082400D01*
%TO.N,FLOAT1_GPIO*%
X55723300Y-36981900D02*
X56165600Y-36539600D01*
X52820000Y-7788200D02*
X52820000Y-3500000D01*
X52820000Y-3500000D02*
X51550000Y-2230000D01*
X55723300Y-38189200D02*
X55723300Y-36981900D01*
X54912500Y-39000000D02*
X55723300Y-38189200D01*
X56165600Y-36539600D02*
X56165600Y-11133800D01*
X56165600Y-11133800D02*
X52820000Y-7788200D01*
%TO.N,LED3_A*%
X53365500Y-16928000D02*
X51484500Y-16928000D01*
X54437500Y-18000000D02*
X53365500Y-16928000D01*
X51484500Y-16928000D02*
X50412500Y-18000000D01*
%TO.N,GPIO17*%
X1519300Y-46791700D02*
X1519300Y-18755500D01*
X2792200Y-48064600D02*
X1519300Y-46791700D01*
X1519300Y-18755500D02*
X5570900Y-14703900D01*
X5152300Y-48064600D02*
X2792200Y-48064600D01*
X6525000Y-45945000D02*
X6525000Y-46691900D01*
X6525000Y-46691900D02*
X5152300Y-48064600D01*
%TO.N,GPIO27*%
X17571300Y-16047100D02*
X17571300Y-14554700D01*
X22301900Y-7879300D02*
X23859700Y-7879300D01*
X23859700Y-7879300D02*
X25792300Y-5946700D01*
X16148100Y-22075600D02*
X16148100Y-17470300D01*
X16148100Y-17470300D02*
X17571300Y-16047100D01*
X9439400Y-42143300D02*
X9439400Y-28784300D01*
X20498600Y-9682600D02*
X22301900Y-7879300D01*
X20498600Y-11627400D02*
X20498600Y-9682600D01*
X25792300Y-5946700D02*
X26718600Y-5946700D01*
X6907700Y-44675000D02*
X9439400Y-42143300D01*
X17571300Y-14554700D02*
X20498600Y-11627400D01*
X26718600Y-5946700D02*
X27344200Y-5321100D01*
X26633300Y-3552400D02*
X24827600Y-3552400D01*
X24827600Y-3552400D02*
X23610000Y-4770000D01*
X9439400Y-28784300D02*
X16148100Y-22075600D01*
X6525000Y-44675000D02*
X6907700Y-44675000D01*
X27344200Y-4263300D02*
X26633300Y-3552400D01*
X27344200Y-5321100D02*
X27344200Y-4263300D01*
%TO.N,GPIO22*%
X8828400Y-41525500D02*
X8828400Y-28396200D01*
X23505900Y-7414100D02*
X26150000Y-4770000D01*
X8828400Y-28396200D02*
X15431700Y-21792900D01*
X15431700Y-21792900D02*
X15431700Y-17547900D01*
X17119600Y-15860000D02*
X17119600Y-12422800D01*
X17119600Y-12422800D02*
X22128300Y-7414100D01*
X22128300Y-7414100D02*
X23505900Y-7414100D01*
X6948900Y-43405000D02*
X8828400Y-41525500D01*
X15431700Y-17547900D02*
X17119600Y-15860000D01*
X6525000Y-43405000D02*
X6948900Y-43405000D01*
%TO.N,GPIO23*%
X16508700Y-15195400D02*
X16508700Y-11914700D01*
X13680600Y-22010300D02*
X13680600Y-18023500D01*
X6525000Y-42135000D02*
X6996300Y-42135000D01*
X25392700Y-2230000D02*
X26150000Y-2230000D01*
X8261300Y-40870000D02*
X8261300Y-27429600D01*
X24216000Y-3406700D02*
X25392700Y-2230000D01*
X22433300Y-5990100D02*
X22433300Y-4246600D01*
X16508700Y-11914700D02*
X22433300Y-5990100D01*
X6996300Y-42135000D02*
X8261300Y-40870000D01*
X23273200Y-3406700D02*
X24216000Y-3406700D01*
X8261300Y-27429600D02*
X13680600Y-22010300D01*
X13680600Y-18023500D02*
X16508700Y-15195400D01*
X22433300Y-4246600D02*
X23273200Y-3406700D01*
%TO.N,FLOAT2_GPIO*%
X60006100Y-39985800D02*
X58691900Y-41300000D01*
X58691900Y-41300000D02*
X54912500Y-41300000D01*
X61976700Y-28013900D02*
X58823300Y-31167300D01*
X57019300Y-6823600D02*
X57296400Y-6823600D01*
X47659800Y-1040200D02*
X54565500Y-1040200D01*
X55360000Y-5164300D02*
X57019300Y-6823600D01*
X46470000Y-2230000D02*
X47659800Y-1040200D01*
X58823300Y-36412600D02*
X60006100Y-37595400D01*
X60006100Y-37595400D02*
X60006100Y-39985800D01*
X61976700Y-11503900D02*
X61976700Y-28013900D01*
X57296400Y-6823600D02*
X61976700Y-11503900D01*
X55360000Y-1834700D02*
X55360000Y-5164300D01*
X54565500Y-1040200D02*
X55360000Y-1834700D01*
X58823300Y-31167300D02*
X58823300Y-36412600D01*
%TO.N,+5V*%
X7014400Y-3585600D02*
X7014400Y-6408100D01*
X2605100Y-48516400D02*
X13358300Y-48516400D01*
X15450000Y-46424700D02*
X15450000Y-46000000D01*
X7014400Y-6408100D02*
X1067600Y-12354900D01*
X13358300Y-48516400D02*
X15450000Y-46424700D01*
X1067600Y-46978900D02*
X2605100Y-48516400D01*
X8370000Y-2230000D02*
X7014400Y-3585600D01*
X1067600Y-12354900D02*
X1067600Y-46978900D01*
%TO.N,LED2_A*%
X53355100Y-16082400D02*
X51494900Y-16082400D01*
X51494900Y-16082400D02*
X50412500Y-15000000D01*
X54437500Y-15000000D02*
X53355100Y-16082400D01*
%TD*%
%TA.AperFunction,Conductor*%
%TO.N,GND*%
G36*
X64542539Y-420185D02*
G01*
X64588294Y-472989D01*
X64599500Y-524500D01*
X64599500Y-55475500D01*
X64579815Y-55542539D01*
X64527011Y-55588294D01*
X64475500Y-55599500D01*
X524500Y-55599500D01*
X457461Y-55579815D01*
X411706Y-55527011D01*
X400500Y-55475500D01*
X400500Y-52351146D01*
X849500Y-52351146D01*
X849500Y-52648853D01*
X882830Y-52944662D01*
X882831Y-52944671D01*
X882832Y-52944675D01*
X894730Y-52996805D01*
X949076Y-53234912D01*
X949079Y-53234920D01*
X1047400Y-53515904D01*
X1176563Y-53784114D01*
X1176565Y-53784117D01*
X1334950Y-54036185D01*
X1520562Y-54268934D01*
X1731066Y-54479438D01*
X1963815Y-54665050D01*
X2215883Y-54823435D01*
X2484099Y-54952601D01*
X2695135Y-55026445D01*
X2765079Y-55050920D01*
X2765087Y-55050923D01*
X2765090Y-55050923D01*
X2765091Y-55050924D01*
X3055325Y-55117168D01*
X3351147Y-55150499D01*
X3351148Y-55150500D01*
X3351151Y-55150500D01*
X3648852Y-55150500D01*
X3648852Y-55150499D01*
X3944675Y-55117168D01*
X4234909Y-55050924D01*
X4515901Y-54952601D01*
X4784117Y-54823435D01*
X5036185Y-54665050D01*
X5268934Y-54479438D01*
X5479438Y-54268934D01*
X5665050Y-54036185D01*
X5823435Y-53784117D01*
X5952601Y-53515901D01*
X6050924Y-53234909D01*
X6117168Y-52944675D01*
X6150500Y-52648849D01*
X6150500Y-52351151D01*
X6117168Y-52055325D01*
X6050924Y-51765091D01*
X5952601Y-51484099D01*
X5838169Y-51246479D01*
X5823436Y-51215885D01*
X5823435Y-51215883D01*
X5665050Y-50963815D01*
X5479438Y-50731066D01*
X5268934Y-50520562D01*
X5261183Y-50514381D01*
X5041287Y-50339019D01*
X5036185Y-50334950D01*
X4844444Y-50214471D01*
X4784114Y-50176563D01*
X4515904Y-50047400D01*
X4234920Y-49949079D01*
X4234912Y-49949076D01*
X4017233Y-49899393D01*
X3944675Y-49882832D01*
X3944671Y-49882831D01*
X3944662Y-49882830D01*
X3648853Y-49849500D01*
X3648849Y-49849500D01*
X3351151Y-49849500D01*
X3351146Y-49849500D01*
X3055337Y-49882830D01*
X3055325Y-49882832D01*
X2765087Y-49949076D01*
X2765079Y-49949079D01*
X2484095Y-50047400D01*
X2215885Y-50176563D01*
X1963816Y-50334949D01*
X1731066Y-50520561D01*
X1520561Y-50731066D01*
X1334949Y-50963816D01*
X1176563Y-51215885D01*
X1047400Y-51484095D01*
X949079Y-51765079D01*
X949076Y-51765087D01*
X882832Y-52055325D01*
X882830Y-52055337D01*
X849500Y-52351146D01*
X400500Y-52351146D01*
X400500Y-47075126D01*
X420185Y-47008087D01*
X472989Y-46962332D01*
X542147Y-46952388D01*
X605703Y-46981413D01*
X643477Y-47040191D01*
X644261Y-47042985D01*
X671097Y-47143137D01*
X727115Y-47240163D01*
X727116Y-47240164D01*
X727117Y-47240165D01*
X2260274Y-48773321D01*
X2260284Y-48773332D01*
X2264614Y-48777662D01*
X2264615Y-48777663D01*
X2343837Y-48856885D01*
X2440863Y-48912903D01*
X2549081Y-48941900D01*
X2549082Y-48941900D01*
X2549083Y-48941900D01*
X13414316Y-48941900D01*
X13414318Y-48941900D01*
X13522537Y-48912903D01*
X13619563Y-48856885D01*
X15384629Y-47091819D01*
X15445952Y-47058334D01*
X15472310Y-47055500D01*
X15515819Y-47055500D01*
X15515826Y-47055500D01*
X15594897Y-47045090D01*
X15722064Y-47011015D01*
X15788288Y-46983584D01*
X15795734Y-46980500D01*
X15795737Y-46980498D01*
X15795743Y-46980496D01*
X15909757Y-46914670D01*
X15973028Y-46866120D01*
X15973032Y-46866115D01*
X15973037Y-46866112D01*
X16066112Y-46773037D01*
X16066115Y-46773032D01*
X16066120Y-46773028D01*
X16114670Y-46709757D01*
X16180496Y-46595743D01*
X16211015Y-46522064D01*
X16245090Y-46394897D01*
X16255500Y-46315826D01*
X16255500Y-45684174D01*
X16245090Y-45605103D01*
X16211015Y-45477936D01*
X16200842Y-45453376D01*
X16180500Y-45404265D01*
X16180492Y-45404249D01*
X16114674Y-45290250D01*
X16114670Y-45290243D01*
X16066120Y-45226972D01*
X16066119Y-45226971D01*
X16066112Y-45226963D01*
X15980997Y-45141848D01*
X15947512Y-45080525D01*
X15952496Y-45010833D01*
X15994368Y-44954900D01*
X16049276Y-44931695D01*
X16109409Y-44922171D01*
X16281639Y-44866211D01*
X16281639Y-44866210D01*
X16281644Y-44866209D01*
X16445704Y-44782615D01*
X16514374Y-44769718D01*
X16579114Y-44795994D01*
X16619372Y-44853100D01*
X16626000Y-44893099D01*
X16626000Y-47220889D01*
X16606315Y-47287928D01*
X16589681Y-47308570D01*
X13435069Y-50463181D01*
X13373746Y-50496666D01*
X13347388Y-50499500D01*
X11506908Y-50499500D01*
X11418437Y-50510123D01*
X11277657Y-50565639D01*
X11277655Y-50565640D01*
X11157077Y-50657077D01*
X11065640Y-50777655D01*
X11065639Y-50777658D01*
X11010267Y-50918075D01*
X11010124Y-50918437D01*
X11010123Y-50918438D01*
X10999500Y-51006900D01*
X10999500Y-52993091D01*
X11010123Y-53081562D01*
X11065639Y-53222342D01*
X11065640Y-53222344D01*
X11157077Y-53342922D01*
X11277655Y-53434359D01*
X11277658Y-53434361D01*
X11418436Y-53489876D01*
X11506901Y-53500500D01*
X13493098Y-53500499D01*
X13581564Y-53489876D01*
X13722342Y-53434361D01*
X13842922Y-53342922D01*
X13934361Y-53222342D01*
X13989876Y-53081564D01*
X14000500Y-52993099D01*
X14000499Y-51888575D01*
X14300000Y-51888575D01*
X14300000Y-52111424D01*
X14329085Y-52332354D01*
X14329088Y-52332367D01*
X14386763Y-52547618D01*
X14472045Y-52753502D01*
X14472050Y-52753514D01*
X14583468Y-52946497D01*
X14603340Y-52972393D01*
X14603341Y-52972394D01*
X15420444Y-52155291D01*
X15440889Y-52231591D01*
X15519881Y-52368408D01*
X15631592Y-52480119D01*
X15768409Y-52559111D01*
X15844708Y-52579555D01*
X15027605Y-53396657D01*
X15027605Y-53396658D01*
X15053502Y-53416530D01*
X15246485Y-53527949D01*
X15246497Y-53527954D01*
X15452381Y-53613236D01*
X15667632Y-53670911D01*
X15667645Y-53670914D01*
X15888575Y-53700000D01*
X16111425Y-53700000D01*
X16332354Y-53670914D01*
X16332367Y-53670911D01*
X16547618Y-53613236D01*
X16753502Y-53527954D01*
X16753514Y-53527949D01*
X16946496Y-53416531D01*
X16946500Y-53416529D01*
X16972393Y-53396658D01*
X16972393Y-53396656D01*
X16155291Y-52579555D01*
X16231591Y-52559111D01*
X16368408Y-52480119D01*
X16480119Y-52368408D01*
X16559111Y-52231591D01*
X16579555Y-52155291D01*
X17396656Y-52972393D01*
X17396658Y-52972393D01*
X17416529Y-52946500D01*
X17416531Y-52946496D01*
X17527949Y-52753514D01*
X17527954Y-52753502D01*
X17613236Y-52547618D01*
X17670911Y-52332367D01*
X17670914Y-52332354D01*
X17700000Y-52111424D01*
X17700000Y-51888575D01*
X17670914Y-51667645D01*
X17670911Y-51667632D01*
X17613236Y-51452381D01*
X17527954Y-51246497D01*
X17527949Y-51246485D01*
X17416530Y-51053502D01*
X17396658Y-51027605D01*
X17396657Y-51027605D01*
X16579555Y-51844707D01*
X16559111Y-51768409D01*
X16480119Y-51631592D01*
X16368408Y-51519881D01*
X16231591Y-51440889D01*
X16155291Y-51420444D01*
X16972394Y-50603341D01*
X16972393Y-50603340D01*
X16946497Y-50583468D01*
X16753514Y-50472050D01*
X16753502Y-50472045D01*
X16547618Y-50386763D01*
X16332367Y-50329088D01*
X16332354Y-50329085D01*
X16111425Y-50300000D01*
X15888575Y-50300000D01*
X15667645Y-50329085D01*
X15667632Y-50329088D01*
X15452381Y-50386763D01*
X15246497Y-50472045D01*
X15246479Y-50472054D01*
X15053511Y-50583462D01*
X15027605Y-50603341D01*
X15844708Y-51420444D01*
X15768409Y-51440889D01*
X15631592Y-51519881D01*
X15519881Y-51631592D01*
X15440889Y-51768409D01*
X15420444Y-51844708D01*
X14603341Y-51027605D01*
X14583462Y-51053511D01*
X14472054Y-51246479D01*
X14472045Y-51246497D01*
X14386763Y-51452381D01*
X14329088Y-51667632D01*
X14329085Y-51667645D01*
X14300000Y-51888575D01*
X14000499Y-51888575D01*
X14000499Y-51152608D01*
X14020184Y-51085570D01*
X14036813Y-51064933D01*
X17391985Y-47709763D01*
X17448003Y-47612737D01*
X17477000Y-47504518D01*
X17477000Y-47392482D01*
X17477000Y-45055987D01*
X17496685Y-44988948D01*
X17549489Y-44943193D01*
X17618647Y-44933249D01*
X17667640Y-44953136D01*
X17668290Y-44952077D01*
X17672437Y-44954618D01*
X17861782Y-45051095D01*
X18063870Y-45116757D01*
X18273754Y-45150000D01*
X18486246Y-45150000D01*
X18696127Y-45116757D01*
X18696130Y-45116757D01*
X18898217Y-45051095D01*
X19087555Y-44954622D01*
X19088508Y-44953930D01*
X19088934Y-44953777D01*
X19091710Y-44952077D01*
X19092067Y-44952659D01*
X19154313Y-44930446D01*
X19222368Y-44946267D01*
X19271066Y-44996369D01*
X19285400Y-45054243D01*
X19285400Y-49912482D01*
X19285400Y-50024518D01*
X19314397Y-50132737D01*
X19370415Y-50229763D01*
X22951115Y-53810463D01*
X23030337Y-53889685D01*
X23127363Y-53945703D01*
X23235582Y-53974700D01*
X23235584Y-53974700D01*
X35006816Y-53974700D01*
X35006818Y-53974700D01*
X35115037Y-53945703D01*
X35212063Y-53889685D01*
X35564929Y-53536817D01*
X35626252Y-53503333D01*
X35652610Y-53500499D01*
X37347389Y-53500499D01*
X37414428Y-53520184D01*
X37435070Y-53536818D01*
X38225837Y-54327585D01*
X38322863Y-54383603D01*
X38431082Y-54412600D01*
X38431084Y-54412600D01*
X40894516Y-54412600D01*
X40894518Y-54412600D01*
X41002737Y-54383603D01*
X41099763Y-54327585D01*
X44811685Y-50615663D01*
X44867703Y-50518637D01*
X44896700Y-50410418D01*
X44896700Y-50298381D01*
X44896700Y-44509054D01*
X45944500Y-44509054D01*
X45944500Y-44690945D01*
X45972951Y-44870580D01*
X46029157Y-45043562D01*
X46079237Y-45141848D01*
X46102072Y-45186664D01*
X46111730Y-45205617D01*
X46218628Y-45352751D01*
X46218632Y-45352756D01*
X46347243Y-45481367D01*
X46347248Y-45481371D01*
X46462256Y-45564928D01*
X46494386Y-45588272D01*
X46568924Y-45626251D01*
X46656437Y-45670842D01*
X46656439Y-45670842D01*
X46656442Y-45670844D01*
X46749162Y-45700970D01*
X46829419Y-45727048D01*
X47009055Y-45755500D01*
X47009060Y-45755500D01*
X47190945Y-45755500D01*
X47370580Y-45727048D01*
X47383574Y-45722826D01*
X47543558Y-45670844D01*
X47705614Y-45588272D01*
X47852758Y-45481366D01*
X47981366Y-45352758D01*
X48088272Y-45205614D01*
X48170844Y-45043558D01*
X48227048Y-44870580D01*
X48234621Y-44822764D01*
X48255500Y-44690945D01*
X48255500Y-44509054D01*
X48227048Y-44329419D01*
X48185029Y-44200099D01*
X48170844Y-44156442D01*
X48170842Y-44156439D01*
X48170842Y-44156437D01*
X48124523Y-44065533D01*
X48088272Y-43994386D01*
X48048926Y-43940230D01*
X47981371Y-43847248D01*
X47981367Y-43847243D01*
X47852756Y-43718632D01*
X47852751Y-43718628D01*
X47705617Y-43611730D01*
X47705616Y-43611729D01*
X47705614Y-43611728D01*
X47645060Y-43580874D01*
X47543562Y-43529157D01*
X47370580Y-43472951D01*
X47190945Y-43444500D01*
X47190940Y-43444500D01*
X47009060Y-43444500D01*
X47009055Y-43444500D01*
X46829419Y-43472951D01*
X46656437Y-43529157D01*
X46494382Y-43611730D01*
X46347248Y-43718628D01*
X46347243Y-43718632D01*
X46218632Y-43847243D01*
X46218628Y-43847248D01*
X46111730Y-43994382D01*
X46029157Y-44156437D01*
X45972951Y-44329419D01*
X45944500Y-44509054D01*
X44896700Y-44509054D01*
X44896700Y-40488800D01*
X44916385Y-40421761D01*
X44969189Y-40376006D01*
X45038347Y-40366062D01*
X45101903Y-40395087D01*
X45108381Y-40401119D01*
X45189918Y-40482656D01*
X45189923Y-40482660D01*
X45320672Y-40577654D01*
X45387361Y-40626106D01*
X45604815Y-40736904D01*
X45688818Y-40764198D01*
X45746494Y-40803636D01*
X45773692Y-40867994D01*
X45774500Y-40882129D01*
X45774500Y-40932718D01*
X45803497Y-41040937D01*
X45859515Y-41137963D01*
X45859517Y-41137965D01*
X55462081Y-50740529D01*
X55495566Y-50801852D01*
X55490582Y-50871544D01*
X55462082Y-50915891D01*
X55355482Y-51022491D01*
X55216657Y-51213566D01*
X55109433Y-51424003D01*
X55036446Y-51648631D01*
X54999500Y-51881902D01*
X54999500Y-52118097D01*
X55036446Y-52351368D01*
X55109433Y-52575996D01*
X55175860Y-52706365D01*
X55216657Y-52786433D01*
X55341973Y-52958916D01*
X55365453Y-53024720D01*
X55349628Y-53092774D01*
X55299522Y-53141469D01*
X55241655Y-53155800D01*
X54258345Y-53155800D01*
X54191306Y-53136115D01*
X54145551Y-53083311D01*
X54135607Y-53014153D01*
X54158025Y-52958916D01*
X54283343Y-52786433D01*
X54390568Y-52575992D01*
X54463553Y-52351368D01*
X54463588Y-52351146D01*
X54500500Y-52118097D01*
X54500500Y-51881902D01*
X54463553Y-51648631D01*
X54410093Y-51484099D01*
X54390568Y-51424008D01*
X54390566Y-51424005D01*
X54390566Y-51424003D01*
X54308102Y-51262160D01*
X54283343Y-51213567D01*
X54144517Y-51022490D01*
X53977510Y-50855483D01*
X53786433Y-50716657D01*
X53575996Y-50609433D01*
X53351368Y-50536446D01*
X53118097Y-50499500D01*
X53118092Y-50499500D01*
X52881908Y-50499500D01*
X52881903Y-50499500D01*
X52648631Y-50536446D01*
X52424003Y-50609433D01*
X52213566Y-50716657D01*
X52104550Y-50795862D01*
X52022490Y-50855483D01*
X52022488Y-50855485D01*
X52022487Y-50855485D01*
X51855485Y-51022487D01*
X51855485Y-51022488D01*
X51855483Y-51022490D01*
X51832946Y-51053510D01*
X51716657Y-51213566D01*
X51609433Y-51424003D01*
X51536446Y-51648631D01*
X51499500Y-51881902D01*
X51499500Y-52118097D01*
X51536446Y-52351368D01*
X51609433Y-52575996D01*
X51675860Y-52706365D01*
X51716657Y-52786433D01*
X51841973Y-52958916D01*
X51865453Y-53024720D01*
X51849628Y-53092774D01*
X51799522Y-53141469D01*
X51741655Y-53155800D01*
X51308910Y-53155800D01*
X51241871Y-53136115D01*
X51221229Y-53119481D01*
X51036818Y-52935070D01*
X51003333Y-52873747D01*
X51000499Y-52847389D01*
X51000499Y-51006908D01*
X51000499Y-51006906D01*
X51000499Y-51006902D01*
X50989876Y-50918436D01*
X50934361Y-50777658D01*
X50934359Y-50777655D01*
X50842922Y-50657077D01*
X50722344Y-50565640D01*
X50722342Y-50565639D01*
X50581564Y-50510124D01*
X50581561Y-50510123D01*
X50493099Y-50499500D01*
X48506908Y-50499500D01*
X48418437Y-50510123D01*
X48277657Y-50565639D01*
X48277655Y-50565640D01*
X48157077Y-50657077D01*
X48065640Y-50777655D01*
X48065639Y-50777658D01*
X48010267Y-50918075D01*
X48010124Y-50918437D01*
X48010123Y-50918438D01*
X47999500Y-51006900D01*
X47999500Y-52993091D01*
X48010123Y-53081562D01*
X48065639Y-53222342D01*
X48065640Y-53222344D01*
X48157077Y-53342922D01*
X48277655Y-53434359D01*
X48277658Y-53434361D01*
X48418436Y-53489876D01*
X48506901Y-53500500D01*
X50347389Y-53500499D01*
X50414428Y-53520184D01*
X50435070Y-53536818D01*
X50820037Y-53921785D01*
X50917063Y-53977803D01*
X51025282Y-54006800D01*
X51025284Y-54006800D01*
X57150616Y-54006800D01*
X57150618Y-54006800D01*
X57258837Y-53977803D01*
X57355863Y-53921785D01*
X58645081Y-52632566D01*
X58706402Y-52599083D01*
X58776094Y-52604067D01*
X58832027Y-52645939D01*
X58855980Y-52706365D01*
X58882830Y-52944662D01*
X58882831Y-52944671D01*
X58882832Y-52944675D01*
X58894730Y-52996805D01*
X58949076Y-53234912D01*
X58949079Y-53234920D01*
X59047400Y-53515904D01*
X59176563Y-53784114D01*
X59176565Y-53784117D01*
X59334950Y-54036185D01*
X59520562Y-54268934D01*
X59731066Y-54479438D01*
X59963815Y-54665050D01*
X60215883Y-54823435D01*
X60484099Y-54952601D01*
X60695135Y-55026445D01*
X60765079Y-55050920D01*
X60765087Y-55050923D01*
X60765090Y-55050923D01*
X60765091Y-55050924D01*
X61055325Y-55117168D01*
X61351147Y-55150499D01*
X61351148Y-55150500D01*
X61351151Y-55150500D01*
X61648852Y-55150500D01*
X61648852Y-55150499D01*
X61944675Y-55117168D01*
X62234909Y-55050924D01*
X62515901Y-54952601D01*
X62784117Y-54823435D01*
X63036185Y-54665050D01*
X63268934Y-54479438D01*
X63479438Y-54268934D01*
X63665050Y-54036185D01*
X63823435Y-53784117D01*
X63952601Y-53515901D01*
X64050924Y-53234909D01*
X64117168Y-52944675D01*
X64150500Y-52648849D01*
X64150500Y-52351151D01*
X64117168Y-52055325D01*
X64050924Y-51765091D01*
X63952601Y-51484099D01*
X63838169Y-51246479D01*
X63823436Y-51215885D01*
X63823435Y-51215883D01*
X63665050Y-50963815D01*
X63479438Y-50731066D01*
X63268934Y-50520562D01*
X63261183Y-50514381D01*
X63041287Y-50339019D01*
X63036185Y-50334950D01*
X62844444Y-50214471D01*
X62784114Y-50176563D01*
X62515904Y-50047400D01*
X62234920Y-49949079D01*
X62234912Y-49949076D01*
X62017233Y-49899393D01*
X61944675Y-49882832D01*
X61944671Y-49882831D01*
X61944662Y-49882830D01*
X61648853Y-49849500D01*
X61648849Y-49849500D01*
X61351151Y-49849500D01*
X61351146Y-49849500D01*
X61055337Y-49882830D01*
X61055325Y-49882832D01*
X60765087Y-49949076D01*
X60765079Y-49949079D01*
X60484095Y-50047400D01*
X60215885Y-50176563D01*
X59963816Y-50334949D01*
X59731066Y-50520561D01*
X59520561Y-50731066D01*
X59363847Y-50927579D01*
X59306658Y-50967719D01*
X59236847Y-50970569D01*
X59176577Y-50935223D01*
X59144984Y-50872904D01*
X59142900Y-50850266D01*
X59142900Y-46007610D01*
X59162585Y-45940571D01*
X59179219Y-45919929D01*
X60013823Y-45085325D01*
X60853485Y-44245663D01*
X60909503Y-44148637D01*
X60938500Y-44040418D01*
X60938500Y-43928381D01*
X60938500Y-34974499D01*
X60958185Y-34907460D01*
X61010989Y-34861705D01*
X61062500Y-34850499D01*
X61694856Y-34850499D01*
X61694864Y-34850499D01*
X61694879Y-34850497D01*
X61694882Y-34850497D01*
X61719987Y-34847586D01*
X61719988Y-34847585D01*
X61719991Y-34847585D01*
X61822765Y-34802206D01*
X61902206Y-34722765D01*
X61947585Y-34619991D01*
X61950500Y-34594865D01*
X61950499Y-32005136D01*
X61950085Y-32001563D01*
X61947586Y-31980012D01*
X61947585Y-31980010D01*
X61947585Y-31980009D01*
X61902206Y-31877235D01*
X61822765Y-31797794D01*
X61822763Y-31797793D01*
X61719992Y-31752415D01*
X61694868Y-31749500D01*
X61694865Y-31749500D01*
X59372800Y-31749500D01*
X59305761Y-31729815D01*
X59260006Y-31677011D01*
X59248800Y-31625500D01*
X59248800Y-31394910D01*
X59268485Y-31327871D01*
X59285119Y-31307229D01*
X60786643Y-29805705D01*
X62317185Y-28275163D01*
X62373203Y-28178137D01*
X62402200Y-28069918D01*
X62402200Y-27957882D01*
X62402200Y-11447882D01*
X62373203Y-11339663D01*
X62317185Y-11242637D01*
X62237963Y-11163415D01*
X57557663Y-6483115D01*
X57460637Y-6427097D01*
X57352418Y-6398100D01*
X57352417Y-6398100D01*
X57246910Y-6398100D01*
X57179871Y-6378415D01*
X57159229Y-6361781D01*
X57042474Y-6245026D01*
X57008989Y-6183703D01*
X57013973Y-6114011D01*
X57055845Y-6058078D01*
X57091838Y-6039414D01*
X57148215Y-6021096D01*
X57337556Y-5924620D01*
X57337563Y-5924617D01*
X57350761Y-5915026D01*
X57350762Y-5915025D01*
X56703642Y-5267905D01*
X56822993Y-5235925D01*
X56937007Y-5170099D01*
X57030099Y-5077007D01*
X57095925Y-4962993D01*
X57127905Y-4843641D01*
X57775025Y-5490762D01*
X57775026Y-5490761D01*
X57784617Y-5477563D01*
X57784620Y-5477556D01*
X57881095Y-5288217D01*
X57946757Y-5086130D01*
X57946757Y-5086127D01*
X57980000Y-4876246D01*
X57980000Y-4663753D01*
X57946757Y-4453872D01*
X57946757Y-4453869D01*
X57881095Y-4251782D01*
X57784626Y-4062453D01*
X57784618Y-4062440D01*
X57775025Y-4049237D01*
X57775025Y-4049236D01*
X57127905Y-4696357D01*
X57095925Y-4577007D01*
X57030099Y-4462993D01*
X56937007Y-4369901D01*
X56822993Y-4304075D01*
X56703640Y-4272093D01*
X57350761Y-3624973D01*
X57337550Y-3615375D01*
X57148217Y-3518904D01*
X57119292Y-3509506D01*
X57101014Y-3497008D01*
X57080495Y-3488680D01*
X57072733Y-3477670D01*
X57061616Y-3470068D01*
X57052996Y-3449671D01*
X57040238Y-3431573D01*
X57039661Y-3418116D01*
X57034418Y-3405710D01*
X57038194Y-3383890D01*
X57037246Y-3361768D01*
X57043446Y-3351146D01*
X58849500Y-3351146D01*
X58849500Y-3648853D01*
X58882830Y-3944662D01*
X58882831Y-3944671D01*
X58882832Y-3944675D01*
X58896317Y-4003757D01*
X58949076Y-4234912D01*
X58949079Y-4234920D01*
X59047400Y-4515904D01*
X59176563Y-4784114D01*
X59176565Y-4784117D01*
X59334950Y-5036185D01*
X59520562Y-5268934D01*
X59731066Y-5479438D01*
X59963815Y-5665050D01*
X60215883Y-5823435D01*
X60484099Y-5952601D01*
X60627326Y-6002718D01*
X60765079Y-6050920D01*
X60765087Y-6050923D01*
X60765090Y-6050923D01*
X60765091Y-6050924D01*
X61055325Y-6117168D01*
X61351147Y-6150499D01*
X61351148Y-6150500D01*
X61351151Y-6150500D01*
X61648852Y-6150500D01*
X61648852Y-6150499D01*
X61944675Y-6117168D01*
X62234909Y-6050924D01*
X62515901Y-5952601D01*
X62784117Y-5823435D01*
X63036185Y-5665050D01*
X63268934Y-5479438D01*
X63479438Y-5268934D01*
X63665050Y-5036185D01*
X63823435Y-4784117D01*
X63952601Y-4515901D01*
X64050924Y-4234909D01*
X64117168Y-3944675D01*
X64150500Y-3648849D01*
X64150500Y-3351151D01*
X64117168Y-3055325D01*
X64050924Y-2765091D01*
X63952601Y-2484099D01*
X63823435Y-2215883D01*
X63665050Y-1963815D01*
X63479438Y-1731066D01*
X63268934Y-1520562D01*
X63258932Y-1512586D01*
X63179094Y-1448917D01*
X63036185Y-1334950D01*
X62784117Y-1176565D01*
X62784114Y-1176563D01*
X62515904Y-1047400D01*
X62234920Y-949079D01*
X62234912Y-949076D01*
X62017233Y-899393D01*
X61944675Y-882832D01*
X61944671Y-882831D01*
X61944662Y-882830D01*
X61648853Y-849500D01*
X61648849Y-849500D01*
X61351151Y-849500D01*
X61351146Y-849500D01*
X61055337Y-882830D01*
X61055325Y-882832D01*
X60765087Y-949076D01*
X60765079Y-949079D01*
X60484095Y-1047400D01*
X60215885Y-1176563D01*
X59963816Y-1334949D01*
X59731066Y-1520561D01*
X59520561Y-1731066D01*
X59334949Y-1963816D01*
X59176563Y-2215885D01*
X59047400Y-2484095D01*
X58949079Y-2765079D01*
X58949076Y-2765087D01*
X58882832Y-3055325D01*
X58882830Y-3055337D01*
X58849500Y-3351146D01*
X57043446Y-3351146D01*
X57044036Y-3350135D01*
X57046333Y-3336863D01*
X57061305Y-3320549D01*
X57072468Y-3301426D01*
X57090568Y-3288665D01*
X57093577Y-3285388D01*
X57101315Y-3281090D01*
X57167471Y-3247382D01*
X57232994Y-3213996D01*
X57379501Y-3107553D01*
X57507553Y-2979501D01*
X57613996Y-2832994D01*
X57696211Y-2671639D01*
X57752171Y-2499409D01*
X57766765Y-2407259D01*
X57780500Y-2320551D01*
X57780500Y-2139448D01*
X57754112Y-1972848D01*
X57752171Y-1960591D01*
X57708530Y-1826275D01*
X57696212Y-1788363D01*
X57696211Y-1788360D01*
X57623671Y-1645995D01*
X57613996Y-1627006D01*
X57538449Y-1523024D01*
X57507558Y-1480505D01*
X57507554Y-1480500D01*
X57379499Y-1352445D01*
X57379494Y-1352441D01*
X57232997Y-1246006D01*
X57232996Y-1246005D01*
X57232994Y-1246004D01*
X57181300Y-1219664D01*
X57071639Y-1163788D01*
X57071636Y-1163787D01*
X56899410Y-1107829D01*
X56720551Y-1079500D01*
X56720546Y-1079500D01*
X56539454Y-1079500D01*
X56539449Y-1079500D01*
X56360589Y-1107829D01*
X56188363Y-1163787D01*
X56188360Y-1163788D01*
X56027002Y-1246006D01*
X55880505Y-1352441D01*
X55880500Y-1352445D01*
X55767678Y-1465268D01*
X55706355Y-1498753D01*
X55636663Y-1493769D01*
X55592316Y-1465268D01*
X54826765Y-699717D01*
X54826763Y-699715D01*
X54729737Y-643697D01*
X54729735Y-643696D01*
X54722230Y-640588D01*
X54722958Y-638829D01*
X54672232Y-607909D01*
X54641703Y-545062D01*
X54649998Y-475687D01*
X54694484Y-421809D01*
X54761036Y-400535D01*
X54763986Y-400500D01*
X64475500Y-400500D01*
X64542539Y-420185D01*
G37*
%TD.AperFunction*%
%TA.AperFunction,Conductor*%
G36*
X24755703Y-10168897D02*
G01*
X24762181Y-10174929D01*
X24977737Y-10390485D01*
X25074763Y-10446503D01*
X25182982Y-10475500D01*
X25295019Y-10475500D01*
X31013690Y-10475500D01*
X31080729Y-10495185D01*
X31101371Y-10511819D01*
X31137371Y-10547819D01*
X31170856Y-10609142D01*
X31165872Y-10678834D01*
X31124000Y-10734767D01*
X31058536Y-10759184D01*
X31049690Y-10759500D01*
X26306901Y-10759500D01*
X26218433Y-10770123D01*
X26218429Y-10770124D01*
X26077658Y-10825637D01*
X26077656Y-10825638D01*
X25957076Y-10917076D01*
X25865638Y-11037656D01*
X25865637Y-11037658D01*
X25810123Y-11178431D01*
X25810123Y-11178433D01*
X25799500Y-11266895D01*
X25799500Y-11266899D01*
X25799500Y-11266900D01*
X25799500Y-17253098D01*
X25799501Y-17253104D01*
X25810123Y-17341567D01*
X25810123Y-17341568D01*
X25810124Y-17341570D01*
X25865637Y-17482341D01*
X25865638Y-17482343D01*
X25957076Y-17602923D01*
X26077656Y-17694361D01*
X26077658Y-17694362D01*
X26097549Y-17702206D01*
X26218433Y-17749877D01*
X26306895Y-17760500D01*
X27360240Y-17760499D01*
X27427277Y-17780183D01*
X27473032Y-17832987D01*
X27482976Y-17902146D01*
X27465777Y-17949595D01*
X27415645Y-18030871D01*
X27415641Y-18030880D01*
X27360494Y-18197302D01*
X27360493Y-18197309D01*
X27350000Y-18300013D01*
X27350000Y-19050000D01*
X30649999Y-19050000D01*
X30649999Y-18300028D01*
X30649998Y-18300013D01*
X30639505Y-18197302D01*
X30584358Y-18030880D01*
X30584353Y-18030869D01*
X30534223Y-17949596D01*
X30515782Y-17882204D01*
X30536704Y-17815540D01*
X30590346Y-17770770D01*
X30639760Y-17760499D01*
X31693104Y-17760499D01*
X31781567Y-17749877D01*
X31922344Y-17694361D01*
X32042923Y-17602923D01*
X32134361Y-17482344D01*
X32189877Y-17341567D01*
X32200500Y-17253105D01*
X32200499Y-11910307D01*
X32220184Y-11843269D01*
X32272988Y-11797514D01*
X32342146Y-11787570D01*
X32405702Y-11816595D01*
X32412180Y-11822627D01*
X33161381Y-12571828D01*
X33194866Y-12633151D01*
X33197700Y-12659509D01*
X33197700Y-19603982D01*
X33197700Y-19716018D01*
X33226697Y-19824237D01*
X33282715Y-19921263D01*
X33282717Y-19921265D01*
X34196936Y-20835484D01*
X34230421Y-20896807D01*
X34225437Y-20966499D01*
X34192727Y-21013265D01*
X34193362Y-21013900D01*
X34017343Y-21189918D01*
X34017339Y-21189923D01*
X33873896Y-21387357D01*
X33763097Y-21604812D01*
X33763096Y-21604814D01*
X33763096Y-21604815D01*
X33687679Y-21836924D01*
X33660696Y-22007287D01*
X33649500Y-22077973D01*
X33649500Y-22322026D01*
X33680608Y-22518436D01*
X33687679Y-22563076D01*
X33763096Y-22795185D01*
X33867454Y-23000000D01*
X33873896Y-23012642D01*
X34017339Y-23210076D01*
X34017343Y-23210081D01*
X34189918Y-23382656D01*
X34189923Y-23382660D01*
X34291490Y-23456452D01*
X34387361Y-23526106D01*
X34604815Y-23636904D01*
X34836924Y-23712321D01*
X35077973Y-23750500D01*
X35077974Y-23750500D01*
X35322026Y-23750500D01*
X35322027Y-23750500D01*
X35563076Y-23712321D01*
X35795185Y-23636904D01*
X36012639Y-23526106D01*
X36154315Y-23423173D01*
X36220121Y-23399693D01*
X36288175Y-23415518D01*
X36336870Y-23465624D01*
X36351200Y-23523491D01*
X36351200Y-23918990D01*
X36331515Y-23986029D01*
X36314881Y-24006671D01*
X34859517Y-25462034D01*
X34859513Y-25462040D01*
X34803498Y-25559060D01*
X34803497Y-25559063D01*
X34774500Y-25667282D01*
X34774500Y-25717870D01*
X34754815Y-25784909D01*
X34702011Y-25830664D01*
X34688819Y-25835801D01*
X34604810Y-25863097D01*
X34387357Y-25973896D01*
X34189923Y-26117339D01*
X34189918Y-26117343D01*
X34017343Y-26289918D01*
X34017339Y-26289923D01*
X33873896Y-26487357D01*
X33763097Y-26704812D01*
X33763096Y-26704814D01*
X33763096Y-26704815D01*
X33737003Y-26785123D01*
X33735802Y-26788818D01*
X33696364Y-26846494D01*
X33632006Y-26873692D01*
X33617871Y-26874500D01*
X33567281Y-26874500D01*
X33459063Y-26903497D01*
X33459061Y-26903498D01*
X33459060Y-26903498D01*
X33362040Y-26959513D01*
X33362034Y-26959517D01*
X31483371Y-28838181D01*
X31422048Y-28871666D01*
X31395690Y-28874500D01*
X30224500Y-28874500D01*
X30157461Y-28854815D01*
X30111706Y-28802011D01*
X30100500Y-28750500D01*
X30100500Y-27756903D01*
X30100500Y-27756898D01*
X30089877Y-27668436D01*
X30034361Y-27527658D01*
X30034360Y-27527657D01*
X30034360Y-27527656D01*
X29942922Y-27407077D01*
X29822341Y-27315638D01*
X29758733Y-27290554D01*
X29703590Y-27247648D01*
X29680397Y-27181740D01*
X29685568Y-27139189D01*
X29686673Y-27135542D01*
X29686680Y-27135528D01*
X29713600Y-27000193D01*
X29713600Y-26862207D01*
X29713600Y-26862204D01*
X29686681Y-26726877D01*
X29686680Y-26726876D01*
X29686680Y-26726872D01*
X29677544Y-26704815D01*
X29633878Y-26599395D01*
X29633871Y-26599382D01*
X29557214Y-26484658D01*
X29557211Y-26484654D01*
X29474919Y-26402362D01*
X29441434Y-26341039D01*
X29438600Y-26314681D01*
X29438600Y-25324500D01*
X29458285Y-25257461D01*
X29511089Y-25211706D01*
X29562600Y-25200500D01*
X29943097Y-25200500D01*
X29943102Y-25200500D01*
X30031564Y-25189877D01*
X30172342Y-25134361D01*
X30292922Y-25042922D01*
X30384361Y-24922342D01*
X30439877Y-24781564D01*
X30450500Y-24693102D01*
X30450500Y-22606898D01*
X30439877Y-22518436D01*
X30384361Y-22377658D01*
X30384360Y-22377657D01*
X30384360Y-22377656D01*
X30292922Y-22257077D01*
X30172343Y-22165639D01*
X30031561Y-22110122D01*
X29985926Y-22104642D01*
X29943102Y-22099500D01*
X28056898Y-22099500D01*
X28017853Y-22104188D01*
X27968438Y-22110122D01*
X27827656Y-22165639D01*
X27707077Y-22257077D01*
X27615639Y-22377656D01*
X27560122Y-22518438D01*
X27556989Y-22544534D01*
X27549500Y-22606898D01*
X27549500Y-24693102D01*
X27552946Y-24721797D01*
X27560122Y-24781561D01*
X27560122Y-24781563D01*
X27560123Y-24781564D01*
X27567241Y-24799614D01*
X27615639Y-24922343D01*
X27707077Y-25042922D01*
X27827656Y-25134360D01*
X27827657Y-25134360D01*
X27827658Y-25134361D01*
X27968436Y-25189877D01*
X28056898Y-25200500D01*
X28463600Y-25200500D01*
X28530639Y-25220185D01*
X28576394Y-25272989D01*
X28587600Y-25324500D01*
X28587600Y-26314681D01*
X28567915Y-26381720D01*
X28551281Y-26402362D01*
X28468988Y-26484654D01*
X28468985Y-26484658D01*
X28392328Y-26599382D01*
X28392321Y-26599395D01*
X28339521Y-26726867D01*
X28339518Y-26726877D01*
X28312600Y-26862204D01*
X28312600Y-26862207D01*
X28312600Y-27000193D01*
X28312600Y-27000195D01*
X28312599Y-27000195D01*
X28340708Y-27141502D01*
X28337968Y-27142046D01*
X28338422Y-27199973D01*
X28301110Y-27259046D01*
X28264666Y-27281326D01*
X28177658Y-27315638D01*
X28057077Y-27407077D01*
X27965639Y-27527656D01*
X27910122Y-27668438D01*
X27904188Y-27717853D01*
X27899500Y-27756898D01*
X27899500Y-30843102D01*
X27902539Y-30868409D01*
X27910122Y-30931561D01*
X27965639Y-31072343D01*
X28057077Y-31192922D01*
X28177656Y-31284360D01*
X28177657Y-31284360D01*
X28177658Y-31284361D01*
X28318436Y-31339877D01*
X28406898Y-31350500D01*
X28406903Y-31350500D01*
X29596808Y-31350500D01*
X29596808Y-31352034D01*
X29658834Y-31366252D01*
X29707687Y-31416204D01*
X29722200Y-31474416D01*
X29722200Y-32326000D01*
X29702515Y-32393039D01*
X29649711Y-32438794D01*
X29598200Y-32450000D01*
X29300000Y-32450000D01*
X29300000Y-36949999D01*
X29598200Y-36949999D01*
X29665239Y-36969684D01*
X29710994Y-37022488D01*
X29722200Y-37073999D01*
X29722200Y-37674690D01*
X29702515Y-37741729D01*
X29685881Y-37762371D01*
X29235071Y-38213181D01*
X29173748Y-38246666D01*
X29147390Y-38249500D01*
X28481898Y-38249500D01*
X28442853Y-38254188D01*
X28393438Y-38260122D01*
X28252656Y-38315639D01*
X28132077Y-38407077D01*
X28040639Y-38527656D01*
X27985122Y-38668438D01*
X27981249Y-38700694D01*
X27974500Y-38756898D01*
X27974500Y-39343102D01*
X27980126Y-39389954D01*
X27985122Y-39431561D01*
X27985122Y-39431563D01*
X27985123Y-39431564D01*
X27991681Y-39448194D01*
X28040639Y-39572343D01*
X28132077Y-39692922D01*
X28259416Y-39789486D01*
X28258028Y-39791315D01*
X28298315Y-39832618D01*
X28312316Y-39901071D01*
X28287087Y-39966226D01*
X28230636Y-40007398D01*
X28227759Y-40008391D01*
X28205882Y-40015640D01*
X28205875Y-40015643D01*
X28056654Y-40107684D01*
X27932683Y-40231655D01*
X27928202Y-40237323D01*
X27927163Y-40236501D01*
X27880893Y-40278114D01*
X27811929Y-40289330D01*
X27747849Y-40261482D01*
X27739630Y-40253969D01*
X27643345Y-40157684D01*
X27494124Y-40065643D01*
X27494119Y-40065641D01*
X27327697Y-40010494D01*
X27327690Y-40010493D01*
X27224986Y-40000000D01*
X27212500Y-40000000D01*
X27212500Y-40900000D01*
X27645000Y-40900000D01*
X27645000Y-40774000D01*
X27664685Y-40706961D01*
X27717489Y-40661206D01*
X27769000Y-40650000D01*
X28876000Y-40650000D01*
X28943039Y-40669685D01*
X28988794Y-40722489D01*
X29000000Y-40774000D01*
X29000000Y-40950000D01*
X29176000Y-40950000D01*
X29243039Y-40969685D01*
X29288794Y-41022489D01*
X29300000Y-41074000D01*
X29300000Y-41949999D01*
X29524972Y-41949999D01*
X29524986Y-41949998D01*
X29627697Y-41939505D01*
X29794119Y-41884358D01*
X29794124Y-41884356D01*
X29943345Y-41792315D01*
X30067315Y-41668345D01*
X30159356Y-41519124D01*
X30159358Y-41519119D01*
X30214505Y-41352697D01*
X30214506Y-41352690D01*
X30224999Y-41249986D01*
X30224999Y-41176111D01*
X30244683Y-41109071D01*
X30297486Y-41063315D01*
X30366644Y-41053371D01*
X30430201Y-41082395D01*
X30436680Y-41088428D01*
X31038181Y-41689929D01*
X31071666Y-41751252D01*
X31074500Y-41777610D01*
X31074500Y-42243967D01*
X31054815Y-42311006D01*
X31006796Y-42354451D01*
X30894384Y-42411728D01*
X30747248Y-42518628D01*
X30747243Y-42518632D01*
X30618632Y-42647243D01*
X30618628Y-42647248D01*
X30511730Y-42794382D01*
X30429157Y-42956437D01*
X30372951Y-43129419D01*
X30344500Y-43309054D01*
X30344500Y-43490945D01*
X30372951Y-43670580D01*
X30429157Y-43843562D01*
X30485942Y-43955008D01*
X30505297Y-43992993D01*
X30511730Y-44005617D01*
X30618628Y-44152751D01*
X30618632Y-44152756D01*
X30747243Y-44281367D01*
X30747248Y-44281371D01*
X30815655Y-44331071D01*
X30894386Y-44388272D01*
X30991335Y-44437670D01*
X31056437Y-44470842D01*
X31056439Y-44470842D01*
X31056442Y-44470844D01*
X31147714Y-44500500D01*
X31229419Y-44527048D01*
X31409055Y-44555500D01*
X31409060Y-44555500D01*
X31590945Y-44555500D01*
X31770580Y-44527048D01*
X31825941Y-44509060D01*
X31943558Y-44470844D01*
X32105614Y-44388272D01*
X32252758Y-44281366D01*
X32381366Y-44152758D01*
X32488272Y-44005614D01*
X32570844Y-43843558D01*
X32627048Y-43670580D01*
X32636369Y-43611728D01*
X32655500Y-43490945D01*
X32655500Y-43309054D01*
X32627048Y-43129419D01*
X32592469Y-43022997D01*
X32570844Y-42956442D01*
X32570842Y-42956439D01*
X32570842Y-42956437D01*
X32516267Y-42849329D01*
X32488272Y-42794386D01*
X32444245Y-42733788D01*
X32381371Y-42647248D01*
X32381367Y-42647243D01*
X32252756Y-42518632D01*
X32252751Y-42518628D01*
X32105615Y-42411728D01*
X31993204Y-42354451D01*
X31942409Y-42306477D01*
X31925500Y-42243967D01*
X31925500Y-41493984D01*
X31925500Y-41493982D01*
X31896503Y-41385763D01*
X31840485Y-41288737D01*
X31761263Y-41209515D01*
X30054113Y-39502365D01*
X30020628Y-39441042D01*
X30018679Y-39399901D01*
X30025500Y-39343102D01*
X30025500Y-38756898D01*
X30018679Y-38700098D01*
X30030229Y-38631191D01*
X30054110Y-38597636D01*
X30488185Y-38163563D01*
X30544203Y-38066537D01*
X30573200Y-37958318D01*
X30573200Y-37846282D01*
X30573200Y-29849500D01*
X30592885Y-29782461D01*
X30645689Y-29736706D01*
X30697200Y-29725500D01*
X31679316Y-29725500D01*
X31679318Y-29725500D01*
X31787537Y-29696503D01*
X31884563Y-29640485D01*
X33597443Y-27927603D01*
X33658764Y-27894120D01*
X33728455Y-27899104D01*
X33784389Y-27940976D01*
X33795605Y-27958988D01*
X33852126Y-28069916D01*
X33873896Y-28112643D01*
X34017339Y-28310076D01*
X34017343Y-28310081D01*
X34189918Y-28482656D01*
X34189923Y-28482660D01*
X34350741Y-28599500D01*
X34387361Y-28626106D01*
X34604815Y-28736904D01*
X34836924Y-28812321D01*
X35077973Y-28850500D01*
X35077976Y-28850500D01*
X35081896Y-28850809D01*
X35147184Y-28875695D01*
X35188653Y-28931927D01*
X35193137Y-29001653D01*
X35159844Y-29062107D01*
X33324295Y-30897655D01*
X33324296Y-30897656D01*
X33262514Y-30959438D01*
X33262513Y-30959440D01*
X33206498Y-31056460D01*
X33206497Y-31056463D01*
X33177500Y-31164682D01*
X33177500Y-41546982D01*
X33177500Y-41659018D01*
X33196887Y-41731369D01*
X33206497Y-41767236D01*
X33206498Y-41767239D01*
X33220976Y-41792315D01*
X33262515Y-41864263D01*
X33262517Y-41864265D01*
X35481687Y-44083435D01*
X35515172Y-44144758D01*
X35511937Y-44209434D01*
X35472952Y-44329415D01*
X35472952Y-44329418D01*
X35444500Y-44509054D01*
X35444500Y-44690945D01*
X35472951Y-44870580D01*
X35529157Y-45043562D01*
X35579237Y-45141848D01*
X35602072Y-45186664D01*
X35611730Y-45205617D01*
X35718628Y-45352751D01*
X35718632Y-45352756D01*
X35847243Y-45481367D01*
X35847248Y-45481371D01*
X35962256Y-45564928D01*
X35994386Y-45588272D01*
X36068924Y-45626251D01*
X36156437Y-45670842D01*
X36156439Y-45670842D01*
X36156442Y-45670844D01*
X36249162Y-45700970D01*
X36329419Y-45727048D01*
X36509055Y-45755500D01*
X36509060Y-45755500D01*
X36690945Y-45755500D01*
X36870580Y-45727048D01*
X36883574Y-45722826D01*
X37043558Y-45670844D01*
X37205614Y-45588272D01*
X37352758Y-45481366D01*
X37481366Y-45352758D01*
X37588272Y-45205614D01*
X37670844Y-45043558D01*
X37727048Y-44870580D01*
X37734621Y-44822764D01*
X37755500Y-44690945D01*
X37755500Y-44509054D01*
X37727048Y-44329419D01*
X37685029Y-44200099D01*
X37670844Y-44156442D01*
X37670842Y-44156439D01*
X37670842Y-44156437D01*
X37624523Y-44065533D01*
X37588272Y-43994386D01*
X37548926Y-43940230D01*
X37481371Y-43847248D01*
X37481367Y-43847243D01*
X37352756Y-43718632D01*
X37352751Y-43718628D01*
X37205617Y-43611730D01*
X37205616Y-43611729D01*
X37205614Y-43611728D01*
X37145060Y-43580874D01*
X37043562Y-43529157D01*
X36870580Y-43472951D01*
X36690945Y-43444500D01*
X36690940Y-43444500D01*
X36509060Y-43444500D01*
X36509055Y-43444500D01*
X36329418Y-43472952D01*
X36329415Y-43472952D01*
X36209434Y-43511937D01*
X36139593Y-43513932D01*
X36083435Y-43481687D01*
X34064819Y-41463071D01*
X34031334Y-41401748D01*
X34028500Y-41375390D01*
X34028500Y-40608742D01*
X34048185Y-40541703D01*
X34100989Y-40495948D01*
X34170147Y-40486004D01*
X34225385Y-40508424D01*
X34231010Y-40512511D01*
X34387361Y-40626106D01*
X34604815Y-40736904D01*
X34836924Y-40812321D01*
X35077973Y-40850500D01*
X35077974Y-40850500D01*
X35322026Y-40850500D01*
X35322027Y-40850500D01*
X35563076Y-40812321D01*
X35795185Y-40736904D01*
X36012639Y-40626106D01*
X36210083Y-40482655D01*
X36382655Y-40310083D01*
X36526106Y-40112639D01*
X36636904Y-39895185D01*
X36712321Y-39663076D01*
X36750500Y-39422027D01*
X36750500Y-39177973D01*
X36712321Y-38936924D01*
X36636904Y-38704815D01*
X36526106Y-38487361D01*
X36492184Y-38440671D01*
X36382660Y-38289923D01*
X36382656Y-38289918D01*
X36210081Y-38117343D01*
X36210076Y-38117339D01*
X36012642Y-37973896D01*
X36012641Y-37973895D01*
X36012639Y-37973894D01*
X35795185Y-37863096D01*
X35563076Y-37787679D01*
X35563074Y-37787678D01*
X35563072Y-37787678D01*
X35363596Y-37756084D01*
X35322027Y-37749500D01*
X35077973Y-37749500D01*
X35036404Y-37756084D01*
X34836927Y-37787678D01*
X34604812Y-37863097D01*
X34387357Y-37973896D01*
X34225385Y-38091575D01*
X34159579Y-38115055D01*
X34091525Y-38099229D01*
X34042830Y-38049123D01*
X34028500Y-37991257D01*
X34028500Y-31448309D01*
X34048185Y-31381270D01*
X34064819Y-31360628D01*
X37296119Y-28129328D01*
X37357442Y-28095843D01*
X37427134Y-28100827D01*
X37483067Y-28142699D01*
X37507484Y-28208163D01*
X37507800Y-28217009D01*
X37507800Y-30956682D01*
X37507800Y-31068718D01*
X37536797Y-31176937D01*
X37592815Y-31273963D01*
X37592817Y-31273965D01*
X37856671Y-31537819D01*
X37890156Y-31599142D01*
X37885172Y-31668834D01*
X37843300Y-31724767D01*
X37777836Y-31749184D01*
X37768990Y-31749500D01*
X35905143Y-31749500D01*
X35905117Y-31749502D01*
X35880012Y-31752413D01*
X35880008Y-31752415D01*
X35777235Y-31797793D01*
X35697794Y-31877234D01*
X35652415Y-31980006D01*
X35652415Y-31980008D01*
X35649500Y-32005131D01*
X35649500Y-34594856D01*
X35649502Y-34594882D01*
X35652413Y-34619987D01*
X35652415Y-34619991D01*
X35697793Y-34722764D01*
X35697794Y-34722765D01*
X35777235Y-34802206D01*
X35880009Y-34847585D01*
X35905135Y-34850500D01*
X38288800Y-34850499D01*
X38355839Y-34870184D01*
X38401594Y-34922987D01*
X38412800Y-34974499D01*
X38412800Y-35489515D01*
X38393115Y-35556554D01*
X38340311Y-35602309D01*
X38312993Y-35611132D01*
X38278875Y-35617918D01*
X38278869Y-35617920D01*
X38151395Y-35670721D01*
X38151382Y-35670728D01*
X38036658Y-35747385D01*
X38036654Y-35747388D01*
X37939088Y-35844954D01*
X37939085Y-35844958D01*
X37862428Y-35959682D01*
X37862421Y-35959695D01*
X37809621Y-36087167D01*
X37809618Y-36087177D01*
X37782700Y-36222504D01*
X37782700Y-36222507D01*
X37782700Y-36360493D01*
X37782700Y-36360495D01*
X37782699Y-36360495D01*
X37809618Y-36495822D01*
X37809621Y-36495832D01*
X37862421Y-36623304D01*
X37862428Y-36623317D01*
X37939085Y-36738041D01*
X37939088Y-36738045D01*
X38036654Y-36835611D01*
X38036658Y-36835614D01*
X38151382Y-36912271D01*
X38151395Y-36912278D01*
X38242463Y-36949999D01*
X38278872Y-36965080D01*
X38278876Y-36965080D01*
X38278877Y-36965081D01*
X38414204Y-36992000D01*
X38414207Y-36992000D01*
X38552195Y-36992000D01*
X38664382Y-36969684D01*
X38687528Y-36965080D01*
X38693042Y-36962795D01*
X38762509Y-36955323D01*
X38824991Y-36986594D01*
X38860646Y-37046681D01*
X38864500Y-37077354D01*
X38864500Y-48583790D01*
X38844815Y-48650829D01*
X38828181Y-48671471D01*
X37534771Y-49964881D01*
X37473448Y-49998366D01*
X37447090Y-50001200D01*
X26129318Y-50001200D01*
X26017281Y-50001200D01*
X25909063Y-50030197D01*
X25909061Y-50030198D01*
X25909060Y-50030198D01*
X25812040Y-50086213D01*
X25812034Y-50086217D01*
X25435070Y-50463181D01*
X25373747Y-50496666D01*
X25347389Y-50499500D01*
X23506908Y-50499500D01*
X23418437Y-50510123D01*
X23277657Y-50565639D01*
X23277655Y-50565640D01*
X23157077Y-50657077D01*
X23065640Y-50777655D01*
X23065639Y-50777658D01*
X23010267Y-50918075D01*
X23010124Y-50918437D01*
X23010123Y-50918438D01*
X22999500Y-51006900D01*
X22999500Y-52355990D01*
X22979815Y-52423029D01*
X22927011Y-52468784D01*
X22857853Y-52478728D01*
X22794297Y-52449703D01*
X22787819Y-52443671D01*
X20172719Y-49828571D01*
X20139234Y-49767248D01*
X20136400Y-49740890D01*
X20136400Y-45118225D01*
X20156085Y-45051186D01*
X20208889Y-45005431D01*
X20278047Y-44995487D01*
X20316696Y-45007741D01*
X20401780Y-45051094D01*
X20603870Y-45116757D01*
X20813754Y-45150000D01*
X21026246Y-45150000D01*
X21236127Y-45116757D01*
X21236130Y-45116757D01*
X21438217Y-45051095D01*
X21627556Y-44954620D01*
X21627563Y-44954617D01*
X21640761Y-44945026D01*
X21640762Y-44945025D01*
X20993642Y-44297905D01*
X21112993Y-44265925D01*
X21227007Y-44200099D01*
X21320099Y-44107007D01*
X21385925Y-43992993D01*
X21417905Y-43873642D01*
X22065025Y-44520762D01*
X22065026Y-44520761D01*
X22074617Y-44507563D01*
X22074620Y-44507556D01*
X22171095Y-44318217D01*
X22180492Y-44289295D01*
X22219928Y-44231618D01*
X22284286Y-44204419D01*
X22353133Y-44216331D01*
X22404610Y-44263574D01*
X22408908Y-44271314D01*
X22476004Y-44402995D01*
X22582441Y-44549494D01*
X22582445Y-44549499D01*
X22710500Y-44677554D01*
X22710505Y-44677558D01*
X22837354Y-44769718D01*
X22857006Y-44783996D01*
X22933094Y-44822765D01*
X23018360Y-44866211D01*
X23018363Y-44866212D01*
X23058553Y-44879270D01*
X23190591Y-44922171D01*
X23273429Y-44935291D01*
X23369449Y-44950500D01*
X23369454Y-44950500D01*
X23550551Y-44950500D01*
X23637259Y-44936765D01*
X23729409Y-44922171D01*
X23901639Y-44866211D01*
X24062994Y-44783996D01*
X24209501Y-44677553D01*
X24337553Y-44549501D01*
X24443996Y-44402994D01*
X24526211Y-44241639D01*
X24582171Y-44069409D01*
X24603027Y-43937729D01*
X24632956Y-43874595D01*
X24692267Y-43837663D01*
X24762130Y-43838661D01*
X24820363Y-43877271D01*
X24848477Y-43941234D01*
X24849500Y-43957127D01*
X24849500Y-44694856D01*
X24849502Y-44694882D01*
X24852413Y-44719987D01*
X24852415Y-44719991D01*
X24897793Y-44822764D01*
X24897794Y-44822765D01*
X24977235Y-44902206D01*
X25080009Y-44947585D01*
X25105135Y-44950500D01*
X26894864Y-44950499D01*
X26894879Y-44950497D01*
X26894882Y-44950497D01*
X26919987Y-44947586D01*
X26919988Y-44947585D01*
X26919991Y-44947585D01*
X27022765Y-44902206D01*
X27102206Y-44822765D01*
X27147585Y-44719991D01*
X27150500Y-44694865D01*
X27150499Y-42905136D01*
X27150497Y-42905117D01*
X27147586Y-42880012D01*
X27147585Y-42880010D01*
X27147585Y-42880009D01*
X27102206Y-42777235D01*
X27022765Y-42697794D01*
X27000115Y-42687793D01*
X26919992Y-42652415D01*
X26894865Y-42649500D01*
X25105143Y-42649500D01*
X25105117Y-42649502D01*
X25080012Y-42652413D01*
X25080008Y-42652415D01*
X24977235Y-42697793D01*
X24897794Y-42777234D01*
X24852415Y-42880006D01*
X24852415Y-42880008D01*
X24849500Y-42905131D01*
X24849500Y-43642871D01*
X24829815Y-43709910D01*
X24777011Y-43755665D01*
X24707853Y-43765609D01*
X24644297Y-43736584D01*
X24606523Y-43677806D01*
X24603027Y-43662269D01*
X24590135Y-43580874D01*
X24582171Y-43530591D01*
X24526211Y-43358361D01*
X24526211Y-43358360D01*
X24487191Y-43281780D01*
X24443996Y-43197006D01*
X24417974Y-43161190D01*
X24337558Y-43050505D01*
X24337554Y-43050500D01*
X24209499Y-42922445D01*
X24209494Y-42922441D01*
X24062997Y-42816006D01*
X24062996Y-42816005D01*
X24062994Y-42816004D01*
X23986906Y-42777235D01*
X23901639Y-42733788D01*
X23901636Y-42733787D01*
X23729410Y-42677829D01*
X23550551Y-42649500D01*
X23550546Y-42649500D01*
X23369454Y-42649500D01*
X23369449Y-42649500D01*
X23190589Y-42677829D01*
X23018363Y-42733787D01*
X23018360Y-42733788D01*
X22857002Y-42816006D01*
X22710505Y-42922441D01*
X22710500Y-42922445D01*
X22582445Y-43050500D01*
X22582441Y-43050505D01*
X22476004Y-43197004D01*
X22408908Y-43328685D01*
X22360933Y-43379480D01*
X22293112Y-43396275D01*
X22226977Y-43373737D01*
X22183527Y-43319021D01*
X22180492Y-43310705D01*
X22171094Y-43281780D01*
X22074626Y-43092453D01*
X22074618Y-43092440D01*
X22065025Y-43079237D01*
X22065025Y-43079236D01*
X21417905Y-43726357D01*
X21385925Y-43607007D01*
X21320099Y-43492993D01*
X21227007Y-43399901D01*
X21112993Y-43334075D01*
X20993640Y-43302093D01*
X21640761Y-42654973D01*
X21627550Y-42645375D01*
X21438217Y-42548904D01*
X21236129Y-42483242D01*
X21026246Y-42450000D01*
X20813754Y-42450000D01*
X20603872Y-42483242D01*
X20603869Y-42483242D01*
X20401782Y-42548904D01*
X20316695Y-42592259D01*
X20248026Y-42605155D01*
X20183285Y-42578879D01*
X20143028Y-42521772D01*
X20136400Y-42481774D01*
X20136400Y-39177973D01*
X21449500Y-39177973D01*
X21449500Y-39422027D01*
X21449572Y-39422480D01*
X21477423Y-39598327D01*
X21487679Y-39663076D01*
X21563096Y-39895185D01*
X21671369Y-40107684D01*
X21673896Y-40112642D01*
X21817339Y-40310076D01*
X21817343Y-40310081D01*
X21989918Y-40482656D01*
X21989923Y-40482660D01*
X22120672Y-40577654D01*
X22187361Y-40626106D01*
X22404815Y-40736904D01*
X22636924Y-40812321D01*
X22877973Y-40850500D01*
X22877974Y-40850500D01*
X23122026Y-40850500D01*
X23122027Y-40850500D01*
X23363076Y-40812321D01*
X23595185Y-40736904D01*
X23812639Y-40626106D01*
X23983294Y-40502118D01*
X24010075Y-40482661D01*
X24010075Y-40482660D01*
X24010083Y-40482655D01*
X24130673Y-40362064D01*
X24191992Y-40328582D01*
X24261684Y-40333566D01*
X24317618Y-40375437D01*
X24342035Y-40440901D01*
X24333706Y-40495237D01*
X24285122Y-40618436D01*
X24281271Y-40650510D01*
X24274500Y-40706898D01*
X24274500Y-41693102D01*
X24279095Y-41731369D01*
X24285122Y-41781561D01*
X24340639Y-41922343D01*
X24432077Y-42042922D01*
X24552656Y-42134360D01*
X24552657Y-42134360D01*
X24552658Y-42134361D01*
X24693436Y-42189877D01*
X24781898Y-42200500D01*
X24781903Y-42200500D01*
X25393097Y-42200500D01*
X25393102Y-42200500D01*
X25481564Y-42189877D01*
X25622342Y-42134361D01*
X25742922Y-42042922D01*
X25781502Y-41992046D01*
X25837692Y-41950524D01*
X25907413Y-41945971D01*
X25968528Y-41979836D01*
X25985843Y-42001875D01*
X26057680Y-42118340D01*
X26057683Y-42118344D01*
X26181654Y-42242315D01*
X26330875Y-42334356D01*
X26330880Y-42334358D01*
X26497302Y-42389505D01*
X26497309Y-42389506D01*
X26600019Y-42399999D01*
X26612500Y-42399998D01*
X26612500Y-41500000D01*
X27212500Y-41500000D01*
X27212500Y-42399999D01*
X27224972Y-42399999D01*
X27224986Y-42399998D01*
X27327697Y-42389505D01*
X27494119Y-42334358D01*
X27494124Y-42334356D01*
X27643345Y-42242315D01*
X27767315Y-42118345D01*
X27859356Y-41969124D01*
X27859359Y-41969117D01*
X27892156Y-41870142D01*
X27931928Y-41812697D01*
X27996444Y-41785873D01*
X28065220Y-41798188D01*
X28074959Y-41803606D01*
X28205875Y-41884356D01*
X28205880Y-41884358D01*
X28372302Y-41939505D01*
X28372309Y-41939506D01*
X28475019Y-41949999D01*
X28699999Y-41949999D01*
X28700000Y-41949998D01*
X28700000Y-41250000D01*
X28055000Y-41250000D01*
X28055000Y-41376000D01*
X28035315Y-41443039D01*
X27982511Y-41488794D01*
X27931000Y-41500000D01*
X27212500Y-41500000D01*
X26612500Y-41500000D01*
X26612500Y-40000000D01*
X26612498Y-39999999D01*
X26600020Y-40000000D01*
X26497302Y-40010494D01*
X26330880Y-40065641D01*
X26330875Y-40065643D01*
X26181654Y-40157684D01*
X26057682Y-40281656D01*
X25985843Y-40398125D01*
X25933895Y-40444849D01*
X25864932Y-40456070D01*
X25800850Y-40428227D01*
X25781501Y-40407952D01*
X25742922Y-40357077D01*
X25622343Y-40265639D01*
X25481561Y-40210122D01*
X25434464Y-40204467D01*
X25393102Y-40199500D01*
X24781898Y-40199500D01*
X24742853Y-40204188D01*
X24693438Y-40210122D01*
X24552656Y-40265639D01*
X24468636Y-40329354D01*
X24403324Y-40354177D01*
X24334960Y-40339749D01*
X24285250Y-40290651D01*
X24269974Y-40222471D01*
X24293392Y-40157665D01*
X24326106Y-40112639D01*
X24436904Y-39895185D01*
X24512321Y-39663076D01*
X24550500Y-39422027D01*
X24550500Y-39177973D01*
X24512321Y-38936924D01*
X24436904Y-38704815D01*
X24326106Y-38487361D01*
X24292184Y-38440671D01*
X24182660Y-38289923D01*
X24182656Y-38289918D01*
X24010081Y-38117343D01*
X24010076Y-38117339D01*
X23812642Y-37973896D01*
X23812641Y-37973895D01*
X23812639Y-37973894D01*
X23595185Y-37863096D01*
X23363076Y-37787679D01*
X23363074Y-37787678D01*
X23363072Y-37787678D01*
X23163596Y-37756084D01*
X23122027Y-37749500D01*
X22877973Y-37749500D01*
X22836404Y-37756084D01*
X22636927Y-37787678D01*
X22404812Y-37863097D01*
X22187357Y-37973896D01*
X21989923Y-38117339D01*
X21989918Y-38117343D01*
X21817343Y-38289918D01*
X21817339Y-38289923D01*
X21673896Y-38487357D01*
X21563097Y-38704812D01*
X21487678Y-38936927D01*
X21464906Y-39080704D01*
X21449500Y-39177973D01*
X20136400Y-39177973D01*
X20136400Y-36249986D01*
X27700001Y-36249986D01*
X27710494Y-36352697D01*
X27765641Y-36519119D01*
X27765643Y-36519124D01*
X27857684Y-36668345D01*
X27981654Y-36792315D01*
X28130875Y-36884356D01*
X28130880Y-36884358D01*
X28297302Y-36939505D01*
X28297309Y-36939506D01*
X28400019Y-36949999D01*
X28699999Y-36949999D01*
X28700000Y-36949998D01*
X28700000Y-35000000D01*
X27700001Y-35000000D01*
X27700001Y-36249986D01*
X20136400Y-36249986D01*
X20136400Y-33150013D01*
X27700000Y-33150013D01*
X27700000Y-34400000D01*
X28700000Y-34400000D01*
X28700000Y-32450000D01*
X28400028Y-32450000D01*
X28400012Y-32450001D01*
X28297302Y-32460494D01*
X28130880Y-32515641D01*
X28130875Y-32515643D01*
X27981654Y-32607684D01*
X27857684Y-32731654D01*
X27765643Y-32880875D01*
X27765641Y-32880880D01*
X27710494Y-33047302D01*
X27710493Y-33047309D01*
X27700000Y-33150013D01*
X20136400Y-33150013D01*
X20136400Y-32393410D01*
X20156085Y-32326371D01*
X20172719Y-32305729D01*
X21747982Y-30730466D01*
X23340485Y-29137963D01*
X23396503Y-29040937D01*
X23425500Y-28932718D01*
X23425500Y-28882129D01*
X23445185Y-28815090D01*
X23497989Y-28769335D01*
X23511178Y-28764199D01*
X23595185Y-28736904D01*
X23812639Y-28626106D01*
X24010083Y-28482655D01*
X24182655Y-28310083D01*
X24326106Y-28112639D01*
X24436904Y-27895185D01*
X24512321Y-27663076D01*
X24550500Y-27422027D01*
X24550500Y-27177973D01*
X24512321Y-26936924D01*
X24436904Y-26704815D01*
X24326106Y-26487361D01*
X24262634Y-26399999D01*
X24182660Y-26289923D01*
X24182656Y-26289918D01*
X24010081Y-26117343D01*
X24010076Y-26117339D01*
X23812642Y-25973896D01*
X23812641Y-25973895D01*
X23812639Y-25973894D01*
X23595185Y-25863096D01*
X23363076Y-25787679D01*
X23363074Y-25787678D01*
X23363072Y-25787678D01*
X23194769Y-25761021D01*
X23122027Y-25749500D01*
X22877973Y-25749500D01*
X22822093Y-25758350D01*
X22636927Y-25787678D01*
X22404812Y-25863097D01*
X22187357Y-25973896D01*
X21989923Y-26117339D01*
X21989918Y-26117343D01*
X21817343Y-26289918D01*
X21817339Y-26289923D01*
X21673896Y-26487357D01*
X21563097Y-26704812D01*
X21487678Y-26936927D01*
X21449500Y-27177973D01*
X21449500Y-27422026D01*
X21466230Y-27527658D01*
X21487679Y-27663076D01*
X21563096Y-27895185D01*
X21665748Y-28096652D01*
X21673896Y-28112642D01*
X21817339Y-28310076D01*
X21817343Y-28310081D01*
X21989918Y-28482656D01*
X21989923Y-28482660D01*
X22150741Y-28599500D01*
X22187361Y-28626106D01*
X22313736Y-28690497D01*
X22341006Y-28704392D01*
X22391802Y-28752367D01*
X22408597Y-28820188D01*
X22386060Y-28886323D01*
X22372392Y-28902558D01*
X19449637Y-31825315D01*
X19370417Y-31904534D01*
X19370413Y-31904540D01*
X19314398Y-32001560D01*
X19314398Y-32001561D01*
X19314397Y-32001563D01*
X19295418Y-32072393D01*
X19285400Y-32109782D01*
X19285400Y-42545756D01*
X19265715Y-42612795D01*
X19212911Y-42658550D01*
X19143753Y-42668494D01*
X19091979Y-42647482D01*
X19091710Y-42647923D01*
X19089053Y-42646295D01*
X19088521Y-42646079D01*
X19087556Y-42645378D01*
X18898217Y-42548904D01*
X18696129Y-42483242D01*
X18486246Y-42450000D01*
X18273754Y-42450000D01*
X18063872Y-42483242D01*
X18063869Y-42483242D01*
X17861782Y-42548904D01*
X17672437Y-42645381D01*
X17668290Y-42647923D01*
X17667490Y-42646618D01*
X17608053Y-42667811D01*
X17540002Y-42651972D01*
X17491318Y-42601856D01*
X17477000Y-42544012D01*
X17477000Y-22077973D01*
X21449500Y-22077973D01*
X21449500Y-22322026D01*
X21480608Y-22518436D01*
X21487679Y-22563076D01*
X21563096Y-22795185D01*
X21667454Y-23000000D01*
X21673896Y-23012642D01*
X21817339Y-23210076D01*
X21817343Y-23210081D01*
X21989918Y-23382656D01*
X21989923Y-23382660D01*
X22091490Y-23456452D01*
X22187361Y-23526106D01*
X22404815Y-23636904D01*
X22636924Y-23712321D01*
X22877973Y-23750500D01*
X22877974Y-23750500D01*
X23122026Y-23750500D01*
X23122027Y-23750500D01*
X23363076Y-23712321D01*
X23595185Y-23636904D01*
X23812639Y-23526106D01*
X24010083Y-23382655D01*
X24182655Y-23210083D01*
X24326106Y-23012639D01*
X24436904Y-22795185D01*
X24512321Y-22563076D01*
X24550500Y-22322027D01*
X24550500Y-22077973D01*
X24512321Y-21836924D01*
X24436904Y-21604815D01*
X24326106Y-21387361D01*
X24282868Y-21327849D01*
X24182660Y-21189923D01*
X24182656Y-21189918D01*
X24010081Y-21017343D01*
X24010076Y-21017339D01*
X23812642Y-20873896D01*
X23812641Y-20873895D01*
X23812639Y-20873894D01*
X23595185Y-20763096D01*
X23363076Y-20687679D01*
X23363074Y-20687678D01*
X23363072Y-20687678D01*
X23194769Y-20661021D01*
X23122027Y-20649500D01*
X22877973Y-20649500D01*
X22822093Y-20658350D01*
X22636927Y-20687678D01*
X22404812Y-20763097D01*
X22187357Y-20873896D01*
X21989923Y-21017339D01*
X21989918Y-21017343D01*
X21817343Y-21189918D01*
X21817339Y-21189923D01*
X21673896Y-21387357D01*
X21563097Y-21604812D01*
X21563096Y-21604814D01*
X21563096Y-21604815D01*
X21487679Y-21836924D01*
X21460696Y-22007287D01*
X21449500Y-22077973D01*
X17477000Y-22077973D01*
X17477000Y-20399986D01*
X27350001Y-20399986D01*
X27360494Y-20502697D01*
X27415641Y-20669119D01*
X27415643Y-20669124D01*
X27507684Y-20818345D01*
X27631654Y-20942315D01*
X27780875Y-21034356D01*
X27780880Y-21034358D01*
X27947302Y-21089505D01*
X27947309Y-21089506D01*
X28050019Y-21099999D01*
X28699999Y-21099999D01*
X29300000Y-21099999D01*
X29949972Y-21099999D01*
X29949986Y-21099998D01*
X30052697Y-21089505D01*
X30219119Y-21034358D01*
X30219124Y-21034356D01*
X30368345Y-20942315D01*
X30492315Y-20818345D01*
X30584356Y-20669124D01*
X30584358Y-20669119D01*
X30639505Y-20502697D01*
X30639506Y-20502690D01*
X30649999Y-20399986D01*
X30650000Y-20399973D01*
X30650000Y-19650000D01*
X29300000Y-19650000D01*
X29300000Y-21099999D01*
X28699999Y-21099999D01*
X28700000Y-21099998D01*
X28700000Y-19650000D01*
X27350001Y-19650000D01*
X27350001Y-20399986D01*
X17477000Y-20399986D01*
X17477000Y-18072108D01*
X17496685Y-18005069D01*
X17513314Y-17984432D01*
X23251053Y-12246692D01*
X23251058Y-12246689D01*
X23261261Y-12236485D01*
X23261263Y-12236485D01*
X23340485Y-12157263D01*
X23396503Y-12060237D01*
X23404108Y-12031855D01*
X23408782Y-12014414D01*
X23417054Y-11983540D01*
X23425500Y-11952019D01*
X23425500Y-11839982D01*
X23425500Y-11782129D01*
X23445185Y-11715090D01*
X23497989Y-11669335D01*
X23511178Y-11664199D01*
X23595185Y-11636904D01*
X23812639Y-11526106D01*
X24010083Y-11382655D01*
X24182655Y-11210083D01*
X24326106Y-11012639D01*
X24436904Y-10795185D01*
X24512321Y-10563076D01*
X24550500Y-10322027D01*
X24550500Y-10262610D01*
X24570185Y-10195571D01*
X24622989Y-10149816D01*
X24692147Y-10139872D01*
X24755703Y-10168897D01*
G37*
%TD.AperFunction*%
%TA.AperFunction,Conductor*%
G36*
X47895203Y-29172985D02*
G01*
X47940958Y-29225789D01*
X47951278Y-29292084D01*
X47949500Y-29306898D01*
X47949500Y-30693102D01*
X47951512Y-30709854D01*
X47960122Y-30781563D01*
X47974566Y-30818189D01*
X47980847Y-30887775D01*
X47948510Y-30949711D01*
X47946892Y-30951359D01*
X43481195Y-35417055D01*
X43481196Y-35417056D01*
X43419414Y-35478838D01*
X43419413Y-35478840D01*
X43363398Y-35575860D01*
X43363397Y-35575863D01*
X43334400Y-35684082D01*
X43334400Y-42984678D01*
X43314715Y-43051717D01*
X43261911Y-43097472D01*
X43192753Y-43107416D01*
X43129197Y-43078391D01*
X43092469Y-43022997D01*
X43070844Y-42956442D01*
X43070842Y-42956439D01*
X43070842Y-42956437D01*
X43016267Y-42849329D01*
X42988272Y-42794386D01*
X42944245Y-42733788D01*
X42881371Y-42647248D01*
X42881367Y-42647243D01*
X42752756Y-42518632D01*
X42752751Y-42518628D01*
X42605617Y-42411730D01*
X42605616Y-42411729D01*
X42605614Y-42411728D01*
X42555008Y-42385942D01*
X42443562Y-42329157D01*
X42270580Y-42272951D01*
X42090945Y-42244500D01*
X42090940Y-42244500D01*
X41909060Y-42244500D01*
X41909055Y-42244500D01*
X41729419Y-42272951D01*
X41556437Y-42329157D01*
X41394382Y-42411730D01*
X41247248Y-42518628D01*
X41247243Y-42518632D01*
X41118632Y-42647243D01*
X41118628Y-42647248D01*
X41011730Y-42794382D01*
X40929157Y-42956437D01*
X40872951Y-43129419D01*
X40844500Y-43309054D01*
X40844500Y-43490945D01*
X40872951Y-43670580D01*
X40929157Y-43843562D01*
X40985942Y-43955008D01*
X41005297Y-43992993D01*
X41011730Y-44005617D01*
X41118628Y-44152751D01*
X41118632Y-44152756D01*
X41247243Y-44281367D01*
X41247248Y-44281371D01*
X41315655Y-44331071D01*
X41394386Y-44388272D01*
X41491335Y-44437670D01*
X41556437Y-44470842D01*
X41556439Y-44470842D01*
X41556442Y-44470844D01*
X41647714Y-44500500D01*
X41729419Y-44527048D01*
X41909055Y-44555500D01*
X41909060Y-44555500D01*
X42090945Y-44555500D01*
X42270580Y-44527048D01*
X42325941Y-44509060D01*
X42443558Y-44470844D01*
X42605614Y-44388272D01*
X42752758Y-44281366D01*
X42881366Y-44152758D01*
X42988272Y-44005614D01*
X43070844Y-43843558D01*
X43092469Y-43777000D01*
X43131907Y-43719327D01*
X43196266Y-43692129D01*
X43265112Y-43704044D01*
X43316588Y-43751288D01*
X43334400Y-43815321D01*
X43334400Y-44352590D01*
X43314715Y-44419629D01*
X43298081Y-44440271D01*
X41614417Y-46123934D01*
X41614413Y-46123940D01*
X41558398Y-46220960D01*
X41558397Y-46220963D01*
X41529400Y-46329182D01*
X41529400Y-50903912D01*
X41509715Y-50970951D01*
X41456911Y-51016706D01*
X41397292Y-51027647D01*
X41396657Y-51027605D01*
X40579554Y-51844707D01*
X40559111Y-51768409D01*
X40480119Y-51631592D01*
X40368408Y-51519881D01*
X40231591Y-51440889D01*
X40155291Y-51420444D01*
X40972394Y-50603341D01*
X40972393Y-50603340D01*
X40946497Y-50583468D01*
X40753514Y-50472050D01*
X40753502Y-50472045D01*
X40547618Y-50386763D01*
X40332367Y-50329088D01*
X40332354Y-50329085D01*
X40111425Y-50300000D01*
X39888575Y-50300000D01*
X39667645Y-50329085D01*
X39667632Y-50329088D01*
X39452381Y-50386763D01*
X39246497Y-50472045D01*
X39246479Y-50472054D01*
X39053511Y-50583462D01*
X39027605Y-50603341D01*
X39844708Y-51420444D01*
X39768409Y-51440889D01*
X39631592Y-51519881D01*
X39519881Y-51631592D01*
X39440889Y-51768409D01*
X39420444Y-51844708D01*
X38899219Y-51323483D01*
X38865734Y-51262160D01*
X38862900Y-51235802D01*
X38862900Y-51133384D01*
X38862900Y-51133382D01*
X38833903Y-51025163D01*
X38777885Y-50928137D01*
X38698663Y-50848915D01*
X38364129Y-50514381D01*
X38330644Y-50453058D01*
X38335628Y-50383366D01*
X38364129Y-50339019D01*
X38962258Y-49740890D01*
X39630485Y-49072663D01*
X39686503Y-48975637D01*
X39715500Y-48867419D01*
X39715500Y-48755382D01*
X39715500Y-34525981D01*
X39735185Y-34458942D01*
X39787989Y-34413187D01*
X39857147Y-34403243D01*
X39878508Y-34408276D01*
X39897308Y-34414506D01*
X40000019Y-34424999D01*
X40199999Y-34424999D01*
X40200000Y-34424998D01*
X40200000Y-33536500D01*
X40219685Y-33469461D01*
X40272489Y-33423706D01*
X40324000Y-33412500D01*
X40676000Y-33412500D01*
X40743039Y-33432185D01*
X40788794Y-33484989D01*
X40800000Y-33536500D01*
X40800000Y-34424999D01*
X40999972Y-34424999D01*
X40999986Y-34424998D01*
X41102697Y-34414505D01*
X41269119Y-34359358D01*
X41269124Y-34359356D01*
X41418345Y-34267315D01*
X41542315Y-34143345D01*
X41634356Y-33994124D01*
X41634358Y-33994119D01*
X41689505Y-33827697D01*
X41689506Y-33827689D01*
X41699535Y-33729529D01*
X41725931Y-33664837D01*
X41783112Y-33624685D01*
X41852923Y-33621822D01*
X41913200Y-33657156D01*
X41944805Y-33719469D01*
X41945832Y-33725945D01*
X41954909Y-33794893D01*
X41988986Y-33922067D01*
X42019499Y-33995734D01*
X42019507Y-33995750D01*
X42085325Y-34109749D01*
X42085337Y-34109767D01*
X42133880Y-34173028D01*
X42133888Y-34173037D01*
X42226963Y-34266112D01*
X42226971Y-34266119D01*
X42226972Y-34266120D01*
X42248830Y-34282892D01*
X42290232Y-34314662D01*
X42290236Y-34314664D01*
X42290243Y-34314670D01*
X42290250Y-34314674D01*
X42404249Y-34380492D01*
X42404265Y-34380500D01*
X42451344Y-34400000D01*
X42477936Y-34411015D01*
X42605103Y-34445090D01*
X42684174Y-34455500D01*
X42684181Y-34455500D01*
X43315819Y-34455500D01*
X43315826Y-34455500D01*
X43394897Y-34445090D01*
X43522064Y-34411015D01*
X43576264Y-34388564D01*
X43595734Y-34380500D01*
X43595737Y-34380498D01*
X43595743Y-34380496D01*
X43709757Y-34314670D01*
X43773028Y-34266120D01*
X43773032Y-34266115D01*
X43773037Y-34266112D01*
X43866112Y-34173037D01*
X43866115Y-34173032D01*
X43866120Y-34173028D01*
X43914670Y-34109757D01*
X43980496Y-33995743D01*
X44011015Y-33922064D01*
X44045090Y-33794897D01*
X44046333Y-33785450D01*
X44074597Y-33721557D01*
X44081578Y-33713968D01*
X44427884Y-33367664D01*
X44439873Y-33346900D01*
X44483903Y-33270637D01*
X44496265Y-33224500D01*
X44512900Y-33162419D01*
X44512900Y-33050382D01*
X44512900Y-29468200D01*
X44532585Y-29401161D01*
X44585389Y-29355406D01*
X44636900Y-29344200D01*
X47058016Y-29344200D01*
X47058018Y-29344200D01*
X47166237Y-29315203D01*
X47263263Y-29259185D01*
X47332829Y-29189619D01*
X47394152Y-29156134D01*
X47420510Y-29153300D01*
X47828164Y-29153300D01*
X47895203Y-29172985D01*
G37*
%TD.AperFunction*%
%TA.AperFunction,Conductor*%
G36*
X8293039Y-22796585D02*
G01*
X8338794Y-22849389D01*
X8350000Y-22900900D01*
X8350000Y-23000000D01*
X8451000Y-23000000D01*
X8518039Y-23019685D01*
X8563794Y-23072489D01*
X8575000Y-23124000D01*
X8575000Y-23724999D01*
X8599342Y-23724999D01*
X8599363Y-23724998D01*
X8634078Y-23722266D01*
X8782681Y-23679093D01*
X8782684Y-23679092D01*
X8915885Y-23600317D01*
X8915894Y-23600311D01*
X9025311Y-23490894D01*
X9025317Y-23490885D01*
X9104092Y-23357684D01*
X9104093Y-23357681D01*
X9147265Y-23209084D01*
X9148406Y-23202841D01*
X9149801Y-23203095D01*
X9172084Y-23144631D01*
X9228315Y-23103159D01*
X9298040Y-23098672D01*
X9359123Y-23132593D01*
X9362848Y-23136541D01*
X9375002Y-23150000D01*
X10476000Y-23150000D01*
X10543039Y-23169685D01*
X10588794Y-23222489D01*
X10600000Y-23274000D01*
X10600000Y-23626000D01*
X10580315Y-23693039D01*
X10527511Y-23738794D01*
X10476000Y-23750000D01*
X9375003Y-23750000D01*
X9385494Y-23852697D01*
X9440641Y-24019119D01*
X9440643Y-24019124D01*
X9532684Y-24168345D01*
X9656654Y-24292315D01*
X9805875Y-24384356D01*
X9805880Y-24384358D01*
X9972302Y-24439505D01*
X9972309Y-24439506D01*
X10075019Y-24449999D01*
X10339789Y-24449999D01*
X10406828Y-24469683D01*
X10452583Y-24522487D01*
X10462527Y-24591646D01*
X10433502Y-24655201D01*
X10427470Y-24661680D01*
X8000037Y-27089115D01*
X7920817Y-27168334D01*
X7920813Y-27168340D01*
X7864798Y-27265360D01*
X7864797Y-27265363D01*
X7835800Y-27373582D01*
X7835800Y-36219743D01*
X7816115Y-36286782D01*
X7763311Y-36332537D01*
X7694153Y-36342481D01*
X7648680Y-36326476D01*
X7610194Y-36303716D01*
X7452495Y-36257900D01*
X7452489Y-36257899D01*
X7415649Y-36255000D01*
X6825000Y-36255000D01*
X6825000Y-40741000D01*
X6805315Y-40808039D01*
X6752511Y-40853794D01*
X6701000Y-40865000D01*
X6349000Y-40865000D01*
X6281961Y-40845315D01*
X6236206Y-40792511D01*
X6225000Y-40741000D01*
X6225000Y-38625000D01*
X5299263Y-38625000D01*
X4579555Y-39344708D01*
X4559111Y-39268409D01*
X4480119Y-39131592D01*
X4368408Y-39019881D01*
X4231591Y-38940889D01*
X4155291Y-38920444D01*
X4919347Y-38156388D01*
X4863786Y-38035715D01*
X4753502Y-37972044D01*
X4753497Y-37972041D01*
X4547618Y-37886763D01*
X4332367Y-37829088D01*
X4332354Y-37829085D01*
X4111425Y-37800000D01*
X3888575Y-37800000D01*
X3667645Y-37829085D01*
X3667632Y-37829088D01*
X3452381Y-37886763D01*
X3246497Y-37972045D01*
X3246478Y-37972054D01*
X3059599Y-38079948D01*
X2991699Y-38096421D01*
X2925672Y-38073568D01*
X2882482Y-38018647D01*
X2873600Y-37972561D01*
X2873600Y-37355000D01*
X5066704Y-37355000D01*
X5098718Y-37465198D01*
X5182314Y-37606552D01*
X5187100Y-37612722D01*
X5184753Y-37614542D01*
X5211564Y-37663642D01*
X5206580Y-37733334D01*
X5185541Y-37766069D01*
X5187100Y-37767278D01*
X5182314Y-37773447D01*
X5098717Y-37914803D01*
X5091917Y-37938208D01*
X5131878Y-38025000D01*
X6225000Y-38025000D01*
X6225000Y-37355000D01*
X5066704Y-37355000D01*
X2873600Y-37355000D01*
X2873600Y-36755000D01*
X5066704Y-36755000D01*
X6225000Y-36755000D01*
X6225000Y-36255000D01*
X5634350Y-36255000D01*
X5597510Y-36257899D01*
X5597504Y-36257900D01*
X5439806Y-36303716D01*
X5439803Y-36303717D01*
X5298447Y-36387314D01*
X5298438Y-36387321D01*
X5182321Y-36503438D01*
X5182314Y-36503447D01*
X5098718Y-36644801D01*
X5066704Y-36755000D01*
X2873600Y-36755000D01*
X2873600Y-36224165D01*
X2893285Y-36157126D01*
X2946089Y-36111371D01*
X3003195Y-36100725D01*
X3003195Y-36100500D01*
X3004404Y-36100499D01*
X3005011Y-36100387D01*
X3006887Y-36100498D01*
X3006901Y-36100500D01*
X4993098Y-36100499D01*
X5081564Y-36089876D01*
X5222342Y-36034361D01*
X5342922Y-35942922D01*
X5434361Y-35822342D01*
X5489876Y-35681564D01*
X5500500Y-35593099D01*
X5500499Y-33606902D01*
X5489876Y-33518436D01*
X5434361Y-33377658D01*
X5434359Y-33377655D01*
X5342922Y-33257077D01*
X5222344Y-33165640D01*
X5222342Y-33165639D01*
X5081564Y-33110124D01*
X5081561Y-33110123D01*
X4993099Y-33099500D01*
X3006897Y-33099500D01*
X3005010Y-33099614D01*
X3004518Y-33099500D01*
X3003196Y-33099501D01*
X3003196Y-33099197D01*
X2936914Y-33083971D01*
X2888085Y-33033996D01*
X2873600Y-32975836D01*
X2873600Y-32627438D01*
X2893285Y-32560399D01*
X2946089Y-32514644D01*
X3015247Y-32504700D01*
X3059600Y-32520051D01*
X3246486Y-32627949D01*
X3246497Y-32627954D01*
X3452381Y-32713236D01*
X3667632Y-32770911D01*
X3667645Y-32770914D01*
X3888575Y-32800000D01*
X4111425Y-32800000D01*
X4332354Y-32770914D01*
X4332367Y-32770911D01*
X4547618Y-32713236D01*
X4753502Y-32627954D01*
X4753514Y-32627949D01*
X4946496Y-32516531D01*
X4946500Y-32516529D01*
X4972393Y-32496658D01*
X4972393Y-32496656D01*
X4155292Y-31679555D01*
X4231591Y-31659111D01*
X4368408Y-31580119D01*
X4480119Y-31468408D01*
X4559111Y-31331591D01*
X4579555Y-31255291D01*
X5396656Y-32072393D01*
X5396658Y-32072393D01*
X5416529Y-32046500D01*
X5416531Y-32046496D01*
X5527949Y-31853514D01*
X5527954Y-31853502D01*
X5613236Y-31647618D01*
X5670911Y-31432367D01*
X5670914Y-31432354D01*
X5700000Y-31211424D01*
X5700000Y-30988575D01*
X5670914Y-30767645D01*
X5670911Y-30767632D01*
X5613236Y-30552381D01*
X5527954Y-30346497D01*
X5527949Y-30346485D01*
X5416530Y-30153502D01*
X5396658Y-30127605D01*
X5396657Y-30127605D01*
X4579555Y-30944707D01*
X4559111Y-30868409D01*
X4480119Y-30731592D01*
X4368408Y-30619881D01*
X4231591Y-30540889D01*
X4155291Y-30520444D01*
X4972394Y-29703341D01*
X4972393Y-29703340D01*
X4946497Y-29683468D01*
X4753514Y-29572050D01*
X4753502Y-29572045D01*
X4547618Y-29486763D01*
X4332367Y-29429088D01*
X4332354Y-29429085D01*
X4111425Y-29400000D01*
X3888575Y-29400000D01*
X3667645Y-29429085D01*
X3667632Y-29429088D01*
X3452381Y-29486763D01*
X3246497Y-29572045D01*
X3246478Y-29572054D01*
X3059599Y-29679948D01*
X2991699Y-29696421D01*
X2925672Y-29673568D01*
X2882482Y-29618647D01*
X2873600Y-29572561D01*
X2873600Y-27924165D01*
X2893285Y-27857126D01*
X2946089Y-27811371D01*
X3003195Y-27800725D01*
X3003195Y-27800500D01*
X3004404Y-27800499D01*
X3005011Y-27800387D01*
X3006887Y-27800498D01*
X3006901Y-27800500D01*
X4993098Y-27800499D01*
X5081564Y-27789876D01*
X5222342Y-27734361D01*
X5342922Y-27642922D01*
X5434361Y-27522342D01*
X5489876Y-27381564D01*
X5500500Y-27293099D01*
X5500499Y-25306902D01*
X5489876Y-25218436D01*
X5434361Y-25077658D01*
X5408020Y-25042922D01*
X5342922Y-24957077D01*
X5222344Y-24865640D01*
X5222342Y-24865639D01*
X5081564Y-24810124D01*
X5081561Y-24810123D01*
X4993099Y-24799500D01*
X3006897Y-24799500D01*
X3005010Y-24799614D01*
X3004518Y-24799500D01*
X3003196Y-24799501D01*
X3003196Y-24799197D01*
X2936914Y-24783971D01*
X2888085Y-24733996D01*
X2873600Y-24675836D01*
X2873600Y-24327438D01*
X2893285Y-24260399D01*
X2946089Y-24214644D01*
X3015247Y-24204700D01*
X3059600Y-24220051D01*
X3246486Y-24327949D01*
X3246497Y-24327954D01*
X3452381Y-24413236D01*
X3667632Y-24470911D01*
X3667645Y-24470914D01*
X3888575Y-24500000D01*
X4111425Y-24500000D01*
X4332354Y-24470914D01*
X4332367Y-24470911D01*
X4547618Y-24413236D01*
X4753502Y-24327954D01*
X4753514Y-24327949D01*
X4946496Y-24216531D01*
X4946500Y-24216529D01*
X4972393Y-24196658D01*
X4972393Y-24196656D01*
X4155292Y-23379555D01*
X4231591Y-23359111D01*
X4368408Y-23280119D01*
X4480119Y-23168408D01*
X4559111Y-23031591D01*
X4579555Y-22955291D01*
X5396656Y-23772393D01*
X5396658Y-23772393D01*
X5416529Y-23746500D01*
X5416531Y-23746496D01*
X5527949Y-23553514D01*
X5527954Y-23553502D01*
X5571598Y-23448139D01*
X5615439Y-23393736D01*
X5681733Y-23371671D01*
X5749433Y-23388950D01*
X5773840Y-23407911D01*
X5816713Y-23450784D01*
X5816716Y-23450786D01*
X5816719Y-23450789D01*
X5933285Y-23510182D01*
X5933286Y-23510182D01*
X5933288Y-23510183D01*
X5933287Y-23510183D01*
X5976618Y-23517045D01*
X6029997Y-23525500D01*
X6470002Y-23525499D01*
X6470007Y-23525499D01*
X6470007Y-23525498D01*
X6566715Y-23510182D01*
X6683281Y-23450789D01*
X6775789Y-23358281D01*
X6835182Y-23241715D01*
X6837829Y-23225001D01*
X7557358Y-23225001D01*
X7595906Y-23357681D01*
X7595907Y-23357684D01*
X7674682Y-23490885D01*
X7674688Y-23490894D01*
X7784105Y-23600311D01*
X7784114Y-23600317D01*
X7917315Y-23679092D01*
X7917318Y-23679093D01*
X8065915Y-23722265D01*
X8065927Y-23722267D01*
X8100646Y-23724999D01*
X8125000Y-23724998D01*
X8125000Y-23225000D01*
X7557360Y-23225000D01*
X7557358Y-23225001D01*
X6837829Y-23225001D01*
X6850500Y-23145003D01*
X6850499Y-22900899D01*
X6870183Y-22833861D01*
X6922987Y-22788106D01*
X6974499Y-22776900D01*
X8226000Y-22776900D01*
X8293039Y-22796585D01*
G37*
%TD.AperFunction*%
%TA.AperFunction,Conductor*%
G36*
X50316630Y-4780253D02*
G01*
X50374863Y-4818863D01*
X50402473Y-4879321D01*
X50427829Y-5039410D01*
X50483787Y-5211636D01*
X50483788Y-5211639D01*
X50539664Y-5321300D01*
X50566003Y-5372993D01*
X50566006Y-5372997D01*
X50672441Y-5519494D01*
X50672445Y-5519499D01*
X50800500Y-5647554D01*
X50800505Y-5647558D01*
X50902386Y-5721578D01*
X50947006Y-5753996D01*
X51021593Y-5792000D01*
X51108360Y-5836211D01*
X51108363Y-5836212D01*
X51194476Y-5864191D01*
X51280591Y-5892171D01*
X51363429Y-5905291D01*
X51459449Y-5920500D01*
X51459454Y-5920500D01*
X51640551Y-5920500D01*
X51727259Y-5906765D01*
X51819409Y-5892171D01*
X51991639Y-5836211D01*
X52152994Y-5753996D01*
X52197614Y-5721578D01*
X52263420Y-5698097D01*
X52331474Y-5713922D01*
X52380169Y-5764027D01*
X52394500Y-5821895D01*
X52394500Y-7732182D01*
X52394500Y-7844218D01*
X52419137Y-7936163D01*
X52423497Y-7952436D01*
X52423498Y-7952439D01*
X52442169Y-7984779D01*
X52479515Y-8049463D01*
X52479517Y-8049465D01*
X55703781Y-11273729D01*
X55737266Y-11335052D01*
X55740100Y-11361410D01*
X55740100Y-19242390D01*
X55720415Y-19309429D01*
X55667611Y-19355184D01*
X55598453Y-19365128D01*
X55534897Y-19336103D01*
X55528419Y-19330071D01*
X55134670Y-18936322D01*
X55101185Y-18874999D01*
X55106169Y-18805307D01*
X55123546Y-18773718D01*
X55160111Y-18725500D01*
X55214997Y-18586321D01*
X55225500Y-18498860D01*
X55225500Y-17501140D01*
X55214997Y-17413679D01*
X55164897Y-17286637D01*
X55160112Y-17274502D01*
X55160111Y-17274500D01*
X55069711Y-17155288D01*
X54950499Y-17064888D01*
X54950497Y-17064887D01*
X54811322Y-17010003D01*
X54798826Y-17008502D01*
X54723860Y-16999500D01*
X54151140Y-16999500D01*
X54138528Y-17001014D01*
X54110638Y-17004363D01*
X54041730Y-16992810D01*
X54008176Y-16968928D01*
X53626928Y-16587680D01*
X53593443Y-16526357D01*
X53598427Y-16456665D01*
X53626924Y-16412323D01*
X54008178Y-16031068D01*
X54069499Y-15997585D01*
X54110638Y-15995636D01*
X54151140Y-16000500D01*
X54151142Y-16000500D01*
X54723854Y-16000500D01*
X54723860Y-16000500D01*
X54811321Y-15989997D01*
X54950500Y-15935111D01*
X55069711Y-15844711D01*
X55160111Y-15725500D01*
X55214997Y-15586321D01*
X55225500Y-15498860D01*
X55225500Y-14501140D01*
X55214997Y-14413679D01*
X55187554Y-14344089D01*
X55160112Y-14274502D01*
X55160111Y-14274500D01*
X55069711Y-14155288D01*
X54950499Y-14064888D01*
X54950497Y-14064887D01*
X54811322Y-14010003D01*
X54798826Y-14008502D01*
X54723860Y-13999500D01*
X54151140Y-13999500D01*
X54085544Y-14007377D01*
X54063677Y-14010003D01*
X53924502Y-14064887D01*
X53924500Y-14064888D01*
X53805288Y-14155288D01*
X53714888Y-14274500D01*
X53714887Y-14274502D01*
X53660003Y-14413677D01*
X53658732Y-14424264D01*
X53649500Y-14501140D01*
X53649500Y-14501146D01*
X53649500Y-15134890D01*
X53629815Y-15201929D01*
X53613181Y-15222571D01*
X53562181Y-15273571D01*
X53500858Y-15307056D01*
X53431166Y-15302072D01*
X53375233Y-15260200D01*
X53350816Y-15194736D01*
X53350500Y-15185890D01*
X53350500Y-14501146D01*
X53350500Y-14501140D01*
X53339997Y-14413679D01*
X53312554Y-14344089D01*
X53285112Y-14274502D01*
X53285111Y-14274500D01*
X53194711Y-14155288D01*
X53075499Y-14064888D01*
X53075497Y-14064887D01*
X52936322Y-14010003D01*
X52923826Y-14008502D01*
X52848860Y-13999500D01*
X52848854Y-13999500D01*
X52462084Y-13999500D01*
X52395045Y-13979815D01*
X52349290Y-13927011D01*
X52340467Y-13899692D01*
X52322581Y-13809777D01*
X52322580Y-13809776D01*
X52322580Y-13809772D01*
X52307078Y-13772346D01*
X52268559Y-13679352D01*
X52261090Y-13609883D01*
X52292365Y-13547404D01*
X52352454Y-13511752D01*
X52383120Y-13507900D01*
X53411116Y-13507900D01*
X53411118Y-13507900D01*
X53519337Y-13478903D01*
X53616363Y-13422885D01*
X54008178Y-13031068D01*
X54069499Y-12997585D01*
X54110638Y-12995636D01*
X54151140Y-13000500D01*
X54151142Y-13000500D01*
X54723854Y-13000500D01*
X54723860Y-13000500D01*
X54811321Y-12989997D01*
X54950500Y-12935111D01*
X55069711Y-12844711D01*
X55160111Y-12725500D01*
X55214997Y-12586321D01*
X55225500Y-12498860D01*
X55225500Y-11501140D01*
X55214997Y-11413679D01*
X55171583Y-11303591D01*
X55160112Y-11274502D01*
X55160111Y-11274500D01*
X55069711Y-11155288D01*
X54950499Y-11064888D01*
X54950497Y-11064887D01*
X54811322Y-11010003D01*
X54798826Y-11008502D01*
X54723860Y-10999500D01*
X54151140Y-10999500D01*
X54085544Y-11007377D01*
X54063677Y-11010003D01*
X53924502Y-11064887D01*
X53924500Y-11064888D01*
X53805288Y-11155288D01*
X53714888Y-11274500D01*
X53714887Y-11274502D01*
X53660003Y-11413677D01*
X53658096Y-11429556D01*
X53649500Y-11501140D01*
X53649500Y-11501146D01*
X53649500Y-12134890D01*
X53629815Y-12201929D01*
X53613181Y-12222571D01*
X53562181Y-12273571D01*
X53500858Y-12307056D01*
X53431166Y-12302072D01*
X53375233Y-12260200D01*
X53350816Y-12194736D01*
X53350500Y-12185890D01*
X53350500Y-11501146D01*
X53350500Y-11501140D01*
X53339997Y-11413679D01*
X53296583Y-11303591D01*
X53285112Y-11274502D01*
X53285111Y-11274500D01*
X53194711Y-11155288D01*
X53075499Y-11064888D01*
X53075497Y-11064887D01*
X52936322Y-11010003D01*
X52923826Y-11008502D01*
X52848860Y-10999500D01*
X52276140Y-10999500D01*
X52276139Y-10999500D01*
X52273047Y-10999685D01*
X52204952Y-10984037D01*
X52156127Y-10934059D01*
X52151096Y-10923385D01*
X52108475Y-10820489D01*
X52108473Y-10820486D01*
X52108471Y-10820482D01*
X52031814Y-10705758D01*
X52031811Y-10705754D01*
X51934245Y-10608188D01*
X51934241Y-10608185D01*
X51819517Y-10531528D01*
X51819504Y-10531521D01*
X51692032Y-10478721D01*
X51692022Y-10478718D01*
X51556695Y-10451800D01*
X51556693Y-10451800D01*
X51418707Y-10451800D01*
X51418705Y-10451800D01*
X51283377Y-10478718D01*
X51283367Y-10478721D01*
X51155895Y-10531521D01*
X51155882Y-10531528D01*
X51041158Y-10608185D01*
X51041154Y-10608188D01*
X50943588Y-10705754D01*
X50943585Y-10705758D01*
X50866928Y-10820482D01*
X50866923Y-10820491D01*
X50824483Y-10922953D01*
X50780642Y-10977356D01*
X50714348Y-10999421D01*
X50709922Y-10999500D01*
X50106898Y-10999500D01*
X50067853Y-11004188D01*
X50018438Y-11010122D01*
X49877656Y-11065639D01*
X49757077Y-11157077D01*
X49665639Y-11277656D01*
X49641188Y-11339660D01*
X49615353Y-11405171D01*
X49572449Y-11460314D01*
X49506541Y-11483507D01*
X49438556Y-11467386D01*
X49390080Y-11417070D01*
X49384648Y-11405178D01*
X49334361Y-11277658D01*
X49334360Y-11277657D01*
X49334360Y-11277656D01*
X49242922Y-11157077D01*
X49122342Y-11065638D01*
X49091508Y-11053479D01*
X49036365Y-11010572D01*
X49013173Y-10944664D01*
X49013000Y-10938125D01*
X49013000Y-9064118D01*
X49032685Y-8997079D01*
X49049314Y-8976441D01*
X49131614Y-8894142D01*
X49208275Y-8779411D01*
X49261080Y-8651928D01*
X49277917Y-8567282D01*
X49288000Y-8516595D01*
X49288000Y-8378604D01*
X49261081Y-8243277D01*
X49261080Y-8243276D01*
X49261080Y-8243272D01*
X49256273Y-8231666D01*
X49208278Y-8115795D01*
X49208271Y-8115782D01*
X49131614Y-8001058D01*
X49131611Y-8001054D01*
X49034045Y-7903488D01*
X49034041Y-7903485D01*
X48919317Y-7826828D01*
X48919304Y-7826821D01*
X48791832Y-7774021D01*
X48791822Y-7774018D01*
X48656495Y-7747100D01*
X48656493Y-7747100D01*
X48518507Y-7747100D01*
X48518505Y-7747100D01*
X48383177Y-7774018D01*
X48383167Y-7774021D01*
X48255695Y-7826821D01*
X48255682Y-7826828D01*
X48140958Y-7903485D01*
X48140954Y-7903488D01*
X48043388Y-8001054D01*
X48043385Y-8001058D01*
X47966728Y-8115782D01*
X47966721Y-8115795D01*
X47913921Y-8243267D01*
X47913918Y-8243277D01*
X47887000Y-8378604D01*
X47887000Y-8378607D01*
X47887000Y-8516593D01*
X47887000Y-8516595D01*
X47886999Y-8516595D01*
X47913918Y-8651922D01*
X47913921Y-8651932D01*
X47966721Y-8779404D01*
X47966728Y-8779417D01*
X48043384Y-8894140D01*
X48043385Y-8894141D01*
X48043386Y-8894142D01*
X48125682Y-8976438D01*
X48159166Y-9037759D01*
X48162000Y-9064118D01*
X48162000Y-10938125D01*
X48142315Y-11005164D01*
X48089511Y-11050919D01*
X48083492Y-11053479D01*
X48052657Y-11065638D01*
X47932077Y-11157077D01*
X47840639Y-11277656D01*
X47785122Y-11418438D01*
X47781194Y-11451152D01*
X47774500Y-11506898D01*
X47774500Y-12493102D01*
X47779245Y-12532612D01*
X47785122Y-12581561D01*
X47840639Y-12722343D01*
X47932077Y-12842922D01*
X48023516Y-12912261D01*
X48052658Y-12934361D01*
X48083489Y-12946519D01*
X48138633Y-12989424D01*
X48161827Y-13055332D01*
X48162000Y-13061874D01*
X48162000Y-13938125D01*
X48142315Y-14005164D01*
X48089511Y-14050919D01*
X48083492Y-14053479D01*
X48052657Y-14065638D01*
X47932077Y-14157077D01*
X47840639Y-14277656D01*
X47785122Y-14418438D01*
X47780094Y-14460314D01*
X47774500Y-14506898D01*
X47774500Y-15493102D01*
X47776835Y-15512544D01*
X47785122Y-15581561D01*
X47840639Y-15722343D01*
X47932077Y-15842922D01*
X48023516Y-15912261D01*
X48052658Y-15934361D01*
X48083489Y-15946519D01*
X48138633Y-15989424D01*
X48161827Y-16055332D01*
X48162000Y-16061874D01*
X48162000Y-16938125D01*
X48142315Y-17005164D01*
X48089511Y-17050919D01*
X48083492Y-17053479D01*
X48052657Y-17065638D01*
X47932077Y-17157077D01*
X47840639Y-17277656D01*
X47785122Y-17418438D01*
X47781161Y-17451429D01*
X47774500Y-17506898D01*
X47774500Y-18493102D01*
X47777309Y-18516492D01*
X47785122Y-18581561D01*
X47840639Y-18722343D01*
X47932077Y-18842922D01*
X48001317Y-18895428D01*
X48052658Y-18934361D01*
X48083489Y-18946519D01*
X48138633Y-18989424D01*
X48161827Y-19055332D01*
X48162000Y-19061874D01*
X48162000Y-19938125D01*
X48142315Y-20005164D01*
X48089511Y-20050919D01*
X48083492Y-20053479D01*
X48052657Y-20065638D01*
X47932077Y-20157077D01*
X47840639Y-20277656D01*
X47785122Y-20418438D01*
X47783934Y-20428336D01*
X47774500Y-20506898D01*
X47774500Y-20506903D01*
X47774500Y-21358364D01*
X47754815Y-21425403D01*
X47702011Y-21471158D01*
X47632853Y-21481102D01*
X47569297Y-21452077D01*
X47540015Y-21414659D01*
X47534248Y-21403341D01*
X47526106Y-21387361D01*
X47482868Y-21327849D01*
X47382660Y-21189923D01*
X47382656Y-21189918D01*
X47210081Y-21017343D01*
X47210076Y-21017339D01*
X47012642Y-20873896D01*
X47012641Y-20873895D01*
X47012639Y-20873894D01*
X46795185Y-20763096D01*
X46563076Y-20687679D01*
X46563074Y-20687678D01*
X46563072Y-20687678D01*
X46394769Y-20661021D01*
X46322027Y-20649500D01*
X46077973Y-20649500D01*
X46022093Y-20658350D01*
X45836927Y-20687678D01*
X45604812Y-20763097D01*
X45387357Y-20873896D01*
X45189923Y-21017339D01*
X45189918Y-21017343D01*
X45017343Y-21189918D01*
X45017339Y-21189923D01*
X44873896Y-21387357D01*
X44763097Y-21604812D01*
X44763096Y-21604814D01*
X44763096Y-21604815D01*
X44687679Y-21836924D01*
X44660696Y-22007287D01*
X44649500Y-22077973D01*
X44649500Y-22322026D01*
X44680608Y-22518436D01*
X44687679Y-22563076D01*
X44763096Y-22795185D01*
X44867454Y-23000000D01*
X44873896Y-23012642D01*
X45017339Y-23210076D01*
X45017343Y-23210081D01*
X45189918Y-23382656D01*
X45189923Y-23382660D01*
X45291490Y-23456452D01*
X45387361Y-23526106D01*
X45604815Y-23636904D01*
X45836924Y-23712321D01*
X46077973Y-23750500D01*
X46077974Y-23750500D01*
X46322026Y-23750500D01*
X46322027Y-23750500D01*
X46563076Y-23712321D01*
X46795185Y-23636904D01*
X47012639Y-23526106D01*
X47210083Y-23382655D01*
X47382655Y-23210083D01*
X47526106Y-23012639D01*
X47636904Y-22795185D01*
X47712321Y-22563076D01*
X47750500Y-22322027D01*
X47750500Y-22077973D01*
X47731625Y-21958805D01*
X47740579Y-21889515D01*
X47785575Y-21836063D01*
X47852326Y-21815423D01*
X47919640Y-21834147D01*
X47929023Y-21840606D01*
X48052656Y-21934360D01*
X48052657Y-21934360D01*
X48052658Y-21934361D01*
X48193436Y-21989877D01*
X48281898Y-22000500D01*
X48281903Y-22000500D01*
X48893097Y-22000500D01*
X48893102Y-22000500D01*
X48981564Y-21989877D01*
X49122342Y-21934361D01*
X49242922Y-21842922D01*
X49334361Y-21722342D01*
X49384646Y-21594826D01*
X49427551Y-21539685D01*
X49493459Y-21516492D01*
X49561443Y-21532612D01*
X49609920Y-21582929D01*
X49615348Y-21594814D01*
X49650652Y-21684339D01*
X49665639Y-21722343D01*
X49757077Y-21842922D01*
X49877656Y-21934360D01*
X49877657Y-21934360D01*
X49877658Y-21934361D01*
X50018436Y-21989877D01*
X50106898Y-22000500D01*
X50106903Y-22000500D01*
X50718098Y-22000500D01*
X50718102Y-22000500D01*
X50741419Y-21997699D01*
X50810324Y-22009248D01*
X50843885Y-22033133D01*
X51142615Y-22331863D01*
X51221837Y-22411085D01*
X51318863Y-22467103D01*
X51427082Y-22496100D01*
X51427084Y-22496100D01*
X53422916Y-22496100D01*
X53422918Y-22496100D01*
X53531137Y-22467103D01*
X53628163Y-22411085D01*
X54008178Y-22031068D01*
X54069499Y-21997585D01*
X54110638Y-21995636D01*
X54151140Y-22000500D01*
X54151142Y-22000500D01*
X54712700Y-22000500D01*
X54779739Y-22020185D01*
X54825494Y-22072989D01*
X54836700Y-22124500D01*
X54836700Y-23499747D01*
X54817015Y-23566786D01*
X54764211Y-23612541D01*
X54695053Y-23622485D01*
X54673696Y-23617453D01*
X54652697Y-23610494D01*
X54652690Y-23610493D01*
X54549986Y-23600000D01*
X53800000Y-23600000D01*
X53800000Y-26399999D01*
X54549972Y-26399999D01*
X54549986Y-26399998D01*
X54652698Y-26389505D01*
X54673694Y-26382548D01*
X54743522Y-26380145D01*
X54803565Y-26415875D01*
X54834758Y-26478395D01*
X54836700Y-26500253D01*
X54836700Y-28499747D01*
X54817015Y-28566786D01*
X54764211Y-28612541D01*
X54695053Y-28622485D01*
X54673696Y-28617453D01*
X54652697Y-28610494D01*
X54652690Y-28610493D01*
X54549986Y-28600000D01*
X53800000Y-28600000D01*
X53800000Y-31399999D01*
X54549972Y-31399999D01*
X54549986Y-31399998D01*
X54652698Y-31389505D01*
X54673694Y-31382548D01*
X54743522Y-31380145D01*
X54803565Y-31415875D01*
X54834758Y-31478395D01*
X54836700Y-31500253D01*
X54836700Y-33499747D01*
X54817015Y-33566786D01*
X54764211Y-33612541D01*
X54695053Y-33622485D01*
X54673696Y-33617453D01*
X54652697Y-33610494D01*
X54652690Y-33610493D01*
X54549986Y-33600000D01*
X53800000Y-33600000D01*
X53800000Y-36227690D01*
X53780315Y-36294729D01*
X53763681Y-36315371D01*
X53156617Y-36922434D01*
X53156613Y-36922440D01*
X53100598Y-37019460D01*
X53100597Y-37019463D01*
X53071600Y-37127682D01*
X53071600Y-37867845D01*
X53070217Y-37867845D01*
X53060783Y-37928347D01*
X53014404Y-37980604D01*
X52948608Y-37999500D01*
X52781898Y-37999500D01*
X52742853Y-38004188D01*
X52693438Y-38010122D01*
X52552656Y-38065639D01*
X52432077Y-38157077D01*
X52340639Y-38277656D01*
X52285122Y-38418438D01*
X52282453Y-38440671D01*
X52279497Y-38465285D01*
X52251961Y-38529497D01*
X52194079Y-38568631D01*
X52156382Y-38574500D01*
X51843618Y-38574500D01*
X51776579Y-38554815D01*
X51730824Y-38502011D01*
X51720503Y-38465286D01*
X51714877Y-38418436D01*
X51659361Y-38277658D01*
X51659360Y-38277657D01*
X51659360Y-38277656D01*
X51567922Y-38157077D01*
X51447342Y-38065638D01*
X51416508Y-38053479D01*
X51361365Y-38010572D01*
X51338173Y-37944664D01*
X51338000Y-37938125D01*
X51338000Y-37863718D01*
X51357685Y-37796679D01*
X51374314Y-37776041D01*
X51456614Y-37693742D01*
X51533275Y-37579011D01*
X51586080Y-37451528D01*
X51606214Y-37350309D01*
X51613000Y-37316195D01*
X51613000Y-37178204D01*
X51586081Y-37042877D01*
X51586080Y-37042876D01*
X51586080Y-37042872D01*
X51576384Y-37019463D01*
X51533278Y-36915395D01*
X51533271Y-36915382D01*
X51456614Y-36800658D01*
X51456611Y-36800654D01*
X51359045Y-36703088D01*
X51359041Y-36703085D01*
X51244317Y-36626428D01*
X51244306Y-36626422D01*
X51239979Y-36624630D01*
X51185578Y-36580787D01*
X51163516Y-36514491D01*
X51180798Y-36446793D01*
X51199747Y-36422399D01*
X51437585Y-36184563D01*
X51493603Y-36087537D01*
X51522600Y-35979318D01*
X51522600Y-35867281D01*
X51522600Y-35853204D01*
X51542285Y-35786165D01*
X51595089Y-35740410D01*
X51664247Y-35730466D01*
X51727803Y-35759491D01*
X51764306Y-35814200D01*
X51815641Y-35969119D01*
X51815643Y-35969124D01*
X51907684Y-36118345D01*
X52031654Y-36242315D01*
X52180875Y-36334356D01*
X52180880Y-36334358D01*
X52347302Y-36389505D01*
X52347309Y-36389506D01*
X52450019Y-36399999D01*
X53199999Y-36399999D01*
X53200000Y-36399998D01*
X53200000Y-33600000D01*
X52450028Y-33600000D01*
X52450012Y-33600001D01*
X52347302Y-33610494D01*
X52180880Y-33665641D01*
X52180875Y-33665643D01*
X52031654Y-33757684D01*
X51907684Y-33881654D01*
X51815643Y-34030875D01*
X51815641Y-34030880D01*
X51764306Y-34185801D01*
X51724533Y-34243246D01*
X51660018Y-34270069D01*
X51591242Y-34257754D01*
X51540042Y-34210211D01*
X51522600Y-34146797D01*
X51522600Y-30853204D01*
X51542285Y-30786165D01*
X51595089Y-30740410D01*
X51664247Y-30730466D01*
X51727803Y-30759491D01*
X51764306Y-30814200D01*
X51815641Y-30969119D01*
X51815643Y-30969124D01*
X51907684Y-31118345D01*
X52031654Y-31242315D01*
X52180875Y-31334356D01*
X52180880Y-31334358D01*
X52347302Y-31389505D01*
X52347309Y-31389506D01*
X52450019Y-31399999D01*
X53199999Y-31399999D01*
X53200000Y-31399998D01*
X53200000Y-28600000D01*
X52450028Y-28600000D01*
X52450012Y-28600001D01*
X52347302Y-28610494D01*
X52180880Y-28665641D01*
X52180875Y-28665643D01*
X52031654Y-28757684D01*
X51907684Y-28881654D01*
X51815643Y-29030875D01*
X51815641Y-29030880D01*
X51764306Y-29185801D01*
X51724533Y-29243246D01*
X51660018Y-29270069D01*
X51591242Y-29257754D01*
X51540042Y-29210211D01*
X51522600Y-29146797D01*
X51522600Y-29042684D01*
X51522600Y-29042682D01*
X51493603Y-28934463D01*
X51437585Y-28837437D01*
X51358363Y-28758215D01*
X50987463Y-28387315D01*
X50890437Y-28331297D01*
X50782218Y-28302300D01*
X50782217Y-28302300D01*
X47631300Y-28302300D01*
X47564261Y-28282615D01*
X47518506Y-28229811D01*
X47508562Y-28160653D01*
X47524253Y-28117163D01*
X47523894Y-28116980D01*
X47525352Y-28114116D01*
X47525570Y-28113515D01*
X47526101Y-28112647D01*
X47526105Y-28112640D01*
X47526106Y-28112639D01*
X47636904Y-27895185D01*
X47712321Y-27663076D01*
X47750500Y-27422027D01*
X47750500Y-27177973D01*
X47712321Y-26936924D01*
X47636904Y-26704815D01*
X47526106Y-26487361D01*
X47462634Y-26399999D01*
X47382660Y-26289923D01*
X47382656Y-26289918D01*
X47210081Y-26117343D01*
X47210076Y-26117339D01*
X47012642Y-25973896D01*
X47012641Y-25973895D01*
X47012639Y-25973894D01*
X46795185Y-25863096D01*
X46563076Y-25787679D01*
X46563074Y-25787678D01*
X46563072Y-25787678D01*
X46394769Y-25761021D01*
X46322027Y-25749500D01*
X46077973Y-25749500D01*
X46022093Y-25758350D01*
X45836927Y-25787678D01*
X45604812Y-25863097D01*
X45387357Y-25973896D01*
X45189923Y-26117339D01*
X45189918Y-26117343D01*
X45017343Y-26289918D01*
X45017339Y-26289923D01*
X44873896Y-26487357D01*
X44763097Y-26704812D01*
X44687678Y-26936927D01*
X44649500Y-27177973D01*
X44649500Y-27422026D01*
X44666230Y-27527658D01*
X44687679Y-27663076D01*
X44763096Y-27895185D01*
X44865748Y-28096652D01*
X44873896Y-28112642D01*
X45007341Y-28296315D01*
X45030821Y-28362121D01*
X45014995Y-28430175D01*
X44964889Y-28478870D01*
X44907023Y-28493200D01*
X44545412Y-28493200D01*
X44478373Y-28473515D01*
X44438025Y-28431200D01*
X44437433Y-28430175D01*
X44427885Y-28413637D01*
X44348663Y-28334415D01*
X44033133Y-28018885D01*
X43999648Y-27957562D01*
X43997699Y-27916423D01*
X44000500Y-27893102D01*
X44000500Y-27281898D01*
X43989877Y-27193436D01*
X43934361Y-27052658D01*
X43934360Y-27052657D01*
X43934360Y-27052656D01*
X43842922Y-26932077D01*
X43722343Y-26840639D01*
X43626192Y-26802722D01*
X43581564Y-26785123D01*
X43581563Y-26785122D01*
X43581561Y-26785122D01*
X43534706Y-26779496D01*
X43493102Y-26774500D01*
X43460523Y-26774500D01*
X43393484Y-26754815D01*
X43347729Y-26702011D01*
X43337785Y-26632853D01*
X43366810Y-26569297D01*
X43372842Y-26562819D01*
X43492315Y-26443345D01*
X43584356Y-26294124D01*
X43584358Y-26294119D01*
X43639505Y-26127697D01*
X43639506Y-26127690D01*
X43649999Y-26024986D01*
X43650000Y-26024973D01*
X43650000Y-25800000D01*
X42774000Y-25800000D01*
X42706961Y-25780315D01*
X42661206Y-25727511D01*
X42650000Y-25676000D01*
X42650000Y-25324000D01*
X42669685Y-25256961D01*
X42722489Y-25211206D01*
X42774000Y-25200000D01*
X43649999Y-25200000D01*
X43649999Y-24975028D01*
X43649998Y-24975013D01*
X43639505Y-24872302D01*
X43584358Y-24705880D01*
X43584356Y-24705875D01*
X43492315Y-24556654D01*
X43368345Y-24432684D01*
X43329511Y-24408731D01*
X43219124Y-24340643D01*
X43219121Y-24340642D01*
X43117289Y-24306898D01*
X47949500Y-24306898D01*
X47949500Y-25693102D01*
X47953632Y-25727511D01*
X47960122Y-25781561D01*
X47960122Y-25781563D01*
X47960123Y-25781564D01*
X47965959Y-25796362D01*
X48015639Y-25922343D01*
X48107077Y-26042922D01*
X48227656Y-26134360D01*
X48227657Y-26134360D01*
X48227658Y-26134361D01*
X48368436Y-26189877D01*
X48456898Y-26200500D01*
X48456903Y-26200500D01*
X50543097Y-26200500D01*
X50543102Y-26200500D01*
X50631564Y-26189877D01*
X50772342Y-26134361D01*
X50892922Y-26042922D01*
X50984361Y-25922342D01*
X51039877Y-25781564D01*
X51049673Y-25699986D01*
X51750001Y-25699986D01*
X51760494Y-25802697D01*
X51815641Y-25969119D01*
X51815643Y-25969124D01*
X51907684Y-26118345D01*
X52031654Y-26242315D01*
X52180875Y-26334356D01*
X52180880Y-26334358D01*
X52347302Y-26389505D01*
X52347309Y-26389506D01*
X52450019Y-26399999D01*
X53199999Y-26399999D01*
X53200000Y-26399998D01*
X53200000Y-25300000D01*
X51750001Y-25300000D01*
X51750001Y-25699986D01*
X51049673Y-25699986D01*
X51050500Y-25693102D01*
X51050500Y-24306898D01*
X51049673Y-24300013D01*
X51750000Y-24300013D01*
X51750000Y-24700000D01*
X53200000Y-24700000D01*
X53200000Y-23600000D01*
X52450028Y-23600000D01*
X52450012Y-23600001D01*
X52347302Y-23610494D01*
X52180880Y-23665641D01*
X52180875Y-23665643D01*
X52031654Y-23757684D01*
X51907684Y-23881654D01*
X51815643Y-24030875D01*
X51815641Y-24030880D01*
X51760494Y-24197302D01*
X51760493Y-24197309D01*
X51750000Y-24300013D01*
X51049673Y-24300013D01*
X51039877Y-24218436D01*
X50984361Y-24077658D01*
X50984360Y-24077657D01*
X50984360Y-24077656D01*
X50892922Y-23957077D01*
X50772343Y-23865639D01*
X50631561Y-23810122D01*
X50585926Y-23804642D01*
X50543102Y-23799500D01*
X50543097Y-23799500D01*
X50301388Y-23799500D01*
X50234349Y-23779815D01*
X50188594Y-23727011D01*
X50178650Y-23657853D01*
X50179771Y-23651309D01*
X50200499Y-23547097D01*
X50200500Y-23547095D01*
X50200500Y-23409104D01*
X50173581Y-23273777D01*
X50173580Y-23273776D01*
X50173580Y-23273772D01*
X50160228Y-23241538D01*
X50120778Y-23146295D01*
X50120771Y-23146282D01*
X50044114Y-23031558D01*
X50044111Y-23031554D01*
X49946545Y-22933988D01*
X49946541Y-22933985D01*
X49831817Y-22857328D01*
X49831804Y-22857321D01*
X49704332Y-22804521D01*
X49704322Y-22804518D01*
X49568995Y-22777600D01*
X49568993Y-22777600D01*
X49431007Y-22777600D01*
X49431005Y-22777600D01*
X49295677Y-22804518D01*
X49295667Y-22804521D01*
X49168195Y-22857321D01*
X49168182Y-22857328D01*
X49053458Y-22933985D01*
X49053454Y-22933988D01*
X48955888Y-23031554D01*
X48955885Y-23031558D01*
X48879228Y-23146282D01*
X48879221Y-23146295D01*
X48826421Y-23273767D01*
X48826418Y-23273777D01*
X48799500Y-23409104D01*
X48799500Y-23547097D01*
X48820229Y-23651309D01*
X48814002Y-23720901D01*
X48771139Y-23776078D01*
X48705249Y-23799322D01*
X48698612Y-23799500D01*
X48456898Y-23799500D01*
X48417853Y-23804188D01*
X48368438Y-23810122D01*
X48227656Y-23865639D01*
X48107077Y-23957077D01*
X48015639Y-24077656D01*
X47960122Y-24218438D01*
X47955671Y-24255507D01*
X47949500Y-24306898D01*
X43117289Y-24306898D01*
X43082229Y-24295280D01*
X43024785Y-24255507D01*
X42997962Y-24190991D01*
X43010277Y-24122215D01*
X43033549Y-24089897D01*
X43336628Y-23786818D01*
X43397951Y-23753334D01*
X43424309Y-23750500D01*
X43809270Y-23750500D01*
X43839699Y-23747646D01*
X43839701Y-23747646D01*
X43904421Y-23724999D01*
X43967882Y-23702793D01*
X44077150Y-23622150D01*
X44157793Y-23512882D01*
X44180859Y-23446964D01*
X44202646Y-23384701D01*
X44202646Y-23384699D01*
X44205500Y-23354269D01*
X44205500Y-21595730D01*
X44202646Y-21565300D01*
X44202646Y-21565298D01*
X44157793Y-21437119D01*
X44157792Y-21437117D01*
X44077150Y-21327850D01*
X44077148Y-21327849D01*
X44077148Y-21327848D01*
X44070580Y-21321280D01*
X44072407Y-21319452D01*
X44038614Y-21274940D01*
X44030500Y-21230823D01*
X44030500Y-20475980D01*
X44028500Y-20468517D01*
X44028499Y-20468515D01*
X44027237Y-20463806D01*
X44001503Y-20367763D01*
X43982583Y-20334992D01*
X43962669Y-20300500D01*
X43945487Y-20270740D01*
X43945482Y-20270734D01*
X42783353Y-19108605D01*
X42749868Y-19047282D01*
X42754852Y-18977590D01*
X42796724Y-18921657D01*
X42807913Y-18914192D01*
X42886553Y-18867684D01*
X42892722Y-18862900D01*
X42894546Y-18865252D01*
X42943595Y-18838445D01*
X43013288Y-18843402D01*
X43046063Y-18864465D01*
X43047278Y-18862900D01*
X43053447Y-18867685D01*
X43194801Y-18951281D01*
X43305000Y-18983296D01*
X43305000Y-18983295D01*
X43905000Y-18983295D01*
X44015198Y-18951281D01*
X44156552Y-18867685D01*
X44156561Y-18867678D01*
X44272678Y-18751561D01*
X44272685Y-18751552D01*
X44356282Y-18610196D01*
X44356283Y-18610193D01*
X44402099Y-18452495D01*
X44402100Y-18452489D01*
X44404999Y-18415649D01*
X44405000Y-18415634D01*
X44405000Y-17825000D01*
X43905000Y-17825000D01*
X43905000Y-18983295D01*
X43305000Y-18983295D01*
X43305000Y-17825000D01*
X42249600Y-17825000D01*
X42182561Y-17805315D01*
X42136806Y-17752511D01*
X42125600Y-17701000D01*
X42125600Y-16066702D01*
X42635000Y-16066702D01*
X42635000Y-17225000D01*
X43305000Y-17225000D01*
X43305000Y-16066702D01*
X43905000Y-16066702D01*
X43905000Y-17225000D01*
X44405000Y-17225000D01*
X44405000Y-16634365D01*
X44404999Y-16634350D01*
X44402100Y-16597510D01*
X44402099Y-16597504D01*
X44356283Y-16439806D01*
X44356282Y-16439803D01*
X44272685Y-16298447D01*
X44272678Y-16298438D01*
X44156561Y-16182321D01*
X44156552Y-16182314D01*
X44015196Y-16098717D01*
X44015193Y-16098715D01*
X43905001Y-16066701D01*
X43905000Y-16066702D01*
X43305000Y-16066702D01*
X43304998Y-16066701D01*
X43194806Y-16098715D01*
X43194803Y-16098717D01*
X43053447Y-16182314D01*
X43047278Y-16187100D01*
X43045457Y-16184753D01*
X42996358Y-16211564D01*
X42926666Y-16206580D01*
X42893930Y-16185541D01*
X42892722Y-16187100D01*
X42886552Y-16182314D01*
X42745196Y-16098717D01*
X42745193Y-16098715D01*
X42635001Y-16066701D01*
X42635000Y-16066702D01*
X42125600Y-16066702D01*
X42125600Y-13839385D01*
X42145285Y-13772346D01*
X42198089Y-13726591D01*
X42262203Y-13716027D01*
X42349999Y-13724996D01*
X42350000Y-13724996D01*
X42350000Y-13724995D01*
X42950000Y-13724995D01*
X43052695Y-13714506D01*
X43052698Y-13714505D01*
X43219119Y-13659358D01*
X43219124Y-13659356D01*
X43368345Y-13567315D01*
X43492315Y-13443345D01*
X43584356Y-13294124D01*
X43584358Y-13294119D01*
X43639505Y-13127697D01*
X43639506Y-13127690D01*
X43649999Y-13024986D01*
X43650000Y-13024973D01*
X43650000Y-12800000D01*
X42950000Y-12800000D01*
X42950000Y-13724995D01*
X42350000Y-13724995D01*
X42350000Y-12200000D01*
X42950000Y-12200000D01*
X43649999Y-12200000D01*
X43649999Y-11975028D01*
X43649998Y-11975013D01*
X43639505Y-11872302D01*
X43584358Y-11705880D01*
X43584356Y-11705875D01*
X43492315Y-11556654D01*
X43368345Y-11432684D01*
X43243273Y-11355539D01*
X43196549Y-11303591D01*
X43185326Y-11234628D01*
X43213170Y-11170546D01*
X43243273Y-11144461D01*
X43368345Y-11067315D01*
X43492315Y-10943345D01*
X43584356Y-10794124D01*
X43584358Y-10794119D01*
X43639505Y-10627697D01*
X43639506Y-10627690D01*
X43649999Y-10524986D01*
X43650000Y-10524973D01*
X43650000Y-10300000D01*
X42950000Y-10300000D01*
X42950000Y-12200000D01*
X42350000Y-12200000D01*
X42350000Y-9700000D01*
X42950000Y-9700000D01*
X43649999Y-9700000D01*
X43649999Y-9475028D01*
X43649998Y-9475013D01*
X43639505Y-9372302D01*
X43584358Y-9205880D01*
X43584356Y-9205875D01*
X43492315Y-9056654D01*
X43368345Y-8932684D01*
X43219124Y-8840643D01*
X43219119Y-8840641D01*
X43052697Y-8785494D01*
X43052690Y-8785493D01*
X42950000Y-8775002D01*
X42950000Y-9700000D01*
X42350000Y-9700000D01*
X42350000Y-8775003D01*
X42349999Y-8775002D01*
X42262202Y-8783972D01*
X42193509Y-8771202D01*
X42142625Y-8723322D01*
X42125600Y-8660614D01*
X42125600Y-5712816D01*
X42145285Y-5645777D01*
X42161919Y-5625135D01*
X42212571Y-5574483D01*
X42267553Y-5519501D01*
X42373996Y-5372994D01*
X42456211Y-5211639D01*
X42512171Y-5039409D01*
X42528106Y-4938797D01*
X42537527Y-4879321D01*
X42567456Y-4816186D01*
X42626768Y-4779255D01*
X42696630Y-4780253D01*
X42754863Y-4818863D01*
X42782473Y-4879321D01*
X42807829Y-5039410D01*
X42863787Y-5211636D01*
X42863788Y-5211639D01*
X42919664Y-5321300D01*
X42946003Y-5372993D01*
X42946006Y-5372997D01*
X43052441Y-5519494D01*
X43052445Y-5519499D01*
X43180500Y-5647554D01*
X43180505Y-5647558D01*
X43282386Y-5721578D01*
X43327006Y-5753996D01*
X43401593Y-5792000D01*
X43488360Y-5836211D01*
X43488363Y-5836212D01*
X43574476Y-5864191D01*
X43660591Y-5892171D01*
X43743429Y-5905291D01*
X43839449Y-5920500D01*
X43839454Y-5920500D01*
X44020551Y-5920500D01*
X44107259Y-5906765D01*
X44199409Y-5892171D01*
X44371639Y-5836211D01*
X44532994Y-5753996D01*
X44629215Y-5684088D01*
X44695021Y-5660608D01*
X44763075Y-5676433D01*
X44811770Y-5726539D01*
X44826100Y-5784406D01*
X44826100Y-7618882D01*
X44826100Y-7730918D01*
X44852968Y-7831189D01*
X44855097Y-7839136D01*
X44855098Y-7839139D01*
X44873769Y-7871479D01*
X44911115Y-7936163D01*
X44911117Y-7936165D01*
X45572393Y-8597441D01*
X45605878Y-8658764D01*
X45600894Y-8728456D01*
X45559022Y-8784389D01*
X45541007Y-8795607D01*
X45387357Y-8873896D01*
X45189923Y-9017339D01*
X45189918Y-9017343D01*
X45017343Y-9189918D01*
X45017339Y-9189923D01*
X44873896Y-9387357D01*
X44763097Y-9604812D01*
X44687678Y-9836927D01*
X44649500Y-10077973D01*
X44649500Y-10322026D01*
X44682681Y-10531525D01*
X44687679Y-10563076D01*
X44763096Y-10795185D01*
X44872612Y-11010123D01*
X44873896Y-11012642D01*
X45017339Y-11210076D01*
X45017343Y-11210081D01*
X45189918Y-11382656D01*
X45189923Y-11382660D01*
X45334184Y-11487471D01*
X45387361Y-11526106D01*
X45604815Y-11636904D01*
X45836924Y-11712321D01*
X46077973Y-11750500D01*
X46077974Y-11750500D01*
X46322026Y-11750500D01*
X46322027Y-11750500D01*
X46563076Y-11712321D01*
X46795185Y-11636904D01*
X47012639Y-11526106D01*
X47210083Y-11382655D01*
X47382655Y-11210083D01*
X47526106Y-11012639D01*
X47636904Y-10795185D01*
X47712321Y-10563076D01*
X47750500Y-10322027D01*
X47750500Y-10077973D01*
X47712321Y-9836924D01*
X47636904Y-9604815D01*
X47526106Y-9387361D01*
X47428239Y-9252658D01*
X47382660Y-9189923D01*
X47382656Y-9189918D01*
X47210081Y-9017343D01*
X47210076Y-9017339D01*
X47012642Y-8873896D01*
X47012641Y-8873895D01*
X47012639Y-8873894D01*
X46944730Y-8839293D01*
X46795189Y-8763097D01*
X46711181Y-8735801D01*
X46653506Y-8696362D01*
X46626308Y-8632004D01*
X46625500Y-8617870D01*
X46625500Y-8567283D01*
X46625500Y-8567282D01*
X46617717Y-8538237D01*
X46596503Y-8459063D01*
X46540485Y-8362037D01*
X45713419Y-7534971D01*
X45679934Y-7473648D01*
X45677100Y-7447290D01*
X45677100Y-5859039D01*
X45696785Y-5792000D01*
X45749589Y-5746245D01*
X45818747Y-5736301D01*
X45862507Y-5752092D01*
X45862665Y-5751784D01*
X45865122Y-5753036D01*
X45865898Y-5753316D01*
X45866994Y-5753987D01*
X45867006Y-5753996D01*
X45936264Y-5789285D01*
X46028360Y-5836211D01*
X46028363Y-5836212D01*
X46114476Y-5864191D01*
X46200591Y-5892171D01*
X46283429Y-5905291D01*
X46379449Y-5920500D01*
X46379454Y-5920500D01*
X46560551Y-5920500D01*
X46647259Y-5906765D01*
X46739409Y-5892171D01*
X46911639Y-5836211D01*
X47072994Y-5753996D01*
X47219501Y-5647553D01*
X47347553Y-5519501D01*
X47453996Y-5372994D01*
X47536211Y-5211639D01*
X47592171Y-5039409D01*
X47608106Y-4938797D01*
X47617527Y-4879321D01*
X47647456Y-4816186D01*
X47706768Y-4779255D01*
X47776630Y-4780253D01*
X47834863Y-4818863D01*
X47862473Y-4879321D01*
X47887829Y-5039410D01*
X47943787Y-5211636D01*
X47943788Y-5211639D01*
X47999664Y-5321300D01*
X48026003Y-5372993D01*
X48026006Y-5372997D01*
X48132441Y-5519494D01*
X48132445Y-5519499D01*
X48260500Y-5647554D01*
X48260505Y-5647558D01*
X48362386Y-5721578D01*
X48407006Y-5753996D01*
X48481593Y-5792000D01*
X48568360Y-5836211D01*
X48568363Y-5836212D01*
X48654476Y-5864191D01*
X48740591Y-5892171D01*
X48823429Y-5905291D01*
X48919449Y-5920500D01*
X48919454Y-5920500D01*
X49100551Y-5920500D01*
X49187259Y-5906765D01*
X49279409Y-5892171D01*
X49451639Y-5836211D01*
X49612994Y-5753996D01*
X49759501Y-5647553D01*
X49887553Y-5519501D01*
X49993996Y-5372994D01*
X50076211Y-5211639D01*
X50132171Y-5039409D01*
X50148106Y-4938797D01*
X50157527Y-4879321D01*
X50187456Y-4816186D01*
X50246768Y-4779255D01*
X50316630Y-4780253D01*
G37*
%TD.AperFunction*%
%TA.AperFunction,Conductor*%
G36*
X5305165Y-20857685D02*
G01*
X5350920Y-20910489D01*
X5353481Y-20916511D01*
X5365639Y-20947342D01*
X5457077Y-21067922D01*
X5577656Y-21159360D01*
X5577657Y-21159360D01*
X5577658Y-21159361D01*
X5718436Y-21214877D01*
X5765285Y-21220502D01*
X5829497Y-21248039D01*
X5868631Y-21305921D01*
X5874500Y-21343618D01*
X5874500Y-22285558D01*
X5854815Y-22352597D01*
X5802011Y-22398352D01*
X5732853Y-22408296D01*
X5669297Y-22379271D01*
X5631523Y-22320493D01*
X5630725Y-22317651D01*
X5613236Y-22252381D01*
X5527954Y-22046497D01*
X5527949Y-22046485D01*
X5416530Y-21853502D01*
X5396658Y-21827605D01*
X5396657Y-21827605D01*
X4579555Y-22644707D01*
X4559111Y-22568409D01*
X4480119Y-22431592D01*
X4368408Y-22319881D01*
X4231591Y-22240889D01*
X4155291Y-22220444D01*
X4972394Y-21403341D01*
X4972393Y-21403340D01*
X4946497Y-21383468D01*
X4753514Y-21272050D01*
X4753502Y-21272045D01*
X4547618Y-21186763D01*
X4328444Y-21128037D01*
X4328891Y-21126367D01*
X4273242Y-21097230D01*
X4238691Y-21036501D01*
X4242457Y-20966733D01*
X4271696Y-20920351D01*
X4317730Y-20874318D01*
X4379053Y-20840834D01*
X4405410Y-20838000D01*
X5238126Y-20838000D01*
X5305165Y-20857685D01*
G37*
%TD.AperFunction*%
%TA.AperFunction,Conductor*%
G36*
X12216630Y-4780253D02*
G01*
X12274863Y-4818863D01*
X12302473Y-4879321D01*
X12327829Y-5039410D01*
X12383787Y-5211636D01*
X12383788Y-5211639D01*
X12439664Y-5321300D01*
X12466003Y-5372993D01*
X12466006Y-5372997D01*
X12572441Y-5519494D01*
X12572445Y-5519499D01*
X12700500Y-5647554D01*
X12700505Y-5647558D01*
X12802386Y-5721578D01*
X12847006Y-5753996D01*
X12921593Y-5792000D01*
X13008360Y-5836211D01*
X13008363Y-5836212D01*
X13094476Y-5864191D01*
X13180591Y-5892171D01*
X13263429Y-5905291D01*
X13359449Y-5920500D01*
X13359454Y-5920500D01*
X13540551Y-5920500D01*
X13627259Y-5906765D01*
X13719409Y-5892171D01*
X13891639Y-5836211D01*
X14052994Y-5753996D01*
X14062850Y-5746834D01*
X14128656Y-5723355D01*
X14196710Y-5739180D01*
X14245405Y-5789285D01*
X14259281Y-5857763D01*
X14233932Y-5922873D01*
X14223417Y-5934834D01*
X12712037Y-7446215D01*
X12632817Y-7525434D01*
X12632813Y-7525440D01*
X12576798Y-7622460D01*
X12576797Y-7622463D01*
X12547800Y-7730682D01*
X12547800Y-17184295D01*
X12528115Y-17251334D01*
X12475311Y-17297089D01*
X12406153Y-17307033D01*
X12367505Y-17294780D01*
X12214383Y-17216761D01*
X12214382Y-17216760D01*
X12214379Y-17216759D01*
X11974785Y-17138910D01*
X11725962Y-17099500D01*
X11474038Y-17099500D01*
X11349626Y-17119205D01*
X11225214Y-17138910D01*
X10985616Y-17216760D01*
X10761151Y-17331132D01*
X10557350Y-17479201D01*
X10557345Y-17479205D01*
X10379205Y-17657345D01*
X10379201Y-17657350D01*
X10231132Y-17861151D01*
X10116760Y-18085616D01*
X10038910Y-18325214D01*
X10024576Y-18415718D01*
X9999500Y-18574038D01*
X9999500Y-18825962D01*
X10024834Y-18985916D01*
X10038910Y-19074785D01*
X10116760Y-19314383D01*
X10188594Y-19455363D01*
X10227301Y-19531331D01*
X10231132Y-19538848D01*
X10379201Y-19742649D01*
X10379205Y-19742654D01*
X10557345Y-19920794D01*
X10557350Y-19920798D01*
X10673471Y-20005164D01*
X10761155Y-20068870D01*
X10845059Y-20111621D01*
X10985616Y-20183239D01*
X10985618Y-20183239D01*
X10985621Y-20183241D01*
X11225215Y-20261090D01*
X11474038Y-20300500D01*
X11474039Y-20300500D01*
X11725961Y-20300500D01*
X11725962Y-20300500D01*
X11974785Y-20261090D01*
X12214379Y-20183241D01*
X12438845Y-20068870D01*
X12606515Y-19947051D01*
X12672321Y-19923571D01*
X12740375Y-19939396D01*
X12789070Y-19989502D01*
X12803400Y-20047369D01*
X12803400Y-20250290D01*
X12783715Y-20317329D01*
X12767081Y-20337971D01*
X11829752Y-21275299D01*
X11768429Y-21308784D01*
X11698737Y-21303800D01*
X11642804Y-21261928D01*
X11618955Y-21202402D01*
X11614877Y-21168436D01*
X11559361Y-21027658D01*
X11559360Y-21027657D01*
X11559360Y-21027656D01*
X11467922Y-20907077D01*
X11347343Y-20815639D01*
X11206561Y-20760122D01*
X11160926Y-20754642D01*
X11118102Y-20749500D01*
X11118097Y-20749500D01*
X10452610Y-20749500D01*
X10385571Y-20729815D01*
X10364929Y-20713181D01*
X7898765Y-18247017D01*
X7898763Y-18247015D01*
X7834079Y-18209669D01*
X7801739Y-18190998D01*
X7801738Y-18190997D01*
X7801737Y-18190997D01*
X7693518Y-18162000D01*
X7693517Y-18162000D01*
X7361874Y-18162000D01*
X7294835Y-18142315D01*
X7249080Y-18089511D01*
X7246519Y-18083489D01*
X7242031Y-18072108D01*
X7234361Y-18052658D01*
X7195760Y-18001755D01*
X7142922Y-17932077D01*
X7022343Y-17840639D01*
X6890756Y-17788748D01*
X6881564Y-17785123D01*
X6881562Y-17785122D01*
X6881558Y-17785121D01*
X6834715Y-17779496D01*
X6770501Y-17751959D01*
X6731368Y-17694076D01*
X6725500Y-17656381D01*
X6725500Y-14801574D01*
X6745185Y-14734535D01*
X6797989Y-14688780D01*
X6867147Y-14678836D01*
X6930703Y-14707861D01*
X6964061Y-14754122D01*
X6982160Y-14797819D01*
X6982168Y-14797835D01*
X7100138Y-15002163D01*
X7100148Y-15002178D01*
X7132020Y-15043715D01*
X7863442Y-14312293D01*
X7891049Y-14378942D01*
X7978599Y-14509970D01*
X8090030Y-14621401D01*
X8221058Y-14708951D01*
X8287706Y-14736557D01*
X7556284Y-15467979D01*
X7597822Y-15499851D01*
X7597836Y-15499861D01*
X7802164Y-15617831D01*
X7802180Y-15617839D01*
X8020163Y-15708129D01*
X8020161Y-15708129D01*
X8248085Y-15769200D01*
X8482014Y-15799999D01*
X8482029Y-15800000D01*
X8717971Y-15800000D01*
X8717985Y-15799999D01*
X8951914Y-15769200D01*
X9179837Y-15708129D01*
X9397819Y-15617839D01*
X9397828Y-15617834D01*
X9602171Y-15499855D01*
X9602172Y-15499854D01*
X9643714Y-15467978D01*
X8912293Y-14736557D01*
X8978942Y-14708951D01*
X9109970Y-14621401D01*
X9221401Y-14509970D01*
X9308951Y-14378942D01*
X9336557Y-14312293D01*
X10067978Y-15043714D01*
X10099854Y-15002172D01*
X10099855Y-15002171D01*
X10217834Y-14797828D01*
X10217839Y-14797819D01*
X10308129Y-14579837D01*
X10369200Y-14351914D01*
X10399999Y-14117985D01*
X10400000Y-14117971D01*
X10400000Y-13882028D01*
X10399999Y-13882014D01*
X10369200Y-13648085D01*
X10308129Y-13420162D01*
X10217839Y-13202180D01*
X10217831Y-13202164D01*
X10099861Y-12997836D01*
X10099851Y-12997822D01*
X10067979Y-12956284D01*
X9336557Y-13687705D01*
X9308951Y-13621058D01*
X9221401Y-13490030D01*
X9109970Y-13378599D01*
X8978942Y-13291049D01*
X8912294Y-13263442D01*
X9643715Y-12532020D01*
X9602178Y-12500148D01*
X9602163Y-12500138D01*
X9397835Y-12382168D01*
X9397819Y-12382160D01*
X9179836Y-12291870D01*
X9179838Y-12291870D01*
X8951914Y-12230799D01*
X8717985Y-12200000D01*
X8482014Y-12200000D01*
X8248085Y-12230799D01*
X8020162Y-12291870D01*
X7802180Y-12382160D01*
X7802164Y-12382168D01*
X7597836Y-12500138D01*
X7597823Y-12500147D01*
X7556283Y-12532020D01*
X8287706Y-13263442D01*
X8221058Y-13291049D01*
X8090030Y-13378599D01*
X7978599Y-13490030D01*
X7891049Y-13621058D01*
X7863442Y-13687705D01*
X7132020Y-12956283D01*
X7100147Y-12997823D01*
X7100138Y-12997836D01*
X6982168Y-13202164D01*
X6982163Y-13202175D01*
X6964061Y-13245878D01*
X6920220Y-13300281D01*
X6853926Y-13322346D01*
X6786226Y-13305067D01*
X6738616Y-13253929D01*
X6725500Y-13198425D01*
X6725500Y-8244310D01*
X6745185Y-8177271D01*
X6761819Y-8156629D01*
X7728958Y-7189490D01*
X8710485Y-6207963D01*
X8766503Y-6110937D01*
X8792904Y-6012403D01*
X8829269Y-5952745D01*
X8892116Y-5922216D01*
X8912679Y-5920499D01*
X9264856Y-5920499D01*
X9264864Y-5920499D01*
X9264879Y-5920497D01*
X9264882Y-5920497D01*
X9289987Y-5917586D01*
X9289988Y-5917585D01*
X9289991Y-5917585D01*
X9392765Y-5872206D01*
X9472206Y-5792765D01*
X9517585Y-5689991D01*
X9520500Y-5664865D01*
X9520499Y-4927125D01*
X9540183Y-4860089D01*
X9592987Y-4814334D01*
X9662146Y-4804390D01*
X9725702Y-4833415D01*
X9763476Y-4892193D01*
X9766972Y-4907729D01*
X9787829Y-5039410D01*
X9843787Y-5211636D01*
X9843788Y-5211639D01*
X9899664Y-5321300D01*
X9926003Y-5372993D01*
X9926006Y-5372997D01*
X10032441Y-5519494D01*
X10032445Y-5519499D01*
X10160500Y-5647554D01*
X10160505Y-5647558D01*
X10262386Y-5721578D01*
X10307006Y-5753996D01*
X10381593Y-5792000D01*
X10468360Y-5836211D01*
X10468363Y-5836212D01*
X10554476Y-5864191D01*
X10640591Y-5892171D01*
X10723429Y-5905291D01*
X10819449Y-5920500D01*
X10819454Y-5920500D01*
X11000551Y-5920500D01*
X11087259Y-5906765D01*
X11179409Y-5892171D01*
X11351639Y-5836211D01*
X11512994Y-5753996D01*
X11659501Y-5647553D01*
X11787553Y-5519501D01*
X11893996Y-5372994D01*
X11976211Y-5211639D01*
X12032171Y-5039409D01*
X12048106Y-4938797D01*
X12057527Y-4879321D01*
X12087456Y-4816186D01*
X12146768Y-4779255D01*
X12216630Y-4780253D01*
G37*
%TD.AperFunction*%
%TA.AperFunction,Conductor*%
G36*
X39995025Y-5490762D02*
G01*
X39995026Y-5490761D01*
X40004617Y-5477563D01*
X40004620Y-5477556D01*
X40101095Y-5288217D01*
X40110492Y-5259295D01*
X40149928Y-5201618D01*
X40214286Y-5174419D01*
X40283133Y-5186331D01*
X40334610Y-5233574D01*
X40338908Y-5241314D01*
X40406004Y-5372995D01*
X40512441Y-5519494D01*
X40512445Y-5519499D01*
X40640500Y-5647554D01*
X40640505Y-5647558D01*
X40742386Y-5721578D01*
X40787006Y-5753996D01*
X40861593Y-5792000D01*
X40948360Y-5836211D01*
X40948363Y-5836212D01*
X41120587Y-5892170D01*
X41120591Y-5892171D01*
X41169997Y-5899996D01*
X41233132Y-5929925D01*
X41270064Y-5989236D01*
X41274600Y-6022469D01*
X41274600Y-7439054D01*
X41254915Y-7506093D01*
X41202111Y-7551848D01*
X41132953Y-7561792D01*
X41087559Y-7544398D01*
X41087186Y-7545098D01*
X41081804Y-7542221D01*
X40954332Y-7489421D01*
X40954322Y-7489418D01*
X40818995Y-7462500D01*
X40818993Y-7462500D01*
X40681007Y-7462500D01*
X40681005Y-7462500D01*
X40545677Y-7489418D01*
X40545667Y-7489421D01*
X40418195Y-7542221D01*
X40418182Y-7542228D01*
X40303458Y-7618885D01*
X40303454Y-7618888D01*
X40205888Y-7716454D01*
X40205885Y-7716458D01*
X40129228Y-7831182D01*
X40129221Y-7831195D01*
X40076421Y-7958667D01*
X40076418Y-7958677D01*
X40049500Y-8094004D01*
X40049500Y-8094007D01*
X40049500Y-8231993D01*
X40049500Y-8231995D01*
X40049499Y-8231995D01*
X40076418Y-8367322D01*
X40076421Y-8367332D01*
X40129221Y-8494804D01*
X40129228Y-8494817D01*
X40205884Y-8609540D01*
X40205885Y-8609541D01*
X40205886Y-8609542D01*
X40288182Y-8691838D01*
X40321666Y-8753159D01*
X40324500Y-8779518D01*
X40324500Y-8918055D01*
X40304815Y-8985094D01*
X40252011Y-9030849D01*
X40245999Y-9033405D01*
X40241038Y-9035362D01*
X40227656Y-9040639D01*
X40107077Y-9132077D01*
X40015639Y-9252656D01*
X39960122Y-9393438D01*
X39958192Y-9409514D01*
X39949500Y-9481898D01*
X39949500Y-10518102D01*
X39953069Y-10547819D01*
X39960122Y-10606561D01*
X39960122Y-10606563D01*
X39960123Y-10606564D01*
X39961140Y-10609142D01*
X40015639Y-10747343D01*
X40107077Y-10867922D01*
X40227656Y-10959360D01*
X40227657Y-10959360D01*
X40227658Y-10959361D01*
X40368436Y-11014877D01*
X40456898Y-11025500D01*
X40456903Y-11025500D01*
X41043096Y-11025500D01*
X41043102Y-11025500D01*
X41131564Y-11014877D01*
X41131565Y-11014876D01*
X41135816Y-11014366D01*
X41204724Y-11025918D01*
X41256448Y-11072890D01*
X41274600Y-11137482D01*
X41274600Y-11362517D01*
X41254915Y-11429556D01*
X41202111Y-11475311D01*
X41135817Y-11485633D01*
X41085148Y-11479549D01*
X41043102Y-11474500D01*
X40456898Y-11474500D01*
X40417853Y-11479188D01*
X40368438Y-11485122D01*
X40227656Y-11540639D01*
X40107077Y-11632077D01*
X40015639Y-11752656D01*
X39960122Y-11893438D01*
X39954419Y-11940936D01*
X39949500Y-11981898D01*
X39949500Y-13018102D01*
X39951305Y-13033133D01*
X39960122Y-13106561D01*
X40015639Y-13247343D01*
X40107077Y-13367922D01*
X40225399Y-13457648D01*
X40227658Y-13459361D01*
X40245988Y-13466589D01*
X40301132Y-13509493D01*
X40324327Y-13575401D01*
X40324500Y-13581944D01*
X40324500Y-15512544D01*
X40311858Y-15563024D01*
X40313156Y-15563562D01*
X40310825Y-15569188D01*
X40310825Y-15569189D01*
X40305699Y-15581564D01*
X40258020Y-15696671D01*
X40258018Y-15696677D01*
X40231100Y-15832004D01*
X40231100Y-15941089D01*
X40211415Y-16008128D01*
X40158611Y-16053883D01*
X40101051Y-16062159D01*
X40095000Y-16066702D01*
X40095000Y-17225000D01*
X41150600Y-17225000D01*
X41217639Y-17244685D01*
X41263394Y-17297489D01*
X41274600Y-17349000D01*
X41274600Y-17701000D01*
X41254915Y-17768039D01*
X41202111Y-17813794D01*
X41150600Y-17825000D01*
X39919000Y-17825000D01*
X39851961Y-17805315D01*
X39806206Y-17752511D01*
X39795000Y-17701000D01*
X39795000Y-17525000D01*
X39619000Y-17525000D01*
X39551961Y-17505315D01*
X39506206Y-17452511D01*
X39495000Y-17401000D01*
X39495000Y-16066702D01*
X39494998Y-16066701D01*
X39397095Y-16095145D01*
X39327225Y-16094946D01*
X39268555Y-16057004D01*
X39239712Y-15993365D01*
X39238500Y-15976069D01*
X39238500Y-8317984D01*
X39238500Y-8317982D01*
X39209503Y-8209763D01*
X39153485Y-8112737D01*
X39074263Y-8033515D01*
X38134319Y-7093571D01*
X38100834Y-7032248D01*
X38098000Y-7005890D01*
X38098000Y-6104326D01*
X38117685Y-6037287D01*
X38170489Y-5991532D01*
X38239647Y-5981588D01*
X38278297Y-5993842D01*
X38331783Y-6021095D01*
X38533870Y-6086757D01*
X38743754Y-6120000D01*
X38956246Y-6120000D01*
X39166127Y-6086757D01*
X39166130Y-6086757D01*
X39368217Y-6021095D01*
X39557556Y-5924620D01*
X39557563Y-5924617D01*
X39570761Y-5915026D01*
X39570762Y-5915025D01*
X38923642Y-5267905D01*
X39042993Y-5235925D01*
X39157007Y-5170099D01*
X39250099Y-5077007D01*
X39315925Y-4962993D01*
X39347905Y-4843641D01*
X39995025Y-5490762D01*
G37*
%TD.AperFunction*%
%TA.AperFunction,Conductor*%
G36*
X19675025Y-5490762D02*
G01*
X19675026Y-5490761D01*
X19684617Y-5477563D01*
X19684620Y-5477556D01*
X19781095Y-5288217D01*
X19790492Y-5259295D01*
X19829928Y-5201618D01*
X19894286Y-5174419D01*
X19963133Y-5186331D01*
X20014610Y-5233574D01*
X20018908Y-5241314D01*
X20086004Y-5372995D01*
X20192441Y-5519494D01*
X20192445Y-5519499D01*
X20320500Y-5647554D01*
X20320505Y-5647558D01*
X20422386Y-5721578D01*
X20467006Y-5753996D01*
X20541593Y-5792000D01*
X20628360Y-5836211D01*
X20628363Y-5836212D01*
X20714476Y-5864191D01*
X20800591Y-5892171D01*
X20883429Y-5905291D01*
X20979449Y-5920500D01*
X20979454Y-5920500D01*
X21160551Y-5920500D01*
X21247259Y-5906765D01*
X21339409Y-5892171D01*
X21511639Y-5836211D01*
X21672994Y-5753996D01*
X21769215Y-5684088D01*
X21810915Y-5653792D01*
X21876721Y-5630312D01*
X21944775Y-5646138D01*
X21993470Y-5696244D01*
X22007800Y-5754110D01*
X22007800Y-5762490D01*
X21988115Y-5829529D01*
X21971481Y-5850171D01*
X16168217Y-11653434D01*
X16168213Y-11653440D01*
X16112198Y-11750460D01*
X16112197Y-11750463D01*
X16083200Y-11858682D01*
X16083200Y-12276331D01*
X16063515Y-12343370D01*
X16010711Y-12389125D01*
X15948491Y-12398940D01*
X15948447Y-12399707D01*
X15944920Y-12399503D01*
X15944910Y-12399505D01*
X15944870Y-12399500D01*
X15944865Y-12399500D01*
X13522800Y-12399500D01*
X13455761Y-12379815D01*
X13410006Y-12327011D01*
X13398800Y-12275500D01*
X13398800Y-8014309D01*
X13418485Y-7947270D01*
X13435114Y-7926633D01*
X15477404Y-5884342D01*
X15538725Y-5850859D01*
X15603399Y-5854093D01*
X15615145Y-5857910D01*
X15720590Y-5892171D01*
X15899449Y-5920500D01*
X15899454Y-5920500D01*
X16080551Y-5920500D01*
X16167259Y-5906765D01*
X16259409Y-5892171D01*
X16431639Y-5836211D01*
X16475521Y-5813852D01*
X16586547Y-5757281D01*
X16591306Y-5754856D01*
X16592994Y-5753996D01*
X16594316Y-5753036D01*
X16739494Y-5647558D01*
X16739492Y-5647558D01*
X16739501Y-5647553D01*
X16867553Y-5519501D01*
X16973996Y-5372994D01*
X17041090Y-5241314D01*
X17089065Y-5190519D01*
X17156886Y-5173724D01*
X17223021Y-5196262D01*
X17266472Y-5250977D01*
X17269506Y-5259292D01*
X17278904Y-5288217D01*
X17375375Y-5477550D01*
X17384973Y-5490761D01*
X18032094Y-4843641D01*
X18064075Y-4962993D01*
X18129901Y-5077007D01*
X18222993Y-5170099D01*
X18337007Y-5235925D01*
X18456358Y-5267905D01*
X17809236Y-5915025D01*
X17822440Y-5924618D01*
X17822453Y-5924626D01*
X18011782Y-6021095D01*
X18213870Y-6086757D01*
X18423754Y-6120000D01*
X18636246Y-6120000D01*
X18846127Y-6086757D01*
X18846130Y-6086757D01*
X19048217Y-6021095D01*
X19237556Y-5924620D01*
X19237563Y-5924617D01*
X19250761Y-5915026D01*
X19250762Y-5915025D01*
X18603641Y-5267905D01*
X18722993Y-5235925D01*
X18837007Y-5170099D01*
X18930099Y-5077007D01*
X18995925Y-4962993D01*
X19027905Y-4843641D01*
X19675025Y-5490762D01*
G37*
%TD.AperFunction*%
%TA.AperFunction,Conductor*%
G36*
X40718556Y-420185D02*
G01*
X40764311Y-472989D01*
X40774255Y-542147D01*
X40745230Y-605703D01*
X40686452Y-643477D01*
X40683654Y-644262D01*
X40655163Y-651897D01*
X40655161Y-651898D01*
X40655160Y-651898D01*
X40558140Y-707913D01*
X40558134Y-707917D01*
X39844234Y-1421818D01*
X39782911Y-1455303D01*
X39713219Y-1450319D01*
X39668872Y-1421818D01*
X39599499Y-1352445D01*
X39599494Y-1352441D01*
X39452997Y-1246006D01*
X39452996Y-1246005D01*
X39452994Y-1246004D01*
X39401300Y-1219664D01*
X39291639Y-1163788D01*
X39291636Y-1163787D01*
X39119410Y-1107829D01*
X38940551Y-1079500D01*
X38940546Y-1079500D01*
X38759454Y-1079500D01*
X38759449Y-1079500D01*
X38580589Y-1107829D01*
X38408363Y-1163787D01*
X38408360Y-1163788D01*
X38247002Y-1246006D01*
X38100505Y-1352441D01*
X38100500Y-1352445D01*
X37972445Y-1480500D01*
X37972441Y-1480505D01*
X37866006Y-1627002D01*
X37783788Y-1788360D01*
X37783787Y-1788363D01*
X37727829Y-1960589D01*
X37702473Y-2120678D01*
X37672544Y-2183813D01*
X37613232Y-2220744D01*
X37543369Y-2219746D01*
X37485137Y-2181136D01*
X37457527Y-2120678D01*
X37434112Y-1972848D01*
X37432171Y-1960591D01*
X37388530Y-1826275D01*
X37376212Y-1788363D01*
X37376211Y-1788360D01*
X37303671Y-1645995D01*
X37293996Y-1627006D01*
X37218449Y-1523024D01*
X37187558Y-1480505D01*
X37187554Y-1480500D01*
X37059499Y-1352445D01*
X37059494Y-1352441D01*
X36912997Y-1246006D01*
X36912996Y-1246005D01*
X36912994Y-1246004D01*
X36861300Y-1219664D01*
X36751639Y-1163788D01*
X36751636Y-1163787D01*
X36579410Y-1107829D01*
X36400551Y-1079500D01*
X36400546Y-1079500D01*
X36219454Y-1079500D01*
X36219449Y-1079500D01*
X36040589Y-1107829D01*
X35868363Y-1163787D01*
X35868360Y-1163788D01*
X35707002Y-1246006D01*
X35560505Y-1352441D01*
X35560500Y-1352445D01*
X35432445Y-1480500D01*
X35432441Y-1480505D01*
X35326006Y-1627002D01*
X35243788Y-1788360D01*
X35243787Y-1788363D01*
X35187829Y-1960589D01*
X35162473Y-2120678D01*
X35132544Y-2183813D01*
X35073232Y-2220744D01*
X35003369Y-2219746D01*
X34945137Y-2181136D01*
X34917527Y-2120678D01*
X34894112Y-1972848D01*
X34892171Y-1960591D01*
X34848530Y-1826275D01*
X34836212Y-1788363D01*
X34836211Y-1788360D01*
X34763671Y-1645995D01*
X34753996Y-1627006D01*
X34678449Y-1523024D01*
X34647558Y-1480505D01*
X34647554Y-1480500D01*
X34519499Y-1352445D01*
X34519494Y-1352441D01*
X34372997Y-1246006D01*
X34372996Y-1246005D01*
X34372994Y-1246004D01*
X34321300Y-1219664D01*
X34211639Y-1163788D01*
X34211636Y-1163787D01*
X34039410Y-1107829D01*
X33860551Y-1079500D01*
X33860546Y-1079500D01*
X33679454Y-1079500D01*
X33679449Y-1079500D01*
X33500589Y-1107829D01*
X33328363Y-1163787D01*
X33328360Y-1163788D01*
X33167002Y-1246006D01*
X33020505Y-1352441D01*
X33020500Y-1352445D01*
X32892445Y-1480500D01*
X32892441Y-1480505D01*
X32786004Y-1627004D01*
X32718908Y-1758685D01*
X32670933Y-1809480D01*
X32603112Y-1826275D01*
X32536977Y-1803737D01*
X32493527Y-1749021D01*
X32490492Y-1740705D01*
X32481094Y-1711780D01*
X32384626Y-1522453D01*
X32384618Y-1522440D01*
X32375025Y-1509237D01*
X32375025Y-1509236D01*
X31727905Y-2156357D01*
X31695925Y-2037007D01*
X31630099Y-1922993D01*
X31537007Y-1829901D01*
X31422993Y-1764075D01*
X31303642Y-1732094D01*
X31950761Y-1084973D01*
X31937550Y-1075375D01*
X31748217Y-978904D01*
X31546129Y-913242D01*
X31336246Y-880000D01*
X31123754Y-880000D01*
X30913872Y-913242D01*
X30913869Y-913242D01*
X30711782Y-978904D01*
X30522448Y-1075375D01*
X30509237Y-1084972D01*
X30509237Y-1084973D01*
X31156358Y-1732094D01*
X31037007Y-1764075D01*
X30922993Y-1829901D01*
X30829901Y-1922993D01*
X30764075Y-2037007D01*
X30732094Y-2156358D01*
X30084973Y-1509237D01*
X30084972Y-1509237D01*
X30075375Y-1522448D01*
X29978905Y-1711781D01*
X29969506Y-1740708D01*
X29930068Y-1798383D01*
X29865709Y-1825581D01*
X29796862Y-1813666D01*
X29745387Y-1766421D01*
X29741090Y-1758684D01*
X29683671Y-1645995D01*
X29673996Y-1627006D01*
X29598449Y-1523024D01*
X29567558Y-1480505D01*
X29567554Y-1480500D01*
X29439499Y-1352445D01*
X29439494Y-1352441D01*
X29292995Y-1246004D01*
X29286542Y-1242716D01*
X29286541Y-1242716D01*
X29131639Y-1163788D01*
X29131636Y-1163787D01*
X28959410Y-1107829D01*
X28780551Y-1079500D01*
X28780546Y-1079500D01*
X28599454Y-1079500D01*
X28599449Y-1079500D01*
X28420589Y-1107829D01*
X28248363Y-1163787D01*
X28248360Y-1163788D01*
X28087002Y-1246006D01*
X27940505Y-1352441D01*
X27940500Y-1352445D01*
X27812445Y-1480500D01*
X27812441Y-1480505D01*
X27706006Y-1627002D01*
X27623788Y-1788360D01*
X27623787Y-1788363D01*
X27567829Y-1960589D01*
X27542473Y-2120678D01*
X27512544Y-2183813D01*
X27453232Y-2220744D01*
X27383369Y-2219746D01*
X27325137Y-2181136D01*
X27297527Y-2120678D01*
X27274112Y-1972848D01*
X27272171Y-1960591D01*
X27228530Y-1826275D01*
X27216212Y-1788363D01*
X27216211Y-1788360D01*
X27143671Y-1645995D01*
X27133996Y-1627006D01*
X27058449Y-1523024D01*
X27027558Y-1480505D01*
X27027554Y-1480500D01*
X26899499Y-1352445D01*
X26899494Y-1352441D01*
X26752997Y-1246006D01*
X26752996Y-1246005D01*
X26752994Y-1246004D01*
X26701300Y-1219664D01*
X26591639Y-1163788D01*
X26591636Y-1163787D01*
X26419410Y-1107829D01*
X26240551Y-1079500D01*
X26240546Y-1079500D01*
X26059454Y-1079500D01*
X26059449Y-1079500D01*
X25880589Y-1107829D01*
X25708363Y-1163787D01*
X25708360Y-1163788D01*
X25547002Y-1246006D01*
X25400505Y-1352441D01*
X25400500Y-1352445D01*
X25272445Y-1480500D01*
X25272441Y-1480505D01*
X25166004Y-1627004D01*
X25098908Y-1758685D01*
X25050933Y-1809480D01*
X24983112Y-1826275D01*
X24916977Y-1803737D01*
X24873527Y-1749021D01*
X24870492Y-1740705D01*
X24861094Y-1711780D01*
X24764626Y-1522453D01*
X24764618Y-1522440D01*
X24755025Y-1509237D01*
X24755025Y-1509236D01*
X24107905Y-2156357D01*
X24075925Y-2037007D01*
X24010099Y-1922993D01*
X23917007Y-1829901D01*
X23802993Y-1764075D01*
X23683642Y-1732094D01*
X24330761Y-1084973D01*
X24317550Y-1075375D01*
X24128217Y-978904D01*
X23926129Y-913242D01*
X23716246Y-880000D01*
X23503754Y-880000D01*
X23293872Y-913242D01*
X23293869Y-913242D01*
X23091782Y-978904D01*
X22902448Y-1075375D01*
X22889237Y-1084972D01*
X22889237Y-1084973D01*
X23536358Y-1732094D01*
X23417007Y-1764075D01*
X23302993Y-1829901D01*
X23209901Y-1922993D01*
X23144075Y-2037007D01*
X23112094Y-2156358D01*
X22464973Y-1509237D01*
X22464972Y-1509237D01*
X22455375Y-1522448D01*
X22358905Y-1711781D01*
X22349506Y-1740708D01*
X22310068Y-1798383D01*
X22245709Y-1825581D01*
X22176862Y-1813666D01*
X22125387Y-1766421D01*
X22121090Y-1758684D01*
X22063671Y-1645995D01*
X22053996Y-1627006D01*
X21978449Y-1523024D01*
X21947558Y-1480505D01*
X21947554Y-1480500D01*
X21819499Y-1352445D01*
X21819494Y-1352441D01*
X21672995Y-1246004D01*
X21666542Y-1242716D01*
X21666541Y-1242716D01*
X21511639Y-1163788D01*
X21511636Y-1163787D01*
X21339410Y-1107829D01*
X21160551Y-1079500D01*
X21160546Y-1079500D01*
X20979454Y-1079500D01*
X20979449Y-1079500D01*
X20800589Y-1107829D01*
X20628363Y-1163787D01*
X20628360Y-1163788D01*
X20467002Y-1246006D01*
X20320505Y-1352441D01*
X20320500Y-1352445D01*
X20192445Y-1480500D01*
X20192441Y-1480505D01*
X20086006Y-1627002D01*
X20003788Y-1788360D01*
X20003787Y-1788363D01*
X19947829Y-1960589D01*
X19922473Y-2120678D01*
X19892544Y-2183813D01*
X19833232Y-2220744D01*
X19763369Y-2219746D01*
X19705137Y-2181136D01*
X19677527Y-2120678D01*
X19654112Y-1972848D01*
X19652171Y-1960591D01*
X19608530Y-1826275D01*
X19596212Y-1788363D01*
X19596211Y-1788360D01*
X19523671Y-1645995D01*
X19513996Y-1627006D01*
X19438449Y-1523024D01*
X19407558Y-1480505D01*
X19407554Y-1480500D01*
X19279499Y-1352445D01*
X19279494Y-1352441D01*
X19132997Y-1246006D01*
X19132996Y-1246005D01*
X19132994Y-1246004D01*
X19081300Y-1219664D01*
X18971639Y-1163788D01*
X18971636Y-1163787D01*
X18799410Y-1107829D01*
X18620551Y-1079500D01*
X18620546Y-1079500D01*
X18439454Y-1079500D01*
X18439449Y-1079500D01*
X18260589Y-1107829D01*
X18088363Y-1163787D01*
X18088360Y-1163788D01*
X17927002Y-1246006D01*
X17780505Y-1352441D01*
X17780500Y-1352445D01*
X17652445Y-1480500D01*
X17652441Y-1480505D01*
X17546006Y-1627002D01*
X17463788Y-1788360D01*
X17463787Y-1788363D01*
X17407829Y-1960589D01*
X17382473Y-2120678D01*
X17352544Y-2183813D01*
X17293232Y-2220744D01*
X17223369Y-2219746D01*
X17165137Y-2181136D01*
X17137527Y-2120678D01*
X17114112Y-1972848D01*
X17112171Y-1960591D01*
X17068530Y-1826275D01*
X17056212Y-1788363D01*
X17056211Y-1788360D01*
X16983671Y-1645995D01*
X16973996Y-1627006D01*
X16898449Y-1523024D01*
X16867558Y-1480505D01*
X16867554Y-1480500D01*
X16739499Y-1352445D01*
X16739494Y-1352441D01*
X16592997Y-1246006D01*
X16592996Y-1246005D01*
X16592994Y-1246004D01*
X16541300Y-1219664D01*
X16431639Y-1163788D01*
X16431636Y-1163787D01*
X16259410Y-1107829D01*
X16080551Y-1079500D01*
X16080546Y-1079500D01*
X15899454Y-1079500D01*
X15899449Y-1079500D01*
X15720589Y-1107829D01*
X15548363Y-1163787D01*
X15548360Y-1163788D01*
X15387002Y-1246006D01*
X15240505Y-1352441D01*
X15240500Y-1352445D01*
X15112445Y-1480500D01*
X15112441Y-1480505D01*
X15006004Y-1627004D01*
X14938908Y-1758685D01*
X14890933Y-1809480D01*
X14823112Y-1826275D01*
X14756977Y-1803737D01*
X14713527Y-1749021D01*
X14710492Y-1740705D01*
X14701094Y-1711780D01*
X14604626Y-1522453D01*
X14604618Y-1522440D01*
X14595025Y-1509237D01*
X14595025Y-1509236D01*
X13947905Y-2156357D01*
X13915925Y-2037007D01*
X13850099Y-1922993D01*
X13757007Y-1829901D01*
X13642993Y-1764075D01*
X13523642Y-1732094D01*
X14170761Y-1084973D01*
X14157550Y-1075375D01*
X13968217Y-978904D01*
X13766129Y-913242D01*
X13556246Y-880000D01*
X13343754Y-880000D01*
X13133872Y-913242D01*
X13133869Y-913242D01*
X12931782Y-978904D01*
X12742448Y-1075375D01*
X12729237Y-1084972D01*
X12729237Y-1084973D01*
X13376358Y-1732094D01*
X13257007Y-1764075D01*
X13142993Y-1829901D01*
X13049901Y-1922993D01*
X12984075Y-2037007D01*
X12952094Y-2156358D01*
X12304973Y-1509237D01*
X12304972Y-1509237D01*
X12295375Y-1522448D01*
X12198905Y-1711781D01*
X12189506Y-1740708D01*
X12150068Y-1798383D01*
X12085709Y-1825581D01*
X12016862Y-1813666D01*
X11965387Y-1766421D01*
X11961090Y-1758684D01*
X11903671Y-1645995D01*
X11893996Y-1627006D01*
X11818449Y-1523024D01*
X11787558Y-1480505D01*
X11787554Y-1480500D01*
X11659499Y-1352445D01*
X11659494Y-1352441D01*
X11512995Y-1246004D01*
X11506542Y-1242716D01*
X11506541Y-1242716D01*
X11351639Y-1163788D01*
X11351636Y-1163787D01*
X11179410Y-1107829D01*
X11000551Y-1079500D01*
X11000546Y-1079500D01*
X10819454Y-1079500D01*
X10819449Y-1079500D01*
X10640589Y-1107829D01*
X10468363Y-1163787D01*
X10468360Y-1163788D01*
X10307002Y-1246006D01*
X10160505Y-1352441D01*
X10160500Y-1352445D01*
X10032445Y-1480500D01*
X10032441Y-1480505D01*
X9926006Y-1627002D01*
X9843788Y-1788360D01*
X9843787Y-1788363D01*
X9787829Y-1960589D01*
X9762473Y-2120678D01*
X9732544Y-2183813D01*
X9673232Y-2220744D01*
X9603369Y-2219746D01*
X9545137Y-2181136D01*
X9517527Y-2120678D01*
X9494112Y-1972848D01*
X9492171Y-1960591D01*
X9448530Y-1826275D01*
X9436212Y-1788363D01*
X9436211Y-1788360D01*
X9363671Y-1645995D01*
X9353996Y-1627006D01*
X9278449Y-1523024D01*
X9247558Y-1480505D01*
X9247554Y-1480500D01*
X9119499Y-1352445D01*
X9119494Y-1352441D01*
X8972997Y-1246006D01*
X8972996Y-1246005D01*
X8972994Y-1246004D01*
X8921300Y-1219664D01*
X8811639Y-1163788D01*
X8811636Y-1163787D01*
X8639410Y-1107829D01*
X8460551Y-1079500D01*
X8460546Y-1079500D01*
X8279454Y-1079500D01*
X8279449Y-1079500D01*
X8100589Y-1107829D01*
X7928363Y-1163787D01*
X7928360Y-1163788D01*
X7767002Y-1246006D01*
X7620505Y-1352441D01*
X7620500Y-1352445D01*
X7492445Y-1480500D01*
X7492441Y-1480505D01*
X7386006Y-1627002D01*
X7303788Y-1788360D01*
X7303787Y-1788363D01*
X7247829Y-1960589D01*
X7219500Y-2139448D01*
X7219500Y-2320551D01*
X7247828Y-2499409D01*
X7285905Y-2616596D01*
X7287900Y-2686437D01*
X7255655Y-2742595D01*
X6753137Y-3245115D01*
X6673917Y-3324334D01*
X6673913Y-3324340D01*
X6617898Y-3421360D01*
X6617898Y-3421361D01*
X6617897Y-3421363D01*
X6605731Y-3466768D01*
X6588900Y-3529582D01*
X6588900Y-6180489D01*
X6569215Y-6247528D01*
X6552581Y-6268170D01*
X788895Y-12031855D01*
X788896Y-12031856D01*
X727114Y-12093638D01*
X727113Y-12093640D01*
X671098Y-12190660D01*
X671097Y-12190663D01*
X648143Y-12276331D01*
X644275Y-12290766D01*
X607910Y-12350427D01*
X545063Y-12380956D01*
X475688Y-12372661D01*
X421810Y-12328176D01*
X400535Y-12261624D01*
X400500Y-12258673D01*
X400500Y-3351146D01*
X849500Y-3351146D01*
X849500Y-3648853D01*
X882830Y-3944662D01*
X882831Y-3944671D01*
X882832Y-3944675D01*
X896317Y-4003757D01*
X949076Y-4234912D01*
X949079Y-4234920D01*
X1047400Y-4515904D01*
X1176563Y-4784114D01*
X1176565Y-4784117D01*
X1334950Y-5036185D01*
X1520562Y-5268934D01*
X1731066Y-5479438D01*
X1963815Y-5665050D01*
X2215883Y-5823435D01*
X2484099Y-5952601D01*
X2627326Y-6002718D01*
X2765079Y-6050920D01*
X2765087Y-6050923D01*
X2765090Y-6050923D01*
X2765091Y-6050924D01*
X3055325Y-6117168D01*
X3351147Y-6150499D01*
X3351148Y-6150500D01*
X3351151Y-6150500D01*
X3648852Y-6150500D01*
X3648852Y-6150499D01*
X3944675Y-6117168D01*
X4234909Y-6050924D01*
X4515901Y-5952601D01*
X4784117Y-5823435D01*
X5036185Y-5665050D01*
X5268934Y-5479438D01*
X5479438Y-5268934D01*
X5665050Y-5036185D01*
X5823435Y-4784117D01*
X5952601Y-4515901D01*
X6050924Y-4234909D01*
X6117168Y-3944675D01*
X6150500Y-3648849D01*
X6150500Y-3351151D01*
X6117168Y-3055325D01*
X6050924Y-2765091D01*
X5952601Y-2484099D01*
X5823435Y-2215883D01*
X5665050Y-1963815D01*
X5479438Y-1731066D01*
X5268934Y-1520562D01*
X5258932Y-1512586D01*
X5179094Y-1448917D01*
X5036185Y-1334950D01*
X4784117Y-1176565D01*
X4784114Y-1176563D01*
X4515904Y-1047400D01*
X4234920Y-949079D01*
X4234912Y-949076D01*
X4017233Y-899393D01*
X3944675Y-882832D01*
X3944671Y-882831D01*
X3944662Y-882830D01*
X3648853Y-849500D01*
X3648849Y-849500D01*
X3351151Y-849500D01*
X3351146Y-849500D01*
X3055337Y-882830D01*
X3055325Y-882832D01*
X2765087Y-949076D01*
X2765079Y-949079D01*
X2484095Y-1047400D01*
X2215885Y-1176563D01*
X1963816Y-1334949D01*
X1731066Y-1520561D01*
X1520561Y-1731066D01*
X1334949Y-1963816D01*
X1176563Y-2215885D01*
X1047400Y-2484095D01*
X949079Y-2765079D01*
X949076Y-2765087D01*
X882832Y-3055325D01*
X882830Y-3055337D01*
X849500Y-3351146D01*
X400500Y-3351146D01*
X400500Y-524500D01*
X420185Y-457461D01*
X472989Y-411706D01*
X524500Y-400500D01*
X40651517Y-400500D01*
X40718556Y-420185D01*
G37*
%TD.AperFunction*%
%TA.AperFunction,Conductor*%
G36*
X12984075Y-2422993D02*
G01*
X13049901Y-2537007D01*
X13142993Y-2630099D01*
X13257007Y-2695925D01*
X13376358Y-2727905D01*
X12729236Y-3375025D01*
X12742440Y-3384618D01*
X12742453Y-3384626D01*
X12931780Y-3481094D01*
X12960705Y-3490492D01*
X13018381Y-3529929D01*
X13045580Y-3594287D01*
X13033667Y-3663134D01*
X12986424Y-3714610D01*
X12978685Y-3718908D01*
X12847004Y-3786004D01*
X12700505Y-3892441D01*
X12700500Y-3892445D01*
X12572445Y-4020500D01*
X12572441Y-4020505D01*
X12466006Y-4167002D01*
X12383788Y-4328360D01*
X12383787Y-4328363D01*
X12327829Y-4500589D01*
X12302473Y-4660678D01*
X12272544Y-4723813D01*
X12213232Y-4760744D01*
X12143369Y-4759746D01*
X12085137Y-4721136D01*
X12057527Y-4660678D01*
X12034596Y-4515904D01*
X12032171Y-4500591D01*
X11988530Y-4366275D01*
X11976212Y-4328363D01*
X11976211Y-4328360D01*
X11928596Y-4234912D01*
X11893996Y-4167006D01*
X11832500Y-4082363D01*
X11787558Y-4020505D01*
X11787554Y-4020500D01*
X11659499Y-3892445D01*
X11659494Y-3892441D01*
X11512997Y-3786006D01*
X11512996Y-3786005D01*
X11512994Y-3786004D01*
X11461300Y-3759664D01*
X11351639Y-3703788D01*
X11351636Y-3703787D01*
X11179410Y-3647829D01*
X11019321Y-3622473D01*
X10956186Y-3592544D01*
X10919255Y-3533232D01*
X10920253Y-3463370D01*
X10958863Y-3405137D01*
X11019321Y-3377527D01*
X11089425Y-3366422D01*
X11179409Y-3352171D01*
X11351639Y-3296211D01*
X11512994Y-3213996D01*
X11659501Y-3107553D01*
X11787553Y-2979501D01*
X11893996Y-2832994D01*
X11961090Y-2701314D01*
X12009065Y-2650519D01*
X12076886Y-2633724D01*
X12143021Y-2656262D01*
X12186472Y-2710977D01*
X12189506Y-2719292D01*
X12198904Y-2748217D01*
X12295375Y-2937550D01*
X12304973Y-2950761D01*
X12952094Y-2303641D01*
X12984075Y-2422993D01*
G37*
%TD.AperFunction*%
%TA.AperFunction,Conductor*%
G36*
X14595025Y-2950762D02*
G01*
X14595026Y-2950761D01*
X14604617Y-2937563D01*
X14604620Y-2937556D01*
X14701095Y-2748217D01*
X14710492Y-2719295D01*
X14749928Y-2661618D01*
X14814286Y-2634419D01*
X14883133Y-2646331D01*
X14934610Y-2693574D01*
X14938908Y-2701314D01*
X15006004Y-2832995D01*
X15112441Y-2979494D01*
X15112445Y-2979499D01*
X15240500Y-3107554D01*
X15240505Y-3107558D01*
X15352735Y-3189097D01*
X15387006Y-3213996D01*
X15454557Y-3248415D01*
X15548360Y-3296211D01*
X15548363Y-3296212D01*
X15623267Y-3320549D01*
X15720591Y-3352171D01*
X15793639Y-3363740D01*
X15880678Y-3377527D01*
X15943813Y-3407456D01*
X15980744Y-3466768D01*
X15979746Y-3536631D01*
X15941136Y-3594863D01*
X15880678Y-3622473D01*
X15720589Y-3647829D01*
X15548363Y-3703787D01*
X15548360Y-3703788D01*
X15387002Y-3786006D01*
X15240505Y-3892441D01*
X15240500Y-3892445D01*
X15112445Y-4020500D01*
X15112441Y-4020505D01*
X15006006Y-4167002D01*
X14923788Y-4328360D01*
X14923787Y-4328363D01*
X14867829Y-4500589D01*
X14842473Y-4660678D01*
X14812544Y-4723813D01*
X14753232Y-4760744D01*
X14683369Y-4759746D01*
X14625137Y-4721136D01*
X14597527Y-4660678D01*
X14574596Y-4515904D01*
X14572171Y-4500591D01*
X14528530Y-4366275D01*
X14516212Y-4328363D01*
X14516211Y-4328360D01*
X14468596Y-4234912D01*
X14433996Y-4167006D01*
X14372500Y-4082363D01*
X14327558Y-4020505D01*
X14327554Y-4020500D01*
X14199499Y-3892445D01*
X14199494Y-3892441D01*
X14052995Y-3786004D01*
X13921314Y-3718908D01*
X13870519Y-3670934D01*
X13853724Y-3603113D01*
X13876262Y-3536978D01*
X13930977Y-3493527D01*
X13939295Y-3490492D01*
X13968217Y-3481095D01*
X14157556Y-3384620D01*
X14157563Y-3384617D01*
X14170761Y-3375026D01*
X14170762Y-3375025D01*
X13523641Y-2727905D01*
X13642993Y-2695925D01*
X13757007Y-2630099D01*
X13850099Y-2537007D01*
X13915925Y-2422993D01*
X13947905Y-2303641D01*
X14595025Y-2950762D01*
G37*
%TD.AperFunction*%
%TA.AperFunction,Conductor*%
G36*
X30764075Y-2422993D02*
G01*
X30829901Y-2537007D01*
X30922993Y-2630099D01*
X31037007Y-2695925D01*
X31156358Y-2727905D01*
X30509236Y-3375025D01*
X30522440Y-3384618D01*
X30522453Y-3384626D01*
X30711780Y-3481094D01*
X30740705Y-3490492D01*
X30798381Y-3529929D01*
X30825580Y-3594287D01*
X30813667Y-3663134D01*
X30766424Y-3714610D01*
X30758685Y-3718908D01*
X30627004Y-3786004D01*
X30480505Y-3892441D01*
X30480500Y-3892445D01*
X30352445Y-4020500D01*
X30352441Y-4020505D01*
X30246006Y-4167002D01*
X30163788Y-4328360D01*
X30163787Y-4328363D01*
X30107829Y-4500589D01*
X30082473Y-4660678D01*
X30052544Y-4723813D01*
X29993232Y-4760744D01*
X29923369Y-4759746D01*
X29865137Y-4721136D01*
X29837527Y-4660678D01*
X29814596Y-4515904D01*
X29812171Y-4500591D01*
X29768530Y-4366275D01*
X29756212Y-4328363D01*
X29756211Y-4328360D01*
X29708596Y-4234912D01*
X29673996Y-4167006D01*
X29612500Y-4082363D01*
X29567558Y-4020505D01*
X29567554Y-4020500D01*
X29439499Y-3892445D01*
X29439494Y-3892441D01*
X29292997Y-3786006D01*
X29292996Y-3786005D01*
X29292994Y-3786004D01*
X29241300Y-3759664D01*
X29131639Y-3703788D01*
X29131636Y-3703787D01*
X28959410Y-3647829D01*
X28799321Y-3622473D01*
X28736186Y-3592544D01*
X28699255Y-3533232D01*
X28700253Y-3463370D01*
X28738863Y-3405137D01*
X28799321Y-3377527D01*
X28869425Y-3366422D01*
X28959409Y-3352171D01*
X29131639Y-3296211D01*
X29292994Y-3213996D01*
X29439501Y-3107553D01*
X29567553Y-2979501D01*
X29673996Y-2832994D01*
X29741090Y-2701314D01*
X29789065Y-2650519D01*
X29856886Y-2633724D01*
X29923021Y-2656262D01*
X29966472Y-2710977D01*
X29969506Y-2719292D01*
X29978904Y-2748217D01*
X30075375Y-2937550D01*
X30084973Y-2950761D01*
X30732094Y-2303641D01*
X30764075Y-2422993D01*
G37*
%TD.AperFunction*%
%TA.AperFunction,Conductor*%
G36*
X32375025Y-2950762D02*
G01*
X32375026Y-2950761D01*
X32384617Y-2937563D01*
X32384620Y-2937556D01*
X32481095Y-2748217D01*
X32490492Y-2719295D01*
X32529928Y-2661618D01*
X32594286Y-2634419D01*
X32663133Y-2646331D01*
X32714610Y-2693574D01*
X32718908Y-2701314D01*
X32786004Y-2832995D01*
X32892441Y-2979494D01*
X32892445Y-2979499D01*
X33020500Y-3107554D01*
X33020505Y-3107558D01*
X33132735Y-3189097D01*
X33167006Y-3213996D01*
X33234557Y-3248415D01*
X33328360Y-3296211D01*
X33328363Y-3296212D01*
X33403267Y-3320549D01*
X33500591Y-3352171D01*
X33573639Y-3363740D01*
X33660678Y-3377527D01*
X33723813Y-3407456D01*
X33760744Y-3466768D01*
X33759746Y-3536631D01*
X33721136Y-3594863D01*
X33660678Y-3622473D01*
X33500589Y-3647829D01*
X33328363Y-3703787D01*
X33328360Y-3703788D01*
X33167002Y-3786006D01*
X33020505Y-3892441D01*
X33020500Y-3892445D01*
X32892445Y-4020500D01*
X32892441Y-4020505D01*
X32786006Y-4167002D01*
X32703788Y-4328360D01*
X32703787Y-4328363D01*
X32647829Y-4500589D01*
X32622473Y-4660678D01*
X32592544Y-4723813D01*
X32533232Y-4760744D01*
X32463369Y-4759746D01*
X32405137Y-4721136D01*
X32377527Y-4660678D01*
X32354596Y-4515904D01*
X32352171Y-4500591D01*
X32308530Y-4366275D01*
X32296212Y-4328363D01*
X32296211Y-4328360D01*
X32248596Y-4234912D01*
X32213996Y-4167006D01*
X32152500Y-4082363D01*
X32107558Y-4020505D01*
X32107554Y-4020500D01*
X31979499Y-3892445D01*
X31979494Y-3892441D01*
X31832995Y-3786004D01*
X31701314Y-3718908D01*
X31650519Y-3670934D01*
X31633724Y-3603113D01*
X31656262Y-3536978D01*
X31710977Y-3493527D01*
X31719295Y-3490492D01*
X31748217Y-3481095D01*
X31937556Y-3384620D01*
X31937563Y-3384617D01*
X31950761Y-3375026D01*
X31950762Y-3375025D01*
X31303641Y-2727905D01*
X31422993Y-2695925D01*
X31537007Y-2630099D01*
X31630099Y-2537007D01*
X31695925Y-2422993D01*
X31727905Y-2303641D01*
X32375025Y-2950762D01*
G37*
%TD.AperFunction*%
%TA.AperFunction,Conductor*%
G36*
X43464075Y-2422993D02*
G01*
X43529901Y-2537007D01*
X43622993Y-2630099D01*
X43737007Y-2695925D01*
X43856356Y-2727905D01*
X43209236Y-3375025D01*
X43222440Y-3384618D01*
X43222453Y-3384626D01*
X43411780Y-3481094D01*
X43440705Y-3490492D01*
X43498381Y-3529929D01*
X43525580Y-3594287D01*
X43513667Y-3663134D01*
X43466424Y-3714610D01*
X43458685Y-3718908D01*
X43327004Y-3786004D01*
X43180505Y-3892441D01*
X43180500Y-3892445D01*
X43052445Y-4020500D01*
X43052441Y-4020505D01*
X42946006Y-4167002D01*
X42863788Y-4328360D01*
X42863787Y-4328363D01*
X42807829Y-4500589D01*
X42782473Y-4660678D01*
X42752544Y-4723813D01*
X42693232Y-4760744D01*
X42623369Y-4759746D01*
X42565137Y-4721136D01*
X42537527Y-4660678D01*
X42514596Y-4515904D01*
X42512171Y-4500591D01*
X42468530Y-4366275D01*
X42456212Y-4328363D01*
X42456211Y-4328360D01*
X42408596Y-4234912D01*
X42373996Y-4167006D01*
X42312500Y-4082363D01*
X42267558Y-4020505D01*
X42267554Y-4020500D01*
X42139499Y-3892445D01*
X42139494Y-3892441D01*
X41992997Y-3786006D01*
X41992996Y-3786005D01*
X41992994Y-3786004D01*
X41941300Y-3759664D01*
X41831639Y-3703788D01*
X41831636Y-3703787D01*
X41659410Y-3647829D01*
X41499321Y-3622473D01*
X41436186Y-3592544D01*
X41399255Y-3533232D01*
X41400253Y-3463370D01*
X41438863Y-3405137D01*
X41499321Y-3377527D01*
X41569425Y-3366422D01*
X41659409Y-3352171D01*
X41831639Y-3296211D01*
X41992994Y-3213996D01*
X42139501Y-3107553D01*
X42267553Y-2979501D01*
X42373996Y-2832994D01*
X42441090Y-2701314D01*
X42489065Y-2650519D01*
X42556886Y-2633724D01*
X42623021Y-2656262D01*
X42666472Y-2710977D01*
X42669506Y-2719292D01*
X42678904Y-2748217D01*
X42775375Y-2937550D01*
X42784973Y-2950761D01*
X43432093Y-2303640D01*
X43464075Y-2422993D01*
G37*
%TD.AperFunction*%
%TA.AperFunction,Conductor*%
G36*
X48544075Y-2422993D02*
G01*
X48609901Y-2537007D01*
X48702993Y-2630099D01*
X48817007Y-2695925D01*
X48936358Y-2727905D01*
X48289236Y-3375025D01*
X48302440Y-3384618D01*
X48302453Y-3384626D01*
X48491780Y-3481094D01*
X48520705Y-3490492D01*
X48578381Y-3529929D01*
X48605580Y-3594287D01*
X48593667Y-3663134D01*
X48546424Y-3714610D01*
X48538685Y-3718908D01*
X48407004Y-3786004D01*
X48260505Y-3892441D01*
X48260500Y-3892445D01*
X48132445Y-4020500D01*
X48132441Y-4020505D01*
X48026006Y-4167002D01*
X47943788Y-4328360D01*
X47943787Y-4328363D01*
X47887829Y-4500589D01*
X47862473Y-4660678D01*
X47832544Y-4723813D01*
X47773232Y-4760744D01*
X47703369Y-4759746D01*
X47645137Y-4721136D01*
X47617527Y-4660678D01*
X47594596Y-4515904D01*
X47592171Y-4500591D01*
X47548530Y-4366275D01*
X47536212Y-4328363D01*
X47536211Y-4328360D01*
X47488596Y-4234912D01*
X47453996Y-4167006D01*
X47392500Y-4082363D01*
X47347558Y-4020505D01*
X47347554Y-4020500D01*
X47219499Y-3892445D01*
X47219494Y-3892441D01*
X47072997Y-3786006D01*
X47072996Y-3786005D01*
X47072994Y-3786004D01*
X47021300Y-3759664D01*
X46911639Y-3703788D01*
X46911636Y-3703787D01*
X46739410Y-3647829D01*
X46579321Y-3622473D01*
X46516186Y-3592544D01*
X46479255Y-3533232D01*
X46480253Y-3463370D01*
X46518863Y-3405137D01*
X46579321Y-3377527D01*
X46649425Y-3366422D01*
X46739409Y-3352171D01*
X46911639Y-3296211D01*
X47072994Y-3213996D01*
X47219501Y-3107553D01*
X47347553Y-2979501D01*
X47453996Y-2832994D01*
X47521090Y-2701314D01*
X47569065Y-2650519D01*
X47636886Y-2633724D01*
X47703021Y-2656262D01*
X47746472Y-2710977D01*
X47749506Y-2719292D01*
X47758904Y-2748217D01*
X47855375Y-2937550D01*
X47864973Y-2950761D01*
X48512093Y-2303640D01*
X48544075Y-2422993D01*
G37*
%TD.AperFunction*%
%TA.AperFunction,Conductor*%
G36*
X50155025Y-2950762D02*
G01*
X50155026Y-2950761D01*
X50164617Y-2937563D01*
X50164620Y-2937556D01*
X50261095Y-2748217D01*
X50270492Y-2719295D01*
X50309928Y-2661618D01*
X50374286Y-2634419D01*
X50443133Y-2646331D01*
X50494610Y-2693574D01*
X50498908Y-2701314D01*
X50566004Y-2832995D01*
X50672441Y-2979494D01*
X50672445Y-2979499D01*
X50800500Y-3107554D01*
X50800505Y-3107558D01*
X50912735Y-3189097D01*
X50947006Y-3213996D01*
X51014557Y-3248415D01*
X51108360Y-3296211D01*
X51108363Y-3296212D01*
X51183267Y-3320549D01*
X51280591Y-3352171D01*
X51353639Y-3363740D01*
X51440678Y-3377527D01*
X51503813Y-3407456D01*
X51540744Y-3466768D01*
X51539746Y-3536631D01*
X51501136Y-3594863D01*
X51440678Y-3622473D01*
X51280589Y-3647829D01*
X51108363Y-3703787D01*
X51108360Y-3703788D01*
X50947002Y-3786006D01*
X50800505Y-3892441D01*
X50800500Y-3892445D01*
X50672445Y-4020500D01*
X50672441Y-4020505D01*
X50566006Y-4167002D01*
X50483788Y-4328360D01*
X50483787Y-4328363D01*
X50427829Y-4500589D01*
X50402473Y-4660678D01*
X50372544Y-4723813D01*
X50313232Y-4760744D01*
X50243369Y-4759746D01*
X50185137Y-4721136D01*
X50157527Y-4660678D01*
X50134596Y-4515904D01*
X50132171Y-4500591D01*
X50088530Y-4366275D01*
X50076212Y-4328363D01*
X50076211Y-4328360D01*
X50028596Y-4234912D01*
X49993996Y-4167006D01*
X49932500Y-4082363D01*
X49887558Y-4020505D01*
X49887554Y-4020500D01*
X49759499Y-3892445D01*
X49759494Y-3892441D01*
X49612995Y-3786004D01*
X49481314Y-3718908D01*
X49430519Y-3670934D01*
X49413724Y-3603113D01*
X49436262Y-3536978D01*
X49490977Y-3493527D01*
X49499295Y-3490492D01*
X49528217Y-3481095D01*
X49717556Y-3384620D01*
X49717563Y-3384617D01*
X49730761Y-3375026D01*
X49730762Y-3375025D01*
X49083641Y-2727905D01*
X49202993Y-2695925D01*
X49317007Y-2630099D01*
X49410099Y-2537007D01*
X49475925Y-2422993D01*
X49507905Y-2303642D01*
X50155025Y-2950762D01*
G37*
%TD.AperFunction*%
%TA.AperFunction,Conductor*%
G36*
X17296630Y-2240253D02*
G01*
X17354863Y-2278863D01*
X17382473Y-2339321D01*
X17407829Y-2499410D01*
X17463787Y-2671636D01*
X17463788Y-2671639D01*
X17546006Y-2832997D01*
X17652441Y-2979494D01*
X17652445Y-2979499D01*
X17780500Y-3107554D01*
X17780505Y-3107558D01*
X17892735Y-3189097D01*
X17927006Y-3213996D01*
X17994557Y-3248415D01*
X18058684Y-3281090D01*
X18109480Y-3329065D01*
X18126275Y-3396886D01*
X18103737Y-3463021D01*
X18049022Y-3506472D01*
X18040708Y-3509506D01*
X18011781Y-3518905D01*
X17822448Y-3615375D01*
X17809237Y-3624972D01*
X17809237Y-3624973D01*
X18456358Y-4272094D01*
X18337007Y-4304075D01*
X18222993Y-4369901D01*
X18129901Y-4462993D01*
X18064075Y-4577007D01*
X18032094Y-4696358D01*
X17384973Y-4049237D01*
X17384972Y-4049237D01*
X17375375Y-4062448D01*
X17278905Y-4251781D01*
X17269506Y-4280708D01*
X17230068Y-4338383D01*
X17165709Y-4365581D01*
X17096862Y-4353666D01*
X17045387Y-4306421D01*
X17041090Y-4298684D01*
X17008596Y-4234912D01*
X16973996Y-4167006D01*
X16912500Y-4082363D01*
X16867558Y-4020505D01*
X16867554Y-4020500D01*
X16739499Y-3892445D01*
X16739494Y-3892441D01*
X16592997Y-3786006D01*
X16592996Y-3786005D01*
X16592994Y-3786004D01*
X16541300Y-3759664D01*
X16431639Y-3703788D01*
X16431636Y-3703787D01*
X16259410Y-3647829D01*
X16099321Y-3622473D01*
X16036186Y-3592544D01*
X15999255Y-3533232D01*
X16000253Y-3463370D01*
X16038863Y-3405137D01*
X16099321Y-3377527D01*
X16169425Y-3366422D01*
X16259409Y-3352171D01*
X16431639Y-3296211D01*
X16592994Y-3213996D01*
X16739501Y-3107553D01*
X16867553Y-2979501D01*
X16973996Y-2832994D01*
X17056211Y-2671639D01*
X17112171Y-2499409D01*
X17126422Y-2409425D01*
X17137527Y-2339321D01*
X17167456Y-2276186D01*
X17226768Y-2239255D01*
X17296630Y-2240253D01*
G37*
%TD.AperFunction*%
%TA.AperFunction,Conductor*%
G36*
X19836630Y-2240253D02*
G01*
X19894863Y-2278863D01*
X19922473Y-2339321D01*
X19947829Y-2499410D01*
X20003787Y-2671636D01*
X20003788Y-2671639D01*
X20086006Y-2832997D01*
X20192441Y-2979494D01*
X20192445Y-2979499D01*
X20320500Y-3107554D01*
X20320505Y-3107558D01*
X20432735Y-3189097D01*
X20467006Y-3213996D01*
X20534557Y-3248415D01*
X20628360Y-3296211D01*
X20628363Y-3296212D01*
X20703267Y-3320549D01*
X20800591Y-3352171D01*
X20873639Y-3363740D01*
X20960678Y-3377527D01*
X21023813Y-3407456D01*
X21060744Y-3466768D01*
X21059746Y-3536631D01*
X21021136Y-3594863D01*
X20960678Y-3622473D01*
X20800589Y-3647829D01*
X20628363Y-3703787D01*
X20628360Y-3703788D01*
X20467002Y-3786006D01*
X20320505Y-3892441D01*
X20320500Y-3892445D01*
X20192445Y-4020500D01*
X20192441Y-4020505D01*
X20086004Y-4167004D01*
X20018908Y-4298685D01*
X19970933Y-4349480D01*
X19903112Y-4366275D01*
X19836977Y-4343737D01*
X19793527Y-4289021D01*
X19790492Y-4280705D01*
X19781094Y-4251780D01*
X19684626Y-4062453D01*
X19684618Y-4062440D01*
X19675025Y-4049237D01*
X19675025Y-4049236D01*
X19027905Y-4696357D01*
X18995925Y-4577007D01*
X18930099Y-4462993D01*
X18837007Y-4369901D01*
X18722993Y-4304075D01*
X18603642Y-4272094D01*
X19250761Y-3624973D01*
X19237550Y-3615375D01*
X19048217Y-3518904D01*
X19019292Y-3509506D01*
X18961616Y-3470068D01*
X18934418Y-3405710D01*
X18946333Y-3336863D01*
X18993577Y-3285388D01*
X19001315Y-3281090D01*
X19132994Y-3213996D01*
X19279501Y-3107553D01*
X19407553Y-2979501D01*
X19513996Y-2832994D01*
X19596211Y-2671639D01*
X19652171Y-2499409D01*
X19666422Y-2409425D01*
X19677527Y-2339321D01*
X19707456Y-2276186D01*
X19766768Y-2239255D01*
X19836630Y-2240253D01*
G37*
%TD.AperFunction*%
%TA.AperFunction,Conductor*%
G36*
X40490129Y-2973030D02*
G01*
X40534477Y-3001531D01*
X40640500Y-3107554D01*
X40640505Y-3107558D01*
X40752735Y-3189097D01*
X40787006Y-3213996D01*
X40854557Y-3248415D01*
X40948360Y-3296211D01*
X40948363Y-3296212D01*
X41023267Y-3320549D01*
X41120591Y-3352171D01*
X41193639Y-3363740D01*
X41280678Y-3377527D01*
X41343813Y-3407456D01*
X41380744Y-3466768D01*
X41379746Y-3536631D01*
X41341136Y-3594863D01*
X41280678Y-3622473D01*
X41120589Y-3647829D01*
X40948363Y-3703787D01*
X40948360Y-3703788D01*
X40787002Y-3786006D01*
X40640505Y-3892441D01*
X40640500Y-3892445D01*
X40512445Y-4020500D01*
X40512441Y-4020505D01*
X40406004Y-4167004D01*
X40338908Y-4298685D01*
X40290933Y-4349480D01*
X40223112Y-4366275D01*
X40156977Y-4343737D01*
X40113527Y-4289021D01*
X40110492Y-4280705D01*
X40101094Y-4251780D01*
X40004626Y-4062453D01*
X40004618Y-4062440D01*
X39995025Y-4049237D01*
X39995025Y-4049236D01*
X39347905Y-4696357D01*
X39315925Y-4577007D01*
X39250099Y-4462993D01*
X39157007Y-4369901D01*
X39042993Y-4304075D01*
X38923641Y-4272094D01*
X39145017Y-4050719D01*
X39206340Y-4017234D01*
X39218026Y-4015977D01*
X39217958Y-4015461D01*
X39226009Y-4014400D01*
X39226018Y-4014400D01*
X39334237Y-3985403D01*
X39431263Y-3929385D01*
X40359117Y-3001529D01*
X40420438Y-2968046D01*
X40490129Y-2973030D01*
G37*
%TD.AperFunction*%
%TA.AperFunction,Conductor*%
G36*
X23144075Y-2422993D02*
G01*
X23209901Y-2537007D01*
X23302993Y-2630099D01*
X23417007Y-2695925D01*
X23536358Y-2727905D01*
X23319383Y-2944881D01*
X23258060Y-2978366D01*
X23231702Y-2981200D01*
X23217182Y-2981200D01*
X23108963Y-3010197D01*
X23108960Y-3010198D01*
X23011940Y-3066213D01*
X23011934Y-3066217D01*
X22090284Y-3987868D01*
X22028961Y-4021353D01*
X21959269Y-4016369D01*
X21914922Y-3987868D01*
X21819499Y-3892445D01*
X21819494Y-3892441D01*
X21672997Y-3786006D01*
X21672996Y-3786005D01*
X21672994Y-3786004D01*
X21621300Y-3759664D01*
X21511639Y-3703788D01*
X21511636Y-3703787D01*
X21339410Y-3647829D01*
X21179321Y-3622473D01*
X21116186Y-3592544D01*
X21079255Y-3533232D01*
X21080253Y-3463370D01*
X21118863Y-3405137D01*
X21179321Y-3377527D01*
X21249425Y-3366422D01*
X21339409Y-3352171D01*
X21511639Y-3296211D01*
X21672994Y-3213996D01*
X21819501Y-3107553D01*
X21947553Y-2979501D01*
X22053996Y-2832994D01*
X22121090Y-2701314D01*
X22169065Y-2650519D01*
X22236886Y-2633724D01*
X22303021Y-2656262D01*
X22346472Y-2710977D01*
X22349506Y-2719292D01*
X22358904Y-2748217D01*
X22455375Y-2937550D01*
X22464973Y-2950761D01*
X23112094Y-2303641D01*
X23144075Y-2422993D01*
G37*
%TD.AperFunction*%
%TD*%
M02*
