%TF.GenerationSoftware,KiCad,Pcbnew,10.0.5*%
%TF.CreationDate,2026-07-27T20:12:19-04:00*%
%TF.ProjectId,exopet-hat,65786f70-6574-42d6-9861-742e6b696361,rev?*%
%TF.SameCoordinates,Original*%
%TF.FileFunction,Legend,Top*%
%TF.FilePolarity,Positive*%
%FSLAX46Y46*%
G04 Gerber Fmt 4.6, Leading zero omitted, Abs format (unit mm)*
G04 Created by KiCad (PCBNEW 10.0.5) date 2026-07-27 20:12:19*
%MOMM*%
%LPD*%
G01*
G04 APERTURE LIST*
%ADD10C,0.250000*%
%ADD11C,0.150000*%
%ADD12C,0.120000*%
G04 APERTURE END LIST*
D10*
X40328572Y-24913571D02*
X40728572Y-24913571D01*
X40900000Y-25542142D02*
X40328572Y-25542142D01*
X40328572Y-25542142D02*
X40328572Y-24342142D01*
X40328572Y-24342142D02*
X40900000Y-24342142D01*
X41300000Y-25542142D02*
X41928572Y-24742142D01*
X41300000Y-24742142D02*
X41928572Y-25542142D01*
X42557143Y-25542142D02*
X42442858Y-25485000D01*
X42442858Y-25485000D02*
X42385715Y-25427857D01*
X42385715Y-25427857D02*
X42328572Y-25313571D01*
X42328572Y-25313571D02*
X42328572Y-24970714D01*
X42328572Y-24970714D02*
X42385715Y-24856428D01*
X42385715Y-24856428D02*
X42442858Y-24799285D01*
X42442858Y-24799285D02*
X42557143Y-24742142D01*
X42557143Y-24742142D02*
X42728572Y-24742142D01*
X42728572Y-24742142D02*
X42842858Y-24799285D01*
X42842858Y-24799285D02*
X42900001Y-24856428D01*
X42900001Y-24856428D02*
X42957143Y-24970714D01*
X42957143Y-24970714D02*
X42957143Y-25313571D01*
X42957143Y-25313571D02*
X42900001Y-25427857D01*
X42900001Y-25427857D02*
X42842858Y-25485000D01*
X42842858Y-25485000D02*
X42728572Y-25542142D01*
X42728572Y-25542142D02*
X42557143Y-25542142D01*
X43471429Y-25542142D02*
X43471429Y-24342142D01*
X43471429Y-24342142D02*
X43928572Y-24342142D01*
X43928572Y-24342142D02*
X44042857Y-24399285D01*
X44042857Y-24399285D02*
X44100000Y-24456428D01*
X44100000Y-24456428D02*
X44157143Y-24570714D01*
X44157143Y-24570714D02*
X44157143Y-24742142D01*
X44157143Y-24742142D02*
X44100000Y-24856428D01*
X44100000Y-24856428D02*
X44042857Y-24913571D01*
X44042857Y-24913571D02*
X43928572Y-24970714D01*
X43928572Y-24970714D02*
X43471429Y-24970714D01*
X45128572Y-25485000D02*
X45014286Y-25542142D01*
X45014286Y-25542142D02*
X44785715Y-25542142D01*
X44785715Y-25542142D02*
X44671429Y-25485000D01*
X44671429Y-25485000D02*
X44614286Y-25370714D01*
X44614286Y-25370714D02*
X44614286Y-24913571D01*
X44614286Y-24913571D02*
X44671429Y-24799285D01*
X44671429Y-24799285D02*
X44785715Y-24742142D01*
X44785715Y-24742142D02*
X45014286Y-24742142D01*
X45014286Y-24742142D02*
X45128572Y-24799285D01*
X45128572Y-24799285D02*
X45185715Y-24913571D01*
X45185715Y-24913571D02*
X45185715Y-25027857D01*
X45185715Y-25027857D02*
X44614286Y-25142142D01*
X45528571Y-24742142D02*
X45985714Y-24742142D01*
X45700000Y-24342142D02*
X45700000Y-25370714D01*
X45700000Y-25370714D02*
X45757143Y-25485000D01*
X45757143Y-25485000D02*
X45871428Y-25542142D01*
X45871428Y-25542142D02*
X45985714Y-25542142D01*
X47300000Y-25542142D02*
X47300000Y-24342142D01*
X47300000Y-24913571D02*
X47985714Y-24913571D01*
X47985714Y-25542142D02*
X47985714Y-24342142D01*
X48500000Y-25199285D02*
X49071429Y-25199285D01*
X48385714Y-25542142D02*
X48785714Y-24342142D01*
X48785714Y-24342142D02*
X49185714Y-25542142D01*
X49414285Y-24342142D02*
X50100000Y-24342142D01*
X49757142Y-25542142D02*
X49757142Y-24342142D01*
X51414286Y-25542142D02*
X51414286Y-24742142D01*
X51414286Y-24970714D02*
X51471429Y-24856428D01*
X51471429Y-24856428D02*
X51528572Y-24799285D01*
X51528572Y-24799285D02*
X51642857Y-24742142D01*
X51642857Y-24742142D02*
X51757143Y-24742142D01*
X52614286Y-25485000D02*
X52500000Y-25542142D01*
X52500000Y-25542142D02*
X52271429Y-25542142D01*
X52271429Y-25542142D02*
X52157143Y-25485000D01*
X52157143Y-25485000D02*
X52100000Y-25370714D01*
X52100000Y-25370714D02*
X52100000Y-24913571D01*
X52100000Y-24913571D02*
X52157143Y-24799285D01*
X52157143Y-24799285D02*
X52271429Y-24742142D01*
X52271429Y-24742142D02*
X52500000Y-24742142D01*
X52500000Y-24742142D02*
X52614286Y-24799285D01*
X52614286Y-24799285D02*
X52671429Y-24913571D01*
X52671429Y-24913571D02*
X52671429Y-25027857D01*
X52671429Y-25027857D02*
X52100000Y-25142142D01*
X53071428Y-24742142D02*
X53357142Y-25542142D01*
X53357142Y-25542142D02*
X53642857Y-24742142D01*
X54728571Y-25542142D02*
X54042857Y-25542142D01*
X54385714Y-25542142D02*
X54385714Y-24342142D01*
X54385714Y-24342142D02*
X54271428Y-24513571D01*
X54271428Y-24513571D02*
X54157143Y-24627857D01*
X54157143Y-24627857D02*
X54042857Y-24685000D01*
D11*
X27031905Y-44254819D02*
X27031905Y-43254819D01*
X27031905Y-43254819D02*
X27412857Y-43254819D01*
X27412857Y-43254819D02*
X27508095Y-43302438D01*
X27508095Y-43302438D02*
X27555714Y-43350057D01*
X27555714Y-43350057D02*
X27603333Y-43445295D01*
X27603333Y-43445295D02*
X27603333Y-43588152D01*
X27603333Y-43588152D02*
X27555714Y-43683390D01*
X27555714Y-43683390D02*
X27508095Y-43731009D01*
X27508095Y-43731009D02*
X27412857Y-43778628D01*
X27412857Y-43778628D02*
X27031905Y-43778628D01*
X27984286Y-44207200D02*
X28127143Y-44254819D01*
X28127143Y-44254819D02*
X28365238Y-44254819D01*
X28365238Y-44254819D02*
X28460476Y-44207200D01*
X28460476Y-44207200D02*
X28508095Y-44159580D01*
X28508095Y-44159580D02*
X28555714Y-44064342D01*
X28555714Y-44064342D02*
X28555714Y-43969104D01*
X28555714Y-43969104D02*
X28508095Y-43873866D01*
X28508095Y-43873866D02*
X28460476Y-43826247D01*
X28460476Y-43826247D02*
X28365238Y-43778628D01*
X28365238Y-43778628D02*
X28174762Y-43731009D01*
X28174762Y-43731009D02*
X28079524Y-43683390D01*
X28079524Y-43683390D02*
X28031905Y-43635771D01*
X28031905Y-43635771D02*
X27984286Y-43540533D01*
X27984286Y-43540533D02*
X27984286Y-43445295D01*
X27984286Y-43445295D02*
X28031905Y-43350057D01*
X28031905Y-43350057D02*
X28079524Y-43302438D01*
X28079524Y-43302438D02*
X28174762Y-43254819D01*
X28174762Y-43254819D02*
X28412857Y-43254819D01*
X28412857Y-43254819D02*
X28555714Y-43302438D01*
X28984286Y-43254819D02*
X28984286Y-44064342D01*
X28984286Y-44064342D02*
X29031905Y-44159580D01*
X29031905Y-44159580D02*
X29079524Y-44207200D01*
X29079524Y-44207200D02*
X29174762Y-44254819D01*
X29174762Y-44254819D02*
X29365238Y-44254819D01*
X29365238Y-44254819D02*
X29460476Y-44207200D01*
X29460476Y-44207200D02*
X29508095Y-44159580D01*
X29508095Y-44159580D02*
X29555714Y-44064342D01*
X29555714Y-44064342D02*
X29555714Y-43254819D01*
X30555714Y-44254819D02*
X29984286Y-44254819D01*
X30270000Y-44254819D02*
X30270000Y-43254819D01*
X30270000Y-43254819D02*
X30174762Y-43397676D01*
X30174762Y-43397676D02*
X30079524Y-43492914D01*
X30079524Y-43492914D02*
X29984286Y-43540533D01*
X44216666Y-41431009D02*
X43883333Y-41431009D01*
X43883333Y-41954819D02*
X43883333Y-40954819D01*
X43883333Y-40954819D02*
X44359523Y-40954819D01*
X44645238Y-40954819D02*
X45264285Y-40954819D01*
X45264285Y-40954819D02*
X44930952Y-41335771D01*
X44930952Y-41335771D02*
X45073809Y-41335771D01*
X45073809Y-41335771D02*
X45169047Y-41383390D01*
X45169047Y-41383390D02*
X45216666Y-41431009D01*
X45216666Y-41431009D02*
X45264285Y-41526247D01*
X45264285Y-41526247D02*
X45264285Y-41764342D01*
X45264285Y-41764342D02*
X45216666Y-41859580D01*
X45216666Y-41859580D02*
X45169047Y-41907200D01*
X45169047Y-41907200D02*
X45073809Y-41954819D01*
X45073809Y-41954819D02*
X44788095Y-41954819D01*
X44788095Y-41954819D02*
X44692857Y-41907200D01*
X44692857Y-41907200D02*
X44645238Y-41859580D01*
X40261905Y-16654819D02*
X40261905Y-15654819D01*
X40833333Y-16654819D02*
X40404762Y-16083390D01*
X40833333Y-15654819D02*
X40261905Y-16226247D01*
X41785714Y-16654819D02*
X41214286Y-16654819D01*
X41500000Y-16654819D02*
X41500000Y-15654819D01*
X41500000Y-15654819D02*
X41404762Y-15797676D01*
X41404762Y-15797676D02*
X41309524Y-15892914D01*
X41309524Y-15892914D02*
X41214286Y-15940533D01*
X16066666Y-31981009D02*
X15733333Y-31981009D01*
X15733333Y-32504819D02*
X15733333Y-31504819D01*
X15733333Y-31504819D02*
X16209523Y-31504819D01*
X17114285Y-32504819D02*
X16542857Y-32504819D01*
X16828571Y-32504819D02*
X16828571Y-31504819D01*
X16828571Y-31504819D02*
X16733333Y-31647676D01*
X16733333Y-31647676D02*
X16638095Y-31742914D01*
X16638095Y-31742914D02*
X16542857Y-31790533D01*
X63461905Y-16654819D02*
X63461905Y-15654819D01*
X64033333Y-16654819D02*
X63604762Y-16083390D01*
X64033333Y-15654819D02*
X63461905Y-16226247D01*
X64414286Y-15750057D02*
X64461905Y-15702438D01*
X64461905Y-15702438D02*
X64557143Y-15654819D01*
X64557143Y-15654819D02*
X64795238Y-15654819D01*
X64795238Y-15654819D02*
X64890476Y-15702438D01*
X64890476Y-15702438D02*
X64938095Y-15750057D01*
X64938095Y-15750057D02*
X64985714Y-15845295D01*
X64985714Y-15845295D02*
X64985714Y-15940533D01*
X64985714Y-15940533D02*
X64938095Y-16083390D01*
X64938095Y-16083390D02*
X64366667Y-16654819D01*
X64366667Y-16654819D02*
X64985714Y-16654819D01*
X60738095Y-49654819D02*
X60738095Y-48654819D01*
X60738095Y-49131009D02*
X61309523Y-49131009D01*
X61309523Y-49654819D02*
X61309523Y-48654819D01*
X62214285Y-48988152D02*
X62214285Y-49654819D01*
X61976190Y-48607200D02*
X61738095Y-49321485D01*
X61738095Y-49321485D02*
X62357142Y-49321485D01*
X-1029523Y-24004819D02*
X-1029523Y-24719104D01*
X-1029523Y-24719104D02*
X-1077142Y-24861961D01*
X-1077142Y-24861961D02*
X-1172380Y-24957200D01*
X-1172380Y-24957200D02*
X-1315237Y-25004819D01*
X-1315237Y-25004819D02*
X-1410475Y-25004819D01*
X-29523Y-25004819D02*
X-600951Y-25004819D01*
X-315237Y-25004819D02*
X-315237Y-24004819D01*
X-315237Y-24004819D02*
X-410475Y-24147676D01*
X-410475Y-24147676D02*
X-505713Y-24242914D01*
X-505713Y-24242914D02*
X-600951Y-24290533D01*
X303810Y-24004819D02*
X922857Y-24004819D01*
X922857Y-24004819D02*
X589524Y-24385771D01*
X589524Y-24385771D02*
X732381Y-24385771D01*
X732381Y-24385771D02*
X827619Y-24433390D01*
X827619Y-24433390D02*
X875238Y-24481009D01*
X875238Y-24481009D02*
X922857Y-24576247D01*
X922857Y-24576247D02*
X922857Y-24814342D01*
X922857Y-24814342D02*
X875238Y-24909580D01*
X875238Y-24909580D02*
X827619Y-24957200D01*
X827619Y-24957200D02*
X732381Y-25004819D01*
X732381Y-25004819D02*
X446667Y-25004819D01*
X446667Y-25004819D02*
X351429Y-24957200D01*
X351429Y-24957200D02*
X303810Y-24909580D01*
X60738095Y-654819D02*
X60738095Y345180D01*
X60738095Y-131009D02*
X61309523Y-131009D01*
X61309523Y-654819D02*
X61309523Y345180D01*
X61738095Y249942D02*
X61785714Y297561D01*
X61785714Y297561D02*
X61880952Y345180D01*
X61880952Y345180D02*
X62119047Y345180D01*
X62119047Y345180D02*
X62214285Y297561D01*
X62214285Y297561D02*
X62261904Y249942D01*
X62261904Y249942D02*
X62309523Y154704D01*
X62309523Y154704D02*
X62309523Y59466D01*
X62309523Y59466D02*
X62261904Y-83390D01*
X62261904Y-83390D02*
X61690476Y-654819D01*
X61690476Y-654819D02*
X62309523Y-654819D01*
X2738095Y-654819D02*
X2738095Y345180D01*
X2738095Y-131009D02*
X3309523Y-131009D01*
X3309523Y-654819D02*
X3309523Y345180D01*
X4309523Y-654819D02*
X3738095Y-654819D01*
X4023809Y-654819D02*
X4023809Y345180D01*
X4023809Y345180D02*
X3928571Y202323D01*
X3928571Y202323D02*
X3833333Y107085D01*
X3833333Y107085D02*
X3738095Y59466D01*
X5604819Y-20083333D02*
X6319104Y-20083333D01*
X6319104Y-20083333D02*
X6461961Y-20130952D01*
X6461961Y-20130952D02*
X6557200Y-20226190D01*
X6557200Y-20226190D02*
X6604819Y-20369047D01*
X6604819Y-20369047D02*
X6604819Y-20464285D01*
X6604819Y-19083333D02*
X6604819Y-19654761D01*
X6604819Y-19369047D02*
X5604819Y-19369047D01*
X5604819Y-19369047D02*
X5747676Y-19464285D01*
X5747676Y-19464285D02*
X5842914Y-19559523D01*
X5842914Y-19559523D02*
X5890533Y-19654761D01*
X54716666Y-41431009D02*
X54383333Y-41431009D01*
X54383333Y-41954819D02*
X54383333Y-40954819D01*
X54383333Y-40954819D02*
X54859523Y-40954819D01*
X55669047Y-41288152D02*
X55669047Y-41954819D01*
X55430952Y-40907200D02*
X55192857Y-41621485D01*
X55192857Y-41621485D02*
X55811904Y-41621485D01*
X-1029523Y-32304819D02*
X-1029523Y-33019104D01*
X-1029523Y-33019104D02*
X-1077142Y-33161961D01*
X-1077142Y-33161961D02*
X-1172380Y-33257200D01*
X-1172380Y-33257200D02*
X-1315237Y-33304819D01*
X-1315237Y-33304819D02*
X-1410475Y-33304819D01*
X-29523Y-33304819D02*
X-600951Y-33304819D01*
X-315237Y-33304819D02*
X-315237Y-32304819D01*
X-315237Y-32304819D02*
X-410475Y-32447676D01*
X-410475Y-32447676D02*
X-505713Y-32542914D01*
X-505713Y-32542914D02*
X-600951Y-32590533D01*
X827619Y-32638152D02*
X827619Y-33304819D01*
X589524Y-32257200D02*
X351429Y-32971485D01*
X351429Y-32971485D02*
X970476Y-32971485D01*
X4896666Y-3924819D02*
X4896666Y-4639104D01*
X4896666Y-4639104D02*
X4849047Y-4781961D01*
X4849047Y-4781961D02*
X4753809Y-4877200D01*
X4753809Y-4877200D02*
X4610952Y-4924819D01*
X4610952Y-4924819D02*
X4515714Y-4924819D01*
X5277619Y-3924819D02*
X5896666Y-3924819D01*
X5896666Y-3924819D02*
X5563333Y-4305771D01*
X5563333Y-4305771D02*
X5706190Y-4305771D01*
X5706190Y-4305771D02*
X5801428Y-4353390D01*
X5801428Y-4353390D02*
X5849047Y-4401009D01*
X5849047Y-4401009D02*
X5896666Y-4496247D01*
X5896666Y-4496247D02*
X5896666Y-4734342D01*
X5896666Y-4734342D02*
X5849047Y-4829580D01*
X5849047Y-4829580D02*
X5801428Y-4877200D01*
X5801428Y-4877200D02*
X5706190Y-4924819D01*
X5706190Y-4924819D02*
X5420476Y-4924819D01*
X5420476Y-4924819D02*
X5325238Y-4877200D01*
X5325238Y-4877200D02*
X5277619Y-4829580D01*
X40261905Y-33754819D02*
X40261905Y-32754819D01*
X40833333Y-33754819D02*
X40404762Y-33183390D01*
X40833333Y-32754819D02*
X40261905Y-33326247D01*
X41166667Y-32754819D02*
X41785714Y-32754819D01*
X41785714Y-32754819D02*
X41452381Y-33135771D01*
X41452381Y-33135771D02*
X41595238Y-33135771D01*
X41595238Y-33135771D02*
X41690476Y-33183390D01*
X41690476Y-33183390D02*
X41738095Y-33231009D01*
X41738095Y-33231009D02*
X41785714Y-33326247D01*
X41785714Y-33326247D02*
X41785714Y-33564342D01*
X41785714Y-33564342D02*
X41738095Y-33659580D01*
X41738095Y-33659580D02*
X41690476Y-33707200D01*
X41690476Y-33707200D02*
X41595238Y-33754819D01*
X41595238Y-33754819D02*
X41309524Y-33754819D01*
X41309524Y-33754819D02*
X41214286Y-33707200D01*
X41214286Y-33707200D02*
X41166667Y-33659580D01*
X25916666Y-47234819D02*
X25916666Y-47949104D01*
X25916666Y-47949104D02*
X25869047Y-48091961D01*
X25869047Y-48091961D02*
X25773809Y-48187200D01*
X25773809Y-48187200D02*
X25630952Y-48234819D01*
X25630952Y-48234819D02*
X25535714Y-48234819D01*
X26440476Y-48234819D02*
X26630952Y-48234819D01*
X26630952Y-48234819D02*
X26726190Y-48187200D01*
X26726190Y-48187200D02*
X26773809Y-48139580D01*
X26773809Y-48139580D02*
X26869047Y-47996723D01*
X26869047Y-47996723D02*
X26916666Y-47806247D01*
X26916666Y-47806247D02*
X26916666Y-47425295D01*
X26916666Y-47425295D02*
X26869047Y-47330057D01*
X26869047Y-47330057D02*
X26821428Y-47282438D01*
X26821428Y-47282438D02*
X26726190Y-47234819D01*
X26726190Y-47234819D02*
X26535714Y-47234819D01*
X26535714Y-47234819D02*
X26440476Y-47282438D01*
X26440476Y-47282438D02*
X26392857Y-47330057D01*
X26392857Y-47330057D02*
X26345238Y-47425295D01*
X26345238Y-47425295D02*
X26345238Y-47663390D01*
X26345238Y-47663390D02*
X26392857Y-47758628D01*
X26392857Y-47758628D02*
X26440476Y-47806247D01*
X26440476Y-47806247D02*
X26535714Y-47853866D01*
X26535714Y-47853866D02*
X26726190Y-47853866D01*
X26726190Y-47853866D02*
X26821428Y-47806247D01*
X26821428Y-47806247D02*
X26869047Y-47758628D01*
X26869047Y-47758628D02*
X26916666Y-47663390D01*
X33716666Y-41431009D02*
X33383333Y-41431009D01*
X33383333Y-41954819D02*
X33383333Y-40954819D01*
X33383333Y-40954819D02*
X33859523Y-40954819D01*
X34192857Y-41050057D02*
X34240476Y-41002438D01*
X34240476Y-41002438D02*
X34335714Y-40954819D01*
X34335714Y-40954819D02*
X34573809Y-40954819D01*
X34573809Y-40954819D02*
X34669047Y-41002438D01*
X34669047Y-41002438D02*
X34716666Y-41050057D01*
X34716666Y-41050057D02*
X34764285Y-41145295D01*
X34764285Y-41145295D02*
X34764285Y-41240533D01*
X34764285Y-41240533D02*
X34716666Y-41383390D01*
X34716666Y-41383390D02*
X34145238Y-41954819D01*
X34145238Y-41954819D02*
X34764285Y-41954819D01*
X2738095Y-49654819D02*
X2738095Y-48654819D01*
X2738095Y-49131009D02*
X3309523Y-49131009D01*
X3309523Y-49654819D02*
X3309523Y-48654819D01*
X3690476Y-48654819D02*
X4309523Y-48654819D01*
X4309523Y-48654819D02*
X3976190Y-49035771D01*
X3976190Y-49035771D02*
X4119047Y-49035771D01*
X4119047Y-49035771D02*
X4214285Y-49083390D01*
X4214285Y-49083390D02*
X4261904Y-49131009D01*
X4261904Y-49131009D02*
X4309523Y-49226247D01*
X4309523Y-49226247D02*
X4309523Y-49464342D01*
X4309523Y-49464342D02*
X4261904Y-49559580D01*
X4261904Y-49559580D02*
X4214285Y-49607200D01*
X4214285Y-49607200D02*
X4119047Y-49654819D01*
X4119047Y-49654819D02*
X3833333Y-49654819D01*
X3833333Y-49654819D02*
X3738095Y-49607200D01*
X3738095Y-49607200D02*
X3690476Y-49559580D01*
X63461905Y-33754819D02*
X63461905Y-32754819D01*
X64033333Y-33754819D02*
X63604762Y-33183390D01*
X64033333Y-32754819D02*
X63461905Y-33326247D01*
X64890476Y-33088152D02*
X64890476Y-33754819D01*
X64652381Y-32707200D02*
X64414286Y-33421485D01*
X64414286Y-33421485D02*
X65033333Y-33421485D01*
X13916666Y-47234819D02*
X13916666Y-47949104D01*
X13916666Y-47949104D02*
X13869047Y-48091961D01*
X13869047Y-48091961D02*
X13773809Y-48187200D01*
X13773809Y-48187200D02*
X13630952Y-48234819D01*
X13630952Y-48234819D02*
X13535714Y-48234819D01*
X14535714Y-47663390D02*
X14440476Y-47615771D01*
X14440476Y-47615771D02*
X14392857Y-47568152D01*
X14392857Y-47568152D02*
X14345238Y-47472914D01*
X14345238Y-47472914D02*
X14345238Y-47425295D01*
X14345238Y-47425295D02*
X14392857Y-47330057D01*
X14392857Y-47330057D02*
X14440476Y-47282438D01*
X14440476Y-47282438D02*
X14535714Y-47234819D01*
X14535714Y-47234819D02*
X14726190Y-47234819D01*
X14726190Y-47234819D02*
X14821428Y-47282438D01*
X14821428Y-47282438D02*
X14869047Y-47330057D01*
X14869047Y-47330057D02*
X14916666Y-47425295D01*
X14916666Y-47425295D02*
X14916666Y-47472914D01*
X14916666Y-47472914D02*
X14869047Y-47568152D01*
X14869047Y-47568152D02*
X14821428Y-47615771D01*
X14821428Y-47615771D02*
X14726190Y-47663390D01*
X14726190Y-47663390D02*
X14535714Y-47663390D01*
X14535714Y-47663390D02*
X14440476Y-47711009D01*
X14440476Y-47711009D02*
X14392857Y-47758628D01*
X14392857Y-47758628D02*
X14345238Y-47853866D01*
X14345238Y-47853866D02*
X14345238Y-48044342D01*
X14345238Y-48044342D02*
X14392857Y-48139580D01*
X14392857Y-48139580D02*
X14440476Y-48187200D01*
X14440476Y-48187200D02*
X14535714Y-48234819D01*
X14535714Y-48234819D02*
X14726190Y-48234819D01*
X14726190Y-48234819D02*
X14821428Y-48187200D01*
X14821428Y-48187200D02*
X14869047Y-48139580D01*
X14869047Y-48139580D02*
X14916666Y-48044342D01*
X14916666Y-48044342D02*
X14916666Y-47853866D01*
X14916666Y-47853866D02*
X14869047Y-47758628D01*
X14869047Y-47758628D02*
X14821428Y-47711009D01*
X14821428Y-47711009D02*
X14726190Y-47663390D01*
X52190476Y-47234819D02*
X52190476Y-47949104D01*
X52190476Y-47949104D02*
X52142857Y-48091961D01*
X52142857Y-48091961D02*
X52047619Y-48187200D01*
X52047619Y-48187200D02*
X51904762Y-48234819D01*
X51904762Y-48234819D02*
X51809524Y-48234819D01*
X53190476Y-48234819D02*
X52619048Y-48234819D01*
X52904762Y-48234819D02*
X52904762Y-47234819D01*
X52904762Y-47234819D02*
X52809524Y-47377676D01*
X52809524Y-47377676D02*
X52714286Y-47472914D01*
X52714286Y-47472914D02*
X52619048Y-47520533D01*
X54142857Y-48234819D02*
X53571429Y-48234819D01*
X53857143Y-48234819D02*
X53857143Y-47234819D01*
X53857143Y-47234819D02*
X53761905Y-47377676D01*
X53761905Y-47377676D02*
X53666667Y-47472914D01*
X53666667Y-47472914D02*
X53571429Y-47520533D01*
X37440476Y-47234819D02*
X37440476Y-47949104D01*
X37440476Y-47949104D02*
X37392857Y-48091961D01*
X37392857Y-48091961D02*
X37297619Y-48187200D01*
X37297619Y-48187200D02*
X37154762Y-48234819D01*
X37154762Y-48234819D02*
X37059524Y-48234819D01*
X38440476Y-48234819D02*
X37869048Y-48234819D01*
X38154762Y-48234819D02*
X38154762Y-47234819D01*
X38154762Y-47234819D02*
X38059524Y-47377676D01*
X38059524Y-47377676D02*
X37964286Y-47472914D01*
X37964286Y-47472914D02*
X37869048Y-47520533D01*
X39059524Y-47234819D02*
X39154762Y-47234819D01*
X39154762Y-47234819D02*
X39250000Y-47282438D01*
X39250000Y-47282438D02*
X39297619Y-47330057D01*
X39297619Y-47330057D02*
X39345238Y-47425295D01*
X39345238Y-47425295D02*
X39392857Y-47615771D01*
X39392857Y-47615771D02*
X39392857Y-47853866D01*
X39392857Y-47853866D02*
X39345238Y-48044342D01*
X39345238Y-48044342D02*
X39297619Y-48139580D01*
X39297619Y-48139580D02*
X39250000Y-48187200D01*
X39250000Y-48187200D02*
X39154762Y-48234819D01*
X39154762Y-48234819D02*
X39059524Y-48234819D01*
X39059524Y-48234819D02*
X38964286Y-48187200D01*
X38964286Y-48187200D02*
X38916667Y-48139580D01*
X38916667Y-48139580D02*
X38869048Y-48044342D01*
X38869048Y-48044342D02*
X38821429Y-47853866D01*
X38821429Y-47853866D02*
X38821429Y-47615771D01*
X38821429Y-47615771D02*
X38869048Y-47425295D01*
X38869048Y-47425295D02*
X38916667Y-47330057D01*
X38916667Y-47330057D02*
X38964286Y-47282438D01*
X38964286Y-47282438D02*
X39059524Y-47234819D01*
X-553333Y-42454819D02*
X-553333Y-43169104D01*
X-553333Y-43169104D02*
X-600952Y-43311961D01*
X-600952Y-43311961D02*
X-696190Y-43407200D01*
X-696190Y-43407200D02*
X-839047Y-43454819D01*
X-839047Y-43454819D02*
X-934285Y-43454819D01*
X351428Y-42788152D02*
X351428Y-43454819D01*
X113333Y-42407200D02*
X-124761Y-43121485D01*
X-124761Y-43121485D02*
X494285Y-43121485D01*
%TO.C,PSU1*%
D12*
X14510000Y-42470000D02*
X14510000Y-45130000D01*
X24730000Y-42470000D02*
X14510000Y-42470000D01*
X24730000Y-42470000D02*
X24730000Y-45130000D01*
X24730000Y-45130000D02*
X14510000Y-45130000D01*
X27330000Y-43800000D02*
X27330000Y-45130000D01*
X27330000Y-45130000D02*
X26000000Y-45130000D01*
%TO.C,F3*%
X39600000Y-42400000D02*
X41422000Y-42400000D01*
X39600000Y-45600000D02*
X39600000Y-42400000D01*
X42578000Y-42400000D02*
X49500000Y-42400000D01*
X46522000Y-45600000D02*
X39600000Y-45600000D01*
X49500000Y-42400000D02*
X49500000Y-45600000D01*
X49500000Y-45600000D02*
X47678000Y-45600000D01*
%TO.C,K1*%
X17150000Y-7850000D02*
X17150000Y-24550000D01*
X17150000Y-24550000D02*
X39850000Y-24550000D01*
X34400000Y-15850000D02*
X34400000Y-16550000D01*
X34400000Y-16550000D02*
X35600000Y-16550000D01*
X34800000Y-15850000D02*
X35200000Y-16550000D01*
X35000000Y-11700000D02*
X35000000Y-14850000D01*
X35000000Y-17550000D02*
X35000000Y-20700000D01*
X35600000Y-15850000D02*
X34400000Y-15850000D01*
X35600000Y-16550000D02*
X35600000Y-15850000D01*
X39850000Y-7850000D02*
X17150000Y-7850000D01*
X39850000Y-24550000D02*
X39850000Y-7850000D01*
X40110000Y-15200000D02*
X40110000Y-17200000D01*
%TO.C,F1*%
X12300000Y-26750000D02*
X15500000Y-26750000D01*
X12300000Y-33762000D02*
X12300000Y-26750000D01*
X12300000Y-37350000D02*
X12300000Y-35438000D01*
X15500000Y-26750000D02*
X15500000Y-28662000D01*
X15500000Y-30338000D02*
X15500000Y-37350000D01*
X15500000Y-37350000D02*
X12300000Y-37350000D01*
%TO.C,K2*%
X40350000Y-7850000D02*
X40350000Y-24550000D01*
X40350000Y-24550000D02*
X63050000Y-24550000D01*
X57600000Y-15850000D02*
X57600000Y-16550000D01*
X57600000Y-16550000D02*
X58800000Y-16550000D01*
X58000000Y-15850000D02*
X58400000Y-16550000D01*
X58200000Y-11700000D02*
X58200000Y-14850000D01*
X58200000Y-17550000D02*
X58200000Y-20700000D01*
X58800000Y-15850000D02*
X57600000Y-15850000D01*
X58800000Y-16550000D02*
X58800000Y-15850000D01*
X63050000Y-7850000D02*
X40350000Y-7850000D01*
X63050000Y-24550000D02*
X63050000Y-7850000D01*
X63310000Y-15200000D02*
X63310000Y-17200000D01*
%TO.C,J13*%
X780000Y-20930000D02*
X8620000Y-20930000D01*
X780000Y-28170000D02*
X780000Y-20930000D01*
X7000000Y-28170000D02*
X7000000Y-20930000D01*
X8100000Y-28170000D02*
X8100000Y-20930000D01*
X8620000Y-20930000D02*
X8620000Y-26000000D01*
X8620000Y-26600000D02*
X8620000Y-28170000D01*
X8620000Y-28170000D02*
X780000Y-28170000D01*
X8620000Y-26300000D02*
X9230000Y-25860000D01*
X9230000Y-26740000D01*
X8620000Y-26300000D01*
G36*
X9230000Y-26740000D02*
G01*
X8620000Y-26300000D01*
X9230000Y-25860000D01*
X9230000Y-26740000D01*
G37*
%TO.C,J1*%
X800000Y-9400000D02*
X15400000Y-9400000D01*
X800000Y-18600000D02*
X800000Y-9400000D01*
X9800000Y-18600000D02*
X800000Y-18600000D01*
X13900000Y-9160000D02*
X15640000Y-9160000D01*
X15400000Y-9400000D02*
X15400000Y-12200000D01*
X15400000Y-15800000D02*
X15400000Y-18600000D01*
X15400000Y-18600000D02*
X13400000Y-18600000D01*
X15640000Y-9160000D02*
X15640000Y-10900000D01*
%TO.C,F4*%
X50100000Y-42400000D02*
X51922000Y-42400000D01*
X50100000Y-45600000D02*
X50100000Y-42400000D01*
X53078000Y-42400000D02*
X60000000Y-42400000D01*
X57022000Y-45600000D02*
X50100000Y-45600000D01*
X60000000Y-42400000D02*
X60000000Y-45600000D01*
X60000000Y-45600000D02*
X58178000Y-45600000D01*
%TO.C,J14*%
X780000Y-29230000D02*
X8620000Y-29230000D01*
X780000Y-36470000D02*
X780000Y-29230000D01*
X7000000Y-36470000D02*
X7000000Y-29230000D01*
X8100000Y-36470000D02*
X8100000Y-29230000D01*
X8620000Y-29230000D02*
X8620000Y-34300000D01*
X8620000Y-34900000D02*
X8620000Y-36470000D01*
X8620000Y-36470000D02*
X780000Y-36470000D01*
X8620000Y-34600000D02*
X9230000Y-34160000D01*
X9230000Y-35040000D01*
X8620000Y-34600000D01*
G36*
X9230000Y-35040000D02*
G01*
X8620000Y-34600000D01*
X9230000Y-34160000D01*
X9230000Y-35040000D01*
G37*
%TO.C,J3*%
X6670000Y-1870000D02*
X8000000Y-1870000D01*
X6670000Y-3200000D02*
X6670000Y-1870000D01*
X6670000Y-4470000D02*
X9270000Y-4470000D01*
X6670000Y-7070000D02*
X6670000Y-4470000D01*
X6670000Y-7070000D02*
X57590000Y-7070000D01*
X9270000Y-1870000D02*
X57590000Y-1870000D01*
X9270000Y-4470000D02*
X9270000Y-1870000D01*
X57590000Y-7070000D02*
X57590000Y-1870000D01*
%TO.C,K3*%
X17150000Y-24950000D02*
X17150000Y-41650000D01*
X17150000Y-41650000D02*
X39850000Y-41650000D01*
X34400000Y-32950000D02*
X34400000Y-33650000D01*
X34400000Y-33650000D02*
X35600000Y-33650000D01*
X34800000Y-32950000D02*
X35200000Y-33650000D01*
X35000000Y-28800000D02*
X35000000Y-31950000D01*
X35000000Y-34650000D02*
X35000000Y-37800000D01*
X35600000Y-32950000D02*
X34400000Y-32950000D01*
X35600000Y-33650000D02*
X35600000Y-32950000D01*
X39850000Y-24950000D02*
X17150000Y-24950000D01*
X39850000Y-41650000D02*
X39850000Y-24950000D01*
X40110000Y-32300000D02*
X40110000Y-34300000D01*
%TO.C,J9*%
X22630000Y-48780000D02*
X29870000Y-48780000D01*
X22630000Y-55000000D02*
X29870000Y-55000000D01*
X22630000Y-56100000D02*
X29870000Y-56100000D01*
X22630000Y-56620000D02*
X22630000Y-48780000D01*
X24200000Y-56620000D02*
X22630000Y-56620000D01*
X29870000Y-48780000D02*
X29870000Y-56620000D01*
X29870000Y-56620000D02*
X24800000Y-56620000D01*
X24500000Y-56620000D02*
X24940000Y-57230000D01*
X24060000Y-57230000D01*
X24500000Y-56620000D01*
G36*
X24940000Y-57230000D02*
G01*
X24060000Y-57230000D01*
X24500000Y-56620000D01*
X24940000Y-57230000D01*
G37*
%TO.C,F2*%
X29100000Y-42400000D02*
X30922000Y-42400000D01*
X29100000Y-45600000D02*
X29100000Y-42400000D01*
X32078000Y-42400000D02*
X39000000Y-42400000D01*
X36022000Y-45600000D02*
X29100000Y-45600000D01*
X39000000Y-42400000D02*
X39000000Y-45600000D01*
X39000000Y-45600000D02*
X37178000Y-45600000D01*
%TO.C,K4*%
X40350000Y-24950000D02*
X40350000Y-41650000D01*
X40350000Y-41650000D02*
X63050000Y-41650000D01*
X57600000Y-32950000D02*
X57600000Y-33650000D01*
X57600000Y-33650000D02*
X58800000Y-33650000D01*
X58000000Y-32950000D02*
X58400000Y-33650000D01*
X58200000Y-28800000D02*
X58200000Y-31950000D01*
X58200000Y-34650000D02*
X58200000Y-37800000D01*
X58800000Y-32950000D02*
X57600000Y-32950000D01*
X58800000Y-33650000D02*
X58800000Y-32950000D01*
X63050000Y-24950000D02*
X40350000Y-24950000D01*
X63050000Y-41650000D02*
X63050000Y-24950000D01*
X63310000Y-32300000D02*
X63310000Y-34300000D01*
%TO.C,J8*%
X10630000Y-48780000D02*
X17870000Y-48780000D01*
X10630000Y-55000000D02*
X17870000Y-55000000D01*
X10630000Y-56100000D02*
X17870000Y-56100000D01*
X10630000Y-56620000D02*
X10630000Y-48780000D01*
X12200000Y-56620000D02*
X10630000Y-56620000D01*
X17870000Y-48780000D02*
X17870000Y-56620000D01*
X17870000Y-56620000D02*
X12800000Y-56620000D01*
X12500000Y-56620000D02*
X12940000Y-57230000D01*
X12060000Y-57230000D01*
X12500000Y-56620000D01*
G36*
X12940000Y-57230000D02*
G01*
X12060000Y-57230000D01*
X12500000Y-56620000D01*
X12940000Y-57230000D01*
G37*
%TO.C,J11*%
X47630000Y-48780000D02*
X58370000Y-48780000D01*
X47630000Y-55000000D02*
X58370000Y-55000000D01*
X47630000Y-56100000D02*
X58370000Y-56100000D01*
X47630000Y-56620000D02*
X47630000Y-48780000D01*
X49200000Y-56620000D02*
X47630000Y-56620000D01*
X58370000Y-48780000D02*
X58370000Y-56620000D01*
X58370000Y-56620000D02*
X49800000Y-56620000D01*
X49500000Y-56620000D02*
X49940000Y-57230000D01*
X49060000Y-57230000D01*
X49500000Y-56620000D01*
G36*
X49940000Y-57230000D02*
G01*
X49060000Y-57230000D01*
X49500000Y-56620000D01*
X49940000Y-57230000D01*
G37*
%TO.C,J10*%
X34630000Y-48780000D02*
X41870000Y-48780000D01*
X34630000Y-55000000D02*
X41870000Y-55000000D01*
X34630000Y-56100000D02*
X41870000Y-56100000D01*
X34630000Y-56620000D02*
X34630000Y-48780000D01*
X36200000Y-56620000D02*
X34630000Y-56620000D01*
X41870000Y-48780000D02*
X41870000Y-56620000D01*
X41870000Y-56620000D02*
X36800000Y-56620000D01*
X36500000Y-56620000D02*
X36940000Y-57230000D01*
X36060000Y-57230000D01*
X36500000Y-56620000D01*
G36*
X36940000Y-57230000D02*
G01*
X36060000Y-57230000D01*
X36500000Y-56620000D01*
X36940000Y-57230000D01*
G37*
%TO.C,J4*%
X780000Y-37630000D02*
X8620000Y-37630000D01*
X780000Y-48370000D02*
X780000Y-37630000D01*
X7000000Y-48370000D02*
X7000000Y-37630000D01*
X8100000Y-48370000D02*
X8100000Y-37630000D01*
X8620000Y-37630000D02*
X8620000Y-46200000D01*
X8620000Y-46800000D02*
X8620000Y-48370000D01*
X8620000Y-48370000D02*
X780000Y-48370000D01*
X8620000Y-46500000D02*
X9230000Y-46060000D01*
X9230000Y-46940000D01*
X8620000Y-46500000D01*
G36*
X9230000Y-46940000D02*
G01*
X8620000Y-46500000D01*
X9230000Y-46060000D01*
X9230000Y-46940000D01*
G37*
%TD*%
M02*
