%TF.GenerationSoftware,KiCad,Pcbnew,10.0.5*%
%TF.CreationDate,2026-07-27T20:12:19-04:00*%
%TF.ProjectId,exopet-hat,65786f70-6574-42d6-9861-742e6b696361,rev?*%
%TF.SameCoordinates,Original*%
%TF.FileFunction,Soldermask,Bot*%
%TF.FilePolarity,Negative*%
%FSLAX46Y46*%
G04 Gerber Fmt 4.6, Leading zero omitted, Abs format (unit mm)*
G04 Created by KiCad (PCBNEW 10.0.5) date 2026-07-27 20:12:19*
%MOMM*%
%LPD*%
G01*
G04 APERTURE LIST*
G04 Aperture macros list*
%AMRoundRect*
0 Rectangle with rounded corners*
0 $1 Rounding radius*
0 $2 $3 $4 $5 $6 $7 $8 $9 X,Y pos of 4 corners*
0 Add a 4 corners polygon primitive as box body*
4,1,4,$2,$3,$4,$5,$6,$7,$8,$9,$2,$3,0*
0 Add four circle primitives for the rounded corners*
1,1,$1+$1,$2,$3*
1,1,$1+$1,$4,$5*
1,1,$1+$1,$6,$7*
1,1,$1+$1,$8,$9*
0 Add four rect primitives between the rounded corners*
20,1,$1+$1,$2,$3,$4,$5,0*
20,1,$1+$1,$4,$5,$6,$7,0*
20,1,$1+$1,$6,$7,$8,$9,0*
20,1,$1+$1,$8,$9,$2,$3,0*%
%AMFreePoly0*
4,1,23,0.500000,-0.750000,0.000000,-0.750000,0.000000,-0.745722,-0.065263,-0.745722,-0.191342,-0.711940,-0.304381,-0.646677,-0.396677,-0.554381,-0.461940,-0.441342,-0.495722,-0.315263,-0.495722,-0.250000,-0.500000,-0.250000,-0.500000,0.250000,-0.495722,0.250000,-0.495722,0.315263,-0.461940,0.441342,-0.396677,0.554381,-0.304381,0.646677,-0.191342,0.711940,-0.065263,0.745722,0.000000,0.745722,
0.000000,0.750000,0.500000,0.750000,0.500000,-0.750000,0.500000,-0.750000,$1*%
%AMFreePoly1*
4,1,23,0.000000,0.745722,0.065263,0.745722,0.191342,0.711940,0.304381,0.646677,0.396677,0.554381,0.461940,0.441342,0.495722,0.315263,0.495722,0.250000,0.500000,0.250000,0.500000,-0.250000,0.495722,-0.250000,0.495722,-0.315263,0.461940,-0.441342,0.396677,-0.554381,0.304381,-0.646677,0.191342,-0.711940,0.065263,-0.745722,0.000000,-0.745722,0.000000,-0.750000,-0.500000,-0.750000,
-0.500000,0.750000,0.000000,0.750000,0.000000,0.745722,0.000000,0.745722,$1*%
G04 Aperture macros list end*
%ADD10R,1.700000X1.700000*%
%ADD11C,1.700000*%
%ADD12C,1.710000*%
%ADD13R,2.500000X2.500000*%
%ADD14O,2.500000X2.500000*%
%ADD15C,2.010000*%
%ADD16C,4.700000*%
%ADD17RoundRect,0.250001X0.949999X-0.949999X0.949999X0.949999X-0.949999X0.949999X-0.949999X-0.949999X0*%
%ADD18C,2.400000*%
%ADD19R,2.600000X2.600000*%
%ADD20C,2.600000*%
%ADD21RoundRect,0.250001X-0.949999X-0.949999X0.949999X-0.949999X0.949999X0.949999X-0.949999X0.949999X0*%
%ADD22RoundRect,0.243750X-0.243750X-0.456250X0.243750X-0.456250X0.243750X0.456250X-0.243750X0.456250X0*%
%ADD23RoundRect,0.250000X-1.000000X-0.650000X1.000000X-0.650000X1.000000X0.650000X-1.000000X0.650000X0*%
%ADD24RoundRect,0.250000X-0.450000X0.262500X-0.450000X-0.262500X0.450000X-0.262500X0.450000X0.262500X0*%
%ADD25RoundRect,0.250000X-0.262500X-0.450000X0.262500X-0.450000X0.262500X0.450000X-0.262500X0.450000X0*%
%ADD26RoundRect,0.150000X-0.825000X-0.150000X0.825000X-0.150000X0.825000X0.150000X-0.825000X0.150000X0*%
%ADD27RoundRect,0.150000X-0.150000X0.825000X-0.150000X-0.825000X0.150000X-0.825000X0.150000X0.825000X0*%
%ADD28FreePoly0,0.000000*%
%ADD29FreePoly1,0.000000*%
%ADD30RoundRect,0.250000X-0.900000X1.000000X-0.900000X-1.000000X0.900000X-1.000000X0.900000X1.000000X0*%
%ADD31RoundRect,0.250000X-0.250000X-0.475000X0.250000X-0.475000X0.250000X0.475000X-0.250000X0.475000X0*%
%ADD32RoundRect,0.250000X-0.350000X0.850000X-0.350000X-0.850000X0.350000X-0.850000X0.350000X0.850000X0*%
%ADD33RoundRect,0.249997X-2.650003X2.950003X-2.650003X-2.950003X2.650003X-2.950003X2.650003X2.950003X0*%
%ADD34RoundRect,0.112500X-0.187500X-0.112500X0.187500X-0.112500X0.187500X0.112500X-0.187500X0.112500X0*%
%ADD35RoundRect,0.250000X-0.475000X0.250000X-0.475000X-0.250000X0.475000X-0.250000X0.475000X0.250000X0*%
%ADD36RoundRect,0.250000X-1.000000X1.950000X-1.000000X-1.950000X1.000000X-1.950000X1.000000X1.950000X0*%
%ADD37FreePoly0,270.000000*%
%ADD38FreePoly1,270.000000*%
G04 APERTURE END LIST*
%TO.C,JP1*%
G36*
X14650000Y-45250000D02*
G01*
X14950000Y-45250000D01*
X14950000Y-46750000D01*
X14650000Y-46750000D01*
X14650000Y-45250000D01*
G37*
%TO.C,JP2*%
G36*
X42250000Y-32850000D02*
G01*
X43750000Y-32850000D01*
X43750000Y-33150000D01*
X42250000Y-33150000D01*
X42250000Y-32850000D01*
G37*
%TD*%
D10*
%TO.C,PSU1*%
X26000000Y-43800000D03*
D11*
X23460000Y-43800000D03*
X20920000Y-43800000D03*
X18380000Y-43800000D03*
X15840000Y-43800000D03*
%TD*%
D12*
%TO.C,F3*%
X42000000Y-43400000D03*
X47100000Y-44600000D03*
%TD*%
D13*
%TO.C,K1*%
X37200000Y-16200000D03*
D14*
X35200000Y-10200000D03*
X23000000Y-10200000D03*
X23000000Y-22200000D03*
X35200000Y-22200000D03*
%TD*%
D15*
%TO.C,F1*%
X14500000Y-29500000D03*
X13300000Y-34600000D03*
%TD*%
D13*
%TO.C,K2*%
X60400000Y-16200000D03*
D14*
X58400000Y-10200000D03*
X46200000Y-10200000D03*
X46200000Y-22200000D03*
X58400000Y-22200000D03*
%TD*%
D16*
%TO.C,H4*%
X61500000Y-52500000D03*
%TD*%
D17*
%TO.C,J13*%
X4000000Y-26300000D03*
D18*
X4000000Y-22800000D03*
%TD*%
D16*
%TO.C,H2*%
X61500000Y-3500000D03*
%TD*%
%TO.C,H1*%
X3500000Y-3500000D03*
%TD*%
D19*
%TO.C,J1*%
X14600000Y-14000000D03*
D20*
X8600000Y-14000000D03*
X11600000Y-18700000D03*
%TD*%
D12*
%TO.C,F4*%
X52500000Y-43400000D03*
X57600000Y-44600000D03*
%TD*%
D17*
%TO.C,J14*%
X4000000Y-34600000D03*
D18*
X4000000Y-31100000D03*
%TD*%
D10*
%TO.C,J3*%
X8000000Y-3200000D03*
D11*
X8000000Y-5740000D03*
X10540000Y-3200000D03*
X10540000Y-5740000D03*
X13080000Y-3200000D03*
X13080000Y-5740000D03*
X15620000Y-3200000D03*
X15620000Y-5740000D03*
X18160000Y-3200000D03*
X18160000Y-5740000D03*
X20700000Y-3200000D03*
X20700000Y-5740000D03*
X23240000Y-3200000D03*
X23240000Y-5740000D03*
X25780000Y-3200000D03*
X25780000Y-5740000D03*
X28320000Y-3200000D03*
X28320000Y-5740000D03*
X30860000Y-3200000D03*
X30860000Y-5740000D03*
X33400000Y-3200000D03*
X33400000Y-5740000D03*
X35940000Y-3200000D03*
X35940000Y-5740000D03*
X38480000Y-3200000D03*
X38480000Y-5740000D03*
X41020000Y-3200000D03*
X41020000Y-5740000D03*
X43560000Y-3200000D03*
X43560000Y-5740000D03*
X46100000Y-3200000D03*
X46100000Y-5740000D03*
X48640000Y-3200000D03*
X48640000Y-5740000D03*
X51180000Y-3200000D03*
X51180000Y-5740000D03*
X53720000Y-3200000D03*
X53720000Y-5740000D03*
X56260000Y-3200000D03*
X56260000Y-5740000D03*
%TD*%
D13*
%TO.C,K3*%
X37200000Y-33300000D03*
D14*
X35200000Y-27300000D03*
X23000000Y-27300000D03*
X23000000Y-39300000D03*
X35200000Y-39300000D03*
%TD*%
D21*
%TO.C,J9*%
X24500000Y-52000000D03*
D18*
X28000000Y-52000000D03*
%TD*%
D12*
%TO.C,F2*%
X31500000Y-43400000D03*
X36600000Y-44600000D03*
%TD*%
D16*
%TO.C,H3*%
X3500000Y-52500000D03*
%TD*%
D13*
%TO.C,K4*%
X60400000Y-33300000D03*
D14*
X58400000Y-27300000D03*
X46200000Y-27300000D03*
X46200000Y-39300000D03*
X58400000Y-39300000D03*
%TD*%
D21*
%TO.C,J8*%
X12500000Y-52000000D03*
D18*
X16000000Y-52000000D03*
%TD*%
D21*
%TO.C,J11*%
X49500000Y-52000000D03*
D18*
X53000000Y-52000000D03*
X56500000Y-52000000D03*
%TD*%
D21*
%TO.C,J10*%
X36500000Y-52000000D03*
D18*
X40000000Y-52000000D03*
%TD*%
D17*
%TO.C,J4*%
X4000000Y-46500000D03*
D18*
X4000000Y-43000000D03*
X4000000Y-39500000D03*
%TD*%
D22*
%TO.C,D6*%
X52562500Y-15000000D03*
X54437500Y-15000000D03*
%TD*%
D23*
%TO.C,D9*%
X49500000Y-25000000D03*
X53500000Y-25000000D03*
%TD*%
D24*
%TO.C,R4*%
X43000000Y-27587500D03*
X43000000Y-29412500D03*
%TD*%
D25*
%TO.C,R11*%
X49087500Y-41300000D03*
X50912500Y-41300000D03*
%TD*%
%TO.C,R7*%
X48587500Y-18000000D03*
X50412500Y-18000000D03*
%TD*%
%TO.C,R13*%
X53087500Y-41300000D03*
X54912500Y-41300000D03*
%TD*%
D26*
%TO.C,U2*%
X6525000Y-45945000D03*
X6525000Y-44675000D03*
X6525000Y-43405000D03*
X6525000Y-42135000D03*
X6525000Y-40865000D03*
X6525000Y-39595000D03*
X6525000Y-38325000D03*
X6525000Y-37055000D03*
X11475000Y-37055000D03*
X11475000Y-38325000D03*
X11475000Y-39595000D03*
X11475000Y-40865000D03*
X11475000Y-42135000D03*
X11475000Y-43405000D03*
X11475000Y-44675000D03*
X11475000Y-45945000D03*
%TD*%
D22*
%TO.C,D8*%
X52562500Y-21000000D03*
X54437500Y-21000000D03*
%TD*%
D24*
%TO.C,R2*%
X6300000Y-18587500D03*
X6300000Y-20412500D03*
%TD*%
D27*
%TO.C,U4*%
X39795000Y-17525000D03*
X41065000Y-17525000D03*
X42335000Y-17525000D03*
X43605000Y-17525000D03*
X43605000Y-22475000D03*
X42335000Y-22475000D03*
X41065000Y-22475000D03*
X39795000Y-22475000D03*
%TD*%
D28*
%TO.C,JP1*%
X14150000Y-46000000D03*
D29*
X15450000Y-46000000D03*
%TD*%
D23*
%TO.C,D11*%
X49500000Y-35000000D03*
X53500000Y-35000000D03*
%TD*%
D25*
%TO.C,R5*%
X48587500Y-12000000D03*
X50412500Y-12000000D03*
%TD*%
D30*
%TO.C,D1*%
X29000000Y-19350000D03*
X29000000Y-23650000D03*
%TD*%
D22*
%TO.C,D7*%
X52562500Y-18000000D03*
X54437500Y-18000000D03*
%TD*%
D31*
%TO.C,C4*%
X40750000Y-25500000D03*
X42650000Y-25500000D03*
%TD*%
%TO.C,C6*%
X40750000Y-12500000D03*
X42650000Y-12500000D03*
%TD*%
D25*
%TO.C,R8*%
X48587500Y-21000000D03*
X50412500Y-21000000D03*
%TD*%
D24*
%TO.C,R9*%
X40500000Y-31587500D03*
X40500000Y-33412500D03*
%TD*%
D23*
%TO.C,D10*%
X49500000Y-30000000D03*
X53500000Y-30000000D03*
%TD*%
D25*
%TO.C,R12*%
X53087500Y-39000000D03*
X54912500Y-39000000D03*
%TD*%
D32*
%TO.C,Q1*%
X26720000Y-7960000D03*
D33*
X29000000Y-14260000D03*
D32*
X31280000Y-7960000D03*
%TD*%
D34*
%TO.C,U5*%
X6250000Y-23000000D03*
X8350000Y-23000000D03*
%TD*%
D35*
%TO.C,C2*%
X29000000Y-39050000D03*
X29000000Y-40950000D03*
%TD*%
D22*
%TO.C,D5*%
X52562500Y-12000000D03*
X54437500Y-12000000D03*
%TD*%
D36*
%TO.C,C1*%
X29000000Y-28300000D03*
X29000000Y-35700000D03*
%TD*%
D31*
%TO.C,C5*%
X40750000Y-10000000D03*
X42650000Y-10000000D03*
%TD*%
D25*
%TO.C,R1*%
X25087500Y-41200000D03*
X26912500Y-41200000D03*
%TD*%
D35*
%TO.C,C3*%
X10600000Y-21550000D03*
X10600000Y-23450000D03*
%TD*%
D37*
%TO.C,JP2*%
X43000000Y-32350000D03*
D38*
X43000000Y-33650000D03*
%TD*%
D25*
%TO.C,R6*%
X48587500Y-15000000D03*
X50412500Y-15000000D03*
%TD*%
%TO.C,R10*%
X49087500Y-39000000D03*
X50912500Y-39000000D03*
%TD*%
D24*
%TO.C,R3*%
X40500000Y-27587500D03*
X40500000Y-29412500D03*
%TD*%
M02*
