%TF.GenerationSoftware,KiCad,Pcbnew,10.0.5*%
%TF.CreationDate,2026-07-27T20:12:19-04:00*%
%TF.ProjectId,exopet-hat,65786f70-6574-42d6-9861-742e6b696361,rev?*%
%TF.SameCoordinates,Original*%
%TF.FileFunction,Soldermask,Top*%
%TF.FilePolarity,Negative*%
%FSLAX46Y46*%
G04 Gerber Fmt 4.6, Leading zero omitted, Abs format (unit mm)*
G04 Created by KiCad (PCBNEW 10.0.5) date 2026-07-27 20:12:19*
%MOMM*%
%LPD*%
G01*
G04 APERTURE LIST*
G04 Aperture macros list*
%AMRoundRect*
0 Rectangle with rounded corners*
0 $1 Rounding radius*
0 $2 $3 $4 $5 $6 $7 $8 $9 X,Y pos of 4 corners*
0 Add a 4 corners polygon primitive as box body*
4,1,4,$2,$3,$4,$5,$6,$7,$8,$9,$2,$3,0*
0 Add four circle primitives for the rounded corners*
1,1,$1+$1,$2,$3*
1,1,$1+$1,$4,$5*
1,1,$1+$1,$6,$7*
1,1,$1+$1,$8,$9*
0 Add four rect primitives between the rounded corners*
20,1,$1+$1,$2,$3,$4,$5,0*
20,1,$1+$1,$4,$5,$6,$7,0*
20,1,$1+$1,$6,$7,$8,$9,0*
20,1,$1+$1,$8,$9,$2,$3,0*%
G04 Aperture macros list end*
%ADD10R,1.700000X1.700000*%
%ADD11C,1.700000*%
%ADD12C,1.710000*%
%ADD13R,2.500000X2.500000*%
%ADD14O,2.500000X2.500000*%
%ADD15C,2.010000*%
%ADD16C,4.700000*%
%ADD17RoundRect,0.250001X0.949999X-0.949999X0.949999X0.949999X-0.949999X0.949999X-0.949999X-0.949999X0*%
%ADD18C,2.400000*%
%ADD19R,2.600000X2.600000*%
%ADD20C,2.600000*%
%ADD21RoundRect,0.250001X-0.949999X-0.949999X0.949999X-0.949999X0.949999X0.949999X-0.949999X0.949999X0*%
G04 APERTURE END LIST*
D10*
%TO.C,PSU1*%
X26000000Y-43800000D03*
D11*
X23460000Y-43800000D03*
X20920000Y-43800000D03*
X18380000Y-43800000D03*
X15840000Y-43800000D03*
%TD*%
D12*
%TO.C,F3*%
X42000000Y-43400000D03*
X47100000Y-44600000D03*
%TD*%
D13*
%TO.C,K1*%
X37200000Y-16200000D03*
D14*
X35200000Y-10200000D03*
X23000000Y-10200000D03*
X23000000Y-22200000D03*
X35200000Y-22200000D03*
%TD*%
D15*
%TO.C,F1*%
X14500000Y-29500000D03*
X13300000Y-34600000D03*
%TD*%
D13*
%TO.C,K2*%
X60400000Y-16200000D03*
D14*
X58400000Y-10200000D03*
X46200000Y-10200000D03*
X46200000Y-22200000D03*
X58400000Y-22200000D03*
%TD*%
D16*
%TO.C,H4*%
X61500000Y-52500000D03*
%TD*%
D17*
%TO.C,J13*%
X4000000Y-26300000D03*
D18*
X4000000Y-22800000D03*
%TD*%
D16*
%TO.C,H2*%
X61500000Y-3500000D03*
%TD*%
%TO.C,H1*%
X3500000Y-3500000D03*
%TD*%
D19*
%TO.C,J1*%
X14600000Y-14000000D03*
D20*
X8600000Y-14000000D03*
X11600000Y-18700000D03*
%TD*%
D12*
%TO.C,F4*%
X52500000Y-43400000D03*
X57600000Y-44600000D03*
%TD*%
D17*
%TO.C,J14*%
X4000000Y-34600000D03*
D18*
X4000000Y-31100000D03*
%TD*%
D10*
%TO.C,J3*%
X8000000Y-3200000D03*
D11*
X8000000Y-5740000D03*
X10540000Y-3200000D03*
X10540000Y-5740000D03*
X13080000Y-3200000D03*
X13080000Y-5740000D03*
X15620000Y-3200000D03*
X15620000Y-5740000D03*
X18160000Y-3200000D03*
X18160000Y-5740000D03*
X20700000Y-3200000D03*
X20700000Y-5740000D03*
X23240000Y-3200000D03*
X23240000Y-5740000D03*
X25780000Y-3200000D03*
X25780000Y-5740000D03*
X28320000Y-3200000D03*
X28320000Y-5740000D03*
X30860000Y-3200000D03*
X30860000Y-5740000D03*
X33400000Y-3200000D03*
X33400000Y-5740000D03*
X35940000Y-3200000D03*
X35940000Y-5740000D03*
X38480000Y-3200000D03*
X38480000Y-5740000D03*
X41020000Y-3200000D03*
X41020000Y-5740000D03*
X43560000Y-3200000D03*
X43560000Y-5740000D03*
X46100000Y-3200000D03*
X46100000Y-5740000D03*
X48640000Y-3200000D03*
X48640000Y-5740000D03*
X51180000Y-3200000D03*
X51180000Y-5740000D03*
X53720000Y-3200000D03*
X53720000Y-5740000D03*
X56260000Y-3200000D03*
X56260000Y-5740000D03*
%TD*%
D13*
%TO.C,K3*%
X37200000Y-33300000D03*
D14*
X35200000Y-27300000D03*
X23000000Y-27300000D03*
X23000000Y-39300000D03*
X35200000Y-39300000D03*
%TD*%
D21*
%TO.C,J9*%
X24500000Y-52000000D03*
D18*
X28000000Y-52000000D03*
%TD*%
D12*
%TO.C,F2*%
X31500000Y-43400000D03*
X36600000Y-44600000D03*
%TD*%
D16*
%TO.C,H3*%
X3500000Y-52500000D03*
%TD*%
D13*
%TO.C,K4*%
X60400000Y-33300000D03*
D14*
X58400000Y-27300000D03*
X46200000Y-27300000D03*
X46200000Y-39300000D03*
X58400000Y-39300000D03*
%TD*%
D21*
%TO.C,J8*%
X12500000Y-52000000D03*
D18*
X16000000Y-52000000D03*
%TD*%
D21*
%TO.C,J11*%
X49500000Y-52000000D03*
D18*
X53000000Y-52000000D03*
X56500000Y-52000000D03*
%TD*%
D21*
%TO.C,J10*%
X36500000Y-52000000D03*
D18*
X40000000Y-52000000D03*
%TD*%
D17*
%TO.C,J4*%
X4000000Y-46500000D03*
D18*
X4000000Y-43000000D03*
X4000000Y-39500000D03*
%TD*%
M02*
