%TF.GenerationSoftware,KiCad,Pcbnew,10.0.5*%
%TF.CreationDate,2026-07-28T01:16:20-04:00*%
%TF.ProjectId,exopet-hat,65786f70-6574-42d6-9861-742e6b696361,rev?*%
%TF.SameCoordinates,Original*%
%TF.FileFunction,Legend,Bot*%
%TF.FilePolarity,Positive*%
%FSLAX46Y46*%
G04 Gerber Fmt 4.6, Leading zero omitted, Abs format (unit mm)*
G04 Created by KiCad (PCBNEW 10.0.5) date 2026-07-28 01:16:20*
%MOMM*%
%LPD*%
G01*
G04 APERTURE LIST*
%ADD10C,0.150000*%
%ADD11C,0.120000*%
G04 APERTURE END LIST*
D10*
X41516666Y-28954819D02*
X41849999Y-28478628D01*
X42088094Y-28954819D02*
X42088094Y-27954819D01*
X42088094Y-27954819D02*
X41707142Y-27954819D01*
X41707142Y-27954819D02*
X41611904Y-28002438D01*
X41611904Y-28002438D02*
X41564285Y-28050057D01*
X41564285Y-28050057D02*
X41516666Y-28145295D01*
X41516666Y-28145295D02*
X41516666Y-28288152D01*
X41516666Y-28288152D02*
X41564285Y-28383390D01*
X41564285Y-28383390D02*
X41611904Y-28431009D01*
X41611904Y-28431009D02*
X41707142Y-28478628D01*
X41707142Y-28478628D02*
X42088094Y-28478628D01*
X40659523Y-28288152D02*
X40659523Y-28954819D01*
X40897618Y-27907200D02*
X41135713Y-28621485D01*
X41135713Y-28621485D02*
X40516666Y-28621485D01*
X49666666Y-23104819D02*
X49999999Y-22628628D01*
X50238094Y-23104819D02*
X50238094Y-22104819D01*
X50238094Y-22104819D02*
X49857142Y-22104819D01*
X49857142Y-22104819D02*
X49761904Y-22152438D01*
X49761904Y-22152438D02*
X49714285Y-22200057D01*
X49714285Y-22200057D02*
X49666666Y-22295295D01*
X49666666Y-22295295D02*
X49666666Y-22438152D01*
X49666666Y-22438152D02*
X49714285Y-22533390D01*
X49714285Y-22533390D02*
X49761904Y-22581009D01*
X49761904Y-22581009D02*
X49857142Y-22628628D01*
X49857142Y-22628628D02*
X50238094Y-22628628D01*
X49095237Y-22533390D02*
X49190475Y-22485771D01*
X49190475Y-22485771D02*
X49238094Y-22438152D01*
X49238094Y-22438152D02*
X49285713Y-22342914D01*
X49285713Y-22342914D02*
X49285713Y-22295295D01*
X49285713Y-22295295D02*
X49238094Y-22200057D01*
X49238094Y-22200057D02*
X49190475Y-22152438D01*
X49190475Y-22152438D02*
X49095237Y-22104819D01*
X49095237Y-22104819D02*
X48904761Y-22104819D01*
X48904761Y-22104819D02*
X48809523Y-22152438D01*
X48809523Y-22152438D02*
X48761904Y-22200057D01*
X48761904Y-22200057D02*
X48714285Y-22295295D01*
X48714285Y-22295295D02*
X48714285Y-22342914D01*
X48714285Y-22342914D02*
X48761904Y-22438152D01*
X48761904Y-22438152D02*
X48809523Y-22485771D01*
X48809523Y-22485771D02*
X48904761Y-22533390D01*
X48904761Y-22533390D02*
X49095237Y-22533390D01*
X49095237Y-22533390D02*
X49190475Y-22581009D01*
X49190475Y-22581009D02*
X49238094Y-22628628D01*
X49238094Y-22628628D02*
X49285713Y-22723866D01*
X49285713Y-22723866D02*
X49285713Y-22914342D01*
X49285713Y-22914342D02*
X49238094Y-23009580D01*
X49238094Y-23009580D02*
X49190475Y-23057200D01*
X49190475Y-23057200D02*
X49095237Y-23104819D01*
X49095237Y-23104819D02*
X48904761Y-23104819D01*
X48904761Y-23104819D02*
X48809523Y-23057200D01*
X48809523Y-23057200D02*
X48761904Y-23009580D01*
X48761904Y-23009580D02*
X48714285Y-22914342D01*
X48714285Y-22914342D02*
X48714285Y-22723866D01*
X48714285Y-22723866D02*
X48761904Y-22628628D01*
X48761904Y-22628628D02*
X48809523Y-22581009D01*
X48809523Y-22581009D02*
X48904761Y-22533390D01*
X39061904Y-19454819D02*
X39061904Y-20264342D01*
X39061904Y-20264342D02*
X39014285Y-20359580D01*
X39014285Y-20359580D02*
X38966666Y-20407200D01*
X38966666Y-20407200D02*
X38871428Y-20454819D01*
X38871428Y-20454819D02*
X38680952Y-20454819D01*
X38680952Y-20454819D02*
X38585714Y-20407200D01*
X38585714Y-20407200D02*
X38538095Y-20359580D01*
X38538095Y-20359580D02*
X38490476Y-20264342D01*
X38490476Y-20264342D02*
X38490476Y-19454819D01*
X37585714Y-19788152D02*
X37585714Y-20454819D01*
X37823809Y-19407200D02*
X38061904Y-20121485D01*
X38061904Y-20121485D02*
X37442857Y-20121485D01*
X42033333Y-32454819D02*
X42033333Y-33169104D01*
X42033333Y-33169104D02*
X42080952Y-33311961D01*
X42080952Y-33311961D02*
X42176190Y-33407200D01*
X42176190Y-33407200D02*
X42319047Y-33454819D01*
X42319047Y-33454819D02*
X42414285Y-33454819D01*
X41557142Y-33454819D02*
X41557142Y-32454819D01*
X41557142Y-32454819D02*
X41176190Y-32454819D01*
X41176190Y-32454819D02*
X41080952Y-32502438D01*
X41080952Y-32502438D02*
X41033333Y-32550057D01*
X41033333Y-32550057D02*
X40985714Y-32645295D01*
X40985714Y-32645295D02*
X40985714Y-32788152D01*
X40985714Y-32788152D02*
X41033333Y-32883390D01*
X41033333Y-32883390D02*
X41080952Y-32931009D01*
X41080952Y-32931009D02*
X41176190Y-32978628D01*
X41176190Y-32978628D02*
X41557142Y-32978628D01*
X40604761Y-32550057D02*
X40557142Y-32502438D01*
X40557142Y-32502438D02*
X40461904Y-32454819D01*
X40461904Y-32454819D02*
X40223809Y-32454819D01*
X40223809Y-32454819D02*
X40128571Y-32502438D01*
X40128571Y-32502438D02*
X40080952Y-32550057D01*
X40080952Y-32550057D02*
X40033333Y-32645295D01*
X40033333Y-32645295D02*
X40033333Y-32740533D01*
X40033333Y-32740533D02*
X40080952Y-32883390D01*
X40080952Y-32883390D02*
X40652380Y-33454819D01*
X40652380Y-33454819D02*
X40033333Y-33454819D01*
X50642857Y-41104819D02*
X50976190Y-40628628D01*
X51214285Y-41104819D02*
X51214285Y-40104819D01*
X51214285Y-40104819D02*
X50833333Y-40104819D01*
X50833333Y-40104819D02*
X50738095Y-40152438D01*
X50738095Y-40152438D02*
X50690476Y-40200057D01*
X50690476Y-40200057D02*
X50642857Y-40295295D01*
X50642857Y-40295295D02*
X50642857Y-40438152D01*
X50642857Y-40438152D02*
X50690476Y-40533390D01*
X50690476Y-40533390D02*
X50738095Y-40581009D01*
X50738095Y-40581009D02*
X50833333Y-40628628D01*
X50833333Y-40628628D02*
X51214285Y-40628628D01*
X49690476Y-41104819D02*
X50261904Y-41104819D01*
X49976190Y-41104819D02*
X49976190Y-40104819D01*
X49976190Y-40104819D02*
X50071428Y-40247676D01*
X50071428Y-40247676D02*
X50166666Y-40342914D01*
X50166666Y-40342914D02*
X50261904Y-40390533D01*
X49071428Y-40104819D02*
X48976190Y-40104819D01*
X48976190Y-40104819D02*
X48880952Y-40152438D01*
X48880952Y-40152438D02*
X48833333Y-40200057D01*
X48833333Y-40200057D02*
X48785714Y-40295295D01*
X48785714Y-40295295D02*
X48738095Y-40485771D01*
X48738095Y-40485771D02*
X48738095Y-40723866D01*
X48738095Y-40723866D02*
X48785714Y-40914342D01*
X48785714Y-40914342D02*
X48833333Y-41009580D01*
X48833333Y-41009580D02*
X48880952Y-41057200D01*
X48880952Y-41057200D02*
X48976190Y-41104819D01*
X48976190Y-41104819D02*
X49071428Y-41104819D01*
X49071428Y-41104819D02*
X49166666Y-41057200D01*
X49166666Y-41057200D02*
X49214285Y-41009580D01*
X49214285Y-41009580D02*
X49261904Y-40914342D01*
X49261904Y-40914342D02*
X49309523Y-40723866D01*
X49309523Y-40723866D02*
X49309523Y-40485771D01*
X49309523Y-40485771D02*
X49261904Y-40295295D01*
X49261904Y-40295295D02*
X49214285Y-40200057D01*
X49214285Y-40200057D02*
X49166666Y-40152438D01*
X49166666Y-40152438D02*
X49071428Y-40104819D01*
X8061904Y-24304819D02*
X8061904Y-25114342D01*
X8061904Y-25114342D02*
X8014285Y-25209580D01*
X8014285Y-25209580D02*
X7966666Y-25257200D01*
X7966666Y-25257200D02*
X7871428Y-25304819D01*
X7871428Y-25304819D02*
X7680952Y-25304819D01*
X7680952Y-25304819D02*
X7585714Y-25257200D01*
X7585714Y-25257200D02*
X7538095Y-25209580D01*
X7538095Y-25209580D02*
X7490476Y-25114342D01*
X7490476Y-25114342D02*
X7490476Y-24304819D01*
X6538095Y-24304819D02*
X7014285Y-24304819D01*
X7014285Y-24304819D02*
X7061904Y-24781009D01*
X7061904Y-24781009D02*
X7014285Y-24733390D01*
X7014285Y-24733390D02*
X6919047Y-24685771D01*
X6919047Y-24685771D02*
X6680952Y-24685771D01*
X6680952Y-24685771D02*
X6585714Y-24733390D01*
X6585714Y-24733390D02*
X6538095Y-24781009D01*
X6538095Y-24781009D02*
X6490476Y-24876247D01*
X6490476Y-24876247D02*
X6490476Y-25114342D01*
X6490476Y-25114342D02*
X6538095Y-25209580D01*
X6538095Y-25209580D02*
X6585714Y-25257200D01*
X6585714Y-25257200D02*
X6680952Y-25304819D01*
X6680952Y-25304819D02*
X6919047Y-25304819D01*
X6919047Y-25304819D02*
X7014285Y-25257200D01*
X7014285Y-25257200D02*
X7061904Y-25209580D01*
X54238094Y-14104819D02*
X54238094Y-13104819D01*
X54238094Y-13104819D02*
X53999999Y-13104819D01*
X53999999Y-13104819D02*
X53857142Y-13152438D01*
X53857142Y-13152438D02*
X53761904Y-13247676D01*
X53761904Y-13247676D02*
X53714285Y-13342914D01*
X53714285Y-13342914D02*
X53666666Y-13533390D01*
X53666666Y-13533390D02*
X53666666Y-13676247D01*
X53666666Y-13676247D02*
X53714285Y-13866723D01*
X53714285Y-13866723D02*
X53761904Y-13961961D01*
X53761904Y-13961961D02*
X53857142Y-14057200D01*
X53857142Y-14057200D02*
X53999999Y-14104819D01*
X53999999Y-14104819D02*
X54238094Y-14104819D01*
X52761904Y-13104819D02*
X53238094Y-13104819D01*
X53238094Y-13104819D02*
X53285713Y-13581009D01*
X53285713Y-13581009D02*
X53238094Y-13533390D01*
X53238094Y-13533390D02*
X53142856Y-13485771D01*
X53142856Y-13485771D02*
X52904761Y-13485771D01*
X52904761Y-13485771D02*
X52809523Y-13533390D01*
X52809523Y-13533390D02*
X52761904Y-13581009D01*
X52761904Y-13581009D02*
X52714285Y-13676247D01*
X52714285Y-13676247D02*
X52714285Y-13914342D01*
X52714285Y-13914342D02*
X52761904Y-14009580D01*
X52761904Y-14009580D02*
X52809523Y-14057200D01*
X52809523Y-14057200D02*
X52904761Y-14104819D01*
X52904761Y-14104819D02*
X53142856Y-14104819D01*
X53142856Y-14104819D02*
X53238094Y-14057200D01*
X53238094Y-14057200D02*
X53285713Y-14009580D01*
X54642857Y-41104819D02*
X54976190Y-40628628D01*
X55214285Y-41104819D02*
X55214285Y-40104819D01*
X55214285Y-40104819D02*
X54833333Y-40104819D01*
X54833333Y-40104819D02*
X54738095Y-40152438D01*
X54738095Y-40152438D02*
X54690476Y-40200057D01*
X54690476Y-40200057D02*
X54642857Y-40295295D01*
X54642857Y-40295295D02*
X54642857Y-40438152D01*
X54642857Y-40438152D02*
X54690476Y-40533390D01*
X54690476Y-40533390D02*
X54738095Y-40581009D01*
X54738095Y-40581009D02*
X54833333Y-40628628D01*
X54833333Y-40628628D02*
X55214285Y-40628628D01*
X53690476Y-41104819D02*
X54261904Y-41104819D01*
X53976190Y-41104819D02*
X53976190Y-40104819D01*
X53976190Y-40104819D02*
X54071428Y-40247676D01*
X54071428Y-40247676D02*
X54166666Y-40342914D01*
X54166666Y-40342914D02*
X54261904Y-40390533D01*
X53309523Y-40200057D02*
X53261904Y-40152438D01*
X53261904Y-40152438D02*
X53166666Y-40104819D01*
X53166666Y-40104819D02*
X52928571Y-40104819D01*
X52928571Y-40104819D02*
X52833333Y-40152438D01*
X52833333Y-40152438D02*
X52785714Y-40200057D01*
X52785714Y-40200057D02*
X52738095Y-40295295D01*
X52738095Y-40295295D02*
X52738095Y-40390533D01*
X52738095Y-40390533D02*
X52785714Y-40533390D01*
X52785714Y-40533390D02*
X53357142Y-41104819D01*
X53357142Y-41104819D02*
X52738095Y-41104819D01*
X52714285Y-32954819D02*
X52714285Y-31954819D01*
X52714285Y-31954819D02*
X52476190Y-31954819D01*
X52476190Y-31954819D02*
X52333333Y-32002438D01*
X52333333Y-32002438D02*
X52238095Y-32097676D01*
X52238095Y-32097676D02*
X52190476Y-32192914D01*
X52190476Y-32192914D02*
X52142857Y-32383390D01*
X52142857Y-32383390D02*
X52142857Y-32526247D01*
X52142857Y-32526247D02*
X52190476Y-32716723D01*
X52190476Y-32716723D02*
X52238095Y-32811961D01*
X52238095Y-32811961D02*
X52333333Y-32907200D01*
X52333333Y-32907200D02*
X52476190Y-32954819D01*
X52476190Y-32954819D02*
X52714285Y-32954819D01*
X51190476Y-32954819D02*
X51761904Y-32954819D01*
X51476190Y-32954819D02*
X51476190Y-31954819D01*
X51476190Y-31954819D02*
X51571428Y-32097676D01*
X51571428Y-32097676D02*
X51666666Y-32192914D01*
X51666666Y-32192914D02*
X51761904Y-32240533D01*
X50571428Y-31954819D02*
X50476190Y-31954819D01*
X50476190Y-31954819D02*
X50380952Y-32002438D01*
X50380952Y-32002438D02*
X50333333Y-32050057D01*
X50333333Y-32050057D02*
X50285714Y-32145295D01*
X50285714Y-32145295D02*
X50238095Y-32335771D01*
X50238095Y-32335771D02*
X50238095Y-32573866D01*
X50238095Y-32573866D02*
X50285714Y-32764342D01*
X50285714Y-32764342D02*
X50333333Y-32859580D01*
X50333333Y-32859580D02*
X50380952Y-32907200D01*
X50380952Y-32907200D02*
X50476190Y-32954819D01*
X50476190Y-32954819D02*
X50571428Y-32954819D01*
X50571428Y-32954819D02*
X50666666Y-32907200D01*
X50666666Y-32907200D02*
X50714285Y-32859580D01*
X50714285Y-32859580D02*
X50761904Y-32764342D01*
X50761904Y-32764342D02*
X50809523Y-32573866D01*
X50809523Y-32573866D02*
X50809523Y-32335771D01*
X50809523Y-32335771D02*
X50761904Y-32145295D01*
X50761904Y-32145295D02*
X50714285Y-32050057D01*
X50714285Y-32050057D02*
X50666666Y-32002438D01*
X50666666Y-32002438D02*
X50571428Y-31954819D01*
X26738094Y-21954819D02*
X26738094Y-20954819D01*
X26738094Y-20954819D02*
X26499999Y-20954819D01*
X26499999Y-20954819D02*
X26357142Y-21002438D01*
X26357142Y-21002438D02*
X26261904Y-21097676D01*
X26261904Y-21097676D02*
X26214285Y-21192914D01*
X26214285Y-21192914D02*
X26166666Y-21383390D01*
X26166666Y-21383390D02*
X26166666Y-21526247D01*
X26166666Y-21526247D02*
X26214285Y-21716723D01*
X26214285Y-21716723D02*
X26261904Y-21811961D01*
X26261904Y-21811961D02*
X26357142Y-21907200D01*
X26357142Y-21907200D02*
X26499999Y-21954819D01*
X26499999Y-21954819D02*
X26738094Y-21954819D01*
X25214285Y-21954819D02*
X25785713Y-21954819D01*
X25499999Y-21954819D02*
X25499999Y-20954819D01*
X25499999Y-20954819D02*
X25595237Y-21097676D01*
X25595237Y-21097676D02*
X25690475Y-21192914D01*
X25690475Y-21192914D02*
X25785713Y-21240533D01*
X41866666Y-12039580D02*
X41914285Y-12087200D01*
X41914285Y-12087200D02*
X42057142Y-12134819D01*
X42057142Y-12134819D02*
X42152380Y-12134819D01*
X42152380Y-12134819D02*
X42295237Y-12087200D01*
X42295237Y-12087200D02*
X42390475Y-11991961D01*
X42390475Y-11991961D02*
X42438094Y-11896723D01*
X42438094Y-11896723D02*
X42485713Y-11706247D01*
X42485713Y-11706247D02*
X42485713Y-11563390D01*
X42485713Y-11563390D02*
X42438094Y-11372914D01*
X42438094Y-11372914D02*
X42390475Y-11277676D01*
X42390475Y-11277676D02*
X42295237Y-11182438D01*
X42295237Y-11182438D02*
X42152380Y-11134819D01*
X42152380Y-11134819D02*
X42057142Y-11134819D01*
X42057142Y-11134819D02*
X41914285Y-11182438D01*
X41914285Y-11182438D02*
X41866666Y-11230057D01*
X40961904Y-11134819D02*
X41438094Y-11134819D01*
X41438094Y-11134819D02*
X41485713Y-11611009D01*
X41485713Y-11611009D02*
X41438094Y-11563390D01*
X41438094Y-11563390D02*
X41342856Y-11515771D01*
X41342856Y-11515771D02*
X41104761Y-11515771D01*
X41104761Y-11515771D02*
X41009523Y-11563390D01*
X41009523Y-11563390D02*
X40961904Y-11611009D01*
X40961904Y-11611009D02*
X40914285Y-11706247D01*
X40914285Y-11706247D02*
X40914285Y-11944342D01*
X40914285Y-11944342D02*
X40961904Y-12039580D01*
X40961904Y-12039580D02*
X41009523Y-12087200D01*
X41009523Y-12087200D02*
X41104761Y-12134819D01*
X41104761Y-12134819D02*
X41342856Y-12134819D01*
X41342856Y-12134819D02*
X41438094Y-12087200D01*
X41438094Y-12087200D02*
X41485713Y-12039580D01*
X54238094Y-20104819D02*
X54238094Y-19104819D01*
X54238094Y-19104819D02*
X53999999Y-19104819D01*
X53999999Y-19104819D02*
X53857142Y-19152438D01*
X53857142Y-19152438D02*
X53761904Y-19247676D01*
X53761904Y-19247676D02*
X53714285Y-19342914D01*
X53714285Y-19342914D02*
X53666666Y-19533390D01*
X53666666Y-19533390D02*
X53666666Y-19676247D01*
X53666666Y-19676247D02*
X53714285Y-19866723D01*
X53714285Y-19866723D02*
X53761904Y-19961961D01*
X53761904Y-19961961D02*
X53857142Y-20057200D01*
X53857142Y-20057200D02*
X53999999Y-20104819D01*
X53999999Y-20104819D02*
X54238094Y-20104819D01*
X53333332Y-19104819D02*
X52666666Y-19104819D01*
X52666666Y-19104819D02*
X53095237Y-20104819D01*
X54238094Y-23104819D02*
X54238094Y-22104819D01*
X54238094Y-22104819D02*
X53999999Y-22104819D01*
X53999999Y-22104819D02*
X53857142Y-22152438D01*
X53857142Y-22152438D02*
X53761904Y-22247676D01*
X53761904Y-22247676D02*
X53714285Y-22342914D01*
X53714285Y-22342914D02*
X53666666Y-22533390D01*
X53666666Y-22533390D02*
X53666666Y-22676247D01*
X53666666Y-22676247D02*
X53714285Y-22866723D01*
X53714285Y-22866723D02*
X53761904Y-22961961D01*
X53761904Y-22961961D02*
X53857142Y-23057200D01*
X53857142Y-23057200D02*
X53999999Y-23104819D01*
X53999999Y-23104819D02*
X54238094Y-23104819D01*
X53095237Y-22533390D02*
X53190475Y-22485771D01*
X53190475Y-22485771D02*
X53238094Y-22438152D01*
X53238094Y-22438152D02*
X53285713Y-22342914D01*
X53285713Y-22342914D02*
X53285713Y-22295295D01*
X53285713Y-22295295D02*
X53238094Y-22200057D01*
X53238094Y-22200057D02*
X53190475Y-22152438D01*
X53190475Y-22152438D02*
X53095237Y-22104819D01*
X53095237Y-22104819D02*
X52904761Y-22104819D01*
X52904761Y-22104819D02*
X52809523Y-22152438D01*
X52809523Y-22152438D02*
X52761904Y-22200057D01*
X52761904Y-22200057D02*
X52714285Y-22295295D01*
X52714285Y-22295295D02*
X52714285Y-22342914D01*
X52714285Y-22342914D02*
X52761904Y-22438152D01*
X52761904Y-22438152D02*
X52809523Y-22485771D01*
X52809523Y-22485771D02*
X52904761Y-22533390D01*
X52904761Y-22533390D02*
X53095237Y-22533390D01*
X53095237Y-22533390D02*
X53190475Y-22581009D01*
X53190475Y-22581009D02*
X53238094Y-22628628D01*
X53238094Y-22628628D02*
X53285713Y-22723866D01*
X53285713Y-22723866D02*
X53285713Y-22914342D01*
X53285713Y-22914342D02*
X53238094Y-23009580D01*
X53238094Y-23009580D02*
X53190475Y-23057200D01*
X53190475Y-23057200D02*
X53095237Y-23104819D01*
X53095237Y-23104819D02*
X52904761Y-23104819D01*
X52904761Y-23104819D02*
X52809523Y-23057200D01*
X52809523Y-23057200D02*
X52761904Y-23009580D01*
X52761904Y-23009580D02*
X52714285Y-22914342D01*
X52714285Y-22914342D02*
X52714285Y-22723866D01*
X52714285Y-22723866D02*
X52761904Y-22628628D01*
X52761904Y-22628628D02*
X52809523Y-22581009D01*
X52809523Y-22581009D02*
X52904761Y-22533390D01*
X9761904Y-46854819D02*
X9761904Y-47664342D01*
X9761904Y-47664342D02*
X9714285Y-47759580D01*
X9714285Y-47759580D02*
X9666666Y-47807200D01*
X9666666Y-47807200D02*
X9571428Y-47854819D01*
X9571428Y-47854819D02*
X9380952Y-47854819D01*
X9380952Y-47854819D02*
X9285714Y-47807200D01*
X9285714Y-47807200D02*
X9238095Y-47759580D01*
X9238095Y-47759580D02*
X9190476Y-47664342D01*
X9190476Y-47664342D02*
X9190476Y-46854819D01*
X8761904Y-46950057D02*
X8714285Y-46902438D01*
X8714285Y-46902438D02*
X8619047Y-46854819D01*
X8619047Y-46854819D02*
X8380952Y-46854819D01*
X8380952Y-46854819D02*
X8285714Y-46902438D01*
X8285714Y-46902438D02*
X8238095Y-46950057D01*
X8238095Y-46950057D02*
X8190476Y-47045295D01*
X8190476Y-47045295D02*
X8190476Y-47140533D01*
X8190476Y-47140533D02*
X8238095Y-47283390D01*
X8238095Y-47283390D02*
X8809523Y-47854819D01*
X8809523Y-47854819D02*
X8190476Y-47854819D01*
X52714285Y-37954819D02*
X52714285Y-36954819D01*
X52714285Y-36954819D02*
X52476190Y-36954819D01*
X52476190Y-36954819D02*
X52333333Y-37002438D01*
X52333333Y-37002438D02*
X52238095Y-37097676D01*
X52238095Y-37097676D02*
X52190476Y-37192914D01*
X52190476Y-37192914D02*
X52142857Y-37383390D01*
X52142857Y-37383390D02*
X52142857Y-37526247D01*
X52142857Y-37526247D02*
X52190476Y-37716723D01*
X52190476Y-37716723D02*
X52238095Y-37811961D01*
X52238095Y-37811961D02*
X52333333Y-37907200D01*
X52333333Y-37907200D02*
X52476190Y-37954819D01*
X52476190Y-37954819D02*
X52714285Y-37954819D01*
X51190476Y-37954819D02*
X51761904Y-37954819D01*
X51476190Y-37954819D02*
X51476190Y-36954819D01*
X51476190Y-36954819D02*
X51571428Y-37097676D01*
X51571428Y-37097676D02*
X51666666Y-37192914D01*
X51666666Y-37192914D02*
X51761904Y-37240533D01*
X50238095Y-37954819D02*
X50809523Y-37954819D01*
X50523809Y-37954819D02*
X50523809Y-36954819D01*
X50523809Y-36954819D02*
X50619047Y-37097676D01*
X50619047Y-37097676D02*
X50714285Y-37192914D01*
X50714285Y-37192914D02*
X50809523Y-37240533D01*
X54642857Y-43404819D02*
X54976190Y-42928628D01*
X55214285Y-43404819D02*
X55214285Y-42404819D01*
X55214285Y-42404819D02*
X54833333Y-42404819D01*
X54833333Y-42404819D02*
X54738095Y-42452438D01*
X54738095Y-42452438D02*
X54690476Y-42500057D01*
X54690476Y-42500057D02*
X54642857Y-42595295D01*
X54642857Y-42595295D02*
X54642857Y-42738152D01*
X54642857Y-42738152D02*
X54690476Y-42833390D01*
X54690476Y-42833390D02*
X54738095Y-42881009D01*
X54738095Y-42881009D02*
X54833333Y-42928628D01*
X54833333Y-42928628D02*
X55214285Y-42928628D01*
X53690476Y-43404819D02*
X54261904Y-43404819D01*
X53976190Y-43404819D02*
X53976190Y-42404819D01*
X53976190Y-42404819D02*
X54071428Y-42547676D01*
X54071428Y-42547676D02*
X54166666Y-42642914D01*
X54166666Y-42642914D02*
X54261904Y-42690533D01*
X53357142Y-42404819D02*
X52738095Y-42404819D01*
X52738095Y-42404819D02*
X53071428Y-42785771D01*
X53071428Y-42785771D02*
X52928571Y-42785771D01*
X52928571Y-42785771D02*
X52833333Y-42833390D01*
X52833333Y-42833390D02*
X52785714Y-42881009D01*
X52785714Y-42881009D02*
X52738095Y-42976247D01*
X52738095Y-42976247D02*
X52738095Y-43214342D01*
X52738095Y-43214342D02*
X52785714Y-43309580D01*
X52785714Y-43309580D02*
X52833333Y-43357200D01*
X52833333Y-43357200D02*
X52928571Y-43404819D01*
X52928571Y-43404819D02*
X53214285Y-43404819D01*
X53214285Y-43404819D02*
X53309523Y-43357200D01*
X53309523Y-43357200D02*
X53357142Y-43309580D01*
X41866666Y-14539580D02*
X41914285Y-14587200D01*
X41914285Y-14587200D02*
X42057142Y-14634819D01*
X42057142Y-14634819D02*
X42152380Y-14634819D01*
X42152380Y-14634819D02*
X42295237Y-14587200D01*
X42295237Y-14587200D02*
X42390475Y-14491961D01*
X42390475Y-14491961D02*
X42438094Y-14396723D01*
X42438094Y-14396723D02*
X42485713Y-14206247D01*
X42485713Y-14206247D02*
X42485713Y-14063390D01*
X42485713Y-14063390D02*
X42438094Y-13872914D01*
X42438094Y-13872914D02*
X42390475Y-13777676D01*
X42390475Y-13777676D02*
X42295237Y-13682438D01*
X42295237Y-13682438D02*
X42152380Y-13634819D01*
X42152380Y-13634819D02*
X42057142Y-13634819D01*
X42057142Y-13634819D02*
X41914285Y-13682438D01*
X41914285Y-13682438D02*
X41866666Y-13730057D01*
X41009523Y-13634819D02*
X41199999Y-13634819D01*
X41199999Y-13634819D02*
X41295237Y-13682438D01*
X41295237Y-13682438D02*
X41342856Y-13730057D01*
X41342856Y-13730057D02*
X41438094Y-13872914D01*
X41438094Y-13872914D02*
X41485713Y-14063390D01*
X41485713Y-14063390D02*
X41485713Y-14444342D01*
X41485713Y-14444342D02*
X41438094Y-14539580D01*
X41438094Y-14539580D02*
X41390475Y-14587200D01*
X41390475Y-14587200D02*
X41295237Y-14634819D01*
X41295237Y-14634819D02*
X41104761Y-14634819D01*
X41104761Y-14634819D02*
X41009523Y-14587200D01*
X41009523Y-14587200D02*
X40961904Y-14539580D01*
X40961904Y-14539580D02*
X40914285Y-14444342D01*
X40914285Y-14444342D02*
X40914285Y-14206247D01*
X40914285Y-14206247D02*
X40961904Y-14111009D01*
X40961904Y-14111009D02*
X41009523Y-14063390D01*
X41009523Y-14063390D02*
X41104761Y-14015771D01*
X41104761Y-14015771D02*
X41295237Y-14015771D01*
X41295237Y-14015771D02*
X41390475Y-14063390D01*
X41390475Y-14063390D02*
X41438094Y-14111009D01*
X41438094Y-14111009D02*
X41485713Y-14206247D01*
X27486666Y-40359580D02*
X27534285Y-40407200D01*
X27534285Y-40407200D02*
X27677142Y-40454819D01*
X27677142Y-40454819D02*
X27772380Y-40454819D01*
X27772380Y-40454819D02*
X27915237Y-40407200D01*
X27915237Y-40407200D02*
X28010475Y-40311961D01*
X28010475Y-40311961D02*
X28058094Y-40216723D01*
X28058094Y-40216723D02*
X28105713Y-40026247D01*
X28105713Y-40026247D02*
X28105713Y-39883390D01*
X28105713Y-39883390D02*
X28058094Y-39692914D01*
X28058094Y-39692914D02*
X28010475Y-39597676D01*
X28010475Y-39597676D02*
X27915237Y-39502438D01*
X27915237Y-39502438D02*
X27772380Y-39454819D01*
X27772380Y-39454819D02*
X27677142Y-39454819D01*
X27677142Y-39454819D02*
X27534285Y-39502438D01*
X27534285Y-39502438D02*
X27486666Y-39550057D01*
X27105713Y-39550057D02*
X27058094Y-39502438D01*
X27058094Y-39502438D02*
X26962856Y-39454819D01*
X26962856Y-39454819D02*
X26724761Y-39454819D01*
X26724761Y-39454819D02*
X26629523Y-39502438D01*
X26629523Y-39502438D02*
X26581904Y-39550057D01*
X26581904Y-39550057D02*
X26534285Y-39645295D01*
X26534285Y-39645295D02*
X26534285Y-39740533D01*
X26534285Y-39740533D02*
X26581904Y-39883390D01*
X26581904Y-39883390D02*
X27153332Y-40454819D01*
X27153332Y-40454819D02*
X26534285Y-40454819D01*
X5054819Y-3166666D02*
X5769104Y-3166666D01*
X5769104Y-3166666D02*
X5911961Y-3119047D01*
X5911961Y-3119047D02*
X6007200Y-3023809D01*
X6007200Y-3023809D02*
X6054819Y-2880952D01*
X6054819Y-2880952D02*
X6054819Y-2785714D01*
X5054819Y-3547619D02*
X5054819Y-4166666D01*
X5054819Y-4166666D02*
X5435771Y-3833333D01*
X5435771Y-3833333D02*
X5435771Y-3976190D01*
X5435771Y-3976190D02*
X5483390Y-4071428D01*
X5483390Y-4071428D02*
X5531009Y-4119047D01*
X5531009Y-4119047D02*
X5626247Y-4166666D01*
X5626247Y-4166666D02*
X5864342Y-4166666D01*
X5864342Y-4166666D02*
X5959580Y-4119047D01*
X5959580Y-4119047D02*
X6007200Y-4071428D01*
X6007200Y-4071428D02*
X6054819Y-3976190D01*
X6054819Y-3976190D02*
X6054819Y-3690476D01*
X6054819Y-3690476D02*
X6007200Y-3595238D01*
X6007200Y-3595238D02*
X5959580Y-3547619D01*
X24816666Y-32359580D02*
X24864285Y-32407200D01*
X24864285Y-32407200D02*
X25007142Y-32454819D01*
X25007142Y-32454819D02*
X25102380Y-32454819D01*
X25102380Y-32454819D02*
X25245237Y-32407200D01*
X25245237Y-32407200D02*
X25340475Y-32311961D01*
X25340475Y-32311961D02*
X25388094Y-32216723D01*
X25388094Y-32216723D02*
X25435713Y-32026247D01*
X25435713Y-32026247D02*
X25435713Y-31883390D01*
X25435713Y-31883390D02*
X25388094Y-31692914D01*
X25388094Y-31692914D02*
X25340475Y-31597676D01*
X25340475Y-31597676D02*
X25245237Y-31502438D01*
X25245237Y-31502438D02*
X25102380Y-31454819D01*
X25102380Y-31454819D02*
X25007142Y-31454819D01*
X25007142Y-31454819D02*
X24864285Y-31502438D01*
X24864285Y-31502438D02*
X24816666Y-31550057D01*
X23864285Y-32454819D02*
X24435713Y-32454819D01*
X24149999Y-32454819D02*
X24149999Y-31454819D01*
X24149999Y-31454819D02*
X24245237Y-31597676D01*
X24245237Y-31597676D02*
X24340475Y-31692914D01*
X24340475Y-31692914D02*
X24435713Y-31740533D01*
X9086666Y-22859580D02*
X9134285Y-22907200D01*
X9134285Y-22907200D02*
X9277142Y-22954819D01*
X9277142Y-22954819D02*
X9372380Y-22954819D01*
X9372380Y-22954819D02*
X9515237Y-22907200D01*
X9515237Y-22907200D02*
X9610475Y-22811961D01*
X9610475Y-22811961D02*
X9658094Y-22716723D01*
X9658094Y-22716723D02*
X9705713Y-22526247D01*
X9705713Y-22526247D02*
X9705713Y-22383390D01*
X9705713Y-22383390D02*
X9658094Y-22192914D01*
X9658094Y-22192914D02*
X9610475Y-22097676D01*
X9610475Y-22097676D02*
X9515237Y-22002438D01*
X9515237Y-22002438D02*
X9372380Y-21954819D01*
X9372380Y-21954819D02*
X9277142Y-21954819D01*
X9277142Y-21954819D02*
X9134285Y-22002438D01*
X9134285Y-22002438D02*
X9086666Y-22050057D01*
X8753332Y-21954819D02*
X8134285Y-21954819D01*
X8134285Y-21954819D02*
X8467618Y-22335771D01*
X8467618Y-22335771D02*
X8324761Y-22335771D01*
X8324761Y-22335771D02*
X8229523Y-22383390D01*
X8229523Y-22383390D02*
X8181904Y-22431009D01*
X8181904Y-22431009D02*
X8134285Y-22526247D01*
X8134285Y-22526247D02*
X8134285Y-22764342D01*
X8134285Y-22764342D02*
X8181904Y-22859580D01*
X8181904Y-22859580D02*
X8229523Y-22907200D01*
X8229523Y-22907200D02*
X8324761Y-22954819D01*
X8324761Y-22954819D02*
X8610475Y-22954819D01*
X8610475Y-22954819D02*
X8705713Y-22907200D01*
X8705713Y-22907200D02*
X8753332Y-22859580D01*
X39016666Y-28954819D02*
X39349999Y-28478628D01*
X39588094Y-28954819D02*
X39588094Y-27954819D01*
X39588094Y-27954819D02*
X39207142Y-27954819D01*
X39207142Y-27954819D02*
X39111904Y-28002438D01*
X39111904Y-28002438D02*
X39064285Y-28050057D01*
X39064285Y-28050057D02*
X39016666Y-28145295D01*
X39016666Y-28145295D02*
X39016666Y-28288152D01*
X39016666Y-28288152D02*
X39064285Y-28383390D01*
X39064285Y-28383390D02*
X39111904Y-28431009D01*
X39111904Y-28431009D02*
X39207142Y-28478628D01*
X39207142Y-28478628D02*
X39588094Y-28478628D01*
X38683332Y-27954819D02*
X38064285Y-27954819D01*
X38064285Y-27954819D02*
X38397618Y-28335771D01*
X38397618Y-28335771D02*
X38254761Y-28335771D01*
X38254761Y-28335771D02*
X38159523Y-28383390D01*
X38159523Y-28383390D02*
X38111904Y-28431009D01*
X38111904Y-28431009D02*
X38064285Y-28526247D01*
X38064285Y-28526247D02*
X38064285Y-28764342D01*
X38064285Y-28764342D02*
X38111904Y-28859580D01*
X38111904Y-28859580D02*
X38159523Y-28907200D01*
X38159523Y-28907200D02*
X38254761Y-28954819D01*
X38254761Y-28954819D02*
X38540475Y-28954819D01*
X38540475Y-28954819D02*
X38635713Y-28907200D01*
X38635713Y-28907200D02*
X38683332Y-28859580D01*
X52238094Y-27954819D02*
X52238094Y-26954819D01*
X52238094Y-26954819D02*
X51999999Y-26954819D01*
X51999999Y-26954819D02*
X51857142Y-27002438D01*
X51857142Y-27002438D02*
X51761904Y-27097676D01*
X51761904Y-27097676D02*
X51714285Y-27192914D01*
X51714285Y-27192914D02*
X51666666Y-27383390D01*
X51666666Y-27383390D02*
X51666666Y-27526247D01*
X51666666Y-27526247D02*
X51714285Y-27716723D01*
X51714285Y-27716723D02*
X51761904Y-27811961D01*
X51761904Y-27811961D02*
X51857142Y-27907200D01*
X51857142Y-27907200D02*
X51999999Y-27954819D01*
X51999999Y-27954819D02*
X52238094Y-27954819D01*
X51190475Y-27954819D02*
X50999999Y-27954819D01*
X50999999Y-27954819D02*
X50904761Y-27907200D01*
X50904761Y-27907200D02*
X50857142Y-27859580D01*
X50857142Y-27859580D02*
X50761904Y-27716723D01*
X50761904Y-27716723D02*
X50714285Y-27526247D01*
X50714285Y-27526247D02*
X50714285Y-27145295D01*
X50714285Y-27145295D02*
X50761904Y-27050057D01*
X50761904Y-27050057D02*
X50809523Y-27002438D01*
X50809523Y-27002438D02*
X50904761Y-26954819D01*
X50904761Y-26954819D02*
X51095237Y-26954819D01*
X51095237Y-26954819D02*
X51190475Y-27002438D01*
X51190475Y-27002438D02*
X51238094Y-27050057D01*
X51238094Y-27050057D02*
X51285713Y-27145295D01*
X51285713Y-27145295D02*
X51285713Y-27383390D01*
X51285713Y-27383390D02*
X51238094Y-27478628D01*
X51238094Y-27478628D02*
X51190475Y-27526247D01*
X51190475Y-27526247D02*
X51095237Y-27573866D01*
X51095237Y-27573866D02*
X50904761Y-27573866D01*
X50904761Y-27573866D02*
X50809523Y-27526247D01*
X50809523Y-27526247D02*
X50761904Y-27478628D01*
X50761904Y-27478628D02*
X50714285Y-27383390D01*
X41866666Y-27539580D02*
X41914285Y-27587200D01*
X41914285Y-27587200D02*
X42057142Y-27634819D01*
X42057142Y-27634819D02*
X42152380Y-27634819D01*
X42152380Y-27634819D02*
X42295237Y-27587200D01*
X42295237Y-27587200D02*
X42390475Y-27491961D01*
X42390475Y-27491961D02*
X42438094Y-27396723D01*
X42438094Y-27396723D02*
X42485713Y-27206247D01*
X42485713Y-27206247D02*
X42485713Y-27063390D01*
X42485713Y-27063390D02*
X42438094Y-26872914D01*
X42438094Y-26872914D02*
X42390475Y-26777676D01*
X42390475Y-26777676D02*
X42295237Y-26682438D01*
X42295237Y-26682438D02*
X42152380Y-26634819D01*
X42152380Y-26634819D02*
X42057142Y-26634819D01*
X42057142Y-26634819D02*
X41914285Y-26682438D01*
X41914285Y-26682438D02*
X41866666Y-26730057D01*
X41009523Y-26968152D02*
X41009523Y-27634819D01*
X41247618Y-26587200D02*
X41485713Y-27301485D01*
X41485713Y-27301485D02*
X40866666Y-27301485D01*
X24595238Y-13550057D02*
X24690476Y-13502438D01*
X24690476Y-13502438D02*
X24785714Y-13407200D01*
X24785714Y-13407200D02*
X24928571Y-13264342D01*
X24928571Y-13264342D02*
X25023809Y-13216723D01*
X25023809Y-13216723D02*
X25119047Y-13216723D01*
X25071428Y-13454819D02*
X25166666Y-13407200D01*
X25166666Y-13407200D02*
X25261904Y-13311961D01*
X25261904Y-13311961D02*
X25309523Y-13121485D01*
X25309523Y-13121485D02*
X25309523Y-12788152D01*
X25309523Y-12788152D02*
X25261904Y-12597676D01*
X25261904Y-12597676D02*
X25166666Y-12502438D01*
X25166666Y-12502438D02*
X25071428Y-12454819D01*
X25071428Y-12454819D02*
X24880952Y-12454819D01*
X24880952Y-12454819D02*
X24785714Y-12502438D01*
X24785714Y-12502438D02*
X24690476Y-12597676D01*
X24690476Y-12597676D02*
X24642857Y-12788152D01*
X24642857Y-12788152D02*
X24642857Y-13121485D01*
X24642857Y-13121485D02*
X24690476Y-13311961D01*
X24690476Y-13311961D02*
X24785714Y-13407200D01*
X24785714Y-13407200D02*
X24880952Y-13454819D01*
X24880952Y-13454819D02*
X25071428Y-13454819D01*
X23690476Y-13454819D02*
X24261904Y-13454819D01*
X23976190Y-13454819D02*
X23976190Y-12454819D01*
X23976190Y-12454819D02*
X24071428Y-12597676D01*
X24071428Y-12597676D02*
X24166666Y-12692914D01*
X24166666Y-12692914D02*
X24261904Y-12740533D01*
X4816666Y-19954819D02*
X5149999Y-19478628D01*
X5388094Y-19954819D02*
X5388094Y-18954819D01*
X5388094Y-18954819D02*
X5007142Y-18954819D01*
X5007142Y-18954819D02*
X4911904Y-19002438D01*
X4911904Y-19002438D02*
X4864285Y-19050057D01*
X4864285Y-19050057D02*
X4816666Y-19145295D01*
X4816666Y-19145295D02*
X4816666Y-19288152D01*
X4816666Y-19288152D02*
X4864285Y-19383390D01*
X4864285Y-19383390D02*
X4911904Y-19431009D01*
X4911904Y-19431009D02*
X5007142Y-19478628D01*
X5007142Y-19478628D02*
X5388094Y-19478628D01*
X4435713Y-19050057D02*
X4388094Y-19002438D01*
X4388094Y-19002438D02*
X4292856Y-18954819D01*
X4292856Y-18954819D02*
X4054761Y-18954819D01*
X4054761Y-18954819D02*
X3959523Y-19002438D01*
X3959523Y-19002438D02*
X3911904Y-19050057D01*
X3911904Y-19050057D02*
X3864285Y-19145295D01*
X3864285Y-19145295D02*
X3864285Y-19240533D01*
X3864285Y-19240533D02*
X3911904Y-19383390D01*
X3911904Y-19383390D02*
X4483332Y-19954819D01*
X4483332Y-19954819D02*
X3864285Y-19954819D01*
X49666666Y-17104819D02*
X49999999Y-16628628D01*
X50238094Y-17104819D02*
X50238094Y-16104819D01*
X50238094Y-16104819D02*
X49857142Y-16104819D01*
X49857142Y-16104819D02*
X49761904Y-16152438D01*
X49761904Y-16152438D02*
X49714285Y-16200057D01*
X49714285Y-16200057D02*
X49666666Y-16295295D01*
X49666666Y-16295295D02*
X49666666Y-16438152D01*
X49666666Y-16438152D02*
X49714285Y-16533390D01*
X49714285Y-16533390D02*
X49761904Y-16581009D01*
X49761904Y-16581009D02*
X49857142Y-16628628D01*
X49857142Y-16628628D02*
X50238094Y-16628628D01*
X48809523Y-16104819D02*
X48999999Y-16104819D01*
X48999999Y-16104819D02*
X49095237Y-16152438D01*
X49095237Y-16152438D02*
X49142856Y-16200057D01*
X49142856Y-16200057D02*
X49238094Y-16342914D01*
X49238094Y-16342914D02*
X49285713Y-16533390D01*
X49285713Y-16533390D02*
X49285713Y-16914342D01*
X49285713Y-16914342D02*
X49238094Y-17009580D01*
X49238094Y-17009580D02*
X49190475Y-17057200D01*
X49190475Y-17057200D02*
X49095237Y-17104819D01*
X49095237Y-17104819D02*
X48904761Y-17104819D01*
X48904761Y-17104819D02*
X48809523Y-17057200D01*
X48809523Y-17057200D02*
X48761904Y-17009580D01*
X48761904Y-17009580D02*
X48714285Y-16914342D01*
X48714285Y-16914342D02*
X48714285Y-16676247D01*
X48714285Y-16676247D02*
X48761904Y-16581009D01*
X48761904Y-16581009D02*
X48809523Y-16533390D01*
X48809523Y-16533390D02*
X48904761Y-16485771D01*
X48904761Y-16485771D02*
X49095237Y-16485771D01*
X49095237Y-16485771D02*
X49190475Y-16533390D01*
X49190475Y-16533390D02*
X49238094Y-16581009D01*
X49238094Y-16581009D02*
X49285713Y-16676247D01*
X50642857Y-43404819D02*
X50976190Y-42928628D01*
X51214285Y-43404819D02*
X51214285Y-42404819D01*
X51214285Y-42404819D02*
X50833333Y-42404819D01*
X50833333Y-42404819D02*
X50738095Y-42452438D01*
X50738095Y-42452438D02*
X50690476Y-42500057D01*
X50690476Y-42500057D02*
X50642857Y-42595295D01*
X50642857Y-42595295D02*
X50642857Y-42738152D01*
X50642857Y-42738152D02*
X50690476Y-42833390D01*
X50690476Y-42833390D02*
X50738095Y-42881009D01*
X50738095Y-42881009D02*
X50833333Y-42928628D01*
X50833333Y-42928628D02*
X51214285Y-42928628D01*
X49690476Y-43404819D02*
X50261904Y-43404819D01*
X49976190Y-43404819D02*
X49976190Y-42404819D01*
X49976190Y-42404819D02*
X50071428Y-42547676D01*
X50071428Y-42547676D02*
X50166666Y-42642914D01*
X50166666Y-42642914D02*
X50261904Y-42690533D01*
X48738095Y-43404819D02*
X49309523Y-43404819D01*
X49023809Y-43404819D02*
X49023809Y-42404819D01*
X49023809Y-42404819D02*
X49119047Y-42547676D01*
X49119047Y-42547676D02*
X49214285Y-42642914D01*
X49214285Y-42642914D02*
X49309523Y-42690533D01*
X49666666Y-20104819D02*
X49999999Y-19628628D01*
X50238094Y-20104819D02*
X50238094Y-19104819D01*
X50238094Y-19104819D02*
X49857142Y-19104819D01*
X49857142Y-19104819D02*
X49761904Y-19152438D01*
X49761904Y-19152438D02*
X49714285Y-19200057D01*
X49714285Y-19200057D02*
X49666666Y-19295295D01*
X49666666Y-19295295D02*
X49666666Y-19438152D01*
X49666666Y-19438152D02*
X49714285Y-19533390D01*
X49714285Y-19533390D02*
X49761904Y-19581009D01*
X49761904Y-19581009D02*
X49857142Y-19628628D01*
X49857142Y-19628628D02*
X50238094Y-19628628D01*
X49333332Y-19104819D02*
X48666666Y-19104819D01*
X48666666Y-19104819D02*
X49095237Y-20104819D01*
X15633333Y-47254819D02*
X15633333Y-47969104D01*
X15633333Y-47969104D02*
X15680952Y-48111961D01*
X15680952Y-48111961D02*
X15776190Y-48207200D01*
X15776190Y-48207200D02*
X15919047Y-48254819D01*
X15919047Y-48254819D02*
X16014285Y-48254819D01*
X15157142Y-48254819D02*
X15157142Y-47254819D01*
X15157142Y-47254819D02*
X14776190Y-47254819D01*
X14776190Y-47254819D02*
X14680952Y-47302438D01*
X14680952Y-47302438D02*
X14633333Y-47350057D01*
X14633333Y-47350057D02*
X14585714Y-47445295D01*
X14585714Y-47445295D02*
X14585714Y-47588152D01*
X14585714Y-47588152D02*
X14633333Y-47683390D01*
X14633333Y-47683390D02*
X14680952Y-47731009D01*
X14680952Y-47731009D02*
X14776190Y-47778628D01*
X14776190Y-47778628D02*
X15157142Y-47778628D01*
X13633333Y-48254819D02*
X14204761Y-48254819D01*
X13919047Y-48254819D02*
X13919047Y-47254819D01*
X13919047Y-47254819D02*
X14014285Y-47397676D01*
X14014285Y-47397676D02*
X14109523Y-47492914D01*
X14109523Y-47492914D02*
X14204761Y-47540533D01*
X49666666Y-14104819D02*
X49999999Y-13628628D01*
X50238094Y-14104819D02*
X50238094Y-13104819D01*
X50238094Y-13104819D02*
X49857142Y-13104819D01*
X49857142Y-13104819D02*
X49761904Y-13152438D01*
X49761904Y-13152438D02*
X49714285Y-13200057D01*
X49714285Y-13200057D02*
X49666666Y-13295295D01*
X49666666Y-13295295D02*
X49666666Y-13438152D01*
X49666666Y-13438152D02*
X49714285Y-13533390D01*
X49714285Y-13533390D02*
X49761904Y-13581009D01*
X49761904Y-13581009D02*
X49857142Y-13628628D01*
X49857142Y-13628628D02*
X50238094Y-13628628D01*
X48761904Y-13104819D02*
X49238094Y-13104819D01*
X49238094Y-13104819D02*
X49285713Y-13581009D01*
X49285713Y-13581009D02*
X49238094Y-13533390D01*
X49238094Y-13533390D02*
X49142856Y-13485771D01*
X49142856Y-13485771D02*
X48904761Y-13485771D01*
X48904761Y-13485771D02*
X48809523Y-13533390D01*
X48809523Y-13533390D02*
X48761904Y-13581009D01*
X48761904Y-13581009D02*
X48714285Y-13676247D01*
X48714285Y-13676247D02*
X48714285Y-13914342D01*
X48714285Y-13914342D02*
X48761904Y-14009580D01*
X48761904Y-14009580D02*
X48809523Y-14057200D01*
X48809523Y-14057200D02*
X48904761Y-14104819D01*
X48904761Y-14104819D02*
X49142856Y-14104819D01*
X49142856Y-14104819D02*
X49238094Y-14057200D01*
X49238094Y-14057200D02*
X49285713Y-14009580D01*
X39016666Y-32954819D02*
X39349999Y-32478628D01*
X39588094Y-32954819D02*
X39588094Y-31954819D01*
X39588094Y-31954819D02*
X39207142Y-31954819D01*
X39207142Y-31954819D02*
X39111904Y-32002438D01*
X39111904Y-32002438D02*
X39064285Y-32050057D01*
X39064285Y-32050057D02*
X39016666Y-32145295D01*
X39016666Y-32145295D02*
X39016666Y-32288152D01*
X39016666Y-32288152D02*
X39064285Y-32383390D01*
X39064285Y-32383390D02*
X39111904Y-32431009D01*
X39111904Y-32431009D02*
X39207142Y-32478628D01*
X39207142Y-32478628D02*
X39588094Y-32478628D01*
X38540475Y-32954819D02*
X38349999Y-32954819D01*
X38349999Y-32954819D02*
X38254761Y-32907200D01*
X38254761Y-32907200D02*
X38207142Y-32859580D01*
X38207142Y-32859580D02*
X38111904Y-32716723D01*
X38111904Y-32716723D02*
X38064285Y-32526247D01*
X38064285Y-32526247D02*
X38064285Y-32145295D01*
X38064285Y-32145295D02*
X38111904Y-32050057D01*
X38111904Y-32050057D02*
X38159523Y-32002438D01*
X38159523Y-32002438D02*
X38254761Y-31954819D01*
X38254761Y-31954819D02*
X38445237Y-31954819D01*
X38445237Y-31954819D02*
X38540475Y-32002438D01*
X38540475Y-32002438D02*
X38588094Y-32050057D01*
X38588094Y-32050057D02*
X38635713Y-32145295D01*
X38635713Y-32145295D02*
X38635713Y-32383390D01*
X38635713Y-32383390D02*
X38588094Y-32478628D01*
X38588094Y-32478628D02*
X38540475Y-32526247D01*
X38540475Y-32526247D02*
X38445237Y-32573866D01*
X38445237Y-32573866D02*
X38254761Y-32573866D01*
X38254761Y-32573866D02*
X38159523Y-32526247D01*
X38159523Y-32526247D02*
X38111904Y-32478628D01*
X38111904Y-32478628D02*
X38064285Y-32383390D01*
X26166666Y-43304819D02*
X26499999Y-42828628D01*
X26738094Y-43304819D02*
X26738094Y-42304819D01*
X26738094Y-42304819D02*
X26357142Y-42304819D01*
X26357142Y-42304819D02*
X26261904Y-42352438D01*
X26261904Y-42352438D02*
X26214285Y-42400057D01*
X26214285Y-42400057D02*
X26166666Y-42495295D01*
X26166666Y-42495295D02*
X26166666Y-42638152D01*
X26166666Y-42638152D02*
X26214285Y-42733390D01*
X26214285Y-42733390D02*
X26261904Y-42781009D01*
X26261904Y-42781009D02*
X26357142Y-42828628D01*
X26357142Y-42828628D02*
X26738094Y-42828628D01*
X25214285Y-43304819D02*
X25785713Y-43304819D01*
X25499999Y-43304819D02*
X25499999Y-42304819D01*
X25499999Y-42304819D02*
X25595237Y-42447676D01*
X25595237Y-42447676D02*
X25690475Y-42542914D01*
X25690475Y-42542914D02*
X25785713Y-42590533D01*
X54238094Y-17104819D02*
X54238094Y-16104819D01*
X54238094Y-16104819D02*
X53999999Y-16104819D01*
X53999999Y-16104819D02*
X53857142Y-16152438D01*
X53857142Y-16152438D02*
X53761904Y-16247676D01*
X53761904Y-16247676D02*
X53714285Y-16342914D01*
X53714285Y-16342914D02*
X53666666Y-16533390D01*
X53666666Y-16533390D02*
X53666666Y-16676247D01*
X53666666Y-16676247D02*
X53714285Y-16866723D01*
X53714285Y-16866723D02*
X53761904Y-16961961D01*
X53761904Y-16961961D02*
X53857142Y-17057200D01*
X53857142Y-17057200D02*
X53999999Y-17104819D01*
X53999999Y-17104819D02*
X54238094Y-17104819D01*
X52809523Y-16104819D02*
X52999999Y-16104819D01*
X52999999Y-16104819D02*
X53095237Y-16152438D01*
X53095237Y-16152438D02*
X53142856Y-16200057D01*
X53142856Y-16200057D02*
X53238094Y-16342914D01*
X53238094Y-16342914D02*
X53285713Y-16533390D01*
X53285713Y-16533390D02*
X53285713Y-16914342D01*
X53285713Y-16914342D02*
X53238094Y-17009580D01*
X53238094Y-17009580D02*
X53190475Y-17057200D01*
X53190475Y-17057200D02*
X53095237Y-17104819D01*
X53095237Y-17104819D02*
X52904761Y-17104819D01*
X52904761Y-17104819D02*
X52809523Y-17057200D01*
X52809523Y-17057200D02*
X52761904Y-17009580D01*
X52761904Y-17009580D02*
X52714285Y-16914342D01*
X52714285Y-16914342D02*
X52714285Y-16676247D01*
X52714285Y-16676247D02*
X52761904Y-16581009D01*
X52761904Y-16581009D02*
X52809523Y-16533390D01*
X52809523Y-16533390D02*
X52904761Y-16485771D01*
X52904761Y-16485771D02*
X53095237Y-16485771D01*
X53095237Y-16485771D02*
X53190475Y-16533390D01*
X53190475Y-16533390D02*
X53238094Y-16581009D01*
X53238094Y-16581009D02*
X53285713Y-16676247D01*
%TO.C,R4*%
D11*
X42265000Y-28272936D02*
X42265000Y-28727064D01*
X43735000Y-28272936D02*
X43735000Y-28727064D01*
%TO.C,R8*%
X49272936Y-20265000D02*
X49727064Y-20265000D01*
X49272936Y-21735000D02*
X49727064Y-21735000D01*
%TO.C,U4*%
X39140000Y-17940000D02*
X39140000Y-22060000D01*
X39140000Y-22060000D02*
X39235000Y-22060000D01*
X39235000Y-17940000D02*
X39140000Y-17940000D01*
X44165000Y-22060000D02*
X44260000Y-22060000D01*
X44260000Y-17940000D02*
X44165000Y-17940000D01*
X44260000Y-22060000D02*
X44260000Y-17940000D01*
X39230000Y-17400000D02*
X38900000Y-17160000D01*
X38900000Y-17640000D01*
X39230000Y-17400000D01*
G36*
X39230000Y-17400000D02*
G01*
X38900000Y-17640000D01*
X38900000Y-17160000D01*
X39230000Y-17400000D01*
G37*
%TO.C,JP2*%
X42000000Y-32300000D02*
X42000000Y-33700000D01*
X42700000Y-34400000D02*
X43300000Y-34400000D01*
X43300000Y-31600000D02*
X42700000Y-31600000D01*
X44000000Y-33700000D02*
X44000000Y-32300000D01*
X42000000Y-32300000D02*
G75*
G02*
X42700000Y-31600000I699999J1D01*
G01*
X42700000Y-34400000D02*
G75*
G02*
X42000000Y-33700000I0J700000D01*
G01*
X43300000Y-31600000D02*
G75*
G02*
X44000000Y-32300000I1J-699999D01*
G01*
X44000000Y-33700000D02*
G75*
G02*
X43300000Y-34400000I-700000J0D01*
G01*
%TO.C,R10*%
X49772936Y-38265000D02*
X50227064Y-38265000D01*
X49772936Y-39735000D02*
X50227064Y-39735000D01*
%TO.C,U5*%
X5690000Y-22150000D02*
X8350000Y-22150000D01*
X5690000Y-23850000D02*
X5690000Y-22150000D01*
X5690000Y-23850000D02*
X8350000Y-23850000D01*
%TO.C,D5*%
X51815000Y-11040000D02*
X54500000Y-11040000D01*
X51815000Y-12960000D02*
X51815000Y-11040000D01*
X54500000Y-12960000D02*
X51815000Y-12960000D01*
%TO.C,R12*%
X53772936Y-38265000D02*
X54227064Y-38265000D01*
X53772936Y-39735000D02*
X54227064Y-39735000D01*
%TO.C,D10*%
X47990000Y-28350000D02*
X53500000Y-28350000D01*
X47990000Y-31650000D02*
X47990000Y-28350000D01*
X47990000Y-31650000D02*
X53500000Y-31650000D01*
%TO.C,D1*%
X26850000Y-17840000D02*
X26850000Y-23650000D01*
X26850000Y-17840000D02*
X31150000Y-17840000D01*
X31150000Y-17840000D02*
X31150000Y-23650000D01*
%TO.C,C5*%
X41438748Y-9265000D02*
X41961252Y-9265000D01*
X41438748Y-10735000D02*
X41961252Y-10735000D01*
%TO.C,D7*%
X51815000Y-17040000D02*
X54500000Y-17040000D01*
X51815000Y-18960000D02*
X51815000Y-17040000D01*
X54500000Y-18960000D02*
X51815000Y-18960000D01*
%TO.C,D8*%
X51815000Y-20040000D02*
X54500000Y-20040000D01*
X51815000Y-21960000D02*
X51815000Y-20040000D01*
X54500000Y-21960000D02*
X51815000Y-21960000D01*
%TO.C,U2*%
X6940000Y-36440000D02*
X6940000Y-36495000D01*
X6940000Y-46505000D02*
X6940000Y-46560000D01*
X6940000Y-46560000D02*
X11060000Y-46560000D01*
X11060000Y-36440000D02*
X6940000Y-36440000D01*
X11060000Y-36495000D02*
X11060000Y-36440000D01*
X11060000Y-46560000D02*
X11060000Y-46505000D01*
X6400000Y-46510000D02*
X6160000Y-46840000D01*
X6640000Y-46840000D01*
X6400000Y-46510000D01*
G36*
X6640000Y-46840000D02*
G01*
X6160000Y-46840000D01*
X6400000Y-46510000D01*
X6640000Y-46840000D01*
G37*
%TO.C,D11*%
X47990000Y-33350000D02*
X53500000Y-33350000D01*
X47990000Y-36650000D02*
X47990000Y-33350000D01*
X47990000Y-36650000D02*
X53500000Y-36650000D01*
%TO.C,R13*%
X53772936Y-40565000D02*
X54227064Y-40565000D01*
X53772936Y-42035000D02*
X54227064Y-42035000D01*
%TO.C,C6*%
X41438748Y-11765000D02*
X41961252Y-11765000D01*
X41438748Y-13235000D02*
X41961252Y-13235000D01*
%TO.C,C2*%
X28265000Y-39738748D02*
X28265000Y-40261252D01*
X29735000Y-39738748D02*
X29735000Y-40261252D01*
%TO.C,J3*%
X7040000Y-900000D02*
X7040000Y-3500000D01*
X7040000Y-900000D02*
X57960000Y-900000D01*
X7040000Y-3500000D02*
X9640000Y-3500000D01*
X7040000Y-4770000D02*
X7040000Y-6100000D01*
X7040000Y-6100000D02*
X8370000Y-6100000D01*
X9640000Y-3500000D02*
X9640000Y-6100000D01*
X9640000Y-6100000D02*
X57960000Y-6100000D01*
X57960000Y-900000D02*
X57960000Y-6100000D01*
%TO.C,C1*%
X25590000Y-29654437D02*
X25590000Y-35410000D01*
X25590000Y-35410000D02*
X27940000Y-35410000D01*
X26654437Y-28590000D02*
X25590000Y-29654437D01*
X26654437Y-28590000D02*
X27940000Y-28590000D01*
X26758750Y-27956250D02*
X27546250Y-27956250D01*
X27152500Y-27562500D02*
X27152500Y-28350000D01*
X31345563Y-28590000D02*
X30060000Y-28590000D01*
X31345563Y-28590000D02*
X32410000Y-29654437D01*
X32410000Y-29654437D02*
X32410000Y-35410000D01*
X32410000Y-35410000D02*
X30060000Y-35410000D01*
%TO.C,C3*%
X9865000Y-22238748D02*
X9865000Y-22761252D01*
X11335000Y-22238748D02*
X11335000Y-22761252D01*
%TO.C,R3*%
X39765000Y-28272936D02*
X39765000Y-28727064D01*
X41235000Y-28272936D02*
X41235000Y-28727064D01*
%TO.C,D9*%
X47990000Y-23350000D02*
X53500000Y-23350000D01*
X47990000Y-26650000D02*
X47990000Y-23350000D01*
X47990000Y-26650000D02*
X53500000Y-26650000D01*
%TO.C,C4*%
X41438748Y-24765000D02*
X41961252Y-24765000D01*
X41438748Y-26235000D02*
X41961252Y-26235000D01*
%TO.C,Q1*%
X25550000Y-9690000D02*
X25820000Y-9690000D01*
X25550000Y-16110000D02*
X25550000Y-9690000D01*
X32450000Y-9690000D02*
X32180000Y-9690000D01*
X32450000Y-16110000D02*
X32450000Y-9690000D01*
X25860000Y-7960000D02*
X25390000Y-7620000D01*
X25390000Y-8300000D01*
X25860000Y-7960000D01*
G36*
X25860000Y-7960000D02*
G01*
X25390000Y-8300000D01*
X25390000Y-7620000D01*
X25860000Y-7960000D01*
G37*
%TO.C,R2*%
X5565000Y-19272936D02*
X5565000Y-19727064D01*
X7035000Y-19272936D02*
X7035000Y-19727064D01*
%TO.C,R6*%
X49272936Y-14265000D02*
X49727064Y-14265000D01*
X49272936Y-15735000D02*
X49727064Y-15735000D01*
%TO.C,R11*%
X49772936Y-40565000D02*
X50227064Y-40565000D01*
X49772936Y-42035000D02*
X50227064Y-42035000D01*
%TO.C,R7*%
X49272936Y-17265000D02*
X49727064Y-17265000D01*
X49272936Y-18735000D02*
X49727064Y-18735000D01*
%TO.C,JP1*%
X13400000Y-45700000D02*
X13400000Y-46300000D01*
X14100000Y-47000000D02*
X15500000Y-47000000D01*
X15500000Y-45000000D02*
X14100000Y-45000000D01*
X16200000Y-46300000D02*
X16200000Y-45700000D01*
X13400000Y-45700000D02*
G75*
G02*
X14100000Y-45000000I699999J1D01*
G01*
X14100000Y-47000000D02*
G75*
G02*
X13400000Y-46300000I-1J699999D01*
G01*
X15500000Y-45000000D02*
G75*
G02*
X16200000Y-45700000I0J-700000D01*
G01*
X16200000Y-46300000D02*
G75*
G02*
X15500000Y-47000000I-700000J0D01*
G01*
%TO.C,R5*%
X49272936Y-11265000D02*
X49727064Y-11265000D01*
X49272936Y-12735000D02*
X49727064Y-12735000D01*
%TO.C,R9*%
X39765000Y-32272936D02*
X39765000Y-32727064D01*
X41235000Y-32272936D02*
X41235000Y-32727064D01*
%TO.C,R1*%
X25772936Y-40465000D02*
X26227064Y-40465000D01*
X25772936Y-41935000D02*
X26227064Y-41935000D01*
%TO.C,D6*%
X51815000Y-14040000D02*
X54500000Y-14040000D01*
X51815000Y-15960000D02*
X51815000Y-14040000D01*
X54500000Y-15960000D02*
X51815000Y-15960000D01*
%TD*%
M02*
