%TF.GenerationSoftware,KiCad,Pcbnew,10.0.5*%
%TF.CreationDate,2026-07-28T01:16:20-04:00*%
%TF.ProjectId,exopet-hat,65786f70-6574-42d6-9861-742e6b696361,rev?*%
%TF.SameCoordinates,Original*%
%TF.FileFunction,Copper,L1,Top*%
%TF.FilePolarity,Positive*%
%FSLAX46Y46*%
G04 Gerber Fmt 4.6, Leading zero omitted, Abs format (unit mm)*
G04 Created by KiCad (PCBNEW 10.0.5) date 2026-07-28 01:16:20*
%MOMM*%
%LPD*%
G01*
G04 APERTURE LIST*
G04 Aperture macros list*
%AMRoundRect*
0 Rectangle with rounded corners*
0 $1 Rounding radius*
0 $2 $3 $4 $5 $6 $7 $8 $9 X,Y pos of 4 corners*
0 Add a 4 corners polygon primitive as box body*
4,1,4,$2,$3,$4,$5,$6,$7,$8,$9,$2,$3,0*
0 Add four circle primitives for the rounded corners*
1,1,$1+$1,$2,$3*
1,1,$1+$1,$4,$5*
1,1,$1+$1,$6,$7*
1,1,$1+$1,$8,$9*
0 Add four rect primitives between the rounded corners*
20,1,$1+$1,$2,$3,$4,$5,0*
20,1,$1+$1,$4,$5,$6,$7,0*
20,1,$1+$1,$6,$7,$8,$9,0*
20,1,$1+$1,$8,$9,$2,$3,0*%
G04 Aperture macros list end*
%TA.AperFunction,ComponentPad*%
%ADD10R,2.600000X2.600000*%
%TD*%
%TA.AperFunction,ComponentPad*%
%ADD11C,2.600000*%
%TD*%
%TA.AperFunction,ComponentPad*%
%ADD12RoundRect,0.250001X-0.949999X-0.949999X0.949999X-0.949999X0.949999X0.949999X-0.949999X0.949999X0*%
%TD*%
%TA.AperFunction,ComponentPad*%
%ADD13C,2.400000*%
%TD*%
%TA.AperFunction,ComponentPad*%
%ADD14RoundRect,0.250001X0.949999X-0.949999X0.949999X0.949999X-0.949999X0.949999X-0.949999X-0.949999X0*%
%TD*%
%TA.AperFunction,ComponentPad*%
%ADD15C,4.700000*%
%TD*%
%TA.AperFunction,ComponentPad*%
%ADD16C,2.010000*%
%TD*%
%TA.AperFunction,ComponentPad*%
%ADD17R,2.500000X2.500000*%
%TD*%
%TA.AperFunction,ComponentPad*%
%ADD18O,2.500000X2.500000*%
%TD*%
%TA.AperFunction,ComponentPad*%
%ADD19C,1.710000*%
%TD*%
%TA.AperFunction,ComponentPad*%
%ADD20R,1.700000X1.700000*%
%TD*%
%TA.AperFunction,ComponentPad*%
%ADD21C,1.700000*%
%TD*%
%TA.AperFunction,ViaPad*%
%ADD22C,0.800000*%
%TD*%
%TA.AperFunction,Conductor*%
%ADD23C,0.250000*%
%TD*%
G04 APERTURE END LIST*
D10*
%TO.P,J1,1*%
%TO.N,+12V_IN*%
X14600000Y-14000000D03*
D11*
%TO.P,J1,2*%
%TO.N,GND*%
X8600000Y-14000000D03*
%TO.P,J1,3*%
%TO.N,unconnected-(J1-Pad3)*%
X11600000Y-18700000D03*
%TD*%
D12*
%TO.P,J11,1*%
%TO.N,CH4_COM*%
X49500000Y-52000000D03*
D13*
%TO.P,J11,2*%
%TO.N,CH4_NO*%
X53000000Y-52000000D03*
%TO.P,J11,3*%
%TO.N,CH4_NC*%
X56500000Y-52000000D03*
%TD*%
D14*
%TO.P,J13,1*%
%TO.N,FLOAT1_SW*%
X4000000Y-26300000D03*
D13*
%TO.P,J13,2*%
%TO.N,GND*%
X4000000Y-22800000D03*
%TD*%
D15*
%TO.P,H4,1*%
%TO.N,N/C*%
X61500000Y-52500000D03*
%TD*%
D16*
%TO.P,F1,1*%
%TO.N,+12V_IN*%
X14500000Y-29500000D03*
%TO.P,F1,2*%
%TO.N,+12V_F*%
X13300000Y-34600000D03*
%TD*%
D17*
%TO.P,K4,1*%
%TO.N,CH4_COM*%
X60400000Y-33300000D03*
D18*
%TO.P,K4,2*%
%TO.N,+12V*%
X58400000Y-27300000D03*
%TO.P,K4,3*%
%TO.N,CH4_NO*%
X46200000Y-27300000D03*
%TO.P,K4,4*%
%TO.N,CH4_NC*%
X46200000Y-39300000D03*
%TO.P,K4,5*%
%TO.N,RLY4_DRV*%
X58400000Y-39300000D03*
%TD*%
D17*
%TO.P,K2,1*%
%TO.N,CH2_FUSED*%
X60400000Y-16200000D03*
D18*
%TO.P,K2,2*%
%TO.N,+12V*%
X58400000Y-10200000D03*
%TO.P,K2,3*%
%TO.N,CH2_OUT*%
X46200000Y-10200000D03*
%TO.P,K2,4*%
%TO.N,unconnected-(K2-Pad4)*%
X46200000Y-22200000D03*
%TO.P,K2,5*%
%TO.N,RLY2_DRV*%
X58400000Y-22200000D03*
%TD*%
D19*
%TO.P,F2,1*%
%TO.N,+12V*%
X31500000Y-43400000D03*
%TO.P,F2,2*%
%TO.N,CH1_FUSED*%
X36600000Y-44600000D03*
%TD*%
%TO.P,F3,1*%
%TO.N,+12V*%
X42000000Y-43400000D03*
%TO.P,F3,2*%
%TO.N,CH2_FUSED*%
X47100000Y-44600000D03*
%TD*%
D12*
%TO.P,J9,1*%
%TO.N,CH2_OUT*%
X24500000Y-52000000D03*
D13*
%TO.P,J9,2*%
%TO.N,GND*%
X28000000Y-52000000D03*
%TD*%
D12*
%TO.P,J8,1*%
%TO.N,CH1_OUT*%
X12500000Y-52000000D03*
D13*
%TO.P,J8,2*%
%TO.N,GND*%
X16000000Y-52000000D03*
%TD*%
D15*
%TO.P,H2,1*%
%TO.N,N/C*%
X61500000Y-3500000D03*
%TD*%
D14*
%TO.P,J4,1*%
%TO.N,+3V3*%
X4000000Y-46500000D03*
D13*
%TO.P,J4,2*%
%TO.N,1WIRE_DATA*%
X4000000Y-43000000D03*
%TO.P,J4,3*%
%TO.N,GND*%
X4000000Y-39500000D03*
%TD*%
D15*
%TO.P,H1,1*%
%TO.N,N/C*%
X3500000Y-3500000D03*
%TD*%
D17*
%TO.P,K3,1*%
%TO.N,CH3_FUSED*%
X37200000Y-33300000D03*
D18*
%TO.P,K3,2*%
%TO.N,+12V*%
X35200000Y-27300000D03*
%TO.P,K3,3*%
%TO.N,CH3_OUT*%
X23000000Y-27300000D03*
%TO.P,K3,4*%
%TO.N,unconnected-(K3-Pad4)*%
X23000000Y-39300000D03*
%TO.P,K3,5*%
%TO.N,RLY3_DRV*%
X35200000Y-39300000D03*
%TD*%
D17*
%TO.P,K1,1*%
%TO.N,CH1_FUSED*%
X37200000Y-16200000D03*
D18*
%TO.P,K1,2*%
%TO.N,+12V*%
X35200000Y-10200000D03*
%TO.P,K1,3*%
%TO.N,CH1_OUT*%
X23000000Y-10200000D03*
%TO.P,K1,4*%
%TO.N,unconnected-(K1-Pad4)*%
X23000000Y-22200000D03*
%TO.P,K1,5*%
%TO.N,RLY1_DRV*%
X35200000Y-22200000D03*
%TD*%
D20*
%TO.P,PSU1,1*%
%TO.N,unconnected-(PSU1-Pin_1-Pad1)*%
X26000000Y-43800000D03*
D21*
%TO.P,PSU1,2*%
%TO.N,+12V*%
X23460000Y-43800000D03*
%TO.P,PSU1,3*%
%TO.N,GND*%
X20920000Y-43800000D03*
%TO.P,PSU1,4*%
X18380000Y-43800000D03*
%TO.P,PSU1,5*%
%TO.N,+5V_BUCK*%
X15840000Y-43800000D03*
%TD*%
D12*
%TO.P,J10,1*%
%TO.N,CH3_OUT*%
X36500000Y-52000000D03*
D13*
%TO.P,J10,2*%
%TO.N,GND*%
X40000000Y-52000000D03*
%TD*%
D14*
%TO.P,J14,1*%
%TO.N,FLOAT2_SW*%
X4000000Y-34600000D03*
D13*
%TO.P,J14,2*%
%TO.N,GND*%
X4000000Y-31100000D03*
%TD*%
D15*
%TO.P,H3,1*%
%TO.N,N/C*%
X3500000Y-52500000D03*
%TD*%
D19*
%TO.P,F4,1*%
%TO.N,+12V*%
X52500000Y-43400000D03*
%TO.P,F4,2*%
%TO.N,CH3_FUSED*%
X57600000Y-44600000D03*
%TD*%
D20*
%TO.P,J3,1*%
%TO.N,+3V3*%
X8370000Y-4770000D03*
D21*
%TO.P,J3,2*%
%TO.N,+5V*%
X8370000Y-2230000D03*
%TO.P,J3,3*%
%TO.N,unconnected-(J3-SDA/GPIO2-Pad3)*%
X10910000Y-4770000D03*
%TO.P,J3,4*%
%TO.N,+5V*%
X10910000Y-2230000D03*
%TO.P,J3,5*%
%TO.N,unconnected-(J3-SCL/GPIO3-Pad5)*%
X13450000Y-4770000D03*
%TO.P,J3,6*%
%TO.N,GND*%
X13450000Y-2230000D03*
%TO.P,J3,7*%
%TO.N,1WIRE_DATA*%
X15990000Y-4770000D03*
%TO.P,J3,8*%
%TO.N,unconnected-(J3-GPIO14/TXD-Pad8)*%
X15990000Y-2230000D03*
%TO.P,J3,9*%
%TO.N,GND*%
X18530000Y-4770000D03*
%TO.P,J3,10*%
%TO.N,unconnected-(J3-GPIO15/RXD-Pad10)*%
X18530000Y-2230000D03*
%TO.P,J3,11*%
%TO.N,GPIO17*%
X21070000Y-4770000D03*
%TO.P,J3,12*%
%TO.N,unconnected-(J3-GPIO18/PWM0-Pad12)*%
X21070000Y-2230000D03*
%TO.P,J3,13*%
%TO.N,GPIO27*%
X23610000Y-4770000D03*
%TO.P,J3,14*%
%TO.N,GND*%
X23610000Y-2230000D03*
%TO.P,J3,15*%
%TO.N,GPIO22*%
X26150000Y-4770000D03*
%TO.P,J3,16*%
%TO.N,GPIO23*%
X26150000Y-2230000D03*
%TO.P,J3,17*%
%TO.N,+3V3*%
X28690000Y-4770000D03*
%TO.P,J3,18*%
%TO.N,unconnected-(J3-GPIO24-Pad18)*%
X28690000Y-2230000D03*
%TO.P,J3,19*%
%TO.N,unconnected-(J3-MOSI0/GPIO10-Pad19)*%
X31230000Y-4770000D03*
%TO.P,J3,20*%
%TO.N,GND*%
X31230000Y-2230000D03*
%TO.P,J3,21*%
%TO.N,unconnected-(J3-MISO0/GPIO9-Pad21)*%
X33770000Y-4770000D03*
%TO.P,J3,22*%
%TO.N,unconnected-(J3-GPIO25-Pad22)*%
X33770000Y-2230000D03*
%TO.P,J3,23*%
%TO.N,unconnected-(J3-SCLK0/GPIO11-Pad23)*%
X36310000Y-4770000D03*
%TO.P,J3,24*%
%TO.N,unconnected-(J3-~{CE0}/GPIO8-Pad24)*%
X36310000Y-2230000D03*
%TO.P,J3,25*%
%TO.N,GND*%
X38850000Y-4770000D03*
%TO.P,J3,26*%
%TO.N,unconnected-(J3-~{CE1}/GPIO7-Pad26)*%
X38850000Y-2230000D03*
%TO.P,J3,27*%
%TO.N,EEPROM_SDA*%
X41390000Y-4770000D03*
%TO.P,J3,28*%
%TO.N,EEPROM_SCL*%
X41390000Y-2230000D03*
%TO.P,J3,29*%
%TO.N,unconnected-(J3-GCLK1/GPIO5-Pad29)*%
X43930000Y-4770000D03*
%TO.P,J3,30*%
%TO.N,GND*%
X43930000Y-2230000D03*
%TO.P,J3,31*%
%TO.N,unconnected-(J3-GCLK2/GPIO6-Pad31)*%
X46470000Y-4770000D03*
%TO.P,J3,32*%
%TO.N,FLOAT2_GPIO*%
X46470000Y-2230000D03*
%TO.P,J3,33*%
%TO.N,unconnected-(J3-PWM1/GPIO13-Pad33)*%
X49010000Y-4770000D03*
%TO.P,J3,34*%
%TO.N,GND*%
X49010000Y-2230000D03*
%TO.P,J3,35*%
%TO.N,unconnected-(J3-GPIO19/MISO1-Pad35)*%
X51550000Y-4770000D03*
%TO.P,J3,36*%
%TO.N,FLOAT1_GPIO*%
X51550000Y-2230000D03*
%TO.P,J3,37*%
%TO.N,unconnected-(J3-GPIO26-Pad37)*%
X54090000Y-4770000D03*
%TO.P,J3,38*%
%TO.N,unconnected-(J3-GPIO20/MOSI1-Pad38)*%
X54090000Y-2230000D03*
%TO.P,J3,39*%
%TO.N,GND*%
X56630000Y-4770000D03*
%TO.P,J3,40*%
%TO.N,unconnected-(J3-GPIO21/SCLK1-Pad40)*%
X56630000Y-2230000D03*
%TD*%
D22*
%TO.N,FLOAT1_SW*%
X40750000Y-8163000D03*
X50912500Y-37247200D03*
%TO.N,+12V_F*%
X29013100Y-26931200D03*
%TO.N,+12V*%
X13741400Y-38748900D03*
X48587500Y-8447600D03*
%TO.N,RLY4_DRV*%
X13632700Y-40369100D03*
%TO.N,CH2_FUSED*%
X56824800Y-37819900D03*
%TO.N,RLY2_DRV*%
X16297200Y-34047400D03*
X51649000Y-14014100D03*
%TO.N,CH1_OUT*%
X49500000Y-23478100D03*
%TO.N,+3V3*%
X34859500Y-19868600D03*
X39795000Y-19899500D03*
%TO.N,RLY3_DRV*%
X15598800Y-37723300D03*
X54236000Y-37511000D03*
%TO.N,RLY1_DRV*%
X51487700Y-11152300D03*
%TO.N,FLOAT2_SW*%
X37718100Y-19089300D03*
X38483200Y-36291500D03*
X40931600Y-15901000D03*
X47898400Y-36383500D03*
%TO.N,EEPROM_SCL*%
X40620900Y-19117800D03*
X42681800Y-30544400D03*
X39111700Y-24956100D03*
%TO.N,GPIO17*%
X5570900Y-14703900D03*
%TD*%
%TO.N,+12V_IN*%
D23*
X14600000Y-14000000D02*
X14600000Y-29400000D01*
X14600000Y-29400000D02*
X14500000Y-29500000D01*
%TO.N,GND*%
X50280000Y-3500000D02*
X49010000Y-2230000D01*
X38850000Y-4770000D02*
X37580000Y-3500000D01*
X47819400Y-3420600D02*
X45120600Y-3420600D01*
X31230000Y-2230000D02*
X30040000Y-3420000D01*
X4000000Y-22800000D02*
X4000000Y-18600000D01*
X30040000Y-3420000D02*
X24800000Y-3420000D01*
X45120600Y-3420600D02*
X43930000Y-2230000D01*
X17557900Y-53557900D02*
X16000000Y-52000000D01*
X56630000Y-4770000D02*
X55360000Y-3500000D01*
X18380000Y-43800000D02*
X20920000Y-43800000D01*
X49010000Y-2230000D02*
X47819400Y-3420600D01*
X4000000Y-39500000D02*
X14080000Y-39500000D01*
X26442100Y-53557900D02*
X17557900Y-53557900D01*
X14080000Y-39500000D02*
X18380000Y-43800000D01*
X55360000Y-3500000D02*
X50280000Y-3500000D01*
X38442100Y-53557900D02*
X29557900Y-53557900D01*
X28000000Y-52000000D02*
X26442100Y-53557900D01*
X29557900Y-53557900D02*
X28000000Y-52000000D01*
X37580000Y-3500000D02*
X32500000Y-3500000D01*
X24800000Y-3420000D02*
X23610000Y-2230000D01*
X40000000Y-52000000D02*
X38442100Y-53557900D01*
X32500000Y-3500000D02*
X31230000Y-2230000D01*
X4000000Y-18600000D02*
X8600000Y-14000000D01*
%TO.N,CH4_NO*%
X49292600Y-27300000D02*
X46200000Y-27300000D01*
X60467700Y-38475100D02*
X49292600Y-27300000D01*
X60467700Y-44532300D02*
X60467700Y-38475100D01*
X53000000Y-52000000D02*
X60467700Y-44532300D01*
%TO.N,FLOAT1_SW*%
X17335000Y-8163000D02*
X40750000Y-8163000D01*
X4000000Y-26300000D02*
X2453200Y-27846800D01*
X31818800Y-37247200D02*
X50912500Y-37247200D01*
X5679300Y-19818700D02*
X17335000Y-8163000D01*
X31356100Y-36784500D02*
X31818800Y-37247200D01*
X5679300Y-24620700D02*
X5679300Y-19818700D01*
X2453200Y-35770300D02*
X3467400Y-36784500D01*
X2453200Y-27846800D02*
X2453200Y-35770300D01*
X4000000Y-26300000D02*
X5679300Y-24620700D01*
X3467400Y-36784500D02*
X31356100Y-36784500D01*
%TO.N,+12V_F*%
X21170200Y-34774100D02*
X29013100Y-26931200D01*
X13300000Y-34600000D02*
X13474100Y-34774100D01*
X13474100Y-34774100D02*
X21170200Y-34774100D01*
%TO.N,+12V*%
X48587500Y-8623300D02*
X55246600Y-8623300D01*
X48587500Y-8623300D02*
X48587500Y-8447600D01*
X52500000Y-43400000D02*
X50081500Y-45818500D01*
X30679700Y-42579700D02*
X24680300Y-42579700D01*
X35200000Y-10200000D02*
X43937000Y-10200000D01*
X55246600Y-8623300D02*
X56823300Y-10200000D01*
X44418500Y-45818500D02*
X42000000Y-43400000D01*
X50081500Y-45818500D02*
X44418500Y-45818500D01*
X18408900Y-38748900D02*
X13741400Y-38748900D01*
X43937000Y-10200000D02*
X45513700Y-8623300D01*
X24680300Y-42579700D02*
X23460000Y-43800000D01*
X23460000Y-43800000D02*
X18408900Y-38748900D01*
X42000000Y-43400000D02*
X31500000Y-43400000D01*
X58400000Y-10200000D02*
X56823300Y-10200000D01*
X45513700Y-8623300D02*
X48587500Y-8623300D01*
X31500000Y-43400000D02*
X30679700Y-42579700D01*
%TO.N,RLY4_DRV*%
X51277000Y-46324500D02*
X19227400Y-46324500D01*
X58400000Y-39300000D02*
X56823300Y-39300000D01*
X17016700Y-43312500D02*
X14073300Y-40369100D01*
X56823300Y-39300000D02*
X56823300Y-40778200D01*
X56823300Y-40778200D02*
X51277000Y-46324500D01*
X17016700Y-44113800D02*
X17016700Y-43312500D01*
X14073300Y-40369100D02*
X13632700Y-40369100D01*
X19227400Y-46324500D02*
X17016700Y-44113800D01*
%TO.N,CH2_FUSED*%
X48923900Y-44600000D02*
X55704000Y-37819900D01*
X55704000Y-37819900D02*
X56824800Y-37819900D01*
X47100000Y-44600000D02*
X48923900Y-44600000D01*
%TO.N,RLY2_DRV*%
X58400000Y-22200000D02*
X56823300Y-22200000D01*
X54793900Y-24229400D02*
X28375200Y-24229400D01*
X56823300Y-22200000D02*
X54793900Y-24229400D01*
X18557200Y-34047400D02*
X16297200Y-34047400D01*
X58400000Y-22200000D02*
X58400000Y-20623300D01*
X58400000Y-20623300D02*
X58258200Y-20623300D01*
X28375200Y-24229400D02*
X18557200Y-34047400D01*
X58258200Y-20623300D02*
X51649000Y-14014100D01*
%TO.N,CH1_OUT*%
X34433800Y-23776700D02*
X23000000Y-12342900D01*
X23000000Y-12342900D02*
X23000000Y-10200000D01*
X49201400Y-23776700D02*
X34433800Y-23776700D01*
X49500000Y-23478100D02*
X49201400Y-23776700D01*
%TO.N,+3V3*%
X23078500Y-5962500D02*
X22340000Y-5224000D01*
X27497500Y-5962500D02*
X23078500Y-5962500D01*
X22340000Y-5224000D02*
X22340000Y-4307600D01*
X9546700Y-4402200D02*
X9546700Y-4770000D01*
X28690000Y-4770000D02*
X27497500Y-5962500D01*
X21625700Y-3593300D02*
X10355600Y-3593300D01*
X8370000Y-4770000D02*
X9546700Y-4770000D01*
X34890400Y-19899500D02*
X39795000Y-19899500D01*
X10355600Y-3593300D02*
X9546700Y-4402200D01*
X22340000Y-4307600D02*
X21625700Y-3593300D01*
%TO.N,CH3_FUSED*%
X37200000Y-33300000D02*
X54636300Y-33300000D01*
X59998500Y-42201500D02*
X57600000Y-44600000D01*
X59998500Y-38662200D02*
X59998500Y-42201500D01*
X54636300Y-33300000D02*
X59998500Y-38662200D01*
%TO.N,RLY3_DRV*%
X43970200Y-39300100D02*
X45546800Y-40876700D01*
X45546800Y-40876700D02*
X50870300Y-40876700D01*
X35200000Y-39300000D02*
X33623300Y-39300000D01*
X35200000Y-39300000D02*
X36776700Y-39300000D01*
X36776700Y-39300000D02*
X43970200Y-39300000D01*
X50870300Y-40876700D02*
X54236000Y-37511000D01*
X15598800Y-37723300D02*
X32046600Y-37723300D01*
X32046600Y-37723300D02*
X33623300Y-39300000D01*
%TO.N,RLY1_DRV*%
X35200000Y-22200000D02*
X40440000Y-22200000D01*
X40440000Y-22200000D02*
X51487700Y-11152300D01*
%TO.N,FLOAT2_SW*%
X34603900Y-19089300D02*
X37718100Y-19089300D01*
X39041400Y-20713800D02*
X38950900Y-20623300D01*
X40931600Y-15901000D02*
X41384600Y-16354000D01*
X47806400Y-36291500D02*
X38483200Y-36291500D01*
X41384600Y-16354000D02*
X41384600Y-19444600D01*
X38483200Y-36291500D02*
X5691500Y-36291500D01*
X41384600Y-19444600D02*
X40115400Y-20713800D01*
X34116500Y-19576700D02*
X34603900Y-19089300D01*
X34559300Y-20623300D02*
X34116500Y-20180500D01*
X40115400Y-20713800D02*
X39041400Y-20713800D01*
X38950900Y-20623300D02*
X34559300Y-20623300D01*
X34116500Y-20180500D02*
X34116500Y-19576700D01*
X5691500Y-36291500D02*
X4000000Y-34600000D01*
X47898400Y-36383500D02*
X47806400Y-36291500D01*
%TO.N,EEPROM_SCL*%
X39719200Y-8892200D02*
X39441800Y-8614800D01*
X36282900Y-13547200D02*
X37529000Y-13547200D01*
X39441800Y-8614800D02*
X34555300Y-8614800D01*
X37529000Y-13547200D02*
X40620900Y-16639100D01*
X41083900Y-8892200D02*
X39719200Y-8892200D01*
X33609900Y-9560200D02*
X33609900Y-10874200D01*
X41390000Y-2230000D02*
X42580600Y-3420600D01*
X42580600Y-3420600D02*
X42580600Y-7395500D01*
X40620900Y-16639100D02*
X40620900Y-19117800D01*
X42681800Y-30544400D02*
X39111700Y-26974300D01*
X42580600Y-7395500D02*
X41083900Y-8892200D01*
X39111700Y-26974300D02*
X39111700Y-24956100D01*
X33609900Y-10874200D02*
X36282900Y-13547200D01*
X34555300Y-8614800D02*
X33609900Y-9560200D01*
%TO.N,GPIO17*%
X14328100Y-5946700D02*
X5570900Y-14703900D01*
X19893300Y-5946700D02*
X14328100Y-5946700D01*
X21070000Y-4770000D02*
X19893300Y-5946700D01*
%TO.N,+5V*%
X10910000Y-2230000D02*
X8370000Y-2230000D01*
%TD*%
%TA.AperFunction,Conductor*%
%TO.N,GND*%
G36*
X30314480Y-43024885D02*
G01*
X30360235Y-43077689D01*
X30370179Y-43146847D01*
X30369914Y-43148598D01*
X30344500Y-43309054D01*
X30344500Y-43490945D01*
X30372951Y-43670580D01*
X30429157Y-43843562D01*
X30485942Y-43955008D01*
X30505297Y-43992993D01*
X30511730Y-44005617D01*
X30618628Y-44152751D01*
X30618632Y-44152756D01*
X30747243Y-44281367D01*
X30747248Y-44281371D01*
X30850039Y-44356052D01*
X30894386Y-44388272D01*
X30976990Y-44430361D01*
X31056437Y-44470842D01*
X31056439Y-44470842D01*
X31056442Y-44470844D01*
X31139887Y-44497957D01*
X31229419Y-44527048D01*
X31409055Y-44555500D01*
X31409060Y-44555500D01*
X31590945Y-44555500D01*
X31770580Y-44527048D01*
X31789929Y-44520761D01*
X31943558Y-44470844D01*
X32105614Y-44388272D01*
X32252758Y-44281366D01*
X32381366Y-44152758D01*
X32488272Y-44005614D01*
X32545548Y-43893203D01*
X32593521Y-43842409D01*
X32656032Y-43825500D01*
X35495430Y-43825500D01*
X35562469Y-43845185D01*
X35608224Y-43897989D01*
X35618168Y-43967147D01*
X35605915Y-44005795D01*
X35529157Y-44156437D01*
X35472951Y-44329419D01*
X35444500Y-44509054D01*
X35444500Y-44690945D01*
X35472951Y-44870580D01*
X35529157Y-45043562D01*
X35611730Y-45205617D01*
X35718628Y-45352751D01*
X35718632Y-45352756D01*
X35847243Y-45481367D01*
X35847248Y-45481371D01*
X35975586Y-45574613D01*
X35994386Y-45588272D01*
X36103974Y-45644110D01*
X36144020Y-45664515D01*
X36194816Y-45712490D01*
X36211611Y-45780311D01*
X36189073Y-45846446D01*
X36134358Y-45889897D01*
X36087725Y-45899000D01*
X19455010Y-45899000D01*
X19387971Y-45879315D01*
X19367329Y-45862681D01*
X18782813Y-45278165D01*
X18749328Y-45216842D01*
X18754312Y-45147150D01*
X18796184Y-45091217D01*
X18832177Y-45072553D01*
X18898215Y-45051096D01*
X19087556Y-44954620D01*
X19087563Y-44954617D01*
X19100761Y-44945026D01*
X19100762Y-44945025D01*
X18453641Y-44297905D01*
X18572993Y-44265925D01*
X18687007Y-44200099D01*
X18780099Y-44107007D01*
X18845925Y-43992993D01*
X18877905Y-43873641D01*
X19525025Y-44520762D01*
X19525026Y-44520761D01*
X19534617Y-44507563D01*
X19534622Y-44507554D01*
X19539512Y-44497957D01*
X19587484Y-44447159D01*
X19655304Y-44430361D01*
X19721440Y-44452895D01*
X19760482Y-44497948D01*
X19765374Y-44507549D01*
X19774973Y-44520761D01*
X20422094Y-43873641D01*
X20454075Y-43992993D01*
X20519901Y-44107007D01*
X20612993Y-44200099D01*
X20727007Y-44265925D01*
X20846358Y-44297905D01*
X20199236Y-44945025D01*
X20212440Y-44954618D01*
X20212453Y-44954626D01*
X20401782Y-45051095D01*
X20603870Y-45116757D01*
X20813754Y-45150000D01*
X21026246Y-45150000D01*
X21236127Y-45116757D01*
X21236130Y-45116757D01*
X21438217Y-45051095D01*
X21627556Y-44954620D01*
X21627563Y-44954617D01*
X21640761Y-44945026D01*
X21640762Y-44945025D01*
X20993641Y-44297905D01*
X21112993Y-44265925D01*
X21227007Y-44200099D01*
X21320099Y-44107007D01*
X21385925Y-43992993D01*
X21417905Y-43873641D01*
X22065025Y-44520762D01*
X22065026Y-44520761D01*
X22074617Y-44507563D01*
X22074620Y-44507556D01*
X22171095Y-44318217D01*
X22180492Y-44289295D01*
X22219928Y-44231618D01*
X22284286Y-44204419D01*
X22353133Y-44216331D01*
X22404610Y-44263574D01*
X22408908Y-44271314D01*
X22476004Y-44402995D01*
X22582441Y-44549494D01*
X22582445Y-44549499D01*
X22710500Y-44677554D01*
X22710505Y-44677558D01*
X22838287Y-44770396D01*
X22857006Y-44783996D01*
X22933094Y-44822765D01*
X23018360Y-44866211D01*
X23018363Y-44866212D01*
X23104476Y-44894191D01*
X23190591Y-44922171D01*
X23273429Y-44935291D01*
X23369449Y-44950500D01*
X23369454Y-44950500D01*
X23550551Y-44950500D01*
X23637259Y-44936765D01*
X23729409Y-44922171D01*
X23901639Y-44866211D01*
X24062994Y-44783996D01*
X24209501Y-44677553D01*
X24337553Y-44549501D01*
X24443996Y-44402994D01*
X24526211Y-44241639D01*
X24582171Y-44069409D01*
X24603027Y-43937729D01*
X24632956Y-43874595D01*
X24692267Y-43837663D01*
X24762130Y-43838661D01*
X24820363Y-43877271D01*
X24848477Y-43941234D01*
X24849500Y-43957127D01*
X24849500Y-44694856D01*
X24849502Y-44694882D01*
X24852413Y-44719987D01*
X24852415Y-44719991D01*
X24897793Y-44822764D01*
X24897794Y-44822765D01*
X24977235Y-44902206D01*
X25080009Y-44947585D01*
X25105135Y-44950500D01*
X26894864Y-44950499D01*
X26894879Y-44950497D01*
X26894882Y-44950497D01*
X26919987Y-44947586D01*
X26919988Y-44947585D01*
X26919991Y-44947585D01*
X27022765Y-44902206D01*
X27102206Y-44822765D01*
X27147585Y-44719991D01*
X27150500Y-44694865D01*
X27150499Y-43129199D01*
X27170184Y-43062161D01*
X27222987Y-43016406D01*
X27274499Y-43005200D01*
X30247441Y-43005200D01*
X30314480Y-43024885D01*
G37*
%TD.AperFunction*%
%TA.AperFunction,Conductor*%
G36*
X18248329Y-39194085D02*
G01*
X18268971Y-39210719D01*
X21329106Y-42270854D01*
X21362591Y-42332177D01*
X21357607Y-42401869D01*
X21315735Y-42457802D01*
X21250271Y-42482219D01*
X21222028Y-42481008D01*
X21026247Y-42450000D01*
X20813754Y-42450000D01*
X20603872Y-42483242D01*
X20603869Y-42483242D01*
X20401782Y-42548904D01*
X20212448Y-42645375D01*
X20199237Y-42654972D01*
X20199237Y-42654973D01*
X20846358Y-43302094D01*
X20727007Y-43334075D01*
X20612993Y-43399901D01*
X20519901Y-43492993D01*
X20454075Y-43607007D01*
X20422094Y-43726358D01*
X19774973Y-43079237D01*
X19774972Y-43079237D01*
X19765372Y-43092452D01*
X19760480Y-43102053D01*
X19712502Y-43152846D01*
X19644680Y-43169637D01*
X19578547Y-43147095D01*
X19539513Y-43102044D01*
X19534626Y-43092452D01*
X19534618Y-43092440D01*
X19525025Y-43079237D01*
X19525025Y-43079236D01*
X18877905Y-43726357D01*
X18845925Y-43607007D01*
X18780099Y-43492993D01*
X18687007Y-43399901D01*
X18572993Y-43334075D01*
X18453642Y-43302094D01*
X19100761Y-42654973D01*
X19087550Y-42645375D01*
X18898217Y-42548904D01*
X18696129Y-42483242D01*
X18486246Y-42450000D01*
X18273754Y-42450000D01*
X18063872Y-42483242D01*
X18063869Y-42483242D01*
X17861782Y-42548904D01*
X17672448Y-42645375D01*
X17659237Y-42654972D01*
X17659237Y-42654973D01*
X18306358Y-43302094D01*
X18187007Y-43334075D01*
X18072993Y-43399901D01*
X17979901Y-43492993D01*
X17914075Y-43607007D01*
X17882094Y-43726358D01*
X17476509Y-43320773D01*
X17445513Y-43264008D01*
X17444304Y-43264333D01*
X17436648Y-43235763D01*
X17436647Y-43235760D01*
X17413203Y-43148263D01*
X17357185Y-43051237D01*
X14334563Y-40028615D01*
X14334561Y-40028614D01*
X14334559Y-40028612D01*
X14237536Y-39972596D01*
X14234557Y-39971362D01*
X14232429Y-39969647D01*
X14230499Y-39968533D01*
X14230672Y-39968232D01*
X14180153Y-39927522D01*
X14178980Y-39925799D01*
X14176814Y-39922558D01*
X14176810Y-39922554D01*
X14176808Y-39922551D01*
X14079245Y-39824988D01*
X14079241Y-39824985D01*
X13964517Y-39748328D01*
X13964504Y-39748321D01*
X13837032Y-39695521D01*
X13837022Y-39695518D01*
X13816458Y-39691428D01*
X13754548Y-39659043D01*
X13719973Y-39598327D01*
X13723713Y-39528558D01*
X13764580Y-39471886D01*
X13816459Y-39448194D01*
X13882155Y-39435125D01*
X13945728Y-39422480D01*
X14073211Y-39369675D01*
X14187942Y-39293014D01*
X14212547Y-39268409D01*
X14270238Y-39210719D01*
X14331561Y-39177234D01*
X14357919Y-39174400D01*
X18181290Y-39174400D01*
X18248329Y-39194085D01*
G37*
%TD.AperFunction*%
%TA.AperFunction,Conductor*%
G36*
X22298020Y-8608185D02*
G01*
X22343775Y-8660989D01*
X22353719Y-8730147D01*
X22324694Y-8793703D01*
X22287276Y-8822985D01*
X22187357Y-8873896D01*
X21989923Y-9017339D01*
X21989918Y-9017343D01*
X21817343Y-9189918D01*
X21817339Y-9189923D01*
X21673896Y-9387357D01*
X21563097Y-9604812D01*
X21487678Y-9836927D01*
X21449500Y-10077973D01*
X21449500Y-10322026D01*
X21487678Y-10563072D01*
X21487678Y-10563074D01*
X21487679Y-10563076D01*
X21534039Y-10705758D01*
X21563097Y-10795187D01*
X21673896Y-11012642D01*
X21817339Y-11210076D01*
X21817343Y-11210081D01*
X21989918Y-11382656D01*
X21989923Y-11382660D01*
X22129568Y-11484117D01*
X22187361Y-11526106D01*
X22404815Y-11636904D01*
X22488818Y-11664198D01*
X22546494Y-11703636D01*
X22573692Y-11767994D01*
X22574500Y-11782129D01*
X22574500Y-12286882D01*
X22574500Y-12398918D01*
X22603497Y-12507137D01*
X22659515Y-12604163D01*
X22659517Y-12604165D01*
X33647571Y-23592219D01*
X33681056Y-23653542D01*
X33676072Y-23723234D01*
X33634200Y-23779167D01*
X33568736Y-23803584D01*
X33559890Y-23803900D01*
X28319182Y-23803900D01*
X28210963Y-23832897D01*
X28210960Y-23832898D01*
X28113940Y-23888913D01*
X28113934Y-23888917D01*
X24760098Y-27242752D01*
X24698775Y-27276237D01*
X24629083Y-27271253D01*
X24573150Y-27229381D01*
X24549945Y-27174472D01*
X24512321Y-26936924D01*
X24436904Y-26704815D01*
X24326106Y-26487361D01*
X24253252Y-26387086D01*
X24182660Y-26289923D01*
X24182656Y-26289918D01*
X24010081Y-26117343D01*
X24010076Y-26117339D01*
X23812642Y-25973896D01*
X23812641Y-25973895D01*
X23812639Y-25973894D01*
X23595185Y-25863096D01*
X23363076Y-25787679D01*
X23363074Y-25787678D01*
X23363072Y-25787678D01*
X23194769Y-25761021D01*
X23122027Y-25749500D01*
X22877973Y-25749500D01*
X22822093Y-25758350D01*
X22636927Y-25787678D01*
X22404812Y-25863097D01*
X22187357Y-25973896D01*
X21989923Y-26117339D01*
X21989918Y-26117343D01*
X21817343Y-26289918D01*
X21817339Y-26289923D01*
X21673896Y-26487357D01*
X21563097Y-26704812D01*
X21487678Y-26936927D01*
X21455746Y-27138536D01*
X21449500Y-27177973D01*
X21449500Y-27422027D01*
X21457940Y-27475314D01*
X21478445Y-27604780D01*
X21487679Y-27663076D01*
X21563096Y-27895185D01*
X21628245Y-28023048D01*
X21673896Y-28112642D01*
X21817339Y-28310076D01*
X21817343Y-28310081D01*
X21989918Y-28482656D01*
X21989923Y-28482660D01*
X22162136Y-28607779D01*
X22187361Y-28626106D01*
X22404815Y-28736904D01*
X22636924Y-28812321D01*
X22874472Y-28849945D01*
X22937603Y-28879873D01*
X22974535Y-28939184D01*
X22973537Y-29009047D01*
X22942752Y-29060098D01*
X18417271Y-33585581D01*
X18355948Y-33619066D01*
X18329590Y-33621900D01*
X16913719Y-33621900D01*
X16846680Y-33602215D01*
X16826038Y-33585581D01*
X16743745Y-33503288D01*
X16743741Y-33503285D01*
X16629017Y-33426628D01*
X16629004Y-33426621D01*
X16501532Y-33373821D01*
X16501522Y-33373818D01*
X16366195Y-33346900D01*
X16366193Y-33346900D01*
X16228207Y-33346900D01*
X16228205Y-33346900D01*
X16092877Y-33373818D01*
X16092867Y-33373821D01*
X15965395Y-33426621D01*
X15965382Y-33426628D01*
X15850658Y-33503285D01*
X15850654Y-33503288D01*
X15753088Y-33600854D01*
X15753085Y-33600858D01*
X15676428Y-33715582D01*
X15676421Y-33715595D01*
X15623621Y-33843067D01*
X15623618Y-33843077D01*
X15596700Y-33978404D01*
X15596700Y-34116397D01*
X15613411Y-34200409D01*
X15607184Y-34270001D01*
X15564321Y-34325178D01*
X15498431Y-34348422D01*
X15491794Y-34348600D01*
X14681091Y-34348600D01*
X14614052Y-34328915D01*
X14568297Y-34276111D01*
X14563160Y-34262918D01*
X14509855Y-34098864D01*
X14416563Y-33915768D01*
X14295780Y-33749524D01*
X14150476Y-33604220D01*
X13984231Y-33483436D01*
X13801135Y-33390144D01*
X13605708Y-33326646D01*
X13453485Y-33302536D01*
X13402745Y-33294500D01*
X13197255Y-33294500D01*
X13129601Y-33305215D01*
X12994293Y-33326646D01*
X12994290Y-33326646D01*
X12798864Y-33390144D01*
X12615768Y-33483436D01*
X12449521Y-33604222D01*
X12304222Y-33749521D01*
X12183436Y-33915768D01*
X12090144Y-34098864D01*
X12026646Y-34294290D01*
X12026646Y-34294293D01*
X11994500Y-34497255D01*
X11994500Y-34702744D01*
X12026646Y-34905706D01*
X12026646Y-34905709D01*
X12090144Y-35101135D01*
X12148931Y-35216511D01*
X12183436Y-35284231D01*
X12304220Y-35450476D01*
X12449524Y-35595780D01*
X12512703Y-35641682D01*
X12555368Y-35697012D01*
X12561347Y-35766626D01*
X12528741Y-35828421D01*
X12467902Y-35862778D01*
X12439817Y-35866000D01*
X5919109Y-35866000D01*
X5852070Y-35846315D01*
X5831428Y-35829681D01*
X5536818Y-35535071D01*
X5503333Y-35473748D01*
X5500499Y-35447390D01*
X5500499Y-33606908D01*
X5500499Y-33606902D01*
X5489876Y-33518436D01*
X5434361Y-33377658D01*
X5434359Y-33377655D01*
X5342922Y-33257077D01*
X5222344Y-33165640D01*
X5222342Y-33165639D01*
X5081564Y-33110124D01*
X5081561Y-33110123D01*
X4993099Y-33099500D01*
X3003196Y-33099501D01*
X3003196Y-33097760D01*
X2941864Y-33083581D01*
X2893105Y-33033537D01*
X2878700Y-32975530D01*
X2878700Y-32630383D01*
X2898385Y-32563344D01*
X2951189Y-32517589D01*
X3020347Y-32507645D01*
X3064700Y-32522996D01*
X3246485Y-32627949D01*
X3246497Y-32627954D01*
X3452381Y-32713236D01*
X3667632Y-32770911D01*
X3667645Y-32770914D01*
X3888575Y-32800000D01*
X4111425Y-32800000D01*
X4332354Y-32770914D01*
X4332367Y-32770911D01*
X4547618Y-32713236D01*
X4753502Y-32627954D01*
X4753514Y-32627949D01*
X4946496Y-32516531D01*
X4946500Y-32516529D01*
X4972393Y-32496658D01*
X4972393Y-32496656D01*
X4155292Y-31679555D01*
X4231591Y-31659111D01*
X4368408Y-31580119D01*
X4480119Y-31468408D01*
X4559111Y-31331591D01*
X4579555Y-31255291D01*
X5396656Y-32072393D01*
X5396658Y-32072393D01*
X5416529Y-32046500D01*
X5416531Y-32046496D01*
X5527949Y-31853514D01*
X5527954Y-31853502D01*
X5613236Y-31647618D01*
X5670911Y-31432367D01*
X5670914Y-31432354D01*
X5700000Y-31211424D01*
X5700000Y-30988575D01*
X5670914Y-30767645D01*
X5670911Y-30767632D01*
X5613236Y-30552381D01*
X5527954Y-30346497D01*
X5527949Y-30346485D01*
X5416530Y-30153502D01*
X5396658Y-30127605D01*
X5396657Y-30127605D01*
X4579555Y-30944707D01*
X4559111Y-30868409D01*
X4480119Y-30731592D01*
X4368408Y-30619881D01*
X4231591Y-30540889D01*
X4155291Y-30520444D01*
X4972394Y-29703341D01*
X4972393Y-29703340D01*
X4946497Y-29683468D01*
X4753514Y-29572050D01*
X4753502Y-29572045D01*
X4547618Y-29486763D01*
X4332367Y-29429088D01*
X4332354Y-29429085D01*
X4111425Y-29400000D01*
X3888575Y-29400000D01*
X3667645Y-29429085D01*
X3667632Y-29429088D01*
X3452381Y-29486763D01*
X3246497Y-29572045D01*
X3246490Y-29572048D01*
X3064699Y-29677004D01*
X2996799Y-29693476D01*
X2930772Y-29670623D01*
X2887582Y-29615701D01*
X2878700Y-29569616D01*
X2878700Y-28074409D01*
X2898385Y-28007370D01*
X2915015Y-27986732D01*
X3064929Y-27836817D01*
X3126252Y-27803333D01*
X3152610Y-27800499D01*
X4993092Y-27800499D01*
X4993098Y-27800499D01*
X5081564Y-27789876D01*
X5222342Y-27734361D01*
X5342922Y-27642922D01*
X5434361Y-27522342D01*
X5489876Y-27381564D01*
X5500500Y-27293099D01*
X5500499Y-25452609D01*
X5520184Y-25385571D01*
X5536818Y-25364929D01*
X5741325Y-25160422D01*
X6019785Y-24881963D01*
X6075803Y-24784937D01*
X6104800Y-24676718D01*
X6104800Y-24564681D01*
X6104800Y-20046309D01*
X6124485Y-19979270D01*
X6141114Y-19958633D01*
X7525709Y-18574038D01*
X9999500Y-18574038D01*
X9999500Y-18825961D01*
X10038910Y-19074785D01*
X10116760Y-19314383D01*
X10179584Y-19437681D01*
X10211652Y-19500618D01*
X10231132Y-19538848D01*
X10379201Y-19742649D01*
X10379205Y-19742654D01*
X10557345Y-19920794D01*
X10557350Y-19920798D01*
X10730102Y-20046309D01*
X10761155Y-20068870D01*
X10870300Y-20124482D01*
X10985616Y-20183239D01*
X10985618Y-20183239D01*
X10985621Y-20183241D01*
X11225215Y-20261090D01*
X11474038Y-20300500D01*
X11474039Y-20300500D01*
X11725961Y-20300500D01*
X11725962Y-20300500D01*
X11974785Y-20261090D01*
X12214379Y-20183241D01*
X12438845Y-20068870D01*
X12642656Y-19920793D01*
X12820793Y-19742656D01*
X12968870Y-19538845D01*
X13083241Y-19314379D01*
X13161090Y-19074785D01*
X13200500Y-18825962D01*
X13200500Y-18574038D01*
X13161090Y-18325215D01*
X13083241Y-18085621D01*
X13083239Y-18085618D01*
X13083239Y-18085616D01*
X13041747Y-18004184D01*
X12968870Y-17861155D01*
X12888474Y-17750499D01*
X12820798Y-17657350D01*
X12820794Y-17657345D01*
X12642654Y-17479205D01*
X12642649Y-17479201D01*
X12438848Y-17331132D01*
X12438847Y-17331131D01*
X12438845Y-17331130D01*
X12368747Y-17295413D01*
X12214383Y-17216760D01*
X11974785Y-17138910D01*
X11725962Y-17099500D01*
X11474038Y-17099500D01*
X11349626Y-17119205D01*
X11225214Y-17138910D01*
X10985616Y-17216760D01*
X10761151Y-17331132D01*
X10557350Y-17479201D01*
X10557345Y-17479205D01*
X10379205Y-17657345D01*
X10379201Y-17657350D01*
X10231132Y-17861151D01*
X10116760Y-18085616D01*
X10038910Y-18325214D01*
X9999500Y-18574038D01*
X7525709Y-18574038D01*
X12787821Y-13311925D01*
X12849142Y-13278442D01*
X12918834Y-13283426D01*
X12974767Y-13325298D01*
X12999184Y-13390762D01*
X12999500Y-13399608D01*
X12999500Y-15344856D01*
X12999502Y-15344882D01*
X13002413Y-15369987D01*
X13002415Y-15369991D01*
X13047793Y-15472764D01*
X13047794Y-15472765D01*
X13127235Y-15552206D01*
X13230009Y-15597585D01*
X13255135Y-15600500D01*
X14050500Y-15600499D01*
X14117539Y-15620183D01*
X14163294Y-15672987D01*
X14174500Y-15724499D01*
X14174500Y-28142986D01*
X14154815Y-28210025D01*
X14102011Y-28255780D01*
X14088821Y-28260915D01*
X14068049Y-28267665D01*
X13998857Y-28290147D01*
X13815768Y-28383436D01*
X13649521Y-28504222D01*
X13504222Y-28649521D01*
X13383436Y-28815768D01*
X13290144Y-28998864D01*
X13226646Y-29194290D01*
X13226646Y-29194293D01*
X13194500Y-29397255D01*
X13194500Y-29602744D01*
X13226646Y-29805706D01*
X13226646Y-29805709D01*
X13290144Y-30001135D01*
X13290146Y-30001138D01*
X13383436Y-30184231D01*
X13504220Y-30350476D01*
X13649524Y-30495780D01*
X13815769Y-30616564D01*
X13998862Y-30709854D01*
X13998864Y-30709855D01*
X14194291Y-30773353D01*
X14194292Y-30773353D01*
X14194295Y-30773354D01*
X14397255Y-30805500D01*
X14397256Y-30805500D01*
X14602744Y-30805500D01*
X14602745Y-30805500D01*
X14805705Y-30773354D01*
X14805708Y-30773353D01*
X14805709Y-30773353D01*
X15001135Y-30709855D01*
X15001135Y-30709854D01*
X15001138Y-30709854D01*
X15184231Y-30616564D01*
X15350476Y-30495780D01*
X15495780Y-30350476D01*
X15616564Y-30184231D01*
X15709854Y-30001138D01*
X15735039Y-29923628D01*
X15773353Y-29805709D01*
X15773353Y-29805708D01*
X15773354Y-29805705D01*
X15805500Y-29602745D01*
X15805500Y-29397255D01*
X15773354Y-29194295D01*
X15773353Y-29194291D01*
X15773353Y-29194290D01*
X15709855Y-28998864D01*
X15616563Y-28815768D01*
X15559265Y-28736904D01*
X15495780Y-28649524D01*
X15350476Y-28504220D01*
X15184231Y-28383436D01*
X15184230Y-28383435D01*
X15184228Y-28383434D01*
X15093204Y-28337054D01*
X15042409Y-28289079D01*
X15025500Y-28226570D01*
X15025500Y-22077973D01*
X21449500Y-22077973D01*
X21449500Y-22322027D01*
X21487679Y-22563076D01*
X21563096Y-22795185D01*
X21660205Y-22985773D01*
X21673896Y-23012642D01*
X21817339Y-23210076D01*
X21817343Y-23210081D01*
X21989918Y-23382656D01*
X21989923Y-23382660D01*
X22162136Y-23507779D01*
X22187361Y-23526106D01*
X22404815Y-23636904D01*
X22636924Y-23712321D01*
X22877973Y-23750500D01*
X22877974Y-23750500D01*
X23122026Y-23750500D01*
X23122027Y-23750500D01*
X23363076Y-23712321D01*
X23595185Y-23636904D01*
X23812639Y-23526106D01*
X24010083Y-23382655D01*
X24182655Y-23210083D01*
X24326106Y-23012639D01*
X24436904Y-22795185D01*
X24512321Y-22563076D01*
X24550500Y-22322027D01*
X24550500Y-22077973D01*
X24512321Y-21836924D01*
X24436904Y-21604815D01*
X24326106Y-21387361D01*
X24242331Y-21272054D01*
X24182660Y-21189923D01*
X24182656Y-21189918D01*
X24010081Y-21017343D01*
X24010076Y-21017339D01*
X23812642Y-20873896D01*
X23812641Y-20873895D01*
X23812639Y-20873894D01*
X23595185Y-20763096D01*
X23363076Y-20687679D01*
X23363074Y-20687678D01*
X23363072Y-20687678D01*
X23194769Y-20661021D01*
X23122027Y-20649500D01*
X22877973Y-20649500D01*
X22822093Y-20658350D01*
X22636927Y-20687678D01*
X22404812Y-20763097D01*
X22187357Y-20873896D01*
X21989923Y-21017339D01*
X21989918Y-21017343D01*
X21817343Y-21189918D01*
X21817339Y-21189923D01*
X21673896Y-21387357D01*
X21563097Y-21604812D01*
X21487678Y-21836927D01*
X21454488Y-22046479D01*
X21449500Y-22077973D01*
X15025500Y-22077973D01*
X15025500Y-15724499D01*
X15045185Y-15657460D01*
X15097989Y-15611705D01*
X15149500Y-15600499D01*
X15944856Y-15600499D01*
X15944864Y-15600499D01*
X15944879Y-15600497D01*
X15944882Y-15600497D01*
X15969987Y-15597586D01*
X15969988Y-15597585D01*
X15969991Y-15597585D01*
X16072765Y-15552206D01*
X16152206Y-15472765D01*
X16197585Y-15369991D01*
X16200500Y-15344865D01*
X16200499Y-12655136D01*
X16200497Y-12655117D01*
X16197586Y-12630012D01*
X16197585Y-12630010D01*
X16197585Y-12630009D01*
X16152206Y-12527235D01*
X16072765Y-12447794D01*
X15969992Y-12402415D01*
X15944868Y-12399500D01*
X15944865Y-12399500D01*
X13999609Y-12399500D01*
X13932570Y-12379815D01*
X13886815Y-12327011D01*
X13876871Y-12257853D01*
X13905896Y-12194297D01*
X13911928Y-12187819D01*
X15621027Y-10478721D01*
X17474929Y-8624819D01*
X17536252Y-8591334D01*
X17562610Y-8588500D01*
X22230981Y-8588500D01*
X22298020Y-8608185D01*
G37*
%TD.AperFunction*%
%TA.AperFunction,Conductor*%
G36*
X35076630Y-4780253D02*
G01*
X35134863Y-4818863D01*
X35162473Y-4879321D01*
X35187829Y-5039410D01*
X35243787Y-5211636D01*
X35243788Y-5211639D01*
X35295271Y-5312678D01*
X35317704Y-5356705D01*
X35326006Y-5372997D01*
X35432441Y-5519494D01*
X35432445Y-5519499D01*
X35560500Y-5647554D01*
X35560505Y-5647558D01*
X35628790Y-5697169D01*
X35707006Y-5753996D01*
X35783094Y-5792765D01*
X35868360Y-5836211D01*
X35868363Y-5836212D01*
X35923400Y-5854094D01*
X36040591Y-5892171D01*
X36123429Y-5905291D01*
X36219449Y-5920500D01*
X36219454Y-5920500D01*
X36400551Y-5920500D01*
X36487259Y-5906765D01*
X36579409Y-5892171D01*
X36751639Y-5836211D01*
X36912994Y-5753996D01*
X37059501Y-5647553D01*
X37187553Y-5519501D01*
X37293996Y-5372994D01*
X37361090Y-5241314D01*
X37409065Y-5190519D01*
X37476886Y-5173724D01*
X37543021Y-5196262D01*
X37586472Y-5250977D01*
X37589506Y-5259292D01*
X37598904Y-5288217D01*
X37695375Y-5477550D01*
X37704973Y-5490761D01*
X38352094Y-4843641D01*
X38384075Y-4962993D01*
X38449901Y-5077007D01*
X38542993Y-5170099D01*
X38657007Y-5235925D01*
X38776358Y-5267905D01*
X38129236Y-5915025D01*
X38142440Y-5924618D01*
X38142453Y-5924626D01*
X38331782Y-6021095D01*
X38533870Y-6086757D01*
X38743754Y-6120000D01*
X38956246Y-6120000D01*
X39166127Y-6086757D01*
X39166130Y-6086757D01*
X39368217Y-6021095D01*
X39557556Y-5924620D01*
X39557563Y-5924617D01*
X39570761Y-5915026D01*
X39570762Y-5915025D01*
X38923641Y-5267905D01*
X39042993Y-5235925D01*
X39157007Y-5170099D01*
X39250099Y-5077007D01*
X39315925Y-4962993D01*
X39347905Y-4843641D01*
X39995025Y-5490762D01*
X39995026Y-5490761D01*
X40004617Y-5477563D01*
X40004620Y-5477556D01*
X40101095Y-5288217D01*
X40110492Y-5259295D01*
X40149928Y-5201618D01*
X40214286Y-5174419D01*
X40283133Y-5186331D01*
X40334610Y-5233574D01*
X40338908Y-5241314D01*
X40406004Y-5372995D01*
X40512441Y-5519494D01*
X40512445Y-5519499D01*
X40640500Y-5647554D01*
X40640505Y-5647558D01*
X40708790Y-5697169D01*
X40787006Y-5753996D01*
X40863094Y-5792765D01*
X40948360Y-5836211D01*
X40948363Y-5836212D01*
X41003400Y-5854094D01*
X41120591Y-5892171D01*
X41203429Y-5905291D01*
X41299449Y-5920500D01*
X41299454Y-5920500D01*
X41480551Y-5920500D01*
X41567259Y-5906765D01*
X41659409Y-5892171D01*
X41831639Y-5836211D01*
X41831639Y-5836210D01*
X41831644Y-5836209D01*
X41948547Y-5776643D01*
X41974805Y-5763263D01*
X42043473Y-5750367D01*
X42108214Y-5776643D01*
X42148472Y-5833749D01*
X42155100Y-5873748D01*
X42155100Y-7167889D01*
X42135415Y-7234928D01*
X42118781Y-7255570D01*
X41546663Y-7827687D01*
X41485340Y-7861172D01*
X41415648Y-7856188D01*
X41359715Y-7814316D01*
X41355880Y-7808897D01*
X41294114Y-7716457D01*
X41196545Y-7618888D01*
X41196541Y-7618885D01*
X41081817Y-7542228D01*
X41081804Y-7542221D01*
X40954332Y-7489421D01*
X40954322Y-7489418D01*
X40818995Y-7462500D01*
X40818993Y-7462500D01*
X40681007Y-7462500D01*
X40681005Y-7462500D01*
X40545677Y-7489418D01*
X40545667Y-7489421D01*
X40418195Y-7542221D01*
X40418182Y-7542228D01*
X40303458Y-7618885D01*
X40303454Y-7618888D01*
X40221162Y-7701181D01*
X40159839Y-7734666D01*
X40133481Y-7737500D01*
X17278982Y-7737500D01*
X17170763Y-7766497D01*
X17170760Y-7766498D01*
X17073740Y-7822513D01*
X17073734Y-7822517D01*
X10600949Y-14295302D01*
X10539626Y-14328787D01*
X10469934Y-14323803D01*
X10414001Y-14281931D01*
X10389584Y-14216467D01*
X10390329Y-14191435D01*
X10399999Y-14117985D01*
X10400000Y-14117971D01*
X10400000Y-13882028D01*
X10399999Y-13882014D01*
X10369200Y-13648085D01*
X10308129Y-13420162D01*
X10217839Y-13202180D01*
X10217831Y-13202164D01*
X10099861Y-12997836D01*
X10099851Y-12997822D01*
X10067979Y-12956284D01*
X9336557Y-13687705D01*
X9308951Y-13621058D01*
X9221401Y-13490030D01*
X9109970Y-13378599D01*
X8978942Y-13291049D01*
X8912293Y-13263441D01*
X9643715Y-12532020D01*
X9602178Y-12500148D01*
X9602163Y-12500138D01*
X9397835Y-12382168D01*
X9397819Y-12382160D01*
X9179836Y-12291870D01*
X9179838Y-12291870D01*
X8951917Y-12230799D01*
X8930657Y-12228000D01*
X8866762Y-12199731D01*
X8828293Y-12141405D01*
X8827464Y-12071540D01*
X8859164Y-12017383D01*
X14468029Y-6408519D01*
X14529352Y-6375034D01*
X14555710Y-6372200D01*
X19949316Y-6372200D01*
X19949318Y-6372200D01*
X20057537Y-6343203D01*
X20154563Y-6287185D01*
X20557404Y-5884342D01*
X20618725Y-5850859D01*
X20683399Y-5854093D01*
X20738294Y-5871929D01*
X20800590Y-5892171D01*
X20979449Y-5920500D01*
X20979454Y-5920500D01*
X21160551Y-5920500D01*
X21247259Y-5906765D01*
X21339409Y-5892171D01*
X21511639Y-5836211D01*
X21672994Y-5753996D01*
X21819501Y-5647553D01*
X21902972Y-5564082D01*
X21964295Y-5530597D01*
X22033987Y-5535581D01*
X22078334Y-5564082D01*
X22738015Y-6223763D01*
X22817237Y-6302985D01*
X22914263Y-6359003D01*
X23022482Y-6388000D01*
X23022484Y-6388000D01*
X27553516Y-6388000D01*
X27553518Y-6388000D01*
X27661737Y-6359003D01*
X27758763Y-6302985D01*
X28177404Y-5884342D01*
X28238725Y-5850859D01*
X28303399Y-5854093D01*
X28358294Y-5871929D01*
X28420590Y-5892171D01*
X28599449Y-5920500D01*
X28599454Y-5920500D01*
X28780551Y-5920500D01*
X28867259Y-5906765D01*
X28959409Y-5892171D01*
X29131639Y-5836211D01*
X29292994Y-5753996D01*
X29439501Y-5647553D01*
X29567553Y-5519501D01*
X29673996Y-5372994D01*
X29756211Y-5211639D01*
X29812171Y-5039409D01*
X29826422Y-4949425D01*
X29837527Y-4879321D01*
X29867456Y-4816186D01*
X29926768Y-4779255D01*
X29996630Y-4780253D01*
X30054863Y-4818863D01*
X30082473Y-4879321D01*
X30107829Y-5039410D01*
X30163787Y-5211636D01*
X30163788Y-5211639D01*
X30215271Y-5312678D01*
X30237704Y-5356705D01*
X30246006Y-5372997D01*
X30352441Y-5519494D01*
X30352445Y-5519499D01*
X30480500Y-5647554D01*
X30480505Y-5647558D01*
X30548790Y-5697169D01*
X30627006Y-5753996D01*
X30703094Y-5792765D01*
X30788360Y-5836211D01*
X30788363Y-5836212D01*
X30843400Y-5854094D01*
X30960591Y-5892171D01*
X31043429Y-5905291D01*
X31139449Y-5920500D01*
X31139454Y-5920500D01*
X31320551Y-5920500D01*
X31407259Y-5906765D01*
X31499409Y-5892171D01*
X31671639Y-5836211D01*
X31832994Y-5753996D01*
X31979501Y-5647553D01*
X32107553Y-5519501D01*
X32213996Y-5372994D01*
X32296211Y-5211639D01*
X32352171Y-5039409D01*
X32366422Y-4949425D01*
X32377527Y-4879321D01*
X32407456Y-4816186D01*
X32466768Y-4779255D01*
X32536630Y-4780253D01*
X32594863Y-4818863D01*
X32622473Y-4879321D01*
X32647829Y-5039410D01*
X32703787Y-5211636D01*
X32703788Y-5211639D01*
X32755271Y-5312678D01*
X32777704Y-5356705D01*
X32786006Y-5372997D01*
X32892441Y-5519494D01*
X32892445Y-5519499D01*
X33020500Y-5647554D01*
X33020505Y-5647558D01*
X33088790Y-5697169D01*
X33167006Y-5753996D01*
X33243094Y-5792765D01*
X33328360Y-5836211D01*
X33328363Y-5836212D01*
X33383400Y-5854094D01*
X33500591Y-5892171D01*
X33583429Y-5905291D01*
X33679449Y-5920500D01*
X33679454Y-5920500D01*
X33860551Y-5920500D01*
X33947259Y-5906765D01*
X34039409Y-5892171D01*
X34211639Y-5836211D01*
X34372994Y-5753996D01*
X34519501Y-5647553D01*
X34647553Y-5519501D01*
X34753996Y-5372994D01*
X34836211Y-5211639D01*
X34892171Y-5039409D01*
X34906422Y-4949425D01*
X34917527Y-4879321D01*
X34947456Y-4816186D01*
X35006768Y-4779255D01*
X35076630Y-4780253D01*
G37*
%TD.AperFunction*%
%TA.AperFunction,Conductor*%
G36*
X24755025Y-2950762D02*
G01*
X24755026Y-2950761D01*
X24764617Y-2937563D01*
X24764620Y-2937556D01*
X24861095Y-2748217D01*
X24870492Y-2719295D01*
X24909928Y-2661618D01*
X24974286Y-2634419D01*
X25043133Y-2646331D01*
X25094610Y-2693574D01*
X25098908Y-2701314D01*
X25166004Y-2832995D01*
X25272441Y-2979494D01*
X25272445Y-2979499D01*
X25400500Y-3107554D01*
X25400505Y-3107558D01*
X25471774Y-3159337D01*
X25547006Y-3213996D01*
X25652484Y-3267740D01*
X25708360Y-3296211D01*
X25708363Y-3296212D01*
X25724411Y-3301426D01*
X25880591Y-3352171D01*
X25953639Y-3363740D01*
X26040678Y-3377527D01*
X26103813Y-3407456D01*
X26140744Y-3466768D01*
X26139746Y-3536631D01*
X26101136Y-3594863D01*
X26040678Y-3622473D01*
X25880589Y-3647829D01*
X25708363Y-3703787D01*
X25708360Y-3703788D01*
X25547002Y-3786006D01*
X25400505Y-3892441D01*
X25400500Y-3892445D01*
X25272445Y-4020500D01*
X25272441Y-4020505D01*
X25166006Y-4167002D01*
X25083788Y-4328360D01*
X25083787Y-4328363D01*
X25027829Y-4500589D01*
X25002473Y-4660678D01*
X24972544Y-4723813D01*
X24913232Y-4760744D01*
X24843369Y-4759746D01*
X24785137Y-4721136D01*
X24757527Y-4660678D01*
X24734596Y-4515904D01*
X24732171Y-4500591D01*
X24688530Y-4366275D01*
X24676212Y-4328363D01*
X24676211Y-4328360D01*
X24628596Y-4234912D01*
X24593996Y-4167006D01*
X24524819Y-4071791D01*
X24487558Y-4020505D01*
X24487554Y-4020500D01*
X24359499Y-3892445D01*
X24359494Y-3892441D01*
X24212995Y-3786004D01*
X24081314Y-3718908D01*
X24030519Y-3670934D01*
X24013724Y-3603113D01*
X24036262Y-3536978D01*
X24090977Y-3493527D01*
X24099295Y-3490492D01*
X24128217Y-3481095D01*
X24317556Y-3384620D01*
X24317563Y-3384617D01*
X24330761Y-3375026D01*
X24330762Y-3375025D01*
X23683641Y-2727905D01*
X23802993Y-2695925D01*
X23917007Y-2630099D01*
X24010099Y-2537007D01*
X24075925Y-2422993D01*
X24107905Y-2303641D01*
X24755025Y-2950762D01*
G37*
%TD.AperFunction*%
%TA.AperFunction,Conductor*%
G36*
X27456630Y-2240253D02*
G01*
X27514863Y-2278863D01*
X27542473Y-2339321D01*
X27567829Y-2499410D01*
X27623787Y-2671636D01*
X27623788Y-2671639D01*
X27706006Y-2832997D01*
X27812441Y-2979494D01*
X27812445Y-2979499D01*
X27940500Y-3107554D01*
X27940505Y-3107558D01*
X28011774Y-3159337D01*
X28087006Y-3213996D01*
X28192484Y-3267740D01*
X28248360Y-3296211D01*
X28248363Y-3296212D01*
X28264411Y-3301426D01*
X28420591Y-3352171D01*
X28493639Y-3363740D01*
X28580678Y-3377527D01*
X28643813Y-3407456D01*
X28680744Y-3466768D01*
X28679746Y-3536631D01*
X28641136Y-3594863D01*
X28580678Y-3622473D01*
X28420589Y-3647829D01*
X28248363Y-3703787D01*
X28248360Y-3703788D01*
X28087002Y-3786006D01*
X27940505Y-3892441D01*
X27940500Y-3892445D01*
X27812445Y-4020500D01*
X27812441Y-4020505D01*
X27706006Y-4167002D01*
X27623788Y-4328360D01*
X27623787Y-4328363D01*
X27567829Y-4500589D01*
X27542473Y-4660678D01*
X27512544Y-4723813D01*
X27453232Y-4760744D01*
X27383369Y-4759746D01*
X27325137Y-4721136D01*
X27297527Y-4660678D01*
X27274596Y-4515904D01*
X27272171Y-4500591D01*
X27228530Y-4366275D01*
X27216212Y-4328363D01*
X27216211Y-4328360D01*
X27168596Y-4234912D01*
X27133996Y-4167006D01*
X27064819Y-4071791D01*
X27027558Y-4020505D01*
X27027554Y-4020500D01*
X26899499Y-3892445D01*
X26899494Y-3892441D01*
X26752997Y-3786006D01*
X26752996Y-3786005D01*
X26752994Y-3786004D01*
X26676906Y-3747235D01*
X26591639Y-3703788D01*
X26591636Y-3703787D01*
X26419410Y-3647829D01*
X26259321Y-3622473D01*
X26196186Y-3592544D01*
X26159255Y-3533232D01*
X26160253Y-3463370D01*
X26198863Y-3405137D01*
X26259321Y-3377527D01*
X26329425Y-3366422D01*
X26419409Y-3352171D01*
X26591639Y-3296211D01*
X26752994Y-3213996D01*
X26899501Y-3107553D01*
X27027553Y-2979501D01*
X27133996Y-2832994D01*
X27216211Y-2671639D01*
X27272171Y-2499409D01*
X27290616Y-2382951D01*
X27297527Y-2339321D01*
X27327456Y-2276186D01*
X27386768Y-2239255D01*
X27456630Y-2240253D01*
G37*
%TD.AperFunction*%
%TA.AperFunction,Conductor*%
G36*
X30764075Y-2422993D02*
G01*
X30829901Y-2537007D01*
X30922993Y-2630099D01*
X31037007Y-2695925D01*
X31156358Y-2727905D01*
X30509236Y-3375025D01*
X30522440Y-3384618D01*
X30522453Y-3384626D01*
X30711780Y-3481094D01*
X30740705Y-3490492D01*
X30798381Y-3529929D01*
X30825580Y-3594287D01*
X30813667Y-3663134D01*
X30766424Y-3714610D01*
X30758685Y-3718908D01*
X30627004Y-3786004D01*
X30480505Y-3892441D01*
X30480500Y-3892445D01*
X30352445Y-4020500D01*
X30352441Y-4020505D01*
X30246006Y-4167002D01*
X30163788Y-4328360D01*
X30163787Y-4328363D01*
X30107829Y-4500589D01*
X30082473Y-4660678D01*
X30052544Y-4723813D01*
X29993232Y-4760744D01*
X29923369Y-4759746D01*
X29865137Y-4721136D01*
X29837527Y-4660678D01*
X29814596Y-4515904D01*
X29812171Y-4500591D01*
X29768530Y-4366275D01*
X29756212Y-4328363D01*
X29756211Y-4328360D01*
X29708596Y-4234912D01*
X29673996Y-4167006D01*
X29604819Y-4071791D01*
X29567558Y-4020505D01*
X29567554Y-4020500D01*
X29439499Y-3892445D01*
X29439494Y-3892441D01*
X29292997Y-3786006D01*
X29292996Y-3786005D01*
X29292994Y-3786004D01*
X29216906Y-3747235D01*
X29131639Y-3703788D01*
X29131636Y-3703787D01*
X28959410Y-3647829D01*
X28799321Y-3622473D01*
X28736186Y-3592544D01*
X28699255Y-3533232D01*
X28700253Y-3463370D01*
X28738863Y-3405137D01*
X28799321Y-3377527D01*
X28869425Y-3366422D01*
X28959409Y-3352171D01*
X29131639Y-3296211D01*
X29292994Y-3213996D01*
X29439501Y-3107553D01*
X29567553Y-2979501D01*
X29673996Y-2832994D01*
X29741090Y-2701314D01*
X29789065Y-2650519D01*
X29856886Y-2633724D01*
X29923021Y-2656262D01*
X29966472Y-2710977D01*
X29969506Y-2719292D01*
X29978904Y-2748217D01*
X30075375Y-2937550D01*
X30084973Y-2950761D01*
X30732094Y-2303641D01*
X30764075Y-2422993D01*
G37*
%TD.AperFunction*%
%TA.AperFunction,Conductor*%
G36*
X32375025Y-2950762D02*
G01*
X32375026Y-2950761D01*
X32384617Y-2937563D01*
X32384620Y-2937556D01*
X32481095Y-2748217D01*
X32490492Y-2719295D01*
X32529928Y-2661618D01*
X32594286Y-2634419D01*
X32663133Y-2646331D01*
X32714610Y-2693574D01*
X32718908Y-2701314D01*
X32786004Y-2832995D01*
X32892441Y-2979494D01*
X32892445Y-2979499D01*
X33020500Y-3107554D01*
X33020505Y-3107558D01*
X33091774Y-3159337D01*
X33167006Y-3213996D01*
X33272484Y-3267740D01*
X33328360Y-3296211D01*
X33328363Y-3296212D01*
X33344411Y-3301426D01*
X33500591Y-3352171D01*
X33573639Y-3363740D01*
X33660678Y-3377527D01*
X33723813Y-3407456D01*
X33760744Y-3466768D01*
X33759746Y-3536631D01*
X33721136Y-3594863D01*
X33660678Y-3622473D01*
X33500589Y-3647829D01*
X33328363Y-3703787D01*
X33328360Y-3703788D01*
X33167002Y-3786006D01*
X33020505Y-3892441D01*
X33020500Y-3892445D01*
X32892445Y-4020500D01*
X32892441Y-4020505D01*
X32786006Y-4167002D01*
X32703788Y-4328360D01*
X32703787Y-4328363D01*
X32647829Y-4500589D01*
X32622473Y-4660678D01*
X32592544Y-4723813D01*
X32533232Y-4760744D01*
X32463369Y-4759746D01*
X32405137Y-4721136D01*
X32377527Y-4660678D01*
X32354596Y-4515904D01*
X32352171Y-4500591D01*
X32308530Y-4366275D01*
X32296212Y-4328363D01*
X32296211Y-4328360D01*
X32248596Y-4234912D01*
X32213996Y-4167006D01*
X32144819Y-4071791D01*
X32107558Y-4020505D01*
X32107554Y-4020500D01*
X31979499Y-3892445D01*
X31979494Y-3892441D01*
X31832995Y-3786004D01*
X31701314Y-3718908D01*
X31650519Y-3670934D01*
X31633724Y-3603113D01*
X31656262Y-3536978D01*
X31710977Y-3493527D01*
X31719295Y-3490492D01*
X31748217Y-3481095D01*
X31937556Y-3384620D01*
X31937563Y-3384617D01*
X31950761Y-3375026D01*
X31950762Y-3375025D01*
X31303641Y-2727905D01*
X31422993Y-2695925D01*
X31537007Y-2630099D01*
X31630099Y-2537007D01*
X31695925Y-2422993D01*
X31727905Y-2303641D01*
X32375025Y-2950762D01*
G37*
%TD.AperFunction*%
%TA.AperFunction,Conductor*%
G36*
X35076630Y-2240253D02*
G01*
X35134863Y-2278863D01*
X35162473Y-2339321D01*
X35187829Y-2499410D01*
X35243787Y-2671636D01*
X35243788Y-2671639D01*
X35326006Y-2832997D01*
X35432441Y-2979494D01*
X35432445Y-2979499D01*
X35560500Y-3107554D01*
X35560505Y-3107558D01*
X35631774Y-3159337D01*
X35707006Y-3213996D01*
X35812484Y-3267740D01*
X35868360Y-3296211D01*
X35868363Y-3296212D01*
X35884411Y-3301426D01*
X36040591Y-3352171D01*
X36113639Y-3363740D01*
X36200678Y-3377527D01*
X36263813Y-3407456D01*
X36300744Y-3466768D01*
X36299746Y-3536631D01*
X36261136Y-3594863D01*
X36200678Y-3622473D01*
X36040589Y-3647829D01*
X35868363Y-3703787D01*
X35868360Y-3703788D01*
X35707002Y-3786006D01*
X35560505Y-3892441D01*
X35560500Y-3892445D01*
X35432445Y-4020500D01*
X35432441Y-4020505D01*
X35326006Y-4167002D01*
X35243788Y-4328360D01*
X35243787Y-4328363D01*
X35187829Y-4500589D01*
X35162473Y-4660678D01*
X35132544Y-4723813D01*
X35073232Y-4760744D01*
X35003369Y-4759746D01*
X34945137Y-4721136D01*
X34917527Y-4660678D01*
X34894596Y-4515904D01*
X34892171Y-4500591D01*
X34848530Y-4366275D01*
X34836212Y-4328363D01*
X34836211Y-4328360D01*
X34788596Y-4234912D01*
X34753996Y-4167006D01*
X34684819Y-4071791D01*
X34647558Y-4020505D01*
X34647554Y-4020500D01*
X34519499Y-3892445D01*
X34519494Y-3892441D01*
X34372997Y-3786006D01*
X34372996Y-3786005D01*
X34372994Y-3786004D01*
X34296906Y-3747235D01*
X34211639Y-3703788D01*
X34211636Y-3703787D01*
X34039410Y-3647829D01*
X33879321Y-3622473D01*
X33816186Y-3592544D01*
X33779255Y-3533232D01*
X33780253Y-3463370D01*
X33818863Y-3405137D01*
X33879321Y-3377527D01*
X33949425Y-3366422D01*
X34039409Y-3352171D01*
X34211639Y-3296211D01*
X34372994Y-3213996D01*
X34519501Y-3107553D01*
X34647553Y-2979501D01*
X34753996Y-2832994D01*
X34836211Y-2671639D01*
X34892171Y-2499409D01*
X34910616Y-2382951D01*
X34917527Y-2339321D01*
X34947456Y-2276186D01*
X35006768Y-2239255D01*
X35076630Y-2240253D01*
G37*
%TD.AperFunction*%
%TA.AperFunction,Conductor*%
G36*
X45075025Y-2950762D02*
G01*
X45075026Y-2950761D01*
X45084617Y-2937563D01*
X45084620Y-2937556D01*
X45181095Y-2748217D01*
X45190492Y-2719295D01*
X45229928Y-2661618D01*
X45294286Y-2634419D01*
X45363133Y-2646331D01*
X45414610Y-2693574D01*
X45418908Y-2701314D01*
X45486004Y-2832995D01*
X45592441Y-2979494D01*
X45592445Y-2979499D01*
X45720500Y-3107554D01*
X45720505Y-3107558D01*
X45791774Y-3159337D01*
X45867006Y-3213996D01*
X45972484Y-3267740D01*
X46028360Y-3296211D01*
X46028363Y-3296212D01*
X46044411Y-3301426D01*
X46200591Y-3352171D01*
X46273639Y-3363740D01*
X46360678Y-3377527D01*
X46423813Y-3407456D01*
X46460744Y-3466768D01*
X46459746Y-3536631D01*
X46421136Y-3594863D01*
X46360678Y-3622473D01*
X46200589Y-3647829D01*
X46028363Y-3703787D01*
X46028360Y-3703788D01*
X45867002Y-3786006D01*
X45720505Y-3892441D01*
X45720500Y-3892445D01*
X45592445Y-4020500D01*
X45592441Y-4020505D01*
X45486006Y-4167002D01*
X45403788Y-4328360D01*
X45403787Y-4328363D01*
X45347829Y-4500589D01*
X45322473Y-4660678D01*
X45292544Y-4723813D01*
X45233232Y-4760744D01*
X45163369Y-4759746D01*
X45105137Y-4721136D01*
X45077527Y-4660678D01*
X45054596Y-4515904D01*
X45052171Y-4500591D01*
X45008530Y-4366275D01*
X44996212Y-4328363D01*
X44996211Y-4328360D01*
X44948596Y-4234912D01*
X44913996Y-4167006D01*
X44844819Y-4071791D01*
X44807558Y-4020505D01*
X44807554Y-4020500D01*
X44679499Y-3892445D01*
X44679494Y-3892441D01*
X44532995Y-3786004D01*
X44401314Y-3718908D01*
X44350519Y-3670934D01*
X44333724Y-3603113D01*
X44356262Y-3536978D01*
X44410977Y-3493527D01*
X44419295Y-3490492D01*
X44448217Y-3481095D01*
X44637556Y-3384620D01*
X44637563Y-3384617D01*
X44650761Y-3375026D01*
X44650762Y-3375025D01*
X44003641Y-2727905D01*
X44122993Y-2695925D01*
X44237007Y-2630099D01*
X44330099Y-2537007D01*
X44395925Y-2422993D01*
X44427905Y-2303641D01*
X45075025Y-2950762D01*
G37*
%TD.AperFunction*%
%TA.AperFunction,Conductor*%
G36*
X48544075Y-2422993D02*
G01*
X48609901Y-2537007D01*
X48702993Y-2630099D01*
X48817007Y-2695925D01*
X48936358Y-2727905D01*
X48289236Y-3375025D01*
X48302440Y-3384618D01*
X48302453Y-3384626D01*
X48491780Y-3481094D01*
X48520705Y-3490492D01*
X48578381Y-3529929D01*
X48605580Y-3594287D01*
X48593667Y-3663134D01*
X48546424Y-3714610D01*
X48538685Y-3718908D01*
X48407004Y-3786004D01*
X48260505Y-3892441D01*
X48260500Y-3892445D01*
X48132445Y-4020500D01*
X48132441Y-4020505D01*
X48026006Y-4167002D01*
X47943788Y-4328360D01*
X47943787Y-4328363D01*
X47887829Y-4500589D01*
X47862473Y-4660678D01*
X47832544Y-4723813D01*
X47773232Y-4760744D01*
X47703369Y-4759746D01*
X47645137Y-4721136D01*
X47617527Y-4660678D01*
X47594596Y-4515904D01*
X47592171Y-4500591D01*
X47548530Y-4366275D01*
X47536212Y-4328363D01*
X47536211Y-4328360D01*
X47488596Y-4234912D01*
X47453996Y-4167006D01*
X47384819Y-4071791D01*
X47347558Y-4020505D01*
X47347554Y-4020500D01*
X47219499Y-3892445D01*
X47219494Y-3892441D01*
X47072997Y-3786006D01*
X47072996Y-3786005D01*
X47072994Y-3786004D01*
X46996906Y-3747235D01*
X46911639Y-3703788D01*
X46911636Y-3703787D01*
X46739410Y-3647829D01*
X46579321Y-3622473D01*
X46516186Y-3592544D01*
X46479255Y-3533232D01*
X46480253Y-3463370D01*
X46518863Y-3405137D01*
X46579321Y-3377527D01*
X46649425Y-3366422D01*
X46739409Y-3352171D01*
X46911639Y-3296211D01*
X47072994Y-3213996D01*
X47219501Y-3107553D01*
X47347553Y-2979501D01*
X47453996Y-2832994D01*
X47521090Y-2701314D01*
X47569065Y-2650519D01*
X47636886Y-2633724D01*
X47703021Y-2656262D01*
X47746472Y-2710977D01*
X47749506Y-2719292D01*
X47758904Y-2748217D01*
X47855375Y-2937550D01*
X47864973Y-2950761D01*
X48512094Y-2303641D01*
X48544075Y-2422993D01*
G37*
%TD.AperFunction*%
%TA.AperFunction,Conductor*%
G36*
X50155025Y-2950762D02*
G01*
X50155026Y-2950761D01*
X50164617Y-2937563D01*
X50164620Y-2937556D01*
X50261095Y-2748217D01*
X50270492Y-2719295D01*
X50309928Y-2661618D01*
X50374286Y-2634419D01*
X50443133Y-2646331D01*
X50494610Y-2693574D01*
X50498908Y-2701314D01*
X50566004Y-2832995D01*
X50672441Y-2979494D01*
X50672445Y-2979499D01*
X50800500Y-3107554D01*
X50800505Y-3107558D01*
X50871774Y-3159337D01*
X50947006Y-3213996D01*
X51052484Y-3267740D01*
X51108360Y-3296211D01*
X51108363Y-3296212D01*
X51124411Y-3301426D01*
X51280591Y-3352171D01*
X51353639Y-3363740D01*
X51440678Y-3377527D01*
X51503813Y-3407456D01*
X51540744Y-3466768D01*
X51539746Y-3536631D01*
X51501136Y-3594863D01*
X51440678Y-3622473D01*
X51280589Y-3647829D01*
X51108363Y-3703787D01*
X51108360Y-3703788D01*
X50947002Y-3786006D01*
X50800505Y-3892441D01*
X50800500Y-3892445D01*
X50672445Y-4020500D01*
X50672441Y-4020505D01*
X50566006Y-4167002D01*
X50483788Y-4328360D01*
X50483787Y-4328363D01*
X50427829Y-4500589D01*
X50402473Y-4660678D01*
X50372544Y-4723813D01*
X50313232Y-4760744D01*
X50243369Y-4759746D01*
X50185137Y-4721136D01*
X50157527Y-4660678D01*
X50134596Y-4515904D01*
X50132171Y-4500591D01*
X50088530Y-4366275D01*
X50076212Y-4328363D01*
X50076211Y-4328360D01*
X50028596Y-4234912D01*
X49993996Y-4167006D01*
X49924819Y-4071791D01*
X49887558Y-4020505D01*
X49887554Y-4020500D01*
X49759499Y-3892445D01*
X49759494Y-3892441D01*
X49612995Y-3786004D01*
X49481314Y-3718908D01*
X49430519Y-3670934D01*
X49413724Y-3603113D01*
X49436262Y-3536978D01*
X49490977Y-3493527D01*
X49499295Y-3490492D01*
X49528217Y-3481095D01*
X49717556Y-3384620D01*
X49717563Y-3384617D01*
X49730761Y-3375026D01*
X49730762Y-3375025D01*
X49083641Y-2727905D01*
X49202993Y-2695925D01*
X49317007Y-2630099D01*
X49410099Y-2537007D01*
X49475925Y-2422993D01*
X49507905Y-2303641D01*
X50155025Y-2950762D01*
G37*
%TD.AperFunction*%
%TA.AperFunction,Conductor*%
G36*
X52856630Y-2240253D02*
G01*
X52914863Y-2278863D01*
X52942473Y-2339321D01*
X52967829Y-2499410D01*
X53023787Y-2671636D01*
X53023788Y-2671639D01*
X53106006Y-2832997D01*
X53212441Y-2979494D01*
X53212445Y-2979499D01*
X53340500Y-3107554D01*
X53340505Y-3107558D01*
X53411774Y-3159337D01*
X53487006Y-3213996D01*
X53592484Y-3267740D01*
X53648360Y-3296211D01*
X53648363Y-3296212D01*
X53664411Y-3301426D01*
X53820591Y-3352171D01*
X53893639Y-3363740D01*
X53980678Y-3377527D01*
X54043813Y-3407456D01*
X54080744Y-3466768D01*
X54079746Y-3536631D01*
X54041136Y-3594863D01*
X53980678Y-3622473D01*
X53820589Y-3647829D01*
X53648363Y-3703787D01*
X53648360Y-3703788D01*
X53487002Y-3786006D01*
X53340505Y-3892441D01*
X53340500Y-3892445D01*
X53212445Y-4020500D01*
X53212441Y-4020505D01*
X53106006Y-4167002D01*
X53023788Y-4328360D01*
X53023787Y-4328363D01*
X52967829Y-4500589D01*
X52942473Y-4660678D01*
X52912544Y-4723813D01*
X52853232Y-4760744D01*
X52783369Y-4759746D01*
X52725137Y-4721136D01*
X52697527Y-4660678D01*
X52674596Y-4515904D01*
X52672171Y-4500591D01*
X52628530Y-4366275D01*
X52616212Y-4328363D01*
X52616211Y-4328360D01*
X52568596Y-4234912D01*
X52533996Y-4167006D01*
X52464819Y-4071791D01*
X52427558Y-4020505D01*
X52427554Y-4020500D01*
X52299499Y-3892445D01*
X52299494Y-3892441D01*
X52152997Y-3786006D01*
X52152996Y-3786005D01*
X52152994Y-3786004D01*
X52076906Y-3747235D01*
X51991639Y-3703788D01*
X51991636Y-3703787D01*
X51819410Y-3647829D01*
X51659321Y-3622473D01*
X51596186Y-3592544D01*
X51559255Y-3533232D01*
X51560253Y-3463370D01*
X51598863Y-3405137D01*
X51659321Y-3377527D01*
X51729425Y-3366422D01*
X51819409Y-3352171D01*
X51991639Y-3296211D01*
X52152994Y-3213996D01*
X52299501Y-3107553D01*
X52427553Y-2979501D01*
X52533996Y-2832994D01*
X52616211Y-2671639D01*
X52672171Y-2499409D01*
X52690616Y-2382951D01*
X52697527Y-2339321D01*
X52727456Y-2276186D01*
X52786768Y-2239255D01*
X52856630Y-2240253D01*
G37*
%TD.AperFunction*%
%TA.AperFunction,Conductor*%
G36*
X37616630Y-2240253D02*
G01*
X37674863Y-2278863D01*
X37702473Y-2339321D01*
X37727829Y-2499410D01*
X37783787Y-2671636D01*
X37783788Y-2671639D01*
X37866006Y-2832997D01*
X37972441Y-2979494D01*
X37972445Y-2979499D01*
X38100500Y-3107554D01*
X38100505Y-3107558D01*
X38171774Y-3159337D01*
X38247006Y-3213996D01*
X38348780Y-3265853D01*
X38378684Y-3281090D01*
X38429480Y-3329065D01*
X38446275Y-3396886D01*
X38423737Y-3463021D01*
X38369022Y-3506472D01*
X38360708Y-3509506D01*
X38331781Y-3518905D01*
X38142448Y-3615375D01*
X38129237Y-3624972D01*
X38129237Y-3624973D01*
X38776358Y-4272094D01*
X38657007Y-4304075D01*
X38542993Y-4369901D01*
X38449901Y-4462993D01*
X38384075Y-4577007D01*
X38352094Y-4696358D01*
X37704973Y-4049237D01*
X37704972Y-4049237D01*
X37695375Y-4062448D01*
X37598905Y-4251781D01*
X37589506Y-4280708D01*
X37550068Y-4338383D01*
X37485709Y-4365581D01*
X37416862Y-4353666D01*
X37365387Y-4306421D01*
X37361090Y-4298684D01*
X37328596Y-4234912D01*
X37293996Y-4167006D01*
X37224819Y-4071791D01*
X37187558Y-4020505D01*
X37187554Y-4020500D01*
X37059499Y-3892445D01*
X37059494Y-3892441D01*
X36912997Y-3786006D01*
X36912996Y-3786005D01*
X36912994Y-3786004D01*
X36836906Y-3747235D01*
X36751639Y-3703788D01*
X36751636Y-3703787D01*
X36579410Y-3647829D01*
X36419321Y-3622473D01*
X36356186Y-3592544D01*
X36319255Y-3533232D01*
X36320253Y-3463370D01*
X36358863Y-3405137D01*
X36419321Y-3377527D01*
X36489425Y-3366422D01*
X36579409Y-3352171D01*
X36751639Y-3296211D01*
X36912994Y-3213996D01*
X37059501Y-3107553D01*
X37187553Y-2979501D01*
X37293996Y-2832994D01*
X37376211Y-2671639D01*
X37432171Y-2499409D01*
X37450616Y-2382951D01*
X37457527Y-2339321D01*
X37487456Y-2276186D01*
X37546768Y-2239255D01*
X37616630Y-2240253D01*
G37*
%TD.AperFunction*%
%TA.AperFunction,Conductor*%
G36*
X55396630Y-2240253D02*
G01*
X55454863Y-2278863D01*
X55482473Y-2339321D01*
X55507829Y-2499410D01*
X55563787Y-2671636D01*
X55563788Y-2671639D01*
X55646006Y-2832997D01*
X55752441Y-2979494D01*
X55752445Y-2979499D01*
X55880500Y-3107554D01*
X55880505Y-3107558D01*
X55951774Y-3159337D01*
X56027006Y-3213996D01*
X56128780Y-3265853D01*
X56158684Y-3281090D01*
X56209480Y-3329065D01*
X56226275Y-3396886D01*
X56203737Y-3463021D01*
X56149022Y-3506472D01*
X56140708Y-3509506D01*
X56111781Y-3518905D01*
X55922448Y-3615375D01*
X55909237Y-3624972D01*
X55909237Y-3624973D01*
X56556358Y-4272094D01*
X56437007Y-4304075D01*
X56322993Y-4369901D01*
X56229901Y-4462993D01*
X56164075Y-4577007D01*
X56132094Y-4696358D01*
X55484973Y-4049237D01*
X55484972Y-4049237D01*
X55475375Y-4062448D01*
X55378905Y-4251781D01*
X55369506Y-4280708D01*
X55330068Y-4338383D01*
X55265709Y-4365581D01*
X55196862Y-4353666D01*
X55145387Y-4306421D01*
X55141090Y-4298684D01*
X55108596Y-4234912D01*
X55073996Y-4167006D01*
X55004819Y-4071791D01*
X54967558Y-4020505D01*
X54967554Y-4020500D01*
X54839499Y-3892445D01*
X54839494Y-3892441D01*
X54692997Y-3786006D01*
X54692996Y-3786005D01*
X54692994Y-3786004D01*
X54616906Y-3747235D01*
X54531639Y-3703788D01*
X54531636Y-3703787D01*
X54359410Y-3647829D01*
X54199321Y-3622473D01*
X54136186Y-3592544D01*
X54099255Y-3533232D01*
X54100253Y-3463370D01*
X54138863Y-3405137D01*
X54199321Y-3377527D01*
X54269425Y-3366422D01*
X54359409Y-3352171D01*
X54531639Y-3296211D01*
X54692994Y-3213996D01*
X54839501Y-3107553D01*
X54967553Y-2979501D01*
X55073996Y-2832994D01*
X55156211Y-2671639D01*
X55212171Y-2499409D01*
X55230616Y-2382951D01*
X55237527Y-2339321D01*
X55267456Y-2276186D01*
X55326768Y-2239255D01*
X55396630Y-2240253D01*
G37*
%TD.AperFunction*%
%TA.AperFunction,Conductor*%
G36*
X40156630Y-2240253D02*
G01*
X40214863Y-2278863D01*
X40242473Y-2339321D01*
X40267829Y-2499410D01*
X40323787Y-2671636D01*
X40323788Y-2671639D01*
X40406006Y-2832997D01*
X40512441Y-2979494D01*
X40512445Y-2979499D01*
X40640500Y-3107554D01*
X40640505Y-3107558D01*
X40711774Y-3159337D01*
X40787006Y-3213996D01*
X40892484Y-3267740D01*
X40948360Y-3296211D01*
X40948363Y-3296212D01*
X40964411Y-3301426D01*
X41120591Y-3352171D01*
X41193639Y-3363740D01*
X41280678Y-3377527D01*
X41343813Y-3407456D01*
X41380744Y-3466768D01*
X41379746Y-3536631D01*
X41341136Y-3594863D01*
X41280678Y-3622473D01*
X41120589Y-3647829D01*
X40948363Y-3703787D01*
X40948360Y-3703788D01*
X40787002Y-3786006D01*
X40640505Y-3892441D01*
X40640500Y-3892445D01*
X40512445Y-4020500D01*
X40512441Y-4020505D01*
X40406004Y-4167004D01*
X40338908Y-4298685D01*
X40290933Y-4349480D01*
X40223112Y-4366275D01*
X40156977Y-4343737D01*
X40113527Y-4289021D01*
X40110492Y-4280705D01*
X40101094Y-4251780D01*
X40004626Y-4062453D01*
X40004618Y-4062440D01*
X39995025Y-4049237D01*
X39995025Y-4049236D01*
X39347905Y-4696357D01*
X39315925Y-4577007D01*
X39250099Y-4462993D01*
X39157007Y-4369901D01*
X39042993Y-4304075D01*
X38923642Y-4272094D01*
X39570761Y-3624973D01*
X39557550Y-3615375D01*
X39368217Y-3518904D01*
X39339292Y-3509506D01*
X39281616Y-3470068D01*
X39254418Y-3405710D01*
X39266333Y-3336863D01*
X39313577Y-3285388D01*
X39321315Y-3281090D01*
X39452994Y-3213996D01*
X39599501Y-3107553D01*
X39727553Y-2979501D01*
X39833996Y-2832994D01*
X39916211Y-2671639D01*
X39972171Y-2499409D01*
X39990616Y-2382951D01*
X39997527Y-2339321D01*
X40027456Y-2276186D01*
X40086768Y-2239255D01*
X40156630Y-2240253D01*
G37*
%TD.AperFunction*%
%TA.AperFunction,Conductor*%
G36*
X23144075Y-2422993D02*
G01*
X23209901Y-2537007D01*
X23302993Y-2630099D01*
X23417007Y-2695925D01*
X23536358Y-2727905D01*
X22889236Y-3375025D01*
X22902440Y-3384618D01*
X22902453Y-3384626D01*
X23091780Y-3481094D01*
X23120705Y-3490492D01*
X23178381Y-3529929D01*
X23205580Y-3594287D01*
X23193667Y-3663134D01*
X23146424Y-3714610D01*
X23138685Y-3718908D01*
X23007004Y-3786004D01*
X22860505Y-3892441D01*
X22860500Y-3892445D01*
X22781228Y-3971718D01*
X22719905Y-4005203D01*
X22650213Y-4000219D01*
X22605866Y-3971718D01*
X21886965Y-3252817D01*
X21886963Y-3252815D01*
X21886960Y-3252813D01*
X21880514Y-3247867D01*
X21882303Y-3245535D01*
X21843823Y-3205160D01*
X21830615Y-3136550D01*
X21856598Y-3071691D01*
X21866370Y-3060684D01*
X21900901Y-3026153D01*
X21947553Y-2979501D01*
X22053996Y-2832994D01*
X22121090Y-2701314D01*
X22169065Y-2650519D01*
X22236886Y-2633724D01*
X22303021Y-2656262D01*
X22346472Y-2710977D01*
X22349506Y-2719292D01*
X22358904Y-2748217D01*
X22455375Y-2937550D01*
X22464973Y-2950761D01*
X23112094Y-2303641D01*
X23144075Y-2422993D01*
G37*
%TD.AperFunction*%
%TA.AperFunction,Conductor*%
G36*
X64542539Y-420185D02*
G01*
X64588294Y-472989D01*
X64599500Y-524500D01*
X64599500Y-55475500D01*
X64579815Y-55542539D01*
X64527011Y-55588294D01*
X64475500Y-55599500D01*
X524500Y-55599500D01*
X457461Y-55579815D01*
X411706Y-55527011D01*
X400500Y-55475500D01*
X400500Y-52351146D01*
X849500Y-52351146D01*
X849500Y-52648853D01*
X882830Y-52944662D01*
X882831Y-52944671D01*
X882832Y-52944675D01*
X899393Y-53017233D01*
X949076Y-53234912D01*
X949079Y-53234920D01*
X1047400Y-53515904D01*
X1176563Y-53784114D01*
X1176565Y-53784117D01*
X1334950Y-54036185D01*
X1520562Y-54268934D01*
X1731066Y-54479438D01*
X1963815Y-54665050D01*
X2215883Y-54823435D01*
X2484099Y-54952601D01*
X2695135Y-55026445D01*
X2765079Y-55050920D01*
X2765087Y-55050923D01*
X2765090Y-55050923D01*
X2765091Y-55050924D01*
X3055325Y-55117168D01*
X3351147Y-55150499D01*
X3351148Y-55150500D01*
X3351151Y-55150500D01*
X3648852Y-55150500D01*
X3648852Y-55150499D01*
X3944675Y-55117168D01*
X4234909Y-55050924D01*
X4515901Y-54952601D01*
X4784117Y-54823435D01*
X5036185Y-54665050D01*
X5268934Y-54479438D01*
X5479438Y-54268934D01*
X5665050Y-54036185D01*
X5823435Y-53784117D01*
X5952601Y-53515901D01*
X6050924Y-53234909D01*
X6117168Y-52944675D01*
X6150500Y-52648849D01*
X6150500Y-52351151D01*
X6117168Y-52055325D01*
X6050924Y-51765091D01*
X5952601Y-51484099D01*
X5823435Y-51215883D01*
X5692122Y-51006900D01*
X10999500Y-51006900D01*
X10999500Y-52993091D01*
X11010123Y-53081562D01*
X11065639Y-53222342D01*
X11065640Y-53222344D01*
X11157077Y-53342922D01*
X11277655Y-53434359D01*
X11277658Y-53434361D01*
X11418436Y-53489876D01*
X11506901Y-53500500D01*
X13493098Y-53500499D01*
X13581564Y-53489876D01*
X13722342Y-53434361D01*
X13842922Y-53342922D01*
X13934361Y-53222342D01*
X13989876Y-53081564D01*
X14000500Y-52993099D01*
X14000499Y-51888575D01*
X14300000Y-51888575D01*
X14300000Y-52111424D01*
X14329085Y-52332354D01*
X14329088Y-52332367D01*
X14386763Y-52547618D01*
X14472045Y-52753502D01*
X14472050Y-52753514D01*
X14583468Y-52946497D01*
X14603340Y-52972393D01*
X14603341Y-52972394D01*
X15420444Y-52155291D01*
X15440889Y-52231591D01*
X15519881Y-52368408D01*
X15631592Y-52480119D01*
X15768409Y-52559111D01*
X15844708Y-52579555D01*
X15027605Y-53396657D01*
X15027605Y-53396658D01*
X15053502Y-53416530D01*
X15246485Y-53527949D01*
X15246497Y-53527954D01*
X15452381Y-53613236D01*
X15667632Y-53670911D01*
X15667645Y-53670914D01*
X15888575Y-53700000D01*
X16111425Y-53700000D01*
X16332354Y-53670914D01*
X16332367Y-53670911D01*
X16547618Y-53613236D01*
X16753502Y-53527954D01*
X16753514Y-53527949D01*
X16946496Y-53416531D01*
X16946500Y-53416529D01*
X16972393Y-53396658D01*
X16972393Y-53396656D01*
X16155291Y-52579555D01*
X16231591Y-52559111D01*
X16368408Y-52480119D01*
X16480119Y-52368408D01*
X16559111Y-52231591D01*
X16579555Y-52155291D01*
X17396656Y-52972393D01*
X17396658Y-52972393D01*
X17416529Y-52946500D01*
X17416531Y-52946496D01*
X17527949Y-52753514D01*
X17527954Y-52753502D01*
X17613236Y-52547618D01*
X17670911Y-52332367D01*
X17670914Y-52332354D01*
X17700000Y-52111424D01*
X17700000Y-51888575D01*
X17670914Y-51667645D01*
X17670911Y-51667632D01*
X17613236Y-51452381D01*
X17527954Y-51246497D01*
X17527949Y-51246485D01*
X17423282Y-51065195D01*
X17423281Y-51065193D01*
X17416534Y-51053506D01*
X17416531Y-51053502D01*
X17396658Y-51027605D01*
X17396657Y-51027605D01*
X16579555Y-51844707D01*
X16559111Y-51768409D01*
X16480119Y-51631592D01*
X16368408Y-51519881D01*
X16231591Y-51440889D01*
X16155291Y-51420444D01*
X16568835Y-51006900D01*
X22999500Y-51006900D01*
X22999500Y-52993091D01*
X23010123Y-53081562D01*
X23065639Y-53222342D01*
X23065640Y-53222344D01*
X23157077Y-53342922D01*
X23277655Y-53434359D01*
X23277658Y-53434361D01*
X23418436Y-53489876D01*
X23506901Y-53500500D01*
X25493098Y-53500499D01*
X25581564Y-53489876D01*
X25722342Y-53434361D01*
X25842922Y-53342922D01*
X25934361Y-53222342D01*
X25989876Y-53081564D01*
X26000500Y-52993099D01*
X26000499Y-51888575D01*
X26300000Y-51888575D01*
X26300000Y-52111424D01*
X26329085Y-52332354D01*
X26329088Y-52332367D01*
X26386763Y-52547618D01*
X26472045Y-52753502D01*
X26472050Y-52753514D01*
X26583468Y-52946497D01*
X26603340Y-52972393D01*
X26603341Y-52972394D01*
X27420444Y-52155291D01*
X27440889Y-52231591D01*
X27519881Y-52368408D01*
X27631592Y-52480119D01*
X27768409Y-52559111D01*
X27844708Y-52579555D01*
X27027605Y-53396657D01*
X27027605Y-53396658D01*
X27053502Y-53416530D01*
X27246485Y-53527949D01*
X27246497Y-53527954D01*
X27452381Y-53613236D01*
X27667632Y-53670911D01*
X27667645Y-53670914D01*
X27888575Y-53700000D01*
X28111425Y-53700000D01*
X28332354Y-53670914D01*
X28332367Y-53670911D01*
X28547618Y-53613236D01*
X28753502Y-53527954D01*
X28753514Y-53527949D01*
X28946496Y-53416531D01*
X28946500Y-53416529D01*
X28972393Y-53396658D01*
X28972393Y-53396656D01*
X28155291Y-52579555D01*
X28231591Y-52559111D01*
X28368408Y-52480119D01*
X28480119Y-52368408D01*
X28559111Y-52231591D01*
X28579555Y-52155291D01*
X29396656Y-52972393D01*
X29396658Y-52972393D01*
X29416529Y-52946500D01*
X29416531Y-52946496D01*
X29527949Y-52753514D01*
X29527954Y-52753502D01*
X29613236Y-52547618D01*
X29670911Y-52332367D01*
X29670914Y-52332354D01*
X29700000Y-52111424D01*
X29700000Y-51888575D01*
X29670914Y-51667645D01*
X29670911Y-51667632D01*
X29613236Y-51452381D01*
X29527954Y-51246497D01*
X29527949Y-51246485D01*
X29423282Y-51065195D01*
X29423281Y-51065193D01*
X29416534Y-51053506D01*
X29416531Y-51053502D01*
X29396658Y-51027605D01*
X29396657Y-51027605D01*
X28579555Y-51844707D01*
X28559111Y-51768409D01*
X28480119Y-51631592D01*
X28368408Y-51519881D01*
X28231591Y-51440889D01*
X28155291Y-51420444D01*
X28568835Y-51006900D01*
X34999500Y-51006900D01*
X34999500Y-52993091D01*
X35010123Y-53081562D01*
X35065639Y-53222342D01*
X35065640Y-53222344D01*
X35157077Y-53342922D01*
X35277655Y-53434359D01*
X35277658Y-53434361D01*
X35418436Y-53489876D01*
X35506901Y-53500500D01*
X37493098Y-53500499D01*
X37581564Y-53489876D01*
X37722342Y-53434361D01*
X37842922Y-53342922D01*
X37934361Y-53222342D01*
X37989876Y-53081564D01*
X38000500Y-52993099D01*
X38000499Y-51888575D01*
X38300000Y-51888575D01*
X38300000Y-52111424D01*
X38329085Y-52332354D01*
X38329088Y-52332367D01*
X38386763Y-52547618D01*
X38472045Y-52753502D01*
X38472050Y-52753514D01*
X38583468Y-52946497D01*
X38603340Y-52972393D01*
X38603341Y-52972394D01*
X39420444Y-52155291D01*
X39440889Y-52231591D01*
X39519881Y-52368408D01*
X39631592Y-52480119D01*
X39768409Y-52559111D01*
X39844708Y-52579555D01*
X39027605Y-53396657D01*
X39027605Y-53396658D01*
X39053502Y-53416530D01*
X39246485Y-53527949D01*
X39246497Y-53527954D01*
X39452381Y-53613236D01*
X39667632Y-53670911D01*
X39667645Y-53670914D01*
X39888575Y-53700000D01*
X40111425Y-53700000D01*
X40332354Y-53670914D01*
X40332367Y-53670911D01*
X40547618Y-53613236D01*
X40753502Y-53527954D01*
X40753514Y-53527949D01*
X40946496Y-53416531D01*
X40946500Y-53416529D01*
X40972393Y-53396658D01*
X40972393Y-53396656D01*
X40155291Y-52579555D01*
X40231591Y-52559111D01*
X40368408Y-52480119D01*
X40480119Y-52368408D01*
X40559111Y-52231591D01*
X40579555Y-52155291D01*
X41396656Y-52972393D01*
X41396658Y-52972393D01*
X41416529Y-52946500D01*
X41416531Y-52946496D01*
X41527949Y-52753514D01*
X41527954Y-52753502D01*
X41613236Y-52547618D01*
X41670911Y-52332367D01*
X41670914Y-52332354D01*
X41700000Y-52111424D01*
X41700000Y-51888575D01*
X41670914Y-51667645D01*
X41670911Y-51667632D01*
X41613236Y-51452381D01*
X41527954Y-51246497D01*
X41527949Y-51246485D01*
X41423282Y-51065195D01*
X41423281Y-51065193D01*
X41416534Y-51053506D01*
X41416531Y-51053502D01*
X41396658Y-51027605D01*
X41396657Y-51027605D01*
X40579555Y-51844707D01*
X40559111Y-51768409D01*
X40480119Y-51631592D01*
X40368408Y-51519881D01*
X40231591Y-51440889D01*
X40155291Y-51420444D01*
X40568835Y-51006900D01*
X47999500Y-51006900D01*
X47999500Y-52993091D01*
X48010123Y-53081562D01*
X48065639Y-53222342D01*
X48065640Y-53222344D01*
X48157077Y-53342922D01*
X48277655Y-53434359D01*
X48277658Y-53434361D01*
X48418436Y-53489876D01*
X48506901Y-53500500D01*
X50493098Y-53500499D01*
X50581564Y-53489876D01*
X50722342Y-53434361D01*
X50842922Y-53342922D01*
X50934361Y-53222342D01*
X50989876Y-53081564D01*
X51000500Y-52993099D01*
X51000499Y-51006902D01*
X50989876Y-50918436D01*
X50934361Y-50777658D01*
X50934359Y-50777655D01*
X50842922Y-50657077D01*
X50722344Y-50565640D01*
X50722342Y-50565639D01*
X50581564Y-50510124D01*
X50581561Y-50510123D01*
X50493099Y-50499500D01*
X48506908Y-50499500D01*
X48418437Y-50510123D01*
X48277657Y-50565639D01*
X48277655Y-50565640D01*
X48157077Y-50657077D01*
X48065640Y-50777655D01*
X48065639Y-50777658D01*
X48034949Y-50855485D01*
X48010124Y-50918437D01*
X48010123Y-50918438D01*
X47999500Y-51006900D01*
X40568835Y-51006900D01*
X40972394Y-50603341D01*
X40972393Y-50603340D01*
X40946497Y-50583468D01*
X40753514Y-50472050D01*
X40753502Y-50472045D01*
X40547618Y-50386763D01*
X40332367Y-50329088D01*
X40332354Y-50329085D01*
X40111425Y-50300000D01*
X39888575Y-50300000D01*
X39667645Y-50329085D01*
X39667632Y-50329088D01*
X39452381Y-50386763D01*
X39246497Y-50472045D01*
X39246479Y-50472054D01*
X39053511Y-50583462D01*
X39027605Y-50603341D01*
X39844708Y-51420444D01*
X39768409Y-51440889D01*
X39631592Y-51519881D01*
X39519881Y-51631592D01*
X39440889Y-51768409D01*
X39420444Y-51844708D01*
X38603341Y-51027605D01*
X38583462Y-51053511D01*
X38472054Y-51246479D01*
X38472045Y-51246497D01*
X38386763Y-51452381D01*
X38329088Y-51667632D01*
X38329085Y-51667645D01*
X38300000Y-51888575D01*
X38000499Y-51888575D01*
X38000499Y-51006902D01*
X37989876Y-50918436D01*
X37934361Y-50777658D01*
X37934359Y-50777655D01*
X37895354Y-50726219D01*
X37842922Y-50657077D01*
X37722344Y-50565640D01*
X37722342Y-50565639D01*
X37581564Y-50510124D01*
X37581561Y-50510123D01*
X37493099Y-50499500D01*
X35506908Y-50499500D01*
X35418437Y-50510123D01*
X35277657Y-50565639D01*
X35277655Y-50565640D01*
X35157077Y-50657077D01*
X35065640Y-50777655D01*
X35065639Y-50777658D01*
X35034949Y-50855485D01*
X35010124Y-50918437D01*
X35010123Y-50918438D01*
X34999500Y-51006900D01*
X28568835Y-51006900D01*
X28972394Y-50603341D01*
X28972393Y-50603340D01*
X28946497Y-50583468D01*
X28753514Y-50472050D01*
X28753502Y-50472045D01*
X28547618Y-50386763D01*
X28332367Y-50329088D01*
X28332354Y-50329085D01*
X28111425Y-50300000D01*
X27888575Y-50300000D01*
X27667645Y-50329085D01*
X27667632Y-50329088D01*
X27452381Y-50386763D01*
X27246497Y-50472045D01*
X27246479Y-50472054D01*
X27053511Y-50583462D01*
X27027605Y-50603341D01*
X27844708Y-51420444D01*
X27768409Y-51440889D01*
X27631592Y-51519881D01*
X27519881Y-51631592D01*
X27440889Y-51768409D01*
X27420444Y-51844708D01*
X26603341Y-51027605D01*
X26583462Y-51053511D01*
X26472054Y-51246479D01*
X26472045Y-51246497D01*
X26386763Y-51452381D01*
X26329088Y-51667632D01*
X26329085Y-51667645D01*
X26300000Y-51888575D01*
X26000499Y-51888575D01*
X26000499Y-51006902D01*
X25989876Y-50918436D01*
X25934361Y-50777658D01*
X25934359Y-50777655D01*
X25895354Y-50726219D01*
X25842922Y-50657077D01*
X25722344Y-50565640D01*
X25722342Y-50565639D01*
X25581564Y-50510124D01*
X25581561Y-50510123D01*
X25493099Y-50499500D01*
X23506908Y-50499500D01*
X23418437Y-50510123D01*
X23277657Y-50565639D01*
X23277655Y-50565640D01*
X23157077Y-50657077D01*
X23065640Y-50777655D01*
X23065639Y-50777658D01*
X23034949Y-50855485D01*
X23010124Y-50918437D01*
X23010123Y-50918438D01*
X22999500Y-51006900D01*
X16568835Y-51006900D01*
X16972394Y-50603341D01*
X16972393Y-50603340D01*
X16946497Y-50583468D01*
X16753514Y-50472050D01*
X16753502Y-50472045D01*
X16547618Y-50386763D01*
X16332367Y-50329088D01*
X16332354Y-50329085D01*
X16111425Y-50300000D01*
X15888575Y-50300000D01*
X15667645Y-50329085D01*
X15667632Y-50329088D01*
X15452381Y-50386763D01*
X15246497Y-50472045D01*
X15246479Y-50472054D01*
X15053511Y-50583462D01*
X15027605Y-50603341D01*
X15844708Y-51420444D01*
X15768409Y-51440889D01*
X15631592Y-51519881D01*
X15519881Y-51631592D01*
X15440889Y-51768409D01*
X15420444Y-51844708D01*
X14603341Y-51027605D01*
X14583462Y-51053511D01*
X14472054Y-51246479D01*
X14472045Y-51246497D01*
X14386763Y-51452381D01*
X14329088Y-51667632D01*
X14329085Y-51667645D01*
X14300000Y-51888575D01*
X14000499Y-51888575D01*
X14000499Y-51006902D01*
X13989876Y-50918436D01*
X13934361Y-50777658D01*
X13934359Y-50777655D01*
X13895354Y-50726219D01*
X13842922Y-50657077D01*
X13722344Y-50565640D01*
X13722342Y-50565639D01*
X13581564Y-50510124D01*
X13581561Y-50510123D01*
X13493099Y-50499500D01*
X11506908Y-50499500D01*
X11418437Y-50510123D01*
X11277657Y-50565639D01*
X11277655Y-50565640D01*
X11157077Y-50657077D01*
X11065640Y-50777655D01*
X11065639Y-50777658D01*
X11034949Y-50855485D01*
X11010124Y-50918437D01*
X11010123Y-50918438D01*
X10999500Y-51006900D01*
X5692122Y-51006900D01*
X5665050Y-50963815D01*
X5479438Y-50731066D01*
X5268934Y-50520562D01*
X5242524Y-50499501D01*
X5101156Y-50386763D01*
X5036185Y-50334950D01*
X4784117Y-50176565D01*
X4784114Y-50176563D01*
X4515904Y-50047400D01*
X4234920Y-49949079D01*
X4234912Y-49949076D01*
X4017233Y-49899393D01*
X3944675Y-49882832D01*
X3944671Y-49882831D01*
X3944662Y-49882830D01*
X3648853Y-49849500D01*
X3648849Y-49849500D01*
X3351151Y-49849500D01*
X3351146Y-49849500D01*
X3055337Y-49882830D01*
X3055325Y-49882832D01*
X2765087Y-49949076D01*
X2765079Y-49949079D01*
X2484095Y-50047400D01*
X2215885Y-50176563D01*
X1963816Y-50334949D01*
X1731066Y-50520561D01*
X1520561Y-50731066D01*
X1334949Y-50963816D01*
X1176563Y-51215885D01*
X1047400Y-51484095D01*
X949079Y-51765079D01*
X949076Y-51765087D01*
X882832Y-52055325D01*
X882830Y-52055337D01*
X849500Y-52351146D01*
X400500Y-52351146D01*
X400500Y-45506900D01*
X2499500Y-45506900D01*
X2499500Y-47493091D01*
X2510123Y-47581562D01*
X2565639Y-47722342D01*
X2565640Y-47722344D01*
X2657077Y-47842922D01*
X2777655Y-47934359D01*
X2777658Y-47934361D01*
X2918436Y-47989876D01*
X3006901Y-48000500D01*
X4993098Y-48000499D01*
X5081564Y-47989876D01*
X5222342Y-47934361D01*
X5342922Y-47842922D01*
X5434361Y-47722342D01*
X5489876Y-47581564D01*
X5500500Y-47493099D01*
X5500499Y-45506902D01*
X5489876Y-45418436D01*
X5434361Y-45277658D01*
X5429814Y-45271662D01*
X5342922Y-45157077D01*
X5222344Y-45065640D01*
X5222342Y-45065639D01*
X5081564Y-45010124D01*
X5081561Y-45010123D01*
X4993099Y-44999500D01*
X3006908Y-44999500D01*
X2918437Y-45010123D01*
X2777657Y-45065639D01*
X2777655Y-45065640D01*
X2657077Y-45157077D01*
X2565640Y-45277655D01*
X2510124Y-45418437D01*
X2510123Y-45418438D01*
X2499500Y-45506900D01*
X400500Y-45506900D01*
X400500Y-42881902D01*
X2499500Y-42881902D01*
X2499500Y-43118097D01*
X2536446Y-43351368D01*
X2609433Y-43575996D01*
X2700980Y-43755665D01*
X2716657Y-43786433D01*
X2855483Y-43977510D01*
X3022490Y-44144517D01*
X3213567Y-44283343D01*
X3255461Y-44304689D01*
X3424003Y-44390566D01*
X3424005Y-44390566D01*
X3424008Y-44390568D01*
X3544412Y-44429689D01*
X3648631Y-44463553D01*
X3881903Y-44500500D01*
X3881908Y-44500500D01*
X4118097Y-44500500D01*
X4351368Y-44463553D01*
X4401823Y-44447159D01*
X4575992Y-44390568D01*
X4786433Y-44283343D01*
X4977510Y-44144517D01*
X5144517Y-43977510D01*
X5283343Y-43786433D01*
X5390568Y-43575992D01*
X5463553Y-43351368D01*
X5470255Y-43309054D01*
X5500500Y-43118097D01*
X5500500Y-42881902D01*
X5463553Y-42648631D01*
X5390566Y-42424003D01*
X5318052Y-42281687D01*
X5283343Y-42213567D01*
X5144517Y-42022490D01*
X4977510Y-41855483D01*
X4786433Y-41716657D01*
X4575996Y-41609433D01*
X4351368Y-41536446D01*
X4118097Y-41499500D01*
X4118092Y-41499500D01*
X3881908Y-41499500D01*
X3881903Y-41499500D01*
X3648631Y-41536446D01*
X3424003Y-41609433D01*
X3213566Y-41716657D01*
X3104550Y-41795862D01*
X3022490Y-41855483D01*
X3022488Y-41855485D01*
X3022487Y-41855485D01*
X2855485Y-42022487D01*
X2855485Y-42022488D01*
X2855483Y-42022490D01*
X2827089Y-42061571D01*
X2716657Y-42213566D01*
X2609433Y-42424003D01*
X2536446Y-42648631D01*
X2499500Y-42881902D01*
X400500Y-42881902D01*
X400500Y-39388575D01*
X2300000Y-39388575D01*
X2300000Y-39611424D01*
X2329085Y-39832354D01*
X2329088Y-39832367D01*
X2386763Y-40047618D01*
X2472045Y-40253502D01*
X2472050Y-40253514D01*
X2583468Y-40446497D01*
X2603340Y-40472393D01*
X2603341Y-40472394D01*
X3420444Y-39655291D01*
X3440889Y-39731591D01*
X3519881Y-39868408D01*
X3631592Y-39980119D01*
X3768409Y-40059111D01*
X3844708Y-40079555D01*
X3027605Y-40896657D01*
X3027605Y-40896658D01*
X3053502Y-40916530D01*
X3246485Y-41027949D01*
X3246497Y-41027954D01*
X3452381Y-41113236D01*
X3667632Y-41170911D01*
X3667645Y-41170914D01*
X3888575Y-41200000D01*
X4111425Y-41200000D01*
X4332354Y-41170914D01*
X4332367Y-41170911D01*
X4547618Y-41113236D01*
X4753502Y-41027954D01*
X4753514Y-41027949D01*
X4946496Y-40916531D01*
X4946500Y-40916529D01*
X4972393Y-40896658D01*
X4972393Y-40896656D01*
X4155291Y-40079555D01*
X4231591Y-40059111D01*
X4368408Y-39980119D01*
X4480119Y-39868408D01*
X4559111Y-39731591D01*
X4579555Y-39655291D01*
X5396656Y-40472393D01*
X5396658Y-40472393D01*
X5416529Y-40446500D01*
X5416531Y-40446496D01*
X5527949Y-40253514D01*
X5527954Y-40253502D01*
X5613236Y-40047618D01*
X5670911Y-39832367D01*
X5670914Y-39832354D01*
X5700000Y-39611424D01*
X5700000Y-39388575D01*
X5670914Y-39167645D01*
X5670911Y-39167632D01*
X5613236Y-38952381D01*
X5527954Y-38746497D01*
X5527949Y-38746485D01*
X5416530Y-38553502D01*
X5396658Y-38527605D01*
X5396657Y-38527605D01*
X4579555Y-39344707D01*
X4559111Y-39268409D01*
X4480119Y-39131592D01*
X4368408Y-39019881D01*
X4231591Y-38940889D01*
X4155291Y-38920444D01*
X4972394Y-38103341D01*
X4972393Y-38103340D01*
X4946497Y-38083468D01*
X4753514Y-37972050D01*
X4753502Y-37972045D01*
X4547618Y-37886763D01*
X4332367Y-37829088D01*
X4332354Y-37829085D01*
X4111425Y-37800000D01*
X3888575Y-37800000D01*
X3667645Y-37829085D01*
X3667632Y-37829088D01*
X3452381Y-37886763D01*
X3246497Y-37972045D01*
X3246479Y-37972054D01*
X3053511Y-38083462D01*
X3027605Y-38103341D01*
X3844708Y-38920444D01*
X3768409Y-38940889D01*
X3631592Y-39019881D01*
X3519881Y-39131592D01*
X3440889Y-39268409D01*
X3420444Y-39344708D01*
X2603341Y-38527605D01*
X2583462Y-38553511D01*
X2472054Y-38746479D01*
X2472045Y-38746497D01*
X2386763Y-38952381D01*
X2329088Y-39167632D01*
X2329085Y-39167645D01*
X2300000Y-39388575D01*
X400500Y-39388575D01*
X400500Y-27790782D01*
X2027700Y-27790782D01*
X2027700Y-35714282D01*
X2027700Y-35826318D01*
X2056697Y-35934537D01*
X2112715Y-36031563D01*
X3126915Y-37045763D01*
X3206137Y-37124985D01*
X3284997Y-37170515D01*
X3303163Y-37181003D01*
X3411381Y-37210000D01*
X3411382Y-37210000D01*
X14868151Y-37210000D01*
X14935190Y-37229685D01*
X14980945Y-37282489D01*
X14990889Y-37351647D01*
X14979753Y-37385610D01*
X14980356Y-37385860D01*
X14925221Y-37518967D01*
X14925218Y-37518977D01*
X14898300Y-37654304D01*
X14898300Y-37654307D01*
X14898300Y-37792293D01*
X14898300Y-37792295D01*
X14898299Y-37792295D01*
X14925218Y-37927622D01*
X14925221Y-37927632D01*
X14978021Y-38055104D01*
X14978028Y-38055117D01*
X15028404Y-38130509D01*
X15049282Y-38197186D01*
X15030798Y-38264567D01*
X14978819Y-38311257D01*
X14925302Y-38323400D01*
X14357919Y-38323400D01*
X14290880Y-38303715D01*
X14270238Y-38287081D01*
X14187945Y-38204788D01*
X14187941Y-38204785D01*
X14073217Y-38128128D01*
X14073204Y-38128121D01*
X13945732Y-38075321D01*
X13945722Y-38075318D01*
X13810395Y-38048400D01*
X13810393Y-38048400D01*
X13672407Y-38048400D01*
X13672405Y-38048400D01*
X13537077Y-38075318D01*
X13537067Y-38075321D01*
X13409595Y-38128121D01*
X13409582Y-38128128D01*
X13294858Y-38204785D01*
X13294854Y-38204788D01*
X13197288Y-38302354D01*
X13197285Y-38302358D01*
X13120628Y-38417082D01*
X13120621Y-38417095D01*
X13067821Y-38544567D01*
X13067818Y-38544577D01*
X13040900Y-38679904D01*
X13040900Y-38679907D01*
X13040900Y-38817893D01*
X13040900Y-38817895D01*
X13040899Y-38817895D01*
X13067818Y-38953222D01*
X13067821Y-38953232D01*
X13120621Y-39080704D01*
X13120628Y-39080717D01*
X13197285Y-39195441D01*
X13197288Y-39195445D01*
X13294854Y-39293011D01*
X13294858Y-39293014D01*
X13409582Y-39369671D01*
X13409595Y-39369678D01*
X13535976Y-39422026D01*
X13537072Y-39422480D01*
X13557639Y-39426571D01*
X13619549Y-39458953D01*
X13654125Y-39519668D01*
X13650387Y-39589438D01*
X13609522Y-39646111D01*
X13557641Y-39669805D01*
X13428378Y-39695518D01*
X13428367Y-39695521D01*
X13300895Y-39748321D01*
X13300882Y-39748328D01*
X13186158Y-39824985D01*
X13186154Y-39824988D01*
X13088588Y-39922554D01*
X13088585Y-39922558D01*
X13011928Y-40037282D01*
X13011921Y-40037295D01*
X12959121Y-40164767D01*
X12959118Y-40164777D01*
X12932200Y-40300104D01*
X12932200Y-40300107D01*
X12932200Y-40438093D01*
X12932200Y-40438095D01*
X12932199Y-40438095D01*
X12959118Y-40573422D01*
X12959121Y-40573432D01*
X13011921Y-40700904D01*
X13011928Y-40700917D01*
X13088585Y-40815641D01*
X13088588Y-40815645D01*
X13186154Y-40913211D01*
X13186158Y-40913214D01*
X13300882Y-40989871D01*
X13300895Y-40989878D01*
X13350397Y-41010382D01*
X13428372Y-41042680D01*
X13428376Y-41042680D01*
X13428377Y-41042681D01*
X13563704Y-41069600D01*
X13563707Y-41069600D01*
X13701695Y-41069600D01*
X13792741Y-41051489D01*
X13837028Y-41042680D01*
X13964511Y-40989875D01*
X13964521Y-40989868D01*
X13966693Y-40988708D01*
X13967973Y-40988441D01*
X13970140Y-40987544D01*
X13970310Y-40987954D01*
X14035095Y-40974462D01*
X14100341Y-40999459D01*
X14112834Y-41010382D01*
X15585774Y-42483322D01*
X15619259Y-42544645D01*
X15614275Y-42614337D01*
X15572403Y-42670270D01*
X15536411Y-42688934D01*
X15398363Y-42733787D01*
X15398360Y-42733788D01*
X15237002Y-42816006D01*
X15090505Y-42922441D01*
X15090500Y-42922445D01*
X14962445Y-43050500D01*
X14962441Y-43050505D01*
X14856006Y-43197002D01*
X14773788Y-43358360D01*
X14773787Y-43358363D01*
X14717829Y-43530589D01*
X14689500Y-43709448D01*
X14689500Y-43890551D01*
X14717829Y-44069410D01*
X14773787Y-44241636D01*
X14773788Y-44241639D01*
X14818515Y-44329419D01*
X14848501Y-44388269D01*
X14856006Y-44402997D01*
X14962441Y-44549494D01*
X14962445Y-44549499D01*
X15090500Y-44677554D01*
X15090505Y-44677558D01*
X15218287Y-44770396D01*
X15237006Y-44783996D01*
X15313094Y-44822765D01*
X15398360Y-44866211D01*
X15398363Y-44866212D01*
X15484476Y-44894191D01*
X15570591Y-44922171D01*
X15653429Y-44935291D01*
X15749449Y-44950500D01*
X15749454Y-44950500D01*
X15930551Y-44950500D01*
X16017259Y-44936765D01*
X16109409Y-44922171D01*
X16281639Y-44866211D01*
X16442994Y-44783996D01*
X16589501Y-44677553D01*
X16696422Y-44570632D01*
X16757745Y-44537147D01*
X16827437Y-44542131D01*
X16871784Y-44570632D01*
X18886915Y-46585763D01*
X18966137Y-46664985D01*
X19063163Y-46721003D01*
X19171382Y-46750000D01*
X19171384Y-46750000D01*
X51333016Y-46750000D01*
X51333018Y-46750000D01*
X51441237Y-46721003D01*
X51538263Y-46664985D01*
X57163785Y-41039463D01*
X57219803Y-40942437D01*
X57248800Y-40834218D01*
X57248800Y-40722181D01*
X57248800Y-40623491D01*
X57268485Y-40556452D01*
X57321289Y-40510697D01*
X57390447Y-40500753D01*
X57445685Y-40523173D01*
X57587361Y-40626106D01*
X57804815Y-40736904D01*
X58036924Y-40812321D01*
X58277973Y-40850500D01*
X58277974Y-40850500D01*
X58522026Y-40850500D01*
X58522027Y-40850500D01*
X58763076Y-40812321D01*
X58995185Y-40736904D01*
X59212639Y-40626106D01*
X59308510Y-40556452D01*
X59376115Y-40507335D01*
X59441921Y-40483855D01*
X59509975Y-40499681D01*
X59558670Y-40549786D01*
X59573000Y-40607653D01*
X59573000Y-41973890D01*
X59553315Y-42040929D01*
X59536681Y-42061571D01*
X58116564Y-43481687D01*
X58055241Y-43515172D01*
X57990565Y-43511937D01*
X57870582Y-43472952D01*
X57690945Y-43444500D01*
X57690940Y-43444500D01*
X57509060Y-43444500D01*
X57509055Y-43444500D01*
X57329419Y-43472951D01*
X57156437Y-43529157D01*
X56994382Y-43611730D01*
X56847248Y-43718628D01*
X56847243Y-43718632D01*
X56718632Y-43847243D01*
X56718628Y-43847248D01*
X56611730Y-43994382D01*
X56529157Y-44156437D01*
X56472951Y-44329419D01*
X56444500Y-44509054D01*
X56444500Y-44690945D01*
X56472951Y-44870580D01*
X56529157Y-45043562D01*
X56611730Y-45205617D01*
X56718628Y-45352751D01*
X56718632Y-45352756D01*
X56847243Y-45481367D01*
X56847248Y-45481371D01*
X56975586Y-45574613D01*
X56994386Y-45588272D01*
X57097645Y-45640885D01*
X57156437Y-45670842D01*
X57156439Y-45670842D01*
X57156442Y-45670844D01*
X57207147Y-45687319D01*
X57329419Y-45727048D01*
X57509055Y-45755500D01*
X57509060Y-45755500D01*
X57690945Y-45755500D01*
X57870580Y-45727048D01*
X58043558Y-45670844D01*
X58205614Y-45588272D01*
X58352758Y-45481366D01*
X58481366Y-45352758D01*
X58588272Y-45205614D01*
X58670844Y-45043558D01*
X58727048Y-44870580D01*
X58739246Y-44793565D01*
X58755500Y-44690945D01*
X58755500Y-44509054D01*
X58727048Y-44329419D01*
X58717489Y-44300000D01*
X58688060Y-44209430D01*
X58686065Y-44139593D01*
X58718309Y-44083436D01*
X59830520Y-42971225D01*
X59891842Y-42937742D01*
X59961534Y-42942726D01*
X60017467Y-42984598D01*
X60041884Y-43050062D01*
X60042200Y-43058908D01*
X60042200Y-44304689D01*
X60022515Y-44371728D01*
X60005881Y-44392370D01*
X53780685Y-50617565D01*
X53719362Y-50651050D01*
X53649670Y-50646066D01*
X53636717Y-50640372D01*
X53575992Y-50609432D01*
X53575991Y-50609431D01*
X53575986Y-50609429D01*
X53351370Y-50536447D01*
X53118097Y-50499500D01*
X53118092Y-50499500D01*
X52881908Y-50499500D01*
X52881903Y-50499500D01*
X52648631Y-50536446D01*
X52424003Y-50609433D01*
X52213566Y-50716657D01*
X52104550Y-50795862D01*
X52022490Y-50855483D01*
X52022488Y-50855485D01*
X52022487Y-50855485D01*
X51855485Y-51022487D01*
X51855485Y-51022488D01*
X51855483Y-51022490D01*
X51824456Y-51065195D01*
X51716657Y-51213566D01*
X51609433Y-51424003D01*
X51536446Y-51648631D01*
X51499500Y-51881902D01*
X51499500Y-52118097D01*
X51536446Y-52351368D01*
X51609433Y-52575996D01*
X51699878Y-52753502D01*
X51716657Y-52786433D01*
X51855483Y-52977510D01*
X52022490Y-53144517D01*
X52213567Y-53283343D01*
X52312991Y-53334002D01*
X52424003Y-53390566D01*
X52424005Y-53390566D01*
X52424008Y-53390568D01*
X52503911Y-53416530D01*
X52648631Y-53463553D01*
X52881903Y-53500500D01*
X52881908Y-53500500D01*
X53118097Y-53500500D01*
X53351368Y-53463553D01*
X53441211Y-53434361D01*
X53575992Y-53390568D01*
X53786433Y-53283343D01*
X53977510Y-53144517D01*
X54144517Y-52977510D01*
X54283343Y-52786433D01*
X54390568Y-52575992D01*
X54463553Y-52351368D01*
X54463588Y-52351146D01*
X54500500Y-52118097D01*
X54500500Y-51881902D01*
X54999500Y-51881902D01*
X54999500Y-52118097D01*
X55036446Y-52351368D01*
X55109433Y-52575996D01*
X55199878Y-52753502D01*
X55216657Y-52786433D01*
X55355483Y-52977510D01*
X55522490Y-53144517D01*
X55713567Y-53283343D01*
X55812991Y-53334002D01*
X55924003Y-53390566D01*
X55924005Y-53390566D01*
X55924008Y-53390568D01*
X56003911Y-53416530D01*
X56148631Y-53463553D01*
X56381903Y-53500500D01*
X56381908Y-53500500D01*
X56618097Y-53500500D01*
X56851368Y-53463553D01*
X56941211Y-53434361D01*
X57075992Y-53390568D01*
X57286433Y-53283343D01*
X57477510Y-53144517D01*
X57644517Y-52977510D01*
X57783343Y-52786433D01*
X57890568Y-52575992D01*
X57963553Y-52351368D01*
X57963588Y-52351146D01*
X58849500Y-52351146D01*
X58849500Y-52648853D01*
X58882830Y-52944662D01*
X58882831Y-52944671D01*
X58882832Y-52944675D01*
X58899393Y-53017233D01*
X58949076Y-53234912D01*
X58949079Y-53234920D01*
X59047400Y-53515904D01*
X59176563Y-53784114D01*
X59176565Y-53784117D01*
X59334950Y-54036185D01*
X59520562Y-54268934D01*
X59731066Y-54479438D01*
X59963815Y-54665050D01*
X60215883Y-54823435D01*
X60484099Y-54952601D01*
X60695135Y-55026445D01*
X60765079Y-55050920D01*
X60765087Y-55050923D01*
X60765090Y-55050923D01*
X60765091Y-55050924D01*
X61055325Y-55117168D01*
X61351147Y-55150499D01*
X61351148Y-55150500D01*
X61351151Y-55150500D01*
X61648852Y-55150500D01*
X61648852Y-55150499D01*
X61944675Y-55117168D01*
X62234909Y-55050924D01*
X62515901Y-54952601D01*
X62784117Y-54823435D01*
X63036185Y-54665050D01*
X63268934Y-54479438D01*
X63479438Y-54268934D01*
X63665050Y-54036185D01*
X63823435Y-53784117D01*
X63952601Y-53515901D01*
X64050924Y-53234909D01*
X64117168Y-52944675D01*
X64150500Y-52648849D01*
X64150500Y-52351151D01*
X64117168Y-52055325D01*
X64050924Y-51765091D01*
X63952601Y-51484099D01*
X63823435Y-51215883D01*
X63665050Y-50963815D01*
X63479438Y-50731066D01*
X63268934Y-50520562D01*
X63242524Y-50499501D01*
X63101156Y-50386763D01*
X63036185Y-50334950D01*
X62784117Y-50176565D01*
X62784114Y-50176563D01*
X62515904Y-50047400D01*
X62234920Y-49949079D01*
X62234912Y-49949076D01*
X62017233Y-49899393D01*
X61944675Y-49882832D01*
X61944671Y-49882831D01*
X61944662Y-49882830D01*
X61648853Y-49849500D01*
X61648849Y-49849500D01*
X61351151Y-49849500D01*
X61351146Y-49849500D01*
X61055337Y-49882830D01*
X61055325Y-49882832D01*
X60765087Y-49949076D01*
X60765079Y-49949079D01*
X60484095Y-50047400D01*
X60215885Y-50176563D01*
X59963816Y-50334949D01*
X59731066Y-50520561D01*
X59520561Y-50731066D01*
X59334949Y-50963816D01*
X59176563Y-51215885D01*
X59047400Y-51484095D01*
X58949079Y-51765079D01*
X58949076Y-51765087D01*
X58882832Y-52055325D01*
X58882830Y-52055337D01*
X58849500Y-52351146D01*
X57963588Y-52351146D01*
X57967211Y-52328274D01*
X58000500Y-52118097D01*
X58000500Y-51881902D01*
X57963553Y-51648631D01*
X57910093Y-51484099D01*
X57890568Y-51424008D01*
X57890566Y-51424005D01*
X57890566Y-51424003D01*
X57834002Y-51312991D01*
X57783343Y-51213567D01*
X57644517Y-51022490D01*
X57477510Y-50855483D01*
X57286433Y-50716657D01*
X57075996Y-50609433D01*
X56851368Y-50536446D01*
X56618097Y-50499500D01*
X56618092Y-50499500D01*
X56381908Y-50499500D01*
X56381903Y-50499500D01*
X56148631Y-50536446D01*
X55924003Y-50609433D01*
X55713566Y-50716657D01*
X55604550Y-50795862D01*
X55522490Y-50855483D01*
X55522488Y-50855485D01*
X55522487Y-50855485D01*
X55355485Y-51022487D01*
X55355485Y-51022488D01*
X55355483Y-51022490D01*
X55324456Y-51065195D01*
X55216657Y-51213566D01*
X55109433Y-51424003D01*
X55036446Y-51648631D01*
X54999500Y-51881902D01*
X54500500Y-51881902D01*
X54463553Y-51648631D01*
X54449605Y-51605705D01*
X54390568Y-51424008D01*
X54359630Y-51363288D01*
X54346734Y-51294618D01*
X54373011Y-51229878D01*
X54382425Y-51219321D01*
X60808185Y-44793563D01*
X60864203Y-44696537D01*
X60893200Y-44588318D01*
X60893200Y-44476281D01*
X60893200Y-38419082D01*
X60864203Y-38310863D01*
X60808185Y-38213837D01*
X60728963Y-38134615D01*
X54599479Y-32005131D01*
X58849500Y-32005131D01*
X58849500Y-34594856D01*
X58849502Y-34594882D01*
X58852413Y-34619987D01*
X58852415Y-34619991D01*
X58897793Y-34722764D01*
X58897794Y-34722765D01*
X58977235Y-34802206D01*
X59080009Y-34847585D01*
X59105135Y-34850500D01*
X61694864Y-34850499D01*
X61694879Y-34850497D01*
X61694882Y-34850497D01*
X61719987Y-34847586D01*
X61719988Y-34847585D01*
X61719991Y-34847585D01*
X61822765Y-34802206D01*
X61902206Y-34722765D01*
X61947585Y-34619991D01*
X61950500Y-34594865D01*
X61950499Y-32005136D01*
X61950497Y-32005117D01*
X61947586Y-31980012D01*
X61947585Y-31980010D01*
X61947585Y-31980009D01*
X61902206Y-31877235D01*
X61822765Y-31797794D01*
X61822763Y-31797793D01*
X61719992Y-31752415D01*
X61694865Y-31749500D01*
X59105143Y-31749500D01*
X59105117Y-31749502D01*
X59080012Y-31752413D01*
X59080008Y-31752415D01*
X58977235Y-31797793D01*
X58897794Y-31877234D01*
X58852415Y-31980006D01*
X58852415Y-31980008D01*
X58849500Y-32005131D01*
X54599479Y-32005131D01*
X49772321Y-27177973D01*
X56849500Y-27177973D01*
X56849500Y-27422027D01*
X56857940Y-27475314D01*
X56878445Y-27604780D01*
X56887679Y-27663076D01*
X56963096Y-27895185D01*
X57028245Y-28023048D01*
X57073896Y-28112642D01*
X57217339Y-28310076D01*
X57217343Y-28310081D01*
X57389918Y-28482656D01*
X57389923Y-28482660D01*
X57562136Y-28607779D01*
X57587361Y-28626106D01*
X57804815Y-28736904D01*
X58036924Y-28812321D01*
X58277973Y-28850500D01*
X58277974Y-28850500D01*
X58522026Y-28850500D01*
X58522027Y-28850500D01*
X58763076Y-28812321D01*
X58995185Y-28736904D01*
X59212639Y-28626106D01*
X59410083Y-28482655D01*
X59582655Y-28310083D01*
X59726106Y-28112639D01*
X59836904Y-27895185D01*
X59912321Y-27663076D01*
X59950500Y-27422027D01*
X59950500Y-27177973D01*
X59912321Y-26936924D01*
X59836904Y-26704815D01*
X59726106Y-26487361D01*
X59653252Y-26387086D01*
X59582660Y-26289923D01*
X59582656Y-26289918D01*
X59410081Y-26117343D01*
X59410076Y-26117339D01*
X59212642Y-25973896D01*
X59212641Y-25973895D01*
X59212639Y-25973894D01*
X58995185Y-25863096D01*
X58763076Y-25787679D01*
X58763074Y-25787678D01*
X58763072Y-25787678D01*
X58594769Y-25761021D01*
X58522027Y-25749500D01*
X58277973Y-25749500D01*
X58222093Y-25758350D01*
X58036927Y-25787678D01*
X57804812Y-25863097D01*
X57587357Y-25973896D01*
X57389923Y-26117339D01*
X57389918Y-26117343D01*
X57217343Y-26289918D01*
X57217339Y-26289923D01*
X57073896Y-26487357D01*
X56963097Y-26704812D01*
X56887678Y-26936927D01*
X56855746Y-27138536D01*
X56849500Y-27177973D01*
X49772321Y-27177973D01*
X49553863Y-26959515D01*
X49456837Y-26903497D01*
X49348618Y-26874500D01*
X49348617Y-26874500D01*
X47782129Y-26874500D01*
X47715090Y-26854815D01*
X47669335Y-26802011D01*
X47664198Y-26788818D01*
X47659074Y-26773048D01*
X47636904Y-26704815D01*
X47526106Y-26487361D01*
X47453252Y-26387086D01*
X47382660Y-26289923D01*
X47382656Y-26289918D01*
X47210081Y-26117343D01*
X47210076Y-26117339D01*
X47012642Y-25973896D01*
X47012641Y-25973895D01*
X47012639Y-25973894D01*
X46795185Y-25863096D01*
X46563076Y-25787679D01*
X46563074Y-25787678D01*
X46563072Y-25787678D01*
X46394769Y-25761021D01*
X46322027Y-25749500D01*
X46077973Y-25749500D01*
X46022093Y-25758350D01*
X45836927Y-25787678D01*
X45604812Y-25863097D01*
X45387357Y-25973896D01*
X45189923Y-26117339D01*
X45189918Y-26117343D01*
X45017343Y-26289918D01*
X45017339Y-26289923D01*
X44873896Y-26487357D01*
X44763097Y-26704812D01*
X44687678Y-26936927D01*
X44655746Y-27138536D01*
X44649500Y-27177973D01*
X44649500Y-27422027D01*
X44657940Y-27475314D01*
X44678445Y-27604780D01*
X44687679Y-27663076D01*
X44763096Y-27895185D01*
X44828245Y-28023048D01*
X44873896Y-28112642D01*
X45017339Y-28310076D01*
X45017343Y-28310081D01*
X45189918Y-28482656D01*
X45189923Y-28482660D01*
X45362136Y-28607779D01*
X45387361Y-28626106D01*
X45604815Y-28736904D01*
X45836924Y-28812321D01*
X46077973Y-28850500D01*
X46077974Y-28850500D01*
X46322026Y-28850500D01*
X46322027Y-28850500D01*
X46563076Y-28812321D01*
X46795185Y-28736904D01*
X47012639Y-28626106D01*
X47210083Y-28482655D01*
X47382655Y-28310083D01*
X47526106Y-28112639D01*
X47636904Y-27895185D01*
X47664198Y-27811181D01*
X47703636Y-27753506D01*
X47767994Y-27726308D01*
X47782129Y-27725500D01*
X49064990Y-27725500D01*
X49132029Y-27745185D01*
X49152671Y-27761819D01*
X54053671Y-32662819D01*
X54087156Y-32724142D01*
X54082172Y-32793834D01*
X54040300Y-32849767D01*
X53974836Y-32874184D01*
X53965990Y-32874500D01*
X38874499Y-32874500D01*
X38807460Y-32854815D01*
X38761705Y-32802011D01*
X38750499Y-32750500D01*
X38750499Y-32005143D01*
X38750499Y-32005136D01*
X38750497Y-32005117D01*
X38747586Y-31980012D01*
X38747585Y-31980010D01*
X38747585Y-31980009D01*
X38702206Y-31877235D01*
X38622765Y-31797794D01*
X38622763Y-31797793D01*
X38519992Y-31752415D01*
X38494865Y-31749500D01*
X35905143Y-31749500D01*
X35905117Y-31749502D01*
X35880012Y-31752413D01*
X35880008Y-31752415D01*
X35777235Y-31797793D01*
X35697794Y-31877234D01*
X35652415Y-31980006D01*
X35652415Y-31980008D01*
X35649500Y-32005131D01*
X35649500Y-34594856D01*
X35649502Y-34594882D01*
X35652413Y-34619987D01*
X35652415Y-34619991D01*
X35697793Y-34722764D01*
X35697794Y-34722765D01*
X35777235Y-34802206D01*
X35880009Y-34847585D01*
X35905135Y-34850500D01*
X38494864Y-34850499D01*
X38494879Y-34850497D01*
X38494882Y-34850497D01*
X38519987Y-34847586D01*
X38519988Y-34847585D01*
X38519991Y-34847585D01*
X38622765Y-34802206D01*
X38702206Y-34722765D01*
X38747585Y-34619991D01*
X38750500Y-34594865D01*
X38750500Y-33849500D01*
X38770185Y-33782461D01*
X38822989Y-33736706D01*
X38874500Y-33725500D01*
X54408690Y-33725500D01*
X54475729Y-33745185D01*
X54496371Y-33761819D01*
X58283791Y-37549239D01*
X58317276Y-37610562D01*
X58312292Y-37680254D01*
X58270420Y-37736187D01*
X58215508Y-37759393D01*
X58036927Y-37787678D01*
X57804812Y-37863097D01*
X57705595Y-37913651D01*
X57636926Y-37926547D01*
X57572185Y-37900271D01*
X57531928Y-37843164D01*
X57525300Y-37803166D01*
X57525300Y-37750904D01*
X57498381Y-37615577D01*
X57498380Y-37615576D01*
X57498380Y-37615572D01*
X57483643Y-37579993D01*
X57445578Y-37488095D01*
X57445571Y-37488082D01*
X57368914Y-37373358D01*
X57368911Y-37373354D01*
X57271345Y-37275788D01*
X57271341Y-37275785D01*
X57156617Y-37199128D01*
X57156604Y-37199121D01*
X57029132Y-37146321D01*
X57029122Y-37146318D01*
X56893795Y-37119400D01*
X56893793Y-37119400D01*
X56755807Y-37119400D01*
X56755805Y-37119400D01*
X56620477Y-37146318D01*
X56620467Y-37146321D01*
X56492995Y-37199121D01*
X56492982Y-37199128D01*
X56378258Y-37275785D01*
X56378254Y-37275788D01*
X56295962Y-37358081D01*
X56234639Y-37391566D01*
X56208281Y-37394400D01*
X55647981Y-37394400D01*
X55567420Y-37415986D01*
X55567419Y-37415985D01*
X55539762Y-37423397D01*
X55539759Y-37423398D01*
X55442740Y-37479412D01*
X55442734Y-37479417D01*
X55363513Y-37558639D01*
X55124819Y-37797332D01*
X55063496Y-37830817D01*
X54993804Y-37825833D01*
X54937871Y-37783961D01*
X54913454Y-37718497D01*
X54915521Y-37685459D01*
X54916249Y-37681803D01*
X54929424Y-37615567D01*
X54936500Y-37579995D01*
X54936500Y-37442004D01*
X54909581Y-37306677D01*
X54909580Y-37306676D01*
X54909580Y-37306672D01*
X54897189Y-37276758D01*
X54856778Y-37179195D01*
X54856771Y-37179182D01*
X54780114Y-37064458D01*
X54780111Y-37064454D01*
X54682545Y-36966888D01*
X54682541Y-36966885D01*
X54567817Y-36890228D01*
X54567804Y-36890221D01*
X54440332Y-36837421D01*
X54440322Y-36837418D01*
X54304995Y-36810500D01*
X54304993Y-36810500D01*
X54167007Y-36810500D01*
X54167005Y-36810500D01*
X54031677Y-36837418D01*
X54031667Y-36837421D01*
X53904195Y-36890221D01*
X53904182Y-36890228D01*
X53789458Y-36966885D01*
X53789454Y-36966888D01*
X53691888Y-37064454D01*
X53691885Y-37064458D01*
X53615228Y-37179182D01*
X53615221Y-37179195D01*
X53562421Y-37306667D01*
X53562418Y-37306677D01*
X53535500Y-37442004D01*
X53535500Y-37558389D01*
X53515815Y-37625428D01*
X53499181Y-37646070D01*
X50730371Y-40414881D01*
X50669048Y-40448366D01*
X50642690Y-40451200D01*
X47523492Y-40451200D01*
X47456453Y-40431515D01*
X47410698Y-40378711D01*
X47400754Y-40309553D01*
X47423174Y-40254315D01*
X47526103Y-40112643D01*
X47526104Y-40112642D01*
X47526106Y-40112639D01*
X47636904Y-39895185D01*
X47712321Y-39663076D01*
X47750500Y-39422027D01*
X47750500Y-39177973D01*
X47712321Y-38936924D01*
X47636904Y-38704815D01*
X47526106Y-38487361D01*
X47475051Y-38417089D01*
X47382660Y-38289923D01*
X47382656Y-38289918D01*
X47210081Y-38117343D01*
X47210076Y-38117339D01*
X47012642Y-37973896D01*
X47012641Y-37973895D01*
X47012639Y-37973894D01*
X46881715Y-37907185D01*
X46830919Y-37859210D01*
X46814124Y-37791389D01*
X46836661Y-37725255D01*
X46891376Y-37681803D01*
X46938010Y-37672700D01*
X50295981Y-37672700D01*
X50363020Y-37692385D01*
X50383662Y-37709019D01*
X50465954Y-37791311D01*
X50465958Y-37791314D01*
X50580682Y-37867971D01*
X50580695Y-37867978D01*
X50690961Y-37913651D01*
X50708172Y-37920780D01*
X50708176Y-37920780D01*
X50708177Y-37920781D01*
X50843504Y-37947700D01*
X50843507Y-37947700D01*
X50981495Y-37947700D01*
X51082431Y-37927622D01*
X51116828Y-37920780D01*
X51244311Y-37867975D01*
X51359042Y-37791314D01*
X51456614Y-37693742D01*
X51533275Y-37579011D01*
X51586080Y-37451528D01*
X51613000Y-37316193D01*
X51613000Y-37178207D01*
X51613000Y-37178204D01*
X51586081Y-37042877D01*
X51586080Y-37042876D01*
X51586080Y-37042872D01*
X51554606Y-36966886D01*
X51533278Y-36915395D01*
X51533271Y-36915382D01*
X51456614Y-36800658D01*
X51456611Y-36800654D01*
X51359045Y-36703088D01*
X51359041Y-36703085D01*
X51244317Y-36626428D01*
X51244304Y-36626421D01*
X51116832Y-36573621D01*
X51116822Y-36573618D01*
X50981495Y-36546700D01*
X50981493Y-36546700D01*
X50843507Y-36546700D01*
X50843505Y-36546700D01*
X50708177Y-36573618D01*
X50708167Y-36573621D01*
X50580695Y-36626421D01*
X50580682Y-36626428D01*
X50465958Y-36703085D01*
X50465954Y-36703088D01*
X50383662Y-36785381D01*
X50322339Y-36818866D01*
X50295981Y-36821700D01*
X48660686Y-36821700D01*
X48593647Y-36802015D01*
X48547892Y-36749211D01*
X48537948Y-36680053D01*
X48546125Y-36650247D01*
X48555991Y-36626428D01*
X48571980Y-36587828D01*
X48598900Y-36452493D01*
X48598900Y-36314507D01*
X48598900Y-36314504D01*
X48571981Y-36179177D01*
X48571980Y-36179176D01*
X48571980Y-36179172D01*
X48558786Y-36147319D01*
X48519178Y-36051695D01*
X48519171Y-36051682D01*
X48442514Y-35936958D01*
X48442511Y-35936954D01*
X48344945Y-35839388D01*
X48344941Y-35839385D01*
X48230217Y-35762728D01*
X48230204Y-35762721D01*
X48102732Y-35709921D01*
X48102722Y-35709918D01*
X47967395Y-35683000D01*
X47967393Y-35683000D01*
X47829407Y-35683000D01*
X47829405Y-35683000D01*
X47694077Y-35709918D01*
X47694067Y-35709921D01*
X47566595Y-35762721D01*
X47566582Y-35762728D01*
X47446793Y-35842770D01*
X47445767Y-35841234D01*
X47389405Y-35865167D01*
X47375060Y-35866000D01*
X39099719Y-35866000D01*
X39032680Y-35846315D01*
X39012038Y-35829681D01*
X38929745Y-35747388D01*
X38929741Y-35747385D01*
X38815017Y-35670728D01*
X38815004Y-35670721D01*
X38687532Y-35617921D01*
X38687522Y-35617918D01*
X38552195Y-35591000D01*
X38552193Y-35591000D01*
X38414207Y-35591000D01*
X38414205Y-35591000D01*
X38278877Y-35617918D01*
X38278867Y-35617921D01*
X38151395Y-35670721D01*
X38151382Y-35670728D01*
X38036658Y-35747385D01*
X38036654Y-35747388D01*
X37954362Y-35829681D01*
X37893039Y-35863166D01*
X37866681Y-35866000D01*
X14160183Y-35866000D01*
X14093144Y-35846315D01*
X14047389Y-35793511D01*
X14037445Y-35724353D01*
X14066470Y-35660797D01*
X14087297Y-35641682D01*
X14150476Y-35595780D01*
X14295780Y-35450476D01*
X14416564Y-35284231D01*
X14425187Y-35267306D01*
X14473159Y-35216511D01*
X14535672Y-35199600D01*
X21226216Y-35199600D01*
X21226218Y-35199600D01*
X21334437Y-35170603D01*
X21431463Y-35114585D01*
X28878028Y-27668018D01*
X28939351Y-27634534D01*
X28965709Y-27631700D01*
X29082095Y-27631700D01*
X29173141Y-27613589D01*
X29217428Y-27604780D01*
X29344911Y-27551975D01*
X29459642Y-27475314D01*
X29557214Y-27377742D01*
X29633875Y-27263011D01*
X29669099Y-27177973D01*
X33649500Y-27177973D01*
X33649500Y-27422027D01*
X33657940Y-27475314D01*
X33678445Y-27604780D01*
X33687679Y-27663076D01*
X33763096Y-27895185D01*
X33828245Y-28023048D01*
X33873896Y-28112642D01*
X34017339Y-28310076D01*
X34017343Y-28310081D01*
X34189918Y-28482656D01*
X34189923Y-28482660D01*
X34362136Y-28607779D01*
X34387361Y-28626106D01*
X34604815Y-28736904D01*
X34836924Y-28812321D01*
X35077973Y-28850500D01*
X35077974Y-28850500D01*
X35322026Y-28850500D01*
X35322027Y-28850500D01*
X35563076Y-28812321D01*
X35795185Y-28736904D01*
X36012639Y-28626106D01*
X36210083Y-28482655D01*
X36382655Y-28310083D01*
X36526106Y-28112639D01*
X36636904Y-27895185D01*
X36712321Y-27663076D01*
X36750500Y-27422027D01*
X36750500Y-27177973D01*
X36712321Y-26936924D01*
X36636904Y-26704815D01*
X36526106Y-26487361D01*
X36453252Y-26387086D01*
X36382660Y-26289923D01*
X36382656Y-26289918D01*
X36210081Y-26117343D01*
X36210076Y-26117339D01*
X36012642Y-25973896D01*
X36012641Y-25973895D01*
X36012639Y-25973894D01*
X35795185Y-25863096D01*
X35563076Y-25787679D01*
X35563074Y-25787678D01*
X35563072Y-25787678D01*
X35394769Y-25761021D01*
X35322027Y-25749500D01*
X35077973Y-25749500D01*
X35022093Y-25758350D01*
X34836927Y-25787678D01*
X34604812Y-25863097D01*
X34387357Y-25973896D01*
X34189923Y-26117339D01*
X34189918Y-26117343D01*
X34017343Y-26289918D01*
X34017339Y-26289923D01*
X33873896Y-26487357D01*
X33763097Y-26704812D01*
X33687678Y-26936927D01*
X33655746Y-27138536D01*
X33649500Y-27177973D01*
X29669099Y-27177973D01*
X29686680Y-27135528D01*
X29713600Y-27000193D01*
X29713600Y-26862207D01*
X29713600Y-26862204D01*
X29686681Y-26726877D01*
X29686680Y-26726876D01*
X29686680Y-26726872D01*
X29677544Y-26704815D01*
X29633878Y-26599395D01*
X29633871Y-26599382D01*
X29557214Y-26484658D01*
X29557211Y-26484654D01*
X29459645Y-26387088D01*
X29459641Y-26387085D01*
X29344917Y-26310428D01*
X29344904Y-26310421D01*
X29217432Y-26257621D01*
X29217422Y-26257618D01*
X29082095Y-26230700D01*
X29082093Y-26230700D01*
X28944107Y-26230700D01*
X28944105Y-26230700D01*
X28808777Y-26257618D01*
X28808767Y-26257621D01*
X28681295Y-26310421D01*
X28681282Y-26310428D01*
X28566558Y-26387085D01*
X28566554Y-26387088D01*
X28468988Y-26484654D01*
X28468985Y-26484658D01*
X28392328Y-26599382D01*
X28392321Y-26599395D01*
X28339521Y-26726867D01*
X28339518Y-26726877D01*
X28312600Y-26862204D01*
X28312600Y-26978589D01*
X28292915Y-27045628D01*
X28276281Y-27066270D01*
X21030271Y-34312281D01*
X20968948Y-34345766D01*
X20942590Y-34348600D01*
X19157110Y-34348600D01*
X19090071Y-34328915D01*
X19044316Y-34276111D01*
X19034372Y-34206953D01*
X19063397Y-34143397D01*
X19069429Y-34136919D01*
X28515129Y-24691219D01*
X28576452Y-24657734D01*
X28602810Y-24654900D01*
X38306294Y-24654900D01*
X38373333Y-24674585D01*
X38419088Y-24727389D01*
X38429032Y-24796547D01*
X38427911Y-24803091D01*
X38411200Y-24887102D01*
X38411200Y-24887107D01*
X38411200Y-25025093D01*
X38411200Y-25025095D01*
X38411199Y-25025095D01*
X38438118Y-25160422D01*
X38438121Y-25160432D01*
X38490921Y-25287904D01*
X38490928Y-25287917D01*
X38567584Y-25402640D01*
X38567585Y-25402641D01*
X38567586Y-25402642D01*
X38649882Y-25484938D01*
X38683366Y-25546259D01*
X38686200Y-25572618D01*
X38686200Y-26918282D01*
X38686200Y-27030318D01*
X38715197Y-27138537D01*
X38771215Y-27235563D01*
X38771217Y-27235565D01*
X41944981Y-30409329D01*
X41978466Y-30470652D01*
X41981300Y-30497010D01*
X41981300Y-30613393D01*
X41981300Y-30613395D01*
X41981299Y-30613395D01*
X42008218Y-30748722D01*
X42008221Y-30748732D01*
X42061021Y-30876204D01*
X42061028Y-30876217D01*
X42137685Y-30990941D01*
X42137688Y-30990945D01*
X42235254Y-31088511D01*
X42235258Y-31088514D01*
X42349982Y-31165171D01*
X42349995Y-31165178D01*
X42461644Y-31211424D01*
X42477472Y-31217980D01*
X42477476Y-31217980D01*
X42477477Y-31217981D01*
X42612804Y-31244900D01*
X42612807Y-31244900D01*
X42750795Y-31244900D01*
X42853606Y-31224449D01*
X42886128Y-31217980D01*
X43013611Y-31165175D01*
X43128342Y-31088514D01*
X43225914Y-30990942D01*
X43302575Y-30876211D01*
X43355380Y-30748728D01*
X43364189Y-30704441D01*
X43382300Y-30613395D01*
X43382300Y-30475404D01*
X43355381Y-30340077D01*
X43355380Y-30340076D01*
X43355380Y-30340072D01*
X43355378Y-30340067D01*
X43302578Y-30212595D01*
X43302571Y-30212582D01*
X43225914Y-30097858D01*
X43225911Y-30097854D01*
X43128345Y-30000288D01*
X43128341Y-30000285D01*
X43013617Y-29923628D01*
X43013604Y-29923621D01*
X42886132Y-29870821D01*
X42886122Y-29870818D01*
X42750795Y-29843900D01*
X42750793Y-29843900D01*
X42634410Y-29843900D01*
X42567371Y-29824215D01*
X42546729Y-29807581D01*
X39573519Y-26834371D01*
X39540034Y-26773048D01*
X39537200Y-26746690D01*
X39537200Y-25572618D01*
X39556885Y-25505579D01*
X39573514Y-25484941D01*
X39655814Y-25402642D01*
X39732475Y-25287911D01*
X39785280Y-25160428D01*
X39812200Y-25025093D01*
X39812200Y-24887107D01*
X39812200Y-24887104D01*
X39812199Y-24887102D01*
X39795489Y-24803091D01*
X39801716Y-24733499D01*
X39844579Y-24678322D01*
X39910469Y-24655078D01*
X39917106Y-24654900D01*
X54849916Y-24654900D01*
X54849918Y-24654900D01*
X54958137Y-24625903D01*
X55055163Y-24569885D01*
X56797443Y-22827603D01*
X56858764Y-22794120D01*
X56928455Y-22799104D01*
X56984389Y-22840976D01*
X56995605Y-22858988D01*
X57060205Y-22985773D01*
X57073896Y-23012643D01*
X57217339Y-23210076D01*
X57217343Y-23210081D01*
X57389918Y-23382656D01*
X57389923Y-23382660D01*
X57562136Y-23507779D01*
X57587361Y-23526106D01*
X57804815Y-23636904D01*
X58036924Y-23712321D01*
X58277973Y-23750500D01*
X58277974Y-23750500D01*
X58522026Y-23750500D01*
X58522027Y-23750500D01*
X58763076Y-23712321D01*
X58995185Y-23636904D01*
X59212639Y-23526106D01*
X59410083Y-23382655D01*
X59582655Y-23210083D01*
X59726106Y-23012639D01*
X59836904Y-22795185D01*
X59912321Y-22563076D01*
X59950500Y-22322027D01*
X59950500Y-22077973D01*
X59912321Y-21836924D01*
X59836904Y-21604815D01*
X59726106Y-21387361D01*
X59642331Y-21272054D01*
X59582660Y-21189923D01*
X59582656Y-21189918D01*
X59410081Y-21017343D01*
X59410076Y-21017339D01*
X59212642Y-20873896D01*
X59212641Y-20873895D01*
X59212639Y-20873894D01*
X59130912Y-20832252D01*
X58995189Y-20763097D01*
X58911181Y-20735801D01*
X58853506Y-20696362D01*
X58826308Y-20632004D01*
X58825500Y-20617870D01*
X58825500Y-20567284D01*
X58825500Y-20567282D01*
X58796503Y-20459063D01*
X58740485Y-20362037D01*
X58661263Y-20282815D01*
X58564239Y-20226798D01*
X58564238Y-20226797D01*
X58519895Y-20214915D01*
X58458642Y-20198503D01*
X58403057Y-20166410D01*
X53225883Y-14989235D01*
X53141779Y-14905131D01*
X58849500Y-14905131D01*
X58849500Y-17494856D01*
X58849502Y-17494882D01*
X58852413Y-17519987D01*
X58852415Y-17519991D01*
X58897793Y-17622764D01*
X58897794Y-17622765D01*
X58977235Y-17702206D01*
X59080009Y-17747585D01*
X59105135Y-17750500D01*
X61694864Y-17750499D01*
X61694879Y-17750497D01*
X61694882Y-17750497D01*
X61719987Y-17747586D01*
X61719988Y-17747585D01*
X61719991Y-17747585D01*
X61822765Y-17702206D01*
X61902206Y-17622765D01*
X61947585Y-17519991D01*
X61950500Y-17494865D01*
X61950499Y-14905136D01*
X61950497Y-14905117D01*
X61947586Y-14880012D01*
X61947585Y-14880010D01*
X61947585Y-14880009D01*
X61902206Y-14777235D01*
X61822765Y-14697794D01*
X61799859Y-14687680D01*
X61719992Y-14652415D01*
X61694865Y-14649500D01*
X59105143Y-14649500D01*
X59105117Y-14649502D01*
X59080012Y-14652413D01*
X59080008Y-14652415D01*
X58977235Y-14697793D01*
X58897794Y-14777234D01*
X58852415Y-14880006D01*
X58852415Y-14880008D01*
X58849500Y-14905131D01*
X53141779Y-14905131D01*
X52385819Y-14149171D01*
X52352334Y-14087848D01*
X52349500Y-14061490D01*
X52349500Y-13945104D01*
X52322581Y-13809777D01*
X52322580Y-13809776D01*
X52322580Y-13809772D01*
X52304718Y-13766649D01*
X52269778Y-13682295D01*
X52269771Y-13682282D01*
X52193114Y-13567558D01*
X52193111Y-13567554D01*
X52095545Y-13469988D01*
X52095541Y-13469985D01*
X51980817Y-13393328D01*
X51980804Y-13393321D01*
X51853332Y-13340521D01*
X51853322Y-13340518D01*
X51717995Y-13313600D01*
X51717993Y-13313600D01*
X51580007Y-13313600D01*
X51580005Y-13313600D01*
X51444677Y-13340518D01*
X51444667Y-13340521D01*
X51317195Y-13393321D01*
X51317182Y-13393328D01*
X51202458Y-13469985D01*
X51202454Y-13469988D01*
X51104888Y-13567554D01*
X51104885Y-13567558D01*
X51028228Y-13682282D01*
X51028221Y-13682295D01*
X50975421Y-13809767D01*
X50975418Y-13809777D01*
X50948500Y-13945104D01*
X50948500Y-13945107D01*
X50948500Y-14083093D01*
X50948500Y-14083095D01*
X50948499Y-14083095D01*
X50975418Y-14218422D01*
X50975421Y-14218432D01*
X51028221Y-14345904D01*
X51028228Y-14345917D01*
X51104885Y-14460641D01*
X51104888Y-14460645D01*
X51202454Y-14558211D01*
X51202458Y-14558214D01*
X51317182Y-14634871D01*
X51317195Y-14634878D01*
X51444667Y-14687678D01*
X51444672Y-14687680D01*
X51444676Y-14687680D01*
X51444677Y-14687681D01*
X51580004Y-14714600D01*
X51696390Y-14714600D01*
X51763429Y-14734285D01*
X51784071Y-14750919D01*
X54735358Y-17702206D01*
X57678457Y-20645304D01*
X57711942Y-20706627D01*
X57706958Y-20776319D01*
X57665086Y-20832252D01*
X57647071Y-20843470D01*
X57587357Y-20873896D01*
X57389923Y-21017339D01*
X57389918Y-21017343D01*
X57217343Y-21189918D01*
X57217339Y-21189923D01*
X57073896Y-21387357D01*
X56963097Y-21604812D01*
X56935802Y-21688818D01*
X56896364Y-21746494D01*
X56832006Y-21773692D01*
X56817871Y-21774500D01*
X56767282Y-21774500D01*
X56659063Y-21803497D01*
X56659060Y-21803498D01*
X56562040Y-21859513D01*
X56562034Y-21859517D01*
X54653971Y-23767581D01*
X54592648Y-23801066D01*
X54566290Y-23803900D01*
X50300512Y-23803900D01*
X50233473Y-23784215D01*
X50187718Y-23731411D01*
X50177774Y-23662253D01*
X50178895Y-23655708D01*
X50200500Y-23547095D01*
X50200500Y-23409104D01*
X50173581Y-23273777D01*
X50173580Y-23273776D01*
X50173580Y-23273772D01*
X50151358Y-23220122D01*
X50120778Y-23146295D01*
X50120771Y-23146282D01*
X50044114Y-23031558D01*
X50044111Y-23031554D01*
X49946545Y-22933988D01*
X49946541Y-22933985D01*
X49831817Y-22857328D01*
X49831804Y-22857321D01*
X49704332Y-22804521D01*
X49704322Y-22804518D01*
X49568995Y-22777600D01*
X49568993Y-22777600D01*
X49431007Y-22777600D01*
X49431005Y-22777600D01*
X49295677Y-22804518D01*
X49295667Y-22804521D01*
X49168195Y-22857321D01*
X49168182Y-22857328D01*
X49053458Y-22933985D01*
X49053454Y-22933988D01*
X48955888Y-23031554D01*
X48955885Y-23031558D01*
X48879228Y-23146282D01*
X48879221Y-23146294D01*
X48848642Y-23220122D01*
X48826423Y-23273767D01*
X48826056Y-23274652D01*
X48782216Y-23329056D01*
X48715922Y-23351121D01*
X48711495Y-23351200D01*
X47523492Y-23351200D01*
X47456453Y-23331515D01*
X47410698Y-23278711D01*
X47400754Y-23209553D01*
X47423174Y-23154315D01*
X47526103Y-23012643D01*
X47526104Y-23012642D01*
X47526106Y-23012639D01*
X47636904Y-22795185D01*
X47712321Y-22563076D01*
X47750500Y-22322027D01*
X47750500Y-22077973D01*
X47712321Y-21836924D01*
X47636904Y-21604815D01*
X47526106Y-21387361D01*
X47442331Y-21272054D01*
X47382660Y-21189923D01*
X47382656Y-21189918D01*
X47210081Y-21017343D01*
X47210076Y-21017339D01*
X47012642Y-20873896D01*
X47012641Y-20873895D01*
X47012639Y-20873894D01*
X46795185Y-20763096D01*
X46563076Y-20687679D01*
X46563074Y-20687678D01*
X46563072Y-20687678D01*
X46394769Y-20661021D01*
X46322027Y-20649500D01*
X46077973Y-20649500D01*
X46022093Y-20658350D01*
X45836927Y-20687678D01*
X45604812Y-20763097D01*
X45387357Y-20873896D01*
X45189923Y-21017339D01*
X45189918Y-21017343D01*
X45017343Y-21189918D01*
X45017339Y-21189923D01*
X44873896Y-21387357D01*
X44763097Y-21604812D01*
X44687678Y-21836927D01*
X44654488Y-22046479D01*
X44649500Y-22077973D01*
X44649500Y-22322027D01*
X44687679Y-22563076D01*
X44757382Y-22777600D01*
X44763097Y-22795187D01*
X44873896Y-23012643D01*
X44976826Y-23154315D01*
X45000306Y-23220122D01*
X44984480Y-23288175D01*
X44934374Y-23336870D01*
X44876508Y-23351200D01*
X36523492Y-23351200D01*
X36456453Y-23331515D01*
X36410698Y-23278711D01*
X36400754Y-23209553D01*
X36423174Y-23154315D01*
X36526103Y-23012643D01*
X36526104Y-23012642D01*
X36526106Y-23012639D01*
X36636904Y-22795185D01*
X36664198Y-22711181D01*
X36703636Y-22653506D01*
X36767994Y-22626308D01*
X36782129Y-22625500D01*
X40496016Y-22625500D01*
X40496018Y-22625500D01*
X40604237Y-22596503D01*
X40701263Y-22540485D01*
X51352628Y-11889118D01*
X51413951Y-11855634D01*
X51440309Y-11852800D01*
X51556695Y-11852800D01*
X51647741Y-11834689D01*
X51692028Y-11825880D01*
X51819511Y-11773075D01*
X51934242Y-11696414D01*
X52031814Y-11598842D01*
X52108475Y-11484111D01*
X52161280Y-11356628D01*
X52175056Y-11287370D01*
X52188200Y-11221295D01*
X52188200Y-11083304D01*
X52161281Y-10947977D01*
X52161280Y-10947976D01*
X52161280Y-10947972D01*
X52153926Y-10930217D01*
X52108478Y-10820495D01*
X52108471Y-10820482D01*
X52031814Y-10705758D01*
X52031811Y-10705754D01*
X51934245Y-10608188D01*
X51934241Y-10608185D01*
X51819517Y-10531528D01*
X51819504Y-10531521D01*
X51692032Y-10478721D01*
X51692022Y-10478718D01*
X51556695Y-10451800D01*
X51556693Y-10451800D01*
X51418707Y-10451800D01*
X51418705Y-10451800D01*
X51283377Y-10478718D01*
X51283367Y-10478721D01*
X51155895Y-10531521D01*
X51155882Y-10531528D01*
X51041158Y-10608185D01*
X51041154Y-10608188D01*
X50943588Y-10705754D01*
X50943585Y-10705758D01*
X50866928Y-10820482D01*
X50866921Y-10820495D01*
X50814121Y-10947967D01*
X50814118Y-10947977D01*
X50787200Y-11083304D01*
X50787200Y-11199689D01*
X50767515Y-11266728D01*
X50750881Y-11287370D01*
X40300071Y-21738181D01*
X40238748Y-21771666D01*
X40212390Y-21774500D01*
X36782129Y-21774500D01*
X36715090Y-21754815D01*
X36669335Y-21702011D01*
X36664198Y-21688818D01*
X36636904Y-21604815D01*
X36526106Y-21387361D01*
X36526104Y-21387358D01*
X36526103Y-21387356D01*
X36423174Y-21245685D01*
X36399694Y-21179878D01*
X36415520Y-21111825D01*
X36465626Y-21063130D01*
X36523492Y-21048800D01*
X38737411Y-21048800D01*
X38799411Y-21065413D01*
X38877163Y-21110303D01*
X38985381Y-21139300D01*
X38985382Y-21139300D01*
X38985383Y-21139300D01*
X40171416Y-21139300D01*
X40171418Y-21139300D01*
X40279637Y-21110303D01*
X40376663Y-21054285D01*
X41725085Y-19705863D01*
X41781103Y-19608837D01*
X41810100Y-19500618D01*
X41810100Y-19388581D01*
X41810100Y-16297982D01*
X41781103Y-16189763D01*
X41725085Y-16092737D01*
X41668419Y-16036071D01*
X41634934Y-15974748D01*
X41632100Y-15948390D01*
X41632100Y-15832004D01*
X41605181Y-15696677D01*
X41605180Y-15696676D01*
X41605180Y-15696672D01*
X41598678Y-15680974D01*
X41552378Y-15569195D01*
X41552371Y-15569182D01*
X41475714Y-15454458D01*
X41475711Y-15454454D01*
X41378145Y-15356888D01*
X41378141Y-15356885D01*
X41263417Y-15280228D01*
X41263404Y-15280221D01*
X41135932Y-15227421D01*
X41135922Y-15227418D01*
X41000595Y-15200500D01*
X41000593Y-15200500D01*
X40862607Y-15200500D01*
X40862605Y-15200500D01*
X40727277Y-15227418D01*
X40727267Y-15227421D01*
X40599795Y-15280221D01*
X40599782Y-15280228D01*
X40485058Y-15356885D01*
X40485054Y-15356888D01*
X40387488Y-15454454D01*
X40387483Y-15454460D01*
X40331445Y-15538326D01*
X40277833Y-15583130D01*
X40208508Y-15591837D01*
X40145480Y-15561682D01*
X40140663Y-15557115D01*
X37790265Y-13206717D01*
X37790263Y-13206715D01*
X37693237Y-13150697D01*
X37585018Y-13121700D01*
X37585017Y-13121700D01*
X36510510Y-13121700D01*
X36443471Y-13102015D01*
X36422829Y-13085381D01*
X35292036Y-11954588D01*
X35258551Y-11893265D01*
X35263535Y-11823573D01*
X35305407Y-11767640D01*
X35360316Y-11744435D01*
X35524689Y-11718400D01*
X35563071Y-11712322D01*
X35563071Y-11712321D01*
X35563076Y-11712321D01*
X35795185Y-11636904D01*
X36012639Y-11526106D01*
X36210083Y-11382655D01*
X36382655Y-11210083D01*
X36526106Y-11012639D01*
X36636904Y-10795185D01*
X36664198Y-10711181D01*
X36703636Y-10653506D01*
X36767994Y-10626308D01*
X36782129Y-10625500D01*
X43993016Y-10625500D01*
X43993018Y-10625500D01*
X44101237Y-10596503D01*
X44198263Y-10540485D01*
X44445590Y-10293157D01*
X44506911Y-10259674D01*
X44576602Y-10264658D01*
X44632536Y-10306529D01*
X44655742Y-10361441D01*
X44687678Y-10563073D01*
X44687679Y-10563076D01*
X44734039Y-10705758D01*
X44763097Y-10795187D01*
X44873896Y-11012642D01*
X45017339Y-11210076D01*
X45017343Y-11210081D01*
X45189918Y-11382656D01*
X45189923Y-11382660D01*
X45329568Y-11484117D01*
X45387361Y-11526106D01*
X45604815Y-11636904D01*
X45836924Y-11712321D01*
X46077973Y-11750500D01*
X46077974Y-11750500D01*
X46322026Y-11750500D01*
X46322027Y-11750500D01*
X46563076Y-11712321D01*
X46795185Y-11636904D01*
X47012639Y-11526106D01*
X47210083Y-11382655D01*
X47382655Y-11210083D01*
X47526106Y-11012639D01*
X47636904Y-10795185D01*
X47712321Y-10563076D01*
X47750500Y-10322027D01*
X47750500Y-10077973D01*
X47712321Y-9836924D01*
X47636904Y-9604815D01*
X47526106Y-9387361D01*
X47526104Y-9387358D01*
X47526103Y-9387356D01*
X47423174Y-9245685D01*
X47399694Y-9179878D01*
X47415520Y-9111825D01*
X47465626Y-9063130D01*
X47523492Y-9048800D01*
X48188777Y-9048800D01*
X48249682Y-9066683D01*
X48250314Y-9065502D01*
X48255695Y-9068378D01*
X48340066Y-9103325D01*
X48383172Y-9121180D01*
X48383176Y-9121180D01*
X48383177Y-9121181D01*
X48518504Y-9148100D01*
X48518507Y-9148100D01*
X48656495Y-9148100D01*
X48747541Y-9129989D01*
X48791828Y-9121180D01*
X48899408Y-9076619D01*
X48919304Y-9068378D01*
X48919304Y-9068377D01*
X48919311Y-9068375D01*
X48919316Y-9068371D01*
X48924686Y-9065502D01*
X48925552Y-9067123D01*
X48984010Y-9048820D01*
X48986223Y-9048800D01*
X55018990Y-9048800D01*
X55086029Y-9068485D01*
X55106671Y-9085119D01*
X56562037Y-10540485D01*
X56659063Y-10596503D01*
X56767282Y-10625500D01*
X56817871Y-10625500D01*
X56884910Y-10645185D01*
X56930665Y-10697989D01*
X56935802Y-10711182D01*
X56963097Y-10795187D01*
X57073896Y-11012642D01*
X57217339Y-11210076D01*
X57217343Y-11210081D01*
X57389918Y-11382656D01*
X57389923Y-11382660D01*
X57529568Y-11484117D01*
X57587361Y-11526106D01*
X57804815Y-11636904D01*
X58036924Y-11712321D01*
X58277973Y-11750500D01*
X58277974Y-11750500D01*
X58522026Y-11750500D01*
X58522027Y-11750500D01*
X58763076Y-11712321D01*
X58995185Y-11636904D01*
X59212639Y-11526106D01*
X59410083Y-11382655D01*
X59582655Y-11210083D01*
X59726106Y-11012639D01*
X59836904Y-10795185D01*
X59912321Y-10563076D01*
X59950500Y-10322027D01*
X59950500Y-10077973D01*
X59912321Y-9836924D01*
X59836904Y-9604815D01*
X59726106Y-9387361D01*
X59707779Y-9362136D01*
X59582660Y-9189923D01*
X59582656Y-9189918D01*
X59410081Y-9017343D01*
X59410076Y-9017339D01*
X59212642Y-8873896D01*
X59212641Y-8873895D01*
X59212639Y-8873894D01*
X58995185Y-8763096D01*
X58763076Y-8687679D01*
X58763074Y-8687678D01*
X58763072Y-8687678D01*
X58594565Y-8660989D01*
X58522027Y-8649500D01*
X58277973Y-8649500D01*
X58222093Y-8658350D01*
X58036927Y-8687678D01*
X57804812Y-8763097D01*
X57587357Y-8873896D01*
X57389923Y-9017339D01*
X57389918Y-9017343D01*
X57217343Y-9189918D01*
X57217339Y-9189923D01*
X57073896Y-9387357D01*
X56995607Y-9541007D01*
X56947632Y-9591803D01*
X56879811Y-9608598D01*
X56813676Y-9586060D01*
X56797441Y-9572393D01*
X55507865Y-8282817D01*
X55507863Y-8282815D01*
X55410837Y-8226797D01*
X55302618Y-8197800D01*
X55302617Y-8197800D01*
X49325099Y-8197800D01*
X49258060Y-8178115D01*
X49212305Y-8125311D01*
X49210548Y-8121277D01*
X49208275Y-8115789D01*
X49208272Y-8115784D01*
X49208271Y-8115782D01*
X49131614Y-8001058D01*
X49131611Y-8001054D01*
X49034045Y-7903488D01*
X49034041Y-7903485D01*
X48919317Y-7826828D01*
X48919304Y-7826821D01*
X48791832Y-7774021D01*
X48791822Y-7774018D01*
X48656495Y-7747100D01*
X48656493Y-7747100D01*
X48518507Y-7747100D01*
X48518505Y-7747100D01*
X48383177Y-7774018D01*
X48383167Y-7774021D01*
X48255695Y-7826821D01*
X48255682Y-7826828D01*
X48140958Y-7903485D01*
X48140954Y-7903488D01*
X48043388Y-8001054D01*
X48043385Y-8001058D01*
X47966728Y-8115782D01*
X47966726Y-8115787D01*
X47966725Y-8115789D01*
X47964462Y-8121250D01*
X47920625Y-8175654D01*
X47854331Y-8197721D01*
X47849901Y-8197800D01*
X45457682Y-8197800D01*
X45349463Y-8226797D01*
X45349460Y-8226798D01*
X45252440Y-8282813D01*
X45252434Y-8282817D01*
X43797071Y-9738181D01*
X43735748Y-9771666D01*
X43709390Y-9774500D01*
X36782129Y-9774500D01*
X36715090Y-9754815D01*
X36669335Y-9702011D01*
X36664198Y-9688818D01*
X36636904Y-9604815D01*
X36526106Y-9387361D01*
X36515786Y-9373157D01*
X36416998Y-9237185D01*
X36393518Y-9171379D01*
X36409344Y-9103325D01*
X36459450Y-9054630D01*
X36517316Y-9040300D01*
X39214190Y-9040300D01*
X39281229Y-9059985D01*
X39301871Y-9076619D01*
X39378715Y-9153463D01*
X39457937Y-9232685D01*
X39554963Y-9288703D01*
X39663182Y-9317700D01*
X39663184Y-9317700D01*
X41139916Y-9317700D01*
X41139918Y-9317700D01*
X41248137Y-9288703D01*
X41345163Y-9232685D01*
X42921084Y-7656764D01*
X42977103Y-7559737D01*
X43006100Y-7451519D01*
X43006100Y-7339482D01*
X43006100Y-5764208D01*
X43025785Y-5697169D01*
X43078589Y-5651414D01*
X43147747Y-5641470D01*
X43202985Y-5663890D01*
X43327006Y-5753996D01*
X43403094Y-5792765D01*
X43488360Y-5836211D01*
X43488363Y-5836212D01*
X43543400Y-5854094D01*
X43660591Y-5892171D01*
X43743429Y-5905291D01*
X43839449Y-5920500D01*
X43839454Y-5920500D01*
X44020551Y-5920500D01*
X44107259Y-5906765D01*
X44199409Y-5892171D01*
X44371639Y-5836211D01*
X44532994Y-5753996D01*
X44679501Y-5647553D01*
X44807553Y-5519501D01*
X44913996Y-5372994D01*
X44996211Y-5211639D01*
X45052171Y-5039409D01*
X45066422Y-4949425D01*
X45077527Y-4879321D01*
X45107456Y-4816186D01*
X45166768Y-4779255D01*
X45236630Y-4780253D01*
X45294863Y-4818863D01*
X45322473Y-4879321D01*
X45347829Y-5039410D01*
X45403787Y-5211636D01*
X45403788Y-5211639D01*
X45455271Y-5312678D01*
X45477704Y-5356705D01*
X45486006Y-5372997D01*
X45592441Y-5519494D01*
X45592445Y-5519499D01*
X45720500Y-5647554D01*
X45720505Y-5647558D01*
X45788790Y-5697169D01*
X45867006Y-5753996D01*
X45943094Y-5792765D01*
X46028360Y-5836211D01*
X46028363Y-5836212D01*
X46083400Y-5854094D01*
X46200591Y-5892171D01*
X46283429Y-5905291D01*
X46379449Y-5920500D01*
X46379454Y-5920500D01*
X46560551Y-5920500D01*
X46647259Y-5906765D01*
X46739409Y-5892171D01*
X46911639Y-5836211D01*
X47072994Y-5753996D01*
X47219501Y-5647553D01*
X47347553Y-5519501D01*
X47453996Y-5372994D01*
X47536211Y-5211639D01*
X47592171Y-5039409D01*
X47606422Y-4949425D01*
X47617527Y-4879321D01*
X47647456Y-4816186D01*
X47706768Y-4779255D01*
X47776630Y-4780253D01*
X47834863Y-4818863D01*
X47862473Y-4879321D01*
X47887829Y-5039410D01*
X47943787Y-5211636D01*
X47943788Y-5211639D01*
X47995271Y-5312678D01*
X48017704Y-5356705D01*
X48026006Y-5372997D01*
X48132441Y-5519494D01*
X48132445Y-5519499D01*
X48260500Y-5647554D01*
X48260505Y-5647558D01*
X48328790Y-5697169D01*
X48407006Y-5753996D01*
X48483094Y-5792765D01*
X48568360Y-5836211D01*
X48568363Y-5836212D01*
X48623400Y-5854094D01*
X48740591Y-5892171D01*
X48823429Y-5905291D01*
X48919449Y-5920500D01*
X48919454Y-5920500D01*
X49100551Y-5920500D01*
X49187259Y-5906765D01*
X49279409Y-5892171D01*
X49451639Y-5836211D01*
X49612994Y-5753996D01*
X49759501Y-5647553D01*
X49887553Y-5519501D01*
X49993996Y-5372994D01*
X50076211Y-5211639D01*
X50132171Y-5039409D01*
X50146422Y-4949425D01*
X50157527Y-4879321D01*
X50187456Y-4816186D01*
X50246768Y-4779255D01*
X50316630Y-4780253D01*
X50374863Y-4818863D01*
X50402473Y-4879321D01*
X50427829Y-5039410D01*
X50483787Y-5211636D01*
X50483788Y-5211639D01*
X50535271Y-5312678D01*
X50557704Y-5356705D01*
X50566006Y-5372997D01*
X50672441Y-5519494D01*
X50672445Y-5519499D01*
X50800500Y-5647554D01*
X50800505Y-5647558D01*
X50868790Y-5697169D01*
X50947006Y-5753996D01*
X51023094Y-5792765D01*
X51108360Y-5836211D01*
X51108363Y-5836212D01*
X51163400Y-5854094D01*
X51280591Y-5892171D01*
X51363429Y-5905291D01*
X51459449Y-5920500D01*
X51459454Y-5920500D01*
X51640551Y-5920500D01*
X51727259Y-5906765D01*
X51819409Y-5892171D01*
X51991639Y-5836211D01*
X52152994Y-5753996D01*
X52299501Y-5647553D01*
X52427553Y-5519501D01*
X52533996Y-5372994D01*
X52616211Y-5211639D01*
X52672171Y-5039409D01*
X52686422Y-4949425D01*
X52697527Y-4879321D01*
X52727456Y-4816186D01*
X52786768Y-4779255D01*
X52856630Y-4780253D01*
X52914863Y-4818863D01*
X52942473Y-4879321D01*
X52967829Y-5039410D01*
X53023787Y-5211636D01*
X53023788Y-5211639D01*
X53075271Y-5312678D01*
X53097704Y-5356705D01*
X53106006Y-5372997D01*
X53212441Y-5519494D01*
X53212445Y-5519499D01*
X53340500Y-5647554D01*
X53340505Y-5647558D01*
X53408790Y-5697169D01*
X53487006Y-5753996D01*
X53563094Y-5792765D01*
X53648360Y-5836211D01*
X53648363Y-5836212D01*
X53703400Y-5854094D01*
X53820591Y-5892171D01*
X53903429Y-5905291D01*
X53999449Y-5920500D01*
X53999454Y-5920500D01*
X54180551Y-5920500D01*
X54267259Y-5906765D01*
X54359409Y-5892171D01*
X54531639Y-5836211D01*
X54692994Y-5753996D01*
X54839501Y-5647553D01*
X54967553Y-5519501D01*
X55073996Y-5372994D01*
X55141090Y-5241314D01*
X55189065Y-5190519D01*
X55256886Y-5173724D01*
X55323021Y-5196262D01*
X55366472Y-5250977D01*
X55369506Y-5259292D01*
X55378904Y-5288217D01*
X55475375Y-5477550D01*
X55484973Y-5490761D01*
X56132094Y-4843641D01*
X56164075Y-4962993D01*
X56229901Y-5077007D01*
X56322993Y-5170099D01*
X56437007Y-5235925D01*
X56556358Y-5267905D01*
X55909236Y-5915025D01*
X55922440Y-5924618D01*
X55922453Y-5924626D01*
X56111782Y-6021095D01*
X56313870Y-6086757D01*
X56523754Y-6120000D01*
X56736246Y-6120000D01*
X56946127Y-6086757D01*
X56946130Y-6086757D01*
X57148217Y-6021095D01*
X57337556Y-5924620D01*
X57337563Y-5924617D01*
X57350761Y-5915026D01*
X57350762Y-5915025D01*
X56703641Y-5267905D01*
X56822993Y-5235925D01*
X56937007Y-5170099D01*
X57030099Y-5077007D01*
X57095925Y-4962993D01*
X57127905Y-4843641D01*
X57775025Y-5490762D01*
X57775026Y-5490761D01*
X57784617Y-5477563D01*
X57784620Y-5477556D01*
X57881095Y-5288217D01*
X57946757Y-5086130D01*
X57946757Y-5086127D01*
X57980000Y-4876246D01*
X57980000Y-4663753D01*
X57946757Y-4453872D01*
X57946757Y-4453869D01*
X57881095Y-4251782D01*
X57784626Y-4062453D01*
X57784618Y-4062440D01*
X57775025Y-4049237D01*
X57775025Y-4049236D01*
X57127905Y-4696357D01*
X57095925Y-4577007D01*
X57030099Y-4462993D01*
X56937007Y-4369901D01*
X56822993Y-4304075D01*
X56703642Y-4272094D01*
X57350761Y-3624973D01*
X57337550Y-3615375D01*
X57148217Y-3518904D01*
X57119292Y-3509506D01*
X57101014Y-3497008D01*
X57080495Y-3488680D01*
X57072733Y-3477670D01*
X57061616Y-3470068D01*
X57052996Y-3449671D01*
X57040238Y-3431573D01*
X57039661Y-3418116D01*
X57034418Y-3405710D01*
X57038194Y-3383890D01*
X57037246Y-3361768D01*
X57043446Y-3351146D01*
X58849500Y-3351146D01*
X58849500Y-3648853D01*
X58882830Y-3944662D01*
X58882831Y-3944671D01*
X58882832Y-3944675D01*
X58895510Y-4000219D01*
X58949076Y-4234912D01*
X58949079Y-4234920D01*
X59047400Y-4515904D01*
X59176563Y-4784114D01*
X59176565Y-4784117D01*
X59334950Y-5036185D01*
X59520562Y-5268934D01*
X59731066Y-5479438D01*
X59963815Y-5665050D01*
X60215883Y-5823435D01*
X60484099Y-5952601D01*
X60599522Y-5992989D01*
X60765079Y-6050920D01*
X60765087Y-6050923D01*
X60765090Y-6050923D01*
X60765091Y-6050924D01*
X61055325Y-6117168D01*
X61351147Y-6150499D01*
X61351148Y-6150500D01*
X61351151Y-6150500D01*
X61648852Y-6150500D01*
X61648852Y-6150499D01*
X61944675Y-6117168D01*
X62234909Y-6050924D01*
X62515901Y-5952601D01*
X62784117Y-5823435D01*
X63036185Y-5665050D01*
X63268934Y-5479438D01*
X63479438Y-5268934D01*
X63665050Y-5036185D01*
X63823435Y-4784117D01*
X63952601Y-4515901D01*
X64050924Y-4234909D01*
X64117168Y-3944675D01*
X64150500Y-3648849D01*
X64150500Y-3351151D01*
X64117168Y-3055325D01*
X64050924Y-2765091D01*
X63952601Y-2484099D01*
X63823435Y-2215883D01*
X63665050Y-1963815D01*
X63479438Y-1731066D01*
X63268934Y-1520562D01*
X63036185Y-1334950D01*
X62784117Y-1176565D01*
X62784114Y-1176563D01*
X62515904Y-1047400D01*
X62234920Y-949079D01*
X62234912Y-949076D01*
X62017233Y-899393D01*
X61944675Y-882832D01*
X61944671Y-882831D01*
X61944662Y-882830D01*
X61648853Y-849500D01*
X61648849Y-849500D01*
X61351151Y-849500D01*
X61351146Y-849500D01*
X61055337Y-882830D01*
X61055325Y-882832D01*
X60765087Y-949076D01*
X60765079Y-949079D01*
X60484095Y-1047400D01*
X60215885Y-1176563D01*
X59963816Y-1334949D01*
X59731066Y-1520561D01*
X59520561Y-1731066D01*
X59334949Y-1963816D01*
X59176563Y-2215885D01*
X59047400Y-2484095D01*
X58949079Y-2765079D01*
X58949076Y-2765087D01*
X58882832Y-3055325D01*
X58882830Y-3055337D01*
X58849500Y-3351146D01*
X57043446Y-3351146D01*
X57044036Y-3350135D01*
X57046333Y-3336863D01*
X57061305Y-3320549D01*
X57072468Y-3301426D01*
X57090568Y-3288665D01*
X57093577Y-3285388D01*
X57101315Y-3281090D01*
X57149845Y-3256363D01*
X57232994Y-3213996D01*
X57379501Y-3107553D01*
X57507553Y-2979501D01*
X57613996Y-2832994D01*
X57696211Y-2671639D01*
X57752171Y-2499409D01*
X57775130Y-2354451D01*
X57780500Y-2320551D01*
X57780500Y-2139448D01*
X57764019Y-2035397D01*
X57752171Y-1960591D01*
X57708530Y-1826275D01*
X57696212Y-1788363D01*
X57696211Y-1788360D01*
X57657191Y-1711780D01*
X57613996Y-1627006D01*
X57600396Y-1608287D01*
X57507558Y-1480505D01*
X57507554Y-1480500D01*
X57379499Y-1352445D01*
X57379494Y-1352441D01*
X57232997Y-1246006D01*
X57232996Y-1246005D01*
X57232994Y-1246004D01*
X57181300Y-1219664D01*
X57071639Y-1163788D01*
X57071636Y-1163787D01*
X56899410Y-1107829D01*
X56720551Y-1079500D01*
X56720546Y-1079500D01*
X56539454Y-1079500D01*
X56539449Y-1079500D01*
X56360589Y-1107829D01*
X56188363Y-1163787D01*
X56188360Y-1163788D01*
X56027002Y-1246006D01*
X55880505Y-1352441D01*
X55880500Y-1352445D01*
X55752445Y-1480500D01*
X55752441Y-1480505D01*
X55646006Y-1627002D01*
X55563788Y-1788360D01*
X55563787Y-1788363D01*
X55507829Y-1960589D01*
X55482473Y-2120678D01*
X55452544Y-2183813D01*
X55393232Y-2220744D01*
X55323369Y-2219746D01*
X55265137Y-2181136D01*
X55237527Y-2120678D01*
X55223740Y-2033639D01*
X55212171Y-1960591D01*
X55168530Y-1826275D01*
X55156212Y-1788363D01*
X55156211Y-1788360D01*
X55117191Y-1711780D01*
X55073996Y-1627006D01*
X55060396Y-1608287D01*
X54967558Y-1480505D01*
X54967554Y-1480500D01*
X54839499Y-1352445D01*
X54839494Y-1352441D01*
X54692997Y-1246006D01*
X54692996Y-1246005D01*
X54692994Y-1246004D01*
X54641300Y-1219664D01*
X54531639Y-1163788D01*
X54531636Y-1163787D01*
X54359410Y-1107829D01*
X54180551Y-1079500D01*
X54180546Y-1079500D01*
X53999454Y-1079500D01*
X53999449Y-1079500D01*
X53820589Y-1107829D01*
X53648363Y-1163787D01*
X53648360Y-1163788D01*
X53487002Y-1246006D01*
X53340505Y-1352441D01*
X53340500Y-1352445D01*
X53212445Y-1480500D01*
X53212441Y-1480505D01*
X53106006Y-1627002D01*
X53023788Y-1788360D01*
X53023787Y-1788363D01*
X52967829Y-1960589D01*
X52942473Y-2120678D01*
X52912544Y-2183813D01*
X52853232Y-2220744D01*
X52783369Y-2219746D01*
X52725137Y-2181136D01*
X52697527Y-2120678D01*
X52683740Y-2033639D01*
X52672171Y-1960591D01*
X52628530Y-1826275D01*
X52616212Y-1788363D01*
X52616211Y-1788360D01*
X52577191Y-1711780D01*
X52533996Y-1627006D01*
X52520396Y-1608287D01*
X52427558Y-1480505D01*
X52427554Y-1480500D01*
X52299499Y-1352445D01*
X52299494Y-1352441D01*
X52152997Y-1246006D01*
X52152996Y-1246005D01*
X52152994Y-1246004D01*
X52101300Y-1219664D01*
X51991639Y-1163788D01*
X51991636Y-1163787D01*
X51819410Y-1107829D01*
X51640551Y-1079500D01*
X51640546Y-1079500D01*
X51459454Y-1079500D01*
X51459449Y-1079500D01*
X51280589Y-1107829D01*
X51108363Y-1163787D01*
X51108360Y-1163788D01*
X50947002Y-1246006D01*
X50800505Y-1352441D01*
X50800500Y-1352445D01*
X50672445Y-1480500D01*
X50672441Y-1480505D01*
X50566004Y-1627004D01*
X50498908Y-1758685D01*
X50450933Y-1809480D01*
X50383112Y-1826275D01*
X50316977Y-1803737D01*
X50273527Y-1749021D01*
X50270492Y-1740705D01*
X50261094Y-1711780D01*
X50164626Y-1522453D01*
X50164618Y-1522440D01*
X50155025Y-1509237D01*
X50155025Y-1509236D01*
X49507905Y-2156357D01*
X49475925Y-2037007D01*
X49410099Y-1922993D01*
X49317007Y-1829901D01*
X49202993Y-1764075D01*
X49083642Y-1732094D01*
X49730761Y-1084973D01*
X49717550Y-1075375D01*
X49528217Y-978904D01*
X49326129Y-913242D01*
X49116246Y-880000D01*
X48903754Y-880000D01*
X48693872Y-913242D01*
X48693869Y-913242D01*
X48491782Y-978904D01*
X48302448Y-1075375D01*
X48289237Y-1084972D01*
X48289237Y-1084973D01*
X48936358Y-1732094D01*
X48817007Y-1764075D01*
X48702993Y-1829901D01*
X48609901Y-1922993D01*
X48544075Y-2037007D01*
X48512094Y-2156358D01*
X47864973Y-1509237D01*
X47864972Y-1509237D01*
X47855375Y-1522448D01*
X47758905Y-1711781D01*
X47749506Y-1740708D01*
X47710068Y-1798383D01*
X47645709Y-1825581D01*
X47576862Y-1813666D01*
X47525387Y-1766421D01*
X47521090Y-1758684D01*
X47497191Y-1711780D01*
X47453996Y-1627006D01*
X47440396Y-1608287D01*
X47347558Y-1480505D01*
X47347554Y-1480500D01*
X47219499Y-1352445D01*
X47219494Y-1352441D01*
X47072995Y-1246004D01*
X47066542Y-1242716D01*
X47066541Y-1242716D01*
X46911639Y-1163788D01*
X46911636Y-1163787D01*
X46739410Y-1107829D01*
X46560551Y-1079500D01*
X46560546Y-1079500D01*
X46379454Y-1079500D01*
X46379449Y-1079500D01*
X46200589Y-1107829D01*
X46028363Y-1163787D01*
X46028360Y-1163788D01*
X45867002Y-1246006D01*
X45720505Y-1352441D01*
X45720500Y-1352445D01*
X45592445Y-1480500D01*
X45592441Y-1480505D01*
X45486004Y-1627004D01*
X45418908Y-1758685D01*
X45370933Y-1809480D01*
X45303112Y-1826275D01*
X45236977Y-1803737D01*
X45193527Y-1749021D01*
X45190492Y-1740705D01*
X45181094Y-1711780D01*
X45084626Y-1522453D01*
X45084618Y-1522440D01*
X45075025Y-1509237D01*
X45075025Y-1509236D01*
X44427905Y-2156357D01*
X44395925Y-2037007D01*
X44330099Y-1922993D01*
X44237007Y-1829901D01*
X44122993Y-1764075D01*
X44003642Y-1732094D01*
X44650761Y-1084973D01*
X44637550Y-1075375D01*
X44448217Y-978904D01*
X44246129Y-913242D01*
X44036246Y-880000D01*
X43823754Y-880000D01*
X43613872Y-913242D01*
X43613869Y-913242D01*
X43411782Y-978904D01*
X43222448Y-1075375D01*
X43209237Y-1084972D01*
X43209237Y-1084973D01*
X43856358Y-1732094D01*
X43737007Y-1764075D01*
X43622993Y-1829901D01*
X43529901Y-1922993D01*
X43464075Y-2037007D01*
X43432094Y-2156358D01*
X42784973Y-1509237D01*
X42784972Y-1509237D01*
X42775375Y-1522448D01*
X42678905Y-1711781D01*
X42669506Y-1740708D01*
X42630068Y-1798383D01*
X42565709Y-1825581D01*
X42496862Y-1813666D01*
X42445387Y-1766421D01*
X42441090Y-1758684D01*
X42417191Y-1711780D01*
X42373996Y-1627006D01*
X42360396Y-1608287D01*
X42267558Y-1480505D01*
X42267554Y-1480500D01*
X42139499Y-1352445D01*
X42139494Y-1352441D01*
X41992995Y-1246004D01*
X41986542Y-1242716D01*
X41986541Y-1242716D01*
X41831639Y-1163788D01*
X41831636Y-1163787D01*
X41659410Y-1107829D01*
X41480551Y-1079500D01*
X41480546Y-1079500D01*
X41299454Y-1079500D01*
X41299449Y-1079500D01*
X41120589Y-1107829D01*
X40948363Y-1163787D01*
X40948360Y-1163788D01*
X40787002Y-1246006D01*
X40640505Y-1352441D01*
X40640500Y-1352445D01*
X40512445Y-1480500D01*
X40512441Y-1480505D01*
X40406006Y-1627002D01*
X40323788Y-1788360D01*
X40323787Y-1788363D01*
X40267829Y-1960589D01*
X40242473Y-2120678D01*
X40212544Y-2183813D01*
X40153232Y-2220744D01*
X40083369Y-2219746D01*
X40025137Y-2181136D01*
X39997527Y-2120678D01*
X39983740Y-2033639D01*
X39972171Y-1960591D01*
X39928530Y-1826275D01*
X39916212Y-1788363D01*
X39916211Y-1788360D01*
X39877191Y-1711780D01*
X39833996Y-1627006D01*
X39820396Y-1608287D01*
X39727558Y-1480505D01*
X39727554Y-1480500D01*
X39599499Y-1352445D01*
X39599494Y-1352441D01*
X39452997Y-1246006D01*
X39452996Y-1246005D01*
X39452994Y-1246004D01*
X39401300Y-1219664D01*
X39291639Y-1163788D01*
X39291636Y-1163787D01*
X39119410Y-1107829D01*
X38940551Y-1079500D01*
X38940546Y-1079500D01*
X38759454Y-1079500D01*
X38759449Y-1079500D01*
X38580589Y-1107829D01*
X38408363Y-1163787D01*
X38408360Y-1163788D01*
X38247002Y-1246006D01*
X38100505Y-1352441D01*
X38100500Y-1352445D01*
X37972445Y-1480500D01*
X37972441Y-1480505D01*
X37866006Y-1627002D01*
X37783788Y-1788360D01*
X37783787Y-1788363D01*
X37727829Y-1960589D01*
X37702473Y-2120678D01*
X37672544Y-2183813D01*
X37613232Y-2220744D01*
X37543369Y-2219746D01*
X37485137Y-2181136D01*
X37457527Y-2120678D01*
X37443740Y-2033639D01*
X37432171Y-1960591D01*
X37388530Y-1826275D01*
X37376212Y-1788363D01*
X37376211Y-1788360D01*
X37337191Y-1711780D01*
X37293996Y-1627006D01*
X37280396Y-1608287D01*
X37187558Y-1480505D01*
X37187554Y-1480500D01*
X37059499Y-1352445D01*
X37059494Y-1352441D01*
X36912997Y-1246006D01*
X36912996Y-1246005D01*
X36912994Y-1246004D01*
X36861300Y-1219664D01*
X36751639Y-1163788D01*
X36751636Y-1163787D01*
X36579410Y-1107829D01*
X36400551Y-1079500D01*
X36400546Y-1079500D01*
X36219454Y-1079500D01*
X36219449Y-1079500D01*
X36040589Y-1107829D01*
X35868363Y-1163787D01*
X35868360Y-1163788D01*
X35707002Y-1246006D01*
X35560505Y-1352441D01*
X35560500Y-1352445D01*
X35432445Y-1480500D01*
X35432441Y-1480505D01*
X35326006Y-1627002D01*
X35243788Y-1788360D01*
X35243787Y-1788363D01*
X35187829Y-1960589D01*
X35162473Y-2120678D01*
X35132544Y-2183813D01*
X35073232Y-2220744D01*
X35003369Y-2219746D01*
X34945137Y-2181136D01*
X34917527Y-2120678D01*
X34903740Y-2033639D01*
X34892171Y-1960591D01*
X34848530Y-1826275D01*
X34836212Y-1788363D01*
X34836211Y-1788360D01*
X34797191Y-1711780D01*
X34753996Y-1627006D01*
X34740396Y-1608287D01*
X34647558Y-1480505D01*
X34647554Y-1480500D01*
X34519499Y-1352445D01*
X34519494Y-1352441D01*
X34372997Y-1246006D01*
X34372996Y-1246005D01*
X34372994Y-1246004D01*
X34321300Y-1219664D01*
X34211639Y-1163788D01*
X34211636Y-1163787D01*
X34039410Y-1107829D01*
X33860551Y-1079500D01*
X33860546Y-1079500D01*
X33679454Y-1079500D01*
X33679449Y-1079500D01*
X33500589Y-1107829D01*
X33328363Y-1163787D01*
X33328360Y-1163788D01*
X33167002Y-1246006D01*
X33020505Y-1352441D01*
X33020500Y-1352445D01*
X32892445Y-1480500D01*
X32892441Y-1480505D01*
X32786004Y-1627004D01*
X32718908Y-1758685D01*
X32670933Y-1809480D01*
X32603112Y-1826275D01*
X32536977Y-1803737D01*
X32493527Y-1749021D01*
X32490492Y-1740705D01*
X32481094Y-1711780D01*
X32384626Y-1522453D01*
X32384618Y-1522440D01*
X32375025Y-1509237D01*
X32375025Y-1509236D01*
X31727905Y-2156357D01*
X31695925Y-2037007D01*
X31630099Y-1922993D01*
X31537007Y-1829901D01*
X31422993Y-1764075D01*
X31303642Y-1732094D01*
X31950761Y-1084973D01*
X31937550Y-1075375D01*
X31748217Y-978904D01*
X31546129Y-913242D01*
X31336246Y-880000D01*
X31123754Y-880000D01*
X30913872Y-913242D01*
X30913869Y-913242D01*
X30711782Y-978904D01*
X30522448Y-1075375D01*
X30509237Y-1084972D01*
X30509237Y-1084973D01*
X31156358Y-1732094D01*
X31037007Y-1764075D01*
X30922993Y-1829901D01*
X30829901Y-1922993D01*
X30764075Y-2037007D01*
X30732094Y-2156358D01*
X30084973Y-1509237D01*
X30084972Y-1509237D01*
X30075375Y-1522448D01*
X29978905Y-1711781D01*
X29969506Y-1740708D01*
X29930068Y-1798383D01*
X29865709Y-1825581D01*
X29796862Y-1813666D01*
X29745387Y-1766421D01*
X29741090Y-1758684D01*
X29717191Y-1711780D01*
X29673996Y-1627006D01*
X29660396Y-1608287D01*
X29567558Y-1480505D01*
X29567554Y-1480500D01*
X29439499Y-1352445D01*
X29439494Y-1352441D01*
X29292995Y-1246004D01*
X29286542Y-1242716D01*
X29286541Y-1242716D01*
X29131639Y-1163788D01*
X29131636Y-1163787D01*
X28959410Y-1107829D01*
X28780551Y-1079500D01*
X28780546Y-1079500D01*
X28599454Y-1079500D01*
X28599449Y-1079500D01*
X28420589Y-1107829D01*
X28248363Y-1163787D01*
X28248360Y-1163788D01*
X28087002Y-1246006D01*
X27940505Y-1352441D01*
X27940500Y-1352445D01*
X27812445Y-1480500D01*
X27812441Y-1480505D01*
X27706006Y-1627002D01*
X27623788Y-1788360D01*
X27623787Y-1788363D01*
X27567829Y-1960589D01*
X27542473Y-2120678D01*
X27512544Y-2183813D01*
X27453232Y-2220744D01*
X27383369Y-2219746D01*
X27325137Y-2181136D01*
X27297527Y-2120678D01*
X27283740Y-2033639D01*
X27272171Y-1960591D01*
X27228530Y-1826275D01*
X27216212Y-1788363D01*
X27216211Y-1788360D01*
X27177191Y-1711780D01*
X27133996Y-1627006D01*
X27120396Y-1608287D01*
X27027558Y-1480505D01*
X27027554Y-1480500D01*
X26899499Y-1352445D01*
X26899494Y-1352441D01*
X26752997Y-1246006D01*
X26752996Y-1246005D01*
X26752994Y-1246004D01*
X26701300Y-1219664D01*
X26591639Y-1163788D01*
X26591636Y-1163787D01*
X26419410Y-1107829D01*
X26240551Y-1079500D01*
X26240546Y-1079500D01*
X26059454Y-1079500D01*
X26059449Y-1079500D01*
X25880589Y-1107829D01*
X25708363Y-1163787D01*
X25708360Y-1163788D01*
X25547002Y-1246006D01*
X25400505Y-1352441D01*
X25400500Y-1352445D01*
X25272445Y-1480500D01*
X25272441Y-1480505D01*
X25166004Y-1627004D01*
X25098908Y-1758685D01*
X25050933Y-1809480D01*
X24983112Y-1826275D01*
X24916977Y-1803737D01*
X24873527Y-1749021D01*
X24870492Y-1740705D01*
X24861094Y-1711780D01*
X24764626Y-1522453D01*
X24764618Y-1522440D01*
X24755025Y-1509237D01*
X24755025Y-1509236D01*
X24107905Y-2156357D01*
X24075925Y-2037007D01*
X24010099Y-1922993D01*
X23917007Y-1829901D01*
X23802993Y-1764075D01*
X23683642Y-1732094D01*
X24330761Y-1084973D01*
X24317550Y-1075375D01*
X24128217Y-978904D01*
X23926129Y-913242D01*
X23716246Y-880000D01*
X23503754Y-880000D01*
X23293872Y-913242D01*
X23293869Y-913242D01*
X23091782Y-978904D01*
X22902448Y-1075375D01*
X22889237Y-1084972D01*
X22889237Y-1084973D01*
X23536358Y-1732094D01*
X23417007Y-1764075D01*
X23302993Y-1829901D01*
X23209901Y-1922993D01*
X23144075Y-2037007D01*
X23112094Y-2156358D01*
X22464973Y-1509237D01*
X22464972Y-1509237D01*
X22455375Y-1522448D01*
X22358905Y-1711781D01*
X22349506Y-1740708D01*
X22310068Y-1798383D01*
X22245709Y-1825581D01*
X22176862Y-1813666D01*
X22125387Y-1766421D01*
X22121090Y-1758684D01*
X22097191Y-1711780D01*
X22053996Y-1627006D01*
X22040396Y-1608287D01*
X21947558Y-1480505D01*
X21947554Y-1480500D01*
X21819499Y-1352445D01*
X21819494Y-1352441D01*
X21672995Y-1246004D01*
X21666542Y-1242716D01*
X21666541Y-1242716D01*
X21511639Y-1163788D01*
X21511636Y-1163787D01*
X21339410Y-1107829D01*
X21160551Y-1079500D01*
X21160546Y-1079500D01*
X20979454Y-1079500D01*
X20979449Y-1079500D01*
X20800589Y-1107829D01*
X20628363Y-1163787D01*
X20628360Y-1163788D01*
X20467002Y-1246006D01*
X20320505Y-1352441D01*
X20320500Y-1352445D01*
X20192445Y-1480500D01*
X20192441Y-1480505D01*
X20086006Y-1627002D01*
X20003788Y-1788360D01*
X20003787Y-1788363D01*
X19947829Y-1960589D01*
X19922473Y-2120678D01*
X19892544Y-2183813D01*
X19833232Y-2220744D01*
X19763369Y-2219746D01*
X19705137Y-2181136D01*
X19677527Y-2120678D01*
X19663740Y-2033639D01*
X19652171Y-1960591D01*
X19608530Y-1826275D01*
X19596212Y-1788363D01*
X19596211Y-1788360D01*
X19557191Y-1711780D01*
X19513996Y-1627006D01*
X19500396Y-1608287D01*
X19407558Y-1480505D01*
X19407554Y-1480500D01*
X19279499Y-1352445D01*
X19279494Y-1352441D01*
X19132997Y-1246006D01*
X19132996Y-1246005D01*
X19132994Y-1246004D01*
X19081300Y-1219664D01*
X18971639Y-1163788D01*
X18971636Y-1163787D01*
X18799410Y-1107829D01*
X18620551Y-1079500D01*
X18620546Y-1079500D01*
X18439454Y-1079500D01*
X18439449Y-1079500D01*
X18260589Y-1107829D01*
X18088363Y-1163787D01*
X18088360Y-1163788D01*
X17927002Y-1246006D01*
X17780505Y-1352441D01*
X17780500Y-1352445D01*
X17652445Y-1480500D01*
X17652441Y-1480505D01*
X17546006Y-1627002D01*
X17463788Y-1788360D01*
X17463787Y-1788363D01*
X17407829Y-1960589D01*
X17382473Y-2120678D01*
X17352544Y-2183813D01*
X17293232Y-2220744D01*
X17223369Y-2219746D01*
X17165137Y-2181136D01*
X17137527Y-2120678D01*
X17123740Y-2033639D01*
X17112171Y-1960591D01*
X17068530Y-1826275D01*
X17056212Y-1788363D01*
X17056211Y-1788360D01*
X17017191Y-1711780D01*
X16973996Y-1627006D01*
X16960396Y-1608287D01*
X16867558Y-1480505D01*
X16867554Y-1480500D01*
X16739499Y-1352445D01*
X16739494Y-1352441D01*
X16592997Y-1246006D01*
X16592996Y-1246005D01*
X16592994Y-1246004D01*
X16541300Y-1219664D01*
X16431639Y-1163788D01*
X16431636Y-1163787D01*
X16259410Y-1107829D01*
X16080551Y-1079500D01*
X16080546Y-1079500D01*
X15899454Y-1079500D01*
X15899449Y-1079500D01*
X15720589Y-1107829D01*
X15548363Y-1163787D01*
X15548360Y-1163788D01*
X15387002Y-1246006D01*
X15240505Y-1352441D01*
X15240500Y-1352445D01*
X15112445Y-1480500D01*
X15112441Y-1480505D01*
X15006004Y-1627004D01*
X14938908Y-1758685D01*
X14890933Y-1809480D01*
X14823112Y-1826275D01*
X14756977Y-1803737D01*
X14713527Y-1749021D01*
X14710492Y-1740705D01*
X14701094Y-1711780D01*
X14604626Y-1522453D01*
X14604618Y-1522440D01*
X14595025Y-1509237D01*
X14595025Y-1509236D01*
X13947905Y-2156356D01*
X13915925Y-2037007D01*
X13850099Y-1922993D01*
X13757007Y-1829901D01*
X13642993Y-1764075D01*
X13523642Y-1732094D01*
X14170761Y-1084973D01*
X14157550Y-1075375D01*
X13968217Y-978904D01*
X13766129Y-913242D01*
X13556246Y-880000D01*
X13343754Y-880000D01*
X13133872Y-913242D01*
X13133869Y-913242D01*
X12931782Y-978904D01*
X12742448Y-1075375D01*
X12729237Y-1084972D01*
X12729237Y-1084973D01*
X13376358Y-1732094D01*
X13257007Y-1764075D01*
X13142993Y-1829901D01*
X13049901Y-1922993D01*
X12984075Y-2037007D01*
X12952094Y-2156358D01*
X12304973Y-1509237D01*
X12304972Y-1509237D01*
X12295375Y-1522448D01*
X12198905Y-1711781D01*
X12189506Y-1740708D01*
X12150068Y-1798383D01*
X12085709Y-1825581D01*
X12016862Y-1813666D01*
X11965387Y-1766421D01*
X11961090Y-1758684D01*
X11937191Y-1711780D01*
X11893996Y-1627006D01*
X11880396Y-1608287D01*
X11787558Y-1480505D01*
X11787554Y-1480500D01*
X11659499Y-1352445D01*
X11659494Y-1352441D01*
X11512995Y-1246004D01*
X11506542Y-1242716D01*
X11506541Y-1242716D01*
X11351639Y-1163788D01*
X11351636Y-1163787D01*
X11179410Y-1107829D01*
X11000551Y-1079500D01*
X11000546Y-1079500D01*
X10819454Y-1079500D01*
X10819449Y-1079500D01*
X10640589Y-1107829D01*
X10468363Y-1163787D01*
X10468360Y-1163788D01*
X10307002Y-1246006D01*
X10160505Y-1352441D01*
X10160500Y-1352445D01*
X10032445Y-1480500D01*
X10032441Y-1480505D01*
X9926006Y-1627001D01*
X9900299Y-1677453D01*
X9870062Y-1736796D01*
X9822090Y-1787591D01*
X9759579Y-1804500D01*
X9520421Y-1804500D01*
X9453382Y-1784815D01*
X9409937Y-1736796D01*
X9353996Y-1627006D01*
X9353994Y-1627003D01*
X9353993Y-1627001D01*
X9247558Y-1480505D01*
X9247554Y-1480500D01*
X9119499Y-1352445D01*
X9119494Y-1352441D01*
X8972997Y-1246006D01*
X8972996Y-1246005D01*
X8972994Y-1246004D01*
X8921300Y-1219664D01*
X8811639Y-1163788D01*
X8811636Y-1163787D01*
X8639410Y-1107829D01*
X8460551Y-1079500D01*
X8460546Y-1079500D01*
X8279454Y-1079500D01*
X8279449Y-1079500D01*
X8100589Y-1107829D01*
X7928363Y-1163787D01*
X7928360Y-1163788D01*
X7767002Y-1246006D01*
X7620505Y-1352441D01*
X7620500Y-1352445D01*
X7492445Y-1480500D01*
X7492441Y-1480505D01*
X7386006Y-1627002D01*
X7303788Y-1788360D01*
X7303787Y-1788363D01*
X7247829Y-1960589D01*
X7219500Y-2139448D01*
X7219500Y-2320551D01*
X7247829Y-2499410D01*
X7303787Y-2671636D01*
X7303788Y-2671639D01*
X7386006Y-2832997D01*
X7492441Y-2979494D01*
X7492445Y-2979499D01*
X7620500Y-3107554D01*
X7620505Y-3107558D01*
X7691774Y-3159337D01*
X7767006Y-3213996D01*
X7872484Y-3267740D01*
X7928360Y-3296211D01*
X7928363Y-3296212D01*
X7944411Y-3301426D01*
X8100591Y-3352171D01*
X8204716Y-3368662D01*
X8232270Y-3373027D01*
X8295405Y-3402956D01*
X8332336Y-3462268D01*
X8331338Y-3532130D01*
X8292728Y-3590363D01*
X8228765Y-3618477D01*
X8212872Y-3619500D01*
X7475143Y-3619500D01*
X7475117Y-3619502D01*
X7450012Y-3622413D01*
X7450008Y-3622415D01*
X7347235Y-3667793D01*
X7267794Y-3747234D01*
X7222415Y-3850006D01*
X7222415Y-3850008D01*
X7219500Y-3875131D01*
X7219500Y-5664856D01*
X7219502Y-5664882D01*
X7222413Y-5689987D01*
X7222415Y-5689991D01*
X7267793Y-5792764D01*
X7267794Y-5792765D01*
X7347235Y-5872206D01*
X7450009Y-5917585D01*
X7475135Y-5920500D01*
X9264864Y-5920499D01*
X9264879Y-5920497D01*
X9264882Y-5920497D01*
X9289987Y-5917586D01*
X9289988Y-5917585D01*
X9289991Y-5917585D01*
X9392765Y-5872206D01*
X9472206Y-5792765D01*
X9517585Y-5689991D01*
X9520500Y-5664865D01*
X9520500Y-5312678D01*
X9540185Y-5245639D01*
X9592989Y-5199884D01*
X9612397Y-5192906D01*
X9710604Y-5166592D01*
X9780453Y-5168255D01*
X9838315Y-5207418D01*
X9853181Y-5230072D01*
X9856163Y-5235925D01*
X9917704Y-5356705D01*
X9926006Y-5372997D01*
X10032441Y-5519494D01*
X10032445Y-5519499D01*
X10160500Y-5647554D01*
X10160505Y-5647558D01*
X10228790Y-5697169D01*
X10307006Y-5753996D01*
X10383094Y-5792765D01*
X10468360Y-5836211D01*
X10468363Y-5836212D01*
X10523400Y-5854094D01*
X10640591Y-5892171D01*
X10723429Y-5905291D01*
X10819449Y-5920500D01*
X10819454Y-5920500D01*
X11000551Y-5920500D01*
X11087259Y-5906765D01*
X11179409Y-5892171D01*
X11351639Y-5836211D01*
X11512994Y-5753996D01*
X11659501Y-5647553D01*
X11787553Y-5519501D01*
X11893996Y-5372994D01*
X11976211Y-5211639D01*
X12032171Y-5039409D01*
X12046422Y-4949425D01*
X12057527Y-4879321D01*
X12087456Y-4816186D01*
X12146768Y-4779255D01*
X12216630Y-4780253D01*
X12274863Y-4818863D01*
X12302473Y-4879321D01*
X12327829Y-5039410D01*
X12383787Y-5211636D01*
X12383788Y-5211639D01*
X12435271Y-5312678D01*
X12457704Y-5356705D01*
X12466006Y-5372997D01*
X12572441Y-5519494D01*
X12572445Y-5519499D01*
X12700500Y-5647554D01*
X12700505Y-5647558D01*
X12768790Y-5697169D01*
X12847006Y-5753996D01*
X12923094Y-5792765D01*
X13008360Y-5836211D01*
X13008363Y-5836212D01*
X13063400Y-5854094D01*
X13180591Y-5892171D01*
X13263429Y-5905291D01*
X13359449Y-5920500D01*
X13453189Y-5920500D01*
X13520228Y-5940185D01*
X13565983Y-5992989D01*
X13575927Y-6062147D01*
X13546902Y-6125703D01*
X13540870Y-6132181D01*
X5705970Y-13967081D01*
X5644647Y-14000566D01*
X5618289Y-14003400D01*
X5501905Y-14003400D01*
X5366577Y-14030318D01*
X5366567Y-14030321D01*
X5239095Y-14083121D01*
X5239082Y-14083128D01*
X5124358Y-14159785D01*
X5124354Y-14159788D01*
X5026788Y-14257354D01*
X5026785Y-14257358D01*
X4950128Y-14372082D01*
X4950121Y-14372095D01*
X4897321Y-14499567D01*
X4897318Y-14499577D01*
X4870400Y-14634904D01*
X4870400Y-14634907D01*
X4870400Y-14772893D01*
X4870400Y-14772895D01*
X4870399Y-14772895D01*
X4897318Y-14908222D01*
X4897321Y-14908232D01*
X4950121Y-15035704D01*
X4950128Y-15035717D01*
X5026785Y-15150441D01*
X5026788Y-15150445D01*
X5124354Y-15248011D01*
X5124358Y-15248014D01*
X5239082Y-15324671D01*
X5239095Y-15324678D01*
X5366567Y-15377478D01*
X5366572Y-15377480D01*
X5366576Y-15377480D01*
X5366577Y-15377481D01*
X5501904Y-15404400D01*
X5501907Y-15404400D01*
X5639895Y-15404400D01*
X5730941Y-15386289D01*
X5775228Y-15377480D01*
X5902711Y-15324675D01*
X6017442Y-15248014D01*
X6115014Y-15150442D01*
X6191675Y-15035711D01*
X6244480Y-14908228D01*
X6266442Y-14797819D01*
X6271400Y-14772895D01*
X6271400Y-14656509D01*
X6291085Y-14589470D01*
X6307719Y-14568828D01*
X6438728Y-14437819D01*
X6617382Y-14259164D01*
X6678703Y-14225681D01*
X6748394Y-14230665D01*
X6804328Y-14272536D01*
X6828000Y-14330657D01*
X6830799Y-14351917D01*
X6891870Y-14579837D01*
X6982160Y-14797819D01*
X6982168Y-14797835D01*
X7100138Y-15002163D01*
X7100148Y-15002178D01*
X7132020Y-15043715D01*
X7863441Y-14312293D01*
X7891049Y-14378942D01*
X7978599Y-14509970D01*
X8090030Y-14621401D01*
X8221058Y-14708951D01*
X8287705Y-14736557D01*
X7556284Y-15467979D01*
X7597822Y-15499851D01*
X7597836Y-15499861D01*
X7802164Y-15617831D01*
X7802180Y-15617839D01*
X8020163Y-15708129D01*
X8020161Y-15708129D01*
X8248085Y-15769200D01*
X8482014Y-15799999D01*
X8482029Y-15800000D01*
X8717971Y-15800000D01*
X8717985Y-15799999D01*
X8791435Y-15790329D01*
X8860471Y-15801094D01*
X8912727Y-15847474D01*
X8931612Y-15914743D01*
X8911132Y-15981544D01*
X8895302Y-16000949D01*
X5418037Y-19478215D01*
X5338817Y-19557434D01*
X5338813Y-19557440D01*
X5282798Y-19654460D01*
X5282797Y-19654463D01*
X5253800Y-19762682D01*
X5253800Y-21367824D01*
X5234115Y-21434863D01*
X5181311Y-21480618D01*
X5112153Y-21490562D01*
X5054313Y-21466200D01*
X4946488Y-21383462D01*
X4753520Y-21272054D01*
X4753502Y-21272045D01*
X4547618Y-21186763D01*
X4332367Y-21129088D01*
X4332354Y-21129085D01*
X4111425Y-21100000D01*
X3888575Y-21100000D01*
X3667645Y-21129085D01*
X3667632Y-21129088D01*
X3452381Y-21186763D01*
X3246497Y-21272045D01*
X3246479Y-21272054D01*
X3053511Y-21383462D01*
X3027605Y-21403341D01*
X3844708Y-22220444D01*
X3768409Y-22240889D01*
X3631592Y-22319881D01*
X3519881Y-22431592D01*
X3440889Y-22568409D01*
X3420444Y-22644708D01*
X2603341Y-21827605D01*
X2583462Y-21853511D01*
X2472054Y-22046479D01*
X2472045Y-22046497D01*
X2386763Y-22252381D01*
X2329088Y-22467632D01*
X2329085Y-22467645D01*
X2300000Y-22688575D01*
X2300000Y-22911424D01*
X2329085Y-23132354D01*
X2329088Y-23132367D01*
X2386763Y-23347618D01*
X2472045Y-23553502D01*
X2472050Y-23553514D01*
X2583468Y-23746497D01*
X2603340Y-23772393D01*
X2603341Y-23772394D01*
X3420444Y-22955291D01*
X3440889Y-23031591D01*
X3519881Y-23168408D01*
X3631592Y-23280119D01*
X3768409Y-23359111D01*
X3844707Y-23379554D01*
X3027605Y-24196657D01*
X3027605Y-24196658D01*
X3053502Y-24216530D01*
X3246485Y-24327949D01*
X3246497Y-24327954D01*
X3452381Y-24413236D01*
X3667632Y-24470911D01*
X3667645Y-24470914D01*
X3888575Y-24500000D01*
X4111425Y-24500000D01*
X4332354Y-24470914D01*
X4332367Y-24470911D01*
X4547618Y-24413236D01*
X4753502Y-24327954D01*
X4753520Y-24327945D01*
X4946491Y-24216535D01*
X4946494Y-24216533D01*
X5054313Y-24133800D01*
X5119482Y-24108605D01*
X5187927Y-24122643D01*
X5237917Y-24171456D01*
X5253800Y-24232175D01*
X5253800Y-24393089D01*
X5234115Y-24460128D01*
X5217481Y-24480770D01*
X4935070Y-24763181D01*
X4873747Y-24796666D01*
X4847389Y-24799500D01*
X3006908Y-24799500D01*
X2918437Y-24810123D01*
X2777657Y-24865639D01*
X2777655Y-24865640D01*
X2657077Y-24957077D01*
X2565640Y-25077655D01*
X2565639Y-25077658D01*
X2533002Y-25160422D01*
X2510124Y-25218437D01*
X2510123Y-25218438D01*
X2499500Y-25306900D01*
X2499500Y-27147389D01*
X2479815Y-27214428D01*
X2463181Y-27235070D01*
X2191937Y-27506315D01*
X2112717Y-27585534D01*
X2112713Y-27585540D01*
X2056698Y-27682560D01*
X2056697Y-27682563D01*
X2027700Y-27790782D01*
X400500Y-27790782D01*
X400500Y-3351146D01*
X849500Y-3351146D01*
X849500Y-3648853D01*
X882830Y-3944662D01*
X882831Y-3944671D01*
X882832Y-3944675D01*
X895510Y-4000219D01*
X949076Y-4234912D01*
X949079Y-4234920D01*
X1047400Y-4515904D01*
X1176563Y-4784114D01*
X1176565Y-4784117D01*
X1334950Y-5036185D01*
X1520562Y-5268934D01*
X1731066Y-5479438D01*
X1963815Y-5665050D01*
X2215883Y-5823435D01*
X2484099Y-5952601D01*
X2599522Y-5992989D01*
X2765079Y-6050920D01*
X2765087Y-6050923D01*
X2765090Y-6050923D01*
X2765091Y-6050924D01*
X3055325Y-6117168D01*
X3351147Y-6150499D01*
X3351148Y-6150500D01*
X3351151Y-6150500D01*
X3648852Y-6150500D01*
X3648852Y-6150499D01*
X3944675Y-6117168D01*
X4234909Y-6050924D01*
X4515901Y-5952601D01*
X4784117Y-5823435D01*
X5036185Y-5665050D01*
X5268934Y-5479438D01*
X5479438Y-5268934D01*
X5665050Y-5036185D01*
X5823435Y-4784117D01*
X5952601Y-4515901D01*
X6050924Y-4234909D01*
X6117168Y-3944675D01*
X6150500Y-3648849D01*
X6150500Y-3351151D01*
X6117168Y-3055325D01*
X6050924Y-2765091D01*
X5952601Y-2484099D01*
X5823435Y-2215883D01*
X5665050Y-1963815D01*
X5479438Y-1731066D01*
X5268934Y-1520562D01*
X5036185Y-1334950D01*
X4784117Y-1176565D01*
X4784114Y-1176563D01*
X4515904Y-1047400D01*
X4234920Y-949079D01*
X4234912Y-949076D01*
X4017233Y-899393D01*
X3944675Y-882832D01*
X3944671Y-882831D01*
X3944662Y-882830D01*
X3648853Y-849500D01*
X3648849Y-849500D01*
X3351151Y-849500D01*
X3351146Y-849500D01*
X3055337Y-882830D01*
X3055325Y-882832D01*
X2765087Y-949076D01*
X2765079Y-949079D01*
X2484095Y-1047400D01*
X2215885Y-1176563D01*
X1963816Y-1334949D01*
X1731066Y-1520561D01*
X1520561Y-1731066D01*
X1334949Y-1963816D01*
X1176563Y-2215885D01*
X1047400Y-2484095D01*
X949079Y-2765079D01*
X949076Y-2765087D01*
X882832Y-3055325D01*
X882830Y-3055337D01*
X849500Y-3351146D01*
X400500Y-3351146D01*
X400500Y-524500D01*
X420185Y-457461D01*
X472989Y-411706D01*
X524500Y-400500D01*
X64475500Y-400500D01*
X64542539Y-420185D01*
G37*
%TD.AperFunction*%
%TD*%
M02*
