%TF.GenerationSoftware,KiCad,Pcbnew,10.0.5*%
%TF.CreationDate,2026-07-28T01:16:20-04:00*%
%TF.ProjectId,exopet-hat,65786f70-6574-42d6-9861-742e6b696361,rev?*%
%TF.SameCoordinates,Original*%
%TF.FileFunction,Other,User*%
%FSLAX46Y46*%
G04 Gerber Fmt 4.6, Leading zero omitted, Abs format (unit mm)*
G04 Created by KiCad (PCBNEW 10.0.5) date 2026-07-28 01:16:20*
%MOMM*%
%LPD*%
G01*
G04 APERTURE LIST*
%ADD10C,0.050000*%
G04 APERTURE END LIST*
%TO.C,J1*%
D10*
X400000Y-9000000D02*
X15800000Y-9000000D01*
X400000Y-19000000D02*
X400000Y-9000000D01*
X9800000Y-19000000D02*
X400000Y-19000000D01*
X9800000Y-20500000D02*
X9800000Y-19000000D01*
X13400000Y-19000000D02*
X13400000Y-20500000D01*
X13400000Y-20500000D02*
X9800000Y-20500000D01*
X15800000Y-9000000D02*
X15800000Y-12200000D01*
X15800000Y-12200000D02*
X16400000Y-12200000D01*
X15800000Y-15800000D02*
X15800000Y-19000000D01*
X15800000Y-19000000D02*
X13400000Y-19000000D01*
X16400000Y-12200000D02*
X16400000Y-15800000D01*
X16400000Y-15800000D02*
X15800000Y-15800000D01*
%TO.C,J11*%
X47250000Y-48400000D02*
X58750000Y-48400000D01*
X58750000Y-57000000D01*
X47250000Y-57000000D01*
X47250000Y-48400000D01*
%TO.C,J13*%
X400000Y-20550000D02*
X9000000Y-20550000D01*
X9000000Y-28550000D01*
X400000Y-28550000D01*
X400000Y-20550000D01*
%TO.C,H4*%
X64100000Y-52500000D02*
G75*
G02*
X58900000Y-52500000I-2600000J0D01*
G01*
X58900000Y-52500000D02*
G75*
G02*
X64100000Y-52500000I2600000J0D01*
G01*
%TO.C,F1*%
X12150000Y-26600000D02*
X15650000Y-26600000D01*
X15650000Y-37500000D01*
X12150000Y-37500000D01*
X12150000Y-26600000D01*
%TO.C,K4*%
X40200000Y-24800000D02*
X40200000Y-41800000D01*
X40200000Y-41800000D02*
X63200000Y-41800000D01*
X63200000Y-24800000D02*
X40200000Y-24800000D01*
X63200000Y-41800000D02*
X63200000Y-24800000D01*
%TO.C,K2*%
X40200000Y-7700000D02*
X40200000Y-24700000D01*
X40200000Y-24700000D02*
X63200000Y-24700000D01*
X63200000Y-7700000D02*
X40200000Y-7700000D01*
X63200000Y-24700000D02*
X63200000Y-7700000D01*
%TO.C,F2*%
X28950000Y-42250000D02*
X39150000Y-42250000D01*
X39150000Y-45750000D01*
X28950000Y-45750000D01*
X28950000Y-42250000D01*
%TO.C,F3*%
X39450000Y-42250000D02*
X49650000Y-42250000D01*
X49650000Y-45750000D01*
X39450000Y-45750000D01*
X39450000Y-42250000D01*
%TO.C,J9*%
X22250000Y-48400000D02*
X30250000Y-48400000D01*
X30250000Y-57000000D01*
X22250000Y-57000000D01*
X22250000Y-48400000D01*
%TO.C,J8*%
X10250000Y-48400000D02*
X18250000Y-48400000D01*
X18250000Y-57000000D01*
X10250000Y-57000000D01*
X10250000Y-48400000D01*
%TO.C,H2*%
X64100000Y-3500000D02*
G75*
G02*
X58900000Y-3500000I-2600000J0D01*
G01*
X58900000Y-3500000D02*
G75*
G02*
X64100000Y-3500000I2600000J0D01*
G01*
%TO.C,J4*%
X400000Y-37250000D02*
X9000000Y-37250000D01*
X9000000Y-48750000D01*
X400000Y-48750000D01*
X400000Y-37250000D01*
%TO.C,H1*%
X6100000Y-3500000D02*
G75*
G02*
X900000Y-3500000I-2600000J0D01*
G01*
X900000Y-3500000D02*
G75*
G02*
X6100000Y-3500000I2600000J0D01*
G01*
%TO.C,K3*%
X17000000Y-24800000D02*
X17000000Y-41800000D01*
X17000000Y-41800000D02*
X40000000Y-41800000D01*
X40000000Y-24800000D02*
X17000000Y-24800000D01*
X40000000Y-41800000D02*
X40000000Y-24800000D01*
%TO.C,K1*%
X17000000Y-7700000D02*
X17000000Y-24700000D01*
X17000000Y-24700000D02*
X40000000Y-24700000D01*
X40000000Y-7700000D02*
X17000000Y-7700000D01*
X40000000Y-24700000D02*
X40000000Y-7700000D01*
%TO.C,PSU1*%
X14070000Y-42030000D02*
X27770000Y-42030000D01*
X14070000Y-45570000D02*
X14070000Y-42030000D01*
X27770000Y-42030000D02*
X27770000Y-45570000D01*
X27770000Y-45570000D02*
X14070000Y-45570000D01*
%TO.C,J10*%
X34250000Y-48400000D02*
X42250000Y-48400000D01*
X42250000Y-57000000D01*
X34250000Y-57000000D01*
X34250000Y-48400000D01*
%TO.C,J14*%
X400000Y-28850000D02*
X9000000Y-28850000D01*
X9000000Y-36850000D01*
X400000Y-36850000D01*
X400000Y-28850000D01*
%TO.C,H3*%
X6100000Y-52500000D02*
G75*
G02*
X900000Y-52500000I-2600000J0D01*
G01*
X900000Y-52500000D02*
G75*
G02*
X6100000Y-52500000I2600000J0D01*
G01*
%TO.C,F4*%
X49950000Y-42250000D02*
X60150000Y-42250000D01*
X60150000Y-45750000D01*
X49950000Y-45750000D01*
X49950000Y-42250000D01*
%TD*%
M02*
