M48
; DRILL file KiCad 10.0.5 date 2026-07-28T01:16:20
; FORMAT={-:-/ absolute / metric / decimal}
; #@! TF.CreationDate,2026-07-28T01:16:20-04:00
; #@! TF.GenerationSoftware,Kicad,Pcbnew,10.0.5
; #@! TF.FileFunction,Plated,1,2,PTH
FMAT,2
METRIC
; #@! TA.AperFunction,Plated,PTH,ViaDrill
T1C0.400
; #@! TA.AperFunction,Plated,PTH,ComponentDrill
T2C0.710
; #@! TA.AperFunction,Plated,PTH,ComponentDrill
T3C1.000
; #@! TA.AperFunction,Plated,PTH,ComponentDrill
T4C1.010
; #@! TA.AperFunction,Plated,PTH,ComponentDrill
T5C1.200
; #@! TA.AperFunction,Plated,PTH,ComponentDrill
T6C1.300
; #@! TA.AperFunction,Plated,PTH,ComponentDrill
T7C1.600
; #@! TA.AperFunction,Plated,PTH,ComponentDrill
T8C2.700
%
G90
G05
T1
X5.571Y-14.704
X13.633Y-40.369
X13.741Y-38.749
X15.599Y-37.723
X16.297Y-34.047
X29.013Y-26.931
X34.859Y-19.869
X37.718Y-19.089
X38.483Y-36.291
X39.112Y-24.956
X39.795Y-19.899
X40.621Y-19.118
X40.75Y-8.163
X40.932Y-15.901
X42.682Y-30.544
X47.898Y-36.383
X48.587Y-8.448
X49.5Y-23.478
X50.912Y-37.247
X51.488Y-11.152
X51.649Y-14.014
X54.236Y-37.511
X56.825Y-37.82
T2
X31.5Y-43.4
X36.6Y-44.6
X42.0Y-43.4
X47.1Y-44.6
X52.5Y-43.4
X57.6Y-44.6
T3
X8.37Y-2.23
X8.37Y-4.77
X10.91Y-2.23
X10.91Y-4.77
X13.45Y-2.23
X13.45Y-4.77
X15.84Y-43.8
X15.99Y-2.23
X15.99Y-4.77
X18.38Y-43.8
X18.53Y-2.23
X18.53Y-4.77
X20.92Y-43.8
X21.07Y-2.23
X21.07Y-4.77
X23.46Y-43.8
X23.61Y-2.23
X23.61Y-4.77
X26.0Y-43.8
X26.15Y-2.23
X26.15Y-4.77
X28.69Y-2.23
X28.69Y-4.77
X31.23Y-2.23
X31.23Y-4.77
X33.77Y-2.23
X33.77Y-4.77
X36.31Y-2.23
X36.31Y-4.77
X38.85Y-2.23
X38.85Y-4.77
X41.39Y-2.23
X41.39Y-4.77
X43.93Y-2.23
X43.93Y-4.77
X46.47Y-2.23
X46.47Y-4.77
X49.01Y-2.23
X49.01Y-4.77
X51.55Y-2.23
X51.55Y-4.77
X54.09Y-2.23
X54.09Y-4.77
X56.63Y-2.23
X56.63Y-4.77
T4
X13.3Y-34.6
X14.5Y-29.5
T5
X4.0Y-22.8
X4.0Y-26.3
X4.0Y-31.1
X4.0Y-34.6
X4.0Y-39.5
X4.0Y-43.0
X4.0Y-46.5
X12.5Y-52.0
X16.0Y-52.0
X24.5Y-52.0
X28.0Y-52.0
X36.5Y-52.0
X40.0Y-52.0
X49.5Y-52.0
X53.0Y-52.0
X56.5Y-52.0
T6
X23.0Y-10.2
X23.0Y-22.2
X23.0Y-27.3
X23.0Y-39.3
X35.2Y-10.2
X35.2Y-22.2
X35.2Y-27.3
X35.2Y-39.3
X37.2Y-16.2
X37.2Y-33.3
X46.2Y-10.2
X46.2Y-22.2
X46.2Y-27.3
X46.2Y-39.3
X58.4Y-10.2
X58.4Y-22.2
X58.4Y-27.3
X58.4Y-39.3
X60.4Y-16.2
X60.4Y-33.3
T7
X8.6Y-14.0
X11.6Y-18.7
X14.6Y-14.0
T8
X3.5Y-3.5
X3.5Y-52.5
X61.5Y-3.5
X61.5Y-52.5
M30
